<svg xmlns="http://www.w3.org/2000/svg" viewBox="0 0 451.44 218.73"><title>Asset 1</title><g id="Layer_2" data-name="Layer 2"><g id="Layer_1-2" data-name="Layer 1"><g id="Layer_1-2-2" data-name="Layer 1-2"><path d="M57.92,14.45V165H24.77V46.23h-12V14.45Z" style="fill:#205cff"/><path d="M118.53,156.9q-14.31-8.52-22.71-25.65T87.43,88.91q0-76.72,63.33-76.27A60.31,60.31,0,0,1,183,20.92q14.31,8.52,22.71,25.66t8.39,42.33q0,25.88-8.39,43T183,157.24a62.15,62.15,0,0,1-32.23,7.95A60.32,60.32,0,0,1,118.53,156.9Zm54.59-35.53q6.69-12.25,6.7-33.37,0-43.57-29.29-43.58-15.66,0-22.24,11.8T121.7,88.68q0,20.89,6.59,32.92t22.24,12Q166.42,133.63,173.12,121.37Z" style="fill:#205cff"/><path d="M261.08,156.9q-14.29-8.52-22.7-25.65T230,88.91q0-76.72,63.34-76.27a60.25,60.25,0,0,1,32.23,8.28q14.31,8.52,22.7,25.66t8.4,42.33q0,25.88-8.4,43t-22.7,25.31a62.15,62.15,0,0,1-32.23,7.95A60.34,60.34,0,0,1,261.08,156.9Zm54.6-35.53q6.69-12.25,6.69-33.37,0-43.57-29.28-43.58-15.66,0-22.25,11.8t-6.58,32.46q0,20.89,6.58,32.92t22.25,12Q309,133.63,315.68,121.37Z" style="fill:#205cff"/><path d="M50.06,157.24H40.28V11.62H0V1.84H45.17a4.89,4.89,0,0,1,4.89,4.89Zm-33.14,0H7.14V43.4H0V33.62H12a4.89,4.89,0,0,1,4.89,4.89Z" style="fill:#fff"/><path d="M139,162.36h-1a65.38,65.38,0,0,1-34.74-9c-10.32-6.15-18.6-15.47-24.59-27.7-5.9-12-8.9-27-8.9-44.49,0-14.44,1.68-27.12,5-37.7,3.39-10.87,8.6-19.84,15.47-26.67C101.6,5.54,117.68-.11,138,0a65.42,65.42,0,0,1,34.75,9c10.32,6.14,18.59,15.46,24.59,27.7,5.91,12.06,8.9,27,8.9,44.49h-9.78c0-16-2.65-29.48-7.9-40.19-5.15-10.5-12.15-18.44-20.81-23.6a55.84,55.84,0,0,0-29.67-7.6H138c-17.65-.13-31.39,4.57-40.85,14C85.48,35.33,79.57,54.65,79.57,81.19c0,16,2.66,29.49,7.9,40.18,5.15,10.51,12.15,18.45,20.81,23.61A55.73,55.73,0,0,0,138,152.57h.12a57.72,57.72,0,0,0,29.75-7.3l4.85,8.49A67,67,0,0,1,139,162.36Zm-1.17-31.56a32.76,32.76,0,0,1-15.72-3.6,26.79,26.79,0,0,1-10.82-11c-4.76-8.7-7.18-20.57-7.18-35.26h9.78c0,13,2,23.32,6,30.57,3.54,6.47,9.25,9.49,18,9.49s14.68-3.09,18.3-9.71c4-7.41,6.1-17.85,6.1-31,0-13.47-2.19-23.55-6.49-30-4-5.88-9.81-8.74-17.91-8.74V31.81c11.45,0,20.2,4.39,26,13.05C169.3,53,172,64.61,172,80.28c0,14.83-2.45,26.85-7.29,35.71a27.22,27.22,0,0,1-11,11.15,33,33,0,0,1-15.92,3.66Z" style="fill:#fff"/><path d="M281.51,162.36h-.94a65.35,65.35,0,0,1-34.73-9c-10.32-6.15-18.6-15.47-24.59-27.7-5.9-12-8.9-27-8.9-44.49,0-14.44,1.67-27.12,5-37.7,3.4-10.87,8.6-19.84,15.48-26.67C244.16,5.54,260.24-.11,280.56,0a65.42,65.42,0,0,1,34.75,9l-5,8.4a55.84,55.84,0,0,0-29.67-7.6h-.1c-17.66-.13-31.4,4.57-40.85,14C228,35.33,222.13,54.65,222.13,81.19c0,16,2.66,29.49,7.9,40.18,5.14,10.51,12.15,18.45,20.81,23.61a55.76,55.76,0,0,0,29.67,7.59h.13a57.66,57.66,0,0,0,29.74-7.3C319,140.34,326,132.53,331.12,122c5.24-10.7,7.9-24.45,7.9-40.86h9.78c0,17.92-3,33.12-8.9,45.17-6,12.26-14.31,21.48-24.66,27.4A67,67,0,0,1,281.51,162.36Zm-1.16-31.56V121c8.86,0,14.67-3.09,18.29-9.71,4.05-7.41,6.1-17.85,6.1-31,0-13.47-2.18-23.55-6.49-30-3.95-5.88-9.8-8.74-17.9-8.74-8.61,0-14.49,3-18,9.3-4,7.09-6,17.21-6,30.08h-9.78c0-14.55,2.42-26.28,7.2-34.84A26.61,26.61,0,0,1,264.6,35.32a33.21,33.21,0,0,1,15.69-3.52c11.44,0,20.2,4.39,26,13.05,5.48,8.17,8.15,19.75,8.15,35.42,0,14.83-2.45,26.85-7.29,35.71a27.28,27.28,0,0,1-11,11.15A33,33,0,0,1,280.35,130.8Z" style="fill:#fff"/><path d="M451.42,92.86H429v22.83H407.57V92.86H385.13V72.49h22.44v-23H429v23h22.44Z" style="fill:#205cff"/><path d="M429.83,72.49h9.59V92.86H417v22.83H395.57V92.86H373.13V72.49h22.44v-23H417v23" style="fill:none;stroke:#fff;stroke-miterlimit:10;stroke-width:8.503936767578125px"/><g style="isolation:isolate"><path d="M46.7,193.11c1.33,1.37,2,3.39,2,6V210H46.31V199.32a6.61,6.61,0,0,0-1.44-4.59,5.08,5.08,0,0,0-4-1.6,5.49,5.49,0,0,0-4.28,1.77,7.49,7.49,0,0,0-1.6,5.2V210H32.68V199.32a6.61,6.61,0,0,0-1.45-4.59,5,5,0,0,0-4-1.6A5.47,5.47,0,0,0,23,194.9a7.49,7.49,0,0,0-1.6,5.2V210H19V191.4h2.42v4.42a6.18,6.18,0,0,1,2.46-3.56,7.23,7.23,0,0,1,4.13-1.2,7,7,0,0,1,4.22,1.29,6.7,6.7,0,0,1,2.45,3.81,6.83,6.83,0,0,1,2.62-3.79,7.16,7.16,0,0,1,4.25-1.31A6.87,6.87,0,0,1,46.7,193.11Z" style="fill:#fff"/><path d="M66.32,192.62a7.42,7.42,0,0,1,2.74,3.88v-5.1H71.4V210H69.06v-5.1a7.42,7.42,0,0,1-2.74,3.88,7.94,7.94,0,0,1-4.81,1.46A8.83,8.83,0,0,1,57,209a7.92,7.92,0,0,1-3.09-3.31,12.11,12.11,0,0,1,0-10.13A7.81,7.81,0,0,1,57,192.3a8.85,8.85,0,0,1,4.52-1.14A7.94,7.94,0,0,1,66.32,192.62Zm-9.22,2.64a8.75,8.75,0,0,0,0,10.84,6.58,6.58,0,0,0,5,2,7,7,0,0,0,3.55-.92,6.41,6.41,0,0,0,2.48-2.6,8.77,8.77,0,0,0,0-7.78,6.44,6.44,0,0,0-2.48-2.61,7,7,0,0,0-3.55-.91A6.58,6.58,0,0,0,57.1,195.26Z" style="fill:#fff"/><path d="M91.1,193.11a8.27,8.27,0,0,1,2,6V210H90.78V199.32a6.47,6.47,0,0,0-1.53-4.64,5.47,5.47,0,0,0-4.18-1.62,5.76,5.76,0,0,0-4.44,1.79A7.48,7.48,0,0,0,79,200.1V210H76.57V191.4H79V196a6.49,6.49,0,0,1,2.59-3.64,7.53,7.53,0,0,1,4.28-1.25A7,7,0,0,1,91.1,193.11Z" style="fill:#fff"/><path d="M107.51,191.4,114,206.87l6-15.47h2.65l-10.91,27.33h-2.72l3.74-9-7.82-18.36Z" style="fill:#fff"/><path d="M137.91,207a5.07,5.07,0,0,0,2-3.4h2.51a7.55,7.55,0,0,1-2.82,4.79,9.08,9.08,0,0,1-5.85,1.84,9.55,9.55,0,0,1-4.71-1.14,8,8,0,0,1-3.21-3.3,11.7,11.7,0,0,1,0-10.16,8,8,0,0,1,3.21-3.3,9.55,9.55,0,0,1,4.71-1.14,9.33,9.33,0,0,1,4.71,1.14,7.77,7.77,0,0,1,3,3,8.54,8.54,0,0,1,1,4.15,10.24,10.24,0,0,1-.13,1.73H127.06a7.72,7.72,0,0,0,1,3.93,5.84,5.84,0,0,0,2.43,2.33,7.1,7.1,0,0,0,3.23.75A6.9,6.9,0,0,0,137.91,207Zm-7.42-13.13a6,6,0,0,0-2.43,2.3,7.79,7.79,0,0,0-1,3.86h13.12a6.92,6.92,0,0,0-.74-3.84,5.59,5.59,0,0,0-2.38-2.32,7.66,7.66,0,0,0-6.57,0Z" style="fill:#fff"/><path d="M159.48,192.62a7.47,7.47,0,0,1,2.74,3.88v-5.1h2.34V210h-2.34v-5.1a7.47,7.47,0,0,1-2.74,3.88,7.94,7.94,0,0,1-4.81,1.46,8.83,8.83,0,0,1-4.51-1.16,7.86,7.86,0,0,1-3.09-3.31,12.11,12.11,0,0,1,0-10.13,7.75,7.75,0,0,1,3.08-3.3,8.85,8.85,0,0,1,4.52-1.14A7.94,7.94,0,0,1,159.48,192.62Zm-9.22,2.64a8.75,8.75,0,0,0,0,10.84,6.58,6.58,0,0,0,5,2,7,7,0,0,0,3.55-.92,6.41,6.41,0,0,0,2.48-2.6,8.77,8.77,0,0,0,0-7.78,6.44,6.44,0,0,0-2.48-2.61,7,7,0,0,0-3.55-.91A6.58,6.58,0,0,0,150.26,195.26Z" style="fill:#fff"/><path d="M174.76,192.14a8.38,8.38,0,0,1,4.39-1.08v2.58h-.78a6.78,6.78,0,0,0-4.46,1.45q-1.77,1.44-1.77,4.7V210h-2.41V191.4h2.41v3.84A6.34,6.34,0,0,1,174.76,192.14Z" style="fill:#fff"/><path d="M192.78,192.76a6.83,6.83,0,0,1,2.24,4.31h-2.27a4.61,4.61,0,0,0-1.48-3,4.86,4.86,0,0,0-3.42-1.17,4.24,4.24,0,0,0-2.87.9,3,3,0,0,0-1,2.39,2.5,2.5,0,0,0,.66,1.81,4.29,4.29,0,0,0,1.65,1,20.8,20.8,0,0,0,2.65.73,25.87,25.87,0,0,1,3.29,1,5.37,5.37,0,0,1,2.12,1.55,4.31,4.31,0,0,1,.88,2.86,4.57,4.57,0,0,1-1.64,3.62,6.5,6.5,0,0,1-4.37,1.41,8.34,8.34,0,0,1-5.24-1.58,6.34,6.34,0,0,1-2.41-4.34h2.31a4.33,4.33,0,0,0,1.6,3,5.67,5.67,0,0,0,3.77,1.16,3.87,3.87,0,0,0,2.75-.92,3.09,3.09,0,0,0,1-2.38,2.65,2.65,0,0,0-.68-1.9,4.18,4.18,0,0,0-1.68-1.07,25.65,25.65,0,0,0-2.74-.77,22.67,22.67,0,0,1-3.21-.95,5.13,5.13,0,0,1-2.06-1.48,4.08,4.08,0,0,1-.85-2.74,4.57,4.57,0,0,1,1.67-3.67,6.8,6.8,0,0,1,4.52-1.39A7.1,7.1,0,0,1,192.78,192.76Z" style="fill:#fff"/><path d="M221.53,192.3a8.2,8.2,0,0,1,3.28,3.3,10.37,10.37,0,0,1,1.19,5.08,10.26,10.26,0,0,1-1.19,5.06,8.33,8.33,0,0,1-3.28,3.3,10.33,10.33,0,0,1-9.51,0,8.3,8.3,0,0,1-3.31-3.31,11.21,11.21,0,0,1,0-10.13,8.21,8.21,0,0,1,3.31-3.3,10.49,10.49,0,0,1,9.51,0Zm-8.15,1.75a6.1,6.1,0,0,0-2.51,2.5,8.22,8.22,0,0,0-1,4.13,8.12,8.12,0,0,0,1,4.11,6.11,6.11,0,0,0,2.51,2.48,7.2,7.2,0,0,0,3.4.82,7,7,0,0,0,3.35-.82,6.15,6.15,0,0,0,2.5-2.48,8.12,8.12,0,0,0,1-4.11,8.22,8.22,0,0,0-1-4.13,6.14,6.14,0,0,0-2.5-2.5,7,7,0,0,0-3.35-.82A7.2,7.2,0,0,0,213.38,194.05Z" style="fill:#fff"/><path d="M234.48,187.4a4.31,4.31,0,0,0-1,3.25v.75h4.66v2.1h-4.66V210h-2.38V193.5h-2.75v-2.1h2.75v-.92a6.06,6.06,0,0,1,1.7-4.69c1.14-1,2.92-1.52,5.34-1.43v2.11A5.18,5.18,0,0,0,234.48,187.4Z" style="fill:#fff"/><path d="M262.82,207a5.07,5.07,0,0,0,2-3.4h2.52a7.56,7.56,0,0,1-2.83,4.79,9.07,9.07,0,0,1-5.84,1.84,9.55,9.55,0,0,1-4.71-1.14,7.94,7.94,0,0,1-3.22-3.3,11.8,11.8,0,0,1,0-10.16,7.94,7.94,0,0,1,3.22-3.3,9.55,9.55,0,0,1,4.71-1.14,9.27,9.27,0,0,1,4.7,1.14,7.7,7.7,0,0,1,3,3,8.55,8.55,0,0,1,1,4.15,10.18,10.18,0,0,1-.14,1.73H252a7.93,7.93,0,0,0,1,3.93,6,6,0,0,0,2.43,2.33,7.13,7.13,0,0,0,3.23.75A6.88,6.88,0,0,0,262.82,207Zm-7.41-13.13a5.89,5.89,0,0,0-2.43,2.3,7.79,7.79,0,0,0-1,3.86H265.1a6.83,6.83,0,0,0-.75-3.84,5.54,5.54,0,0,0-2.38-2.32,7.64,7.64,0,0,0-6.56,0Z" style="fill:#fff"/><path d="M282.23,210l-5.1-7.58L272.41,210h-2.62l6-9.55-6-9h2.72l5,7.37,4.66-7.37h2.62l-6,9.28L285,210Z" style="fill:#fff"/><path d="M302.48,192.3a7.89,7.89,0,0,1,3.06,3.3,12.11,12.11,0,0,1,0,10.13,7.9,7.9,0,0,1-3.08,3.31A8.69,8.69,0,0,1,298,210.2a7.89,7.89,0,0,1-4.83-1.46,7.44,7.44,0,0,1-2.72-3.88v13.87h-2.38V191.4h2.38v5.1a7.44,7.44,0,0,1,2.72-3.88,7.89,7.89,0,0,1,4.83-1.46A8.78,8.78,0,0,1,302.48,192.3Zm-8.7,1.88a6.35,6.35,0,0,0-2.47,2.61,9,9,0,0,0,0,7.78,6.32,6.32,0,0,0,2.47,2.6,6.93,6.93,0,0,0,3.55.92,6.56,6.56,0,0,0,5-2,8.79,8.79,0,0,0,0-10.84,6.56,6.56,0,0,0-5-2A6.92,6.92,0,0,0,293.78,194.18Z" style="fill:#fff"/><path d="M323.24,207a5.07,5.07,0,0,0,2-3.4h2.51a7.55,7.55,0,0,1-2.82,4.79,9.08,9.08,0,0,1-5.85,1.84,9.55,9.55,0,0,1-4.71-1.14,8,8,0,0,1-3.21-3.3,11.7,11.7,0,0,1,0-10.16,8,8,0,0,1,3.21-3.3,9.55,9.55,0,0,1,4.71-1.14,9.28,9.28,0,0,1,4.71,1.14,7.7,7.7,0,0,1,3,3,8.54,8.54,0,0,1,1,4.15,10.24,10.24,0,0,1-.13,1.73H312.39a7.82,7.82,0,0,0,1,3.93,5.84,5.84,0,0,0,2.43,2.33,7.1,7.1,0,0,0,3.23.75A6.9,6.9,0,0,0,323.24,207Zm-7.42-13.13a6,6,0,0,0-2.43,2.3,7.89,7.89,0,0,0-1,3.86h13.12a6.83,6.83,0,0,0-.74-3.84,5.59,5.59,0,0,0-2.38-2.32,7.66,7.66,0,0,0-6.57,0Z" style="fill:#fff"/><path d="M337.21,192.14a8.38,8.38,0,0,1,4.39-1.08v2.58h-.79a6.77,6.77,0,0,0-4.45,1.45q-1.77,1.44-1.77,4.7V210h-2.41V191.4h2.41v3.84A6.34,6.34,0,0,1,337.21,192.14Z" style="fill:#fff"/><path d="M344.71,184.7a1.8,1.8,0,0,1,1.27-.44,1.76,1.76,0,0,1,1.26.44,1.53,1.53,0,0,1,.48,1.19,1.49,1.49,0,0,1-.48,1.15,1.77,1.77,0,0,1-1.26.45,1.81,1.81,0,0,1-1.27-.45,1.47,1.47,0,0,1-.5-1.15A1.51,1.51,0,0,1,344.71,184.7Zm2.46,6.7V210h-2.41V191.4Z" style="fill:#fff"/><path d="M364.65,207a5.07,5.07,0,0,0,2-3.4h2.51a7.55,7.55,0,0,1-2.82,4.79,9.08,9.08,0,0,1-5.85,1.84,9.53,9.53,0,0,1-4.7-1.14,7.94,7.94,0,0,1-3.22-3.3,11.8,11.8,0,0,1,0-10.16,7.94,7.94,0,0,1,3.22-3.3,9.53,9.53,0,0,1,4.7-1.14,9.28,9.28,0,0,1,4.71,1.14,7.7,7.7,0,0,1,3,3,8.55,8.55,0,0,1,1,4.15,10.18,10.18,0,0,1-.14,1.73H353.8a7.82,7.82,0,0,0,1,3.93,5.84,5.84,0,0,0,2.43,2.33,7.13,7.13,0,0,0,3.23.75A6.9,6.9,0,0,0,364.65,207Zm-7.41-13.13a5.89,5.89,0,0,0-2.43,2.3,7.79,7.79,0,0,0-1,3.86h13.13a6.83,6.83,0,0,0-.75-3.84,5.54,5.54,0,0,0-2.38-2.32,7.64,7.64,0,0,0-6.56,0Z" style="fill:#fff"/><path d="M388.13,193.11a8.31,8.31,0,0,1,2,6V210H387.8V199.32a6.47,6.47,0,0,0-1.53-4.64,5.47,5.47,0,0,0-4.18-1.62,5.76,5.76,0,0,0-4.44,1.79A7.48,7.48,0,0,0,376,200.1V210h-2.41V191.4H376V196a6.49,6.49,0,0,1,2.59-3.64,7.53,7.53,0,0,1,4.28-1.25A7.05,7.05,0,0,1,388.13,193.11Z" style="fill:#fff"/><path d="M409.24,193a7.74,7.74,0,0,1,2.84,5H409.6a5.27,5.27,0,0,0-2.08-3.48,7.3,7.3,0,0,0-7.49-.46,5.91,5.91,0,0,0-2.42,2.5,9.93,9.93,0,0,0,0,8.26,6,6,0,0,0,2.42,2.5,6.87,6.87,0,0,0,3.31.81,6.77,6.77,0,0,0,4.18-1.27,5.26,5.26,0,0,0,2.08-3.49h2.48a7.77,7.77,0,0,1-2.84,5,9.06,9.06,0,0,1-5.87,1.87,9.53,9.53,0,0,1-4.7-1.14,7.94,7.94,0,0,1-3.22-3.3,11.8,11.8,0,0,1,0-10.16,7.94,7.94,0,0,1,3.22-3.3,9.53,9.53,0,0,1,4.7-1.14A9.06,9.06,0,0,1,409.24,193Z" style="fill:#fff"/><path d="M428.67,207a5.07,5.07,0,0,0,2-3.4h2.52a7.56,7.56,0,0,1-2.83,4.79,9.07,9.07,0,0,1-5.84,1.84,9.55,9.55,0,0,1-4.71-1.14,8,8,0,0,1-3.22-3.3,11.8,11.8,0,0,1,0-10.16,8,8,0,0,1,3.22-3.3,9.55,9.55,0,0,1,4.71-1.14,9.27,9.27,0,0,1,4.7,1.14,7.7,7.7,0,0,1,3,3,8.55,8.55,0,0,1,1,4.15,10.18,10.18,0,0,1-.14,1.73H417.82a7.93,7.93,0,0,0,1,3.93,6,6,0,0,0,2.43,2.33,7.13,7.13,0,0,0,3.23.75A6.88,6.88,0,0,0,428.67,207Zm-7.41-13.13a5.89,5.89,0,0,0-2.43,2.3,7.79,7.79,0,0,0-1,3.86H431a6.83,6.83,0,0,0-.75-3.84,5.54,5.54,0,0,0-2.38-2.32,7.64,7.64,0,0,0-6.56,0Z" style="fill:#fff"/></g></g></g></g></svg>