<svg xmlns="http://www.w3.org/2000/svg" viewBox="0 0 451.42 224.9"><title>Asset 5</title><g id="Layer_2" data-name="Layer 2"><g id="Layer_1-2" data-name="Layer 1"><path d="M57.92,14.43V164.94H24.77V46.21h-12V14.43Z" style="fill:#205cff"/><path d="M118.53,156.88q-14.31-8.52-22.71-25.65T87.43,88.89q0-76.72,63.33-76.27A60.31,60.31,0,0,1,183,20.9q14.31,8.52,22.71,25.66t8.39,42.33q0,25.88-8.39,43T183,157.22q-14.3,8.17-32.23,7.95A60.29,60.29,0,0,1,118.53,156.88Zm54.59-35.53q6.69-12.25,6.7-33.37,0-43.57-29.29-43.58-15.66,0-22.24,11.8T121.7,88.66q0,20.9,6.59,32.92t22.24,12Q166.42,133.61,173.12,121.35Z" style="fill:#205cff"/><path d="M261.08,156.88q-14.29-8.52-22.7-25.65T230,88.89q0-76.72,63.34-76.27a60.31,60.31,0,0,1,32.23,8.28q14.31,8.52,22.7,25.66t8.4,42.33q0,25.88-8.4,43t-22.7,25.31q-14.3,8.17-32.23,7.95A60.35,60.35,0,0,1,261.08,156.88Zm54.6-35.53q6.69-12.25,6.69-33.37,0-43.57-29.28-43.58-15.66,0-22.25,11.8t-6.58,32.46q0,20.9,6.58,32.92t22.25,12Q309,133.61,315.68,121.35Z" style="fill:#205cff"/><path d="M50.06,157.22H40.28V11.6H0V1.82H45.17a4.89,4.89,0,0,1,4.89,4.89Zm-33.14,0H7.14V43.38H0V33.6H12a4.89,4.89,0,0,1,4.89,4.89Z" style="fill:#1d262d"/><path d="M139,162.34H138a65.43,65.43,0,0,1-34.74-9c-10.32-6.15-18.6-15.47-24.59-27.7-5.9-12-8.9-27-8.9-44.49,0-14.44,1.68-27.12,5-37.7,3.39-10.87,8.6-19.84,15.47-26.67C101.6,5.52,117.68-.13,138,0a65.35,65.35,0,0,1,34.75,9c10.32,6.14,18.59,15.46,24.59,27.7,5.91,12.06,8.9,27,8.9,44.49h-9.78c0-16-2.65-29.48-7.9-40.19-5.15-10.5-12.15-18.44-20.81-23.6a55.79,55.79,0,0,0-29.67-7.6H138c-17.65-.13-31.39,4.57-40.85,14C85.48,35.31,79.57,54.63,79.57,81.17c0,16,2.66,29.49,7.9,40.18,5.15,10.51,12.15,18.45,20.81,23.61A55.82,55.82,0,0,0,138,152.55h.12a57.68,57.68,0,0,0,29.75-7.3l4.85,8.49A67,67,0,0,1,139,162.34Zm-1.17-31.56a32.67,32.67,0,0,1-15.72-3.6,26.82,26.82,0,0,1-10.82-11c-4.76-8.7-7.18-20.57-7.18-35.26h9.78c0,13,2,23.32,6,30.57,3.54,6.47,9.25,9.49,18,9.49,8.86,0,14.68-3.09,18.3-9.71,4-7.41,6.1-17.85,6.1-31,0-13.47-2.19-23.55-6.49-30-3.95-5.88-9.81-8.74-17.91-8.74V31.79c11.45,0,20.2,4.39,26,13.05C169.3,53,172,64.59,172,80.26c0,14.83-2.45,26.85-7.29,35.71a27.21,27.21,0,0,1-11,11.15A33,33,0,0,1,137.79,130.78Z" style="fill:#1d262d"/><path d="M281.51,162.34h-.94a65.37,65.37,0,0,1-34.73-9c-10.32-6.15-18.6-15.47-24.59-27.7-5.9-12-8.9-27-8.9-44.49,0-14.44,1.67-27.12,5-37.7,3.4-10.87,8.6-19.84,15.48-26.67C244.16,5.52,260.24-.13,280.56,0a65.35,65.35,0,0,1,34.75,9l-5,8.4a55.81,55.81,0,0,0-29.67-7.6h-.1c-17.66-.13-31.4,4.57-40.85,14C228,35.31,222.13,54.63,222.13,81.17c0,16,2.66,29.49,7.9,40.18,5.14,10.51,12.15,18.45,20.81,23.61a55.8,55.8,0,0,0,29.67,7.59h.13a57.62,57.62,0,0,0,29.74-7.3C319,140.32,326,132.51,331.12,122c5.24-10.7,7.9-24.45,7.9-40.86h9.78c0,17.92-3,33.12-8.9,45.17-6,12.26-14.31,21.48-24.66,27.4A67,67,0,0,1,281.51,162.34Zm-1.16-31.56V121c8.86,0,14.67-3.09,18.29-9.71,4.05-7.41,6.1-17.85,6.1-31,0-13.47-2.18-23.55-6.49-30-3.95-5.88-9.8-8.74-17.9-8.74-8.61,0-14.49,3-18,9.3-4,7.09-6,17.21-6,30.08h-9.78c0-14.55,2.42-26.28,7.2-34.84a26.66,26.66,0,0,1,10.83-10.79,33.15,33.15,0,0,1,15.69-3.52c11.44,0,20.2,4.39,26,13.05,5.48,8.17,8.15,19.75,8.15,35.42,0,14.83-2.45,26.85-7.29,35.71a27.27,27.27,0,0,1-11,11.15A33,33,0,0,1,280.35,130.78Z" style="fill:#1d262d"/><path d="M451.42,92.84H429v22.83H407.57V92.84H385.13V72.47h22.44v-23H429v23h22.44Z" style="fill:#205cff"/><path d="M429.83,72.47h9.59V92.84H417v22.83H395.57V92.84H373.13V72.47h22.44v-23H417v23" style="fill:none;stroke:#1d262d;stroke-miterlimit:10;stroke-width:8.503937007874017px"/><text transform="translate(8.33 209.11)" style="font-size:28px;font-family:Poppins-Light, Poppins;font-weight:300">man years of experience</text></g></g></svg>