<svg xmlns="http://www.w3.org/2000/svg" viewBox="0 0 498.52 209.8"><title>Asset 2</title><g id="Layer_2" data-name="Layer 2"><g id="Layer_1-2" data-name="Layer 1"><g id="Layer_1-2-2" data-name="Layer 1-2"><path d="M189.58,15.12v150.5H156.44V46.9h-12V15.12Z" style="fill:#205cff"/><path d="M181.73,157.9H172V12.28H131.66V2.5h45.18a4.89,4.89,0,0,1,4.89,4.89Zm-33.15,0H138.8V44.06h-7.14V34.28h12a4.89,4.89,0,0,1,4.89,4.89Z" style="fill:#fff"/><path d="M250.19,157.33q-14.31-8.52-22.7-25.65t-8.4-42.34q0-76.73,63.33-76.27a60.31,60.31,0,0,1,32.24,8.28Q329,29.87,337.36,47t8.4,42.34q0,25.89-8.4,43t-22.7,25.31a62.13,62.13,0,0,1-32.24,7.94A60.28,60.28,0,0,1,250.19,157.33Zm54.59-35.53q6.69-12.26,6.7-33.37,0-43.56-29.29-43.58-15.66,0-22.24,11.8t-6.58,32.46Q253.37,110,260,122t22.24,12Q298.09,134.06,304.78,121.8Z" style="fill:#205cff"/><path d="M270.62,162.79h-.94a65.5,65.5,0,0,1-34.74-9c-10.32-6.15-18.59-15.47-24.59-27.71-5.9-12-8.89-27-8.89-44.48,0-14.44,1.67-27.13,5-37.7,3.39-10.87,8.6-19.85,15.48-26.67C233.27,6,249.34.31,269.67.45a65.42,65.42,0,0,1,34.75,9C314.73,15.57,323,24.89,329,37.13c5.9,12,8.89,27,8.89,44.49h-9.77c0-16-2.66-29.48-7.91-40.19C315.06,30.92,308.06,23,299.4,17.83a55.84,55.84,0,0,0-29.67-7.6h-.1c-17.65-.13-31.39,4.57-40.84,14-11.66,11.57-17.57,30.89-17.57,57.43,0,16,2.66,29.49,7.9,40.18,5.15,10.51,12.15,18.45,20.82,23.6a55.68,55.68,0,0,0,29.67,7.6h.12a57.6,57.6,0,0,0,29.75-7.3l4.85,8.49A66.94,66.94,0,0,1,270.62,162.79Zm-1.17-31.56a32.64,32.64,0,0,1-15.72-3.6,26.77,26.77,0,0,1-10.81-11c-4.77-8.7-7.19-20.57-7.19-35.26h9.78c0,13,2,23.32,6,30.57,3.55,6.47,9.25,9.49,18,9.49s14.68-3.09,18.3-9.72c4.05-7.41,6.1-17.84,6.1-31,0-13.47-2.19-23.55-6.49-30-3.95-5.88-9.81-8.74-17.91-8.74V32.23c11.45,0,20.2,4.4,26,13.06,5.49,8.17,8.16,19.75,8.16,35.42,0,14.83-2.46,26.85-7.3,35.71a27.22,27.22,0,0,1-10.95,11.15,32.93,32.93,0,0,1-16,3.66Z" style="fill:#fff"/><path d="M490.42,100.46A36.66,36.66,0,0,1,498.51,124q0,19.63-13.06,30.64t-37.43,11H377V13.08h69.25q23.31,0,36,10.14T495,52.13q0,13.83-7.34,23a33.77,33.77,0,0,1-19.2,12Q482.33,90.33,490.42,100.46Zm-76.49-25H438.1q19.2,0,19.2-16.39t-19.64-16.4H413.93Zm46.82,43.37q0-8.19-5.39-12.84T440,101.33H413.93v34.3h26.32q20.52,0,20.5-16.83Z" style="fill:#205cff"/><path d="M471.45,147.62q-13.05,11-37.43,11H363V6.08h69.25q23.31,0,36,10.14T481,45.13q0,13.83-7.34,23a33.77,33.77,0,0,1-19.2,12m0,0q13.8,3.23,21.9,13.37a36.66,36.66,0,0,1,8.17,23.5M399.93,55.6V68.43H424.1q19.2,0,19.2-16.39t-19.64-16.4H399.93m0,73.94v19h26.32q20.5,0,20.5-16.83,0-8.19-5.39-12.84T426,94.33H399.93" style="fill:none;stroke:#fff;stroke-miterlimit:10;stroke-width:8.503936767578125px"/><path d="M108.36,133.34q-5.3,8.29-15.7,13.23t-25,4.94v14.11H60V151.16q-19.23-1.59-31.31-11.65T15.4,112.7H47.51a16.82,16.82,0,0,0,3.79,9.53,16.29,16.29,0,0,0,8.7,5.29v-28c-2-.58-3.29-1-3.88-1.23A150.1,150.1,0,0,1,35,90.79,38.14,38.14,0,0,1,21,79.45Q15.06,72,15.05,59.61A31.33,31.33,0,0,1,21,40.73,37.55,37.55,0,0,1,37.1,28.3,63.16,63.16,0,0,1,60,23.62V9.16h7.59V23.8Q87,25,98.49,34.83t12.87,25.84H78.73A16.46,16.46,0,0,0,75.2,52a14.32,14.32,0,0,0-7.58-4.58V75l5.46,1.77A169,169,0,0,1,94,84.57a38.34,38.34,0,0,1,13.84,11.2q5.82,7.41,5.82,19.4A33.06,33.06,0,0,1,108.36,133.34ZM50.59,66.4A29.81,29.81,0,0,0,60,72.31V46.73q-6,.36-9.35,3.35a10.61,10.61,0,0,0-3.35,8.29A10.91,10.91,0,0,0,50.59,66.4Zm27.08,58.39a11.58,11.58,0,0,0,3.7-8.91,10.7,10.7,0,0,0-3.52-8.2,30.77,30.77,0,0,0-10.23-5.74V128.4Q74,128.23,77.67,124.79Z" style="fill:#205cff"/><path d="M26.3,23.39a62.89,62.89,0,0,1,22.93-4.67V4.25h7.59V18.89q19.41,1.24,30.87,11t12.87,25.84H67.93a16.51,16.51,0,0,0-3.53-8.65,14.32,14.32,0,0,0-7.58-4.58M45.35,93.33a150.1,150.1,0,0,1-21.08-7.5A38.14,38.14,0,0,1,10.16,74.54Q4.25,67.05,4.25,54.7m77.61,87q-10.41,4.94-25,4.94v14.11H49.23v-14.5Q30,144.66,17.92,134.61T4.6,107.79H36.71a16.82,16.82,0,0,0,3.79,9.53,16.4,16.4,0,0,0,8.73,5.29m7.59-52.56,5.46,1.76a170.74,170.74,0,0,1,20.91,7.85A38.35,38.35,0,0,1,97,90.86q5.82,7.41,5.83,19.4a33.06,33.06,0,0,1-5.3,18.17M49.23,41.82q-6,.36-9.35,3.36a10.58,10.58,0,0,0-3.35,8.29,10.87,10.87,0,0,0,3.27,8,29.61,29.61,0,0,0,9.43,5.91m7.59,56.09q6.34-.16,10.05-3.61A11.6,11.6,0,0,0,70.58,111a10.66,10.66,0,0,0-3.53-8.2A30.82,30.82,0,0,0,56.82,97" style="fill:none;stroke:#fff;stroke-miterlimit:10;stroke-width:8.503936767578125px"/><g style="isolation:isolate"><path d="M129.74,192.63a7.76,7.76,0,0,1,2.83,5h-2.48a5.29,5.29,0,0,0-2.07-3.48,6.79,6.79,0,0,0-4.18-1.28,6.92,6.92,0,0,0-3.32.82,5.89,5.89,0,0,0-2.41,2.5,9.93,9.93,0,0,0,0,8.26,5.89,5.89,0,0,0,2.41,2.5,6.92,6.92,0,0,0,3.32.82,6.79,6.79,0,0,0,4.18-1.28,5.29,5.29,0,0,0,2.07-3.48h2.48a7.76,7.76,0,0,1-2.83,5,9.07,9.07,0,0,1-5.87,1.87,9.55,9.55,0,0,1-4.71-1.14,8,8,0,0,1-3.21-3.3,11.7,11.7,0,0,1,0-10.16,8,8,0,0,1,3.21-3.3,9.55,9.55,0,0,1,4.71-1.14A9.07,9.07,0,0,1,129.74,192.63Z" style="fill:#fff"/><path d="M139.27,184.4v25.16h-2.41V184.4Z" style="fill:#fff"/><path d="M144.39,184.3a1.85,1.85,0,0,1,1.27-.44,1.81,1.81,0,0,1,1.26.44,1.54,1.54,0,0,1,.48,1.19,1.51,1.51,0,0,1-.48,1.16,1.81,1.81,0,0,1-1.26.44,1.85,1.85,0,0,1-1.27-.44,1.48,1.48,0,0,1-.49-1.16A1.52,1.52,0,0,1,144.39,184.3Zm2.46,6.7v18.56h-2.41V191Z" style="fill:#fff"/><path d="M164.33,206.57a5.07,5.07,0,0,0,2-3.4h2.51a7.55,7.55,0,0,1-2.82,4.79,9.08,9.08,0,0,1-5.85,1.84,9.53,9.53,0,0,1-4.7-1.14,7.94,7.94,0,0,1-3.22-3.3,11.8,11.8,0,0,1,0-10.16,7.94,7.94,0,0,1,3.22-3.3,9.53,9.53,0,0,1,4.7-1.14,9.28,9.28,0,0,1,4.71,1.14,7.7,7.7,0,0,1,3,3,8.55,8.55,0,0,1,1,4.15,10.1,10.1,0,0,1-.14,1.73H153.48a7.82,7.82,0,0,0,1,3.93,5.84,5.84,0,0,0,2.43,2.33,7.13,7.13,0,0,0,3.23.75A6.88,6.88,0,0,0,164.33,206.57Zm-7.41-13.12a5.81,5.81,0,0,0-2.43,2.29,7.79,7.79,0,0,0-1,3.86h13.13a6.83,6.83,0,0,0-.75-3.84,5.52,5.52,0,0,0-2.38-2.31,7.55,7.55,0,0,0-6.56,0Z" style="fill:#fff"/><path d="M187.81,192.72a8.29,8.29,0,0,1,2,6v10.81h-2.35V198.92a6.49,6.49,0,0,0-1.53-4.64,5.47,5.47,0,0,0-4.18-1.62,5.76,5.76,0,0,0-4.44,1.79,7.48,7.48,0,0,0-1.65,5.25v9.86h-2.41V191h2.41v4.55a6.43,6.43,0,0,1,2.59-3.63,7.46,7.46,0,0,1,4.28-1.26A7,7,0,0,1,187.81,192.72Z" style="fill:#fff"/><path d="M203.29,207.45v2.11h-2.21a5.6,5.6,0,0,1-4-1.27c-.88-.85-1.33-2.29-1.33-4.3V193.07h-2.82V191h2.82v-4.69h2.42V191h5.1v2.07h-5.1v11a3.9,3.9,0,0,0,.71,2.7,3.47,3.47,0,0,0,2.52.73Z" style="fill:#fff"/><path d="M217.67,192.36a6.79,6.79,0,0,1,2.25,4.32h-2.28a4.64,4.64,0,0,0-1.48-3,4.86,4.86,0,0,0-3.42-1.17,4.24,4.24,0,0,0-2.87.9,3,3,0,0,0-1,2.4,2.49,2.49,0,0,0,.67,1.8,4.21,4.21,0,0,0,1.65,1,21.81,21.81,0,0,0,2.65.74,24.3,24.3,0,0,1,3.28,1,5.3,5.3,0,0,1,2.12,1.55,4.31,4.31,0,0,1,.89,2.86,4.55,4.55,0,0,1-1.65,3.62,6.5,6.5,0,0,1-4.37,1.41,8.34,8.34,0,0,1-5.24-1.58,6.34,6.34,0,0,1-2.41-4.34h2.31a4.39,4.39,0,0,0,1.6,3A5.74,5.74,0,0,0,214.1,208a3.87,3.87,0,0,0,2.76-.92,3.08,3.08,0,0,0,1-2.38,2.62,2.62,0,0,0-.68-1.9,4.18,4.18,0,0,0-1.68-1.07,28.26,28.26,0,0,0-2.74-.77,23.51,23.51,0,0,1-3.21-1,5.11,5.11,0,0,1-2.06-1.48,4.11,4.11,0,0,1-.85-2.73,4.57,4.57,0,0,1,1.67-3.68,6.88,6.88,0,0,1,4.52-1.39A7.1,7.1,0,0,1,217.67,192.36Z" style="fill:#fff"/><path d="M233.23,184.3a1.85,1.85,0,0,1,1.27-.44,1.79,1.79,0,0,1,1.26.44,1.54,1.54,0,0,1,.48,1.19,1.51,1.51,0,0,1-.48,1.16,1.79,1.79,0,0,1-1.26.44,1.85,1.85,0,0,1-1.27-.44,1.48,1.48,0,0,1-.49-1.16A1.52,1.52,0,0,1,233.23,184.3Zm2.46,6.7v18.56h-2.41V191Z" style="fill:#fff"/><path d="M255.4,192.72q2,2.06,2,6v10.81h-2.35V198.92a6.49,6.49,0,0,0-1.53-4.64,5.47,5.47,0,0,0-4.18-1.62,5.76,5.76,0,0,0-4.44,1.79,7.52,7.52,0,0,0-1.64,5.25v9.86h-2.42V191h2.42v4.55a6.37,6.37,0,0,1,2.58-3.63,7.48,7.48,0,0,1,4.28-1.26A7,7,0,0,1,255.4,192.72Z" style="fill:#fff"/><path d="M283.92,192.22a7.42,7.42,0,0,1,2.74,3.88V191H289v18.56h-2.34v-5.1a7.42,7.42,0,0,1-2.74,3.88,7.92,7.92,0,0,1-4.81,1.46,8.77,8.77,0,0,1-4.5-1.16,7.88,7.88,0,0,1-3.1-3.31,12.21,12.21,0,0,1,0-10.13,7.81,7.81,0,0,1,3.08-3.3,8.85,8.85,0,0,1,4.52-1.14A7.92,7.92,0,0,1,283.92,192.22Zm-9.21,2.64a8.72,8.72,0,0,0,0,10.84,6.58,6.58,0,0,0,5,2,6.9,6.9,0,0,0,3.56-.92,6.41,6.41,0,0,0,2.48-2.6,8.86,8.86,0,0,0,0-7.78,6.48,6.48,0,0,0-2.48-2.6,6.9,6.9,0,0,0-3.56-.92A6.58,6.58,0,0,0,274.71,194.86Z" style="fill:#fff"/><path d="M308.23,192.63a7.77,7.77,0,0,1,2.84,5h-2.48a5.27,5.27,0,0,0-2.08-3.48,6.75,6.75,0,0,0-4.18-1.28,6.91,6.91,0,0,0-3.31.82,5.91,5.91,0,0,0-2.42,2.5,9.93,9.93,0,0,0,0,8.26,5.91,5.91,0,0,0,2.42,2.5,6.91,6.91,0,0,0,3.31.82,6.75,6.75,0,0,0,4.18-1.28,5.27,5.27,0,0,0,2.08-3.48h2.48a7.77,7.77,0,0,1-2.84,5,9,9,0,0,1-5.86,1.87,9.55,9.55,0,0,1-4.71-1.14,8,8,0,0,1-3.21-3.3,11.7,11.7,0,0,1,0-10.16,8,8,0,0,1,3.21-3.3,9.55,9.55,0,0,1,4.71-1.14A9,9,0,0,1,308.23,192.63Z" style="fill:#fff"/><path d="M329.41,192.63a7.72,7.72,0,0,1,2.84,5h-2.48a5.29,5.29,0,0,0-2.07-3.48,6.8,6.8,0,0,0-4.19-1.28,6.91,6.91,0,0,0-3.31.82,5.89,5.89,0,0,0-2.41,2.5,9.83,9.83,0,0,0,0,8.26,5.89,5.89,0,0,0,2.41,2.5,6.91,6.91,0,0,0,3.31.82,6.8,6.8,0,0,0,4.19-1.28,5.29,5.29,0,0,0,2.07-3.48h2.48a7.72,7.72,0,0,1-2.84,5,9,9,0,0,1-5.86,1.87,9.55,9.55,0,0,1-4.71-1.14,8,8,0,0,1-3.21-3.3,11.7,11.7,0,0,1,0-10.16,8,8,0,0,1,3.21-3.3,9.55,9.55,0,0,1,4.71-1.14A9,9,0,0,1,329.41,192.63Z" style="fill:#fff"/><path d="M348.84,206.57a5,5,0,0,0,2-3.4h2.52a7.55,7.55,0,0,1-2.82,4.79,9.08,9.08,0,0,1-5.85,1.84,9.55,9.55,0,0,1-4.71-1.14,8,8,0,0,1-3.21-3.3,11.7,11.7,0,0,1,0-10.16,8,8,0,0,1,3.21-3.3,9.55,9.55,0,0,1,4.71-1.14,9.33,9.33,0,0,1,4.71,1.14,7.74,7.74,0,0,1,3,3,8.44,8.44,0,0,1,1,4.15,10.16,10.16,0,0,1-.13,1.73H338a7.72,7.72,0,0,0,1,3.93,5.78,5.78,0,0,0,2.43,2.33,7.1,7.1,0,0,0,3.23.75A6.87,6.87,0,0,0,348.84,206.57Zm-7.41-13.12a5.81,5.81,0,0,0-2.43,2.29,7.79,7.79,0,0,0-1,3.86h13.12a6.83,6.83,0,0,0-.75-3.84,5.52,5.52,0,0,0-2.38-2.31,7.14,7.14,0,0,0-3.26-.75A7.27,7.27,0,0,0,341.43,193.45Z" style="fill:#fff"/><path d="M368.26,192.36a6.83,6.83,0,0,1,2.24,4.32h-2.28a4.63,4.63,0,0,0-1.47-3,4.88,4.88,0,0,0-3.42-1.17,4.22,4.22,0,0,0-2.87.9,3,3,0,0,0-1,2.4,2.48,2.48,0,0,0,.66,1.8,4.21,4.21,0,0,0,1.65,1,22.35,22.35,0,0,0,2.65.74,24.3,24.3,0,0,1,3.28,1,5.33,5.33,0,0,1,2.13,1.55,4.31,4.31,0,0,1,.88,2.86,4.55,4.55,0,0,1-1.65,3.62,6.48,6.48,0,0,1-4.37,1.41,8.31,8.31,0,0,1-5.23-1.58,6.35,6.35,0,0,1-2.42-4.34h2.32a4.34,4.34,0,0,0,1.59,3,5.75,5.75,0,0,0,3.78,1.15,3.84,3.84,0,0,0,2.75-.92,3.09,3.09,0,0,0,1-2.38,2.66,2.66,0,0,0-.68-1.9,4.29,4.29,0,0,0-1.69-1.07,27.93,27.93,0,0,0-2.73-.77,22.67,22.67,0,0,1-3.21-1,5,5,0,0,1-2.06-1.48,4.06,4.06,0,0,1-.85-2.73,4.57,4.57,0,0,1,1.66-3.68,6.89,6.89,0,0,1,4.53-1.39A7.14,7.14,0,0,1,368.26,192.36Z" style="fill:#fff"/><path d="M385.5,192.36a6.83,6.83,0,0,1,2.24,4.32h-2.28a4.59,4.59,0,0,0-1.48-3,4.85,4.85,0,0,0-3.41-1.17,4.25,4.25,0,0,0-2.88.9,3,3,0,0,0-1,2.4,2.48,2.48,0,0,0,.66,1.8,4.21,4.21,0,0,0,1.65,1,22.35,22.35,0,0,0,2.65.74,24.3,24.3,0,0,1,3.28,1,5.33,5.33,0,0,1,2.13,1.55,4.31,4.31,0,0,1,.88,2.86,4.55,4.55,0,0,1-1.65,3.62,6.48,6.48,0,0,1-4.37,1.41,8.31,8.31,0,0,1-5.23-1.58,6.35,6.35,0,0,1-2.42-4.34h2.31a4.39,4.39,0,0,0,1.6,3,5.75,5.75,0,0,0,3.78,1.15,3.86,3.86,0,0,0,2.75-.92,3.09,3.09,0,0,0,1-2.38,2.66,2.66,0,0,0-.68-1.9,4.29,4.29,0,0,0-1.69-1.07c-.67-.24-1.58-.49-2.73-.77a23.28,23.28,0,0,1-3.22-1,5,5,0,0,1-2.05-1.48,4.06,4.06,0,0,1-.85-2.73,4.57,4.57,0,0,1,1.66-3.68,6.88,6.88,0,0,1,4.52-1.39A7.15,7.15,0,0,1,385.5,192.36Z" style="fill:#fff"/></g></g></g></g></svg>