<svg xmlns="http://www.w3.org/2000/svg" viewBox="0 0 498.51 225.35"><title>Asset 6</title><g id="Layer_2" data-name="Layer 2"><g id="Layer_1-2" data-name="Layer 1"><path d="M189.58,15.12v150.5H156.44V46.9h-12V15.12Z" style="fill:#205cff"/><path d="M181.73,157.9H172V12.28H131.66V2.5h45.18a4.89,4.89,0,0,1,4.89,4.89Zm-33.15,0H138.8V44.06h-7.14V34.28h12a4.89,4.89,0,0,1,4.89,4.89Z" style="fill:#1d262d"/><path d="M250.19,157.33q-14.31-8.52-22.7-25.65t-8.4-42.34q0-76.73,63.33-76.27a60.34,60.34,0,0,1,32.24,8.28Q329,29.87,337.36,47t8.4,42.34q0,25.88-8.4,43t-22.7,25.31a62.18,62.18,0,0,1-32.24,7.94A60.31,60.31,0,0,1,250.19,157.33Zm54.59-35.53q6.69-12.26,6.7-33.37,0-43.57-29.29-43.58-15.66,0-22.24,11.8t-6.58,32.46q0,20.9,6.58,32.92t22.24,12Q298.09,134.06,304.78,121.8Z" style="fill:#205cff"/><path d="M270.62,162.79h-.94a65.52,65.52,0,0,1-34.74-9c-10.32-6.15-18.59-15.47-24.59-27.71-5.9-12-8.89-27-8.89-44.48,0-14.44,1.67-27.13,5-37.7,3.39-10.87,8.6-19.85,15.48-26.67C233.27,6,249.34.31,269.67.45a65.45,65.45,0,0,1,34.75,9C314.73,15.57,323,24.89,329,37.13c5.9,12,8.89,27,8.89,44.49h-9.77c0-16-2.66-29.48-7.91-40.19-5.15-10.51-12.15-18.45-20.81-23.6a55.79,55.79,0,0,0-29.67-7.6h-.1c-17.65-.13-31.39,4.57-40.84,14-11.66,11.57-17.57,30.89-17.57,57.43,0,16,2.66,29.49,7.9,40.18,5.15,10.51,12.15,18.45,20.82,23.6a55.7,55.7,0,0,0,29.67,7.6h.12a57.66,57.66,0,0,0,29.75-7.3l4.85,8.49A67,67,0,0,1,270.62,162.79Zm-1.17-31.56a32.7,32.7,0,0,1-15.72-3.6,26.73,26.73,0,0,1-10.81-11c-4.77-8.7-7.19-20.57-7.19-35.26h9.78c0,13,2,23.32,6,30.57,3.55,6.47,9.25,9.49,18,9.49,8.86,0,14.68-3.09,18.3-9.72,4.05-7.41,6.1-17.84,6.1-31,0-13.47-2.19-23.55-6.49-30-3.95-5.88-9.81-8.74-17.91-8.74V32.23c11.45,0,20.2,4.4,26,13.06,5.49,8.17,8.16,19.75,8.16,35.42,0,14.83-2.46,26.85-7.3,35.71a27.24,27.24,0,0,1-10.95,11.15A33,33,0,0,1,269.45,131.23Z" style="fill:#1d262d"/><path d="M490.42,100.46A36.64,36.64,0,0,1,498.51,124q0,19.63-13.06,30.64t-37.43,11H377V13.08h69.25q23.31,0,36,10.14t12.73,28.91q0,13.82-7.34,23a33.78,33.78,0,0,1-19.2,12Q482.32,90.32,490.42,100.46Zm-76.49-25H438.1q19.2,0,19.2-16.39t-19.64-16.4H413.93Zm46.82,43.37q0-8.19-5.39-12.84T440,101.33H413.93v34.3h26.32Q460.76,135.63,460.75,118.8Z" style="fill:#205cff"/><path d="M471.45,147.62q-13.05,11-37.43,11H363V6.08h69.25q23.31,0,36,10.14t12.73,28.91q0,13.82-7.34,23a33.78,33.78,0,0,1-19.2,12m0,0q13.8,3.22,21.9,13.37A36.64,36.64,0,0,1,484.51,117m-84.58-61.4V68.43H424.1q19.2,0,19.2-16.39t-19.64-16.4H399.93m0,73.94v19h26.32q20.5,0,20.5-16.83,0-8.19-5.39-12.84T426,94.33H399.93" style="fill:none;stroke:#1d262d;stroke-miterlimit:10;stroke-width:8.503937007874017px"/><path d="M108.36,133.34q-5.3,8.29-15.7,13.23t-25,4.94v14.11H60V151.16q-19.23-1.59-31.31-11.65T15.4,112.7H47.51a16.8,16.8,0,0,0,3.79,9.53A16.34,16.34,0,0,0,60,127.52v-28c-2-.58-3.29-1-3.88-1.23a150.6,150.6,0,0,1-21.08-7.5A38.27,38.27,0,0,1,21,79.45Q15.05,72,15.05,59.61A31.25,31.25,0,0,1,21,40.73,37.53,37.53,0,0,1,37.1,28.3,63.07,63.07,0,0,1,60,23.62V9.16h7.59V23.8Q87,25,98.49,34.83t12.87,25.84H78.73A16.52,16.52,0,0,0,75.2,52a14.29,14.29,0,0,0-7.58-4.58V75l5.46,1.77A168.72,168.72,0,0,1,94,84.57a38.28,38.28,0,0,1,13.84,11.2q5.82,7.41,5.82,19.4A33.08,33.08,0,0,1,108.36,133.34ZM50.59,66.4A30,30,0,0,0,60,72.31V46.73q-6,.36-9.35,3.35a10.58,10.58,0,0,0-3.35,8.29A10.92,10.92,0,0,0,50.59,66.4Zm27.08,58.39a11.62,11.62,0,0,0,3.7-8.91,10.69,10.69,0,0,0-3.52-8.2,30.76,30.76,0,0,0-10.23-5.74V128.4Q74,128.23,77.67,124.79Z" style="fill:#205cff"/><path d="M26.3,23.39a62.9,62.9,0,0,1,22.93-4.67V4.25h7.59V18.89q19.4,1.24,30.87,11t12.87,25.84H67.93a16.52,16.52,0,0,0-3.53-8.65,14.29,14.29,0,0,0-7.58-4.58M45.35,93.33a150.6,150.6,0,0,1-21.08-7.5A38.17,38.17,0,0,1,10.16,74.54Q4.25,67.05,4.25,54.7m77.61,87q-10.41,4.93-25,4.94v14.11H49.23V146.25Q30,144.66,17.92,134.61T4.6,107.79H36.71a16.8,16.8,0,0,0,3.79,9.53,16.42,16.42,0,0,0,8.73,5.29m7.59-52.56,5.46,1.76a169.72,169.72,0,0,1,20.91,7.85A38.28,38.28,0,0,1,97,90.86q5.82,7.41,5.83,19.4a33.07,33.07,0,0,1-5.3,18.17M49.23,41.82q-6,.36-9.35,3.36a10.56,10.56,0,0,0-3.35,8.29,10.88,10.88,0,0,0,3.27,8,29.66,29.66,0,0,0,9.43,5.91m7.59,56.09q6.34-.17,10.05-3.61A11.61,11.61,0,0,0,70.58,111a10.7,10.7,0,0,0-3.53-8.2A30.76,30.76,0,0,0,56.82,97" style="fill:none;stroke:#1d262d;stroke-miterlimit:10;stroke-width:8.503937007874017px"/><text transform="translate(137.49 209.56)" style="font-size:28px;font-family:Poppins-Light, Poppins;font-weight:300">clients in access</text></g></g></svg>