<svg xmlns="http://www.w3.org/2000/svg" xmlns:xlink="http://www.w3.org/1999/xlink" viewBox="0 0 624.62 288"><defs><clipPath id="clip-path"><rect x="74.81" width="504" height="288" style="fill:#fff;opacity:0"/></clipPath></defs><title>Asset 3</title><g id="Layer_2" data-name="Layer 2"><g id="Layer_1-2" data-name="Layer 1"><rect x="74.81" width="504" height="288" style="fill:#fff;opacity:0"/><g style="clip-path:url(#clip-path)"><path d="M3.82,214,0,212.85c5.05-16.29,26.19-22.08,43.71-18.26a150.26,150.26,0,0,1,19.94,6.34c9.09,3.37,17.67,6.56,26.88,7.32,18.73,1.54,36.55-7.41,53.79-16.07,17.58-8.84,35.76-18,55.44-16.56,14.23,1,27.17,7.48,39.68,13.73,4.6,2.3,9.36,4.68,14.08,6.73,8,3.45,35.18,13.53,51.83-1.79,6.94-6.38,10.13-15.46,13.52-25.07s6.88-19.57,14.51-26.63c15.36-14.22,40.64-9.93,57.68,1.66,9.49,6.45,17.57,14.75,25.38,22.79,5.9,6.06,12,12.33,18.6,17.68,13.51,11,35.47,20.43,52.9,11C502.31,188,507.49,172,513,155c2.49-7.7,5.06-15.67,8.58-22.81,8.49-17.25,24.85-30.81,44.91-37.2s41.25-4.82,58.15,4.33l-1.9,3.52c-16-8.64-36-10.11-55-4S533.16,117.69,525.15,134c-3.39,6.88-5.92,14.7-8.37,22.27-5.48,17-11.16,34.54-26.94,43-19.14,10.31-42.16.85-57.32-11.45a223,223,0,0,1-18.94-18c-7.68-7.89-15.61-16.05-24.77-22.28-15.73-10.69-38.89-14.83-52.71-2-6.9,6.39-10.09,15.44-13.46,25s-6.91,19.63-14.59,26.69c-12.43,11.43-33.41,12.37-56.12,2.51-4.82-2.09-9.63-4.49-14.28-6.82-12.16-6.07-24.74-12.36-38.18-13.32-18.57-1.33-36.26,7.55-53.36,16.14-17.73,8.91-36.07,18.12-55.91,16.48-9.76-.8-19-4.23-27.94-7.55a147.78,147.78,0,0,0-19.4-6.19C27.1,195.06,8.19,199.94,3.82,214Z" style="fill:#f7f7f7;opacity:0.03"/><g style="opacity:0.29"><path d="M5.38,213.12l-3.79-1.26c5.53-16.62,27.1-22.2,44.76-18a146.07,146.07,0,0,1,19.84,6.74c9.14,3.61,17.77,7,27.13,7.83,18.56,1.62,36.24-7.23,53.34-15.79s34.77-17.37,53.81-16.34c14.09.78,26.87,6.68,39.23,12.38,4.51,2.08,9.17,4.23,13.81,6.09,7.83,3.13,34.68,12.2,51.48-2.68,7.08-6.26,10.7-15.26,14.19-24,3.67-9.12,7.45-18.54,15.21-25.12,16-13.62,41.33-8.22,58,2.55,9.57,6.16,17.68,14.14,25.53,21.85a215.37,215.37,0,0,0,18.39,16.74c14.3,11.05,35.7,19.72,52.86,10.91,14.35-7.37,19.75-22.91,25.46-39.36,2.55-7.34,5.18-14.94,8.69-21.79,8.68-16.95,25.09-30.29,45-36.61,19.37-6.14,39.71-4.81,55.8,3.65l-1.86,3.54c-15.15-8-34.37-9.2-52.73-3.38-18.93,6-34.49,18.62-42.68,34.62-3.38,6.61-6,14.07-8.47,21.28-5.72,16.47-11.63,33.5-27.41,41.61-18.83,9.66-41.87.5-57.14-11.31a220,220,0,0,1-18.75-17c-7.7-7.58-15.67-15.41-24.89-21.35-16-10.32-39.45-14.61-53.28-2.86-7,5.94-10.44,14.5-14.08,23.56s-7.47,18.59-15.26,25.48c-12.49,11.06-33.29,12.33-55.62,3.39-4.73-1.89-9.44-4.07-14-6.17-12-5.55-24.44-11.28-37.77-12-18-1-35.17,7.61-51.8,15.92-17.6,8.8-35.8,17.9-55.48,16.19-9.94-.86-19.24-4.54-28.25-8.09a141.81,141.81,0,0,0-19.29-6.56C29.52,194,10.19,198.68,5.38,213.12Z" style="fill:#eff4f7"/></g><path d="M100.79,212.8c-1.67,0-3.35-.08-5.05-.23-10.15-.93-19.55-4.86-28.65-8.66C60.9,201.33,54.5,198.65,48,197c-15.73-4-35.89.68-41,15.2l-3.77-1.34c6-16.87,28-22.26,45.8-17.74a144.08,144.08,0,0,1,19.66,7.1c9.22,3.85,17.93,7.49,27.47,8.36,18.39,1.69,35.94-7.05,52.91-15.5,16.6-8.26,33.77-16.81,52.17-16.11,13.94.53,26.57,5.86,38.77,11,4.42,1.86,9,3.79,13.53,5.45,7.71,2.82,34.19,10.89,51.15-3.56,7.2-6.13,11.08-14.62,14.84-22.83,3.94-8.63,8-17.54,15.92-23.66,16-12.35,41.47-6.87,58.4,3.45,9.57,5.84,17.67,13.44,25.5,20.78a208.19,208.19,0,0,0,18.35,15.92c14.4,10.65,35.84,19.08,52.83,10.79,14.35-7,20-22,25.89-38,2.61-7,5.3-14.2,8.8-20.77,8.6-16.14,24.51-29.09,43.64-35.52s39.19-5.54,55,2.47L622,106.09c-31-15.74-76.27-.5-93.26,31.37-3.37,6.32-6,13.42-8.57,20.27-6,16-12.1,32.48-27.88,40.18-18.6,9.08-41.62.19-57-11.17a211.69,211.69,0,0,1-18.71-16.21c-7.68-7.21-15.62-14.66-24.85-20.28-15.79-9.63-39.39-14.9-53.86-3.7-7.12,5.51-10.82,13.59-14.74,22.15s-8,17.51-15.88,24.22c-12.56,10.69-33.16,12.29-55.11,4.27-4.64-1.69-9.25-3.64-13.71-5.53C226,186.42,214.25,181.47,201,181c-17.41-.65-34.09,7.65-50.24,15.69C134.85,204.61,118.4,212.8,100.79,212.8Z" style="fill:#e7f1f8"/><path d="M103.75,213c-1.74,0-3.48-.08-5.24-.25-10.33-1-19.8-5.16-29-9.2a138,138,0,0,0-19-7.28c-15.87-4.31-36.47.21-42.06,15l-3.74-1.41c6.47-17.15,28.9-22.36,46.85-17.48,6.77,1.84,13.27,4.71,19.54,7.48,9.28,4.09,18,7.95,27.74,8.88,18.23,1.75,35.65-6.88,52.5-15.23,16.09-8,32.72-16.23,50.51-15.87,13.81.27,26.27,5,38.33,9.64,4.32,1.65,8.79,3.35,13.23,4.82,9.73,3.2,34.17,9.19,50.81-4.44,7.31-6,11.45-14,15.45-21.66,4.24-8.15,8.62-16.58,16.69-22.23,15.95-11.17,41-5.86,58.74,4.35,9.61,5.53,17.72,12.76,25.56,19.75A204.71,204.71,0,0,0,439,182.93c14.54,10.24,36.06,18.42,52.81,10.67C506.1,187,511.93,172.4,518.1,157A172.45,172.45,0,0,1,527,137.26c8.67-15.6,24.34-28.24,43-34.69s38.17-5.9,53.35,1.55l-1.76,3.59c-29.73-14.58-74,.72-91.1,31.49a170.26,170.26,0,0,0-8.65,19.26c-6.19,15.47-12.59,31.47-28.39,38.77-23,10.66-49.28-5.75-56.78-11a210.32,210.32,0,0,1-18.6-15.33c-7.68-6.86-15.63-14-24.88-19.28-16.11-9.26-40-14.64-54.45-4.53-7.27,5.08-11.24,12.72-15.44,20.8s-8.52,16.39-16.46,22.9c-18.18,14.89-44.24,8.56-54.6,5.15-4.53-1.5-9-3.22-13.41-4.88-12.27-4.69-23.87-9.12-37-9.38-16.79-.35-33,7.69-48.66,15.45S121.13,213,103.75,213Z" style="fill:#dfeef8"/><path d="M107.37,213.66c-1.86,0-3.74-.09-5.64-.28-10.51-1.06-20-5.48-29.26-9.76-6.1-2.83-12.41-5.77-18.88-7.64-16-4.63-37-.26-43.07,14.86L6.8,209.36C13.66,192.15,37,187,54.7,192.14c6.76,2,13.22,5,19.46,7.85,9.33,4.33,18.13,8.42,28,9.41,18.54,1.87,35.46-6.31,53.37-15,15.17-7.33,30.86-14.91,47.48-15.63,13.5-.58,25.67,3.76,37.43,7.95,4.4,1.57,9,3.19,13.48,4.51,9.59,2.81,33.7,7.91,50.49-5.32,7.39-5.83,11.77-13.25,16-20.43,4.76-8,9.25-15.66,17.52-20.85,15.79-9.93,41.05-4.52,59.07,5.24,9.65,5.23,17.76,12.09,25.61,18.73a202.19,202.19,0,0,0,18.12,14.18c7.13,4.77,32,19.62,52.78,10.55,14.36-6.27,20.42-20.36,26.83-35.28a174.92,174.92,0,0,1,8.91-18.66c8.72-15,24.17-27.38,42.37-33.84s37.14-6.27,51.75.61l-1.7,3.62c-28.52-13.43-71.75,1.94-89,31.62a173.1,173.1,0,0,0-8.7,18.23c-6.43,15-13.09,30.46-28.9,37.37a39.79,39.79,0,0,1-16,3.2c-17.82,0-34.8-10.21-40.62-14.09A206.63,206.63,0,0,1,420,171.69c-8.05-6.81-15.65-13.24-24.93-18.27-17-9.21-40.61-14.44-55-5.37-7.45,4.67-11.7,11.87-16.2,19.5s-9,15.24-17,21.53c-18.25,14.38-43.9,9-54.08,6-4.64-1.35-9.25-3-13.7-4.58-11.92-4.25-23.19-8.27-35.91-7.72-15.8.68-31.11,8.08-45.92,15.23C141.31,205.73,124.9,213.66,107.37,213.66Z" style="fill:#d7ebf8"/><path d="M109.94,213.37a58.33,58.33,0,0,1-5.88-.3c-10.68-1.12-20.27-5.79-29.53-10.31-6.08-3-12.35-6-18.81-8-16.16-4.95-37.61-.74-44.09,14.68l-3.69-1.55c7.35-17.48,31.13-22.41,49-17,6.76,2.07,13.18,5.2,19.39,8.23,9.37,4.57,18.22,8.88,28.19,9.93,18.54,1.94,36.27-6.56,53.42-14.77,14.52-7,29.55-14.16,45.34-15.31,13.32-1,25.29,2.83,36.87,6.5,4.34,1.39,8.84,2.81,13.32,4,9.44,2.41,33.22,6.62,50.15-6.21,7.44-5.63,12-12.5,16.5-19.14,5.1-7.6,9.92-14.79,18.42-19.52,16.65-9.3,42.41-2.51,59.4,6.13,9.67,4.92,17.81,11.42,25.67,17.71a203.61,203.61,0,0,0,18,13.3c7.21,4.57,32.34,18.82,52.76,10.44,14.39-5.92,20.68-19.54,27.34-34a178.09,178.09,0,0,1,8.93-17.58C549.17,109.92,593,94,622.46,107.31L620.82,111C593.5,98.67,551.31,114.1,534,142.7a173.3,173.3,0,0,0-8.73,17.19c-6.69,14.48-13.61,29.47-29.45,36-21.59,8.86-46.65-4.57-56.42-10.76a205.47,205.47,0,0,1-18.35-13.56c-8.06-6.44-15.67-12.53-25-17.27-16.11-8.19-40.35-14.74-55.64-6.2-7.66,4.27-12.21,11.06-17,18.26-4.64,6.91-9.43,14.06-17.4,20.1-18.32,13.87-43.56,9.45-53.56,6.9-4.59-1.17-9.14-2.61-13.54-4-11.74-3.73-22.81-7.25-35.37-6.33-15,1.09-29.71,8.13-43.9,14.93C143.74,205.53,127.38,213.37,109.94,213.37Z" style="fill:#cfe8f8"/><path d="M112.59,213.54a53.2,53.2,0,0,1-5.76-.31C96,212.05,86.35,207.13,77,202.37c-6-3.08-12.29-6.28-18.75-8.36-16.29-5.26-38.17-1.21-45.1,14.51l-3.66-1.61c7.83-17.76,32-22.5,50-16.71,6.76,2.19,13.16,5.45,19.34,8.61,9.4,4.8,18.29,9.34,28.4,10.45,17.8,1.94,34.86-6.42,51.36-14.5,14.56-7.12,29.61-14.49,45.43-15.08,13.47-.49,25.49,2.56,37.13,5.52,4,1,8.09,2.06,12.21,2.94,9.29,2,32.76,5.33,49.83-7.1,7.43-5.41,12.23-11.7,16.87-17.78,5.48-7.19,10.66-14,19.44-18.27,16.33-8,41.56-1.62,59.72,7,9.7,4.62,17.85,10.75,25.74,16.67a202.91,202.91,0,0,0,17.85,12.45c9.37,5.59,33.25,17.81,52.74,10.31,14.44-5.55,21-18.72,27.9-32.66a185.73,185.73,0,0,1,8.91-16.48c18.68-29.53,61.4-45.45,89.62-33.41l-1.57,3.68c-26.11-11.14-67.26,4.35-84.67,31.87a181.81,181.81,0,0,0-8.7,16.12c-7.28,14.66-14.16,28.5-30.05,34.61-21.13,8.13-46.36-4.71-56.23-10.61a206.72,206.72,0,0,1-18.21-12.68c-8.08-6.08-15.71-11.81-25.05-16.26-17.32-8.24-41.18-14.42-56.25-7-7.92,3.88-12.6,10-18,17.11-4.81,6.31-9.79,12.83-17.69,18.59-18.39,13.38-43.22,9.89-53,7.77-4.18-.9-8.33-2-12.35-3-11.88-3-23.11-5.88-36-5.4-15,.55-29.64,7.73-43.82,14.68C145.11,205.84,129.36,213.54,112.59,213.54Z" style="fill:#c7e6f9"/><path d="M115.53,213.73a54,54,0,0,1-5.93-.33c-11-1.25-20.68-6.42-30-11.41-6-3.21-12.25-6.54-18.7-8.73-16.43-5.57-38.73-1.68-46.12,14.34l-3.63-1.68c8.32-18,33-22.58,51-16.45,6.76,2.3,13.13,5.7,19.29,9,9.44,5,18.35,9.8,28.6,11,17.66,2,34.62-6.27,51-14.27,14-6.84,28.54-13.92,43.7-14.79,13.38-.77,25.27,1.72,36.78,4.13,3.85.81,7.82,1.64,11.8,2.34,9.15,1.6,32.3,4,49.52-8,7.36-5.15,12.3-10.85,17.08-16.35,5.92-6.81,11.5-13.25,20.62-17.09,20.07-8.48,51,3.91,60,7.91,9.73,4.33,17.9,10.08,25.81,15.65a208.28,208.28,0,0,0,17.72,11.58c11.79,6.63,34.33,16.78,52.72,10.19,14.5-5.19,21.3-17.92,28.5-31.39,2.73-5.09,5.54-10.36,8.84-15.35,18.77-28.35,60.41-44.32,87.37-33.49l-1.49,3.71c-24.92-10-65,5.54-82.54,32-3.2,4.83-6,10-8.65,15-7.57,14.17-14.73,27.55-30.68,33.27-19.89,7.12-43.64-3.51-56-10.47a210.11,210.11,0,0,1-18.06-11.8C416,166.52,408.36,161.13,399,157c-8.63-3.84-38.26-15.74-56.85-7.88-8.27,3.48-13.31,9.29-19.16,16-4.71,5.42-10.05,11.57-17.81,17-18.44,12.9-42.86,10.35-52.5,8.66-4-.71-8-1.55-11.93-2.36C229,186,217.84,183.62,205,184.35c-14.35.82-28.49,7.72-42.16,14.4C147.7,206.13,132.12,213.73,115.53,213.73Z" style="fill:#bfe3f9"/><path d="M118.47,213.92a52.35,52.35,0,0,1-6.1-.35c-11.16-1.32-20.87-6.73-30.26-12-6-3.34-12.2-6.8-18.66-9.1-16.63-5.91-39.54-1.63-47.13,14.16l-3.61-1.73c8.81-18.31,33.89-22.66,52.08-16.19,6.77,2.4,13.12,5.94,19.27,9.37,9.46,5.27,18.4,10.25,28.78,11.47,17.54,2.07,34.4-6.13,50.71-14.07C177,189,191,182.17,205.48,181c13.31-1,25.1.88,36.5,2.74,3.69.6,7.51,1.22,11.33,1.73,9,1.21,31.85,2.78,49.21-8.88,7.18-4.83,12.21-9.91,17.07-14.82,6.42-6.48,12.48-12.6,22-16,18.2-6.49,45.62,2.73,60.35,8.8,9.76,4,18,9.41,25.9,14.62,5.55,3.64,11.29,7.41,17.56,10.71,14.63,7.72,35.66,15.73,52.71,10.08,14.59-4.84,21.67-17.13,29.16-30.15,2.7-4.7,5.5-9.56,8.72-14.2,18.85-27.18,59.41-43.19,85.09-33.58l-1.4,3.74C596,107,556.9,122.57,539.31,148c-3.13,4.51-5.88,9.29-8.54,13.91-7.89,13.7-15.33,26.64-31.37,31.95-18.39,6.1-40.52-2.25-55.84-10.33-6.43-3.39-12.25-7.21-17.88-10.9-8.14-5.34-15.83-10.39-25.24-14.27-14.2-5.85-40.54-14.77-57.48-8.73-8.69,3.09-14.17,8.63-20.52,15-4.77,4.81-10.18,10.27-17.69,15.32-18.5,12.42-42.51,10.8-52,9.53-3.88-.53-7.73-1.15-11.45-1.76-11.67-1.9-22.7-3.7-35.54-2.69-13.73,1.07-27.34,7.69-40.49,14.09C150.31,206.41,134.87,213.92,118.47,213.92Z" style="fill:#b7e0f9"/><path d="M121.4,214.11a50.92,50.92,0,0,1-6.26-.38c-11.31-1.38-21-7-30.48-12.5-6-3.47-12.17-7.06-18.63-9.46-16.76-6.23-40.11-2.09-48.15,14L14.3,204c9.3-18.57,34.81-22.73,53.12-15.93,6.79,2.52,13.12,6.19,19.25,9.75,9.49,5.51,18.46,10.71,29,12,17.41,2.13,34.19-6,50.42-13.88,12.95-6.28,26.33-12.78,40.14-14.16,13.29-1.32,25,0,36.31,1.32,3.5.41,7.13.83,10.77,1.16,8.87.82,31.4,1.5,48.89-9.78a133.19,133.19,0,0,0,16.74-13.15c7.33-6.49,13.67-12.09,23.78-15,13.24-3.87,33.64-.61,60.64,9.68,9.8,3.74,18.05,8.75,26,13.59,5.5,3.34,11.18,6.79,17.38,9.85,21.66,10.66,39.39,14,52.7,10,14.71-4.48,22.08-16.36,29.89-28.94,2.66-4.29,5.41-8.73,8.52-13,18.92-26,58.4-42.06,82.83-33.67l-1.3,3.78c-22.56-7.74-60.6,7.92-78.29,32.24-3,4.17-5.74,8.54-8.37,12.76-8.21,13.24-16,25.75-32.11,30.67-14.32,4.36-33,.93-55.64-10.19-6.36-3.13-12.12-6.63-17.69-10-8.18-5-15.91-9.66-25.36-13.27-26.17-10-45.72-13.2-58.1-9.58-9.26,2.7-15.28,8-22.25,14.19a136.33,136.33,0,0,1-17.22,13.53c-18.54,11.94-42.14,11.25-51.43,10.39-3.68-.34-7.33-.76-10.86-1.16-11.62-1.34-22.59-2.6-35.46-1.32-13.09,1.31-26.15,7.65-38.79,13.78C152.94,206.68,137.64,214.11,121.4,214.11Z" style="fill:#afddf9"/><path d="M124.32,214.3a51.55,51.55,0,0,1-6.41-.4c-11.46-1.45-21.23-7.35-30.68-13.05-6-3.6-12.15-7.33-18.63-9.83-16.88-6.53-40.66-2.55-49.16,13.8L15.89,203c9.8-18.84,35.74-22.81,54.16-15.68,6.8,2.63,13.13,6.45,19.24,10.14,9.52,5.73,18.5,11.15,29.13,12.5,17.3,2.19,34-5.9,50.16-13.72,12.39-6,25.2-12.2,38.31-13.81,13.34-1.63,25-.86,36.26-.11,3.28.21,6.67.44,10.07.6,18.46.89,36.18-3,48.59-10.67a178,178,0,0,0,15.89-11.31c8.14-6.32,15.18-11.77,26-14.25,16.42-3.78,40,3.22,60.94,10.56,9.84,3.45,18.14,8.08,26.16,12.56,5.43,3,11.05,6.17,17.17,9,22.4,10.24,39.64,13.46,52.7,9.84,14.86-4.12,22.2-15.09,30.69-27.79,2.59-3.87,5.27-7.87,8.25-11.77,19-24.85,57.37-40.94,80.54-33.76L619,119.09c-21.38-6.62-58.41,9.1-76.18,32.36-2.91,3.81-5.55,7.75-8.1,11.57-8.57,12.81-16.66,24.9-33,29.42-14,3.89-32.14.6-55.43-10.05-6.27-2.87-12-6-17.46-9.11-8.24-4.61-16-8.95-25.53-12.29-19.19-6.73-43.21-14-58.73-10.43-10,2.28-16.39,7.23-24.48,13.51a181.22,181.22,0,0,1-16.23,11.55C286,186.69,264.34,187.43,253,186.89c-3.44-.17-6.85-.39-10.14-.61-11.6-.77-22.55-1.49-35.51.1-12.45,1.52-24.41,7.31-37.06,13.43C155.59,207,140.41,214.3,124.32,214.3Z" style="fill:#a7dafa"/><path d="M127.25,214.49a50.18,50.18,0,0,1-6.56-.43c-11.61-1.52-21.41-7.65-30.89-13.59-6-3.73-12.12-7.59-18.62-10.2-17-6.84-41.22-3-50.18,13.62L17.48,202c10.29-19.1,36.67-22.89,55.2-15.43,6.82,2.74,13.14,6.7,19.25,10.52,9.53,6,18.53,11.61,29.28,13,17.2,2.25,33.84-5.79,49.93-13.57,11.82-5.72,24-11.63,36.46-13.44,13.46-2,24.63-1.79,36.45-1.61,3,.05,6,.1,9.12.11,10.69,0,31.16-1.43,48.29-11.57,5.5-3.26,10.14-6.42,14.23-9.21,9.62-6.56,17.23-11.74,29.11-13.72,16.79-2.82,41.09,5,60.61,11.23l.63.2c9.89,3.17,18.26,7.43,26.36,11.56,5.35,2.72,10.87,5.54,16.89,8.08,15.86,6.69,36.17,13.84,52.7,9.71,15.07-3.76,22.74-14.38,31.62-26.68,2.48-3.44,5-7,7.86-10.49,19-23.68,56.34-39.81,78.25-33.84l-1.05,3.86c-20.22-5.51-56.23,10.28-74.08,32.49-2.75,3.42-5.29,6.93-7.74,10.32-9,12.4-17.41,24.11-33.89,28.22-17.68,4.42-38.8-3-55.22-9.91-6.15-2.6-11.75-5.44-17.16-8.2-8.32-4.24-16.17-8.24-25.76-11.31l-.63-.2c-19.11-6.13-42.9-13.75-58.73-11.09-11,1.83-17.94,6.55-27.52,13.08-4.14,2.82-8.83,6-14.44,9.34-18,10.63-39.22,12.18-50.34,12.13-3.11,0-6.15-.06-9.18-.11-11.65-.18-22.66-.35-35.8,1.57-11.81,1.72-23.22,7.24-35.3,13.08C158.25,207.2,143.19,214.49,127.25,214.49Z" style="fill:#9fd7fa"/><path d="M130.17,214.68a49.11,49.11,0,0,1-6.71-.45c-11.75-1.59-21.57-8-31.07-14.13-6-3.87-12.11-7.86-18.63-10.58C56.64,182.37,32,186.07,22.56,203l-3.49-2c10.45-18.75,37.52-23,56.23-15.18,6.85,2.86,13.16,6.95,19.26,10.91,9.55,6.2,18.57,12,29.43,13.53,17.12,2.31,33.71-5.7,49.74-13.45,11.24-5.44,22.86-11.06,34.58-13,13.79-2.34,25.12-2.75,37.12-3.19,2.53-.09,5.09-.18,7.69-.3,10.51-.45,30.73-2.68,48-12.47,4.18-2.37,7.94-4.64,11.26-6.65,11.71-7.09,20.17-12.22,33.49-13.63,14.9-1.6,35.5,4.55,53.68,10,2.68.8,5.31,1.58,7.85,2.32,10,2.91,18.07,6.62,26.64,10.56,5.24,2.41,10.66,4.9,16.55,7.18,18.15,7,37.1,13.06,52.7,9.6,15.32-3.4,23.36-13.71,32.68-25.65,2.33-3,4.73-6.07,7.33-9.13,19.09-22.52,55.28-38.69,76-33.93l-.9,3.9c-19.07-4.4-54.06,11.45-72,32.61-2.54,3-4.92,6.06-7.23,9-9.38,12-18.24,23.38-35,27.1s-36.27-2.52-55-9.78c-6-2.32-11.48-4.84-16.77-7.27-8.43-3.88-16.39-7.54-26.08-10.35q-3.84-1.12-7.88-2.34c-17.82-5.31-38-11.34-52.12-9.82-12.43,1.32-20.15,6-31.84,13.07-3.34,2-7.13,4.31-11.36,6.71-18,10.21-38.92,12.52-49.79,13l-7.71.3c-11.87.43-23.07.84-36.6,3.14-11.16,1.89-22,7.14-33.51,12.7C160.94,207.44,146,214.68,130.17,214.68Z" style="fill:#97d4fa"/><path d="M133.08,214.87a49.6,49.6,0,0,1-6.85-.47c-11.89-1.67-21.73-8.28-31.25-14.68-6-4-12.1-8.12-18.63-10.95C59.1,181.32,34,184.87,24.12,202l-3.46-2C31.6,181,59.11,177,77.93,185.1c6.88,3,13.18,7.21,19.28,11.3,9.56,6.43,18.6,12.5,29.57,14,17.05,2.39,33.59-5.61,49.59-13.35C187,191.93,198,186.61,209,184.46c14.57-2.84,26.41-3.9,39-5l5.1-.46c10.35-1,30.3-3.94,47.7-13.38,2.12-1.15,4.13-2.26,6-3.31,15.43-8.48,24.74-13.6,40.12-14.32,13.29-.64,30.69,4.34,47.53,9.17,5,1.43,9.73,2.79,14.3,4,10.11,2.64,18.34,6,27,9.58,5.1,2.09,10.36,4.25,16.07,6.26,15.22,5.36,36.05,12.71,52.71,9.48,15.65-3,24.11-13.08,33.92-24.7,2.12-2.51,4.3-5.1,6.62-7.7,19.12-21.36,54.21-37.57,73.63-34L618,124c-17.93-3.29-51.92,12.63-69.93,32.75-2.28,2.55-4.44,5.12-6.54,7.61-9.87,11.69-19.19,22.74-36.22,26-17.72,3.43-39.15-4.12-54.8-9.64-5.8-2-11.12-4.22-16.26-6.33-8.57-3.51-16.68-6.83-26.53-9.41-4.62-1.21-9.37-2.57-14.39-4-16.53-4.73-33.6-9.63-46.24-9-14.46.68-23.46,5.63-38.38,13.84l-6.06,3.32c-18,9.78-38.59,12.87-49.24,13.84l-5.12.46c-12.43,1.11-24.17,2.15-38.53,5-10.49,2-20.78,7-31.67,12.29C163.66,207.67,148.79,214.87,133.08,214.87Z" style="fill:#8fd1fa"/><path d="M136,215.06a48.78,48.78,0,0,1-7-.5c-12-1.74-21.89-8.59-31.42-15.21-6-4.13-12.09-8.4-18.65-11.33-17.36-7.75-42.9-4.35-53.24,13.08l-3.44-2c11.43-19.26,39.38-23.14,58.31-14.69,6.9,3.08,13.2,7.46,19.3,11.69,9.57,6.66,18.62,12.94,29.71,14.54,17,2.45,33.51-5.55,49.47-13.29,10-4.86,20.4-9.89,30.68-12.16,16.87-3.74,30.3-5.63,43.29-7.45,10.18-1.44,29.87-5.2,47.4-14.29,19.22-10,30.07-15.18,47.57-15,11.84.11,27.13,4.43,41.91,8.62,6.78,1.91,13.79,3.9,20.21,5.39a232.62,232.62,0,0,1,27.69,8.65c4.88,1.75,9.91,3.56,15.35,5.29l3.22,1c15.16,4.85,34,10.89,49.5,8.33,16.07-2.66,25-12.49,35.41-23.87,1.82-2,3.7-4.07,5.67-6.14,19.14-20.21,53.12-36.45,71.29-34.1l-.52,4c-16.81-2.19-49.79,13.79-67.86,32.88-2,2.05-3.82,4.1-5.63,6.08-10.87,11.93-20.27,22.24-37.71,25.12-16.43,2.72-35.8-3.48-51.37-8.46l-3.21-1c-5.51-1.75-10.58-3.57-15.49-5.34a232,232,0,0,0-27.24-8.52c-6.52-1.51-13.57-3.51-20.4-5.44-14.53-4.1-29.55-8.35-40.86-8.46-16.61-.18-26.54,4.59-45.69,14.53-18.05,9.37-38.25,13.23-48.69,14.7-12.91,1.82-26.26,3.69-43,7.39-9.82,2.18-19.52,6.88-29.79,11.86C166.41,207.88,151.6,215.06,136,215.06Z" style="fill:#87cefb"/><path d="M138.91,215.25a49.41,49.41,0,0,1-7.14-.52c-12.16-1.81-22-8.9-31.59-15.75-5.94-4.26-12.09-8.67-18.67-11.7-17.47-8.06-43.45-4.8-54.26,12.88l-3.41-2.08c11.92-19.51,40.31-23.21,59.35-14.44,6.93,3.2,13.23,7.72,19.32,12.09,9.59,6.88,18.65,13.37,29.85,15,16.95,2.52,33.45-5.5,49.41-13.27,9.39-4.57,19.1-9.29,28.65-11.66,15.86-4,28.18-6.68,42.53-9.43,10-1.92,29.45-6.45,47.11-15.2,19.18-9.51,30.8-13.55,49-12.32,10.5.7,23.22,4.33,36.68,8.18,8.64,2.46,17.56,5,25.74,6.68a279.5,279.5,0,0,1,28.8,7.79c4.51,1.39,9.17,2.84,14.16,4.25,2.12.6,4.3,1.24,6.54,1.9,14.9,4.36,31.78,9.31,46.19,7.34,16.62-2.28,25.71-11.51,37.22-23.19,1.43-1.46,2.89-2.94,4.4-4.44,19.13-19.05,52-35.34,68.93-34.17l-.27,4c-15.71-1.08-47.71,15-65.84,33q-2.24,2.23-4.37,4.4c-11.57,11.75-21.56,21.89-39.53,24.35-15.26,2.09-32.57-3-47.86-7.46-2.22-.66-4.4-1.29-6.5-1.89-5-1.43-9.72-2.88-14.25-4.28a276.48,276.48,0,0,0-28.42-7.69c-8.33-1.7-17.33-4.27-26-6.76-13.25-3.79-25.77-7.36-35.85-8-17.25-1.17-28.42,2.73-46.94,11.91-18.08,9-37.91,13.59-48.13,15.55-14.27,2.74-26.53,5.45-42.32,9.38-9.14,2.27-18.23,6.7-27.86,11.38C169.19,208.07,154.44,215.25,138.91,215.25Z" style="fill:#7fcbfb"/><path d="M141.82,215.44a47.33,47.33,0,0,1-7.28-.55c-12.29-1.88-22.18-9.2-31.75-16.28-5.94-4.4-12.08-8.94-18.7-12.08-17.58-8.36-44-5.25-55.28,12.7l-3.39-2.13c12.42-19.75,41.25-23.28,60.39-14.19,7,3.31,13.26,8,19.36,12.48,9.6,7.1,18.66,13.81,30,15.55,16.93,2.6,33.44-5.47,49.4-13.28,8.74-4.27,17.76-8.69,26.57-11.13,4.52-1.26,8.73-2.44,12.75-3.58,10.24-2.89,19.09-5.39,29-7.82s29-7.71,46.82-16.12c20.13-9.53,32.37-11.87,50.38-9.65,9.24,1.12,20.2,4.35,31.8,7.77,10.36,3.05,21.06,6.2,30.92,7.93,11.57,2,21.05,4.5,31.08,7.11,3.77,1,7.67,2,11.81,3,3.12.78,6.33,1.65,9.72,2.57,13.88,3.75,29.61,8,43,6.55,17.34-1.87,27.12-11.08,39.49-22.74l2.67-2.51c19.11-17.88,50.83-34.2,66.55-34.24v4c-14.63,0-45.65,16.15-63.82,33.16l-2.67,2.51c-12.41,11.68-23.12,21.78-41.8,23.8-14.16,1.53-30.27-2.83-44.49-6.67-3.37-.92-6.56-1.78-9.65-2.54-4.15-1-8.07-2.06-11.85-3-9.95-2.6-19.35-5.06-30.76-7.05-10.08-1.77-20.9-4.95-31.36-8-11.44-3.37-22.24-6.55-31.16-7.63-17.13-2.12-28.84.14-48.18,9.29-18.12,8.57-37.59,13.95-47.58,16.39s-18.67,4.91-28.88,7.79c-4,1.14-8.25,2.33-12.77,3.58-8.45,2.34-16.92,6.49-25.88,10.87C172,208.24,157.3,215.44,141.82,215.44Z" style="fill:#78c9fb"/><path d="M144.72,215.64a47.82,47.82,0,0,1-7.41-.58c-12.42-2-22.32-9.52-31.9-16.82-6-4.53-12.09-9.21-18.73-12.46-17.7-8.66-44.55-5.69-56.31,12.52L27,196.13c12.91-20,42.19-23.35,61.42-13.95,7,3.43,13.3,8.23,19.4,12.88,9.61,7.32,18.68,14.24,30.11,16.05,16.94,2.68,33.47-5.47,49.46-13.35,8.42-4.15,16.37-8.07,24.42-10.54,7.66-2.35,14.34-4.61,20.81-6.8,6.8-2.3,13.22-4.48,20.2-6.57a393.42,393.42,0,0,0,46.53-17c21.64-9.76,34.89-10,51.78-7,8,1.41,17.35,4.29,27.22,7.34,11.95,3.69,24.32,7.51,35.81,9.2,14,2,24.94,4.41,37.64,7.14l5.16,1.11c4.1.87,8.34,1.94,12.83,3.07,13.5,3.4,27.47,6.91,39.93,5.93,18.3-1.45,28.94-10.79,42.41-22.61l.3-.26c19-16.72,49.62-33.07,64.14-34.3l.34,4c-13.59,1.16-43.64,17.35-61.84,33.32l-.3.27c-14,12.31-25.11,22-44.73,23.58-13.11,1-28.05-2.72-41.23-6-4.45-1.12-8.66-2.18-12.68-3L451,177.42c-12.64-2.71-23.55-5.06-37.38-7.09-11.8-1.74-24.31-5.6-36.41-9.34-9.75-3-18.95-5.85-26.74-7.22-16.46-2.93-28.63-2.7-49.44,6.68a397.35,397.35,0,0,1-47,17.23c-6.91,2.07-13.3,4.24-20.07,6.52-6.49,2.2-13.21,4.48-20.92,6.84s-15.55,6.23-23.82,10.31C174.88,208.39,160.18,215.63,144.72,215.64Z" style="fill:#70c6fb"/><path d="M147.63,215.83a47.22,47.22,0,0,1-7.55-.6c-12.54-2-22.46-9.83-32.05-17.36-6-4.66-12.1-9.49-18.77-12.84-20-10.05-46.24-4.4-57.32,12.33l-3.34-2.21c12.15-18.33,40.75-24.61,62.46-13.69,7,3.53,13.34,8.48,19.44,13.27,9.61,7.54,18.7,14.67,30.23,16.55,17,2.76,33.55-5.49,49.59-13.47,7.67-3.82,14.92-7.43,22.2-9.89,8.61-2.92,16-5.87,23.08-8.72,5.77-2.32,11.23-4.5,17.18-6.62,9.46-3.36,28.06-10.18,46.23-18,21.12-9.07,35-8.51,53.18-4.31,6.87,1.58,14.67,4.14,22.92,6.85,12.81,4.21,27.33,9,40.41,10.53,15.61,1.86,27.59,3.64,42.73,6.36,5,.9,10.29,2.14,15.86,3.45,12.47,2.95,25.38,6,36.92,5.42,18.08-.89,28.86-8.69,43.25-20.49,18.93-15.53,48.34-31.89,61.7-34.34l.72,3.94c-12.6,2.3-41.7,18.58-59.88,33.49-14.55,11.93-26.33,20.44-45.6,21.4-12.11.59-25.29-2.52-38-5.52-5.51-1.3-10.71-2.53-15.65-3.42-15.05-2.7-27-4.47-42.49-6.32-13.48-1.6-28.2-6.43-41.19-10.7-8.16-2.68-15.87-5.21-22.57-6.75-17.37-4-30.59-4.55-50.71,4.08-18.26,7.84-36.95,14.69-46.46,18.07-5.88,2.09-11.3,4.26-17,6.56-7.17,2.87-14.58,5.85-23.29,8.8-7,2.37-14.15,5.92-21.7,9.68C177.81,208.5,163.09,215.83,147.63,215.83Z" style="fill:#68c3fc"/><path d="M150.54,216a46.62,46.62,0,0,1-7.68-.63c-12.68-2.13-22.6-10.14-32.21-17.88-6-4.8-12.1-9.77-18.8-13.23C71.74,173.9,45,179.46,33.5,196.43l-3.31-2.25c12.6-18.55,41.67-24.71,63.49-13.45,7.07,3.64,13.38,8.74,19.49,13.66,9.62,7.77,18.71,15.1,30.35,17.06,17,2.86,33.7-5.55,49.81-13.67a201,201,0,0,1,19.88-9.17c9-3.34,16.59-6.88,23.93-10.31,5.23-2.44,10.17-4.75,15.58-7,13-5.38,29.93-12.38,45.94-18.91,20.78-8.48,35.21-7.11,54.57-1.63,5.76,1.63,12.15,3.88,18.91,6.27,14.11,5,30.1,10.61,44.74,11.95l8.8.78c11.64,1,21.7,1.92,33.84,3.67,5.9.86,12,2.33,18.54,3.89,11.55,2.76,23.49,5.62,34.16,4.87,18.56-1.29,30.15-7.62,43.9-18.12,18.36-14,47.15-30.71,59.24-34.35l1.15,3.83c-11.73,3.53-39.9,19.91-58,33.7-14.36,11-26.49,17.57-46,18.93-11.28.79-23.53-2.14-35.37-5-6.41-1.54-12.47-3-18.18-3.82-12-1.74-22-2.62-33.62-3.64l-8.82-.79c-15.13-1.38-31.37-7.11-45.7-12.16-6.7-2.36-13-4.59-18.67-6.19-18.92-5.36-32.15-6.6-52,1.48-16,6.53-32.95,13.53-45.92,18.9-5.33,2.21-10.23,4.49-15.42,6.92-7.41,3.46-15.07,7-24.22,10.43a200,200,0,0,0-19.48,9C180.8,208.58,166,216,150.54,216Z" style="fill:#60c0fc"/><path d="M153.25,216.2a44.71,44.71,0,0,1-7.62-.64c-12.8-2.22-22.74-10.45-32.35-18.42-6-4.94-12.11-10-18.85-13.61-20.23-10.71-47.42-5.23-59.37,12l-3.28-2.28c13-18.77,42.59-24.82,64.52-13.21,7.11,3.76,13.43,9,19.54,14.06,9.63,8,18.72,15.52,30.47,17.55,17.15,3,33.92-5.63,50.14-14,6.06-3.11,11.78-6,17.46-8.35a242.53,242.53,0,0,0,24.2-11.77c4.67-2.5,9.5-5.09,14.56-7.49,11.36-5.39,28.5-13.2,45.63-19.84,22.65-8.77,38.74-4.71,56,1.06,4.71,1.57,9.81,3.51,15.2,5.57,15.3,5.83,32.63,12.44,48.77,13.47,5.65.36,10.85.58,15.88.79,8.8.37,17.1.72,26.68,1.78a188.8,188.8,0,0,1,21,4c10.71,2.46,21.78,5,31.75,4.62,17.11-.65,29.15-4.92,44.45-15.75,17.4-12.31,45.51-29.31,56.74-34.32l1.63,3.65c-9.92,4.43-37.14,20.55-56.06,33.94-16,11.32-28.64,15.79-46.61,16.48-10.49.4-21.83-2.2-32.8-4.72a185.85,185.85,0,0,0-20.51-3.94c-9.45-1-17.69-1.39-26.41-1.75-5.06-.21-10.28-.43-16-.79-16.74-1.08-34.37-7.8-49.93-13.73-5.36-2-10.41-4-15.05-5.52-17.05-5.71-31.8-9.42-53.24-1.12-17,6.59-34.06,14.37-45.37,19.73-5,2.36-9.54,4.8-14.38,7.4a250.48,250.48,0,0,1-24.58,12c-5.52,2.24-11.16,5.14-17.14,8.2C184.47,208.3,169.07,216.2,153.25,216.2Z" style="fill:#58bdfc"/><path d="M156.16,216.4a44.31,44.31,0,0,1-7.76-.68c-12.92-2.3-22.86-10.76-32.48-18.94-6-5.08-12.13-10.32-18.9-14-20.35-11-48-5.64-60.4,11.77l-3.26-2.31c13.5-19,43.53-24.93,65.57-13,7.14,3.87,13.46,9.25,19.58,14.46,9.64,8.2,18.74,16,30.59,18.05,17.32,3.09,34.24-5.78,50.6-14.35,5.18-2.71,10.07-5.27,14.9-7.41a206,206,0,0,0,24.2-13.18c4.43-2.68,9-5.46,13.82-8A368.52,368.52,0,0,1,298,148c22.56-8.27,39.32-3.2,57.34,3.74l4.79,1.85c17.61,6.81,39.52,15.29,59.7,18.05,8.33,1.14,15.58.87,23.27.59a161.29,161.29,0,0,1,19,.06c7.89.6,16.51,2.4,24.84,4.14,9.41,2,19.15,4,28,4.37,16.53.68,29.13-3.07,44.91-13.37,14.62-9.55,34.77-22.11,46.81-29.62l7.43-4.64,2.12,3.39c-1.86,1.17-4.4,2.76-7.43,4.64-12,7.5-32.15,20-46.74,29.58-13.81,9-27.13,14.84-47.26,14-9.19-.38-19.09-2.45-28.66-4.45-8.58-1.8-16.69-3.49-24.33-4.07a162.39,162.39,0,0,0-18.57-.06c-7.51.28-15.28.57-23.95-.62-20.65-2.82-42.8-11.39-60.6-18.28l-4.79-1.84C336,148.6,320.62,144,299.33,151.77a364.21,364.21,0,0,0-44.82,20.55c-4.72,2.53-9,5.16-13.63,7.94a210.08,210.08,0,0,1-24.66,13.41c-4.71,2.09-9.54,4.62-14.66,7.31C187.64,208.27,172.13,216.4,156.16,216.4Z" style="fill:#50bafc"/><path d="M159.08,216.59a44.13,44.13,0,0,1-7.91-.7c-13-2.39-23-11.08-32.61-19.48-6-5.2-12.14-10.59-19-14.37C79.14,170.67,51,176,38.19,193.62L35,191.26c13.95-19.19,44.45-25,66.6-12.72,7.18,4,13.51,9.52,19.64,14.86,9.64,8.42,18.75,16.36,30.7,18.55,17.57,3.22,35.46-6.41,51.24-14.9,4.23-2.28,8.23-4.43,12.17-6.33,9.21-4.44,16.75-9.57,24-14.54,4.24-2.88,8.62-5.86,13.24-8.64,10.9-6.56,27.57-15.66,45-21.72,22.63-7.86,39.29-2,58.71,6.42l.15.07c17.86,7.74,42.33,18.35,64.66,20.65,8.22.85,15.39.22,23-.44a147,147,0,0,1,19.23-.8c8.87.37,18.52,2.37,27.86,4.3,8.39,1.73,17.06,3.52,25,4.09,17.39,1.26,30.14-1.83,45.47-11,19.22-11.51,43.89-27.38,51.73-34.14l2.61,3c-8,6.9-32.92,22.95-52.29,34.54-15.89,9.51-29.74,12.86-47.81,11.56-8.21-.59-17-2.41-25.53-4.17-9.18-1.89-18.67-3.85-27.22-4.21a143.47,143.47,0,0,0-18.71.78c-7.45.65-15.15,1.32-23.75.44-22.95-2.36-47.74-13.11-65.84-21l-.15-.07c-18.61-8.09-34.54-13.69-55.8-6.31-17.13,5.94-33.54,14.9-44.28,21.37-4.52,2.72-8.86,5.67-13,8.52-7.41,5-15.07,10.26-24.55,14.83-3.86,1.86-7.82,4-12,6.25C191,208.15,175.26,216.59,159.08,216.59Z" style="fill:#48b7fd"/><path d="M162,216.8a43.34,43.34,0,0,1-8.06-.75c-13.15-2.47-23.11-11.38-32.74-20-6-5.34-12.16-10.87-19-14.76C81.61,169.6,53,174.81,39.75,192.68l-3.21-2.39c14.4-19.4,45.37-25.12,67.63-12.48,7.22,4.1,13.56,9.78,19.7,15.26,9.64,8.63,18.75,16.78,30.81,19.05,17.93,3.38,36.08-6.74,52.1-15.66,3.2-1.78,6.22-3.47,9.21-5,9.16-4.8,16.6-10.43,23.8-15.88,4.08-3.09,8.29-6.28,12.74-9.26,10.71-7.16,27.16-16.91,44.72-22.67,22.76-7.46,40-.61,60.08,9.11s43.13,20,65.13,21.54c8.62.59,16.13-.39,24.09-1.44a165.16,165.16,0,0,1,18-1.68c10.12-.24,21.06,2.13,31.64,4.43a203.25,203.25,0,0,0,21.32,3.84c18,1.86,31.36-.64,46-8.63,18-9.78,42.58-26.14,49.25-34l3.05,2.59c-7.06,8.3-31.75,24.75-50.38,34.91-15.44,8.41-29.45,11-48.35,9.1a208.41,208.41,0,0,1-21.75-3.91c-10.36-2.25-21.06-4.57-30.71-4.34a162.3,162.3,0,0,0-17.57,1.65c-7.8,1-15.86,2.08-24.88,1.47-22.71-1.56-46.29-12.14-66.6-21.94-19.3-9.32-35.75-15.9-57.09-8.91-17.13,5.62-33.24,15.17-43.74,22.19-4.36,2.92-8.53,6.08-12.56,9.13-7.32,5.55-14.9,11.28-24.35,16.23-2.94,1.54-5.95,3.21-9.13,5C194.43,207.92,178.5,216.79,162,216.8Z" style="fill:#40b4fd"/><path d="M165,217a43.61,43.61,0,0,1-8.24-.78c-13.27-2.57-23.23-11.7-32.86-20.53-6-5.48-12.18-11.15-19.07-15.15-20.7-12-49.77-6.89-63.46,11.2l-3.19-2.42c14.85-19.61,46.3-25.22,68.66-12.24,7.27,4.22,13.62,10,19.76,15.66,9.65,8.84,18.76,17.19,30.92,19.55,18.42,3.57,36.93-7.2,53.26-16.72,2-1.18,4-2.33,6-3.43,9.07-5.15,16.4-11.28,23.48-17.21,3.94-3.29,8-6.7,12.33-9.89,10.5-7.76,26.73-18.16,44.4-23.61,23-7.09,40.68.77,61.44,11.79l3.33,1.77c18,9.6,40.45,21.55,62,20.6a165.76,165.76,0,0,0,20.42-2.49,158.21,158.21,0,0,1,21.81-2.52c10.9-.29,22.67,2.2,34,4.61,6.6,1.4,12.82,2.72,18.89,3.54,18.89,2.54,32.39.72,46.6-6.27,17.62-8.66,41.17-24.68,46.8-33.81l3.4,2.1c-6.07,9.85-30,26.21-48.44,35.3-15,7.37-29.15,9.3-48.89,6.64-6.22-.84-12.81-2.24-19.19-3.59-11.13-2.36-22.64-4.79-33.09-4.52a150.86,150.86,0,0,0-21.27,2.47,170.5,170.5,0,0,1-20.9,2.54c-22.62,1-45.58-11.24-64-21.07l-3.32-1.77c-19.93-10.57-36.88-18.14-58.39-11.5-17.14,5.29-32.95,15.43-43.2,23-4.22,3.11-8.25,6.48-12.14,9.74-7.22,6-14.69,12.29-24.08,17.62-1.92,1.09-3.9,2.24-5.91,3.41C198.16,207.53,181.9,217,165,217Z" style="fill:#38b1fd"/><path d="M167.72,217.18a41.91,41.91,0,0,1-8.24-.8c-13.38-2.67-23.34-12-33-21-6-5.62-12.2-11.43-19.13-15.54-20.82-12.34-50.35-7.3-64.49,11l-3.17-2.45c15.31-19.82,47.23-25.31,69.7-12,7.31,4.33,13.67,10.3,19.82,16.06,9.66,9.06,18.78,17.6,31,20.05,19.15,3.82,39-8.4,54.87-18.22l2.25-1.39c9-5.51,16.17-12.13,23.14-18.53,3.81-3.5,7.76-7.13,11.95-10.53,15-12.16,29.81-20.42,44.08-24.56,25.13-7.28,46,4.79,62.8,14.48l1.09.63c18.66,10.77,41.89,24.17,64.56,22.58a142.6,142.6,0,0,0,20.67-3.43A139.25,139.25,0,0,1,467.15,170c12-.72,24.82,2.1,37.22,4.83,5.47,1.21,10.64,2.35,15.73,3.19,16.67,2.78,31.08,3.18,47.16-3.89,17.38-7.63,40.06-23.64,44.4-33.63l3.67,1.6c-4.84,11.13-28.37,27.74-46.46,35.69s-34.39,6.68-49.43,4.18c-5.19-.86-10.65-2.07-15.94-3.23-12.13-2.67-24.67-5.44-36.1-4.74-7.36.44-13.92,1.88-20.88,3.39a145.7,145.7,0,0,1-21.24,3.51c-23.9,1.67-47.71-12.07-66.84-23.11l-1.09-.63c-20.51-11.84-37.93-20.4-59.68-14.09-13.76,4-28.12,12-42.68,23.82-4.09,3.32-8,6.9-11.77,10.37-7.11,6.52-14.46,13.27-23.75,19l-2.24,1.38C202.91,206.48,185.56,217.18,167.72,217.18Z" style="fill:#30aefd"/><path d="M170.73,217.4a42.3,42.3,0,0,1-8.49-.85c-13.47-2.77-23.45-12.33-33.09-21.58-6-5.75-12.22-11.71-19.19-15.93C89,166.38,59,171.34,44.44,189.86l-3.14-2.48c15.76-20,48.15-25.41,70.73-11.76,7.35,4.45,13.73,10.56,19.89,16.47,9.66,9.26,18.78,18,31.13,20.54,18.61,3.83,37.38-7.32,55-19.06,8.83-5.89,15.91-13,22.76-19.85,3.7-3.72,7.54-7.56,11.61-11.17,14.69-13,29.41-21.61,43.76-25.51,25.51-6.93,46.94,6.43,64.15,17.16,17.84,11.11,42.28,26.33,66,24,7.38-.71,14.21-2.57,20.83-4.36s13.67-3.71,21.24-4.43c13.11-1.24,27,2,40.47,5.12,4.34,1,8.43,2,12.5,2.77,17.38,3.46,32.15,4.53,47.73-1.52,17.2-6.66,38.83-22.39,42-33.46l3.85,1.12c-3.63,12.51-26.32,29.05-44.43,36.07-16.49,6.39-31.9,5.31-50,1.72-4.13-.82-8.45-1.83-12.62-2.8-13.14-3.06-26.73-6.22-39.2-5-7.22.69-13.7,2.44-20.57,4.31s-13.77,3.74-21.49,4.48c-1.75.17-3.51.25-5.27.25-23.29,0-46.19-14.26-63.24-24.88-20.32-12.67-38.94-22.67-61-16.69-13.75,3.73-27.94,12-42.16,24.64-4,3.53-7.77,7.33-11.43,11-7,7-14.21,14.24-23.37,20.35C204.54,207.38,187.86,217.4,170.73,217.4Z" style="fill:#28acfe"/><path d="M173.46,217.58a40.48,40.48,0,0,1-8.45-.87c-13.58-2.87-23.56-12.64-33.2-22.09-6-5.9-12.24-12-19.26-16.32-21-13-51.52-8.12-66.54,10.62l-3.12-2.5C59.1,166.18,92,160.9,114.65,174.89c7.4,4.56,13.78,10.82,20,16.87,9.66,9.46,18.79,18.4,31.23,21,18.66,3.95,38.08-7.82,52.92-18.51,8.68-6.26,15.64-13.84,22.36-21.16,3.6-3.93,7.33-8,11.3-11.83,14.39-13.89,29-22.8,43.43-26.45,24-6.09,43.87,5.38,65.5,19.84,21.13,14.11,43.66,27.66,66.36,24.88,7.41-.91,14.29-3.15,20.94-5.31s13.55-4.41,21.05-5.37C484,167,499,170.8,513.54,174.43c3.16.79,6.16,1.53,9.15,2.23,15.24,3.53,31.52,6.5,48.32.85,17-5.73,37.63-21.2,39.7-33.32l3.94.68c-2.36,13.86-24.23,30.33-42.37,36.43-17.79,6-34.7,2.91-50.49-.75-3-.7-6.18-1.48-9.22-2.24-14.17-3.54-28.82-7.2-42.36-5.46-7.13.92-13.54,3-20.32,5.21s-13.9,4.52-21.69,5.48a53.92,53.92,0,0,1-6.58.4c-21.72,0-42.72-12.72-62.5-25.92-20.81-13.92-39.87-25-62.29-19.3-13.74,3.49-27.75,12.05-41.63,25.46-3.88,3.74-7.57,7.76-11.14,11.65-6.85,7.48-13.94,15.2-23,21.7C207.76,207.15,190.79,217.58,173.46,217.58Z" style="fill:#20a9fe"/><path d="M176.27,217.78a39.71,39.71,0,0,1-8.49-.9c-13.66-3-23.62-12.95-33.25-22.58-6.05-6.06-12.3-12.31-19.39-16.75C94,164.21,63.06,169,47.57,188l-3.1-2.53c16.71-20.48,50.05-25.65,72.8-11.29,7.47,4.68,13.89,11.1,20.09,17.31,9.65,9.65,18.76,18.77,31.27,21.5,14.42,3.14,31.51-2.9,50.82-18,8.52-6.64,15.34-14.69,21.94-22.47,3.51-4.15,7.15-8.44,11-12.48,14.09-14.77,28.59-24,43.1-27.41,26.48-6.24,49.81,10.39,66.84,22.53,20,14.26,43.35,29.19,66.73,25.71,7.41-1.1,14.32-3.72,21-6.25s13.45-5.1,20.89-6.32c15.53-2.52,31.69,1.87,47.31,6.11q2.88.8,5.71,1.54c17.09,4.52,32.56,7.89,48.9,3.23,16.87-4.82,36.45-20,37.39-33.2l4,.28c-1.09,15.2-22.1,31.57-40.29,36.76-17.29,4.94-34,1.3-51-3.2q-2.84-.75-5.73-1.55c-15.21-4.13-31-8.41-45.61-6-7.05,1.15-13.4,3.56-20.12,6.11-6.89,2.61-14,5.3-21.84,6.47-24.85,3.7-49-11.69-69.64-26.41-21.28-15.17-40.75-27.28-63.6-21.89-13.74,3.24-27.58,12.08-41.13,26.27-3.78,4-7.37,8.2-10.85,12.3-6.73,7.94-13.69,16.15-22.53,23C205.19,211.21,189.88,217.78,176.27,217.78Z" style="fill:#18a6fe"/><path d="M179.16,218a39,39,0,0,1-8.61-.94c-13.77-3.09-23.74-13.27-33.37-23.11-6.06-6.18-12.32-12.58-19.45-17.13-21.26-13.65-52.67-9-68.59,10.23l-3.08-2.55c17.15-20.67,51-25.73,73.83-11,7.51,4.8,13.93,11.36,20.14,17.7,9.66,9.86,18.78,19.17,31.4,22,19.31,4.34,38.81-9,48.71-17.4,8.33-7,15-15.55,21.5-23.79,3.43-4.36,7-8.87,10.75-13.14,13.79-15.63,28.18-25.16,42.76-28.35,25-5.45,46.5,8.81,68.18,25.21,19.9,15,43.14,30.74,67.1,26.55,7.41-1.29,14.35-4.3,21.05-7.2s13.37-5.8,20.77-7.26c16.82-3.31,34.93,2.11,50.9,6.89l2.13.64c15.15,4.52,32.31,9.64,49.49,5.6,16.71-3.93,35.28-18.93,35.09-33.12l4-.05c.22,16.5-20,32.78-38.18,37.06s-35.92-1-51.54-5.66l-2.13-.64c-16.29-4.87-33.14-9.91-49-6.79-7,1.37-13.57,4.23-19.95,7-6.92,3-14.07,6.11-21.95,7.48-25.54,4.47-49.63-11.75-70.2-27.3C340,143.05,319.31,129.28,296,134.37c-13.73,3-27.39,12.11-40.61,27.09-3.69,4.18-7.21,8.65-10.6,13-6.6,8.39-13.42,17.07-22.06,24.36C213.69,206.42,197,218,179.16,218Z" style="fill:#10a3fe"/><path d="M182.19,218.21a39.43,39.43,0,0,1-8.87-1c-13.88-3.22-23.85-13.61-33.5-23.65-6.06-6.31-12.33-12.84-19.5-17.5-21.38-14-53.26-9.36-69.62,10l-3.05-2.58c8.59-10.18,21.17-16.92,35.44-19s28.23.86,39.42,8.15c7.54,4.91,14,11.61,20.2,18.09,9.67,10.06,18.8,19.57,31.51,22.52,20.3,4.71,39.37-10.21,46.62-16.84,8.12-7.44,14.69-16.42,21-25.1,3.35-4.58,6.82-9.32,10.49-13.8,13.5-16.49,27.77-26.35,42.42-29.3,25.5-5.14,48.33,11,69.52,27.89s44.17,32.07,67.47,27.39c7.41-1.48,14-4.72,21.07-8.15,6.54-3.19,13.3-6.49,20.66-8.19,18.17-4.19,37.51,2.23,53.06,7.4l.29.09c16.25,5.4,33,11,49.78,7.88,16.55-3.06,34.1-17.85,32.81-33.05l4-.34c1.51,17.78-17.8,33.94-36.07,37.33-17.75,3.28-35-2.46-51.77-8l-.29-.1c-15.07-5-33.83-11.23-50.9-7.29-6.92,1.59-13.47,4.79-19.8,7.88-6.95,3.39-14.13,6.9-22,8.48-24.91,5-48.73-10.59-70.76-28.19-20.45-16.34-42.41-31.88-66.23-27.09-13.72,2.76-27.22,12.15-40.11,27.91-3.61,4.4-7,9.1-10.36,13.63-6.47,8.84-13.17,18-21.58,25.69C216.86,205.52,200.75,218.21,182.19,218.21Z" style="fill:#08a0ff"/><path d="M185,218.4a38.19,38.19,0,0,1-8.89-1c-14-3.35-24-13.93-33.6-24.17-6.08-6.45-12.36-13.12-19.57-17.89-21.5-14.26-53.85-9.75-70.64,9.84l-3-2.6c8.8-10.27,21.6-17,36-19s28.59,1,39.86,8.46c7.59,5,14,11.87,20.27,18.48,9.67,10.27,18.81,20,31.62,23,14.18,3.39,30.82-2.69,44.52-16.28,7.9-7.83,14.35-17.27,20.59-26.4,3.28-4.8,6.67-9.77,10.26-14.48,13.38-17.59,27.14-27.48,42.06-30.24,26.11-4.82,50.27,13.25,70.86,30.56,21.22,17.84,44.12,33.61,67.85,28.24,7.41-1.67,14.05-5.28,21.09-9.1,6.5-3.54,13.22-7.19,20.56-9.13,17.81-4.71,36.73,1.29,53.07,7.28l2,.71c15.88,5.84,32.31,11.87,48.71,9.64a39.29,39.29,0,0,0,25.36-14.67c4.31-5.73,6.11-12.08,5.18-18.35l4-.59c1.08,7.36-1,14.74-5.94,21.35a43.5,43.5,0,0,1-28,16.23c-17.4,2.35-34.29-3.85-50.63-9.85l-2-.72c-16.49-6-34-11.57-50.66-7.16-6.88,1.82-13.39,5.35-19.68,8.77-7,3.78-14.17,7.7-22.12,9.49-25.42,5.76-49.3-10.57-71.3-29.08-20.81-17.49-43.17-34.19-67.56-29.69-13.9,2.57-26.86,12-39.61,28.73-3.52,4.63-6.89,9.55-10.14,14.31-6.34,9.29-12.9,18.89-21.07,27C212.39,211.9,198.21,218.4,185,218.4Z" style="fill:#009dff"/></g></g></g></svg>