<svg xmlns="http://www.w3.org/2000/svg" viewBox="0 0 54 54"><title>Asset 1</title><g id="Layer_2" data-name="Layer 2"><g id="Capa_1" data-name="Capa 1"><path id="inner" d="M27,1h0A26,26,0,0,1,53,27h0A26,26,0,0,1,27,53h0A26,26,0,0,1,1,27H1A26,26,0,0,1,27,1Z" style="fill:#205cff"/><path id="outer" d="M27,54A27,27,0,1,1,54,27,27,27,0,0,1,27,54ZM27,2A25,25,0,1,0,52,27,25,25,0,0,0,27,2Z" style="fill:#205cff"/><path d="M31.32,40a1,1,0,0,1-.71-.29L19.12,28.21a1.71,1.71,0,0,1,0-2.42l11.49-11.5A1,1,0,0,1,32,15.71L20.73,27,32,38.29a1,1,0,0,1,0,1.42A1,1,0,0,1,31.32,40Z" style="fill:#fff"/></g></g></svg>