<svg id="Layer_1" data-name="Layer 1" xmlns="http://www.w3.org/2000/svg" viewBox="0 0 5333 3000"><title>Artboard 2</title><rect width="5333" height="3000" style="fill:#01153a"/><g style="opacity:0.1"><path d="M3791.17,1165.62a107,107,0,1,0,75.68,31.35A106.31,106.31,0,0,0,3791.17,1165.62Zm70,177a99,99,0,1,1,0-140A99.13,99.13,0,0,1,3861.19,1342.66Z" style="fill:#fff"/><path d="M3906.44,1157.37c-63.56-63.56-167-63.56-230.54,0s-63.57,167,0,230.55a163.15,163.15,0,0,0,204.48,21.22l66.24,66.23-13.2,13.2,157.68,157.69,73.69-73.68L4007.1,1414.89l-13.2,13.2-66.23-66.24a163.13,163.13,0,0,0-21.23-204.48Zm93.12,276.38,7.54-7.55,146.37,146.38L4091.1,1635l-146.37-146.38,31.19-31.18,23.64-23.64Zm-11.31,0-18,18-18,18-65.21-65.21a164.34,164.34,0,0,0,14.47-11.9l.69-.64c1.42-1.33,2.83-2.67,4.21-4s2.72-2.78,4-4.2l.68-.73a166,166,0,0,0,11.88-14.45Zm-67.6-75.79-1.45,2.12a156.34,156.34,0,0,1-13.38,16.9l-.77.84c-.56.6-1.11,1.2-1.68,1.79-.85.89-1.71,1.78-2.58,2.65s-1.76,1.74-2.65,2.59l-1.74,1.61c-.3.28-.6.57-.9.84-.84.77-1.7,1.53-2.56,2.29l-.07.06a156.17,156.17,0,0,1-14.26,11l-2.11,1.45a155.16,155.16,0,0,1-194.95-19.86c-60.44-60.44-60.44-158.79,0-219.23A155,155,0,0,1,3920.65,1358Z" style="fill:#fff"/><path d="M3829.43,1234.39a54.11,54.11,0,0,1,0,76.51l5.65,5.66a62.11,62.11,0,0,0,0-87.83Z" style="fill:#fff"/><rect x="4054.13" y="1475.05" width="8" height="93" transform="translate(112.7 3315.17) rotate(-45)" style="fill:#fff"/><path d="M3428.1,2742a49.84,49.84,0,0,1-70.4,0l-136.14-136.14,379-379,30.8,30.8,5.65-5.65-78.37-78.37a57.77,57.77,0,0,0-81.7,0L3451.62,2199l5.66,5.66,25.27-25.28a49.81,49.81,0,0,1,70.4,0l41.91,41.92-379,378.95L3174,2558.29a49.82,49.82,0,0,1,0-70.39l25.27-25.28-5.65-5.65-25.28,25.27a57.86,57.86,0,0,0,0,81.71L3352,2747.66a57.86,57.86,0,0,0,81.71,0l114.95-114.95-5.65-5.66Z" style="fill:#fff"/><rect x="3268.15" y="2326.79" width="114.58" height="8" transform="translate(-674.12 3034.09) rotate(-45)" style="fill:#fff"/><path d="M3174.68,2398.86l82.69,82.69,45.78-45.78-82.69-82.69Zm82.69,71.38L3186,2398.86l34.46-34.46,71.37,71.37Z" style="fill:#fff"/><path d="M3476.21,2262.72l-82.69-82.7-45.78,45.78,82.69,82.69Zm-82.69-71.38,71.37,71.38-34.46,34.46-71.38-71.38Z" style="fill:#fff"/><path d="M3751.77,2376.71a118.24,118.24,0,1,0,34.64,83.62A117.48,117.48,0,0,0,3751.77,2376.71Zm-5.65,161.57a110.25,110.25,0,1,1,0-155.91A109.51,109.51,0,0,1,3746.12,2538.28Z" style="fill:#fff"/><path d="M3780.1,2348.39c-61.72-61.73-162.16-61.73-223.88,0s-61.72,162.15,0,223.87a158.47,158.47,0,0,0,223.88,0C3841.82,2510.54,3841.82,2410.11,3780.1,2348.39Zm-5.66,218.22a150.3,150.3,0,1,1,44-106.28A149.31,149.31,0,0,1,3774.44,2566.61Z" style="fill:#fff"/><polygon points="3668.16 2454.67 3610.41 2396.93 3604.76 2402.58 3668.16 2465.98 3711.33 2422.81 3705.68 2417.15 3668.16 2454.67" style="fill:#fff"/><path d="M3283.58,2588l45.77,45.78,45.78-45.78-45.78-45.78Zm45.77,34.46L3294.89,2588l34.46-34.46,34.46,34.46Z" style="fill:#fff"/><path d="M3462.44,2500.67l-45.77-45.77-45.78,45.77,45.78,45.78Zm-45.77-34.46,34.46,34.46-34.46,34.46-34.46-34.46Z" style="fill:#fff"/><path d="M3450.41,2663.28l-45.77-45.78-45.78,45.78,45.78,45.77Zm-45.77-34.47,34.46,34.47-34.46,34.46-34.47-34.46Z" style="fill:#fff"/><polygon points="3489.13 2533.01 3446.18 2575.96 3491.95 2621.73 3534.9 2578.79 3529.24 2573.13 3491.95 2610.42 3457.49 2575.96 3494.78 2538.67 3489.13 2533.01" style="fill:#fff"/><path d="M2375.72,2277a88.34,88.34,0,1,0-62.46-25.88A87.74,87.74,0,0,0,2375.72,2277Zm-56.81-145.15a80.34,80.34,0,1,1,0,113.62A79.84,79.84,0,0,1,2318.91,2131.83Z" style="fill:#fff"/><path d="M2299.9,2304.5a138.34,138.34,0,1,0-40-40l-69.79,69.79-8-8-220,220,56,56,220-220-8-8Zm-54.61-115.86a130.35,130.35,0,1,1,58.21,108.65l-1.81-1.25q-4.83-3.33-9.37-7.12l-.21-.18c-.67-.56-1.34-1.12-2-1.7l-.55-.49-1.66-1.48-1-.93-1.2-1.12-2.21-2.15h0l-.24-.25c-.64-.65-1.28-1.3-1.91-2l-1.11-1.18-.95-1c-.49-.54-1-1.09-1.46-1.64-.17-.19-.34-.37-.5-.56-.57-.66-1.14-1.32-1.7-2l-.18-.22q-3.78-4.53-7.12-9.37l-1.26-1.81A129.55,129.55,0,0,1,2245.29,2188.64Zm19.22,82.48a143.46,143.46,0,0,0,9.47,11.38l.65.7q1.57,1.68,3.21,3.32t3.32,3.2l.71.66a139.47,139.47,0,0,0,11.37,9.47l-68.78,68.78-28.73-28.73Zm-246.37,319.79-44.69-44.69,208.64-208.64,2.33,2.32,40,40h0l2.32,2.33Z" style="fill:#fff"/><path d="M2543.82,2086.37l45-45L2523,1975.53l-45,45a199.79,199.79,0,0,0-59.26-24.54v-63.66h-93.1V1996a199.74,199.74,0,0,0-59.25,24.54l-45-45-65.83,65.83,45,45a199.63,199.63,0,0,0-24.54,59.25h-63.65v93.1H2176a199.78,199.78,0,0,0,26.26,62l6.73-4.31a192,192,0,0,1-25.89-62.53l-.69-3.14h-62.06v-77.1h62.06l.69-3.14A191.89,191.89,0,0,1,2209,2088l1.74-2.71-43.88-43.88,54.51-54.51,43.88,43.88L2268,2029a192.07,192.07,0,0,1,62.53-25.89l3.14-.69v-62.07h77.1v62.07l3.14.69a192,192,0,0,1,62.53,25.89l2.71,1.74,43.88-43.88,54.51,54.51-43.88,43.88,1.74,2.71a192.22,192.22,0,0,1,25.9,62.53l.69,3.14H2624v77.1H2562l-.69,3.14a192.22,192.22,0,0,1-25.9,62.53l-1.74,2.71,43.88,43.88L2523,2397.49l-43.88-43.88-2.71,1.74a192,192,0,0,1-62.53,25.89l-3.14.69V2444h-77.1v-62.07l-3.14-.69a192.07,192.07,0,0,1-62.53-25.89l-4.31,6.73a199.88,199.88,0,0,0,62,26.26V2452h93.1v-63.66A199.79,199.79,0,0,0,2478,2363.8l45,45,65.83-65.83-45-45a199.63,199.63,0,0,0,24.54-59.25H2632v-93.1h-63.66A199.63,199.63,0,0,0,2543.82,2086.37Z" style="fill:#fff"/><path d="M4001.71,2880.7a41.3,41.3,0,1,0,58.4,0A41.36,41.36,0,0,0,4001.71,2880.7Zm52.74,52.74a33.28,33.28,0,1,1,0-47.08A33.33,33.33,0,0,1,4054.45,2933.44Z" style="fill:#fff"/><path d="M3989.29,2830.44l-58.68-58.68,34.7-34.7-37.83-37.84-34.71,34.7-28.48-28.48,34.7-34.7-37.83-37.84-72.54,72.54,162.83,162.83a89.7,89.7,0,1,0,37.84-37.83Zm99.38,137.22a81.7,81.7,0,0,1-128.8-98.12l1.51-2.65-161.45-161.45,61.23-61.22,26.52,26.52-34.7,34.7,39.79,39.8,34.71-34.7,26.52,26.52-34.71,34.7,68.61,68.61,2.65-1.51a81.69,81.69,0,0,1,98.12,128.8Z" style="fill:#fff"/><polygon points="2289.52 0 2285.69 0 2287.6 1.91 2289.52 0" style="fill:#fff"/><polygon points="2109.19 349.06 2424.29 33.95 2390.34 0 2379.03 0 2412.98 33.95 2109.19 337.74 1991.37 219.92 2211.3 0 2199.98 0 1980.06 219.92 2109.19 349.06" style="fill:#fff"/><rect x="2033.3" y="115.65" width="263.25" height="8" transform="translate(549.49 1565.87) rotate(-45)" style="fill:#fff"/><rect x="2071.64" y="145.21" width="305.63" height="8" transform="translate(546.02 1616.63) rotate(-45)" style="fill:#fff"/><path d="M5152.3,1754.69l76.6,76.6,38.66-38.66L5191,1716l50.14-39.48-194.2-65.92,65.92,194.2Zm72.26-75.31-45.63,35.94,77.31,77.31L5228.9,1820l-77.32-77.32-35.93,45.63-56-164.87Z" style="fill:#fff"/><rect x="4900.2" y="1588.36" width="57.85" height="8" style="fill:#fff"/><rect x="4954.82" y="1493.63" width="8" height="57.85" transform="translate(375.79 3952.37) rotate(-45)" style="fill:#fff"/><rect x="5025.18" y="1465.28" width="8" height="57.85" style="fill:#fff"/><rect x="5070.05" y="1519.9" width="57.85" height="8" transform="translate(415.76 4051.61) rotate(-45)" style="fill:#fff"/><rect x="5098.4" y="1590.25" width="57.85" height="8" style="fill:#fff"/><rect x="5023.28" y="1663.48" width="8" height="57.85" style="fill:#fff"/><rect x="4928.56" y="1658.71" width="57.85" height="8" transform="translate(276.3 3992.47) rotate(-45)" style="fill:#fff"/><path d="M4849.43,2008.41l-48.52,48.52,26.61,26.61L4876,2035l25.72,32.67L4945.43,1939l-128.66,43.67Zm49.49,42.74L4876.75,2023l-49.23,49.22-15.29-15.29,49.22-49.23-28.15-22.17,99.34-33.72Z" style="fill:#fff"/><path d="M2805.37,983.33l38.51-38.66-6.47-51,34.24-34.38L3023,707.91l51,6.28,38.51-38.66-12.14-63-40.68,40.84-25-24.89,40.69-40.85-63.08-11.89-38.51,38.66,6.48,51L2828.94,816.74l-34.25,34.39-51-6.28-38.51,38.66,12.14,63L2758,905.7l25,24.9-40.69,40.84ZM2758,894.39l-35.67,35.8-8.48-44,32.76-32.89,51,6.28,37-37.15,154.15-154.16-6.48-51L3015,584.36l44.07,8.3-35.67,35.81,36.33,36.19,35.67-35.81,8.47,44-32.76,32.89-51-6.27L2866,853.65l-37,37.16,6.47,51-32.76,32.89-44.06-8.31,35.67-35.81Z" style="fill:#fff"/><path d="M1732.2,991.69c-3.22,0-3.22,5,0,5S1735.42,991.69,1732.2,991.69Z" style="fill:#fff"/><path d="M1728.44,287.16,1497,518.59l183.83,183.83h0l38.83,38.83,183.83,183.83,231.43-231.42ZM1508.33,518.59l220.11-220.12,178.18,178.18-25.82,25.81A120.94,120.94,0,0,0,1843.44,487V442.48h-54.92V487a121,121,0,0,0-37.37,15.46L1719.68,471l-38.83,38.83,31.47,31.47a121,121,0,0,0-15.46,37.37h-44.53v54.92h44.52A121,121,0,0,0,1712.32,671l-25.81,25.81Zm183.83,183.83L1722.57,672l-1.81-2.72A113.13,113.13,0,0,1,1704,628.79l-.65-3.21h-43V586.66h43l.65-3.21A113.13,113.13,0,0,1,1720.76,543l1.82-2.72-30.42-30.42,27.52-27.52,30.41,30.42,2.73-1.82a113.31,113.31,0,0,1,40.49-16.75l3.21-.64v-43h38.92v43l3.21.64a113.19,113.19,0,0,1,40.48,16.75l2.73,1.82,30.41-30.42,27.52,27.52-30.41,30.42,1.81,2.72a113,113,0,0,1,16.75,40.49l.65,3.21h43v38.92h-43l-.65,3.21a113,113,0,0,1-16.75,40.49l-1.81,2.72,30.41,30.42-27.52,27.52-30.41-30.42-2.73,1.82a113.19,113.19,0,0,1-40.48,16.75l-3.21.64v43h-38.92v-43l-3.21-.64a113.31,113.31,0,0,1-40.49-16.75l-2.73-1.82-30.41,30.42Zm33.18,33.17,25.81-25.81a121,121,0,0,0,37.37,15.46v44.52h54.92V725.24a120.94,120.94,0,0,0,37.36-15.46l31.47,31.47,38.84-38.83L1919.64,671a121,121,0,0,0,15.46-37.37h44.52V578.66H1935.1a121,121,0,0,0-15.46-37.37l25.81-25.81,178.18,178.18L1903.51,913.77Z" style="fill:#fff"/><rect x="1636.2" y="629.62" width="8" height="304.56" transform="translate(-72.48 1388.81) rotate(-45)" style="fill:#fff"/><rect x="1656.04" y="738.54" width="8" height="47.03" transform="translate(-52.64 1397.02) rotate(-45)" style="fill:#fff"/><rect x="1719.16" y="801.66" width="8" height="47.03" transform="translate(-78.78 1460.14) rotate(-45)" style="fill:#fff"/><rect x="1782.27" y="864.77" width="8" height="47.03" transform="translate(-104.92 1523.27) rotate(-45)" style="fill:#fff"/><rect x="1845.39" y="927.88" width="8" height="47.03" transform="translate(-131.07 1586.37) rotate(-45)" style="fill:#fff"/><rect x="1592.93" y="675.43" width="8" height="47.03" transform="translate(-26.5 1333.91) rotate(-45)" style="fill:#fff"/><rect x="1529.81" y="612.31" width="8" height="47.03" transform="translate(-0.35 1270.8) rotate(-45)" style="fill:#fff"/><rect x="1466.7" y="549.2" width="8" height="47.03" transform="translate(25.79 1207.68) rotate(-45)" style="fill:#fff"/><path d="M1087.22,371.73a40.26,40.26,0,0,0,0-56.91L1068.4,296l28.16-28.16a29.33,29.33,0,0,1,41.44,0l230,230-59.65-8.21a4.07,4.07,0,0,0-4.54,5l.13,48.26L1878.12,1117l1.17,1.17,48.66.13,0-6.2a4.11,4.11,0,0,0,.42-2.45l-18.41-134L2186.71,699,1725.92,238.22l-2.83-2.83L1449.48,509l-68.41-9.41L1143.66,262.18a37.34,37.34,0,0,0-52.76,0l-28.16,28.16-18.82-18.82a40.3,40.3,0,0,0-56.92,0l-68.34,68.35a61.57,61.57,0,0,0,0,87l13.23,13.23a61.51,61.51,0,0,0,87,0Zm795.39,738.49L1311.88,539.49l-.1-36,606.85,606.84ZM1723.09,246.7,2175.4,699,1908.87,965.54,1456.56,513.23ZM1449,517,1901,969l17.91,130.3L1318.72,499.09ZM975.38,450.09a53.16,53.16,0,0,1-37.84-15.67l-13.23-13.23a53.5,53.5,0,0,1,0-75.66l39.08-39.08,16.18,16.18,5.65-5.66-16.17-16.18,23.61-23.61a32.28,32.28,0,0,1,45.6,0L1057.08,296l-14.65,14.65a17.08,17.08,0,0,0-22.73,1.25l-15.91,15.9a17.06,17.06,0,0,0-1.25,22.74l-14.87,14.87,5.66,5.66,14.87-14.88a17,17,0,0,0,22.73-1.24L1046.84,339a17.09,17.09,0,0,0,1.25-22.73l14.65-14.65,18.82,18.82a32.28,32.28,0,0,1,0,45.6l-23.62,23.61-19-19-5.65,5.66,19,19-39.08,39.07A53.12,53.12,0,0,1,975.38,450.09Zm65.8-116.7-15.9,15.9a9.07,9.07,0,0,1-12.83,0l-3-3a9.05,9.05,0,0,1,0-12.82l15.9-15.9a9.07,9.07,0,0,1,12.83,0l3,3A9.08,9.08,0,0,1,1041.18,333.39Z" style="fill:#fff"/><path d="M1816,682.93a76.8,76.8,0,1,0-54.32-22.5A76.31,76.31,0,0,0,1816,682.93Zm-48.66-125.47a68.83,68.83,0,1,1-20.15,48.66A68.4,68.4,0,0,1,1767.32,557.46Z" style="fill:#fff"/><polygon points="2514.72 436.38 2514.72 436.46 2522.72 436.38 2514.72 436.38" style="fill:#fff"/><path d="M2465.9,501.21a90,90,0,0,1,32.93-14.8l3.22-.73-1.53-52.09-4.51.73a142.7,142.7,0,0,0-67.16,30.18l-3.54,2.88,37.91,35.76ZM2492.79,443l1.07,36.35A98.1,98.1,0,0,0,2464,492.83l-26.46-24.95A134.76,134.76,0,0,1,2492.79,443Z" style="fill:#fff"/><path d="M2519.09,718.68a143.15,143.15,0,0,0,142.36-128.39l.46-4.54-52.09,1.54-.53,3.25a91.43,91.43,0,1,1-167.57-63.69l1.76-2.78-37.91-35.75-2.67,3.7A142.05,142.05,0,0,0,2376,575.57C2376,654.48,2440.18,718.68,2519.09,718.68ZM2406.78,500.45l26.46,24.95a99.43,99.43,0,1,0,183.35,69.69L2653,594a134.66,134.66,0,0,1-133.86,116.66c-74.5,0-135.11-60.61-135.11-135.11A134.07,134.07,0,0,1,2406.78,500.45Z" style="fill:#fff"/><path d="M2534.06,485.37a92.06,92.06,0,0,1,74.19,70l.73,3.21,52.09-1.53-.73-4.51a143.14,143.14,0,0,0-126.53-119.28l-4.54-.46,1.54,52.09Zm117.57,63.9-36.36,1.07a99.53,99.53,0,0,0-76.66-72.27l-1.07-36.36A135.14,135.14,0,0,1,2651.63,549.27Z" style="fill:#fff"/><path d="M5269,1358.14l-73.28-73.28v-33l-39.37-39.37-79.3,79.3,129.15,129.15Zm-112.65-134.33,31.37,31.37v33l70,70-51.48,51.48-117.84-117.83Z" style="fill:#fff"/><polygon points="5283.23 1409.62 5263.1 1389.49 5257.44 1395.15 5283.23 1420.94 5333 1371.17 5333 1359.85 5283.23 1409.62" style="fill:#fff"/><polygon points="5272.76 1251.86 5233.38 1212.49 5207.33 1238.54 5212.99 1244.2 5233.38 1223.81 5264.76 1255.18 5264.76 1288.17 5333 1356.42 5333 1345.11 5272.76 1284.86 5272.76 1251.86" style="fill:#fff"/><polygon points="5284.37 1238.54 5290.03 1244.2 5310.42 1223.81 5333 1246.39 5333 1235.07 5310.42 1212.49 5284.37 1238.54" style="fill:#fff"/><polygon points="0 1345.11 0 1356.42 1.71 1358.14 0 1359.85 0 1371.16 13.03 1358.14 0 1345.11" style="fill:#fff"/><polygon points="8.79 1288.17 78.75 1358.14 27.26 1409.62 7.13 1389.49 1.47 1395.15 27.26 1420.94 90.06 1358.14 16.79 1284.86 16.79 1251.86 0 1235.08 0 1246.39 8.79 1255.18 8.79 1288.17" style="fill:#fff"/><path d="M96.27,860.78A72.74,72.74,0,0,0,0,791.93v8.52A64.77,64.77,0,1,1,0,921.12v8.51a72.72,72.72,0,0,0,96.27-68.85Z" style="fill:#fff"/><path d="M51,994.94A135.36,135.36,0,0,0,98.9,975.08l16.29,16.29,38.9-38.9L137.8,936.18a135.16,135.16,0,0,0,19.85-47.89h23v-55h-23a135.16,135.16,0,0,0-19.85-47.89l16.29-16.29-38.9-38.9L98.9,746.49A135.36,135.36,0,0,0,51,726.63v-23H0V734l.7-.14,3.3-.59V711.62H43v21.67l3.3.59A127.39,127.39,0,0,1,97.1,754.94l2.75,1.92,15.34-15.34,27.58,27.58-15.34,15.34,1.92,2.75A127.53,127.53,0,0,1,150.41,838l.59,3.3h21.67v39H151l-.59,3.3a127.53,127.53,0,0,1-21.06,50.79l-1.92,2.75,15.34,15.34-27.58,27.58L99.85,964.71l-2.75,1.92a127.39,127.39,0,0,1-50.79,21.06l-3.3.59V1010H4V988.28l-3.3-.59-.7-.14V1018H51Z" style="fill:#fff"/><path d="M5283.74,860.78A72.88,72.88,0,0,0,5333,929.63v-8.51a64.74,64.74,0,0,1,0-120.67v-8.51A72.88,72.88,0,0,0,5283.74,860.78Z" style="fill:#fff"/><path d="M5329,726.63a135.36,135.36,0,0,0-47.89,19.86l-16.29-16.29-38.9,38.9,16.3,16.29a135,135,0,0,0-19.86,47.89h-23v55h23a135,135,0,0,0,19.86,47.89l-16.3,16.29,38.9,38.9,16.29-16.29A135.36,135.36,0,0,0,5329,994.94v23h4v-30.4a127.44,127.44,0,0,1-50.09-20.92l-2.75-1.92-15.34,15.34-27.58-27.58,15.34-15.34-1.91-2.75a127.41,127.41,0,0,1-21.07-50.79l-.58-3.3h-21.68v-39H5229l.58-3.3a127.35,127.35,0,0,1,21.07-50.79l1.91-2.75-15.34-15.34,27.58-27.58,15.34,15.34,2.75-1.92A127.29,127.29,0,0,1,5333,734v-30.4h-4Z" style="fill:#fff"/><path d="M5230.12,120.85,5036.18,314.79a44,44,0,0,0,0,62.21l38.59,38.59a44,44,0,0,0,62.2,0l192.94-192.93,3.09-.32v-8l-6.74.69L5131.32,409.93a36,36,0,0,1-50.9,0l-38.59-38.59a36,36,0,0,1,0-50.89l193.94-193.94a36,36,0,0,1,50.9,0L5333,172.84V161.53l-40.68-40.68A44,44,0,0,0,5230.12,120.85Z" style="fill:#fff"/><path d="M5115.57,336.46a19.53,19.53,0,1,0,0,27.61,19.41,19.41,0,0,0,0-27.61Zm-5.66,22a11.52,11.52,0,1,1,0-16.3A11.44,11.44,0,0,1,5109.91,358.41Z" style="fill:#fff"/><path d="M5170.18,281.85a19.53,19.53,0,1,0,0,27.61,19.41,19.41,0,0,0,0-27.61Zm-5.66,22a11.53,11.53,0,1,1,0-16.31A11.48,11.48,0,0,1,5164.52,303.81Z" style="fill:#fff"/><path d="M5224.79,227.24a19.53,19.53,0,1,0,0,27.61,19.41,19.41,0,0,0,0-27.61Zm-5.66,22a11.53,11.53,0,1,1,0-16.31A11.48,11.48,0,0,1,5219.13,249.2Z" style="fill:#fff"/><path d="M5279.39,172.63a19.52,19.52,0,1,0,0,27.61,19.37,19.37,0,0,0,0-27.61Zm-5.65,22a11.53,11.53,0,1,1,0-16.31A11.48,11.48,0,0,1,5273.74,194.59Z" style="fill:#fff"/><polygon points="0 161.54 0 172.85 37.6 210.45 0 214.3 0 222.34 55.16 216.7 0 161.54" style="fill:#fff"/><polygon points="3484.98 74.81 3563.68 153.5 3705.54 11.64 3693.91 0 3682.59 0 3694.23 11.64 3563.68 142.19 3496.3 74.81 3563.11 7.99 3563.17 0 3555.17 0 3555.14 4.66 3509.46 50.33 3459.14 0 3447.82 0 3503.81 55.98 3484.98 74.81" style="fill:#fff"/><polygon points="3513.71 23.77 3536.59 0.88 3535.71 0 3526.16 0 3508.05 18.11 3513.71 23.77" style="fill:#fff"/><path d="M3591.21,2935l-50.85-50.85h-67.29l-70.57,70.56,45.32,45.33h11.32l-45.33-45.33,60.91-60.91,32.45,32.45,32-32,46.39,46.39-30.17,30.18-.21,29.21h8l.18-25.88,46.68-46.68,72.56,72.56h11.32L3610,2916.13Zm-84-20.06-22.79-22.79H3530Z" style="fill:#fff"/><rect x="3452.4" y="2949.37" width="43.91" height="8" transform="translate(-1070.74 3321.7) rotate(-45)" style="fill:#fff"/><rect x="3472" y="2959.87" width="87.82" height="8" transform="translate(-1065.99 3354.22) rotate(-45)" style="fill:#fff"/><polygon points="3526.16 3000 3535.71 3000 3530.94 2995.23 3526.16 3000" style="fill:#fff"/><path d="M3194,1981.35l60.19-60.19,29,29,44.82-44.82-189.64-189.64-44.82,44.82,29,29-60.19,60.19a93.26,93.26,0,0,0-23.68,91.52,93.26,93.26,0,0,0-91.52,23.68L2886.86,2025l-29-29-44.82,44.82,189.64,189.64,44.82-44.82-29-29,60.19-60.19a93.26,93.26,0,0,0,23.68-91.52A93.26,93.26,0,0,0,3194,1981.35Zm-89.16-220.86,33.5-33.5,178.32,178.32-33.5,33.5Zm-68.58,425.22-33.5,33.5-178.32-178.32,33.5-33.5,23.31,23.31,131.7,131.7Zm56.16-185.57a85.23,85.23,0,0,1-19.28,90.75l-60.19,60.2L2892.51,2030.7l60.2-60.19a85.26,85.26,0,0,1,90.76-19.28l8.38,3.23-3.22-8.39a85.26,85.26,0,0,1,19.28-90.76l60.19-60.19,120.39,120.38-60.2,60.19a85.24,85.24,0,0,1-90.76,19.28l-8.39-3.22Z" style="fill:#fff"/><path d="M2930.13,2023.15l-6,6,90.32,90.33,6-6a63.87,63.87,0,0,0-90.32-90.32Zm84.66,84.67-.34.34-79-79,.35-.34a55.86,55.86,0,1,1,79,79Z" style="fill:#fff"/><path d="M3174.9,1959l6-6-90.33-90.32-6,6A63.87,63.87,0,0,0,3174.9,1959Zm-84.66-5.65a55.92,55.92,0,0,1,0-79l.34-.35,79,79-.34.35A55.94,55.94,0,0,1,3090.24,1953.37Z" style="fill:#fff"/><path d="M2980.08,1685V1315c0-19.35-49.85-29.47-99.1-29.47s-99.11,10.12-99.11,29.47V1685c0,19.35,49.86,29.47,99.11,29.47S2980.08,1704.38,2980.08,1685ZM2881,1293.5c55.61,0,91.1,12.71,91.1,21.47s-35.49,21.47-91.1,21.47-91.11-12.71-91.11-21.47S2825.36,1293.5,2881,1293.5Zm-91.11,33.85c16,11.26,53.73,17.09,91.11,17.09s75.08-5.83,91.1-17.09v40.49c0,8.75-35.49,21.47-91.1,21.47s-91.11-12.72-91.11-21.47Zm0,52.86c16,11.27,53.73,17.1,91.11,17.1s75.08-5.83,91.1-17.1v40.49c0,8.76-35.49,21.48-91.1,21.48s-91.11-12.72-91.11-21.48Zm0,52.87c16,11.27,53.73,17.1,91.11,17.1s75.08-5.83,91.1-17.1v40.49c0,8.75-35.49,21.47-91.1,21.47s-91.11-12.72-91.11-21.47Zm0,52.86c16,11.27,53.73,17.1,91.11,17.1s75.08-5.83,91.1-17.1v40.49c0,8.76-35.49,21.48-91.1,21.48s-91.11-12.72-91.11-21.48Zm0,52.87c16,11.27,53.73,17.1,91.11,17.1s75.08-5.83,91.1-17.1v40.49c0,8.75-35.49,21.47-91.1,21.47s-91.11-12.72-91.11-21.47Zm0,52.87c16,11.26,53.73,17.09,91.11,17.09s75.08-5.83,91.1-17.09v40.48c0,8.76-35.49,21.48-91.1,21.48s-91.11-12.72-91.11-21.48Zm0,93.35v-40.49c16,11.27,53.73,17.1,91.11,17.1s75.08-5.83,91.1-17.1V1685c0,8.76-35.49,21.47-91.1,21.47S2789.87,1693.79,2789.87,1685Z" style="fill:#fff"/><path d="M2594.9,1496.91c-49.25,0-99.11,10.12-99.11,29.47V1685c0,19.35,49.86,29.47,99.11,29.47s99.1-10.12,99.1-29.47v-158.6C2694,1507,2644.15,1496.91,2594.9,1496.91ZM2686,1685c0,8.75-35.49,21.47-91.1,21.47s-91.11-12.72-91.11-21.47v-40.49c16,11.27,53.74,17.1,91.11,17.1s75.08-5.83,91.1-17.1Zm0-52.87c0,8.76-35.49,21.48-91.1,21.48s-91.11-12.72-91.11-21.48v-40.49c16,11.27,53.74,17.1,91.11,17.1s75.08-5.83,91.1-17.1Zm0-52.86c0,8.75-35.49,21.47-91.1,21.47s-91.11-12.72-91.11-21.47v-40.49c16,11.26,53.74,17.1,91.11,17.1s75.08-5.84,91.1-17.1Zm-91.1-31.39c-55.62,0-91.11-12.72-91.11-21.48s35.49-21.47,91.11-21.47,91.1,12.71,91.1,21.47S2650.51,1547.86,2594.9,1547.86Z" style="fill:#fff"/><path d="M2308.82,1714.45c49.25,0,99.1-10.12,99.1-29.47v-52.87c0-19.35-49.85-29.47-99.1-29.47s-99.11,10.12-99.11,29.47V1685C2209.71,1704.33,2259.57,1714.45,2308.82,1714.45Zm0-103.81c55.61,0,91.1,12.72,91.1,21.47s-35.49,21.48-91.1,21.48-91.11-12.72-91.11-21.48S2253.2,1610.64,2308.82,1610.64Zm-91.11,33.85c16,11.27,53.74,17.1,91.11,17.1s75.08-5.83,91.1-17.1V1685c0,8.75-35.49,21.47-91.1,21.47s-91.11-12.72-91.11-21.47Z" style="fill:#fff"/><path d="M3062,934.89l418.46-165.83,28,17.72L3405.4,827.62l2.95,7.44,107.85-42.74-.35-.88,17.52,11.08,1.73,22.31-230.79,91.46,2.94,7.44,228.49-90.55,6.51,84.1L3621,870.73l25.39,19.65,26.29,20.35-233.07,92.36,3,7.44L3680,916.42l.41.32h0l17.78,13.76,130-258-389.49,70.17,33.37,21.09-413,163.69ZM3541.41,802.8l170.94-70.2L3566.1,828.25l2.2,1.7-20.1,60.53Zm11.5,98.89L3575,835.14l39.18,30.32Zm-92.53-154.78,353.47-63.68-118.41,235-38.67-29.92-76.89-59.52L3752,716.25l-3.71-7-210.66,86.52Z" style="fill:#fff"/><rect x="3261.94" y="1054.83" width="95.72" height="8" transform="translate(-157.28 1293.86) rotate(-21.62)" style="fill:#fff"/><rect x="3029.88" y="1137.89" width="95.72" height="8" transform="translate(-204.21 1214.21) rotate(-21.62)" style="fill:#fff"/><path d="M330.63,1139.6l-42.06,14.26L253,1127.3l.57,44.41-36.26,25.64,42.41,13.18L272.87,1253l25.65-36.27,44.41.57-26.57-35.59Zm-3.81,69.45-32.41-.42-18.71,26.46-9.62-30.95-30.95-9.62,26.46-18.71-.41-32.41,26,19.39,30.7-10.41-10.41,30.69Z" style="fill:#fff"/><path d="M461.45,1270.42l-42.06,14.26-35.6-26.56.57,44.41-36.26,25.64,42.41,13.18,13.18,42.41,25.65-36.26,44.41.57-26.57-35.59Zm-3.81,69.44-32.41-.41-18.71,26.46-9.62-31L366,1325.34l26.46-18.71-.41-32.41,26,19.39,30.69-10.41-10.4,30.69Z" style="fill:#fff"/><path d="M578,1443.29l14.26-42.06L550.2,1415.5l-35.59-26.57.57,44.41L478.92,1459l42.41,13.18,13.18,42.41,25.64-36.26,44.41.57Zm-22,27-18.71,26.46-9.62-31-31-9.62,26.46-18.71-.41-32.41,26,19.38,30.69-10.4-10.41,30.69,19.39,26Z" style="fill:#fff"/><polygon points="2294.93 1146.56 2436.7 1288.34 2610.48 1114.56 2468.71 972.78 2414.7 1026.79 2420.36 1032.45 2468.71 984.1 2599.17 1114.56 2436.7 1277.02 2306.24 1146.56 2357.46 1095.34 2351.8 1089.69 2294.93 1146.56" style="fill:#fff"/><path d="M2312.93,1079.22l5.66-5.65-55-55,22.32-22.32,129.92,129.92.41.41,37.51,20.34.54.24a11.82,11.82,0,0,0,4.07.73,11.74,11.74,0,0,0,11-15.76l-20.58-38L2303.38,948.73a23,23,0,0,0-32.5,32.5l9.35,9.35-28,28Zm129.31,19.69,19.63,36.19a3.73,3.73,0,0,1-4.62,4.62l-36.19-19.63L2320.47,1019.5l21.18-21.18Zm-165.7-123.34a15,15,0,0,1,21.18-21.18L2336,992.66l-21.18,21.19Z" style="fill:#fff"/><rect x="2506.87" y="1017.11" width="8" height="110.56" transform="translate(-22.88 2089.55) rotate(-45)" style="fill:#fff"/><rect x="2497.33" y="1093.38" width="8" height="55.28" transform="translate(-60.06 2097.05) rotate(-45)" style="fill:#fff"/><rect x="2481.32" y="1154.01" width="8" height="18.33" transform="translate(-94.53 2098.12) rotate(-45)" style="fill:#fff"/><rect x="2439.17" y="1151.55" width="8" height="55.28" transform="translate(-118.23 2072.94) rotate(-45)" style="fill:#fff"/><rect x="2390.54" y="1133.45" width="8" height="110.56" transform="translate(-139.21 2041.37) rotate(-45)" style="fill:#fff"/><path d="M2905.08,107.2l-54,18L2718.61,257.65l163.44,163.43L3013.14,290l56-18.68,18.68-56L3219,84.17,3134.79,0h-11.31l84.17,84.17L3080.87,211l-16.6,49.79L2912.82,109.28l17.26-51.79L2987.57,0h-11.32l-53.16,53.16Zm153.54,159.2L3008.82,283,2882.05,409.77,2729.92,257.65,2855.36,132.2l51.8-17.26Z" style="fill:#fff"/><rect x="3031.61" y="122.8" width="136.36" height="8" transform="translate(818.24 2229.02) rotate(-45)" style="fill:#fff"/><rect x="3002.88" y="94.07" width="136.36" height="8" transform="translate(830.15 2200.29) rotate(-45)" style="fill:#fff"/><rect x="2985.16" y="91.95" width="61.09" height="8" transform="translate(815.43 2160.52) rotate(-45)" style="fill:#fff"/><rect x="3059.66" y="29.91" width="36.17" height="8" transform="translate(877.49 2186.25) rotate(-45)" style="fill:#fff"/><polygon points="2968.2 91.64 3059.84 0 3048.53 0 2962.55 85.98 2968.2 91.64" style="fill:#fff"/><rect x="2930.63" y="267.21" width="49.52" height="8" transform="translate(673.81 2169.18) rotate(-45)" style="fill:#fff"/><rect x="2870.19" y="330.97" width="42.86" height="8" transform="translate(609.93 2142.61) rotate(-45)" style="fill:#fff"/><rect x="2827.76" y="269.18" width="136.36" height="8" transform="translate(655.03 2127.75) rotate(-45)" style="fill:#fff"/><rect x="2799.03" y="240.45" width="136.36" height="8" transform="translate(666.94 2099.03) rotate(-45)" style="fill:#fff"/><rect x="2770.3" y="211.71" width="136.36" height="8" transform="translate(678.84 2070.29) rotate(-45)" style="fill:#fff"/><rect x="2205.5" y="2753.52" width="305.63" height="8" transform="translate(-1259.13 2475.25) rotate(-45)" style="fill:#fff"/><polygon points="2354.07 2975.05 2379.03 3000 2390.34 3000 2359.73 2969.39 2354.07 2975.05" style="fill:#fff"/><polygon points="2221.36 2989.94 2215.7 2984.28 2199.98 3000 2211.3 3000 2221.36 2989.94" style="fill:#fff"/><polygon points="2976.25 3000 2987.57 3000 3055.52 2932.05 3123.48 3000 3134.79 3000 3055.52 2920.73 2976.25 3000" style="fill:#fff"/><polygon points="3058.97 2989.56 3048.53 3000 3059.84 3000 3064.63 2995.22 3058.97 2989.56" style="fill:#fff"/><path d="M2061,1800.61l-344.7-344.71-95.35,95.36,344.7,344.7Zm-344.7-333.39,19.53,19.52-46,46,5.66,5.65,46-45.95,18.49,18.48-26.51,26.51,5.66,5.66,26.51-26.51,18.48,18.49-26.5,26.51,5.65,5.65,26.51-26.5,18.49,18.48-26.51,26.51,5.66,5.66,26.51-26.51,18.48,18.49-26.5,26.51,5.65,5.65L1838,1589l18.49,18.48-46,46,5.66,5.66,46-46,18.49,18.49-26.5,26.51,5.65,5.65,26.51-26.51,18.49,18.49-26.51,26.51,5.66,5.66,26.5-26.51,18.49,18.49-26.5,26.5,5.65,5.66,26.51-26.51,18.49,18.49-26.51,26.51,5.66,5.66,26.5-26.51,18.49,18.49-46,46,5.66,5.66,46-46,18.49,18.49-26.51,26.51,5.66,5.65L2007,1758l18.49,18.49L1999,1803l5.66,5.66,26.51-26.51,18.47,18.48-84,84-333.39-333.39Z" style="fill:#fff"/><rect x="1909.77" y="1729.02" width="8" height="136.58" transform="translate(-710.36 1879.66) rotate(-45)" style="fill:#fff"/><rect x="1809.68" y="1668.04" width="8" height="58.36" transform="translate(-668.9 1779.6) rotate(-45)" style="fill:#fff"/><path d="M2642.17,2836.47h64.63V2693.4h-64.63Zm8-135.07h48.63v127.07h-48.63Z" style="fill:#fff"/><path d="M2755.43,2836.47h64.63V2645.28h-64.63Zm8-183.19h48.63v175.19h-48.63Z" style="fill:#fff"/><path d="M2868.69,2836.47h64.63v-258.3h-64.63Zm8-250.3h48.63v242.3h-48.63Z" style="fill:#fff"/><path d="M2602.71,2686.81l-39.47-39.46,64.05-64,61.3,61.31L2900.8,2432.4v48.21h8v-61.87h-61.87v8h48.21l-206.55,206.55-61.3-61.3-69.71,69.7-84-84-315.1,315.1L2285.69,3000h3.83ZM2473.57,2569l78.36,78.36-46.48,46.48L2292,2907.3l5.65,5.65,212.73-212.72,47.22-47.23,33.81,33.81L2287.6,2990.6l-117.81-117.82Z" style="fill:#fff"/><path d="M1476.17,1216a45.73,45.73,0,1,0-32.33,13.39A45.79,45.79,0,0,0,1476.17,1216Zm-70.05-32.33a37.73,37.73,0,1,1,11.05,26.67A37.49,37.49,0,0,1,1406.12,1183.67Z" style="fill:#fff"/><path d="M1543.71,1244.48a115.7,115.7,0,0,0,13.74-33.18h25V1156h-25a115.7,115.7,0,0,0-13.74-33.18l17.69-17.69-39.06-39.06-17.69,17.69a115.7,115.7,0,0,0-33.18-13.74v-25h-55.26v25A115.7,115.7,0,0,0,1383,1083.8l-17.69-17.69-154.13,154.13,5.66,5.66,148.47-148.48,16.58,16.58,2.72-1.76a108.07,108.07,0,0,1,36.41-15.08l3.16-.67V1053h39.26v23.46l3.16.67a108.07,108.07,0,0,1,36.41,15.08l2.71,1.76,16.59-16.58,27.75,27.75-16.58,16.58,1.76,2.72a108.07,108.07,0,0,1,15.08,36.41l.67,3.16h23.46v39.26H1551l-.68,3.16a107.85,107.85,0,0,1-15.07,36.41l-1.76,2.72,16.58,16.58L1237,1575.27l5.65,5.66,318.76-318.76Z" style="fill:#fff"/><path d="M1271.71,1359.53l76-76,17.67,17.67,17.69-17.69a115.7,115.7,0,0,0,33.18,13.74v25h55.26v-28.22h-8v20.22h-39.26v-23.46l-3.16-.68a107.85,107.85,0,0,1-36.41-15.07l-2.72-1.76-16.58,16.58-27.75-27.75,16.58-16.58-1.76-2.72a107.85,107.85,0,0,1-15.07-36.41l-.68-3.16H1313.2V1164h20.22v-8H1305.2v55.26h25a115.7,115.7,0,0,0,13.74,33.18l-17.69,17.69L1342,1277.9l-76,76Z" style="fill:#fff"/><path d="M4199.15,1836.61a68.81,68.81,0,1,0,68.81,68.81A68.88,68.88,0,0,0,4199.15,1836.61Zm0,129.62a60.81,60.81,0,1,1,60.81-60.81A60.88,60.88,0,0,1,4199.15,1966.23Z" style="fill:#fff"/><polygon points="4203.15 1856.59 4195.15 1856.59 4195.15 1907.32 4224.2 1930.86 4229.24 1924.64 4203.15 1903.51 4203.15 1856.59" style="fill:#fff"/><path d="M4029.26,1905.42a68.81,68.81,0,1,0-68.81,68.81A68.88,68.88,0,0,0,4029.26,1905.42Zm-129.62,0a60.81,60.81,0,1,1,60.81,60.81A60.88,60.88,0,0,1,3899.64,1905.42Z" style="fill:#fff"/><polygon points="3964.45 1909.42 3988.03 1909.42 3988.03 1901.42 3956.45 1901.42 3956.45 1955.14 3964.45 1955.14 3964.45 1909.42" style="fill:#fff"/><path d="M4111.11,2085a68.81,68.81,0,1,0-68.81,68.81A68.89,68.89,0,0,0,4111.11,2085Zm-68.81,60.81a60.81,60.81,0,1,1,60.81-60.81A60.88,60.88,0,0,1,4042.3,2145.84Z" style="fill:#fff"/><polygon points="4006.99 2057.04 4036.94 2085.46 4022.08 2104.94 4028.44 2109.79 4047.65 2084.6 4012.5 2051.24 4006.99 2057.04" style="fill:#fff"/><rect x="4159.22" y="1716.52" width="31.5" height="8" transform="translate(1130.22 5055.2) rotate(-70)" style="fill:#fff"/><path d="M4252.29,1714.9h70.18v-8h-81.7v7.61l-1.1,1.79,1.1.69v71.6h8v-66.43c81.84,54.72,130.37,145.16,130.37,244.08,0,161.89-131.71,293.6-293.61,293.6s-293.6-131.71-293.6-293.6a295,295,0,0,1,119.34-236.32l-4.75-6.44a304.39,304.39,0,0,0-89.18,104.64,301.64,301.64,0,1,0,569.8,138.12,301.35,301.35,0,0,0-134.85-251.34Z" style="fill:#fff"/><polygon points="4214.69 2065.69 4089.53 1964.33 4089.53 1742.04 4081.53 1742.04 4081.53 1968.15 4209.65 2071.91 4214.69 2065.69" style="fill:#fff"/><rect x="4081.53" y="2211.98" width="8" height="31.5" style="fill:#fff"/><rect x="4170.97" y="2196.21" width="8" height="31.5" transform="matrix(0.94, -0.34, 0.34, 0.94, -504.76, 1561.39)" style="fill:#fff"/><rect x="3992.1" y="1704.77" width="8" height="31.5" transform="matrix(0.94, -0.34, 0.34, 0.94, -347.46, 1470.57)" style="fill:#fff"/><rect x="4249.62" y="2150.8" width="8" height="31.5" transform="translate(-397.46 3241.11) rotate(-40)" style="fill:#fff"/><rect x="3913.45" y="1750.18" width="8" height="31.5" transform="translate(-218.59 2931.29) rotate(-40)" style="fill:#fff"/><rect x="4307.99" y="2081.24" width="8" height="31.5" transform="translate(339.87 4782.66) rotate(-60)" style="fill:#fff"/><rect x="3855.08" y="1819.75" width="8" height="31.5" transform="translate(339.88 4259.69) rotate(-60)" style="fill:#fff"/><rect x="4339.05" y="1995.9" width="8" height="31.5" transform="translate(1607.81 5939.4) rotate(-80)" style="fill:#fff"/><rect x="3824.02" y="1905.08" width="8" height="31.5" transform="translate(1271.62 5357.13) rotate(-80)" style="fill:#fff"/><rect x="4327.3" y="1916.83" width="31.5" height="8" transform="translate(-267.57 783.34) rotate(-10)" style="fill:#fff"/><rect x="3812.27" y="2007.65" width="31.5" height="8" transform="translate(-291.17 695.31) rotate(-10)" style="fill:#fff"/><rect x="4296.24" y="1831.49" width="31.5" height="8" transform="translate(-340.03 2402.05) rotate(-30)" style="fill:#fff"/><rect x="3843.33" y="2092.99" width="31.5" height="8" transform="translate(-531.47 2210.62) rotate(-30)" style="fill:#fff"/><rect x="3901.7" y="2162.55" width="31.5" height="8" transform="translate(-260.34 3774.81) rotate(-50)" style="fill:#fff"/><rect x="3980.35" y="2207.96" width="31.5" height="8" transform="translate(550.87 5210.62) rotate(-70)" style="fill:#fff"/><path d="M1347.41,1810.82l-34.94,34.94,6.38,83,75.74,116.34,116.34,75.74,83,6.38,34.94-34.94-77.3-77.3-37.74,37.75L1387,1925.86l37.75-37.74ZM1513.8,2064l37.74-37.74,66,66-26.69,26.68-77.26-5.94-113.21-73.7-73.7-113.21-5.94-77.26,26.68-26.69,66,66-37.74,37.74Z" style="fill:#fff"/><path d="M1123.38,1717.83l-105.65,105.65,105.65,105.66v-65.66h96v-80h-96Zm88,73.65v64h-96v54.34L1029,1823.48l86.34-86.34v54.34Z" style="fill:#fff"/><path d="M1793.1,2002.72h-96v80h96v65.65l105.65-105.65L1793.1,1937.07Zm8-46.34,86.34,86.34-86.34,86.34v-54.34h-96v-64h96Z" style="fill:#fff"/><path d="M117.3,2358.56H496a142.21,142.21,0,0,0,216.73,117.05l40.63,40.63-15.2,15.19,122.64,122.64,76.8-76.81L814.92,2454.63l-15.2,15.2-40.65-40.66c33.77-54.78,26.94-127.68-20.5-175.13a141.22,141.22,0,0,0-96.52-41.58V1928.89H563v304.92A143,143,0,0,0,537.53,2254,141.15,141.15,0,0,0,496,2350.56H493.5V2074.25H414.4v276.31H345V2166.64h-79.1v183.92H196.39V2212.41H117.3v138.15H47.84V2140.23H0v8H39.84v202.33H0v8H117.3Zm697.62,107.38,111.32,111.32-65.49,65.49L749.43,2531.43l9.54-9.54h0l13.6-13.6Zm-20.86,9.54L759,2510.58l-39.47-39.46q5-3.54,9.79-7.53l.2-.18,2.06-1.76.64-.57,1.68-1.5,1.1-1c.42-.39.84-.77,1.25-1.17.72-.69,1.44-1.39,2.15-2.1l.2-.19q1.2-1.2,2.37-2.43c.3-.31.59-.63.88-.94.47-.5.94-1,1.4-1.52s.72-.79,1.07-1.19l1.14-1.29,1.14-1.33,1-1.19c.4-.47.79-.95,1.17-1.42s.62-.77.92-1.16l1.15-1.46c.34-.44.67-.89,1-1.33s.79-1,1.17-1.57q.82-1.12,1.62-2.25ZM571,1936.89h63.09v275.57a141.3,141.3,0,0,0-63.09,16.7ZM543.18,2259.7a134.17,134.17,0,0,1,189.73,0c45.7,45.69,51.47,116.42,17.33,168.45l-.7,1c-.37.57-.75,1.13-1.14,1.69l-1,1.46-.9,1.26c-.46.63-.93,1.25-1.4,1.87l-.64.84c-.57.75-1.15,1.48-1.73,2.21-.14.16-.27.33-.4.49-.66.81-1.33,1.61-2,2.41l-.23.27c-.69.82-1.41,1.62-2.12,2.42l-.19.22c-.68.75-1.37,1.49-2.07,2.23l-.33.36c-.62.66-1.26,1.31-1.9,1.95-.18.19-.36.38-.55.56l-.24.24q-1.11,1.11-2.25,2.19l-.33.31c-.75.71-1.51,1.41-2.28,2.11l-.06,0a135.28,135.28,0,0,1-16.7,12.82l-1.95,1.27A134.19,134.19,0,0,1,543.18,2259.7ZM422.4,2082.25h63.1v268.31H422.4Zm-148.55,92.39H337v175.92h-63.1ZM125.3,2220.41h63.09v130.15H125.3Z" style="fill:#fff"/><rect x="570.77" y="1807.82" width="67.22" height="8" transform="translate(-978.75 743.34) rotate(-37.54)" style="fill:#fff"/><rect x="523.97" y="1856.09" width="35.16" height="8" transform="translate(-1021.16 715.04) rotate(-37.54)" style="fill:#fff"/><polygon points="148.49 2167.12 506.77 1891.86 501.9 1885.52 148.43 2157.08 8.83 2052.33 0 2056.18 0 2064.9 7.76 2061.52 148.49 2167.12" style="fill:#fff"/><path d="M638.05,2453.22a98.68,98.68,0,0,0,26.25-193.79v-1.21h-4.91a99.58,99.58,0,0,0-21.34-2.31,98.66,98.66,0,0,0,0,197.31Zm-90.65-98.65A90.56,90.56,0,0,1,638.05,2264a91.87,91.87,0,0,1,18.25,1.85v114.91H551.21A91,91,0,0,1,547.4,2354.57Zm116.9,34.15v-120.9A90.62,90.62,0,1,1,554,2388.72Z" style="fill:#fff"/><path d="M824.14,1613A39.59,39.59,0,1,0,841,1684.24h0A39.6,39.6,0,0,0,824.14,1613Zm12.15,64.72h0a31.6,31.6,0,1,1,7.15-44.11A31.64,31.64,0,0,1,836.29,1677.75Z" style="fill:#fff"/><path d="M840.12,1566.55a231.86,231.86,0,0,0-88.9,39.25,235.47,235.47,0,0,0-40.15,36.66L662.9,1641l-49,108,66-47.59,21.46,29.76L647.51,1770l4.68,6.49,53.81-38.8,21.46,29.77-66,47.59,118-12.4,13.78-46.15a235.43,235.43,0,0,0,47.47-26.54A231.89,231.89,0,0,0,906,1658c15.43-26.88,24.64-56.46,26.66-85.55l.23-3.32-3.22-.83C901.47,1561,870.49,1560.41,840.12,1566.55ZM678,1692.87l-44.45,32.05L668,1649.11l36.6,1.15A219.76,219.76,0,0,0,678,1692.87Zm95.3,102.35-82.79,8.7,44.43-32a220.47,220.47,0,0,0,48.84-11.74ZM836,1723.44c-30.54,22-65.51,36-101.28,40.42L712.49,1733l41.23-29.72-4.68-6.49-41.23,29.72-22.26-30.87c15.52-32.53,39.8-61.31,70.35-83.33,50.53-36.44,113.28-50.17,168.55-37.06C919.43,1631.81,886.57,1687,836,1723.44Z" style="fill:#fff"/><polygon points="4670.06 2353.82 5333 2064.9 5333 2056.18 4666.87 2346.49 4670.06 2353.82" style="fill:#fff"/><path d="M5309.75,2350.56V2148.23H5333v-8h-31.25v210.33h-69.46V2171.78H5153.2v178.78h-222v8H5333v-8Zm-85.46,0H5161.2V2179.78h63.09Z" style="fill:#fff"/><path d="M1427.08,2539l-5.65-5.65-13.09,13.09c-13.95-11.92-31.95-14.13-41.51-4.57l-4.91,4.92c-9.56,9.56-7.36,27.55,4.56,41.5l-32,32-20.21-20.21-5.66,5.66,20.21,20.2-15.13,15.13,5.66,5.66,15.24-15.24a43.86,43.86,0,0,0,20.05,10.06,31.72,31.72,0,0,0,5.79.55c6.24,0,11.68-2.07,15.66-6l6.05-6.05c9.56-9.56,7.35-27.55-4.56-41.5l30.88-30.88,20.2,20.2,5.66-5.66-20.2-20.2ZM1379.76,2610c1.13,6,0,11.07-3.29,14.32l-6,6c-3.25,3.25-8.33,4.42-14.33,3.3a35.5,35.5,0,0,1-15.85-7.88l31.64-31.64A35.4,35.4,0,0,1,1379.76,2610Zm-7.61-27.43a35.58,35.58,0,0,1-7.87-15.85c-1.12-6,0-11.08,3.3-14.32l4.91-4.92c6.4-6.39,19.59-4.17,30.17,4.58Z" style="fill:#fff"/><path d="M1442,2519.6l-.62-.63a99.84,99.84,0,0,0-42.25-25.2l90-90-5.66-5.66-93.39,93.39a100.44,100.44,0,1,0,80.75,98.48c0-2.55-.1-5.09-.28-7.61l77.7-77.71-5.66-5.65-73.3,73.3a99.51,99.51,0,0,0-21.88-46.81l268.32-268.32-5.66-5.66Zm20.81,70.41a92.39,92.39,0,1,1-27.08-65.39A91.86,91.86,0,0,1,1462.85,2590Z" style="fill:#fff"/><rect x="1577.48" y="2442.44" width="46.77" height="8" transform="translate(-1261.06 1848.76) rotate(-45)" style="fill:#fff"/><path d="M401.44,2946.38v-36.85H722v42.59l39.32,39.32H1138.7l81.91-81.91H1267v-8h-46.34l-81.91-81.91H761.32L722,2858.94v42.59H393.44v44.85H265.31V3000h8v-45.62H521.56V3000h8v-53.62Zm776.66-76,35.19,35.19-35.19,35.19Zm-8-8v86.38l-32.87,32.88-32.79-32.79v-86.56l32.79-32.79Zm-281.33-34.72h239l-29,29h-210Zm0,37h207.67v36.93H888.77Zm0,44.93h207.67v36.85H888.77Zm0,44.85h209.92l29.07,29.06h-239Zm-46-126.76h38v155.82h-38ZM730,2862.25l34.63-34.63h70.14v155.82H764.63L730,2948.81Z" style="fill:#fff"/><polygon points="305.51 2979.4 305.51 3000 313.51 3000 313.51 2987.4 413.54 2987.4 413.54 3000 421.54 3000 421.54 2979.4 305.51 2979.4" style="fill:#fff"/><path d="M1660.13,2944.4a38.87,38.87,0,1,0-27.48-11.39A38.62,38.62,0,0,0,1660.13,2944.4Zm-21.82-60.69a30.87,30.87,0,1,1-9,21.82A30.66,30.66,0,0,1,1638.31,2883.71Z" style="fill:#fff"/><rect x="1656.13" y="2997.23" width="8" height="2.77" style="fill:#fff"/><path d="M1775,2790.71a162.38,162.38,0,0,0-229.64,0c-56.91,56.91-62.65,145.89-17.26,209.29h10a154,154,0,0,1-32.14-90.47h25.28a128.15,128.15,0,0,0,37.73,87.25q1.65,1.65,3.35,3.22h12.22a123.07,123.07,0,0,1-9.92-8.88,120.19,120.19,0,0,1-35.37-81.59h29.27v-8h-29.27a121,121,0,0,1,117-117v29.27h8v-29.27a121,121,0,0,1,117,117h-29.27v8h29.27a121,121,0,0,1-45.3,90.47H1748q1.7-1.58,3.36-3.22a128.14,128.14,0,0,0,37.72-87.25h25.29a154,154,0,0,1-32.15,90.47h10C1837.61,2936.6,1831.86,2847.62,1775,2790.71Zm-118.82-14.15a129,129,0,0,0-125,125h-25.28a154.25,154.25,0,0,1,150.25-150.33Zm133,125a129,129,0,0,0-125-125V2751.2a154.25,154.25,0,0,1,150.26,150.33Z" style="fill:#fff"/><path d="M1660.13,2978.36a72.83,72.83,0,1,0-51.52-21.31A72.64,72.64,0,0,0,1660.13,2978.36Zm-45.86-118.7a64.87,64.87,0,1,1-19,45.87A64.43,64.43,0,0,1,1614.27,2859.66Z" style="fill:#fff"/><rect x="1295.58" y="2901.53" width="48" height="8" style="fill:#fff"/><rect x="1372.21" y="2901.53" width="48" height="8" style="fill:#fff"/><rect x="1448.85" y="2901.53" width="48" height="8" style="fill:#fff"/><polygon points="529.56 312.55 529.56 0 521.56 0 521.56 304.55 273.31 304.55 273.31 0 265.31 0 265.31 312.55 529.56 312.55" style="fill:#fff"/><polygon points="421.54 95.43 421.54 0 413.54 0 413.54 87.43 313.51 87.43 313.51 0 305.51 0 305.51 95.43 421.54 95.43" style="fill:#fff"/><rect x="304.48" y="132.65" width="185.91" height="8" style="fill:#fff"/><rect x="304.48" y="177.87" width="185.91" height="8" style="fill:#fff"/><rect x="304.48" y="223.09" width="185.91" height="8" style="fill:#fff"/><rect x="304.48" y="268.31" width="185.91" height="8" style="fill:#fff"/><path d="M1660.13,67.91A161.3,161.3,0,0,0,1775,20.35,164.45,164.45,0,0,0,1792.24,0h-10a158.65,158.65,0,0,1-13,14.7,153.33,153.33,0,0,1-105.17,45.16V34.44A128.58,128.58,0,0,0,1748,0H1735.8a120.7,120.7,0,0,1-71.67,26.44V0h-8V26.44A120.66,120.66,0,0,1,1584.46,0h-12.22a128.58,128.58,0,0,0,83.89,34.44V59.86A153.28,153.28,0,0,1,1551,14.7,158.65,158.65,0,0,1,1538,0h-10a165.32,165.32,0,0,0,17.29,20.35A161.32,161.32,0,0,0,1660.13,67.91Z" style="fill:#fff"/><path d="M3417.16,1366.44l-96.54,47.49,23.44-105-3.91-.87a115.84,115.84,0,1,0,78.78,62ZM3314.9,1529.12a107.91,107.91,0,1,1,19.59-214l-25.32,113.41,104.28-51.3a106.73,106.73,0,0,1,9.36,44A108,108,0,0,1,3314.9,1529.12Z" style="fill:#fff"/><path d="M3451.49,1330.13a115.36,115.36,0,0,0-78.77-62l-3.91-.87-27.07,121.29,111.52-54.85Zm-98.31,43.9,21.69-97.13a107.28,107.28,0,0,1,67.61,53.2Z" style="fill:#fff"/><path d="M4458.45,859.76h524.37V612.56H4458.45Zm8-239.2h501.28l-92.81,92.82-62.28-62.28-35,35-24.52-24.52L4669,745.75,4645.1,721.9l-44.61,44.61-87-87-47,47Zm0,117.26,47-47,87,87,44.61-44.62L4669,757.07l84.17-84.18,24.52,24.51,35-35,62.28,62.28,99.9-99.89v227H4466.45Z" style="fill:#fff"/><path d="M4629.29,944.69h-4.39a60.5,60.5,0,0,0-60.44,60.44v4H4876.8v-4a60.5,60.5,0,0,0-60.43-60.44H4812a51.33,51.33,0,0,1-51.1-47.27h261.64V574.9H4418.75V897.42h261.64A51.33,51.33,0,0,1,4629.29,944.69Zm182.68,8h4.4a52.5,52.5,0,0,1,52.28,48.44h-296a52.51,52.51,0,0,1,52.29-48.44h4.39a59.34,59.34,0,0,0,59.12-55.27h64.44A59.34,59.34,0,0,0,4812,952.69Zm-385.22-63.27V582.9h587.76V889.42Z" style="fill:#fff"/><path d="M4347,208.91l201.35,7.46.3-8-193.93-7.19,7.08-7.09-74.18-74.18,2.76-26.29-7.95-.83-2.73,26-75.3,75.3,78.7,78.7Zm-60.45-78.75,63.94,63.94-6.68,6.68-64.42-2.39Zm-8.18,1.28-7.83,74.63,65.55,2.43-53,53-67.39-67.39Z" style="fill:#fff"/><path d="M4201.68,354.18,4127.5,280l2.76-26.29-8-.84-2.73,26-75.29,75.29,78.7,78.7L4186.87,369l201.36,7.46.29-8-193.93-7.19ZM4123,421.57l-67.39-67.39,62.66-62.65-7.83,74.62,65.54,2.43Zm60.7-60.71-64.41-2.38,7.16-68.23,63.93,63.93Z" style="fill:#fff"/><path d="M4026.79,529.07l201.35,7.47.3-8-193.93-7.19,7.08-7.08-74.17-74.18,2.76-26.29-8-.83-2.73,26-75.3,75.3,78.7,78.7Zm-60.45-78.74,63.94,63.94L4023.6,521l-64.41-2.39Zm-8.17,1.28-7.83,74.63,65.54,2.43-53,53-67.38-67.38Z" style="fill:#fff"/><path d="M4650.16,1449.06l70.05-70.62a5.44,5.44,0,0,0,1.61-3.89V1183.37a5.49,5.49,0,0,0-5.34-6.81H4526.33a5.49,5.49,0,0,0-3.92,1.64l-70.83,72.32a5.83,5.83,0,0,0-3.21,5.2v190.75a5.84,5.84,0,0,0,5.83,5.83H4645A5.82,5.82,0,0,0,4650.16,1449.06Zm63.66-75.54-63,63.56V1255.72s0-.11,0-.16l63-63Zm-186.44-189h183.08l-65.35,65.34H4463.39Zm115.4,259.74H4456.37V1257.9h186.41Z" style="fill:#fff"/><path d="M938.53,938.53l-69.69-52.85V637.93h-117v8h109v235H460.06V778.17h-8V882.89L435.8,895.21l4.84,6.38,16.76-12.71H859.81l62.26,47.21H395.14l20.76-15.74L411.07,914,381,936.78a4,4,0,0,0-1.41,4.53l1,2.78h1.31L403,965.17H773.12v-8H406.34l-13.15-13.08H927.71l-13.16,13.08h-85.1v8h88.4l22.21-22.09-2.25-2.27Z" style="fill:#fff"/><path d="M584,613.41a75.65,75.65,0,0,0,16.25,47.7,105.26,105.26,0,0,1,22.45,64.62v24.39a15.52,15.52,0,0,0,10.08,14.5,19.47,19.47,0,0,0,19.36,17.55h16.59a19.47,19.47,0,0,0,19.36-17.55,15.52,15.52,0,0,0,10.08-14.5V725.73c0-23,8.07-46.06,22.73-65a76.44,76.44,0,0,0-61.55-123.2C618.11,538.13,584.31,572.16,584,613.41Zm84.73,160.76H652.15a11.48,11.48,0,0,1-11.09-8.55h38.77A11.48,11.48,0,0,1,668.74,774.17Zm21.44-24a7.52,7.52,0,0,1-7.5,7.5H638.21a7.52,7.52,0,0,1-7.5-7.5V732.5h59.47ZM708.5,565.26a68.45,68.45,0,0,1,6.08,90.6c-15.47,20-24.11,44.3-24.39,68.64H630.71a113.35,113.35,0,0,0-24.16-68.33A67.74,67.74,0,0,1,592,613.47c.27-36.93,30.53-67.4,67.46-67.91A68,68,0,0,1,708.5,565.26Z" style="fill:#fff"/><polygon points="460.06 645.93 551.82 645.93 609.9 459.55 627.36 517.39 663.12 517.39 698.06 378.46 690.3 376.51 656.89 509.39 633.3 509.39 610.02 432.26 545.93 637.93 452.06 637.93 452.06 728.5 460.06 728.5 460.06 645.93" style="fill:#fff"/><polygon points="835.34 736.78 843.34 736.78 843.34 658.64 751.81 658.64 751.81 666.64 835.34 666.64 835.34 736.78" style="fill:#fff"/><polygon points="569.09 658.64 477.55 658.64 477.55 868.16 843.34 868.16 843.34 769.89 835.34 769.89 835.34 860.16 485.55 860.16 485.55 666.64 569.09 666.64 569.09 658.64" style="fill:#fff"/><polygon points="809.28 689.87 809.28 834.11 600.72 834.11 600.72 842.11 817.28 842.11 817.28 689.87 809.28 689.87" style="fill:#fff"/><rect x="513.8" y="834.1" width="50.53" height="8" style="fill:#fff"/><polygon points="60.51 2940.47 68.51 2940.47 68.51 2753.43 0 2753.43 0 2761.43 60.51 2761.43 60.51 2940.47" style="fill:#fff"/><polygon points="25.45 2790.84 0 2790.84 0 2798.84 17.45 2798.84 17.45 2936.47 0 2936.47 0 2944.47 25.45 2944.47 25.45 2790.84" style="fill:#fff"/><polygon points="4551.98 2940.47 4559.98 2940.47 4559.98 2464.87 4776.96 2464.87 4776.96 2940.47 4784.96 2940.47 4784.96 2456.87 4551.98 2456.87 4551.98 2940.47" style="fill:#fff"/><polygon points="4860.25 2940.47 4868.25 2940.47 4868.25 2641.41 5085.23 2641.41 5085.23 2940.47 5093.23 2940.47 5093.23 2633.41 4860.25 2633.41 4860.25 2940.47" style="fill:#fff"/><polygon points="5168.52 2940.47 5176.52 2940.47 5176.52 2761.43 5333 2761.43 5333 2753.43 5168.52 2753.43 5168.52 2940.47" style="fill:#fff"/><path d="M4598.76,2571.19h139.41v-56.83H4598.76Zm8-48.83h123.41v40.83H4606.76Z" style="fill:#fff"/><path d="M4598.76,2690.24h139.41v-56.83H4598.76Zm8-48.83h123.41v40.83H4606.76Z" style="fill:#fff"/><path d="M4598.76,2809.29h139.41v-56.83H4598.76Zm8-48.83h123.41v40.83H4606.76Z" style="fill:#fff"/><path d="M4637.62,2944.47h61.69v-73h-61.69Zm8-65h45.69v57h-45.69Z" style="fill:#fff"/><path d="M4902.73,2727.34h53.34V2674h-53.34Zm8-45.34h37.34v37.34h-37.34Z" style="fill:#fff"/><path d="M4997.42,2727.34h53.34V2674h-53.34Zm8-45.34h37.34v37.34h-37.34Z" style="fill:#fff"/><path d="M4902.73,2815.61h53.34v-53.34h-53.34Zm8-45.34h37.34v37.34h-37.34Z" style="fill:#fff"/><path d="M4997.42,2815.61h53.34v-53.34h-53.34Zm8-45.34h37.34v37.34h-37.34Z" style="fill:#fff"/><path d="M4902.73,2903.88h53.34v-53.34h-53.34Zm8-45.34h37.34v37.34h-37.34Z" style="fill:#fff"/><path d="M4997.42,2903.88h53.34v-53.34h-53.34Zm8-45.34h37.34v37.34h-37.34Z" style="fill:#fff"/><path d="M5256.21,2790.84h-44.63v153.63h44.63Zm-8,145.63h-28.63V2798.84h28.63Z" style="fill:#fff"/><polygon points="5313.83 2944.47 5333 2944.47 5333 2936.47 5321.83 2936.47 5321.83 2798.84 5333 2798.84 5333 2790.84 5313.83 2790.84 5313.83 2944.47" style="fill:#fff"/><path d="M4595.18,1850.06a6.09,6.09,0,0,1,4.86,6v17.78a14.1,14.1,0,0,0,14.09,14.09h23.24a14.1,14.1,0,0,0,14.09-14.09v-19.42a6.08,6.08,0,0,1,4.51-5.88c3.49-.93,6.93-2,10.2-3.25a74,74,0,0,0,23.19-13.64,63.85,63.85,0,0,0,15.67-21,65.63,65.63,0,0,0,5.76-28c0-15.76-4.4-28.65-13.09-38.32h0a77.84,77.84,0,0,0-29.07-20l-.13,0a119.87,119.87,0,0,0-17.16-5.21c-5.35-1.21-10.89-2.41-16.46-3.57-5.07-1-10.38-2.17-15.8-3.34a83.51,83.51,0,0,1-11.92-3.43,25.44,25.44,0,0,1-8-5c-.18-.18-.6-.6-.6-2.41,0-2.61.65-4.56,4-6.81,4.43-3,11.2-4.48,20.12-4.48,9.71,0,17.74,1.58,23.85,4.71a55.68,55.68,0,0,1,16.12,12,14.12,14.12,0,0,0,19.84,1.13l19-16.82a14.09,14.09,0,0,0,1.65-19.34c-5.84-7.3-14-14.27-24.12-20.7a83.35,83.35,0,0,0-23-9.75,6.11,6.11,0,0,1-4.55-5.89v-13a14.1,14.1,0,0,0-14.09-14.09h-23.24a14.1,14.1,0,0,0-14.09,14.09V1635a6.16,6.16,0,0,1-4.71,5.93c-13.17,3.31-24.1,9-32.48,17-12.46,11.8-18.78,26.82-18.78,44.64,0,14,4.05,25.51,12,34.36,7,7.8,16.55,14.11,28.23,18.75a119.8,119.8,0,0,0,17.41,5.68c5.53,1.36,11.15,2.64,16.71,3.79,5.24,1.09,10.25,2.23,14.89,3.39,4.42,1.1,8.55,2.32,12.28,3.62a22.58,22.58,0,0,1,8.87,5.22c1,1,1.51,2.93,1.51,5.62,0,5.42-1.76,8.77-6.09,11.56-6,3.88-14.55,5.85-25.38,5.85-11.17,0-20.51-1.86-27.75-5.52a57.54,57.54,0,0,1-18.83-15,14.08,14.08,0,0,0-19.86-2l-20.49,16.82a14,14,0,0,0-2.27,19.43c7.71,10.13,18.23,18.83,31.27,25.88A102,102,0,0,0,4595.18,1850.06Zm-53.48-40.77a6.05,6.05,0,0,1,1-8.39l20.49-16.82a6,6,0,0,1,3.85-1.39c.21,0,.41,0,.62,0a6,6,0,0,1,4.11,2.21,65.48,65.48,0,0,0,21.42,17.07c8.37,4.23,18.92,6.38,31.36,6.38s22.4-2.4,29.72-7.13c6.65-4.3,9.75-10.11,9.75-18.28,0-7.31-2.84-10.23-3.78-11.2a30.35,30.35,0,0,0-12-7.2c-3.95-1.37-8.31-2.66-13-3.82s-9.86-2.35-15.21-3.47-11-2.38-16.42-3.71a112.34,112.34,0,0,1-16.31-5.33c-10.59-4.2-19.1-9.82-25.3-16.7-6.61-7.33-10-17.09-10-29,0-15.54,5.48-28.6,16.28-38.83,7.38-7,17.11-12,28.94-15A14.13,14.13,0,0,0,4608,1635v-12.61a6.1,6.1,0,0,1,6.09-6.09h23.24a6.1,6.1,0,0,1,6.09,6.09v13A14.12,14.12,0,0,0,4654,1649a75,75,0,0,1,20.77,8.79c9.41,6,16.86,12.32,22.15,18.93a6.09,6.09,0,0,1-.71,8.36l-19,16.82a6.09,6.09,0,0,1-8.57-.49,63.31,63.31,0,0,0-18.43-13.79c-7.26-3.71-16.51-5.59-27.5-5.59-10.54,0-18.81,2-24.58,5.84-5.15,3.46-7.55,7.73-7.55,13.45,0,3.45,1,6.09,2.94,8.07a33.47,33.47,0,0,0,10.59,6.73l.16.06a91.6,91.6,0,0,0,13.14,3.8c5.44,1.17,10.78,2.3,15.86,3.35,5.53,1.15,11,2.35,16.32,3.55a112.09,112.09,0,0,1,16,4.84l.09,0a69.83,69.83,0,0,1,26.1,17.93c7.33,8.16,11,19.26,11,33a57.72,57.72,0,0,1-5,24.59,56,56,0,0,1-13.73,18.36,66.25,66.25,0,0,1-20.69,12.14,98.55,98.55,0,0,1-9.46,3,14.09,14.09,0,0,0-10.45,13.61v19.42a6.09,6.09,0,0,1-6.09,6.09h-23.24a6.09,6.09,0,0,1-6.09-6.09V1856a14.1,14.1,0,0,0-11.29-13.8,94.27,94.27,0,0,1-26.35-9.24C4558.37,1826.48,4548.71,1818.51,4541.7,1809.29Z" style="fill:#fff"/><path d="M1166.13,2240.5a77.76,77.76,0,0,0-29.07-20l-.13-.05a120.37,120.37,0,0,0-17.16-5.21c-5.3-1.2-10.84-2.4-16.46-3.57-5.21-1.08-10.52-2.2-15.8-3.34a83.51,83.51,0,0,1-11.92-3.43,25.38,25.38,0,0,1-8-5c-.18-.18-.6-.6-.6-2.41,0-2.61.66-4.56,4-6.81,4.43-3,11.2-4.49,20.13-4.49,9.71,0,17.73,1.59,23.84,4.72a55.37,55.37,0,0,1,16.13,12,14.12,14.12,0,0,0,19.84,1.13l19-16.82a14.08,14.08,0,0,0,1.65-19.34c-5.84-7.31-14-14.27-24.12-20.7a83.28,83.28,0,0,0-23-9.75,6.1,6.1,0,0,1-4.55-5.88v-13a14.11,14.11,0,0,0-14.1-14.09h-23.24a14.1,14.1,0,0,0-14.09,14.09v12.61a6.15,6.15,0,0,1-4.7,5.93c-13.17,3.31-24.1,9-32.49,17-12.46,11.8-18.78,26.82-18.78,44.64,0,13.95,4,25.51,12,34.36,7,7.8,16.54,14.11,28.22,18.75a119.8,119.8,0,0,0,17.41,5.68c5.51,1.36,11.14,2.63,16.71,3.79,5.27,1.09,10.28,2.23,14.89,3.39,4.42,1.1,8.54,2.32,12.28,3.62a22.51,22.51,0,0,1,8.87,5.22c1,1,1.52,2.93,1.52,5.62,0,5.42-1.77,8.77-6.1,11.56-6,3.88-14.54,5.85-25.38,5.85-11.17,0-20.5-1.86-27.75-5.52a57.5,57.5,0,0,1-18.82-15,14.1,14.1,0,0,0-19.87-2L1006,2290.86a14.06,14.06,0,0,0-2.27,19.43c7.72,10.13,18.24,18.83,31.27,25.88a102,102,0,0,0,28.58,10,6.08,6.08,0,0,1,4.86,6V2370a14.1,14.1,0,0,0,14.09,14.09h23.24a14.11,14.11,0,0,0,14.1-14.09v-19.42a6.07,6.07,0,0,1,4.5-5.88c3.5-.93,6.93-2,10.21-3.25a74.08,74.08,0,0,0,23.18-13.64,63.88,63.88,0,0,0,15.68-21,65.63,65.63,0,0,0,5.76-28c0-15.76-4.41-28.65-13.09-38.32Zm.09,62.91a55.9,55.9,0,0,1-13.72,18.35,66.25,66.25,0,0,1-20.7,12.15c-3,1.13-6.21,2.15-9.45,3a14.08,14.08,0,0,0-10.45,13.61V2370a6.1,6.1,0,0,1-6.1,6.09h-23.24a6.09,6.09,0,0,1-6.09-6.09v-17.78a14.1,14.1,0,0,0-11.29-13.8,94.09,94.09,0,0,1-26.34-9.24c-12-6.5-21.69-14.47-28.71-23.69a6.06,6.06,0,0,1,1-8.4l20.49-16.82a6.06,6.06,0,0,1,3.85-1.38c.21,0,.41,0,.62,0a6.07,6.07,0,0,1,4.12,2.21,65.37,65.37,0,0,0,21.42,17.07c8.37,4.23,18.92,6.38,31.35,6.38s22.4-2.4,29.72-7.13c6.66-4.3,9.76-10.11,9.76-18.28,0-7.3-2.85-10.23-3.79-11.2a30.28,30.28,0,0,0-12-7.2c-4-1.37-8.31-2.66-13-3.82s-9.84-2.35-15.21-3.47-11-2.38-16.43-3.72a110.34,110.34,0,0,1-16.31-5.33c-10.59-4.2-19.09-9.81-25.29-16.69-6.62-7.33-10-17.09-10-29,0-15.54,5.48-28.6,16.28-38.83,7.38-7,17.11-12,28.94-15a14.13,14.13,0,0,0,10.75-13.68v-12.61a6.1,6.1,0,0,1,6.09-6.09h23.24a6.11,6.11,0,0,1,6.1,6.09v13a14.12,14.12,0,0,0,10.48,13.61,74.89,74.89,0,0,1,20.78,8.79c9.4,5.95,16.86,12.32,22.14,18.93a6.08,6.08,0,0,1-.71,8.36l-19,16.82a6.12,6.12,0,0,1-8.58-.49,63.31,63.31,0,0,0-18.43-13.79c-7.25-3.71-16.5-5.6-27.49-5.6-10.54,0-18.82,2-24.59,5.85-5.15,3.46-7.55,7.73-7.55,13.45,0,3.5.94,6.06,3,8.07a33.41,33.41,0,0,0,10.58,6.73l.16.06a91.75,91.75,0,0,0,13.15,3.8c5.29,1.14,10.63,2.27,15.85,3.35,5.58,1.16,11.07,2.35,16.33,3.55a112.09,112.09,0,0,1,16,4.84l.08,0a69.79,69.79,0,0,1,26.11,17.93c7.32,8.16,11,19.26,11,33A57.72,57.72,0,0,1,1166.22,2303.41Z" style="fill:#fff"/><path d="M867.63,1300.32c-6,3.88-14.55,5.85-25.38,5.85-11.17,0-20.51-1.86-27.75-5.52a57.54,57.54,0,0,1-18.83-15,14.09,14.09,0,0,0-19.86-2l-20.49,16.82a14,14,0,0,0-2.27,19.43c7.71,10.12,18.23,18.83,31.27,25.88a102.18,102.18,0,0,0,28.58,10,6.09,6.09,0,0,1,4.86,6v17.78a14.1,14.1,0,0,0,14.09,14.09h23.24a14.1,14.1,0,0,0,14.09-14.09v-19.43a6.07,6.07,0,0,1,4.5-5.87c3.5-.93,6.94-2,10.21-3.25a74.21,74.21,0,0,0,23.19-13.64,63.85,63.85,0,0,0,15.67-21,65.65,65.65,0,0,0,5.76-28c0-15.75-4.4-28.64-13.09-38.32h0a77.82,77.82,0,0,0-29.07-20l-.13,0a119.87,119.87,0,0,0-17.16-5.21c-5.32-1.2-10.86-2.41-16.47-3.57-5.12-1.06-10.44-2.19-15.79-3.34a85.38,85.38,0,0,1-11.93-3.43,25.68,25.68,0,0,1-8-5c-.18-.18-.61-.61-.61-2.42,0-2.6.66-4.55,4-6.8,4.44-3,11.21-4.49,20.13-4.49,9.71,0,17.73,1.59,23.85,4.72a55.32,55.32,0,0,1,16.12,12,14.12,14.12,0,0,0,19.84,1.13l19-16.82a14.09,14.09,0,0,0,1.66-19.35c-5.85-7.3-14-14.26-24.12-20.69a83.35,83.35,0,0,0-23-9.75,6.12,6.12,0,0,1-4.55-5.89v-13a14.1,14.1,0,0,0-14.09-14.09H831.85a14.1,14.1,0,0,0-14.09,14.09v12.6a6.14,6.14,0,0,1-4.71,5.93c-13.17,3.32-24.1,9-32.48,17-12.46,11.79-18.78,26.81-18.78,44.64,0,14,4.05,25.51,12,34.35,7,7.8,16.55,14.12,28.22,18.75a119.14,119.14,0,0,0,17.42,5.69c5.52,1.36,11.14,2.63,16.7,3.78,5.26,1.1,10.27,2.24,14.9,3.39,4.42,1.11,8.54,2.33,12.28,3.63a22.46,22.46,0,0,1,8.87,5.22c1,1,1.51,2.93,1.51,5.62C873.72,1294.17,872,1297.52,867.63,1300.32Zm14.09-11.56c0-7.31-2.84-10.23-3.78-11.2a30.35,30.35,0,0,0-12-7.2c-4-1.38-8.31-2.66-13-3.83s-9.85-2.34-15.21-3.46-11-2.38-16.42-3.72a111.14,111.14,0,0,1-16.31-5.33c-10.59-4.2-19.1-9.81-25.3-16.69-6.61-7.34-10-17.09-10-29,0-15.54,5.48-28.61,16.28-38.83,7.37-7,17.11-12,28.94-15a14.13,14.13,0,0,0,10.75-13.69v-12.6a6.09,6.09,0,0,1,6.09-6.09h23.24a6.09,6.09,0,0,1,6.09,6.09v13a14.13,14.13,0,0,0,10.49,13.62,75.24,75.24,0,0,1,20.77,8.78c9.41,6,16.86,12.32,22.15,18.93a6.09,6.09,0,0,1-.71,8.36l-19,16.83a6.11,6.11,0,0,1-8.57-.49,63.31,63.31,0,0,0-18.43-13.79c-7.26-3.71-16.51-5.6-27.5-5.6-10.54,0-18.81,2-24.59,5.85-5.15,3.46-7.55,7.73-7.55,13.44,0,3.5.94,6.07,3,8.07a33.31,33.31,0,0,0,10.59,6.74l.15.06a92.51,92.51,0,0,0,13.15,3.8c5.38,1.16,10.71,2.29,15.86,3.35,5.55,1.16,11,2.35,16.32,3.54a111.7,111.7,0,0,1,16,4.85l.09,0a70,70,0,0,1,26.1,17.94c7.33,8.16,11,19.25,11,33a57.59,57.59,0,0,1-5,24.6,55.76,55.76,0,0,1-13.72,18.35,66,66,0,0,1-20.7,12.15c-3,1.13-6.2,2.14-9.45,3a14.08,14.08,0,0,0-10.45,13.6v19.43a6.09,6.09,0,0,1-6.09,6.09H831.85a6.09,6.09,0,0,1-6.09-6.09v-17.78A14.11,14.11,0,0,0,814.47,1348a94,94,0,0,1-26.35-9.23c-12-6.5-21.69-14.47-28.71-23.69a6.07,6.07,0,0,1,1-8.4l20.49-16.82a6.06,6.06,0,0,1,3.85-1.38l.62,0a6,6,0,0,1,4.11,2.21,65.48,65.48,0,0,0,21.42,17.07c8.37,4.23,18.92,6.38,31.36,6.38s22.4-2.4,29.72-7.13C878.62,1302.74,881.72,1296.93,881.72,1288.76Z" style="fill:#fff"/><path d="M3538.62,1834.46h17.62a11.66,11.66,0,0,0,11.65-11.65v-14.74a3.64,3.64,0,0,1,2.7-3.52c2.68-.71,5.32-1.55,7.83-2.49a57.21,57.21,0,0,0,17.88-10.52,49.53,49.53,0,0,0,12.13-16.21,50.73,50.73,0,0,0,4.46-21.64c0-12.19-3.43-22.18-10.18-29.7h0a59.91,59.91,0,0,0-22.38-15.42l-.13,0a91.85,91.85,0,0,0-13.15-4c-4-.91-8.22-1.83-12.51-2.72-3.92-.81-7.95-1.66-12-2.53a62.83,62.83,0,0,1-8.88-2.55,18.37,18.37,0,0,1-5.77-3.61,2.75,2.75,0,0,1-.15-1.12c0-1.72.41-2.87,2.62-4.35,3.15-2.12,8.24-3.24,14.72-3.24,7.21,0,13.14,1.17,17.64,3.47a41,41,0,0,1,11.95,8.89,11.68,11.68,0,0,0,16.41.94l14.38-12.76a11.65,11.65,0,0,0,1.36-16c-4.49-5.62-10.73-11-18.52-15.9a63.76,63.76,0,0,0-17.7-7.51,3.67,3.67,0,0,1-2.74-3.53v-9.84a11.66,11.66,0,0,0-11.65-11.65h-17.62a11.66,11.66,0,0,0-11.66,11.65v9.55a3.7,3.7,0,0,1-2.83,3.57c-10.15,2.55-18.59,7-25.07,13.09-9.64,9.13-14.54,20.76-14.54,34.55,0,10.83,3.16,19.81,9.38,26.7,5.42,6,12.76,10.9,21.75,14.47a93,93,0,0,0,13.34,4.36c4.2,1,8.48,2,12.7,2.87,4,.82,7.75,1.69,11.26,2.56,3.33.84,6.43,1.75,9.23,2.73a16,16,0,0,1,6.35,3.72c.72.74.87,2.36.87,3.59,0,3.78-1.17,6-4.18,8-4.39,2.84-10.69,4.28-18.72,4.28-8.32,0-15.25-1.37-20.6-4.08a42.74,42.74,0,0,1-14-11.11,11.65,11.65,0,0,0-16.42-1.64L3480,1762.08a11.62,11.62,0,0,0-1.88,16.07c5.94,7.79,14,14.48,24,19.89a78.29,78.29,0,0,0,21.94,7.71,3.64,3.64,0,0,1,2.9,3.57v13.49A11.67,11.67,0,0,0,3538.62,1834.46Zm-13-36.55a70.58,70.58,0,0,1-19.71-6.91c-9-4.87-16.22-10.82-21.46-17.7a3.65,3.65,0,0,1,.58-5l15.54-12.75a3.64,3.64,0,0,1,2.31-.83l.37,0a3.63,3.63,0,0,1,2.47,1.33,50.78,50.78,0,0,0,16.56,13.19c6.48,3.28,14.63,4.94,24.21,4.94s17.36-1.87,23.07-5.56c5.27-3.41,7.83-8.21,7.83-14.67,0-5.94-2.36-8.37-3.14-9.17a23.83,23.83,0,0,0-9.46-5.7c-3-1-6.35-2-9.91-2.93s-7.51-1.79-11.57-2.63-8.31-1.8-12.42-2.81a84.26,84.26,0,0,1-12.24-4c-7.89-3.13-14.22-7.31-18.82-12.41-4.86-5.38-7.32-12.56-7.32-21.35,0-11.51,4.05-21.18,12-28.74,5.48-5.18,12.72-8.93,21.52-11.15a11.68,11.68,0,0,0,8.88-11.32v-9.55a3.66,3.66,0,0,1,3.66-3.65h17.62a3.65,3.65,0,0,1,3.65,3.65V1642a11.7,11.7,0,0,0,8.67,11.26,55.76,55.76,0,0,1,15.49,6.54c7,4.46,12.62,9.21,16.56,14.14a3.66,3.66,0,0,1-.43,5l-14.38,12.75a3.66,3.66,0,0,1-5.14-.29,49,49,0,0,0-14.26-10.67c-5.64-2.89-12.8-4.35-21.29-4.35-8.19,0-14.64,1.54-19.18,4.59-4.2,2.82-6.16,6.32-6.16,11a9.13,9.13,0,0,0,2.52,6.81,26.39,26.39,0,0,0,8.33,5.31l.16.06a69.78,69.78,0,0,0,10.11,2.92c4,.87,8.08,1.73,12,2.55,4.23.88,8.39,1.78,12.36,2.68a85.23,85.23,0,0,1,12,3.65,52,52,0,0,1,19.43,13.36c5.39,6,8.13,14.2,8.13,24.35a42.82,42.82,0,0,1-3.71,18.25,41.56,41.56,0,0,1-10.17,13.6,49.36,49.36,0,0,1-15.39,9,74,74,0,0,1-7.08,2.25,11.65,11.65,0,0,0-8.65,11.25v14.74a3.65,3.65,0,0,1-3.65,3.65h-17.62a3.66,3.66,0,0,1-3.66-3.65v-13.49A11.65,11.65,0,0,0,3525.63,1797.91Z" style="fill:#fff"/><path d="M2070.73,1465.56h17.62a11.66,11.66,0,0,0,11.65-11.65v-14.73a3.63,3.63,0,0,1,2.7-3.52c2.68-.72,5.32-1.55,7.83-2.5a57.13,57.13,0,0,0,17.88-10.52,49.53,49.53,0,0,0,12.13-16.21,50.72,50.72,0,0,0,4.46-21.63c0-12.2-3.43-22.19-10.18-29.71h0a59.83,59.83,0,0,0-22.4-15.42l-.11-.05a92.24,92.24,0,0,0-13.15-4c-4-.92-8.25-1.83-12.51-2.71-3.92-.82-8-1.67-12-2.54a62.83,62.83,0,0,1-8.88-2.55,18.19,18.19,0,0,1-5.77-3.61,2.45,2.45,0,0,1-.15-1.11c0-1.73.41-2.88,2.62-4.36,3.15-2.12,8.24-3.24,14.72-3.24,7.21,0,13.14,1.17,17.64,3.47a41.18,41.18,0,0,1,11.95,8.89,11.68,11.68,0,0,0,16.41.94l14.38-12.76a11.64,11.64,0,0,0,1.36-16c-4.49-5.63-10.73-11-18.52-15.91a64.06,64.06,0,0,0-17.7-7.51,3.67,3.67,0,0,1-2.74-3.53v-9.84a11.66,11.66,0,0,0-11.65-11.65h-17.62a11.67,11.67,0,0,0-11.66,11.65v9.56a3.7,3.7,0,0,1-2.83,3.56c-10.15,2.55-18.59,7-25.07,13.09-9.65,9.14-14.54,20.76-14.54,34.55,0,10.83,3.16,19.82,9.37,26.71,5.43,6,12.77,10.9,21.75,14.46a92.26,92.26,0,0,0,13.35,4.36c4.2,1,8.47,2,12.7,2.87,4,.83,7.76,1.69,11.26,2.57,3.32.83,6.42,1.74,9.23,2.72a16,16,0,0,1,6.35,3.72c.72.75.87,2.36.87,3.59,0,3.78-1.17,6-4.18,8-4.39,2.84-10.69,4.28-18.72,4.28-8.32,0-15.25-1.37-20.6-4.08a42.61,42.61,0,0,1-14-11.11,11.65,11.65,0,0,0-16.42-1.64l-15.54,12.75a11.61,11.61,0,0,0-1.88,16.07c5.93,7.79,14,14.48,24,19.89a78.36,78.36,0,0,0,22,7.71,3.65,3.65,0,0,1,2.9,3.58v13.48A11.67,11.67,0,0,0,2070.73,1465.56Zm-13-36.55a70.31,70.31,0,0,1-19.7-6.91c-9-4.86-16.23-10.82-21.46-17.7a3.63,3.63,0,0,1,.58-5l15.54-12.76a3.64,3.64,0,0,1,2.31-.83l.37,0a3.63,3.63,0,0,1,2.47,1.33,50.42,50.42,0,0,0,16.56,13.19c6.48,3.28,14.63,4.94,24.21,4.94s17.35-1.87,23.06-5.56c5.28-3.4,7.84-8.2,7.84-14.67,0-5.93-2.36-8.37-3.14-9.17a23.83,23.83,0,0,0-9.46-5.7c-3-1.05-6.35-2-9.91-2.92s-7.5-1.79-11.57-2.64-8.32-1.8-12.42-2.81a84.66,84.66,0,0,1-12.24-4c-7.89-3.13-14.22-7.31-18.82-12.41-4.86-5.38-7.32-12.56-7.32-21.35,0-11.5,4-21.17,12-28.74,5.48-5.18,12.71-8.93,21.52-11.14a11.69,11.69,0,0,0,8.88-11.32v-9.56a3.66,3.66,0,0,1,3.66-3.65h17.62a3.65,3.65,0,0,1,3.65,3.65v9.84a11.68,11.68,0,0,0,8.67,11.26,55.76,55.76,0,0,1,15.49,6.54,67.19,67.19,0,0,1,16.56,14.14,3.66,3.66,0,0,1-.43,5l-14.38,12.75a3.66,3.66,0,0,1-5.14-.29,49,49,0,0,0-14.26-10.67c-5.64-2.89-12.8-4.35-21.29-4.35-8.19,0-14.64,1.55-19.18,4.6-4.2,2.82-6.16,6.31-6.16,11a9.12,9.12,0,0,0,2.52,6.8,26.22,26.22,0,0,0,8.33,5.31l.16.07a71.48,71.48,0,0,0,10.11,2.91c4,.88,8.08,1.73,12,2.55,4.21.87,8.36,1.78,12.36,2.68a83.43,83.43,0,0,1,12,3.66,51.93,51.93,0,0,1,19.44,13.35c5.39,6,8.13,14.2,8.13,24.36a42.81,42.81,0,0,1-3.71,18.24,41.45,41.45,0,0,1-10.17,13.6,49.11,49.11,0,0,1-15.4,9,73,73,0,0,1-7.07,2.25,11.66,11.66,0,0,0-8.65,11.26v14.73a3.65,3.65,0,0,1-3.65,3.65h-17.62a3.66,3.66,0,0,1-3.66-3.65v-13.48A11.65,11.65,0,0,0,2057.73,1429Z" style="fill:#fff"/><path d="M1169.54,920.21h17.63a11.66,11.66,0,0,0,11.65-11.65V893.83a3.64,3.64,0,0,1,2.7-3.52,81.26,81.26,0,0,0,7.83-2.5,56.94,56.94,0,0,0,17.88-10.52,49.43,49.43,0,0,0,12.13-16.21,50.87,50.87,0,0,0,4.45-21.63c0-12.19-3.42-22.19-10.17-29.71h0a60,60,0,0,0-22.41-15.43l-.1,0a92.24,92.24,0,0,0-13.15-4c-4-.92-8.26-1.83-12.51-2.71-3.93-.81-8-1.67-12-2.53a62.79,62.79,0,0,1-8.88-2.56,18.37,18.37,0,0,1-5.78-3.61,2.83,2.83,0,0,1-.14-1.11c0-1.73.41-2.88,2.62-4.36,3.15-2.12,8.24-3.24,14.72-3.24,7.21,0,13.14,1.17,17.64,3.47a41.21,41.21,0,0,1,12,8.9,11.69,11.69,0,0,0,16.41.93l14.38-12.75a11.66,11.66,0,0,0,1.36-16,74.59,74.59,0,0,0-18.53-15.91,63.86,63.86,0,0,0-17.69-7.51,3.67,3.67,0,0,1-2.74-3.53v-9.84a11.66,11.66,0,0,0-11.65-11.65h-17.63a11.67,11.67,0,0,0-11.65,11.65v9.56a3.69,3.69,0,0,1-2.83,3.56c-10.16,2.55-18.59,7-25.07,13.09-9.65,9.14-14.54,20.76-14.54,34.56,0,10.82,3.15,19.81,9.37,26.7,5.43,6,12.77,10.9,21.75,14.46a91.05,91.05,0,0,0,13.35,4.36c4.2,1,8.47,2,12.7,2.88,4,.82,7.76,1.68,11.26,2.56,3.32.83,6.42,1.75,9.23,2.72a16.25,16.25,0,0,1,6.35,3.72c.72.75.87,2.37.87,3.59,0,3.78-1.17,6-4.18,8-4.39,2.84-10.69,4.28-18.72,4.28-8.32,0-15.25-1.38-20.6-4.09a42.48,42.48,0,0,1-14-11.11,11.65,11.65,0,0,0-16.42-1.64l-15.54,12.76A11.6,11.6,0,0,0,1109,863.9c5.93,7.79,14,14.48,24,19.89a78.37,78.37,0,0,0,22,7.72,3.63,3.63,0,0,1,2.9,3.57v13.48A11.66,11.66,0,0,0,1169.54,920.21Zm-13-36.55a70.31,70.31,0,0,1-19.7-6.91c-9-4.86-16.23-10.82-21.47-17.69a3.66,3.66,0,0,1,.59-5l15.54-12.76a3.64,3.64,0,0,1,2.31-.83l.37,0a3.63,3.63,0,0,1,2.47,1.33A50.42,50.42,0,0,0,1153.22,855c6.48,3.28,14.63,4.95,24.21,4.95s17.35-1.88,23.06-5.57c5.28-3.4,7.84-8.2,7.84-14.67,0-5.93-2.36-8.36-3.14-9.17a23.7,23.7,0,0,0-9.46-5.69c-3-1.06-6.35-2-9.91-2.93s-7.5-1.79-11.57-2.64-8.32-1.8-12.42-2.81a83.57,83.57,0,0,1-12.25-4c-7.88-3.13-14.21-7.3-18.81-12.41-4.86-5.38-7.32-12.56-7.32-21.34,0-11.51,4-21.18,12-28.75,5.47-5.18,12.71-8.93,21.52-11.14a11.69,11.69,0,0,0,8.88-11.32v-9.56a3.66,3.66,0,0,1,3.65-3.65h17.63a3.66,3.66,0,0,1,3.65,3.65v9.84a11.68,11.68,0,0,0,8.67,11.26,55.76,55.76,0,0,1,15.49,6.54,67,67,0,0,1,16.56,14.15,3.66,3.66,0,0,1-.43,5l-14.38,12.76a3.66,3.66,0,0,1-5.14-.3,49.13,49.13,0,0,0-14.26-10.67c-5.64-2.88-12.8-4.35-21.29-4.35-8.19,0-14.64,1.55-19.18,4.6-4.2,2.82-6.16,6.31-6.16,11a9.12,9.12,0,0,0,2.52,6.8,26.22,26.22,0,0,0,8.33,5.31l.16.07a72.4,72.4,0,0,0,10.11,2.92c4,.87,8.08,1.73,12,2.54,4.2.87,8.36,1.78,12.36,2.68a84.7,84.7,0,0,1,12,3.66,52,52,0,0,1,19.44,13.35c5.39,6,8.12,14.2,8.12,24.36a42.81,42.81,0,0,1-3.7,18.24,41.45,41.45,0,0,1-10.17,13.6,49.11,49.11,0,0,1-15.4,9c-2.27.85-4.65,1.61-7.07,2.26a11.64,11.64,0,0,0-8.65,11.25v14.73a3.66,3.66,0,0,1-3.65,3.65h-17.63a3.66,3.66,0,0,1-3.65-3.65V895.08A11.66,11.66,0,0,0,1156.55,883.66Z" style="fill:#fff"/><path d="M284.62,1707.4A59.87,59.87,0,0,0,262.23,1692l-.12,0a91.85,91.85,0,0,0-13.15-4c-4.08-.93-8.28-1.84-12.51-2.72-3.93-.81-7.95-1.66-12-2.53a62.83,62.83,0,0,1-8.88-2.55,18.55,18.55,0,0,1-5.78-3.61,2.93,2.93,0,0,1-.14-1.12c0-1.72.41-2.87,2.62-4.36,3.15-2.11,8.24-3.23,14.72-3.23,7.21,0,13.14,1.16,17.64,3.47a41,41,0,0,1,12,8.89,11.68,11.68,0,0,0,16.41.94l14.38-12.76a11.65,11.65,0,0,0,1.36-16,74.56,74.56,0,0,0-18.53-15.9,63.63,63.63,0,0,0-17.7-7.51,3.69,3.69,0,0,1-2.73-3.53v-9.84a11.66,11.66,0,0,0-11.65-11.65H220.52a11.66,11.66,0,0,0-11.65,11.65v9.55a3.69,3.69,0,0,1-2.83,3.56c-10.16,2.56-18.59,7-25.07,13.1-9.65,9.13-14.54,20.76-14.54,34.55,0,10.83,3.16,19.81,9.37,26.7,5.43,6,12.77,10.9,21.75,14.47a92.24,92.24,0,0,0,13.35,4.35c4.19,1,8.47,2,12.7,2.88,4,.82,7.75,1.69,11.26,2.56,3.32.83,6.42,1.75,9.23,2.73a16.08,16.08,0,0,1,6.35,3.72c.72.74.87,2.36.87,3.59,0,3.78-1.17,6-4.18,8-4.39,2.84-10.69,4.28-18.72,4.28-8.32,0-15.25-1.37-20.6-4.08a42.74,42.74,0,0,1-14-11.11,11.66,11.66,0,0,0-16.42-1.65l-15.54,12.76a11.61,11.61,0,0,0-1.88,16.07c5.93,7.79,14,14.48,24,19.89a78.67,78.67,0,0,0,21.95,7.71,3.64,3.64,0,0,1,2.9,3.57v13.48a11.67,11.67,0,0,0,11.65,11.66h17.63a11.66,11.66,0,0,0,11.65-11.66v-14.73a3.64,3.64,0,0,1,2.7-3.52c2.68-.71,5.31-1.55,7.83-2.49A57.32,57.32,0,0,0,278.21,1775a49.53,49.53,0,0,0,12.13-16.21,50.88,50.88,0,0,0,4.45-21.64c0-12.19-3.42-22.18-10.17-29.7Zm-1.53,47.95a41.56,41.56,0,0,1-10.17,13.6,49.3,49.3,0,0,1-15.4,9c-2.27.85-4.65,1.61-7.07,2.25a11.65,11.65,0,0,0-8.65,11.25v14.73a3.66,3.66,0,0,1-3.65,3.66H220.52a3.66,3.66,0,0,1-3.65-3.66v-13.48a11.66,11.66,0,0,0-9.34-11.41,70.63,70.63,0,0,1-19.7-6.91c-9-4.87-16.23-10.82-21.47-17.7a3.66,3.66,0,0,1,.59-5l15.54-12.75a3.64,3.64,0,0,1,2.31-.83,2.23,2.23,0,0,1,.37,0,3.62,3.62,0,0,1,2.47,1.32,50.57,50.57,0,0,0,16.56,13.2c6.48,3.28,14.63,4.94,24.21,4.94s17.35-1.87,23.06-5.56c5.28-3.41,7.84-8.21,7.84-14.67,0-5.93-2.36-8.37-3.14-9.17a23.9,23.9,0,0,0-9.46-5.7c-3-1-6.35-2-9.91-2.93s-7.51-1.79-11.57-2.63-8.32-1.81-12.42-2.81a83.6,83.6,0,0,1-12.25-4c-7.88-3.13-14.22-7.3-18.81-12.4-4.86-5.38-7.32-12.56-7.32-21.35,0-11.51,4-21.18,12-28.74,5.47-5.18,12.71-8.93,21.52-11.15a11.68,11.68,0,0,0,8.88-11.32v-9.55a3.65,3.65,0,0,1,3.65-3.65h17.63a3.65,3.65,0,0,1,3.65,3.65v9.84a11.7,11.7,0,0,0,8.67,11.26,55.76,55.76,0,0,1,15.49,6.54,66.77,66.77,0,0,1,16.56,14.14,3.67,3.67,0,0,1-.43,5l-14.38,12.75a3.66,3.66,0,0,1-5.14-.29,49.13,49.13,0,0,0-14.26-10.67c-5.64-2.89-12.8-4.35-21.29-4.35-8.19,0-14.64,1.54-19.18,4.59-4.2,2.82-6.16,6.32-6.16,11a9.13,9.13,0,0,0,2.52,6.81,26.39,26.39,0,0,0,8.33,5.31l.16.06a69.78,69.78,0,0,0,10.11,2.92c4,.87,8.08,1.73,12,2.55,4.17.86,8.33,1.77,12.36,2.68a83.42,83.42,0,0,1,12,3.65,52.07,52.07,0,0,1,19.44,13.36c5.39,6,8.12,14.2,8.12,24.35A42.82,42.82,0,0,1,283.09,1755.35Z" style="fill:#fff"/><path d="M4135.77,1035.39c-4.39,2.84-10.69,4.28-18.72,4.28-8.32,0-15.25-1.38-20.61-4.08a42.81,42.81,0,0,1-14-11.11,11.65,11.65,0,0,0-16.43-1.65l-15.53,12.76a11.61,11.61,0,0,0-1.88,16.07c5.93,7.78,14,14.47,24,19.88a78.41,78.41,0,0,0,21.94,7.72,3.63,3.63,0,0,1,2.91,3.57v13.48a11.67,11.67,0,0,0,11.65,11.66h17.63a11.67,11.67,0,0,0,11.65-11.66v-14.73a3.64,3.64,0,0,1,2.7-3.52c2.68-.71,5.32-1.55,7.83-2.49a57.15,57.15,0,0,0,17.88-10.53,49.32,49.32,0,0,0,12.13-16.21,50.8,50.8,0,0,0,4.45-21.63c0-12.19-3.42-22.19-10.17-29.7h0a59.92,59.92,0,0,0-22.41-15.43l-.1-.05a93.55,93.55,0,0,0-13.15-4c-4-.91-8.23-1.82-12.51-2.71-3.93-.81-7.95-1.66-12-2.53a62.83,62.83,0,0,1-8.88-2.55,18.73,18.73,0,0,1-5.78-3.61,3,3,0,0,1-.14-1.12c0-1.73.4-2.87,2.61-4.36,3.16-2.12,8.25-3.24,14.73-3.24,7.21,0,13.14,1.17,17.64,3.48a41,41,0,0,1,11.95,8.89,11.69,11.69,0,0,0,16.41.93L4176,958.46a11.65,11.65,0,0,0,1.36-16,74.79,74.79,0,0,0-18.53-15.91,63.8,63.8,0,0,0-17.7-7.51,3.68,3.68,0,0,1-2.73-3.53v-9.83A11.67,11.67,0,0,0,4126.79,894h-17.63a11.67,11.67,0,0,0-11.65,11.66v9.55a3.7,3.7,0,0,1-2.83,3.56c-10.16,2.56-18.59,7-25.07,13.1-9.65,9.13-14.54,20.76-14.54,34.55,0,10.82,3.15,19.81,9.37,26.7,5.43,6,12.77,10.9,21.75,14.46a91.05,91.05,0,0,0,13.35,4.36c4.2,1,8.47,2,12.7,2.88,4,.82,7.76,1.69,11.26,2.56,3.32.83,6.42,1.75,9.23,2.73a16.12,16.12,0,0,1,6.35,3.71c.72.75.87,2.37.87,3.59C4140,1031.21,4138.78,1033.44,4135.77,1035.39Zm9-17.12a23.83,23.83,0,0,0-9.46-5.7c-3-1.06-6.35-2-9.91-2.93s-7.49-1.79-11.57-2.64-8.32-1.8-12.42-2.81a82.4,82.4,0,0,1-12.25-4c-7.88-3.13-14.22-7.3-18.82-12.41-4.85-5.38-7.31-12.56-7.31-21.34,0-11.51,4-21.18,12-28.75,5.47-5.18,12.71-8.92,21.52-11.14a11.69,11.69,0,0,0,8.88-11.32v-9.55a3.66,3.66,0,0,1,3.65-3.66h17.63a3.66,3.66,0,0,1,3.65,3.66v9.83a11.68,11.68,0,0,0,8.67,11.26,55.77,55.77,0,0,1,15.49,6.55,66.77,66.77,0,0,1,16.56,14.14,3.66,3.66,0,0,1-.43,5l-14.38,12.76a3.67,3.67,0,0,1-5.14-.29A49.13,49.13,0,0,0,4137,954.27c-5.64-2.89-12.8-4.36-21.29-4.36-8.19,0-14.65,1.55-19.19,4.6-4.19,2.82-6.15,6.31-6.15,11a9.09,9.09,0,0,0,2.52,6.8,26.4,26.4,0,0,0,8.33,5.32l.16.06a70.91,70.91,0,0,0,10.1,2.92c4,.87,8.09,1.73,12,2.54,4.23.88,8.38,1.79,12.36,2.69a83.42,83.42,0,0,1,12,3.65,52,52,0,0,1,19.44,13.35c5.39,6,8.12,14.2,8.12,24.36a42.74,42.74,0,0,1-3.7,18.24,41.59,41.59,0,0,1-10.17,13.61,49.49,49.49,0,0,1-15.4,9c-2.27.85-4.65,1.6-7.07,2.25a11.65,11.65,0,0,0-8.65,11.25v14.73a3.66,3.66,0,0,1-3.65,3.66h-17.63a3.66,3.66,0,0,1-3.65-3.66v-13.48a11.68,11.68,0,0,0-9.34-11.42,70.62,70.62,0,0,1-19.7-6.9c-9-4.87-16.23-10.82-21.47-17.7a3.66,3.66,0,0,1,.59-5l15.54-12.75a3.58,3.58,0,0,1,2.31-.83h.37a3.63,3.63,0,0,1,2.47,1.33,50.48,50.48,0,0,0,16.55,13.19c6.49,3.28,14.63,5,24.22,5s17.35-1.87,23.06-5.56c5.28-3.41,7.84-8.21,7.84-14.68C4148,1021.5,4145.59,1019.07,4144.81,1018.27Z" style="fill:#fff"/><path d="M4711.45,315a78.48,78.48,0,0,0,21.95,7.72,3.64,3.64,0,0,1,2.9,3.57v13.48A11.67,11.67,0,0,0,4748,351.42h17.62a11.66,11.66,0,0,0,11.65-11.66V325a3.64,3.64,0,0,1,2.7-3.52c2.69-.71,5.32-1.55,7.83-2.49a57,57,0,0,0,17.88-10.53,49.32,49.32,0,0,0,12.13-16.21,50.66,50.66,0,0,0,4.46-21.63c0-12.19-3.43-22.19-10.18-29.7h0a60,60,0,0,0-22.4-15.43l-.11,0a91.86,91.86,0,0,0-13.15-4c-4.05-.91-8.25-1.82-12.5-2.71-3.93-.81-8-1.66-12-2.53a62.83,62.83,0,0,1-8.88-2.55,18.55,18.55,0,0,1-5.77-3.61,2.53,2.53,0,0,1-.15-1.12c0-1.73.41-2.87,2.62-4.36,3.15-2.12,8.24-3.23,14.72-3.23,7.21,0,13.15,1.16,17.64,3.47a41,41,0,0,1,11.95,8.89,11.68,11.68,0,0,0,16.41.93l14.38-12.75a11.65,11.65,0,0,0,1.36-16c-4.49-5.62-10.73-11-18.52-15.9a64.07,64.07,0,0,0-17.7-7.52,3.67,3.67,0,0,1-2.74-3.53v-9.83a11.66,11.66,0,0,0-11.65-11.66H4748a11.67,11.67,0,0,0-11.66,11.66v9.55a3.69,3.69,0,0,1-2.83,3.56c-10.15,2.56-18.59,7-25.07,13.1-9.65,9.13-14.54,20.76-14.54,34.55,0,10.82,3.16,19.81,9.38,26.7,5.43,6,12.76,10.9,21.74,14.46a91.05,91.05,0,0,0,13.35,4.36c4.21,1,8.48,2,12.7,2.88,4,.82,7.75,1.69,11.26,2.56,3.33.83,6.43,1.75,9.23,2.73a16.12,16.12,0,0,1,6.35,3.71c.72.75.87,2.37.87,3.59,0,3.78-1.17,6-4.18,8-4.39,2.84-10.69,4.28-18.72,4.28-8.32,0-15.25-1.37-20.6-4.08a42.74,42.74,0,0,1-14-11.11,11.66,11.66,0,0,0-16.42-1.65L4689.31,279a11.62,11.62,0,0,0-1.88,16.07C4693.36,302.89,4701.45,309.59,4711.45,315Zm-17.07-29.77,15.54-12.75a3.64,3.64,0,0,1,2.31-.83,2.42,2.42,0,0,1,.38,0,3.58,3.58,0,0,1,2.46,1.32,50.57,50.57,0,0,0,16.56,13.2c6.48,3.28,14.63,4.94,24.21,4.94s17.36-1.87,23.07-5.56c5.27-3.41,7.83-8.21,7.83-14.68,0-5.93-2.36-8.36-3.14-9.16a23.83,23.83,0,0,0-9.46-5.7c-3-1-6.35-2-9.91-2.93s-7.5-1.79-11.57-2.63-8.31-1.8-12.42-2.82a81.89,81.89,0,0,1-12.24-4c-7.89-3.13-14.22-7.3-18.82-12.41-4.86-5.38-7.32-12.56-7.32-21.34,0-11.51,4.05-21.18,12-28.74,5.48-5.18,12.72-8.93,21.52-11.15a11.68,11.68,0,0,0,8.88-11.32v-9.55a3.66,3.66,0,0,1,3.66-3.66h17.62a3.65,3.65,0,0,1,3.65,3.66V159a11.68,11.68,0,0,0,8.67,11.26,56.07,56.07,0,0,1,15.49,6.55A66.4,66.4,0,0,1,4810,190.91a3.65,3.65,0,0,1-.43,5l-14.38,12.76a3.66,3.66,0,0,1-5.14-.29,49,49,0,0,0-14.26-10.67c-5.64-2.89-12.8-4.35-21.29-4.35-8.19,0-14.64,1.54-19.18,4.59-4.2,2.82-6.16,6.32-6.16,11a9.09,9.09,0,0,0,2.52,6.8,26.4,26.4,0,0,0,8.33,5.32l.16.06a70.15,70.15,0,0,0,10.11,2.92c4,.87,8.08,1.73,12,2.54,4.2.88,8.36,1.78,12.36,2.69a83.94,83.94,0,0,1,12.05,3.65,52.13,52.13,0,0,1,19.43,13.35c5.39,6,8.13,14.2,8.13,24.36a42.82,42.82,0,0,1-3.71,18.25,41.56,41.56,0,0,1-10.17,13.6,49.55,49.55,0,0,1-15.39,9c-2.27.85-4.65,1.6-7.08,2.25a11.65,11.65,0,0,0-8.65,11.25v14.73a3.65,3.65,0,0,1-3.65,3.66H4748a3.66,3.66,0,0,1-3.66-3.66V326.28a11.67,11.67,0,0,0-9.33-11.42,70.58,70.58,0,0,1-19.71-6.9c-9-4.87-16.22-10.82-21.46-17.7A3.65,3.65,0,0,1,4694.38,285.22Z" style="fill:#fff"/><path d="M3374.48,461.53a78.48,78.48,0,0,0,21.95,7.72,3.64,3.64,0,0,1,2.9,3.57V486.3A11.67,11.67,0,0,0,3411,498h17.62a11.66,11.66,0,0,0,11.65-11.66V471.57a3.64,3.64,0,0,1,2.7-3.52c2.68-.71,5.32-1.55,7.83-2.49A57,57,0,0,0,3468.67,455a49.43,49.43,0,0,0,12.13-16.21,50.69,50.69,0,0,0,4.46-21.63c0-12.19-3.43-22.19-10.18-29.7h0a59.88,59.88,0,0,0-22.4-15.43l-.11-.05a93.55,93.55,0,0,0-13.15-4c-4.05-.91-8.25-1.83-12.5-2.71-3.93-.81-8-1.66-12-2.53a62.83,62.83,0,0,1-8.88-2.55,18.55,18.55,0,0,1-5.77-3.61,2.58,2.58,0,0,1-.15-1.12c0-1.73.41-2.87,2.62-4.36,3.15-2.12,8.24-3.24,14.72-3.24,7.21,0,13.15,1.17,17.64,3.48a41,41,0,0,1,12,8.89,11.69,11.69,0,0,0,16.41.93l14.38-12.75a11.65,11.65,0,0,0,1.36-16,74.92,74.92,0,0,0-18.52-15.91A64.06,64.06,0,0,0,3443,309a3.67,3.67,0,0,1-2.74-3.53v-9.83A11.66,11.66,0,0,0,3428.61,284H3411a11.67,11.67,0,0,0-11.66,11.66v9.55a3.69,3.69,0,0,1-2.83,3.56c-10.15,2.56-18.58,7-25.07,13.1-9.64,9.13-14.54,20.76-14.54,34.55,0,10.82,3.16,19.81,9.38,26.7,5.43,6,12.76,10.9,21.74,14.46a91.05,91.05,0,0,0,13.35,4.36c4.19,1,8.47,2,12.7,2.88,4,.82,7.76,1.69,11.26,2.56,3.32.83,6.42,1.75,9.23,2.73a16,16,0,0,1,6.35,3.72c.76.78.87,2.58.87,3.58,0,3.78-1.17,6-4.18,8-4.39,2.84-10.69,4.28-18.72,4.28-8.32,0-15.25-1.38-20.6-4.08a42.74,42.74,0,0,1-14-11.11,11.64,11.64,0,0,0-16.42-1.65l-15.54,12.76a11.61,11.61,0,0,0-1.88,16.07C3356.39,449.43,3364.48,456.12,3374.48,461.53Zm-17.06-29.77L3373,419a3.58,3.58,0,0,1,2.31-.83h.37a3.63,3.63,0,0,1,2.47,1.33,50.42,50.42,0,0,0,16.56,13.19c6.48,3.28,14.63,5,24.21,5s17.36-1.87,23.07-5.56c5.27-3.41,7.83-8.21,7.83-14.68,0-5.94-2.36-8.37-3.14-9.16a23.83,23.83,0,0,0-9.46-5.7c-3-1.06-6.35-2-9.91-2.93s-7.5-1.79-11.57-2.63-8.32-1.81-12.42-2.82a82.65,82.65,0,0,1-12.24-4c-7.89-3.13-14.22-7.3-18.82-12.41-4.86-5.37-7.32-12.56-7.32-21.34,0-11.51,4.05-21.18,12-28.74,5.48-5.19,12.72-8.93,21.52-11.15a11.69,11.69,0,0,0,8.88-11.32v-9.55A3.66,3.66,0,0,1,3411,292h17.62a3.65,3.65,0,0,1,3.65,3.66v9.83a11.68,11.68,0,0,0,8.67,11.26,56.07,56.07,0,0,1,15.49,6.55A66.77,66.77,0,0,1,3473,337.45a3.65,3.65,0,0,1-.43,5l-14.38,12.76a3.66,3.66,0,0,1-5.14-.29,49,49,0,0,0-14.26-10.67c-5.64-2.89-12.8-4.36-21.29-4.36-8.19,0-14.64,1.55-19.18,4.6-4.2,2.82-6.16,6.31-6.16,11a9.11,9.11,0,0,0,2.52,6.8,26.17,26.17,0,0,0,8.34,5.32l.15.06a71.06,71.06,0,0,0,10.11,2.92c4,.87,8.08,1.73,12,2.54,4.2.88,8.36,1.78,12.36,2.69a83.42,83.42,0,0,1,12,3.65,52,52,0,0,1,19.44,13.35c5.39,6,8.13,14.2,8.13,24.36a42.78,42.78,0,0,1-3.71,18.24A41.59,41.59,0,0,1,3463.38,449a49.49,49.49,0,0,1-15.4,9c-2.26.85-4.64,1.6-7.07,2.25a11.65,11.65,0,0,0-8.65,11.25V486.3a3.65,3.65,0,0,1-3.65,3.66H3411a3.66,3.66,0,0,1-3.66-3.66V472.82A11.67,11.67,0,0,0,3398,461.4a70.58,70.58,0,0,1-19.71-6.9c-9-4.87-16.22-10.82-21.46-17.7A3.64,3.64,0,0,1,3357.42,431.76Z" style="fill:#fff"/><path d="M4340,2535.48a57.81,57.81,0,0,0-21.61-14.88l-.12,0a88.24,88.24,0,0,0-12.68-3.85c-3.9-.88-8-1.76-12-2.62-3.78-.78-7.66-1.6-11.53-2.43a61.72,61.72,0,0,1-8.53-2.45,17.77,17.77,0,0,1-5.48-3.41,2.72,2.72,0,0,1-.12-1c0-1.61.38-2.69,2.45-4.08,3-2,7.88-3.09,14.09-3.09,6.92,0,12.61,1.12,16.92,3.33a39.48,39.48,0,0,1,11.46,8.52,11.4,11.4,0,0,0,16,.92l13.85-12.29a11.36,11.36,0,0,0,1.33-15.6,72,72,0,0,0-17.88-15.35,61.75,61.75,0,0,0-17.08-7.25,3.38,3.38,0,0,1-2.52-3.26v-9.47a11.38,11.38,0,0,0-11.37-11.36h-17a11.38,11.38,0,0,0-11.37,11.36v9.21a3.41,3.41,0,0,1-2.62,3.28c-9.8,2.46-17.94,6.72-24.2,12.64-9.32,8.83-14,20-14,33.38,0,10.46,3.05,19.14,9.06,25.81,5.24,5.82,12.33,10.52,21,14a87.41,87.41,0,0,0,12.88,4.2c4,1,8.16,1.93,12.23,2.77,3.83.8,7.47,1.63,10.84,2.47,3.19.8,6.17,1.68,8.87,2.62a15.33,15.33,0,0,1,6.05,3.54c.7.72.8,2.41.8,3.36,0,3.58-1.1,5.69-4,7.53-4.21,2.72-10.25,4.1-17.95,4.1-8,0-14.64-1.32-19.77-3.92a41,41,0,0,1-13.4-10.65,11.37,11.37,0,0,0-16-1.61l-15,12.28a11.33,11.33,0,0,0-1.83,15.68c5.72,7.51,13.52,14,23.17,19.19a75.81,75.81,0,0,0,21.17,7.44,3.35,3.35,0,0,1,2.68,3.29v13a11.37,11.37,0,0,0,11.37,11.36h17a11.37,11.37,0,0,0,11.37-11.36v-14.19a3.34,3.34,0,0,1,2.48-3.24c2.59-.69,5.13-1.5,7.56-2.41a55.34,55.34,0,0,0,17.26-10.16,47.74,47.74,0,0,0,11.71-15.65,49,49,0,0,0,4.31-20.9c0-11.77-3.31-21.43-9.84-28.7Zm-1.72,46.21a39.77,39.77,0,0,1-9.75,13,47.31,47.31,0,0,1-14.78,8.67c-2.18.82-4.47,1.54-6.8,2.16a11.38,11.38,0,0,0-8.43,11v14.19a3.37,3.37,0,0,1-3.37,3.36h-17a3.37,3.37,0,0,1-3.37-3.36v-13a11.37,11.37,0,0,0-9.11-11.13,67.61,67.61,0,0,1-18.93-6.64c-8.65-4.67-15.59-10.39-20.62-17a3.35,3.35,0,0,1,.54-4.64l15-12.28a3.36,3.36,0,0,1,2.13-.77l.35,0a3.34,3.34,0,0,1,2.27,1.22,48.85,48.85,0,0,0,16,12.74c6.26,3.17,14.13,4.78,23.38,4.78s16.77-1.81,22.29-5.38c5.12-3.31,7.61-8,7.61-14.25,0-5.78-2.3-8.15-3.06-8.93a23.23,23.23,0,0,0-9.17-5.53c-2.91-1-6.12-2-9.55-2.82s-7.22-1.72-11.15-2.54-8-1.73-12-2.7A81.3,81.3,0,0,1,4259,2538c-7.58-3-13.65-7-18.07-11.91-4.65-5.15-7-12-7-20.45,0-11,3.88-20.32,11.54-27.57,5.25-5,12.2-8.57,20.66-10.69a11.41,11.41,0,0,0,8.66-11v-9.21a3.37,3.37,0,0,1,3.37-3.36h17a3.37,3.37,0,0,1,3.37,3.36v9.47a11.4,11.4,0,0,0,8.46,11,53.71,53.71,0,0,1,14.87,6.28c6.76,4.29,12.12,8.85,15.9,13.59a3.37,3.37,0,0,1-.39,4.62l-13.85,12.28a3.37,3.37,0,0,1-4.74-.27,47.28,47.28,0,0,0-13.77-10.3c-5.45-2.79-12.37-4.21-20.57-4.21-7.91,0-14.15,1.5-18.55,4.45-4.09,2.75-6,6.15-6,10.72a8.9,8.9,0,0,0,2.47,6.65,25.39,25.39,0,0,0,8.07,5.15l.15.06a68.83,68.83,0,0,0,9.75,2.82c3.89.84,7.79,1.66,11.59,2.45,4,.84,8,1.71,11.9,2.58a81.08,81.08,0,0,1,11.57,3.51,49.81,49.81,0,0,1,18.66,12.82c5.17,5.75,7.79,13.61,7.79,23.35A41.11,41.11,0,0,1,4338.25,2581.69Z" style="fill:#fff"/><path d="M397.3,2633.94a57.77,57.77,0,0,0-21.59-14.88l-.14,0a87.88,87.88,0,0,0-12.69-3.85c-3.9-.89-7.95-1.77-12-2.62-3.78-.78-7.65-1.6-11.52-2.44a60.4,60.4,0,0,1-8.53-2.44,17.65,17.65,0,0,1-5.48-3.41,2.33,2.33,0,0,1-.13-1c0-1.61.38-2.68,2.45-4.07,3-2,7.89-3.09,14.1-3.09,6.92,0,12.61,1.12,16.92,3.33a39.48,39.48,0,0,1,11.46,8.52,11.41,11.41,0,0,0,16,.92L400,2596.56a11.35,11.35,0,0,0,1.33-15.6,71.9,71.9,0,0,0-17.87-15.35,61.69,61.69,0,0,0-17.09-7.25,3.39,3.39,0,0,1-2.52-3.26v-9.47a11.38,11.38,0,0,0-11.36-11.36h-17a11.38,11.38,0,0,0-11.37,11.36v9.2a3.42,3.42,0,0,1-2.62,3.29c-9.8,2.46-17.94,6.72-24.2,12.64-9.32,8.83-14.05,20.06-14.05,33.38,0,10.46,3.05,19.14,9.07,25.81,5.24,5.82,12.32,10.52,21,14a87.67,87.67,0,0,0,12.87,4.2c4,1,8.15,1.93,12.24,2.77,3.82.8,7.47,1.63,10.83,2.47,3.2.8,6.18,1.68,8.87,2.62a15.3,15.3,0,0,1,6.06,3.54c.7.72.8,2.41.8,3.36,0,3.58-1.11,5.69-4,7.53-4.2,2.72-10.24,4.1-17.94,4.1-8,0-14.64-1.32-19.77-3.92a40.91,40.91,0,0,1-13.4-10.65,11.38,11.38,0,0,0-16-1.61l-15,12.28a11.34,11.34,0,0,0-1.83,15.68,71.39,71.39,0,0,0,23.18,19.19,75.59,75.59,0,0,0,21.17,7.44,3.36,3.36,0,0,1,2.68,3.29v13a11.37,11.37,0,0,0,11.37,11.36h17a11.37,11.37,0,0,0,11.36-11.36V2715a3.35,3.35,0,0,1,2.49-3.24c2.59-.69,5.13-1.5,7.55-2.41a55.08,55.08,0,0,0,17.27-10.16,47.82,47.82,0,0,0,11.71-15.66,48.94,48.94,0,0,0,4.3-20.89c0-11.77-3.3-21.43-9.83-28.7Zm-1.72,46.2a39.84,39.84,0,0,1-9.75,13.05,47.31,47.31,0,0,1-14.78,8.67c-2.18.82-4.47,1.54-6.8,2.16a11.37,11.37,0,0,0-8.44,11v14.19a3.37,3.37,0,0,1-3.36,3.36h-17a3.37,3.37,0,0,1-3.37-3.36v-13a11.37,11.37,0,0,0-9.11-11.13,68.11,68.11,0,0,1-18.94-6.64,63.21,63.21,0,0,1-20.61-17,3.34,3.34,0,0,1,.54-4.64l15-12.29a3.38,3.38,0,0,1,2.13-.76l.34,0a3.34,3.34,0,0,1,2.28,1.22,48.85,48.85,0,0,0,16,12.74c6.26,3.17,14.13,4.78,23.38,4.78s16.76-1.81,22.28-5.38c5.13-3.31,7.62-8,7.62-14.25,0-5.78-2.31-8.15-3.07-8.94a23.22,23.22,0,0,0-9.16-5.52c-2.91-1-6.13-2-9.56-2.82s-7.22-1.72-11.15-2.54-8-1.74-11.95-2.7a81.43,81.43,0,0,1-11.77-3.85c-7.57-3-13.65-7-18.06-11.91-4.65-5.15-7-12-7-20.45,0-11,3.89-20.32,11.55-27.57,5.25-5,12.2-8.57,20.65-10.69a11.42,11.42,0,0,0,8.67-11.05v-9.2a3.37,3.37,0,0,1,3.37-3.36h17a3.37,3.37,0,0,1,3.36,3.36v9.47a11.4,11.4,0,0,0,8.46,11,53.58,53.58,0,0,1,14.87,6.28A64,64,0,0,1,395.05,2586a3.36,3.36,0,0,1-.4,4.62l-13.84,12.28a3.39,3.39,0,0,1-4.75-.27,47.19,47.19,0,0,0-13.76-10.3c-5.45-2.8-12.37-4.21-20.57-4.21-7.92,0-14.16,1.5-18.56,4.45-4.08,2.74-6,6.15-6,10.71a8.91,8.91,0,0,0,2.47,6.66,25.51,25.51,0,0,0,8.07,5.15l.16.06a68.48,68.48,0,0,0,9.75,2.81c3.89.85,7.79,1.67,11.59,2.46,4,.84,8,1.71,11.9,2.58a80.4,80.4,0,0,1,11.47,3.47l.1,0a49.89,49.89,0,0,1,18.66,12.82c5.17,5.75,7.78,13.61,7.78,23.35A41,41,0,0,1,395.58,2680.14Z" style="fill:#fff"/></g></svg>