<svg xmlns="http://www.w3.org/2000/svg" xmlns:xlink="http://www.w3.org/1999/xlink" viewBox="0 0 568.94 206.21"><defs><clipPath id="clip-path"><rect x="3.15" y="1.5" width="561.6" height="201.6" style="fill:none"/></clipPath></defs><title>Asset 1</title><g id="Layer_2" data-name="Layer 2"><g id="Layer_1-2" data-name="Layer 1"><rect x="3.15" y="1.5" width="561.6" height="201.6" style="fill:#091029"/><g style="clip-path:url(#clip-path)"><polygon points="242.78 64.19 242.39 64.41 242.39 63.96 242.78 64.19" style="fill:#205cff"/><polygon points="269.63 65.62 267.15 64.19 269.63 62.76 269.63 65.62" style="fill:#205cff"/><polygon points="286.13 64.19 279.84 67.82 279.84 60.55 286.13 64.19" style="fill:#205cff"/><polygon points="288.96 53.6 287.59 52.81 288.96 52.02 288.96 53.6" style="fill:#205cff"/><polygon points="311.55 69.96 301.55 64.19 311.55 58.41 311.55 69.96" style="fill:#205cff"/><polygon points="303.22 52.81 300.86 54.17 300.86 51.45 303.22 52.81" style="fill:#205cff"/><polygon points="328.31 76.24 327.14 75.56 328.31 74.89 328.31 76.24" style="fill:#205cff"/><polygon points="327.9 64.19 318.08 69.86 318.08 58.51 327.9 64.19" style="fill:#205cff"/><polygon points="344.66 75.56 339.26 78.69 339.26 72.44 344.66 75.56" style="fill:#205cff"/><polygon points="330.86 57.9 322.04 52.81 330.86 47.71 330.86 57.9" style="fill:#205cff"/><polygon points="352.16 72.04 338.56 64.19 352.16 56.34 352.16 72.04" style="fill:#205cff"/><polygon points="346.94 52.81 338.12 57.9 338.12 47.71 346.94 52.81" style="fill:#205cff"/><polygon points="369.19 78.77 363.64 75.56 369.19 72.36 369.19 78.77" style="fill:#205cff"/><polygon points="369.83 64.19 356.23 72.04 356.23 56.34 369.83 64.19" style="fill:#205cff"/><polygon points="347.63 41.43 347.63 41.43 347.63 41.43 347.63 41.43" style="fill:#205cff"/><polygon points="384.87 75.56 378.28 79.37 378.28 71.76 384.87 75.56" style="fill:#205cff"/><polygon points="371.07 59.28 359.86 52.81 371.07 46.34 371.07 59.28" style="fill:#205cff"/><polygon points="391.58 72.04 377.98 64.19 391.58 56.34 391.58 72.04" style="fill:#205cff"/><polygon points="389.54 52.81 375.94 60.66 375.94 44.96 389.54 52.81" style="fill:#205cff"/><polygon points="407.7 77.21 404.86 75.56 407.7 73.92 407.7 77.21" style="fill:#205cff"/><polygon points="409.25 64.19 395.65 72.04 395.65 56.34 409.25 64.19" style="fill:#205cff"/><polygon points="387.99 43.07 385.15 41.43 387.99 39.79 387.99 43.07" style="fill:#205cff"/><polygon points="368.28 8.94 365.44 7.3 368.28 5.66 368.28 8.94" style="fill:#205cff"/><polygon points="446.66 121.93 445.18 121.08 446.66 120.22 446.66 121.93" style="fill:#205cff"/><polygon points="440.02 109.7 439.39 110.06 439.39 109.34 440.02 109.7" style="fill:#205cff"/><polygon points="422.12 75.56 418.77 77.5 418.77 73.63 422.12 75.56" style="fill:#205cff"/><polygon points="411.28 60.66 397.69 52.81 411.28 44.96 411.28 60.66" style="fill:#205cff"/><polygon points="402.67 41.43 398.94 43.59 398.94 39.27 402.67 41.43" style="fill:#205cff"/><polygon points="381.53 7.3 379.95 8.21 379.95 6.38 381.53 7.3" style="fill:#205cff"/><polygon points="430.99 72.04 417.39 64.19 430.99 56.34 430.99 72.04" style="fill:#205cff"/><polygon points="428.95 52.81 415.36 60.66 415.36 44.96 428.95 52.81" style="fill:#205cff"/><polygon points="448.37 79.37 441.77 75.56 448.37 71.76 448.37 79.37" style="fill:#205cff"/><polygon points="448.66 64.19 435.06 72.04 435.06 56.34 448.66 64.19" style="fill:#205cff"/><polygon points="429.02 45.87 421.33 41.43 429.02 36.99 429.02 45.87" style="fill:#205cff"/><polygon points="407.87 9.23 404.52 7.3 407.87 5.37 407.87 9.23" style="fill:#205cff"/><polygon points="462.15 75.56 457.88 78.03 457.88 73.1 462.15 75.56" style="fill:#205cff"/><polygon points="450.7 60.66 437.1 52.81 450.7 44.96 450.7 60.66" style="fill:#205cff"/><polygon points="444.72 41.43 437.03 45.87 437.03 36.99 444.72 41.43" style="fill:#205cff"/><polygon points="425.02 7.3 417.33 11.74 417.33 2.86 425.02 7.3" style="fill:#205cff"/><polygon points="479.1 86.94 478.97 87.02 478.97 86.87 479.1 86.94" style="fill:#205cff"/><polygon points="470.41 72.04 456.81 64.19 470.41 56.34 470.41 72.04" style="fill:#205cff"/><polygon points="468.37 52.81 454.77 60.66 454.77 44.96 468.37 52.81" style="fill:#205cff"/><polygon points="487.38 78.69 481.98 75.56 487.38 72.44 487.38 78.69" style="fill:#205cff"/><polygon points="488.08 64.19 474.48 72.04 474.48 56.34 488.08 64.19" style="fill:#205cff"/><polygon points="469.44 47.6 458.75 41.43 469.44 35.26 469.44 47.6" style="fill:#205cff"/><polygon points="448.47 11.28 441.56 7.3 448.47 3.31 448.47 11.28" style="fill:#205cff"/><polygon points="525.02 121.12 524.94 121.08 525.02 121.03 525.02 121.12" style="fill:#205cff"/><polygon points="505.39 87.13 505.07 86.94 505.39 86.76 505.39 87.13" style="fill:#205cff"/><polygon points="501.48 75.56 497.34 77.95 497.34 73.18 501.48 75.56" style="fill:#205cff"/><polygon points="490.11 60.66 476.51 52.81 490.11 44.96 490.11 60.66" style="fill:#205cff"/><polygon points="487.2 41.43 474.92 48.52 474.92 34.34 487.2 41.43" style="fill:#205cff"/><polygon points="462.71 7.3 457.6 10.25 457.6 4.34 462.71 7.3" style="fill:#205cff"/><polygon points="539.48 121.08 537.46 122.24 537.46 119.91 539.48 121.08" style="fill:#205cff"/><polygon points="525.63 99.42 523.73 98.32 525.63 97.22 525.63 99.42" style="fill:#205cff"/><polygon points="520.16 86.94 517.56 88.44 517.56 85.44 520.16 86.94" style="fill:#205cff"/><polygon points="509.82 72.04 496.22 64.19 509.82 56.34 509.82 72.04" style="fill:#205cff"/><polygon points="507.78 52.81 494.19 60.66 494.19 44.96 507.78 52.81" style="fill:#205cff"/><polygon points="486.74 32.06 483.26 30.05 486.74 28.05 486.74 32.06" style="fill:#205cff"/><polygon points="479.43 18.68 478.8 19.04 478.8 18.31 479.43 18.68" style="fill:#205cff"/><polygon points="539.26 98.32 537.57 99.3 537.57 97.35 539.26 98.32" style="fill:#205cff"/><polygon points="527.4 79.73 520.18 75.56 527.4 71.4 527.4 79.73" style="fill:#205cff"/><polygon points="527.49 64.19 513.89 72.04 513.89 56.34 527.49 64.19" style="fill:#205cff"/><polygon points="509.82 49.28 496.22 41.43 509.82 33.58 509.82 49.28" style="fill:#205cff"/><polygon points="502.42 30.05 496.87 33.26 496.87 26.85 502.42 30.05" style="fill:#205cff"/><polygon points="487.68 10.93 481.38 7.3 487.68 3.66 487.68 10.93" style="fill:#205cff"/><polygon points="566.16 124.11 560.9 121.08 566.16 118.04 566.16 124.11" style="fill:#205cff"/><polygon points="558.83 109.7 557.35 110.55 557.35 108.85 558.83 109.7" style="fill:#205cff"/><polygon points="545.86 88.95 542.39 86.94 545.86 84.94 545.86 88.95" style="fill:#205cff"/><polygon points="543.26 75.56 535.57 80 535.57 71.13 543.26 75.56" style="fill:#205cff"/><polygon points="529.53 60.66 515.93 52.81 529.53 44.96 529.53 60.66" style="fill:#205cff"/><polygon points="527.49 41.43 513.89 49.28 513.89 33.58 527.49 41.43" style="fill:#205cff"/><polygon points="506.28 20.39 503.31 18.68 506.28 16.96 506.28 20.39" style="fill:#205cff"/><polygon points="500.06 7.3 498.05 8.46 498.05 6.13 500.06 7.3" style="fill:#205cff"/><polygon points="559.9 86.94 556.81 88.73 556.81 85.16 559.9 86.94" style="fill:#205cff"/><polygon points="549.24 72.04 535.64 64.19 549.24 56.34 549.24 72.04" style="fill:#205cff"/><polygon points="547.2 52.81 533.6 60.66 533.6 44.96 547.2 52.81" style="fill:#205cff"/><polygon points="529.15 37.24 516.69 30.05 529.15 22.86 529.15 37.24" style="fill:#205cff"/><polygon points="523.03 18.68 516.13 22.66 516.13 14.69 523.03 18.68" style="fill:#205cff"/><polygon points="568.38 82.45 556.46 75.56 568.38 68.68 568.38 82.45" style="fill:#205cff"/><polygon points="566.91 64.19 553.31 72.04 553.31 56.34 566.91 64.19" style="fill:#205cff"/><polygon points="549.24 49.28 535.64 41.43 549.24 33.58 549.24 49.28" style="fill:#205cff"/><polygon points="546.68 30.05 533.86 37.45 533.86 22.65 546.68 30.05" style="fill:#205cff"/><polygon points="525.86 8.8 523.26 7.3 525.86 5.79 525.86 8.8" style="fill:#205cff"/><polygon points="568.94 60.66 555.35 52.81 568.94 44.96 568.94 60.66" style="fill:#205cff"/><polygon points="566.91 41.43 553.31 49.28 553.31 33.58 566.91 41.43" style="fill:#205cff"/><polygon points="548.09 24.55 537.92 18.68 548.09 12.8 548.09 24.55" style="fill:#205cff"/><polygon points="543.37 7.3 535.52 11.83 535.52 2.76 543.37 7.3" style="fill:#205cff"/><polygon points="567.52 35.44 558.19 30.05 567.52 24.67 567.52 35.44" style="fill:#205cff"/><polygon points="563.62 18.68 554.95 23.68 554.95 13.67 563.62 18.68" style="fill:#205cff"/><polygon points="568.62 14.59 555.99 7.3 568.62 0 568.62 14.59" style="fill:#205cff"/><polygon points="326.16 142.02 326.55 141.8 326.55 142.25 326.16 142.02" style="fill:#205cff"/><polygon points="299.32 140.59 301.8 142.02 299.32 143.46 299.32 140.59" style="fill:#205cff"/><polygon points="282.81 142.02 289.1 138.39 289.1 145.66 282.81 142.02" style="fill:#205cff"/><polygon points="279.98 152.61 281.35 153.4 279.98 154.19 279.98 152.61" style="fill:#205cff"/><polygon points="257.4 136.25 267.39 142.02 257.4 147.8 257.4 136.25" style="fill:#205cff"/><polygon points="265.72 153.4 268.09 152.04 268.09 154.76 265.72 153.4" style="fill:#205cff"/><polygon points="240.63 129.97 241.8 130.65 240.63 131.32 240.63 129.97" style="fill:#205cff"/><polygon points="241.04 142.02 250.87 136.35 250.87 147.7 241.04 142.02" style="fill:#205cff"/><polygon points="224.28 130.65 229.69 127.53 229.69 133.76 224.28 130.65" style="fill:#205cff"/><polygon points="238.08 148.31 246.91 153.4 238.08 158.5 238.08 148.31" style="fill:#205cff"/><polygon points="216.78 134.17 230.38 142.02 216.78 149.87 216.78 134.17" style="fill:#205cff"/><polygon points="222 153.4 230.82 148.31 230.82 158.5 222 153.4" style="fill:#205cff"/><polygon points="199.76 127.44 205.31 130.65 199.76 133.85 199.76 127.44" style="fill:#205cff"/><polygon points="199.11 142.02 212.71 134.17 212.71 149.87 199.11 142.02" style="fill:#205cff"/><polygon points="221.31 164.78 221.32 164.78 221.31 164.78 221.31 164.78" style="fill:#205cff"/><polygon points="184.07 130.65 190.67 126.84 190.67 134.45 184.07 130.65" style="fill:#205cff"/><polygon points="197.87 146.93 209.08 153.4 197.87 159.87 197.87 146.93" style="fill:#205cff"/><polygon points="177.37 134.17 190.97 142.02 177.37 149.87 177.37 134.17" style="fill:#205cff"/><polygon points="179.4 153.4 193 145.55 193 161.25 179.4 153.4" style="fill:#205cff"/><polygon points="161.24 129 164.09 130.65 161.24 132.29 161.24 129" style="fill:#205cff"/><polygon points="159.7 142.02 173.29 134.17 173.29 149.87 159.7 142.02" style="fill:#205cff"/><polygon points="180.95 163.14 183.79 164.78 180.95 166.42 180.95 163.14" style="fill:#205cff"/><polygon points="200.66 197.27 203.5 198.91 200.66 200.56 200.66 197.27" style="fill:#205cff"/><polygon points="122.28 84.28 123.76 85.13 122.28 85.98 122.28 84.28" style="fill:#205cff"/><polygon points="128.93 96.51 129.56 96.15 129.56 96.87 128.93 96.51" style="fill:#205cff"/><polygon points="146.82 130.65 150.17 128.71 150.17 132.58 146.82 130.65" style="fill:#205cff"/><polygon points="157.66 145.55 171.26 153.4 157.66 161.25 157.66 145.55" style="fill:#205cff"/><polygon points="166.27 164.78 170.01 162.62 170.01 166.94 166.27 164.78" style="fill:#205cff"/><polygon points="187.41 198.91 189 198 189 199.83 187.41 198.91" style="fill:#205cff"/><polygon points="137.95 134.17 151.55 142.02 137.95 149.87 137.95 134.17" style="fill:#205cff"/><polygon points="139.99 153.4 153.59 145.55 153.59 161.25 139.99 153.4" style="fill:#205cff"/><polygon points="120.58 126.84 127.17 130.65 120.58 134.45 120.58 126.84" style="fill:#205cff"/><polygon points="120.28 142.02 133.88 134.17 133.88 149.87 120.28 142.02" style="fill:#205cff"/><polygon points="139.92 160.34 147.61 164.78 139.92 169.22 139.92 160.34" style="fill:#205cff"/><polygon points="161.08 196.98 164.42 198.91 161.08 200.84 161.08 196.98" style="fill:#205cff"/><polygon points="106.79 130.65 111.06 128.18 111.06 133.11 106.79 130.65" style="fill:#205cff"/><polygon points="118.25 145.55 131.84 153.4 118.25 161.25 118.25 145.55" style="fill:#205cff"/><polygon points="124.22 164.78 131.91 160.34 131.91 169.22 124.22 164.78" style="fill:#205cff"/><polygon points="143.93 198.91 151.62 194.47 151.62 203.35 143.93 198.91" style="fill:#205cff"/><polygon points="89.84 119.27 89.97 119.19 89.97 119.34 89.84 119.27" style="fill:#205cff"/><polygon points="98.54 134.17 112.14 142.02 98.54 149.87 98.54 134.17" style="fill:#205cff"/><polygon points="100.57 153.4 114.17 145.55 114.17 161.25 100.57 153.4" style="fill:#205cff"/><polygon points="81.56 127.53 86.97 130.65 81.56 133.76 81.56 127.53" style="fill:#205cff"/><polygon points="80.87 142.02 94.46 134.17 94.46 149.87 80.87 142.02" style="fill:#205cff"/><polygon points="99.51 158.61 110.19 164.78 99.51 170.95 99.51 158.61" style="fill:#205cff"/><polygon points="120.48 194.93 127.38 198.91 120.48 202.9 120.48 194.93" style="fill:#205cff"/><polygon points="43.92 85.09 44 85.13 43.92 85.18 43.92 85.09" style="fill:#205cff"/><polygon points="63.55 119.08 63.87 119.27 63.55 119.45 63.55 119.08" style="fill:#205cff"/><polygon points="67.47 130.65 71.6 128.26 71.6 133.03 67.47 130.65" style="fill:#205cff"/><polygon points="78.83 145.55 92.43 153.4 78.83 161.25 78.83 145.55" style="fill:#205cff"/><polygon points="81.75 164.78 94.02 157.69 94.02 171.87 81.75 164.78" style="fill:#205cff"/><polygon points="106.23 198.91 111.34 195.96 111.34 201.87 106.23 198.91" style="fill:#205cff"/><polygon points="29.46 85.13 31.48 83.97 31.48 86.3 29.46 85.13" style="fill:#205cff"/><polygon points="43.31 106.79 45.22 107.89 43.31 108.99 43.31 106.79" style="fill:#205cff"/><polygon points="48.78 119.27 51.38 117.77 51.38 120.77 48.78 119.27" style="fill:#205cff"/><polygon points="59.12 134.17 72.72 142.02 59.12 149.87 59.12 134.17" style="fill:#205cff"/><polygon points="61.16 153.4 74.76 145.55 74.76 161.25 61.16 153.4" style="fill:#205cff"/><polygon points="82.2 174.15 85.68 176.16 82.2 178.16 82.2 174.15" style="fill:#205cff"/><polygon points="89.51 187.53 90.14 187.17 90.14 187.9 89.51 187.53" style="fill:#205cff"/><polygon points="29.68 107.89 31.37 106.92 31.37 108.86 29.68 107.89" style="fill:#205cff"/><polygon points="41.54 126.48 48.76 130.65 41.54 134.81 41.54 126.48" style="fill:#205cff"/><polygon points="41.45 142.02 55.05 134.17 55.05 149.87 41.45 142.02" style="fill:#205cff"/><polygon points="59.12 156.93 72.72 164.78 59.12 172.63 59.12 156.93" style="fill:#205cff"/><polygon points="66.53 176.16 72.07 172.95 72.07 179.36 66.53 176.16" style="fill:#205cff"/><polygon points="81.27 195.28 87.56 198.91 81.27 202.55 81.27 195.28" style="fill:#205cff"/><polygon points="2.78 82.1 8.04 85.13 2.78 88.17 2.78 82.1" style="fill:#205cff"/><polygon points="10.12 96.51 11.59 95.66 11.59 97.36 10.12 96.51" style="fill:#205cff"/><polygon points="23.08 117.26 26.56 119.27 23.08 121.27 23.08 117.26" style="fill:#205cff"/><polygon points="25.68 130.65 33.37 126.2 33.37 135.09 25.68 130.65" style="fill:#205cff"/><polygon points="39.41 145.55 53.01 153.4 39.41 161.25 39.41 145.55" style="fill:#205cff"/><polygon points="41.45 164.78 55.05 156.93 55.05 172.63 41.45 164.78" style="fill:#205cff"/><polygon points="62.67 185.82 65.63 187.53 62.67 189.25 62.67 185.82" style="fill:#205cff"/><polygon points="68.88 198.91 70.9 197.75 70.9 200.08 68.88 198.91" style="fill:#205cff"/><polygon points="9.04 119.27 12.13 117.48 12.13 121.05 9.04 119.27" style="fill:#205cff"/><polygon points="19.71 134.17 33.3 142.02 19.71 149.87 19.71 134.17" style="fill:#205cff"/><polygon points="21.74 153.4 35.34 145.55 35.34 161.25 21.74 153.4" style="fill:#205cff"/><polygon points="39.8 168.97 52.25 176.16 39.8 183.35 39.8 168.97" style="fill:#205cff"/><polygon points="45.91 187.53 52.82 183.55 52.82 191.52 45.91 187.53" style="fill:#205cff"/><polygon points="0.56 123.76 12.48 130.65 0.56 137.53 0.56 123.76" style="fill:#205cff"/><polygon points="2.04 142.02 15.63 134.17 15.63 149.87 2.04 142.02" style="fill:#205cff"/><polygon points="19.71 156.93 33.3 164.78 19.71 172.63 19.71 156.93" style="fill:#205cff"/><polygon points="22.26 176.16 35.08 168.76 35.08 183.56 22.26 176.16" style="fill:#205cff"/><polygon points="43.08 197.41 45.68 198.91 43.08 200.41 43.08 197.41" style="fill:#205cff"/><polygon points="0 145.55 13.6 153.4 0 161.25 0 145.55" style="fill:#205cff"/><polygon points="2.04 164.78 15.63 156.93 15.63 172.63 2.04 164.78" style="fill:#205cff"/><polygon points="20.85 181.66 31.02 187.53 20.85 193.41 20.85 181.66" style="fill:#205cff"/><polygon points="25.58 198.91 33.43 194.38 33.43 203.45 25.58 198.91" style="fill:#205cff"/><polygon points="1.43 170.77 10.75 176.16 1.43 181.54 1.43 170.77" style="fill:#205cff"/><polygon points="5.33 187.53 13.99 182.53 13.99 192.54 5.33 187.53" style="fill:#205cff"/><polygon points="0.32 191.62 12.96 198.91 0.32 206.21 0.32 191.62" style="fill:#205cff"/></g></g></g></svg>