<svg xmlns="http://www.w3.org/2000/svg" viewBox="0 0 830.08 219.55"><title>Asset 2</title><g id="Layer_2" data-name="Layer 2"><g id="Layer_1-2" data-name="Layer 1"><g id="Object"><polygon points="241.74 72.02 234.06 72.02 234.06 61.73 235.04 61.73 235.04 60.08 228 60.08 228 54.16 228.63 54.16 228.63 52.9 225.6 52.9 225.6 47.31 222.25 47.31 222.25 27.35 221.14 27.35 221.14 47.31 219.78 47.31 219.78 36.18 218.67 36.18 218.67 47.31 215.32 47.31 215.32 52.9 211.82 52.9 211.82 54.16 212.92 54.16 212.92 60.08 205.86 60.08 205.86 61.73 206.86 61.73 206.86 72.02 199.18 72.02 199.18 73.73 200.26 73.73 200.26 218.39 240.65 218.39 240.65 73.73 241.74 73.73 241.74 72.02" style="fill:#7da0ff"/><rect x="209.36" y="63.64" width="1.26" height="7.08" style="fill:#7da0ff;opacity:0.28999999165534973;isolation:isolate"/><rect x="212.85" y="63.64" width="1.26" height="7.08" style="fill:#7da0ff;opacity:0.28999999165534973;isolation:isolate"/><rect x="216.35" y="63.64" width="1.26" height="7.08" style="fill:#7da0ff;opacity:0.28999999165534973;isolation:isolate"/><rect x="219.85" y="63.64" width="1.26" height="7.08" style="fill:#7da0ff;opacity:0.28999999165534973;isolation:isolate"/><rect x="223.35" y="63.64" width="1.26" height="7.08" style="fill:#7da0ff;opacity:0.28999999165534973;isolation:isolate"/><rect x="226.85" y="63.64" width="1.26" height="7.08" style="fill:#7da0ff;opacity:0.28999999165534973;isolation:isolate"/><rect x="230.35" y="63.64" width="1.26" height="7.08" style="fill:#7da0ff;opacity:0.28999999165534973;isolation:isolate"/><rect x="203.8" y="78.84" width="3.06" height="8.4" style="fill:#7da0ff"/><rect x="209.85" y="78.84" width="3.06" height="8.4" style="fill:#7da0ff;opacity:0.28999999165534973;isolation:isolate"/><rect x="215.9" y="78.84" width="3.06" height="8.4" style="fill:#7da0ff"/><rect x="221.95" y="78.84" width="3.06" height="8.4" style="fill:#7da0ff"/><rect x="228" y="78.84" width="3.06" height="8.4" style="fill:#7da0ff"/><rect x="234.05" y="78.84" width="3.05" height="8.4" style="fill:#7da0ff"/><rect x="203.8" y="91.94" width="3.06" height="8.4" style="fill:#7da0ff"/><rect x="209.85" y="91.94" width="3.06" height="8.4" style="fill:#7da0ff"/><rect x="215.9" y="91.94" width="3.06" height="8.4" style="fill:#7da0ff"/><rect x="221.95" y="91.94" width="3.06" height="8.4" style="fill:#7da0ff;opacity:0.28999999165534973;isolation:isolate"/><rect x="228" y="91.94" width="3.06" height="8.4" style="fill:#7da0ff"/><rect x="234.05" y="91.94" width="3.05" height="8.4" style="fill:#7da0ff"/><rect x="203.8" y="105.03" width="3.06" height="8.4" style="fill:#7da0ff"/><rect x="209.85" y="105.03" width="3.06" height="8.4" style="fill:#7da0ff"/><rect x="215.9" y="105.03" width="3.06" height="8.4" style="fill:#7da0ff"/><rect x="221.95" y="105.03" width="3.06" height="8.4" style="fill:#7da0ff"/><rect x="228" y="105.03" width="3.06" height="8.4" style="fill:#7da0ff;opacity:0.28999999165534973;isolation:isolate"/><rect x="234.05" y="105.03" width="3.05" height="8.4" style="fill:#7da0ff;opacity:0.28999999165534973;isolation:isolate"/><rect x="203.8" y="118.12" width="3.06" height="8.4" style="fill:#7da0ff;opacity:0.28999999165534973;isolation:isolate"/><rect x="209.85" y="118.12" width="3.06" height="8.4" style="fill:#7da0ff"/><rect x="215.9" y="118.12" width="3.06" height="8.4" style="fill:#7da0ff"/><rect x="221.95" y="118.12" width="3.06" height="8.4" style="fill:#7da0ff"/><rect x="228" y="118.12" width="3.06" height="8.4" style="fill:#7da0ff"/><rect x="234.05" y="118.12" width="3.05" height="8.4" style="fill:#7da0ff"/><rect x="203.8" y="131.22" width="3.06" height="8.4" style="fill:#7da0ff"/><rect x="209.85" y="131.22" width="3.06" height="8.4" style="fill:#7da0ff;opacity:0.28999999165534973;isolation:isolate"/><rect x="215.9" y="131.22" width="3.06" height="8.4" style="fill:#7da0ff"/><rect x="221.95" y="131.22" width="3.06" height="8.4" style="fill:#7da0ff;opacity:0.28999999165534973;isolation:isolate"/><rect x="228" y="131.22" width="3.06" height="8.4" style="fill:#7da0ff"/><rect x="234.05" y="131.22" width="3.05" height="8.4" style="fill:#7da0ff"/><rect x="203.8" y="144.31" width="3.06" height="8.4" style="fill:#7da0ff"/><rect x="209.85" y="144.31" width="3.06" height="8.4" style="fill:#7da0ff"/><rect x="215.9" y="144.31" width="3.06" height="8.4" style="fill:#7da0ff"/><rect x="221.95" y="144.31" width="3.06" height="8.4" style="fill:#7da0ff"/><rect x="228" y="144.31" width="3.06" height="8.4" style="fill:#7da0ff"/><rect x="234.05" y="144.31" width="3.05" height="8.4" style="fill:#7da0ff;opacity:0.28999999165534973;isolation:isolate"/><rect x="203.8" y="157.41" width="3.06" height="8.4" style="fill:#7da0ff"/><rect x="209.85" y="157.41" width="3.06" height="8.4" style="fill:#7da0ff;opacity:0.28999999165534973;isolation:isolate"/><rect x="215.9" y="157.41" width="3.06" height="8.4" style="fill:#7da0ff;opacity:0.28999999165534973;isolation:isolate"/><rect x="221.95" y="157.41" width="3.06" height="8.4" style="fill:#7da0ff"/><rect x="228" y="157.41" width="3.06" height="8.4" style="fill:#7da0ff"/><rect x="234.05" y="157.41" width="3.05" height="8.4" style="fill:#7da0ff"/><rect x="203.8" y="170.5" width="3.06" height="8.4" style="fill:#7da0ff"/><rect x="209.85" y="170.5" width="3.06" height="8.4" style="fill:#7da0ff"/><rect x="215.9" y="170.5" width="3.06" height="8.4" style="fill:#7da0ff"/><rect x="221.95" y="170.5" width="3.06" height="8.4" style="fill:#7da0ff"/><rect x="228" y="170.5" width="3.06" height="8.4" style="fill:#7da0ff;opacity:0.28999999165534973;isolation:isolate"/><rect x="234.05" y="170.5" width="3.05" height="8.4" style="fill:#7da0ff"/><rect x="203.8" y="183.6" width="3.06" height="8.4" style="fill:#7da0ff"/><rect x="209.85" y="183.6" width="3.06" height="8.4" style="fill:#7da0ff;opacity:0.28999999165534973;isolation:isolate"/><rect x="215.9" y="183.6" width="3.06" height="8.4" style="fill:#7da0ff"/><rect x="221.95" y="183.6" width="3.06" height="8.4" style="fill:#7da0ff"/><rect x="228" y="183.6" width="3.06" height="8.4" style="fill:#7da0ff"/><rect x="234.05" y="183.6" width="3.05" height="8.4" style="fill:#7da0ff"/><rect x="203.8" y="196.69" width="3.06" height="8.4" style="fill:#7da0ff"/><rect x="209.85" y="196.69" width="3.06" height="8.4" style="fill:#7da0ff"/><rect x="215.9" y="196.69" width="3.06" height="8.4" style="fill:#7da0ff"/><rect x="221.95" y="196.69" width="3.06" height="8.4" style="fill:#7da0ff;opacity:0.28999999165534973;isolation:isolate"/><rect x="228" y="196.69" width="3.06" height="8.4" style="fill:#7da0ff"/><rect x="234.05" y="196.69" width="3.05" height="8.4" style="fill:#7da0ff;opacity:0.28999999165534973;isolation:isolate"/><rect x="203.8" y="209.79" width="3.06" height="8.4" style="fill:#7da0ff;opacity:0.28999999165534973;isolation:isolate"/><rect x="209.85" y="209.79" width="3.06" height="8.4" style="fill:#7da0ff"/><rect x="215.9" y="209.79" width="3.06" height="8.4" style="fill:#7da0ff;opacity:0.28999999165534973;isolation:isolate"/><rect x="221.95" y="209.79" width="3.06" height="8.4" style="fill:#7da0ff"/><rect x="228" y="209.79" width="3.06" height="8.4" style="fill:#7da0ff"/><rect x="234.05" y="209.79" width="3.05" height="8.4" style="fill:#7da0ff"/><polygon points="149.72 76.22 145.69 76.22 145.69 71.32 113.74 71.32 113.74 63.87 101.53 63.87 99.7 59.01 96.69 59.01 96.69 50.32 95.34 50.32 95.34 59.01 89.75 59.01 89.75 63.87 89.75 69.48 89.75 71.32 85.11 71.32 85.11 76.22 81.08 76.22 81.08 80.05 82.93 80.05 82.93 214.01 147.87 214.01 147.87 80.05 149.72 80.05 149.72 76.22" style="fill:#7da0ff"/><path d="M97.23,49.11A1.22,1.22,0,1,1,96,47.9a1.21,1.21,0,0,1,1.23,1.19Z" style="fill:#7da0ff"/><polygon points="685.65 41.75 685.65 218.39 614.3 218.39 613.3 195.82 612.8 184.73 612.77 183.84 612.63 180.84 612.55 179.14 612.44 176.77 612.4 175.58 612.33 174.13 612.21 171.36 611.96 165.92 611.61 158.17 611.61 158.16 611.53 156.11 611.02 144.68 610.96 143.34 610.48 132.67 610.44 131.67 610.13 124.62 610.09 123.72 609.79 116.94 609.79 116.93 609.73 115.98 609.33 106.63 609.27 105.41 608.61 90.54 608.52 88.5 608.52 88.48 608.32 83.91 608.32 83.9 608.21 81.79 608.21 81.78 607.51 65.83 607.38 62.82 605.69 25.16 685.65 41.75" style="fill:#7da0ff"/><polygon points="379.83 110.58 379.83 218.39 303.05 218.39 303.05 110.58 309.19 110.58 309.19 43.99 316.36 43.99 316.36 0 360.38 0 360.38 26.16 364.36 26.16 364.36 43.99 375.51 43.99 375.51 110.58 379.83 110.58" style="fill:#7da0ff"/><rect x="198.07" y="159.48" width="34.05" height="58.91" style="fill:#0e0e8e"/><rect y="212.97" width="18.4" height="5.42" style="fill:#0e0e8e"/><rect x="500.73" y="170.07" width="31.17" height="41.38" style="fill:#0e0e8e"/><rect x="696.58" y="68.23" width="39.3" height="150.16" style="fill:#0e0e8e"/><rect x="725.71" y="35.04" width="1.36" height="43.17" style="fill:#0e0e8e"/><rect x="730.29" y="44.31" width="1.35" height="43.16" style="fill:#0e0e8e"/><rect x="721.55" y="50.26" width="1.36" height="43.17" style="fill:#0e0e8e"/><polygon points="179.77 97.22 173.68 97.22 173.68 91.12 168.85 91.12 168.85 74.98 167.83 74.98 167.83 91.12 165.54 91.12 165.54 70.92 164.53 70.92 164.53 91.12 161.72 91.12 161.72 97.22 160.21 97.22 160.21 186.92 122.34 186.92 122.34 134.32 86.79 134.32 86.79 134.32 124.12 134.32 124.12 130.76 112.43 130.76 112.43 121.1 106.84 121.1 106.84 130.76 101.75 130.76 101.75 121.1 96.67 121.1 96.67 130.76 86.79 130.76 86.79 121.11 56.53 121.11 56.53 130.76 49.46 130.76 49.46 134.32 56.53 134.32 56.53 134.32 53.48 134.32 53.48 154.14 42.29 154.14 42.29 198.87 26.94 198.87 26.94 186.92 9.86 186.92 9.86 218.39 23.48 218.39 26.94 218.39 42.29 218.39 53.48 218.39 53.48 218.39 122.34 218.39 122.34 218.39 201.55 218.39 201.55 186.92 179.77 186.92 179.77 97.22" style="fill:#0e0e8e"/><polygon points="797.73 205.9 793.8 176.83 793.61 175.43 793.38 173.67 788.05 134.32 786.61 134.32 786.61 125.72 781.53 125.72 781.53 134.32 780.27 134.32 780.27 131.1 776.71 131.1 776.71 134.32 769.34 134.32 769.34 126.82 767.31 126.82 767.31 121.61 752.82 121.61 752.82 126.82 750.79 126.82 750.79 134.32 748.76 134.32 748.76 177.31 724.35 177.31 724.35 145.65 668.79 145.65 668.79 195.82 525.09 195.82 525.09 121.18 527.75 121.18 527.75 120.12 469.29 120.12 469.29 121.18 471.94 121.18 471.94 195.82 460.74 195.82 460.74 81.78 458.33 81.78 458.33 48.41 446.26 48.41 446.26 35.7 439.8 35.7 439.8 25.03 437.54 25.03 437.54 6.73 436.94 6.73 436.94 25.03 434.68 25.03 434.68 35.7 428.21 35.7 428.21 48.41 416.24 48.41 416.24 81.78 413.75 81.78 413.75 142.37 395.17 142.37 395.17 195.82 333.52 195.82 333.52 92.48 338.47 92.48 338.47 90.86 333.52 90.86 333.52 87.94 327.24 87.94 327.24 83.16 275.88 83.16 275.88 87.94 269.59 87.94 269.59 90.86 264.64 90.86 264.64 92.48 269.59 92.48 269.59 156.81 261.19 156.81 261.19 144.74 209.36 144.74 209.36 218.39 261.19 218.39 261.19 218.39 269.59 218.39 288.13 218.39 327.23 218.39 327.23 218.39 687.09 218.39 687.09 218.39 716.23 218.39 724.35 218.39 748.76 218.39 771.8 218.39 777.88 218.39 799.42 218.39 823.3 218.39 823.3 205.9 797.73 205.9" style="fill:#0e0e8e"/><polygon points="633.98 218.39 548.32 218.39 550.65 213.34 555.11 203.7 555.12 203.69 558.77 195.82 560.26 192.6 561.3 190.35 564.07 184.36 565.13 182.06 566.34 179.46 566.48 179.14 568.13 175.58 575.11 160.48 575.12 160.46 575.88 158.85 575.88 158.84 579.86 150.23 579.9 150.15 587.17 134.43 587.18 134.42 589.21 130.03 590.69 126.82 591.15 125.85 591.59 126.82 593.13 130.14 595.11 134.42 595.11 134.43 602.46 150.3 606.42 158.84 606.42 158.85 607.17 160.47 607.17 160.48 612.21 171.36 614.15 175.58 615.8 179.14 615.96 179.46 617.15 182.06 618.4 184.73 621 190.35 622.04 192.6 623.53 195.82 627.17 203.69 627.17 203.7 632.94 216.15 633.98 218.39" style="fill:none;stroke:#2020a8;stroke-miterlimit:10;stroke-width:2.1259841918945312px"/><g id="rotate"><path d="M654.59,123.72A63.05,63.05,0,0,0,650,100.31c-.12-.29-.23-.57-.35-.85a63.56,63.56,0,0,0-13.27-19.84c-.23-.21-.43-.42-.64-.63A63.5,63.5,0,0,0,615.86,65.7l-.84-.33a60.58,60.58,0,0,0-7.64-2.55,62.8,62.8,0,0,0-15.79-2.09h-.89a63.06,63.06,0,0,0-23.41,4.63l-.85.34A64,64,0,0,0,546.59,79c-.2.22-.41.43-.62.64a63.67,63.67,0,0,0-13.29,19.84c-.11.28-.23.56-.34.85a62.39,62.39,0,0,0-4.2,16.41c-.13,1.09-.23,2.19-.31,3.3a5.56,5.56,0,0,1-.05.9l-.06,1.53v2.17a62.29,62.29,0,0,0,2.61,17.63c.14.51.29,1,.47,1.53.38,1.18.8,2.35,1.25,3.5l.3.76a2.44,2.44,0,0,1,.1.24c.08.2.17.4.24.6.59,1.37,1.22,2.73,1.9,4a63.1,63.1,0,0,0,6.32,10c.39.52.8,1,1.21,1.53,1,1.21,2,2.37,3.1,3.5.09.11.21.22.32.33l.44.45c.21.21.42.42.62.64,1.31,1.28,2.66,2.5,4.07,3.66a63.13,63.13,0,0,0,13.41,8.54c.35.18.71.34,1.07.5l1.3.58.85.34a63.06,63.06,0,0,0,23.41,4.63h.89a63.13,63.13,0,0,0,18.55-2.88c.88-.28,1.76-.57,2.63-.89s1.51-.56,2.25-.87l.84-.33,1.3-.58a63.72,63.72,0,0,0,5.7-2.92,61.89,61.89,0,0,0,5.48-3.56c.52-.37,1-.76,1.55-1.16a62.21,62.21,0,0,0,5.81-5.07c.21-.21.41-.42.64-.63a63.56,63.56,0,0,0,13.27-19.84c.12-.28.23-.56.34-.84a62.92,62.92,0,0,0,4.64-23.42v-.94ZM647.3,147c-.1.28-.22.56-.33.83a60.47,60.47,0,0,1-12.67,18.91c-.21.22-.41.43-.63.63q-1.81,1.8-3.78,3.43a60.55,60.55,0,0,1-13.23,8.39l-.7.32-1.2.53-.83.34c-.43.18-.86.35-1.3.51a60.26,60.26,0,0,1-13,3.33,57.84,57.84,0,0,1-8,.58h-.89a60.16,60.16,0,0,1-22.32-4.42l-.84-.34-1.2-.53c-.25-.1-.48-.21-.7-.32-1.14-.53-2.25-1.09-3.35-1.68a60.72,60.72,0,0,1-11.63-8.23c-.69-.61-1.37-1.25-2-1.9l-.64-.64q-1.08-1.1-2.1-2.25-.68-.75-1.32-1.53c-.94-1.13-1.84-2.29-2.71-3.5-.41-.58-.82-1.17-1.22-1.77a60.77,60.77,0,0,1-5.3-9.86c-.12-.28-.23-.56-.34-.84-.43-1-.82-2.09-1.2-3.16-.16-.51-.33-1-.5-1.53-.26-.88-.52-1.77-.75-2.67a60.05,60.05,0,0,1-1.89-12.14c0-.93-.08-1.87-.08-2.82V122.5a12,12,0,0,1,.07-1.53,6.8,6.8,0,0,1,.06-.9c.06-1.11.17-2.21.31-3.3a60.18,60.18,0,0,1,4-15.32l.34-.84a60.63,60.63,0,0,1,12.57-19c.22-.21.43-.42.64-.64a60.82,60.82,0,0,1,18.91-12.65l.84-.34A60.11,60.11,0,0,1,590.7,63.6h.89a60.34,60.34,0,0,1,15.92,2.23A57.51,57.51,0,0,1,613.92,68l.84.34A60.56,60.56,0,0,1,633.67,81c.22.21.42.42.63.63A60.65,60.65,0,0,1,647,100.56c.11.28.23.56.33.84a60,60,0,0,1,4.43,22.32v.9A60.07,60.07,0,0,1,647.3,147Z" style="fill:#0e0e8e"/><path d="M591.15,84.49a39.68,39.68,0,1,0,39.67,39.69h0A39.69,39.69,0,0,0,591.15,84.49Zm0,77.56A37.89,37.89,0,1,1,629,124.12v0a37.88,37.88,0,0,1-37.85,37.88Z" style="fill:#0e0e8e"/><path d="M591.59,36.6V211.74a.3.3,0,0,1-.28.32H591a.32.32,0,0,1-.3-.32V36.6a.32.32,0,0,1,.3-.32h.3a.29.29,0,0,1,.29.31Z" style="fill:#0e0e8e"/><path d="M597.8,42.92a6.65,6.65,0,0,1-6.21,6.62h-.89a6.64,6.64,0,0,1,.3-13.26h.3A6.65,6.65,0,0,1,597.8,42.92Z" style="fill:#0e0e8e"/><circle cx="591.15" cy="205.42" r="6.65" style="fill:#0e0e8e"/><rect x="503.26" y="123.72" width="175.79" height="0.9" rx="0.33" style="fill:#0e0e8e"/><circle cx="672.4" cy="124.17" r="6.65" style="fill:#0e0e8e"/><circle cx="509.9" cy="124.17" r="6.65" style="fill:#0e0e8e"/><rect x="503.25" y="123.71" width="175.79" height="0.9" rx="0.33" transform="translate(-2.52 235.67) rotate(-22.5)" style="fill:#0e0e8e"/><circle cx="516.08" cy="155.26" r="6.65" transform="translate(280.16 639.81) rotate(-80.78)" style="fill:#0e0e8e"/><circle cx="666.21" cy="93.07" r="6.65" style="fill:#0e0e8e"/><path d="M625,205.28l-.2.1-.12.05h0a.31.31,0,0,1-.38-.19l-3.91-9.43-1-2.54-3.54-8.55L615,183l-1.09-2.64-.5-1.19-1-2.37-.49-1.19-4-9.66-2-4.92-.68-1.65-10.3-24.85-1.8-4.36-1.55-3.71-.44-1.08L591,125l-.08-.21-.07-.14v-.2l-.07-.16v-.19l-.06-.14-.07-.21-.16-.38-.46-1.09-3.33-8L576.24,89.34l-.69-1.65-8-19.33-1.1-2.66-4.27-10.3-4.95-12a.34.34,0,0,1,.08-.37h0l.1-.05h.3a.31.31,0,0,1,.35.19l5,12,4.27,10.31,1,2.52,8,19.32.68,1.66,10.29,24.85,3.34,8,.45,1.1.15.38.1.21.06.14v.2l0,.15v.1l0,.1v.15l.09.2.16.39.45,1.08,3.34,8.06,6.69,16.15,3.6,8.7.69,1.66,2.17,5.26,3.4,8.21.61,1.45,1.47,3.56.35.85,1.1,2.65.87,2.09,3.4,8.21,1.19,2.88,3.76,9.08A.35.35,0,0,1,625,205.28Z" style="fill:#0e0e8e"/><path d="M563,55.05l-.43.19-.42.16a6.64,6.64,0,0,1-4.87-12.33h0l.22-.09.18-.07A6.64,6.64,0,0,1,563,55.05Z" style="fill:#0e0e8e"/><circle cx="622.24" cy="199.24" r="6.65" style="fill:#0e0e8e"/><path d="M672.44,157.57h0v.2l-.06.14a.33.33,0,0,1-.42.15l-3.09-1.28L660,153.11l-10.32-4.27-2.64-1.1-19.33-8-1.66-.69-15.49-6.42-9.36-3.87-8-3.34L592,125l-.4-.16-.19-.09-.15,0h-.2l-.14-.06h-.21l-.15-.06-.21-.09-.37-.16-1.11-.45-8-3.33L556,110.09l-1.66-.68-19.32-8-2.66-1.09L522,96l-12-5a.31.31,0,0,1-.18-.38l.06-.17v-.11a.22.22,0,0,1,.05-.08h0a.34.34,0,0,1,.38-.09l12,5,10.3,4.27,2.66,1.1,19.33,8,1.65.69,24.86,10.29,8,3.34,1.09.45.38.16.21.08.14.06h.19l.17.07h.18l.15.06.21.08.38.16,1.08.45,8.07,3.34,9,3.71,15.89,6.59,1.65.68,19.32,8L650,148l10.31,4.27,8.53,3.53,3.44,1.43A.32.32,0,0,1,672.44,157.57Z" style="fill:#0e0e8e"/><circle cx="666.21" cy="155.26" r="6.65" style="fill:#0e0e8e"/><path d="M522.38,95.19a1.19,1.19,0,0,1-.16.43L522,96a6.64,6.64,0,0,1-12.14-5.34l.06-.17.09-.19h0a6.64,6.64,0,0,1,12.34,4.86Z" style="fill:#0e0e8e"/><rect x="503.25" y="123.72" width="175.79" height="0.9" rx="0.33" transform="translate(250.2 622.8) rotate(-67.5)" style="fill:#0e0e8e"/><circle cx="622.24" cy="49.1" r="6.65" style="fill:#0e0e8e"/><circle cx="560.05" cy="199.24" r="6.65" style="fill:#0e0e8e"/><rect x="503.25" y="123.71" width="175.79" height="0.9" rx="0.33" transform="translate(85.35 454.37) rotate(-45)" style="fill:#0e0e8e"/><circle cx="648.6" cy="66.71" r="6.65" style="fill:#0e0e8e"/><circle cx="533.69" cy="181.62" r="6.65" style="fill:#0e0e8e"/><path d="M653.47,186.13l-.17.19-.08.09a.26.26,0,0,1-.11.07h0a.31.31,0,0,1-.35-.08l-9.15-9.15-7.91-7.91-2-2-14.78-14.78-1.28-1.27L611,144.68l-12.43-12.42-6.15-6.17-.85-.84-.29-.28-.15-.16-.1-.11-.08-.08-.06-.06-.14-.14-.07-.06-.09-.09-.1-.1-.15-.16-.31-.29-.82-.83-6.16-6.16-19-19-1.27-1.26L548,81.65l-2-2-7.92-7.9-9.14-9.15a.32.32,0,0,1,0-.41L529,62l.14-.13a.32.32,0,0,1,.41,0L564.69,97l19,19,6.15,6.16,1.13,1.12.16.16.11.11.08.08.07.07.83.83.84.84,6.16,6.16L611,143.34l7.3,7.3,1.27,1.27,14.77,14.78,2,2,7.9,7.9,9.15,9.15A.34.34,0,0,1,653.47,186.13Z" style="fill:#0e0e8e"/><circle cx="648.6" cy="181.62" r="6.65" style="fill:#0e0e8e"/><path d="M538.7,71.08a3.17,3.17,0,0,1-.3.34,2,2,0,0,1-.35.3,6.64,6.64,0,0,1-9.19-9.56L529,62l.14-.13a6.64,6.64,0,0,1,9.56,9.19Z" style="fill:#0e0e8e"/></g><circle cx="591.15" cy="124.17" r="10.99" style="fill:#0e0e8e"/><rect x="503.54" y="120.02" width="47.11" height="98.37" style="fill:#040e4e"/><rect x="500.02" y="120.91" width="54.16" height="1.54" style="fill:#040e4e"/><rect x="501.48" y="142.25" width="51.23" height="1.53" style="fill:#040e4e"/><rect x="501.48" y="162.91" width="51.23" height="1.53" style="fill:#040e4e"/><rect x="501.48" y="183.57" width="51.23" height="1.53" style="fill:#040e4e"/><rect x="501.48" y="204.23" width="51.23" height="1.53" style="fill:#040e4e"/><rect x="498.23" y="116.72" width="57.74" height="4.2" style="fill:#040e4e"/><rect x="507.78" y="188.6" width="4.9" height="12.13" style="fill:#040e4e"/><rect x="506.52" y="110.93" width="16.02" height="7.89" style="fill:#040e4e"/><rect x="505.43" y="110.7" width="18.2" height="1.35" style="fill:#040e4e"/><polygon points="433.25 109.39 433.25 112.91 423.07 115.4 423.07 113.11 417.55 113.11 417.55 116.74 413.75 117.68 407.38 119.24 407.38 116.61 401.86 116.61 401.86 120.58 391.69 123.08 391.69 120.91 386.17 120.91 386.17 124.42 379.83 125.98 376 126.91 376 125.05 370.48 125.05 370.48 218.39 373.23 218.39 376 218.39 386.17 218.39 386.17 218.39 391.69 218.39 391.69 218.39 401.86 218.39 407.38 218.39 417.55 218.39 423.07 218.39 433.25 218.39 436.01 218.39 438.77 218.39 438.77 109.39 433.25 109.39" style="fill:#040e4e"/><rect x="408.81" y="137.37" width="7.32" height="11.15" style="fill:#040e4e"/><rect x="377.42" y="156.79" width="7.32" height="11.15" style="fill:#040e4e"/><rect x="393.11" y="156.79" width="7.32" height="11.15" style="fill:#040e4e"/><rect x="424.5" y="176.21" width="7.32" height="11.15" style="fill:#040e4e"/><rect x="393.11" y="195.62" width="7.32" height="11.15" style="fill:#040e4e"/><rect x="377.42" y="215.04" width="7.32" height="3.35" style="fill:#205cff;opacity:0.28999999165534973;isolation:isolate"/><rect x="393.11" y="215.04" width="7.32" height="3.35" style="fill:#205cff;opacity:0.28999999165534973;isolation:isolate"/><rect x="408.81" y="215.04" width="7.32" height="3.35" style="fill:#205cff"/><rect x="424.5" y="215.04" width="7.32" height="3.35" style="fill:#205cff;opacity:0.28999999165534973;isolation:isolate"/><polygon points="167.88 195.13 136.71 195.13 136.71 176.5 130.78 176.5 130.78 172.67 117.51 172.67 117.51 176.5 106.71 176.5 106.71 218.39 130.78 218.39 136.71 218.39 163.48 218.39 163.48 197.92 167.88 197.92 167.88 195.13" style="fill:#040e4e"/><path d="M722.79,107a1,1,0,1,0,1-1.21A1.12,1.12,0,0,0,722.79,107Z" style="fill:#040e4e"/><rect x="727.33" y="215.97" width="24.38" height="2.42" style="fill:#205cff"/><polygon points="736.34 134.1 732.96 134.1 732.96 129.2 729.06 129.2 729.06 127.36 729.06 121.75 729.06 116.89 724.37 116.89 724.37 108.2 723.24 108.2 723.24 116.89 720.7 116.89 719.17 121.75 708.92 121.75 708.92 129.2 682.11 129.2 682.11 134.1 678.73 134.1 678.73 137.93 680.28 137.93 680.28 188.71 657.84 188.71 657.84 218.39 685.65 218.39 685.65 218.39 734.79 218.39 734.79 137.93 736.34 137.93 736.34 134.1" style="fill:#040e4e"/><polygon points="817.81 173.67 811.56 173.67 811.56 160.06 810.8 160.06 810.8 173.67 806.48 173.67 806.48 162.52 805.72 162.52 805.72 173.67 779.68 173.67 779.68 176.83 781.46 176.83 781.46 218.39 816.21 218.39 816.21 176.83 817.81 176.83 817.81 173.67" style="fill:#040e4e"/><g style="opacity:0.5199999809265137"><rect x="109.81" y="181.33" width="2.27" height="2.27" style="fill:#fff"/><rect x="114.37" y="181.33" width="2.27" height="2.27" style="fill:#fff"/><rect x="109.81" y="186.66" width="2.27" height="2.27" style="fill:#fff"/><rect x="114.37" y="186.66" width="2.27" height="2.27" style="fill:#fff"/><rect x="109.81" y="191.82" width="2.27" height="2.27" style="fill:#fff"/><rect x="119.44" y="181.33" width="2.27" height="2.27" style="fill:#fff"/></g><rect x="276.04" y="113.11" width="1.55" height="8.57" style="fill:#fff;opacity:0.5;isolation:isolate"/><rect x="281.38" y="113.11" width="1.55" height="8.57" style="fill:#fff;opacity:0.5;isolation:isolate"/><rect x="286.72" y="113.11" width="1.55" height="8.57" style="fill:#fff;opacity:0.5;isolation:isolate"/><rect x="292.06" y="113.11" width="1.55" height="8.57" style="fill:#fff;opacity:0.5;isolation:isolate"/><rect x="297.39" y="113.11" width="1.55" height="8.57" style="fill:#fff;opacity:0.5;isolation:isolate"/><rect x="302.73" y="113.11" width="1.55" height="8.57" style="fill:#fff;opacity:0.5;isolation:isolate"/><rect x="308.07" y="113.11" width="1.55" height="8.57" style="fill:#fff;opacity:0.5;isolation:isolate"/><rect x="313.41" y="113.11" width="1.55" height="8.57" style="fill:#fff;opacity:0.5;isolation:isolate"/><rect x="318.75" y="113.11" width="1.55" height="8.57" style="fill:#fff;opacity:0.5;isolation:isolate"/><rect x="324.09" y="113.11" width="1.55" height="8.57" style="fill:#fff;opacity:0.5;isolation:isolate"/><rect x="329.43" y="113.11" width="1.55" height="8.57" style="fill:#fff;opacity:0.5;isolation:isolate"/><rect x="276.04" y="125.05" width="1.55" height="8.57" style="fill:#fff;opacity:0.5;isolation:isolate"/><rect x="281.38" y="125.05" width="1.55" height="8.57" style="fill:#fff;opacity:0.5;isolation:isolate"/><rect x="286.72" y="125.05" width="1.55" height="8.57" style="fill:#fff;opacity:0.5;isolation:isolate"/><rect x="292.06" y="125.05" width="1.55" height="8.57" style="fill:#fff;opacity:0.5;isolation:isolate"/><rect x="297.39" y="125.05" width="1.55" height="8.57" style="fill:#fff;opacity:0.5;isolation:isolate"/><rect x="302.73" y="125.05" width="1.55" height="8.57" style="fill:#fff;opacity:0.5;isolation:isolate"/><rect x="308.07" y="125.05" width="1.55" height="8.57" style="fill:#fff;opacity:0.5;isolation:isolate"/><rect x="313.41" y="125.05" width="1.55" height="8.57" style="fill:#fff;opacity:0.5;isolation:isolate"/><rect x="318.75" y="125.05" width="1.55" height="8.57" style="fill:#fff;opacity:0.5;isolation:isolate"/><rect x="324.09" y="125.05" width="1.55" height="8.57" style="fill:#fff;opacity:0.5;isolation:isolate"/><rect x="329.43" y="125.05" width="1.55" height="8.57" style="fill:#fff;opacity:0.5;isolation:isolate"/><rect x="276.04" y="136.98" width="1.55" height="8.57" style="fill:#fff;opacity:0.5;isolation:isolate"/><rect x="281.38" y="136.98" width="1.55" height="8.57" style="fill:#fff;opacity:0.5;isolation:isolate"/><rect x="286.72" y="136.98" width="1.55" height="8.57" style="fill:#fff;opacity:0.5;isolation:isolate"/><rect x="292.06" y="136.98" width="1.55" height="8.57" style="fill:#fff;opacity:0.5;isolation:isolate"/><rect x="297.39" y="136.98" width="1.55" height="8.57" style="fill:#fff;opacity:0.5;isolation:isolate"/><rect x="302.73" y="136.98" width="1.55" height="8.57" style="fill:#fff;opacity:0.5;isolation:isolate"/><rect x="308.07" y="136.98" width="1.55" height="8.57" style="fill:#fff;opacity:0.5;isolation:isolate"/><rect x="313.41" y="136.98" width="1.55" height="8.57" style="fill:#fff;opacity:0.5;isolation:isolate"/><rect x="318.75" y="136.98" width="1.55" height="8.57" style="fill:#fff;opacity:0.5;isolation:isolate"/><rect x="324.09" y="136.98" width="1.55" height="8.57" style="fill:#fff;opacity:0.5;isolation:isolate"/><rect x="329.43" y="136.98" width="1.55" height="8.57" style="fill:#fff;opacity:0.5;isolation:isolate"/><rect x="292.06" y="148.92" width="1.55" height="8.57" style="fill:#fff;opacity:0.5;isolation:isolate"/><rect x="297.39" y="148.92" width="1.55" height="8.57" style="fill:#fff;opacity:0.5;isolation:isolate"/><rect x="302.73" y="148.92" width="1.55" height="8.57" style="fill:#fff;opacity:0.5;isolation:isolate"/><rect x="308.07" y="148.92" width="1.55" height="8.57" style="fill:#fff;opacity:0.5;isolation:isolate"/><rect x="313.41" y="148.92" width="1.55" height="8.57" style="fill:#fff;opacity:0.5;isolation:isolate"/><rect x="318.75" y="148.92" width="1.55" height="8.57" style="fill:#fff;opacity:0.5;isolation:isolate"/><rect x="324.09" y="148.92" width="1.55" height="8.57" style="fill:#fff;opacity:0.5;isolation:isolate"/><rect x="329.43" y="148.92" width="1.55" height="8.57" style="fill:#fff;opacity:0.5;isolation:isolate"/><rect x="297.39" y="161.52" width="1.55" height="8.57" style="fill:#fff;opacity:0.5;isolation:isolate"/><rect x="302.73" y="161.52" width="1.55" height="8.57" style="fill:#fff;opacity:0.5;isolation:isolate"/><rect x="308.07" y="161.52" width="1.55" height="8.57" style="fill:#fff;opacity:0.5;isolation:isolate"/><rect x="313.41" y="161.52" width="1.55" height="8.57" style="fill:#fff;opacity:0.5;isolation:isolate"/><rect x="318.75" y="161.52" width="1.55" height="8.57" style="fill:#fff;opacity:0.5;isolation:isolate"/><rect x="324.09" y="161.52" width="1.55" height="8.57" style="fill:#fff;opacity:0.5;isolation:isolate"/><rect x="329.43" y="161.52" width="1.55" height="8.57" style="fill:#fff;opacity:0.5;isolation:isolate"/><rect x="379.25" y="134.39" width="3.66" height="9.28" style="fill:#fff;opacity:0.33000001311302185;isolation:isolate"/><rect x="379.25" y="152.15" width="3.66" height="9.28" style="fill:#fff;opacity:0.33000001311302185;isolation:isolate"/><rect x="379.25" y="169.9" width="3.66" height="9.28" style="fill:#fff;opacity:0.33000001311302185;isolation:isolate"/><rect x="379.25" y="187.66" width="3.66" height="9.28" style="fill:#fff;opacity:0.33000001311302185;isolation:isolate"/><rect x="379.25" y="204.4" width="3.66" height="9.28" style="fill:#fff;opacity:0.33000001311302185;isolation:isolate"/><rect x="394.94" y="134.39" width="3.66" height="9.28" style="fill:#fff;opacity:0.33000001311302185;isolation:isolate"/><rect x="394.94" y="152.15" width="3.66" height="9.28" style="fill:#fff;opacity:0.33000001311302185;isolation:isolate"/><rect x="394.94" y="169.9" width="3.66" height="9.28" style="fill:#fff;opacity:0.33000001311302185;isolation:isolate"/><rect x="394.94" y="187.66" width="3.66" height="9.28" style="fill:#fff;opacity:0.33000001311302185;isolation:isolate"/><rect x="394.94" y="204.4" width="3.66" height="9.28" style="fill:#fff;opacity:0.33000001311302185;isolation:isolate"/><rect x="410.64" y="134.39" width="3.66" height="9.28" style="fill:#fff;opacity:0.33000001311302185;isolation:isolate"/><rect x="410.64" y="152.15" width="3.66" height="9.28" style="fill:#fff;opacity:0.33000001311302185;isolation:isolate"/><rect x="410.64" y="169.9" width="3.66" height="9.28" style="fill:#fff;opacity:0.33000001311302185;isolation:isolate"/><rect x="410.64" y="187.66" width="3.66" height="9.28" style="fill:#fff;opacity:0.33000001311302185;isolation:isolate"/><rect x="410.64" y="204.4" width="3.66" height="9.28" style="fill:#fff;opacity:0.33000001311302185;isolation:isolate"/><rect x="426.33" y="134.39" width="3.66" height="9.28" style="fill:#fff;opacity:0.33000001311302185;isolation:isolate"/><rect x="426.33" y="152.15" width="3.66" height="9.28" style="fill:#fff;opacity:0.33000001311302185;isolation:isolate"/><rect x="426.33" y="169.9" width="3.66" height="9.28" style="fill:#fff;opacity:0.33000001311302185;isolation:isolate"/><rect x="426.33" y="187.66" width="3.66" height="9.28" style="fill:#fff;opacity:0.33000001311302185;isolation:isolate"/><rect x="426.33" y="204.4" width="3.66" height="9.28" style="fill:#fff;opacity:0.33000001311302185;isolation:isolate"/><rect x="320.3" y="4.94" width="3.05" height="8.12" style="fill:#fff;opacity:0.5;isolation:isolate"/><rect x="327.81" y="4.94" width="3.05" height="8.12" style="fill:#fff;opacity:0.5;isolation:isolate"/><rect x="335.33" y="4.94" width="3.04" height="8.12" style="fill:#fff;opacity:0.5;isolation:isolate"/><rect x="342.84" y="4.94" width="3.05" height="8.12" style="fill:#fff;opacity:0.5;isolation:isolate"/><rect x="320.3" y="18.47" width="3.05" height="8.12" style="fill:#fff;opacity:0.5;isolation:isolate"/><rect x="327.81" y="18.47" width="3.05" height="8.12" style="fill:#fff;opacity:0.5;isolation:isolate"/><rect x="335.33" y="18.47" width="3.04" height="8.12" style="fill:#fff;opacity:0.5;isolation:isolate"/><rect x="342.84" y="18.47" width="3.05" height="8.12" style="fill:#fff;opacity:0.5;isolation:isolate"/><rect x="320.3" y="32" width="3.05" height="8.12" style="fill:#fff;opacity:0.5;isolation:isolate"/><rect x="327.81" y="32" width="3.05" height="8.12" style="fill:#fff;opacity:0.5;isolation:isolate"/><rect x="351.36" y="4.94" width="3.05" height="8.12" style="fill:#fff;opacity:0.5;isolation:isolate"/><rect x="117.51" y="87.24" width="1.94" height="7.45" style="fill:#fff;opacity:0.4000000059604645;isolation:isolate"/><rect x="124.34" y="87.24" width="1.94" height="7.45" style="fill:#fff;opacity:0.4000000059604645;isolation:isolate"/><rect x="132.33" y="87.24" width="1.94" height="7.45" style="fill:#fff;opacity:0.4000000059604645;isolation:isolate"/><rect x="139.17" y="87.24" width="1.94" height="7.45" style="fill:#fff;opacity:0.4000000059604645;isolation:isolate"/><rect x="102.32" y="87.24" width="1.94" height="7.45" style="fill:#fff;opacity:0.4000000059604645;isolation:isolate"/><rect x="109.16" y="87.24" width="1.94" height="7.45" style="fill:#fff;opacity:0.4000000059604645;isolation:isolate"/><rect x="117.51" y="100.17" width="1.94" height="7.45" style="fill:#fff;opacity:0.4000000059604645;isolation:isolate"/><rect x="124.34" y="100.17" width="1.94" height="7.45" style="fill:#fff;opacity:0.4000000059604645;isolation:isolate"/><rect x="132.33" y="100.17" width="1.94" height="7.45" style="fill:#fff;opacity:0.4000000059604645;isolation:isolate"/><rect x="139.17" y="100.17" width="1.94" height="7.45" style="fill:#fff;opacity:0.4000000059604645;isolation:isolate"/><rect x="102.32" y="100.17" width="1.94" height="7.45" style="fill:#fff;opacity:0.4000000059604645;isolation:isolate"/><rect x="109.16" y="100.17" width="1.94" height="7.45" style="fill:#fff;opacity:0.4000000059604645;isolation:isolate"/><rect x="117.51" y="113.1" width="1.94" height="7.45" style="fill:#fff;opacity:0.4000000059604645;isolation:isolate"/><rect x="124.34" y="113.1" width="1.94" height="7.45" style="fill:#fff;opacity:0.4000000059604645;isolation:isolate"/><rect x="132.33" y="113.1" width="1.94" height="7.45" style="fill:#fff;opacity:0.4000000059604645;isolation:isolate"/><rect x="139.17" y="113.1" width="1.94" height="7.45" style="fill:#fff;opacity:0.4000000059604645;isolation:isolate"/><rect x="102.32" y="113.1" width="1.94" height="7.45" style="fill:#fff;opacity:0.4000000059604645;isolation:isolate"/><rect x="109.16" y="113.1" width="1.94" height="7.45" style="fill:#fff;opacity:0.4000000059604645;isolation:isolate"/><rect x="478.9" y="144.31" width="3" height="11.55" style="fill:#fff;opacity:0.5;isolation:isolate"/><rect x="488.09" y="144.31" width="3" height="11.55" style="fill:#fff;opacity:0.5;isolation:isolate"/><rect x="496.73" y="144.31" width="3" height="11.55" style="fill:#fff;opacity:0.5;isolation:isolate"/><rect x="685.65" y="146.71" width="2.28" height="6.49" style="fill:#fff;opacity:0.33000001311302185;isolation:isolate"/><rect x="692.79" y="146.71" width="2.28" height="6.49" style="fill:#fff;opacity:0.33000001311302185;isolation:isolate"/><rect x="685.65" y="146.71" width="2.28" height="6.49" style="fill:#fff;opacity:0.33000001311302185;isolation:isolate"/><rect x="692.79" y="146.71" width="2.28" height="6.49" style="fill:#fff;opacity:0.33000001311302185;isolation:isolate"/><rect x="699.54" y="146.71" width="2.28" height="6.49" style="fill:#fff;opacity:0.33000001311302185;isolation:isolate"/><rect x="706.68" y="146.71" width="2.28" height="6.49" style="fill:#fff;opacity:0.33000001311302185;isolation:isolate"/><rect x="685.65" y="158.36" width="2.28" height="6.49" style="fill:#fff;opacity:0.33000001311302185;isolation:isolate"/><rect x="692.79" y="158.36" width="2.28" height="6.49" style="fill:#fff;opacity:0.33000001311302185;isolation:isolate"/><rect x="685.65" y="158.36" width="2.28" height="6.49" style="fill:#fff;opacity:0.33000001311302185;isolation:isolate"/><rect x="692.79" y="158.36" width="2.28" height="6.49" style="fill:#fff;opacity:0.33000001311302185;isolation:isolate"/><rect x="699.54" y="158.36" width="2.28" height="6.49" style="fill:#fff;opacity:0.33000001311302185;isolation:isolate"/><rect x="706.68" y="158.36" width="2.28" height="6.49" style="fill:#fff;opacity:0.33000001311302185;isolation:isolate"/><rect x="685.65" y="170.76" width="2.28" height="6.49" style="fill:#fff;opacity:0.33000001311302185;isolation:isolate"/><rect x="692.79" y="170.76" width="2.28" height="6.49" style="fill:#fff;opacity:0.33000001311302185;isolation:isolate"/><rect x="685.65" y="170.76" width="2.28" height="6.49" style="fill:#fff;opacity:0.33000001311302185;isolation:isolate"/><rect x="692.79" y="170.76" width="2.28" height="6.49" style="fill:#fff;opacity:0.33000001311302185;isolation:isolate"/><rect x="699.54" y="170.76" width="2.28" height="6.49" style="fill:#fff;opacity:0.33000001311302185;isolation:isolate"/><rect x="706.68" y="170.76" width="2.28" height="6.49" style="fill:#fff;opacity:0.33000001311302185;isolation:isolate"/><rect x="714.48" y="146.71" width="2.28" height="6.49" style="fill:#fff;opacity:0.33000001311302185;isolation:isolate"/><rect x="714.48" y="158.36" width="2.28" height="6.49" style="fill:#fff;opacity:0.33000001311302185;isolation:isolate"/><rect x="721.62" y="146.71" width="2.28" height="6.49" style="fill:#fff;opacity:0.33000001311302185;isolation:isolate"/><rect x="507.78" y="127.44" width="2.45" height="10.13" style="fill:#fff;opacity:0.33000001311302185;isolation:isolate"/><rect x="519.95" y="127.44" width="2.45" height="10.13" style="fill:#fff;opacity:0.33000001311302185;isolation:isolate"/><rect x="532.13" y="127.44" width="2.45" height="10.13" style="fill:#fff;opacity:0.33000001311302185;isolation:isolate"/><rect x="544.3" y="127.44" width="2.45" height="10.13" style="fill:#fff;opacity:0.33000001311302185;isolation:isolate"/><rect x="507.78" y="148.28" width="2.45" height="10.13" style="fill:#fff;opacity:0.33000001311302185;isolation:isolate"/><rect x="519.95" y="148.28" width="2.45" height="10.13" style="fill:#fff;opacity:0.33000001311302185;isolation:isolate"/><rect x="532.13" y="148.28" width="2.45" height="10.13" style="fill:#fff;opacity:0.33000001311302185;isolation:isolate"/><rect x="544.3" y="148.28" width="2.45" height="10.13" style="fill:#fff;opacity:0.33000001311302185;isolation:isolate"/><rect x="507.78" y="169.64" width="2.45" height="10.13" style="fill:#fff;opacity:0.33000001311302185;isolation:isolate"/><rect x="519.95" y="169.64" width="2.45" height="10.13" style="fill:#fff;opacity:0.33000001311302185;isolation:isolate"/><rect x="532.13" y="169.64" width="2.45" height="10.13" style="fill:#fff;opacity:0.33000001311302185;isolation:isolate"/><rect x="544.3" y="169.64" width="2.45" height="10.13" style="fill:#fff;opacity:0.33000001311302185;isolation:isolate"/><rect x="507.78" y="191" width="2.45" height="10.13" style="fill:#fff;opacity:0.33000001311302185;isolation:isolate"/><rect x="519.95" y="191" width="2.45" height="10.13" style="fill:#fff;opacity:0.33000001311302185;isolation:isolate"/><rect x="532.13" y="191" width="2.45" height="10.13" style="fill:#fff;opacity:0.33000001311302185;isolation:isolate"/><rect x="544.3" y="191" width="2.45" height="10.13" style="fill:#fff;opacity:0.33000001311302185;isolation:isolate"/><rect x="507.78" y="210.4" width="2.45" height="7.99" style="fill:#fff;opacity:0.33000001311302185;isolation:isolate"/><rect x="519.95" y="210.4" width="2.45" height="7.99" style="fill:#fff;opacity:0.33000001311302185;isolation:isolate"/><rect x="532.13" y="210.4" width="2.45" height="7.99" style="fill:#fff;opacity:0.33000001311302185;isolation:isolate"/><rect x="544.3" y="210.4" width="2.45" height="7.99" style="fill:#fff;opacity:0.33000001311302185;isolation:isolate"/><rect x="784.53" y="180.97" width="2.5" height="5.81" style="fill:#fff;opacity:0.33000001311302185;isolation:isolate"/><rect x="784.53" y="190.36" width="2.5" height="5.81" style="fill:#fff;opacity:0.33000001311302185;isolation:isolate"/><rect x="790.94" y="180.97" width="2.5" height="5.81" style="fill:#fff;opacity:0.33000001311302185;isolation:isolate"/><polygon points="632.94 211.77 632.94 179.14 629.88 179.14 629.88 179.13 636.94 179.13 636.94 175.57 629.88 175.57 629.88 165.92 599.62 165.92 599.62 175.57 589.73 175.57 589.73 165.92 584.65 165.92 584.65 175.57 579.57 175.57 579.57 165.92 573.98 165.92 573.98 175.57 562.28 175.57 562.28 179.13 599.62 179.13 599.62 179.14 564.07 179.14 564.07 211.77 492.13 211.77 492.13 202.32 446.21 202.32 446.21 211.77 362.73 211.77 362.73 187.8 333.98 187.8 333.98 211.77 304.53 211.77 304.53 194.29 300.89 194.29 300.89 181.95 303.04 181.95 303.04 180.71 293.52 180.71 293.52 176.83 292.5 176.83 292.5 180.71 289.44 180.71 289.44 160.79 288.68 160.79 288.68 180.71 284.71 180.71 284.71 181.95 287.05 181.95 287.05 194.29 267.61 194.29 267.61 211.77 218.96 211.77 218.96 140.27 192.69 140.27 192.69 136 194.19 136 194.19 134.5 174.3 134.5 174.3 136 175.86 136 175.86 211.77 71.3 211.77 71.3 193.69 41.46 193.69 41.46 211.77 0 211.77 0 219.55 830.08 219.55 830.08 211.77 632.94 211.77" style="fill:#040e4e"/></g></g></g></svg>