<svg xmlns="http://www.w3.org/2000/svg" viewBox="0 0 150 150"><title>Asset 6</title><g id="Layer_2" data-name="Layer 2"><g id="Layer_1-2" data-name="Layer 1"><g id="Rectangle_32-2" data-name="Rectangle 32-2"><rect width="150" height="150" rx="15" style="fill:#fff"/><rect x="0.5" y="0.5" width="149" height="149" rx="14.5" style="fill:none;stroke:#fff"/></g><g id="fgn_xp1qkn" data-name="fgn xp1qkn"><g id="Layer_1-2-2" data-name="Layer 1-2"><path id="Path_52" data-name="Path 52" d="M139.75,105.39H12V50H139.75Zm-9.51-29.77s.1,0,.11-.05c.05-.23.09-.47.13-.7.1-.49.21-1,.3-1.47a2.71,2.71,0,0,0,.13-1.1s0-.13.05-.19a3.35,3.35,0,0,0,.19-.53c.1-.45.19-.89.27-1.34.05-.26.07-.53.11-.8l.11-.23.06-.4a4.68,4.68,0,0,0,.21-2l.16.09a.7.7,0,0,0,0-.6,3,3,0,0,1-.15-.45.83.83,0,0,1,0-.22H132l.18.43.07,0c0-.14,0-.29,0-.43l.15-.49c0-.11,0-.22,0-.33l.13-.41c0-.17.07-.33.09-.49s0-.44.08-.66c.16,0,.11-.17.11-.27.59-2.93,1.17-5.85,1.76-8.77l0-.32H99.45a.24.24,0,0,0-.11.06l-1.17,1.14a.8.8,0,0,0-.25.5L96.6,62.2q-.94,4.69-1.88,9.38c-.65,3.23-1.29,6.47-1.94,9.7q-.9,4.53-1.81,9L89.15,99.4c-.13.7-.28,1.41-.41,2.09l1.42-1.34a3.2,3.2,0,0,0,.27-.25L96.33,94l.3-.28H125.2a1,1,0,0,0,.24,0,.43.43,0,0,0,.24-.1l1.26-1.28a1.63,1.63,0,0,0,.11-.31q.53-2.61,1-5.23l.93-4.62.09-.61.08-.46h0l.07-.14.12-.63c.1-.45.2-.89.28-1.33,0-.1-.06-.26,0-.31s.16-.39.2-.6c.16-.74.3-1.48.45-2.23,0-.09.09-.2,0-.28ZM61.57,53.89C61,56.26,53.9,92,53.93,92.29c.51.07,35,0,35.23,0,.7-3.1,7.65-38,7.63-38.38ZM42.57,78q1.07-5.27,2.14-10.51h-.59a6.32,6.32,0,0,1-1.5,2.93L38,60h5.71a7.18,7.18,0,0,1,2,.29,5.27,5.27,0,0,1,3.61,3.06,7,7,0,0,1,.51,2.93v.37h.52c.49-2.4,1-4.78,1.46-7.17H32c0,.16-.05.3-.08.45l.19,0a2.43,2.43,0,0,1,2.11,1.54Q36.61,66.76,39,72.06c.05.11.1.22.16.37H32.58c0,.1,0,.19-.07.28-.7,3.44-1.41,6.88-2.1,10.33a3.21,3.21,0,0,1-2.58,2.66c-.38.09-.78.13-1.21.19l-.09.43H37.22l.09-.49c-.27,0-.48,0-.69,0a4,4,0,0,1-1.45-.33,1.6,1.6,0,0,1-1-1.4,5.33,5.33,0,0,1,.19-1.54c.53-2.63,1.07-5.25,1.6-7.87l.34-1.64c.44,0,.86,0,1.27,0a10.05,10.05,0,0,1,1.56.13,3.48,3.48,0,0,1,2.9,3.28c0,.5,0,1,0,1.54Z" style="fill:none"/><path id="Path_53" data-name="Path 53" d="M61.57,53.89H96.79c0,.33-6.92,35.28-7.63,38.38-.24.07-34.71.09-35.23,0C53.9,92,61,56.25,61.57,53.89Zm21,18.56a.64.64,0,0,0-.06.18l-.36,1.83c-.37,1.93-.75,3.85-1.12,5.78a.48.48,0,0,1-.34.41,10.26,10.26,0,0,1-3.08.78A11.16,11.16,0,0,1,73.19,81a6.06,6.06,0,0,1-4.42-5.5,11,11,0,0,1,.73-5,9.41,9.41,0,0,1,5.67-5.57,11.73,11.73,0,0,1,6.24-.45,7.71,7.71,0,0,1,4.52,2.59c.06.07.13.12.2.19,1.5-1.2,3-2.4,4.45-3.62l-.32-.4a11.12,11.12,0,0,0-4.39-3.15A17.1,17.1,0,0,0,80,58.94a21.79,21.79,0,0,0-3.33.17,17.49,17.49,0,0,0-4.87,1.32,15.07,15.07,0,0,0-7.6,7.1A15.64,15.64,0,0,0,62.55,73a14.82,14.82,0,0,0,.07,4.41,10.56,10.56,0,0,0,5.73,7.79,14.93,14.93,0,0,0,6.35,1.61,18.32,18.32,0,0,0,4.67-.33,16.33,16.33,0,0,0,6.41-2.7.78.78,0,0,0,.34-.51l2.1-10.48c0-.1,0-.2,0-.3Z" style="fill:#8e2cf9"/><path id="Path_54" data-name="Path 54" d="M132.46,64.78c0,.12,0,.23,0,.34s-.11,0-.13-.07-.14-.27-.2-.39a12.35,12.35,0,0,0-1.22-2c-.11-.14-.21-.23-.4-.12a.75.75,0,0,0,.07.12,11.9,11.9,0,0,1,1.64,2.77.64.64,0,0,0,.1.13c0,.14,0,.29-.05.43l-.06,0-.19-.43H132a.83.83,0,0,0,0,.22,3,3,0,0,0,.15.45.68.68,0,0,1,0,.59l-.16-.08a4.68,4.68,0,0,1-.21,2h-.14l-.3-.51-.07,0c.11.37.22.74.34,1.11,0,.27-.06.54-.11.8-.08.44-.17.89-.27,1.33q-.08.27-.18.54c0,.06-.07.13-.06.19a2.57,2.57,0,0,1-.13,1.1c-.09.49-.2,1-.3,1.47l-.11,0c0-.11-.1-.17-.19-.06a.71.71,0,0,0,.07.83c.12.08.05.19,0,.27-.14.75-.29,1.49-.44,2.24-.05.2,0,.42-.2.59s0,.21,0,.31c-.08.44-.18.89-.28,1.33l-.17.14-.74,1.07a.7.7,0,0,0-.1.51,8.3,8.3,0,0,0,.6-.73,2.39,2.39,0,0,1,.23-.22l-.08.45-.86,1a.74.74,0,0,0,.54-.23,1.46,1.46,0,0,1,.24-.17l-.93,4.62-1,5.22a1.63,1.63,0,0,1-.11.31l-.43,0H98.18a.7.7,0,0,0-.27.11c-.43.43-.86.87-1.28,1.31a4,4,0,0,0-.3.28l-5.91,5.89-.26.24c0-.12,0-.24.06-.36l.84-4.26c.29-1.41.57-2.84.86-4.29s.57-2.83.86-4.25l.84-4.25c.29-1.41.57-2.83.85-4.25s.57-2.83.85-4.25c.15-.74.3-1.48.46-2.22,0,0,0,.09,0,.13a1.46,1.46,0,0,0,.16.92c0,.06,0,.17,0,.25a.49.49,0,0,0,0,.11h.06A14,14,0,0,1,99,64l-.22-.13a9,9,0,0,0-1.15,1.64c-.32.58-.6,1.19-.9,1.79l.15-.94c0-.1.1-.19.14-.29a16.28,16.28,0,0,1,1.54-2.34l.06-.13h0l-.07.13-.29-.06c-.11.15-.23.28-.33.43-.27.38-.54.77-.8,1.16l.07-.58a2.86,2.86,0,0,0,.62-.93c-.2-.07-.29.12-.42.19a3.27,3.27,0,0,1,0-.44c.23-1.17.46-2.35.7-3.52l.93-4.65c.09-.46.15-.91.23-1.37a.39.39,0,0,1,.11-.06h35.21l0,.32C134,57.11,133.45,60,132.85,63a.71.71,0,0,1-.14-.1.21.21,0,0,0-.3-.06h0l.34.44c0,.21,0,.43-.07.65s-.06.33-.09.49a1.79,1.79,0,0,1-.27-.28c-.25-.42-.48-.84-.73-1.25a.48.48,0,0,0-.47-.24l.2.31c.27.43.54.86.8,1.29C132.24,64.39,132.35,64.59,132.46,64.78Zm-31.14-1.42-.07.06-.08.07c-.2.2-.42.4-.61.62a1.11,1.11,0,0,0-.13.36s-.23-.1-.14.12a3.79,3.79,0,0,0-.38.32,4.37,4.37,0,0,0-.31.44,13.23,13.23,0,0,0-2.14,8.52c0,.37.09.74.14,1.11s.06.27.34.3a.17.17,0,0,0,0-.1,13.53,13.53,0,0,1-.11-4.26,12.59,12.59,0,0,1,2.43-6,2,2,0,0,0,.17-.32l.26-.2a2.71,2.71,0,0,0,.57-.89.07.07,0,0,0,0-.06l0-.08,0,0Zm13-.75.14-.08.21-.06V62.4l-.36,0a2,2,0,0,0-.93-.08c-.05.18,0,.24.16.24h.78Zm-7.77,15.8-.07-.07-.12-.13c.32-1.6.63-3.19,1-4.79.22-1.11.45-2.21.68-3.32l.09.1,1.53,2.58c.19.32.37.65.55,1-.12.1-.09.21,0,.33a3.4,3.4,0,0,0,.72,1,.69.69,0,0,0,.19.1h0l.08.16a1,1,0,0,1,.33.6l-.22-.1a4,4,0,0,1-1.22-1.3c-.05-.09-.12-.18-.17-.27l-.09,0a1,1,0,0,0,.2.8,4.21,4.21,0,0,0,1.91,1.47l.27.43a3.76,3.76,0,0,1-1.42-.69c-.28-.21-.52-.47-.78-.7-.07-.07-.13-.17-.25,0a.89.89,0,0,0,.42.67.47.47,0,0,1,.13.11,3.07,3.07,0,0,0,1.06.72.37.37,0,0,0,.25.07c.23-.1.44,0,.67,0a.43.43,0,0,1,.11.12c.51.84,1,1.69,1.51,2.55.24.4.46.8.69,1.2-.11.23-.08.28.17.29l.17.26-.22,0c0,.25.2.26.38.24l.12.21-.2.1c.1.23.1.23.38.22a2.56,2.56,0,0,1,.2.26c.65,1.09,1.3,2.17,1.94,3.27.15.28.32.44.66.38h4.9l.24,0c0-.06,0-.12,0-.17l2.2-11a1.92,1.92,0,0,1,.15-.48,1.94,1.94,0,0,0,.22-.78,12.23,12.23,0,0,1,.29-2.09,1.72,1.72,0,0,1,.07.21c0,.3,0,.59,0,.88,0,.46-.06.93-.08,1.36l.27.15c0-.08,0-.15.05-.23a12,12,0,0,0,.06-2.4,8.1,8.1,0,0,0-.13-.86l.09-.82a1.51,1.51,0,0,1,.13.29,11.48,11.48,0,0,1,.08,4.09,2.51,2.51,0,0,0,.13.82.23.23,0,0,0,.07-.14,11.52,11.52,0,0,0,0-4.89,8,8,0,0,0-.23-.84c0-.21,0-.42.07-.63a1,1,0,0,1,.12.19,12.5,12.5,0,0,1,.56,3.21,12.07,12.07,0,0,1-.22,2.81,1.07,1.07,0,0,0,.13.7,12.24,12.24,0,0,0-.32-7.21l-.14,0c0-.27,0-.54.08-.8a1.32,1.32,0,0,1,.12.2,12.57,12.57,0,0,1,.78,6.7c-.06.36-.14.73-.2,1.1l.24.15a.44.44,0,0,0,.06-.16c.12-.74.28-1.47.33-2.21a12.36,12.36,0,0,0-.73-5.18c-.13-.37-.31-.72-.47-1.08,0-.13,0-.28.07-.42a.91.91,0,0,1,.11.16c.24.58.51,1.16.71,1.76a12.82,12.82,0,0,1,.52,5.5v.1l.27.09c0-.21.06-.41.08-.61a13.61,13.61,0,0,0-.75-5.66,7.36,7.36,0,0,0-.84-1.77l0-.4a1.71,1.71,0,0,1,.21.26,13.06,13.06,0,0,1,1.59,7.6c0,.12,0,.24,0,.37.31-.08.32-.08.33-.36,0-.75,0-1.5,0-2.25,0-.25,0-.51-.08-.76a12.51,12.51,0,0,0-1.33-4.3c-.17-.33-.38-.64-.57-1,0-.09,0-.18,0-.28.2,0,.21.15.27.25a13,13,0,0,1,1.78,4.67c.05.31.13.62.2.94a.32.32,0,0,0,.18-.39,13.29,13.29,0,0,0-1.48-4.63c-.24-.43-.54-.83-.8-1.25V64.6a1.21,1.21,0,0,1,.24.21,12.91,12.91,0,0,1,1.87,4,16.42,16.42,0,0,1,.47,2.4c0,.08,0,.2.09.22a.22.22,0,0,1,.12.21c0,.13.05.25.08.37a.23.23,0,0,0,0-.16c0-.42-.07-.85-.13-1.27a13.11,13.11,0,0,0-1.75-5c-.26-.45-.6-.85-.9-1.27V64a.79.79,0,0,1,.23.16c.37.54.77,1.07,1.09,1.65A12.88,12.88,0,0,1,130.56,70c0,.18.09.3.32.25a.68.68,0,0,0,0-.14c0-.21-.07-.42-.11-.63s-.09-.42-.15-.63-.11-.42-.17-.62-.09-.48-.23-.6,0-.42-.18-.57v0a12.85,12.85,0,0,0-1.59-2.82c-.16-.21-.35-.4-.53-.6v-.29l.06,0c.4.53.83,1,1.2,1.6s.66,1.16,1,1.77a.75.75,0,0,0,0-.64,12.44,12.44,0,0,0-1.25-2c-.27-.35-.59-.68-.88-1a.33.33,0,0,1,0-.14c.14-.71.28-1.42.43-2.13.08-.43.17-.86.26-1.32h-6.16c-.44,0-.46,0-.5.37a1.17,1.17,0,0,1,0,.2l-.36,1.71-.29-.1c.09.25.09.25.25.35l-.22,1.17-.18,0,.14.12-.07.38-.12,0h-.07l0,0,.13.18-.11.42c-.25,0-.34-.16-.45-.33a.28.28,0,0,0,0,.39l.06,0a2.69,2.69,0,0,1,.27.2l-.06.34a3,3,0,0,0-.92-.7l-.14.22,1,.74-.08.3c-.2-.16-.39-.32-.6-.46a1,1,0,0,0-.76-.18l1.3,1-.08.33-1.13-.93c-.17-.13-.34-.2-.53,0,.19.14.39.27.57.43.35.28.69.58,1,.88l-.07.35a9.17,9.17,0,0,0-2.07-1.65l-.21.22a9.09,9.09,0,0,1,2.13,1.77l.09.06-.09.41a7.16,7.16,0,0,0-2.69-2.16,1.08,1.08,0,0,0,.3.46,8.49,8.49,0,0,1,2.28,2.11l-.07.41-.21-.27a7.78,7.78,0,0,0-2.41-2.16,1.45,1.45,0,0,0-.22-.09v.34a7.34,7.34,0,0,1,2.72,2.7l-.09.44-.1-.13a7,7,0,0,0-2.68-2.74,7.52,7.52,0,0,0-2.81-.93c-.3,0-.3,0-.41.29l1.2.13a.59.59,0,0,1,.23,0l.55.25a7.45,7.45,0,0,1,1.24.6,6.83,6.83,0,0,1,2.51,2.79A2,2,0,0,0,120,70c-.07.33-.13.66-.2,1l-.3-.35,0,0,.22.87c-.07.34-.13.68-.21,1,0-.35-.06-.7-.13-1a5.68,5.68,0,0,0-2.9-3.92.92.92,0,0,0-.76,0,5.58,5.58,0,0,1,3,2.92,5.37,5.37,0,0,1,0,4.2l.33.21a1.22,1.22,0,0,1-.16.79c0-.12-.1-.24-.16-.36s-.07-.21-.14-.25a.44.44,0,0,1-.22-.56c-.22-.18-.48-.3-.49-.62,0-.16-.06-.37.15-.49a2.8,2.8,0,0,0,0-1.35,1.93,1.93,0,0,0-.15-.89c-.07-.23-.15-.24-.4-.1.09.32.17.64.26,1l.3,0a1.47,1.47,0,0,1,0,.42,3.19,3.19,0,0,0-.33.89s-.06.08-.1.12a2.35,2.35,0,0,1-.19-.39c0-.1,0-.19-.15-.23s-.1-.12-.14-.19l-.71-1.2c0-.06-.1-.16-.08-.2s0-.25-.09-.34-.29-.35-.42-.53-.27-.44-.4-.66a1.09,1.09,0,0,1,.37.19c.32.31.62.64.92,1,.19-.31.2-.32,0-.61a5,5,0,0,0-.56-.57,2.42,2.42,0,0,0-1-.58l-.31-.42a1.53,1.53,0,0,1,.36.07,9.34,9.34,0,0,1,1,.57,11.52,11.52,0,0,1,.89.82l.36,0a.15.15,0,0,0,0-.07,4,4,0,0,0-1.88-1.55.67.67,0,0,0-.78.1l-.42-.77.46.06c0-.11.06-.2.09-.34l-.74-.06-.22-.34.9.06c0-.1,0-.19,0-.3a3.58,3.58,0,0,0-1.13-.1l-.09-.1c-.85-1.42-1.69-2.84-2.55-4.26-.08-.15,0-.23.11-.35-.23,0-.37,0-.4-.2a2.46,2.46,0,0,0,.86-.13c-.37-.17-.69,0-1-.07l-.07-.13.49-.11c-.2-.2-.38-.12-.56-.08s-.15-.15,0-.27a.47.47,0,0,1-.35-.29l-.85-1.43h-5.58c-.16.74-.3,1.47-.45,2.2-.06.25-.13.49-.21.73-.15,0-.32-.09-.44.07a.31.31,0,0,0,0,.17c.06,0,.13,0,.17,0a2,2,0,0,0,.32-.18l-.15,1-.23.14,0,0h.15a.28.28,0,0,1,0,.13c-.14.65-.27,1.3-.41,2l-.14-.11a2,2,0,0,0-.4.69l.48-.27c-.14.75-.28,1.5-.43,2.25l-.24,1.07-.07.29h0s0,0-.06.07a8.13,8.13,0,0,0-.34,2,2,2,0,0,1,0,.24c-.22,1.12-.44,2.23-.67,3.35-.07.38-.17.76-.26,1.15a.92.92,0,0,1-.23-.69,1,1,0,0,0,0-.23c0-.2-.15-.23-.35-.2a3,3,0,0,0,.27,1,.26.26,0,0,0,.32.17h0a1.41,1.41,0,0,1,0,.2l-.27,1.36-1.55,7.67c0,.18,0,.37-.08.59h.41l.2,0h5.72l.21,0c0-.08,0-.15.07-.22.08-.39.15-.78.23-1.16.15-.78.31-1.56.47-2.33.1-.51.22-1,.33-1.53.16.14.31.08.48,0l-.41-.31,0-.28.63.45c.06-.12.09-.2.13-.27l-.69-.57.07-.29.57.44.07,0a.92.92,0,0,0-.1-.36,2.11,2.11,0,0,0-.43-.36c0-.14,0-.27,0-.4l.64.56.18-.27-.72-.67,0-.31h.2a.23.23,0,0,1,.07.07l.12.13a1.67,1.67,0,0,0,.58.51,2.56,2.56,0,0,0,0-.27c-.1-.22-.31-.24-.51-.27Zm22.2,2.25c-.21,0-.22.1-.12.29l.13-.27,0-.06Zm-8.64-16.83c0-.1,0-.18-.16-.17s0,0,0,0,.1.12.17.16a.54.54,0,0,0,.34.23c0-.24-.16-.27-.31-.27Zm-18.95-1.91a.38.38,0,0,0-.39.2H101a.42.42,0,0,0,0,.43c.06,0,.15,0,.2-.08s.32-.19.4-.39.26-.14.24-.33h-.06c-.15.1-.31.19-.45.3a.37.37,0,0,1-.38.07l.18-.2,0,0Zm17.11,8.65,0,0,0,0a.78.78,0,0,0-.23-.51l-.17.32Zm9.61,6.89c-.07,0-.16,0-.19.1a1.44,1.44,0,0,0-.13.31c-.08.17,0,.27.19.32.06-.16.13-.32.2-.47s0-.19-.08-.27c.15,0,.26,0,.19-.21s-.06-.23-.11-.4c-.08.24-.24.41-.08.62ZM99.66,63.76a1,1,0,0,0-.17.18s0,.11,0,.17c.22,0,.19-.24.29-.34a4,4,0,0,0,.89-.86s0-.13,0-.26a3.86,3.86,0,0,0-.85.76s0,.09.05.12l-.25.11s0,.08,0,.12Zm1.45,4.9a11.06,11.06,0,0,0-.74,4c.33-.1.33-.1.34-.38a11.15,11.15,0,0,1,.54-3,.54.54,0,0,0-.07-.57l0-.09Zm-1.36-4a.39.39,0,0,0-.5.21,13.27,13.27,0,0,0-2.4,7.7c0,.67.07,1.33.12,2a.36.36,0,0,0,.34.33,13.53,13.53,0,0,1,2.44-10.23Zm-.92,8.38c.06-.72.09-1.4.17-2.07a11.89,11.89,0,0,1,3-6.56.5.5,0,0,0,.15-.57A12.23,12.23,0,0,0,98.57,73Zm.33-8.92c-.24.34-.48.64-.69,1a14.11,14.11,0,0,0-2.18,7.64,1,1,0,0,0,.29.83c0-.77,0-1.56.1-2.35a13.11,13.11,0,0,1,2.64-6.82,1.09,1.09,0,0,0,.08-.15Zm1.77.74a.3.3,0,0,0-.43.1h0c-.17.26-.36.5-.52.75a12.87,12.87,0,0,0-2,7.69,2.7,2.7,0,0,0,0,.28c.07-.11.08-.25.15-.34a.53.53,0,0,0,.11-.44,13.37,13.37,0,0,1,.15-2.28,12.2,12.2,0,0,1,2.27-5.47q.11-.14.21-.3Zm-.37,2.73c-.29,0-.29,0-.35.06a.8.8,0,0,0-.08.16,12.44,12.44,0,0,0-1,5l0,.14.13,0a.41.41,0,0,0,.16,0,12.3,12.3,0,0,1,1.09-5.31Zm-.47,5.8v-.13a13.34,13.34,0,0,1,.2-2.82,12.94,12.94,0,0,1,.64-2.18c.09-.24.08-.24-.17-.38l-.12.23c-.17.52-.36,1-.5,1.55a11.09,11.09,0,0,0-.38,3c0,.1,0,.27.06.27.25.07.19.28.28.43Zm16.59-6.48c-.05.39.2.51.43.67a6,6,0,0,1,2,2.4c.06.12.12.23.18.37l.25-.29a6.42,6.42,0,0,0-2.9-3.14Zm11.49-4.26-.08.08a12.51,12.51,0,0,1,2.4,3.54l.25-.06A11.69,11.69,0,0,0,128.61,63a1.79,1.79,0,0,0-.44-.27Zm-12.89,5.44a5,5,0,0,1,2.42,2l.28-.19a4.17,4.17,0,0,0-1-1.2,3.34,3.34,0,0,0-1.36-.79c-.2,0-.26,0-.33.18Zm13.46-5.39a2,2,0,0,0,.16.2,10.76,10.76,0,0,1,1.32,1.81c.23.4.44.82.65,1.23.08.13.14.3.39.3a2.32,2.32,0,0,0-.13-.37c-.2-.4-.4-.8-.62-1.21a11.4,11.4,0,0,0-1.33-1.83c-.11-.11-.2-.26-.44-.13Zm-10.3,11.43a5,5,0,0,0,.12-2.87c0-.2-.14-.21-.39-.07a4.59,4.59,0,0,1,0,2.41c0,.2,0,.35.22.53Zm-1.22-8.31a7.38,7.38,0,0,0-2.47-.8,1.13,1.13,0,0,0-.61.22l.26,0a6.64,6.64,0,0,1,1.81.43,4.36,4.36,0,0,0,1,.13.1.1,0,0,1,0,0ZM129.64,63c.29.41.58.79.83,1.19s.48.82.72,1.24l.21-.09c-.05-.12-.09-.22-.14-.32-.21-.36-.4-.73-.64-1.08s-.46-.64-.69-1c-.1-.14-.19-.14-.28,0Zm.52-.37-.08.05a1.62,1.62,0,0,0,.17.35,11.81,11.81,0,0,1,1.35,2.2.38.38,0,0,0,.11.11c0-.11-.07-.23,0-.26s0-.28,0-.39c-.29-.49-.58-1-.9-1.45a5.43,5.43,0,0,0-.57-.61Zm.46,5-.08,0c.17.69.35,1.37.54,2.12,0-.09.06-.19.08-.28a3.9,3.9,0,0,0-.31-1.62c0-.1-.15-.18-.23-.26Zm-28.36-3a4.52,4.52,0,0,0-1.21,1.59,2.56,2.56,0,0,0,1.21-1.58Zm14.31,2.2-1.15-.45-.28.27,1.26.47Zm-1.47-.49a3.24,3.24,0,0,0-1.16-.18c-.18,0-.2.13-.23.29l1,.13c.15,0,.26-.07.36-.24Zm14.64,7.55c.27-.33.3-.55.28-1.31a.63.63,0,0,0-.28-.5ZM100.89,63.39l-.18-.16a13.6,13.6,0,0,0-1.09,1.19.37.37,0,0,0,.44-.1Zm28.86,13.25-.25.77a1.87,1.87,0,0,0-.18.74.41.41,0,0,0,.2-.14c.1-.2.19-.4.28-.61a.22.22,0,0,0,0-.16.36.36,0,0,1,.13-.44s0,0,0-.08Zm-1.58-.31.09,0c.07-.08.18-.15.21-.24a4.9,4.9,0,0,0,.2-.82c0-.15-.09-.23-.25-.3Zm-11.24-4.27c.32,0,.36-.1.3-.33s-.11-.39-.17-.59l-.37,0c.09.33.16.65.24,1ZM99.24,75.72,99,74.52c-.06.07,0,.15-.09.2-.18.23-.1.46-.06.71a.32.32,0,0,0,.39.3ZM129,78.05c.14-.36.26-.73.39-1.11-.42.16-.48.54-.61.86-.06.14,0,.23.22.25ZM99.29,63.45a2.54,2.54,0,0,0,1.07-.91c-.4.05-.6.37-.88.54a.4.4,0,0,0-.19.37Zm32.5-.72c.25.31.35.68.7.92.11-.32-.14-.48-.23-.69a.38.38,0,0,0-.47-.23Zm-10.63-1a.41.41,0,0,0,0-.09,4.43,4.43,0,0,0-.42-.29,2.74,2.74,0,0,0-.4-.15l-.34-.13,0,0c0,.06,0,.15.08.17.36.16.72.3,1.08.44Zm-18.78,1.31a3.8,3.8,0,0,0-.7.63s0,.12,0,.19A.88.88,0,0,0,102.38,63.07ZM116.16,65c-.09.11,0,.14.06.17l1.1.44.12,0c-.34-.4-.86-.4-1.28-.63Zm-.1-.08-.24-.14a.5.5,0,0,0-.38,0c-.17-.18-.27,0-.39.08.32,0,.62.29,1,.07Zm1-3.41c0,.09,0,.2,0,.21.2.07.4.12.62.18,0-.09,0-.15.06-.22Zm-14.9.67a.16.16,0,0,0-.1,0c-.15.13-.25.31-.49.33-.08,0-.15.13-.27.23.61-.07.73-.16.86-.57Zm-4,12.71c0,.13,0,.26,0,.38l.35.18c-.07-.23,0-.53-.4-.55Zm19.92-11.4a3.43,3.43,0,0,0,.44.19s.11,0,.14-.09a.11.11,0,0,0,0-.13c-.13-.12-.27-.12-.54,0ZM116.19,62l.69.12c0-.12,0-.19-.09-.31-.18.11-.39-.06-.59.19Zm-2.52.88c.13.29.13.29.5.21,0-.25,0-.25-.49-.21Zm5,1.5c-.11-.37-.27-.53-.42-.47l-.07.23Zm.4-1.23c-.32-.23-.33-.23-.54,0a.39.39,0,0,0,.53,0h0ZM127.32,77c-.12.25-.12.25.08.55.18-.31.18-.37-.07-.55Zm-11.5-9.76-.61-.19c.08.3.22.35.62.19Zm12.11,11.19.29.18c-.06-.23.07-.42-.07-.61a.62.62,0,0,0-.09.12l-.12.31Zm-.39-2c-.07.2-.07.2.08.54.16-.28.16-.28-.08-.54ZM99.88,74.13c0,.27,0,.27.32.19-.07-.18-.07-.18-.32-.19ZM114,62.05v.09l.7.06A1,1,0,0,0,114,62.05Zm2.94-.21c.07.21.07.21.58.16Zm11.43,16.77c.09.14.19.16.28.1s.06-.14.09-.2l-.06,0Zm1.31-6.92c.13-.07.26-.08.22-.27h-.27l.05.27Zm-.75,7.1.28-.05c0-.06-.05-.17-.09-.18s-.15.07-.19.23ZM99.26,74.37c0,.18.06.29.1.43.16-.31.16-.31-.1-.43Zm-2.83-.21.12,0a.9.9,0,0,0-.08-.21s-.07,0-.11,0l.08.21Zm21.93-9.06-.25-.13c.07.21.07.21.25.13Zm-1,5.15-.07.06.2.24c0-.19,0-.27-.12-.3Zm-14.66-8.13.1.05.12-.21-.08-.05-.13.21Zm-1.5,6.28c.16,0,.21-.12.12-.27ZM130,75.81l-.07.29C130.09,76,130.17,76,130,75.81ZM101.74,63.15c-.18-.11-.22,0-.28.06a.31.31,0,0,1,0,.08Zm25.34,13.67-.08,0-.11.15.1.06ZM114.46,62.88c.12.18.21.17.3.08s0,0,0-.08Zm14.1,18.17,0,0-.07.06.05,0ZM114.8,67.27h0a0,0,0,0,0,0,0h0Z" style="fill:#fb1924"/><path id="Path_55" data-name="Path 55" d="M42.57,78H42a13.32,13.32,0,0,0,0-1.54,3.48,3.48,0,0,0-2.9-3.28A11.45,11.45,0,0,0,37.6,73c-.42,0-.84,0-1.28,0-.11.56-.23,1.1-.34,1.65q-.79,3.93-1.6,7.87a5.33,5.33,0,0,0-.19,1.54,1.6,1.6,0,0,0,1,1.4,4,4,0,0,0,1.45.33c.22,0,.43,0,.69,0l-.08.48H26.54l.09-.43c.42-.06.82-.1,1.2-.19A3.19,3.19,0,0,0,30.41,83c.69-3.44,1.4-6.88,2.1-10.33,0-.08,0-.17.07-.27h6.59c-.06-.15-.11-.26-.16-.37q-2.4-5.32-4.79-10.64a2.41,2.41,0,0,0-2.11-1.53l-.2,0,.09-.45H51.8c-.49,2.39-1,4.77-1.46,7.16h-.52v-.37a7,7,0,0,0-.51-2.93,5.3,5.3,0,0,0-3.6-3.06,7.24,7.24,0,0,0-2-.29H38.24L38,60l4.65,10.46a6.1,6.1,0,0,0,1.5-2.93h.58Q43.65,72.74,42.57,78Z" style="fill:#020317"/><path id="Path_56" data-name="Path 56" d="M96.91,66.32l-.15.93c-.15.67-.31,1.34-.45,2-.18.91-.35,1.83-.53,2.74l-.45,2.22c-.29,1.41-.57,2.83-.86,4.25l-.84,4.25L92.77,87c-.28,1.42-.57,2.84-.85,4.26s-.57,2.84-.86,4.29-.57,2.83-.85,4.25l-.06.36c-.47.46-1,.9-1.41,1.34.13-.68.26-1.38.41-2.09L91,90.33c.6-3,1.2-6,1.81-9,.64-3.24,1.29-6.47,1.94-9.71s1.25-6.25,1.87-9.37c.45-2.21.89-4.43,1.32-6.64a.87.87,0,0,1,.26-.5c.4-.37.78-.76,1.17-1.14-.08.46-.14.91-.23,1.37-.3,1.55-.62,3.1-.93,4.65l-.7,3.52a3.27,3.27,0,0,0,0,.44h0l-.06.1-.13.64-.07.58c-.07.26-.14.52-.2.78C97,66.11,96.93,66.22,96.91,66.32Z" style="fill:#9e080f"/><path id="Path_57" data-name="Path 57" d="M96.62,93.73l1.29-1.31a.64.64,0,0,1,.26-.1h28.34a3,3,0,0,1,.43,0l-1.26,1.29a.51.51,0,0,1-.24.1,1,1,0,0,1-.24,0H97Z" style="fill:#9d060e"/><path id="Path_58" data-name="Path 58" d="M132.3,65.6a.38.38,0,0,1-.09-.13,11.94,11.94,0,0,0-1.65-2.77l-.07-.12c.19-.11.3,0,.4.11a12.17,12.17,0,0,1,1.22,2c.06.13.13.26.2.39s.09,0,.13.06C132.4,65.28,132.35,65.44,132.3,65.6Z" style="fill:#fdaaad"/><path id="Path_59" data-name="Path 59" d="M132.46,64.79l-.33-.58-.8-1.3-.2-.3a.49.49,0,0,1,.47.23c.25.42.48.84.73,1.25a1.86,1.86,0,0,0,.27.29Z" style="fill:#feacaf"/><path id="Path_60" data-name="Path 60" d="M129.19,81.14a2.39,2.39,0,0,0-.23.22c-.2.25-.38.49-.6.72a.71.71,0,0,1,.1-.51l.74-1.06a.86.86,0,0,1,.18-.14c0,.21-.09.42-.13.63l-.06.14Z" style="fill:#feacb0"/><path id="Path_61" data-name="Path 61" d="M129,82.21a1.08,1.08,0,0,0-.24.18.75.75,0,0,1-.55.23l.87-1Z" style="fill:#fdaaad"/><path id="Path_62" data-name="Path 62" d="M131.52,69.44c-.12-.37-.23-.74-.35-1.11l.07,0,.31.51c-.15.16-.13.3.08.41A1.63,1.63,0,0,1,131.52,69.44Z" style="fill:#fd989d"/><path id="Path_63" data-name="Path 63" d="M130.25,75.63a.74.74,0,0,1-.07-.84c.09-.1.16-.05.19.06l-.13.77Z" style="fill:#feb0b3"/><path id="Path_64" data-name="Path 64" d="M132.75,63.23l-.34-.43a.22.22,0,0,1,.3,0h0l.15.11C132.86,63.06,132.91,63.19,132.75,63.23Z" style="fill:#feadb1"/><path id="Path_65" data-name="Path 65" d="M130.24,75.62l.13-.77.11,0c0,.23-.08.47-.13.7C130.34,75.6,130.28,75.61,130.24,75.62Z" style="fill:#fc5f67"/><path id="Path_66" data-name="Path 66" d="M131.63,69.21c-.2-.11-.23-.25-.07-.41h.13Z" style="fill:#fc434c"/><path id="Path_67" data-name="Path 67" d="M129.19,81.14l.06-.14Z" style="fill:#fb1924"/><path id="Path_68" data-name="Path 68" d="M82.6,72.45h5.64c0,.1,0,.2,0,.3Q87.16,78,86.11,83.22a.75.75,0,0,1-.34.51,16.3,16.3,0,0,1-6.4,2.71,18.84,18.84,0,0,1-4.68.34,15,15,0,0,1-6.34-1.62,10.57,10.57,0,0,1-5.74-7.79A15.16,15.16,0,0,1,62.54,73a15.86,15.86,0,0,1,1.61-5.42,15.07,15.07,0,0,1,7.6-7.1,17.56,17.56,0,0,1,4.88-1.32A21.66,21.66,0,0,1,80,59a16.88,16.88,0,0,1,5.92,1.14,11,11,0,0,1,4.38,3.15l.33.4-4.45,3.61a1.23,1.23,0,0,1-.2-.19,7.72,7.72,0,0,0-4.52-2.58,11.62,11.62,0,0,0-6.24.45,9.36,9.36,0,0,0-5.68,5.56,11,11,0,0,0-.73,5A6,6,0,0,0,73.18,81a11.13,11.13,0,0,0,4.44.43,10.88,10.88,0,0,0,3.09-.78.48.48,0,0,0,.34-.41c.36-1.93.74-3.85,1.12-5.78.12-.61.23-1.22.36-1.83A.75.75,0,0,1,82.6,72.45Z" style="fill:#fffeff"/><path id="Path_69" data-name="Path 69" d="M122.51,59.41h6.15c-.09.46-.17.89-.26,1.32-.14.71-.28,1.42-.43,2.13V63l-.09.28a.06.06,0,0,0,0,.06v.29c0,.11-.08.22-.13.33v.27c0,.12-.08.23-.13.35v.33l-.14.4c0,.09,0,.19,0,.28s-.09.27-.13.39l0,.4c0,.14-.07.28-.11.42s0,.28-.07.43l-.12.48c0,.27-.05.54-.08.8h0l-.1.07,0,.2c0,.2,0,.41-.07.62l-.2.68c0,.27-.06.53-.08.81,0,0-.08,0-.08,0-.07.28-.12.56-.18.84a13.47,13.47,0,0,0-.29,2.09,1.91,1.91,0,0,1-.23.78,1.41,1.41,0,0,0-.15.48q-1.1,5.5-2.2,11c0,.06,0,.11,0,.17l-.24,0h-4.74l-.16,0s0-.08-.07-.12l-9.8-16.45c0-.06-.08-.11-.16-.23l-.09.57-.69,3.33c-.32,1.6-.63,3.19-.95,4.79l-.08.13c0,.1,0,.21,0,.32l-.09.37c0,.13,0,.26,0,.4s-.07.22-.11.33L106,80l-.07.39-.06.29-.06.34c-.11.51-.23,1-.33,1.53-.16.78-.32,1.56-.47,2.33-.08.39-.15.78-.23,1.16a2,2,0,0,1-.07.23H98.58l0-.2,1.47-7.38c.54-2.66,1.07-5.33,1.61-8l1.68-8.33c.2-1,.4-2,.61-3h5.14l.86,1.43a.51.51,0,0,0,.34.3c-.1.11-.1.2.06.26l.07.19.07.14.14.2c0,.19.16.25.4.19-.13.13-.2.2-.11.35l2.55,4.27a.28.28,0,0,0,.09.1l.19.33.22.34.19.34.42.77v0l0,0,.31.42.27.54.07.07h0a7.23,7.23,0,0,0,.4.66c.13.19.29.35.42.54s.17.18.09.33,0,.15.08.21l.71,1.2c0,.06.08.16.14.19s.12.13.15.23a2.81,2.81,0,0,0,.19.39l.32.42c0,.32.27.44.49.61a.45.45,0,0,0,.22.57c.07,0,.1.16.14.25a3.92,3.92,0,0,1,.16.36l.35.63c0-.18.07-.3.1-.4.46-2.35.93-4.71,1.4-7.06q.63-3.19,1.25-6.37C122.1,61.43,122.31,60.42,122.51,59.41Z" style="fill:#fffefe"/><path id="Path_70" data-name="Path 70" d="M104,59.41c-.2,1-.4,2-.61,3-.56,2.77-1.11,5.55-1.67,8.33l-1.6,8-1.48,7.38,0,.19h-.41c0-.22,0-.41.09-.59.51-2.56,1-5.11,1.54-7.67l.27-1.36a1.27,1.27,0,0,0,0-.2.09.09,0,0,1,0,0l.27-1.15c.22-1.11.45-2.23.67-3.35a1.64,1.64,0,0,0,0-.23c.09-.41.19-.82.27-1.24s.08-.57.13-.85h0l.07-.29.24-1.07c.14-.75.29-1.5.43-2.25l.06-.31.41-2a.33.33,0,0,0,0-.14c0-.06,0-.12.07-.19,0-.32.1-.65.14-1v-.09c.07-.24.16-.48.21-.73.16-.72.3-1.45.45-2.21Z" style="fill:#a10b13"/><path id="Path_71" data-name="Path 71" d="M108,70.09l.09-.57c.08.12.13.17.16.23l9.8,16.45s0,.08.07.12c-.33.07-.5-.1-.66-.38-.64-1.1-1.29-2.18-1.94-3.26a1.89,1.89,0,0,0-.2-.27l-.18-.31-.12-.22-.16-.28-.17-.26c0-.1-.11-.19-.17-.29-.23-.4-.45-.8-.69-1.21l-1.51-2.54a.69.69,0,0,0-.11-.13l-.07-.13-.27-.43c-.11-.2-.23-.39-.34-.58l-.08-.07h0a1,1,0,0,0-.33-.6l-.07-.16h0c-.17-.3-.33-.61-.51-.91s-.25-.37-.38-.56-.35-.65-.54-1l-1.53-2.58Z" style="fill:#a10e15"/><path id="Path_72" data-name="Path 72" d="M122.51,59.41c-.2,1-.4,2-.61,3l-1.26,6.37c-.46,2.35-.93,4.71-1.4,7.06a4,4,0,0,1-.09.4l-.35-.64a1.19,1.19,0,0,0,.16-.78h0a1.87,1.87,0,0,0,.07-.22c.14-.71.27-1.43.4-2.15.07-.34.14-.67.22-1l.12-.53c.07-.33.13-.66.2-1l.07-.52.09-.44.12-.51c0-.14,0-.28.08-.42a3.06,3.06,0,0,1,.1-.41l.09-.41.06-.39.08-.36.06-.39.08-.32,0-.34.08-.3,0-.27c0-.11,0-.22.05-.34a2.45,2.45,0,0,1,.08-.29l.1-.42c0-.06,0-.12,0-.19l.07-.37s0-.1,0-.15l.23-1.16c0-.08,0-.17,0-.25L122,60c0-.07,0-.13,0-.2C122.05,59.37,122.07,59.39,122.51,59.41Z" style="fill:#a10d15"/><path id="Path_73" data-name="Path 73" d="M100.43,64.58a1.41,1.41,0,0,1-.17.32,12.59,12.59,0,0,0-2.43,6,13.53,13.53,0,0,0,.11,4.26.17.17,0,0,1,0,.1c-.28,0-.3,0-.34-.3a10.2,10.2,0,0,1-.14-1.11,13.25,13.25,0,0,1,2.14-8.52,3.28,3.28,0,0,1,.32-.44,2.83,2.83,0,0,1,.37-.32Z" style="fill:#feaeb1"/><path id="Path_74" data-name="Path 74" d="M99.75,64.69a13.58,13.58,0,0,0-2.44,10.23A.34.34,0,0,1,97,74.6c0-.67-.14-1.34-.13-2a13.42,13.42,0,0,1,2.4-7.7A.4.4,0,0,1,99.75,64.69Z" style="fill:#feacaf"/><path id="Path_75" data-name="Path 75" d="M119.44,72.49c-.14.72-.27,1.44-.4,2.16a1.42,1.42,0,0,0-.07.22v0l-.34-.21a5.29,5.29,0,0,0,0-4.2,5.53,5.53,0,0,0-3-2.92.92.92,0,0,1,.76,0,5.69,5.69,0,0,1,2.9,3.92C119.37,71.79,119.39,72.15,119.44,72.49Z" style="fill:#fdaeb1"/><path id="Path_76" data-name="Path 76" d="M98.83,73.08l-.27,0a12.33,12.33,0,0,1,3.62-9.17.51.51,0,0,1-.15.58,11.66,11.66,0,0,0-1.56,2.13A11.43,11.43,0,0,0,99,71C98.92,71.68,98.89,72.36,98.83,73.08Z" style="fill:#feaeb1"/><path id="Path_77" data-name="Path 77" d="M99.16,64.15l.24.13s-.05.1-.08.14a13.18,13.18,0,0,0-2.64,6.82c-.05.79-.07,1.59-.1,2.36a1,1,0,0,1-.29-.84,14,14,0,0,1,2.18-7.64C98.68,64.8,98.92,64.49,99.16,64.15Z" style="fill:#feabaf"/><path id="Path_78" data-name="Path 78" d="M100.93,64.89l-.21.31a12.09,12.09,0,0,0-2.27,5.47A13.43,13.43,0,0,0,98.31,73a.61.61,0,0,1-.11.44c-.07.09-.08.23-.16.34a2.7,2.7,0,0,1,0-.28,12.87,12.87,0,0,1,2-7.69c.16-.26.35-.5.52-.75A.31.31,0,0,1,100.93,64.89Z" style="fill:#feabae"/><path id="Path_79" data-name="Path 79" d="M127,67.73l.12-.49c.16.36.35.71.48,1.08a12.36,12.36,0,0,1,.73,5.18c-.05.75-.21,1.48-.33,2.22a.47.47,0,0,1-.06.15l-.24-.15c.07-.36.14-.72.2-1.1a12.58,12.58,0,0,0-.78-6.7A.76.76,0,0,0,127,67.73Z" style="fill:#feadb1"/><path id="Path_80" data-name="Path 80" d="M127.34,66l.12-.4c.2.32.4.63.58,1a12.29,12.29,0,0,1,1.32,4.3c0,.25.07.51.08.77,0,.75,0,1.5,0,2.24,0,.28,0,.28-.32.37,0-.14,0-.26,0-.38a13,13,0,0,0-1.6-7.61A2.43,2.43,0,0,0,127.34,66Z" style="fill:#feadb1"/><path id="Path_81" data-name="Path 81" d="M120.05,69.43,120,70a1.24,1.24,0,0,1-.18-.22,6.92,6.92,0,0,0-2.52-2.79,7.09,7.09,0,0,0-1.24-.6c-.18-.08-.36-.18-.55-.25a.59.59,0,0,0-.22,0l-1.21-.14c.11-.31.12-.32.41-.29a7.72,7.72,0,0,1,2.81.94A7,7,0,0,1,120,69.29,1.1,1.1,0,0,0,120.05,69.43Z" style="fill:#feaeb1"/><path id="Path_82" data-name="Path 82" d="M127.2,66.82c0-.14.08-.28.11-.43a7.43,7.43,0,0,1,.84,1.78,13.41,13.41,0,0,1,.74,5.65c0,.2,0,.4-.07.62l-.27-.09v-.1a13,13,0,0,0-.52-5.5c-.2-.6-.47-1.18-.71-1.77A.61.61,0,0,0,127.2,66.82Z" style="fill:#feaeb1"/><path id="Path_83" data-name="Path 83" d="M95.78,72c.18-.91.35-1.83.53-2.74.14-.67.3-1.34.45-2s.57-1.2.9-1.78a9.38,9.38,0,0,1,1.15-1.65L99,64a13.92,13.92,0,0,0-3,9.46H96a.49.49,0,0,1,0-.11c0-.09,0-.19,0-.25a1.46,1.46,0,0,1-.16-.92Z" style="fill:#fca8ac"/><path id="Path_84" data-name="Path 84" d="M127.62,64.59l.13-.35c.3.42.63.83.9,1.27a13.26,13.26,0,0,1,1.74,5c.07.42.09.85.14,1.28a.26.26,0,0,1,0,.15,2.33,2.33,0,0,1-.08-.36.22.22,0,0,0-.12-.21c-.06,0-.08-.15-.09-.23a16.42,16.42,0,0,0-.47-2.4,12.55,12.55,0,0,0-1.88-3.94A.93.93,0,0,0,127.62,64.59Z" style="fill:#feacb0"/><path id="Path_85" data-name="Path 85" d="M126.8,68.79l0-.2.08,0,0-.12h0l.15,0a12.24,12.24,0,0,1,.32,7.21,1.07,1.07,0,0,1-.13-.7,12.07,12.07,0,0,0,.22-2.81,12.94,12.94,0,0,0-.56-3.21Z" style="fill:#feadb0"/><path id="Path_86" data-name="Path 86" d="M127.75,64c0-.11.09-.22.14-.33.17.2.37.39.53.61A12.14,12.14,0,0,1,130,67.05s0,0,0,0c.15.16,0,.4.18.58s.16.38.22.59a6.32,6.32,0,0,1,.18.62l.15.63c0,.21.07.42.11.64a.62.62,0,0,0,0,.13c-.22,0-.28-.06-.31-.25a12.88,12.88,0,0,0-1.48-4.25c-.33-.57-.72-1.1-1.09-1.64A1,1,0,0,0,127.75,64Z" style="fill:#feabae"/><path id="Path_87" data-name="Path 87" d="M127.48,65.33l.14-.4c.27.41.57.81.8,1.24a13.3,13.3,0,0,1,1.49,4.63.32.32,0,0,1-.18.39c-.07-.32-.15-.63-.2-1a12.94,12.94,0,0,0-1.77-4.67C127.69,65.47,127.67,65.29,127.48,65.33Z" style="fill:#feacb0"/><path id="Path_88" data-name="Path 88" d="M126.53,70.1l.2-.68c.08.28.18.56.24.84a11.85,11.85,0,0,1,0,4.89.28.28,0,0,1-.08.15,2.62,2.62,0,0,1-.13-.83,11.25,11.25,0,0,0-.08-4.09A1.43,1.43,0,0,0,126.53,70.1Z" style="fill:#feacaf"/><path id="Path_89" data-name="Path 89" d="M100.56,67.63a12.14,12.14,0,0,0-1.07,5.31l-.16,0a.5.5,0,0,1-.13,0,.28.28,0,0,1,0-.13,12.28,12.28,0,0,1,1-5l.07-.15C100.27,67.59,100.27,67.59,100.56,67.63Z" style="fill:#feadb1"/><path id="Path_90" data-name="Path 90" d="M100.1,73.43c-.09-.16,0-.36-.28-.42,0,0-.06-.18-.06-.27a11.49,11.49,0,0,1,.38-3c.14-.52.33-1,.51-1.55a1.63,1.63,0,0,1,.11-.23c.26.13.26.14.17.38a12.94,12.94,0,0,0-.64,2.18,13.94,13.94,0,0,0-.2,2.81A.57.57,0,0,1,100.1,73.43Z" style="fill:#feacb0"/><path id="Path_91" data-name="Path 91" d="M116.69,67a6.51,6.51,0,0,1,2.9,3.14l-.25.29c-.07-.13-.13-.25-.18-.37a6,6,0,0,0-2-2.4C116.89,67.46,116.63,67.34,116.69,67Z" style="fill:#feadb0"/><path id="Path_92" data-name="Path 92" d="M120.25,68.48l-.11.51a7.34,7.34,0,0,0-2.72-2.7V66l.22.09a7.78,7.78,0,0,1,2.41,2.16A2.83,2.83,0,0,0,120.25,68.48Z" style="fill:#feadb1"/><path id="Path_93" data-name="Path 93" d="M101.18,68.67a.54.54,0,0,1,.07.57,11.08,11.08,0,0,0-.54,3c0,.29,0,.29-.34.38a11.06,11.06,0,0,1,.74-4Z" style="fill:#feadb0"/><path id="Path_94" data-name="Path 94" d="M128.17,62.68a1.79,1.79,0,0,1,.44.27,11.79,11.79,0,0,1,2.13,3.28l-.25.07a12.72,12.72,0,0,0-2.4-3.54Z" style="fill:#feabae"/><path id="Path_95" data-name="Path 95" d="M115.28,68.12c.07-.21.13-.21.33-.17a3.15,3.15,0,0,1,1.36.78,4.35,4.35,0,0,1,1,1.21l-.28.18A5,5,0,0,0,115.28,68.12Z" style="fill:#feaeb1"/><path id="Path_96" data-name="Path 96" d="M128.74,62.73c.24-.13.34,0,.44.13a10.84,10.84,0,0,1,1.32,1.84c.22.4.42.8.63,1.21.05.12.09.24.13.37-.26,0-.32-.17-.39-.3-.22-.41-.42-.83-.66-1.23a9.76,9.76,0,0,0-1.32-1.81A1.91,1.91,0,0,1,128.74,62.73Z" style="fill:#feabae"/><path id="Path_97" data-name="Path 97" d="M127.88,63.28,128,63c.3.34.61.67.88,1a11.65,11.65,0,0,1,1.24,2,.74.74,0,0,1,0,.65c-.34-.62-.63-1.22-1-1.78s-.8-1.07-1.2-1.6l-.06,0Z" style="fill:#feacaf"/><path id="Path_98" data-name="Path 98" d="M120.43,67.65c0,.13-.06.27-.1.41A8.69,8.69,0,0,0,118,66a1.05,1.05,0,0,1-.3-.45A7.14,7.14,0,0,1,120.43,67.65Z" style="fill:#feadb0"/><path id="Path_99" data-name="Path 99" d="M126.19,71.8c0-.28.11-.56.17-.84,0,0,0,0,.08,0a8.1,8.1,0,0,1,.13.86,12,12,0,0,1-.06,2.4c0,.08,0,.16-.05.23l-.27-.15c0-.43.06-.89.08-1.35,0-.3,0-.59,0-.89a1.72,1.72,0,0,0-.07-.21Z" style="fill:#feabae"/><path id="Path_100" data-name="Path 100" d="M118.44,74.16c-.18-.18-.27-.33-.22-.52a4.69,4.69,0,0,0,0-2.41c.24-.15.33-.14.39.07A5,5,0,0,1,118.44,74.16Z" style="fill:#feb0b3"/><path id="Path_101" data-name="Path 101" d="M114.63,68.66h0v0a.7.7,0,0,1,.78-.1,4.11,4.11,0,0,1,1.87,1.55.25.25,0,0,1,0,.07l-.37,0a8.55,8.55,0,0,0-.89-.81,6.44,6.44,0,0,0-1-.57A1.35,1.35,0,0,0,114.63,68.66Z" style="fill:#feaeb1"/><path id="Path_102" data-name="Path 102" d="M111.55,76c.11.19.23.38.34.58A4.26,4.26,0,0,1,110,75.13a1,1,0,0,1-.19-.8l.08,0,.18.26a3.89,3.89,0,0,0,1.22,1.3,1,1,0,0,0,.21.1h0Z" style="fill:#fdaeb1"/><path id="Path_103" data-name="Path 103" d="M112.16,77l.07.13c-.22,0-.44-.1-.67,0a.36.36,0,0,1-.25-.06,3.07,3.07,0,0,1-1-.72.49.49,0,0,0-.14-.11.94.94,0,0,1-.42-.67c.12-.13.18,0,.25,0,.26.23.5.49.78.7A4,4,0,0,0,112.16,77Z" style="fill:#feacb0"/><path id="Path_104" data-name="Path 104" d="M120.59,66.85l-.07.39-.08,0a9.1,9.1,0,0,0-2.14-1.77l.21-.23a9.26,9.26,0,0,1,2.08,1.66Z" style="fill:#feacaf"/><path id="Path_105" data-name="Path 105" d="M117.22,65.85l-.06,0a3.82,3.82,0,0,1-1-.13,6.62,6.62,0,0,0-1.82-.43l-.26,0a1.16,1.16,0,0,1,.62-.22A7.46,7.46,0,0,1,117.22,65.85Z" style="fill:#feabae"/><path id="Path_106" data-name="Path 106" d="M115.21,69.62c-.09-.18-.18-.35-.26-.54a2.43,2.43,0,0,1,1,.58,3.91,3.91,0,0,1,.57.58c.25.29.24.3,0,.6-.3-.32-.6-.65-.92-1a1.44,1.44,0,0,0-.37-.19h0Z" style="fill:#feb0b3"/><path id="Path_107" data-name="Path 107" d="M129.65,63c.1-.15.18-.16.28,0,.23.32.48.63.69,1s.43.72.64,1.08c.05.1.09.2.14.32l-.21.09c-.24-.42-.46-.84-.71-1.24S129.93,63.45,129.65,63Z" style="fill:#feabae"/><path id="Path_108" data-name="Path 108" d="M130.15,62.67a4.76,4.76,0,0,1,.57.62c.32.47.6,1,.9,1.44.06.11.19.23,0,.39s.05.15,0,.27c0,0-.09-.07-.11-.12a11.81,11.81,0,0,0-1.35-2.2,2.16,2.16,0,0,1-.17-.34Z" style="fill:#fdaaad"/><path id="Path_109" data-name="Path 109" d="M97,66c.06-.26.13-.52.2-.78.27-.39.53-.78.8-1.16.1-.15.22-.28.33-.43l.29.06h0A15.75,15.75,0,0,0,97.05,66Z" style="fill:#fdaaad"/><path id="Path_110" data-name="Path 110" d="M120.73,66.1l-.06.39c-.35-.3-.69-.6-1-.88-.18-.15-.38-.28-.57-.43.19-.19.36-.13.54,0Z" style="fill:#feadb0"/><path id="Path_111" data-name="Path 111" d="M130.62,67.69c.08.09.2.16.23.26a3.93,3.93,0,0,1,.31,1.62,2.45,2.45,0,0,1-.08.29c-.19-.76-.37-1.44-.54-2.12Z" style="fill:#fca8ac"/><path id="Path_112" data-name="Path 112" d="M102.25,64.68a2.6,2.6,0,0,1-1.2,1.59A4.27,4.27,0,0,1,102.25,64.68Z" style="fill:#fdaaad"/><path id="Path_113" data-name="Path 113" d="M116.57,66.87l-.18.29-1.26-.48.29-.27Z" style="fill:#feadb0"/><path id="Path_114" data-name="Path 114" d="M120.86,65.43l-.06.35-1.3-1a1,1,0,0,1,.76.18C120.47,65.11,120.67,65.28,120.86,65.43Z" style="fill:#feabae"/><path id="Path_115" data-name="Path 115" d="M117.78,73.86l-.31-.42s.1-.08.1-.12a2.9,2.9,0,0,1,.33-.89,2,2,0,0,0,0-.42h0a2.84,2.84,0,0,1,0,1.36C117.73,73.48,117.84,73.69,117.78,73.86Z" style="fill:#fdaaad"/><path id="Path_116" data-name="Path 116" d="M115.1,66.38c-.1.17-.21.26-.36.24l-1-.13c0-.16.06-.29.24-.29A3.31,3.31,0,0,1,115.1,66.38Z" style="fill:#feacaf"/><path id="Path_117" data-name="Path 117" d="M129.73,73.94V72.12a.64.64,0,0,1,.29.5C130,73.38,130,73.6,129.73,73.94Z" style="fill:#feacb0"/><path id="Path_118" data-name="Path 118" d="M117.94,72l-.3,0c-.09-.31-.17-.64-.26-1,.26-.14.33-.13.4.11a1.88,1.88,0,0,1,.15.88Z" style="fill:#feacb0"/><path id="Path_119" data-name="Path 119" d="M100.89,63.39c-.29.32-.57.62-.83.93a.35.35,0,0,1-.44.1,13.6,13.6,0,0,1,1.09-1.19Z" style="fill:#feaeb1"/><path id="Path_120" data-name="Path 120" d="M100.1,76.44a.09.09,0,0,0,0,0,.26.26,0,0,1-.34-.13h0v0a3.22,3.22,0,0,1-.27-1c.2,0,.32,0,.36.2a.85.85,0,0,1,0,.23A.92.92,0,0,0,100.1,76.44Z" style="fill:#fda4a8"/><path id="Path_121" data-name="Path 121" d="M129.75,76.64l.21.08a.22.22,0,0,1,0,.08c-.13.12-.23.25-.13.44a.23.23,0,0,1,0,.16c-.08.2-.17.41-.27.61a.38.38,0,0,1-.21.14,1.88,1.88,0,0,1,.19-.74Z" style="fill:#fda4a8"/><path id="Path_122" data-name="Path 122" d="M128.17,76.33l.26-1.31c.15.07.27.15.25.3a8.15,8.15,0,0,1-.2.82c0,.09-.14.16-.21.24Z" style="fill:#fdaaad"/><path id="Path_123" data-name="Path 123" d="M116.93,72.06l-.24-1,.37,0c.06.2.13.39.18.59S117.25,72,116.93,72.06Z" style="fill:#feabae"/><path id="Path_124" data-name="Path 124" d="M113.77,67.17l-.19-.34a3.58,3.58,0,0,1,1.13.1c0,.11,0,.2,0,.3Z" style="fill:#feaeb1"/><path id="Path_125" data-name="Path 125" d="M121,64.86l0,.27-1-.73.15-.23A3,3,0,0,1,121,64.86Z" style="fill:#fdaaad"/><path id="Path_126" data-name="Path 126" d="M110.18,73.75c.13.18.26.36.38.55l.51.91a.72.72,0,0,1-.2-.09,3.59,3.59,0,0,1-.72-1C110.1,74,110.06,73.85,110.18,73.75Z" style="fill:#fca8ac"/><path id="Path_127" data-name="Path 127" d="M99.66,63.76s0-.11,0-.11l.25-.11s-.06-.11,0-.12a3.83,3.83,0,0,1,.85-.76c0,.11,0,.21,0,.25a3.31,3.31,0,0,1-.89.86Z" style="fill:#fd9ea3"/><path id="Path_128" data-name="Path 128" d="M99.24,75.72a.32.32,0,0,1-.39-.3c0-.24-.12-.48.06-.71,0,0,0-.12.09-.2C99.09,74.91,99.16,75.31,99.24,75.72Z" style="fill:#fdaaad"/><path id="Path_129" data-name="Path 129" d="M129,78.05c-.23,0-.28-.1-.22-.25.13-.33.19-.7.61-.86C129.27,77.32,129.15,77.69,129,78.05Z" style="fill:#fca8ac"/><path id="Path_130" data-name="Path 130" d="M106.23,79l.09-.37.73.67-.19.27Z" style="fill:#feabae"/><path id="Path_131" data-name="Path 131" d="M100.43,64.58h-.14c-.1-.22.12-.1.13-.12a1.55,1.55,0,0,1,.13-.36c.2-.22.4-.41.62-.62h.08a2.56,2.56,0,0,1-.57.89Z" style="fill:#fda4a8"/><path id="Path_132" data-name="Path 132" d="M101,62.13a.37.37,0,0,0,.38-.07c.14-.11.3-.2.45-.3h.06c0,.19-.19.22-.24.32s-.27.27-.4.4a.48.48,0,0,1-.2.07c-.13-.15-.07-.29,0-.42Z" style="fill:#fd8e93"/><path id="Path_133" data-name="Path 133" d="M99.29,63.45a.4.4,0,0,1,.19-.37c.28-.17.47-.5.88-.54A2.62,2.62,0,0,1,99.29,63.45Z" style="fill:#fda4a8"/><path id="Path_134" data-name="Path 134" d="M105.94,80.44l.07-.39.69.57c0,.08-.07.16-.13.27C106.36,80.73,106.15,80.59,105.94,80.44Z" style="fill:#feacaf"/><path id="Path_135" data-name="Path 135" d="M131.79,62.73a.38.38,0,0,1,.47.23c.09.21.35.36.23.68C132.15,63.41,132.05,63,131.79,62.73Z" style="fill:#fca8ac"/><path id="Path_136" data-name="Path 136" d="M121.17,61.76l-1.08-.44s-.06-.11-.08-.17l0,0,.34.12a3.25,3.25,0,0,1,.4.15l.42.3Z" style="fill:#fd9ea3"/><path id="Path_137" data-name="Path 137" d="M106.08,79.76c0-.12.07-.23.11-.34a3.73,3.73,0,0,1,.43.36,1,1,0,0,1,.1.37l-.07,0Z" style="fill:#feabae"/><path id="Path_138" data-name="Path 138" d="M102.38,63.07a.89.89,0,0,1-.69.82c0-.07,0-.15,0-.19a3.8,3.8,0,0,1,.7-.63Z" style="fill:#feabaf"/><path id="Path_139" data-name="Path 139" d="M97.25,64.64c0-.21.09-.43.14-.64l0-.1h0c.14-.07.23-.26.43-.19A3.22,3.22,0,0,1,97.25,64.64Z" style="fill:#fca8ac"/><path id="Path_140" data-name="Path 140" d="M114.27,62.6h-.71c-.14,0-.21-.06-.15-.25a2.25,2.25,0,0,1,.93.08h0l0,.1Z" style="fill:#feb0b3"/><path id="Path_141" data-name="Path 141" d="M114.18,67.85l-.19-.34.74.06c0,.13-.06.23-.09.34Z" style="fill:#feaeb1"/><path id="Path_142" data-name="Path 142" d="M116.16,65c.42.22.94.23,1.27.64l-.11,0-1.1-.43C116.13,65.09,116.07,65.06,116.16,65Z" style="fill:#fd8e93"/><path id="Path_143" data-name="Path 143" d="M101.46,69.62c0,.29-.08.57-.14.86s-.18.82-.26,1.23a8.06,8.06,0,0,1,.34-2A.16.16,0,0,1,101.46,69.62Z" style="fill:#ee7f84"/><path id="Path_144" data-name="Path 144" d="M127.89,77.46c0,.08.13.15.07.26s-.13.31-.2.47c-.21,0-.27-.15-.19-.32a1.73,1.73,0,0,1,.14-.31s.12-.07.18-.1Z" style="fill:#fdaaad"/><path id="Path_145" data-name="Path 145" d="M116.06,64.88c-.39.22-.68,0-1-.07.12-.07.22-.26.38-.07a.42.42,0,0,1,.38,0Z" style="fill:#fd989d"/><path id="Path_146" data-name="Path 146" d="M117.06,61.47l.72.17c0,.07,0,.13-.06.21a5.61,5.61,0,0,1-.62-.17S117.07,61.55,117.06,61.47Z" style="fill:#fd989d"/><path id="Path_147" data-name="Path 147" d="M102.16,62.14c-.12.41-.24.5-.85.58.12-.11.19-.23.27-.23.24,0,.34-.2.49-.34Z" style="fill:#fd9ea3"/><path id="Path_148" data-name="Path 148" d="M110.66,61.93l-.14-.21c.3,0,.62-.1,1,.07A2.32,2.32,0,0,1,110.66,61.93Z" style="fill:#fd989d"/><path id="Path_149" data-name="Path 149" d="M102.26,65.69l-.06.32-.48.27a1.84,1.84,0,0,1,.4-.69Z" style="fill:#fda4a8"/><path id="Path_150" data-name="Path 150" d="M98.17,74.84c.41,0,.33.33.4.56l-.36-.17C98.2,75.11,98.18,75,98.17,74.84Z" style="fill:#fca8ac"/><path id="Path_151" data-name="Path 151" d="M119.77,70.94l-.12.53-.22-.87,0,0Z" style="fill:#fd989d"/><path id="Path_152" data-name="Path 152" d="M118.09,63.44c.27-.16.41-.16.54,0s.06.11,0,.14-.1.1-.14.09Z" style="fill:#fca8ac"/><path id="Path_153" data-name="Path 153" d="M116.2,62c.2-.25.41-.08.59-.19l.1.31Z" style="fill:#fd989d"/><path id="Path_154" data-name="Path 154" d="M105.82,81.08l.07-.35.41.31C106.13,81.16,106,81.22,105.82,81.08Z" style="fill:#fdaaad"/><path id="Path_155" data-name="Path 155" d="M113.68,62.83c.48,0,.48,0,.49.21C113.8,63.12,113.8,63.12,113.68,62.83Z" style="fill:#fda4a8"/><path id="Path_156" data-name="Path 156" d="M118.69,64.33l-.48-.24c0-.09,0-.17.06-.23S118.58,64,118.69,64.33Z" style="fill:#fd989d"/><path id="Path_157" data-name="Path 157" d="M106.7,78.51c.2,0,.41.06.51.28a2.56,2.56,0,0,1,.05.27,1.74,1.74,0,0,1-.58-.5s0,0,0,0Z" style="fill:#fda4a8"/><path id="Path_158" data-name="Path 158" d="M121.09,64.24c0,.1,0,.19-.07.29l-.27-.2a.27.27,0,0,1-.13-.37l0-.05C120.75,64.08,120.84,64.29,121.09,64.24Z" style="fill:#fd9ea3"/><path id="Path_159" data-name="Path 159" d="M119.09,63.1a.37.37,0,0,1-.52,0h0C118.77,62.87,118.77,62.87,119.09,63.1Z" style="fill:#fda4a8"/><path id="Path_160" data-name="Path 160" d="M127.33,77c.25.18.25.24.07.54C127.21,77.25,127.21,77.25,127.33,77Z" style="fill:#fd9ea3"/><path id="Path_161" data-name="Path 161" d="M118.29,70.57l-.41-.18.17-.33a.87.87,0,0,1,.24.52Z" style="fill:#fd9ea3"/><path id="Path_162" data-name="Path 162" d="M115.83,67.24c-.39.16-.54.11-.61-.19Z" style="fill:#fd989d"/><path id="Path_163" data-name="Path 163" d="M127.94,78.43a2.88,2.88,0,0,1,.13-.31l.09-.13c.14.2,0,.39.07.61Z" style="fill:#fd989d"/><path id="Path_164" data-name="Path 164" d="M102.87,62.35v.09a2,2,0,0,1-.32.18s-.12,0-.17,0a.37.37,0,0,1,.05-.18C102.56,62.26,102.73,62.38,102.87,62.35Z" style="fill:#fd8e93"/><path id="Path_165" data-name="Path 165" d="M127.9,77.46c-.17-.21,0-.38.07-.62a2,2,0,0,0,.11.4c.06.19-.05.21-.19.21Z" style="fill:#fd989d"/><path id="Path_166" data-name="Path 166" d="M110.45,61.58l-.08-.19c.18,0,.36-.12.56.08Z" style="fill:#fdaaad"/><path id="Path_167" data-name="Path 167" d="M127.55,76.39c.24.26.24.26.07.54C127.47,76.58,127.47,76.58,127.55,76.39Z" style="fill:#fd989d"/><path id="Path_168" data-name="Path 168" d="M115.16,82.1l.18.31c-.27,0-.27,0-.38-.22Z" style="fill:#fd989d"/><path id="Path_169" data-name="Path 169" d="M99.88,74.13c.25,0,.25,0,.33.19C99.91,74.41,99.91,74.41,99.88,74.13Z" style="fill:#fd989d"/><path id="Path_170" data-name="Path 170" d="M114,62.05a1,1,0,0,1,.7.15l-.71-.06Z" style="fill:#ee7f84"/><path id="Path_171" data-name="Path 171" d="M121.6,61.69a1.87,1.87,0,0,1,0,.25c-.16-.1-.16-.1-.25-.35Z" style="fill:#fd8e93"/><path id="Path_172" data-name="Path 172" d="M117,61.84l.58.16C117.06,62.05,117.06,62.05,117,61.84Z" style="fill:#fd878d"/><path id="Path_173" data-name="Path 173" d="M128.41,78.61l.32-.14.05,0c0,.06,0,.16-.09.2S128.5,78.76,128.41,78.61Z" style="fill:#fd989d"/><path id="Path_174" data-name="Path 174" d="M114.88,81.6l.16.28c-.18,0-.33,0-.38-.23Z" style="fill:#fd9ea3"/><path id="Path_175" data-name="Path 175" d="M129.72,71.69l-.05-.27h.27C130,71.61,129.85,71.62,129.72,71.69Z" style="fill:#fd9ea3"/><path id="Path_176" data-name="Path 176" d="M99.67,63.76h.11c-.1.1-.07.31-.3.35a.54.54,0,0,1,0-.18A1.07,1.07,0,0,1,99.67,63.76Z" style="fill:#fd989d"/><path id="Path_177" data-name="Path 177" d="M129,78.79c0-.15.06-.27.19-.22s.06.11.09.18Z" style="fill:#fd989d"/><path id="Path_178" data-name="Path 178" d="M99.26,74.38c.25.11.25.11.1.43C99.32,74.66,99.3,74.55,99.26,74.38Z" style="fill:#fd989d"/><path id="Path_179" data-name="Path 179" d="M101,62.13h-.22a.37.37,0,0,1,.39-.2h0Z" style="fill:#fd878d"/><path id="Path_180" data-name="Path 180" d="M120.13,63.82c.15,0,.29,0,.31.26a.5.5,0,0,1-.34-.23Z" style="fill:#fd878d"/><path id="Path_181" data-name="Path 181" d="M96.43,74.17,96.37,74l.11,0c0,.07,0,.14.08.22Z" style="fill:#fd8e93"/><path id="Path_182" data-name="Path 182" d="M114.54,81.05c.06.1.12.19.17.29C114.46,81.33,114.43,81.28,114.54,81.05Z" style="fill:#fd9ea3"/><path id="Path_183" data-name="Path 183" d="M128.79,80.67l-.14.26c-.1-.18-.09-.29.12-.28Z" style="fill:#fd878d"/><path id="Path_184" data-name="Path 184" d="M118.36,65.1c-.18.08-.18.08-.25-.13Z" style="fill:#fd878d"/><path id="Path_185" data-name="Path 185" d="M117.33,70.26c.11,0,.15.11.13.3l-.2-.24Z" style="fill:#fd878d"/><path id="Path_186" data-name="Path 186" d="M102.67,62.12l.14-.2.07,0-.11.22Z" style="fill:#fd878d"/><path id="Path_187" data-name="Path 187" d="M101.17,68.4l.12-.26C101.36,68.28,101.32,68.36,101.17,68.4Z" style="fill:#fc5f67"/><path id="Path_188" data-name="Path 188" d="M130,75.81c.15.18.07.23-.07.29Z" style="fill:#ee7f84"/><path id="Path_189" data-name="Path 189" d="M101.74,63.15l-.26.14,0-.08C101.52,63.13,101.57,63,101.74,63.15Z" style="fill:#fd8e93"/><path id="Path_190" data-name="Path 190" d="M127.07,76.82,127,77l-.1-.06.11-.15Z" style="fill:#fd878d"/><path id="Path_191" data-name="Path 191" d="M102.74,63.42l-.06.19h-.15l0,0Z" style="fill:#fc5f67"/><path id="Path_192" data-name="Path 192" d="M114.33,62.43h0l.36,0v.07l-.21.06Z" style="fill:#fca8ac"/><path id="Path_193" data-name="Path 193" d="M120.1,63.85c-.07,0-.2,0-.17-.15a0,0,0,0,1,0,0c.12,0,.15.07.16.17Z" style="fill:#fd878d"/><path id="Path_194" data-name="Path 194" d="M114.46,62.88h.31s0,.06,0,.07S114.57,63.06,114.46,62.88Z" style="fill:#fca8ac"/><path id="Path_195" data-name="Path 195" d="M97,66l.08,0a2.44,2.44,0,0,1-.14.28Z" style="fill:#ee7f84"/><path id="Path_196" data-name="Path 196" d="M121.34,63.11s0,.1,0,.14l-.13-.13Z" style="fill:#fd8e93"/><path id="Path_197" data-name="Path 197" d="M106.3,78.35s0-.1.08-.14l.12.14Z" style="fill:#fc5f67"/><path id="Path_198" data-name="Path 198" d="M121.22,63.63c0,.06,0,.13,0,.19l-.13-.18,0,0Z" style="fill:#ee7f84"/><path id="Path_199" data-name="Path 199" d="M101.52,69.33l-.06.29Z" style="fill:#fc5f67"/><path id="Path_200" data-name="Path 200" d="M106.68,78.55l-.12-.14h0l.13.11a0,0,0,0,1,0,0Z" style="fill:#fc5f67"/><path id="Path_201" data-name="Path 201" d="M128.56,81.05l-.06.06,0,0,.06,0Z" style="fill:#fd878d"/><path id="Path_202" data-name="Path 202" d="M114.33,62.43l.14.1-.13.08a.3.3,0,0,1,0-.08l0-.1Z" style="fill:#fc434c"/><path id="Path_203" data-name="Path 203" d="M114.8,67.27h0Z" style="fill:#feaeb1"/><path id="Path_204" data-name="Path 204" d="M98.66,63.56l-.07.13h0l.07-.13Z" style="fill:#fdaaad"/><path id="Path_205" data-name="Path 205" d="M101.18,68.67h-.07l0-.08Z" style="fill:#fc5f67"/><path id="Path_206" data-name="Path 206" d="M111.06,75.21l.08.16Z" style="fill:#fca8ac"/><path id="Path_207" data-name="Path 207" d="M121.07,63.64l0,0h.07Z" style="fill:#ee7f84"/><path id="Path_208" data-name="Path 208" d="M118.28,70.58h0Z" style="fill:#fd9ea3"/><path id="Path_209" data-name="Path 209" d="M101.32,63.35l0,.08h0l.07-.06Z" style="fill:#fd8e93"/><path id="Path_210" data-name="Path 210" d="M101.26,63.49h-.09l.08-.07,0,0A.07.07,0,0,1,101.26,63.49Z" style="fill:#fd8e93"/><path id="Path_211" data-name="Path 211" d="M101.32,63.36l0,0,0,0Z" style="fill:#fd8e93"/><path id="Path_212" data-name="Path 212" d="M106.5,78.34l.07.07h0l-.07-.07Z" style="fill:#fc5f67"/><path id="Path_213" data-name="Path 213" d="M127.88,63.28l.06,0-.06,0A.06.06,0,0,1,127.88,63.28Z" style="fill:#feabae"/><path id="Path_214" data-name="Path 214" d="M114.68,62.47v0Z" style="fill:#fc434c"/><path id="Path_215" data-name="Path 215" d="M101.18,61.92l0,0,0,0Z" style="fill:#fd878d"/><path id="Path_216" data-name="Path 216" d="M128.77,80.66l0,0,0,0Z" style="fill:#fd878d"/><path id="Path_217" data-name="Path 217" d="M114.3,62.54a.25.25,0,0,1,0,.07h-.07Z" style="fill:#fd8e93"/><path id="Path_218" data-name="Path 218" d="M98.66,63.56h0Z" style="fill:#fdaaad"/><path id="Path_219" data-name="Path 219" d="M97.44,63.9l-.06.1Z" style="fill:#fb1924"/><path id="Path_220" data-name="Path 220" d="M126.93,68.53l0,.11-.08,0Z" style="fill:#fb1924"/><path id="Path_221" data-name="Path 221" d="M115.21,69.62l.07.08Z" style="fill:#fb1924"/><path id="Path_222" data-name="Path 222" d="M111.55,76l-.08-.07Z" style="fill:#fb1924"/><path id="Path_223" data-name="Path 223" d="M119,74.87c0-.08.05-.15.07-.22A1.87,1.87,0,0,0,119,74.87Z" style="fill:#fb1924"/></g></g></g></g></svg>