<svg xmlns="http://www.w3.org/2000/svg" viewBox="0 0 953.08 413.26"><title>Asset 1</title><g id="Layer_2" data-name="Layer 2"><g id="Layer_1-2" data-name="Layer 1"><g id="Layer_1-2-2" data-name="Layer 1-2"><path d="M953.08,413.26H0V0H953.08Zm-70.92-222.1c.28-.11.77-.19.8-.35.37-1.75.67-3.52,1-5.27.74-3.65,1.56-7.28,2.2-10.94.48-2.7,1.68-5.33,1-8.2-.11-.42.24-1,.4-1.43a37.9,37.9,0,0,0,1.4-4c.75-3.3,1.4-6.62,2-9.94.36-2,.54-4,.8-6,.28-.58.55-1.16.83-1.75l.45-3c.68-4.93,3.1-9.67,1.61-14.93l1.2.65a5.48,5.48,0,0,0,0-4.42,19.74,19.74,0,0,1-1.14-3.35,5,5,0,0,1,.2-1.68h.44l1.38,3.18.51-.13c.11-1.07.21-2.14.31-3.21l1.09-3.64c0-.83.05-1.65.08-2.48l1-3.06c.22-1.22.49-2.44.66-3.67.22-1.62.37-3.25.55-4.88,1.19-.31.85-1.25.86-2.06q6.57-32.71,13.11-65.43a23.75,23.75,0,0,0,.23-2.37H652.45a2.62,2.62,0,0,0-.84.45c-2.9,2.84-5.76,5.72-8.72,8.49A6.55,6.55,0,0,0,641,41.47q-4.9,24.77-9.85,49.53-7,35-14,69.92-7.25,36.21-14.45,72.43-6.75,33.72-13.52,67.43l-13.56,67.69c-1,5.27-2.08,10.55-3.09,15.63,3.49-3.31,7-6.67,10.58-10,.69-.61,1.4-1.2,2-1.85l44-43.92c.71-.72,1.48-1.38,2.22-2.07.93,0,1.86.09,2.79.09H844.56a8.82,8.82,0,0,0,1.78,0,3.59,3.59,0,0,0,1.77-.72c3.18-3.15,6.3-6.37,9.44-9.57a15.33,15.33,0,0,0,.82-2.3q3.92-19.47,7.79-39,3.45-17.25,6.94-34.48l.63-4.55.64-3.47h0l.48-1,.91-4.72c.7-3.31,1.45-6.61,2.08-9.93.14-.75-.49-1.95-.13-2.3,1.3-1.28,1.15-2.93,1.47-4.43,1.18-5.55,2.26-11.11,3.32-16.68.13-.66.69-1.48-.25-2.05ZM369.82,29c-4.19,17.7-57.17,284.16-57,286.55,3.82.5,261.07.32,262.85-.18,5.26-23.16,57.1-283.89,56.92-286.37ZM228.06,208.88q8-39.23,15.95-78.44h-4.37c-2.93,10.32-7.79,19.85-11.18,21.88L193.73,74.26c.91-.06,1.47-.12,2-.12h40.66a53.62,53.62,0,0,1,15,2.18c12.37,3.59,21.75,10.77,26.91,22.83A52.37,52.37,0,0,1,282.1,121v2.77H286c3.63-17.86,7.24-35.63,10.87-53.47H149.24c-.21,1.16-.4,2.2-.62,3.37l1.43.14c7.49.74,12.64,4.52,15.74,11.45Q183.58,125,201.55,164.6c.37.82.72,1.65,1.19,2.76H153.56c-.21.78-.42,1.42-.55,2.07-5.24,25.69-10.53,51.37-15.69,77.07-2.17,10.82-8.69,17.29-19.23,19.86-2.85.7-5.81.94-9,1.42l-.67,3.21h79.74l.66-3.65c-2,0-3.55.09-5.15,0a29.66,29.66,0,0,1-10.82-2.44,12,12,0,0,1-7.29-10.48c-.35-4,.65-7.73,1.42-11.54q6-29.34,11.93-58.68,1.23-6,2.52-12.28c3.26,0,6.4-.12,9.52,0a79.08,79.08,0,0,1,11.6,1c12.53,2.48,20.74,11.82,21.62,24.49.27,3.75-.11,7.55-.2,11.46Z" style="fill:none"/><path d="M369.82,29H632.6c.18,2.48-51.66,263.21-56.92,286.37-1.78.5-259,.68-262.85.18C312.65,313.13,365.63,46.67,369.82,29Zm156.91,138.5a10.55,10.55,0,0,0-.48,1.33c-.9,4.57-1.77,9.14-2.66,13.7-2.79,14.36-5.62,28.72-8.36,43.09a3.65,3.65,0,0,1-2.49,3.08,79.84,79.84,0,0,1-23.05,5.8,82.72,82.72,0,0,1-33.13-3.17c-18.94-6.06-31.18-20.14-33-41A81,81,0,0,1,429,152.93c8-20.05,22-34.08,42.34-41.54,15.15-5.56,30.76-6.28,46.54-3.38a57.59,57.59,0,0,1,33.72,19.31c.42.49.93.91,1.47,1.43,11.13-9,22.2-17.91,33.2-27-1-1.2-1.68-2.14-2.44-3a82.54,82.54,0,0,0-32.71-23.52c-14.14-5.78-29-8-44.14-8.5A156.08,156.08,0,0,0,482.18,68a130.22,130.22,0,0,0-36.38,9.85c-25.1,11-44.23,28.51-56.73,53a118.08,118.08,0,0,0-12,40.42c-1.27,11-1.48,21.95.52,32.88,4.81,26.33,19.17,45.66,42.78,58.13,14.8,7.8,30.78,11.2,47.35,12.06a139.21,139.21,0,0,0,34.87-2.46,123.41,123.41,0,0,0,47.82-20.18,5.87,5.87,0,0,0,2.52-3.86q7.8-39.09,15.69-78.14a19,19,0,0,0,.18-2.26Z" style="fill:#8e2cf9"/><path d="M898.73,110.3c0,.83-.06,1.65-.08,2.48-.34-.15-.83-.21-1-.47-.56-1-1-2-1.49-2.94a89.77,89.77,0,0,0-9.08-14.64c-.8-1.06-1.59-1.67-3-.87a6,6,0,0,0,.5.89,89.26,89.26,0,0,1,12.27,20.66,6.9,6.9,0,0,0,.7,1c-.1,1.07-.2,2.14-.31,3.21l-.51.11-1.41-3.19h-.44a5,5,0,0,0-.2,1.68,19.74,19.74,0,0,0,1.14,3.35,5.48,5.48,0,0,1,0,4.42l-1.2-.65c1.49,5.26-.93,10-1.61,14.93h-1l-2.28-3.78-.53.29c.86,2.76,1.71,5.52,2.57,8.28-.26,2-.44,4-.8,6-.6,3.32-1.25,6.64-2,9.94a37.9,37.9,0,0,1-1.4,4c-.16.47-.51,1-.4,1.43.71,2.87-.49,5.5-1,8.2-.64,3.66-1.46,7.29-2.2,10.94l-.83-.12c-.26-.85-.75-1.23-1.41-.43-1.23,1.47-1,4.41.47,6.19.94.57.38,1.39.25,2-1.06,5.57-2.14,11.13-3.32,16.68-.32,1.5-.17,3.15-1.47,4.43-.36.35.27,1.55.13,2.3-.63,3.32-1.38,6.62-2.08,9.93a6.79,6.79,0,0,0-1.31,1.08c-1.86,2.62-3.66,5.29-5.5,7.92a5.24,5.24,0,0,0-.76,3.8c1.65-1.71,3.05-3.57,4.51-5.39a22.46,22.46,0,0,1,1.7-1.68l-.62,3.4-6.42,7.57a5.43,5.43,0,0,0,4.06-1.71,12.52,12.52,0,0,1,1.77-1.29q-3.48,17.23-6.94,34.48-3.9,19.47-7.79,39a15.33,15.33,0,0,1-.82,2.3,26.5,26.5,0,0,0-3.21-.37H644.76a7.57,7.57,0,0,0-1.78,0,4.44,4.44,0,0,0-2,.81c-3.25,3.22-6.42,6.51-9.62,9.77-.74.69-1.51,1.35-2.22,2.07l-44,43.92c-.65.65-1.36,1.24-2,1.85.15-.91.27-1.82.45-2.73q3.15-15.87,6.32-31.74t6.4-32q3.18-15.86,6.37-31.72L609,244.2q3.18-15.87,6.35-31.73t6.31-31.74c1.11-5.53,2.27-11,3.41-16.56a8.4,8.4,0,0,1,.07,1c-.11,2.38-.14,4.71,1.25,6.85.28.44,0,1.24,0,1.86a3,3,0,0,0,.25.83h.5c-.74-26.12,5.63-50,22.12-70.64l-1.65-1A69.62,69.62,0,0,0,639,115.32c-2.38,4.37-4.47,8.9-6.69,13.35.38-2.33.77-4.65,1.15-7,.36-.7.71-1.41,1.07-2.12A117.43,117.43,0,0,1,646,102.09l.48-1h.1l-.08.07-.46,1-2.16-.44c-.85,1.07-1.73,2.08-2.5,3.17-2,2.87-4,5.77-6,8.65l.54-4.35c1.9-1.9,4.23-5.34,4.64-6.92-1.52-.52-2.16.9-3.18,1.42a32.19,32.19,0,0,1,.31-3.25q2.6-13.15,5.24-26.28c2.31-11.56,4.65-23.12,6.92-34.7.67-3.38,1.17-6.79,1.74-10.19a2.62,2.62,0,0,1,.84-.45c.76-.07,1.52,0,2.28,0H915.11a23.75,23.75,0,0,1-.23,2.37q-6.54,32.75-13.15,65.44a5.74,5.74,0,0,1-1.11-.79,1.61,1.61,0,0,0-2.22-.43l-.07,0,2.58,3.27c-.18,1.63-.33,3.26-.55,4.88-.17,1.23-.44,2.45-.66,3.67a14.31,14.31,0,0,1-2-2.12c-1.87-3.09-3.62-6.24-5.45-9.34a3.7,3.7,0,0,0-3.52-1.75c.61.94,1,1.6,1.47,2.28,2,3.21,4,6.42,6,9.66C897.1,107.39,897.89,108.86,898.73,110.3ZM666.4,99.65l-.55.46-.56.49c-1.53,1.54-3.13,3-4.56,4.64a9.24,9.24,0,0,0-1,2.7c-.09.1-1.72-.76-1,.88a25.83,25.83,0,0,0-2.83,2.4,27.55,27.55,0,0,0-2.37,3.3c-12.88,19.28-17.49,40.65-15.92,63.54.19,2.78.63,5.55,1,8.31.3,1.91.44,2,2.59,2.26a4.45,4.45,0,0,0,0-.73,101.77,101.77,0,0,1-.85-31.83,93.7,93.7,0,0,1,18.15-44.9,16.56,16.56,0,0,0,1.27-2.39,21.4,21.4,0,0,0,1.92-1.49,19,19,0,0,0,4.23-6.65.37.37,0,0,0,.09-.4c.12-.21.24-.42.35-.63l.29-.3Zm97.17-5.56,1-.6,1.56-.44v-.57l-2.65.22c-2.29-1.15-4.66-.5-6.93-.6-.43,1.41.06,1.84,1.15,1.84,1.76,0,3.52,0,5.28.06Zm-58,117.85-.51-.5-.91-1c2.38-11.91,4.73-23.83,7.13-35.73,1.66-8.27,3.39-16.53,5.1-24.79a5.89,5.89,0,0,1,.67.74q5.73,9.65,11.43,19.28c1.4,2.39,2.71,4.82,4.06,7.24-.9.74-.65,1.57-.24,2.47a26.08,26.08,0,0,0,5.39,7.75,4.85,4.85,0,0,0,1.43.69h0l.57,1.2a7.65,7.65,0,0,1,2.46,4.48,13.34,13.34,0,0,1-1.58-.74,30.09,30.09,0,0,1-9.13-9.72c-.4-.67-.86-1.31-1.29-2l-.62.28a7.8,7.8,0,0,0,1.43,6,31.56,31.56,0,0,0,14.29,11l2,3.23a28.72,28.72,0,0,1-10.58-5.18c-2.07-1.57-3.89-3.47-5.82-5.22-.55-.5-1-1.26-1.9-.27.53,2,1.11,3.93,3.16,5a3,3,0,0,1,1,.81c2.1,2.56,5,3.9,7.86,5.39a2.74,2.74,0,0,0,1.89.46c1.71-.68,3.33.05,5,0a6.65,6.65,0,0,1,.84.92q5.64,9.45,11.26,19c1.75,3,3.43,6,5.14,9-.82,1.7-.6,2.08,1.25,2.18l1.26,1.9-1.61.41c.32,1.81,1.46,1.94,2.8,1.73l.9,1.6-1.52.71c.8,1.73.8,1.73,2.83,1.62a20,20,0,0,1,1.54,2c4.84,8.1,9.72,16.19,14.44,24.37,1.18,2.05,2.45,3.31,4.92,2.81.42,0,.84.11,1.26.11h35.3c.57,0,1.15-.1,1.8-.16.13-.48.25-.87.33-1.27L847,187.67a12.92,12.92,0,0,1,1.09-3.6,13.9,13.9,0,0,0,1.64-5.84,94.9,94.9,0,0,1,2.16-15.56,6.23,6.23,0,0,1,.52,1.58c.08,2.19.16,4.39.08,6.57-.13,3.45-.39,6.89-.58,10.12l2,1.13c.13-.57.31-1.14.39-1.72a93.23,93.23,0,0,0,.48-17.91,63.82,63.82,0,0,0-1-6.44c.22-2,.43-4,.65-6.06a9.48,9.48,0,0,1,1,2.14A84,84,0,0,1,856,182.6c-.37,2.23.71,4,1,6.13a2.14,2.14,0,0,0,.56-1.06,87.62,87.62,0,0,0,.15-36.52c-.44-2.12-1.18-4.18-1.78-6.27.18-1.55.35-3.1.53-4.65a6.5,6.5,0,0,1,.9,1.41,92.59,92.59,0,0,1,4.19,23.92,88.19,88.19,0,0,1-1.64,20.95,8,8,0,0,0,1,5.28A91.18,91.18,0,0,0,858.51,138l-1.09.31c.2-2,.41-4,.61-6a9.68,9.68,0,0,1,.92,1.46,93.62,93.62,0,0,1,5.79,50c-.41,2.74-1,5.46-1.43,8.17l1.78,1.13a6.66,6.66,0,0,0,.44-1.15c.85-5.51,2.06-11,2.44-16.54a92.57,92.57,0,0,0-5.41-38.6c-1-2.76-2.37-5.39-3.57-8.08.17-1,.34-2.1.52-3.15a7.34,7.34,0,0,1,.87,1.2c1.79,4.37,3.8,8.68,5.26,13.16a96.53,96.53,0,0,1,3.92,41.07,4.69,4.69,0,0,0,0,.75l2,.69c.2-1.62.46-3.11.56-4.62.94-14.42-.49-28.54-5.54-42.16-1.7-4.58-3.46-9.17-6.26-13.24.07-1,.13-2,.19-3a14.4,14.4,0,0,1,1.55,1.93C871.92,139,875.6,158,873.93,178.06c-.07.9-.1,1.8-.15,2.78,2.28-.63,2.4-.63,2.43-2.71.07-5.59.17-11.17,0-16.75-.06-1.89-.35-3.83-.58-5.71a93.61,93.61,0,0,0-9.87-32.1c-1.28-2.46-2.86-4.77-4.3-7.15,0-.69.07-1.38.11-2.07,1.43-.26,1.57,1.07,2,1.82A96,96,0,0,1,876.81,151c.41,2.34,1,4.66,1.48,7.05a2.37,2.37,0,0,0,1.37-2.88,98.94,98.94,0,0,0-11.06-34.59c-1.77-3.23-4-6.21-6-9.3v-2.47a10.78,10.78,0,0,1,1.79,1.58,95.59,95.59,0,0,1,14,29.43,122.22,122.22,0,0,1,3.47,17.9c.07.6.25,1.46.67,1.69a1.64,1.64,0,0,1,.91,1.57,18,18,0,0,0,.62,2.71,1.58,1.58,0,0,0,.26-1.14c-.31-3.18-.52-6.38-1-9.54a98.61,98.61,0,0,0-13-37.34c-2-3.3-4.46-6.32-6.71-9.47v-2c.58.4,1.34.67,1.71,1.21,2.76,4,5.69,8,8.11,12.27a95.52,95.52,0,0,1,11.06,31.72c.23,1.38.66,2.21,2.34,1.84a3.75,3.75,0,0,0-.08-1c-.27-1.58-.53-3.17-.86-4.74s-.69-3.14-1.09-4.7-.84-3.1-1.32-4.63-.63-3.55-1.69-4.42c-1.63-1.32-.19-3.13-1.34-4.29,0,0-.06-.16-.09-.23a93.13,93.13,0,0,0-11.81-21c-1.21-1.6-2.64-3-4-4.53V99.57l.45-.26c3,4,6.24,7.78,9,11.93s4.9,8.66,7.44,13.25a5.64,5.64,0,0,0-.28-4.81,88.44,88.44,0,0,0-9.27-15.09c-2.07-2.63-4.41-5.07-6.62-7.6a5.57,5.57,0,0,1,0-1c1.06-5.31,2.14-10.61,3.2-15.91.65-3.21,1.26-6.43,1.94-9.88H824.49c-3.29-.11-3.42-.25-3.77,2.81a14.4,14.4,0,0,1-.32,1.48q-1.36,6.38-2.72,12.77l-2.17-.76c.67,1.86.67,1.86,1.85,2.61l-1.63,8.67-1.28.14,1,.92-.51,2.82-.89-.16-.5-.07.25.32,1,1.36-.81,3.13c-1.9.38-2.52-1.19-3.36-2.48a2.07,2.07,0,0,0,.39,2.9,1.63,1.63,0,0,0,.4.24c.71.45,1.36,1,2,1.5-.15.83-.29,1.66-.44,2.5a22.61,22.61,0,0,0-6.81-5.2l-1.08,1.69,7.68,5.48-.57,2.24c-1.47-1.14-2.93-2.38-4.47-3.38a7.22,7.22,0,0,0-5.66-1.36l9.66,7.36-.6,2.46-8.4-6.9c-1.26-1-2.56-1.49-4,0,1.43,1,2.91,2,4.27,3.15,2.6,2.15,5.14,4.38,7.71,6.58l-.57,2.66a68.44,68.44,0,0,0-15.41-12.38L793.15,115a68.33,68.33,0,0,1,15.92,13.18,3,3,0,0,0,.64.41l-.69,3.06c-5.51-6.77-11.86-12.51-20-16.06.58,1.3,1.17,2.71,2.23,3.38a65.84,65.84,0,0,1,17,15.75l-.58,3.09c-.52-.67-1-1.32-1.54-2a57.92,57.92,0,0,0-18-16.13,13.24,13.24,0,0,0-1.6-.68v2.53a54.76,54.76,0,0,1,20.27,20.19c-.22,1.09-.43,2.18-.65,3.26a12,12,0,0,1-.71-1,52.29,52.29,0,0,0-20-20.4,55.85,55.85,0,0,0-21-7c-2.18-.29-2.26-.18-3.06,2.16,3,.33,6,.63,9,1a5.56,5.56,0,0,1,1.71.36c1.38.58,2.69,1.3,4.07,1.88a56.5,56.5,0,0,1,9.25,4.51,51.27,51.27,0,0,1,18.77,20.83,8,8,0,0,0,1.4,1.62q-.75,3.69-1.51,7.38l-2.22-2.58-.35.15,1.65,6.48c-.53,2.52-1,5.05-1.58,7.57-.32-2.6-.47-5.23-1-7.79-2.71-13-10.07-22.7-21.62-29.23-1.86-1.05-3.73-.7-5.67-.13,10.12,4.58,17.75,11.61,22.14,21.8s4.28,20.72.08,31.37l2.47,1.58a9.18,9.18,0,0,1-1.15,5.87c-.41-.89-.8-1.79-1.23-2.67-.32-.65-.53-1.54-1.06-1.85a3.32,3.32,0,0,1-1.64-4.22c-1.62-1.29-3.59-2.19-3.65-4.57.42-1.2-.44-2.8,1.13-3.64.56-3.37,1.14-6.75,0-10.13.41-2.34-.44-4.47-1.12-6.61-.54-1.72-1.12-1.81-3-.75.64,2.38,1.28,4.78,1.91,7.14l2.28.19a12.39,12.39,0,0,1-.37,3.15c-.83,2.21-2.33,4.15-2.47,6.64,0,.31-.48.59-.73.89a20.06,20.06,0,0,1-1.45-2.94c-.23-.73-.16-1.41-1.12-1.74-.44-.15-.71-.89-1-1.4q-2.67-4.44-5.3-8.91c-.29-.49-.77-1.22-.61-1.56.56-1.14-.2-1.8-.7-2.49-1-1.37-2.17-2.6-3.13-4-1.08-1.58-2-3.27-3-4.92a10.38,10.38,0,0,1,2.77,1.42c2.39,2.34,4.62,4.82,6.87,7.2,1.42-2.32,1.49-2.37-.34-4.53a36,36,0,0,0-4.23-4.32,18.23,18.23,0,0,0-7.6-4.27l-2.3-3.18a10.25,10.25,0,0,1,2.68.57,55,55,0,0,1,7.71,4.25,75,75,0,0,1,6.62,6.1l2.73.12a1.66,1.66,0,0,0-.11-.49,30.34,30.34,0,0,0-14-11.59c-1.84-.75-4.06-1-5.81.71l-3.15-5.75,3.42.49c.23-.85.41-1.54.69-2.56l-5.54-.46-1.67-2.56,6.68.51c.1-.75.2-1.45.31-2.24a25.22,25.22,0,0,0-8.39-.75,3.92,3.92,0,0,1-.69-.72c-6.33-10.6-12.62-21.23-19-31.81-.66-1.09-.2-1.68.81-2.61-1.77.38-2.75,0-3-1.49a17.49,17.49,0,0,0,6.41-1c-2.81-1.24-5.18-.22-7.47-.48l-.51-1,3.61-.81c-1.45-1.52-2.82-.92-4.15-.59-1.15-.46-1.15-1.15-.41-2a3.58,3.58,0,0,1-2.56-2.2q-3.18-5.31-6.34-10.64H682.92c-1.14,5.51-2.19,10.94-3.34,16.38A56.46,56.46,0,0,1,678,92.19c-1.09.23-2.37-.67-3.29.47-.27.32-.26.87-.38,1.31.45.09,1,.37,1.32.22A19.89,19.89,0,0,0,678,92.83c-.36,2.44-.71,4.89-1.07,7.33l-1.74,1,.15.37h1.12a4.18,4.18,0,0,1,0,1q-1.53,7.27-3.08,14.55l-1-.82c-1.06,1.59-2.45,2.7-3,5.15l3.57-2c-1.09,5.58-2.15,11.17-3.26,16.74-.54,2.7-1.18,5.37-1.77,8l-.51,2.17h0c-.17.18-.42.34-.48.55a61.11,61.11,0,0,0-2.54,15,14.77,14.77,0,0,1-.17,1.76q-2.49,12.5-5,25c-.59,2.86-1.3,5.7-2,8.55-1.06-1.54-2-3.11-1.68-5.14.08-.54-.28-1.14-.36-1.72-.22-1.45-1.14-1.67-2.64-1.5a24.05,24.05,0,0,0,2,7.54,1.92,1.92,0,0,0,2.39,1.28l.22-.08a9.62,9.62,0,0,1-.06,1.52q-1,5.08-2,10.16-5.77,28.59-11.54,57.2c-.27,1.36-.41,2.75-.65,4.43H646c.51,0,1,.12,1.52.12h42.65c.5,0,1-.06,1.59-.1.18-.6.39-1.14.51-1.71.58-2.87,1.14-5.76,1.71-8.64,1.16-5.8,2.31-11.61,3.5-17.4.79-3.8,1.64-7.59,2.47-11.39,1.22,1.09,2.31.64,3.57-.27l-3.08-2.31.44-2.14c1.53,1.09,3,2.19,4.69,3.38.39-.87.66-1.45.92-2l-5.09-4.28.51-2.13,4.25,3.27.53-.35a7.5,7.5,0,0,0-.77-2.71,20.83,20.83,0,0,0-3.22-2.71c.1-1,.2-2,.31-2.95l4.72,4.21,1.39-2c-1.85-1.71-3.63-3.36-5.42-5-.06-.79-.12-1.57-.17-2.35H705c.17.17.34.34.5.52l.92,1a12.46,12.46,0,0,0,4.33,3.8,13.67,13.67,0,0,0-.42-2c-.7-1.67-2.29-1.78-3.77-2.06ZM871.2,228.73c-1.58-.08-1.67.76-.91,2.12l1-2,.15-.42ZM806.73,103.14c-.09-.72-.29-1.34-1.19-1.27a.46.46,0,0,0-.32.33c-.15,1,.78.88,1.31,1.16a3.84,3.84,0,0,0,2.52,1.72C808.93,103.32,807.89,103.14,806.73,103.14ZM665.34,88.92a2.86,2.86,0,0,0-2.93,1.45l1.66.1c-.17,1-.66,2,.33,3.17.46-.16,1.12-.2,1.48-.55,1-1,2.34-1.43,3-2.93.33-.77,1.9-1,1.78-2.45-.18,0-.37-.08-.48,0-1.13.73-2.28,1.43-3.35,2.25a2.69,2.69,0,0,1-2.8.54L665.38,89l.18-.35ZM793,153.49l.18.13-.21-.09c0-1.52-.84-2.63-1.73-3.87-.46.85-.83,1.55-1.31,2.45Zm71.7,51.37c-.49.24-1.15.36-1.41.75a12.8,12.8,0,0,0-1,2.31c-.55,1.28-.18,2.06,1.41,2.39.51-1.19,1-2.36,1.51-3.48.42-.87-.17-1.38-.53-2,1.05,0,1.89-.13,1.38-1.56-.3-.84-.47-1.72-.81-3C864.64,202.08,863.43,203.33,864.67,204.86ZM654.05,102.66a8.56,8.56,0,0,0-1.33,1.36c-.19.29,0,.81,0,1.32,1.68-.28,1.44-1.83,2.19-2.59,2.75-1.56,4.58-4.1,6.63-6.39.29-.32.13-1,.22-1.91-2.88,1.4-4.3,3.88-6.31,5.67-.09.08.23.62.34.89-.63.24-1.25.51-1.85.81C653.82,101.87,654,102.37,654.05,102.66Zm10.77,36.56c-3.84,9.52-5.29,19.46-5.48,29.71,2.45-.72,2.44-.72,2.53-2.82a81.49,81.49,0,0,1,4-22.59c.54-1.59.61-2.93-.49-4.23l-.31-.67Zm-10.17-29.6c-1.86-.58-2.78.27-3.7,1.57-12.14,17.23-17.61,36.56-17.9,57.44-.07,5,.55,9.92.93,14.87a2.57,2.57,0,0,0,2.51,2.45c-3.76-27.88,1.44-53.49,18.16-76.33Zm-6.82,62.56c.42-5.37.65-10.44,1.24-15.46a86.66,86.66,0,0,1,11-33,85.52,85.52,0,0,1,11.66-15.93c1-1.14,1.83-2.29,1.12-4.31-18.9,19.17-27.38,42-27,68.44Zm2.47-66.61c-1.81,2.55-3.57,4.83-5.13,7.24-11.24,17.34-16,36.51-16.27,57,0,2.52.38,4.72,2.15,6.22.22-5.73.32-11.65.73-17.55a97.81,97.81,0,0,1,19.67-50.88,7.82,7.82,0,0,0,.6-1.1Zm13.22,5.52c-1.56-.58-2.52-.32-3.3.86-1.26,1.91-2.71,3.69-3.93,5.62-11.13,17.51-15.63,36.72-14.69,57.33a19.38,19.38,0,0,0,.32,2.14c.56-.88.61-1.91,1.14-2.54a4.52,4.52,0,0,0,.83-3.32,100.14,100.14,0,0,1,1.07-17,91,91,0,0,1,16.93-40.85C662.42,112.66,662.93,111.91,663.52,111.09Zm-2.79,20.43c-2.17-.27-2.19-.28-2.64.45a8,8,0,0,0-.54,1.15,92,92,0,0,0-7.35,37.06,4.82,4.82,0,0,0,.22,1,6.74,6.74,0,0,0,1,.17,8,8,0,0,0,1.19-.2A91.55,91.55,0,0,1,660.73,131.52Zm-3.51,43.28v-1a97.89,97.89,0,0,1,1.46-21,92.34,92.34,0,0,1,4.74-16.29c.7-1.81.66-1.82-1.22-2.87a16.2,16.2,0,0,0-.88,1.77c-1.29,3.84-2.72,7.65-3.79,11.56a83.9,83.9,0,0,0-2.8,22.58c0,.72.13,2,.43,2,1.87.56,1.44,2.1,2.1,3.25ZM781,126.44c-.42,2.92,1.51,3.82,3.21,5a44.84,44.84,0,0,1,15.29,17.87c.42.87.86,1.74,1.36,2.77l1.85-2.17a48.39,48.39,0,0,0-21.67-23.47Zm85.71-31.82-.57.61A94.54,94.54,0,0,1,884,121.67l1.9-.5A87.61,87.61,0,0,0,870,96.67,15.24,15.24,0,0,0,866.73,94.62Zm-96.13,40.6a37.17,37.17,0,0,1,18,14.89l2.13-1.38a32.35,32.35,0,0,0-7.59-9c-3.07-2.43-6-5-10.13-5.84-1.47-.28-1.92-.3-2.46,1.33ZM871,95c.46.62.75,1.11,1.13,1.53A78.42,78.42,0,0,1,882,110c1.72,3,3.26,6.1,4.87,9.16.56,1,1,2.23,2.93,2.27a24.25,24.25,0,0,0-1-2.74c-1.51-3-3-6-4.66-9A82.17,82.17,0,0,0,874.23,96C873.46,95.1,872.73,94,871,95Zm-76.86,85.26A37.22,37.22,0,0,0,795,158.9c-.39-1.54-1.06-1.61-2.9-.53a34.88,34.88,0,0,1,.38,18C792.12,177.83,792.73,178.93,794.13,180.29Zm-9.14-62c-4.32-2.61-13.9-5.63-18.4-5.94-1.62-.12-2.78.69-4.59,1.69,1,.18,1.48.3,1.94.35a49.66,49.66,0,0,1,13.54,3.18c2.35,1,4.74.59,7.1,1a1.36,1.36,0,0,1,.41-.32Zm92.7-21c2.16,3.08,4.29,5.91,6.19,8.89s3.54,6.08,5.36,9.24l1.56-.67c-.4-.89-.68-1.67-1.09-2.38-1.54-2.7-3-5.44-4.73-8.06-1.6-2.47-3.42-4.8-5.14-7.19-.76-1-1.43-1-2.11.17Zm3.86-2.79-.63.43a15.35,15.35,0,0,0,1.29,2.56,93.57,93.57,0,0,1,10.07,16.41c.16.34.55.58.83.87,0-.82-.52-1.76-.32-2,1.11-1.17.16-2.06-.32-2.88-2.15-3.64-4.29-7.3-6.66-10.79A40.31,40.31,0,0,0,881.55,94.5ZM885,132l-.61.36c1.29,5.08,2.59,10.17,4,15.81a13.46,13.46,0,0,0,.6-2.15c.42-4.25-1-8.16-2.29-12.09-.21-.75-1.11-1.29-1.7-1.93Zm-211.6-22.47c-3,2-8.8,9.82-9,11.8,4.49-2.81,7.72-6.58,9-11.8Zm106.8,16.32-8.57-3.37c-.79.73-1.38,1.28-2.12,2l9.39,3.54Zm-11-3.64a24.65,24.65,0,0,0-8.64-1.35c-1.36,0-1.46,1-1.74,2.14,2.72.35,5.21.7,7.71,1,1.13.08,1.91-.54,2.69-1.79Zm109.2,56.34c2-2.47,2.27-4.14,2.13-9.77a4.86,4.86,0,0,0-2.13-3.77ZM663.21,99.92l-1.36-1.19a104.7,104.7,0,0,0-8.14,8.84c1.55.47,2.45.23,3.29-.75C659,104.53,661.05,102.31,663.21,99.92Zm215.32,98.81c-.7,2.13-1.33,4-1.88,5.8s-1.56,3.41-1.39,5.47a2.8,2.8,0,0,0,1.55-1.06c.77-1.46,1.42-3,2.06-4.52a1.69,1.69,0,0,0,.08-1.19c-.63-1.44.08-2.39,1-3.29.08-.08,0-.29.07-.58Zm-11.8-2.3.69.37c.53-.59,1.32-1.11,1.54-1.8a44.33,44.33,0,0,0,1.54-6.13c.19-1.09-.69-1.7-1.87-2.23Zm-83.84-31.82c2.33-.4,2.66-.74,2.24-2.51-.35-1.47-.84-2.9-1.28-4.36l-2.79-.41c.67,2.46,1.24,4.88,1.84,7.28Zm-132,27.31c-.62-3.06-1.22-6-1.82-9-.44.55-.37,1.16-.64,1.5-1.36,1.7-.73,3.46-.44,5.29.28,1.6,1.07,2.3,2.91,2.21ZM873,209.29c1-2.73,1.92-5.45,2.92-8.28-3.18,1.18-3.62,4-4.57,6.38-.42,1.1,0,1.77,1.66,1.9ZM651.22,100.36c1.9-.33,5.67-3.55,8-6.82-3,.37-4.46,2.75-6.55,4.07A3.11,3.11,0,0,0,651.22,100.36ZM893.73,95c1.92,2.31,2.66,5.07,5.22,6.8.88-2.39-1-3.56-1.68-5.11C896.73,95.47,895.82,94.64,893.73,95Zm-79.25-7.26c.13-.22.26-.44.38-.67a36.06,36.06,0,0,0-3.14-2.2,21.59,21.59,0,0,0-3-1.13l-2.53-.92-.4.37c.2.43.28,1.12.6,1.26C809.08,85.6,811.79,86.66,814.48,87.73ZM674.32,97.49a26.72,26.72,0,0,0-5.22,4.74c-.21.26,0,.89.07,1.37C672,103,674.55,100,674.32,97.49Zm102.79,14c-.65.81-.2,1.06.44,1.31,2.74,1.08,5.46,2.18,8.19,3.26a5.31,5.31,0,0,0,.88.19c-2.52-3-6.38-3-9.51-4.71Zm-.74-.58a14,14,0,0,0-1.82-1,3.36,3.36,0,0,0-2.81,0c-1.22-1.4-2,0-2.86.55,2.38.27,4.57,2.17,7.49.5Zm7.44-25.42c.11.65.08,1.5.31,1.58,1.48.53,3,.88,4.62,1.32.18-.64.3-1.09.45-1.62Zm-111.14,5a1.18,1.18,0,0,0-.71.13c-1.08,1-1.87,2.35-3.66,2.47-.58,0-1.11,1-2,1.76,4.54-.58,5.43-1.24,6.37-4.3ZM642.9,185.28c.12,1,.23,2,.34,2.9l2.68,1.28c-.53-1.66.07-3.94-3-4.12Zm148.6-85a30.48,30.48,0,0,0,3.28,1.4c.29.09.86-.33,1.09-.67s-.07-.8-.3-1c-1-.88-2.06-.86-4.07.33ZM777.38,89.15l5.14.88c-.26-.86-.42-1.4-.68-2.28C780.48,88.58,778.94,87.28,777.38,89.15Zm-18.79,6.58c.91,2.12.91,2.12,3.68,1.57C762.17,95.43,762.17,95.43,758.59,95.73ZM796,106.91c-.83-2.78-2-4-3.15-3.55-.14.51-.3,1.09-.47,1.74Zm3-9.24c-2.4-1.71-2.43-1.71-4-.13a2.79,2.79,0,0,0,3.94.21l0,0Zm61.39,103.76c-.88,1.86-.88,1.86.56,4.07C862.33,203.21,862.35,202.81,860.43,201.43Zm-85.77-72.8-4.53-1.43C770.63,129.45,771.73,129.79,774.66,128.63ZM865,212.08l2.14,1.34c-.43-1.7.48-3.09-.51-4.56a4.63,4.63,0,0,0-.68.9c-.34.75-.63,1.53-.95,2.32Zm-2.91-15.17c-.55,1.44-.55,1.44.53,4C863.87,198.79,863.87,198.79,862.07,196.91ZM655.65,180c.26,2.07.26,2.07,2.43,1.42-.53-1.32-.53-1.32-2.43-1.42Zm105.62-90.1v.68l5.29.43a7.37,7.37,0,0,0-5.29-1.11Zm22-1.55c.51,1.54.51,1.54,4.31,1.19Zm85.21,125.08c.69,1.1,1.44,1.24,2.09.75.39-.29.47-1,.68-1.51l-.42-.3Zm9.78-51.63c1-.5,1.93-.6,1.68-2h-2c.13.72.22,1.25.36,2Zm-5.58,53,2.08-.32c-.21-.47-.33-1.26-.66-1.36-.94-.31-1.09.51-1.37,1.67ZM651,181.88c.3,1.28.48,2.11.74,3.21,1.22-2.36,1.22-2.36-.7-3.22Zm-21.08-1.57.91-.23a12.43,12.43,0,0,0-.58-1.58c0-.06-.54.12-.83.18.21.54.33,1,.54,1.62Zm163.58-67.64-1.83-1c.52,1.58.52,1.58,1.87,1Zm-7.66,38.47-.53.42,1.46,1.79c.21-1.41,0-2-.89-2.22ZM676.51,90.45l.71.4.84-1.62-.55-.31C677.17,89.43,676.84,89.94,676.51,90.45ZM665.3,137.31c1.12-.28,1.47-.91.87-2Zm215.2,55.25-.53,2.18C881.05,194.26,881.66,193.89,880.5,192.56ZM669.56,98.14c-1.34-.84-1.69-.11-2.09.45a4.35,4.35,0,0,0,.15.58Zm189,102-.56-.33-.82,1.12.76.46Zm-94.1-104c.85,1.3,1.54,1.21,2.27.53.08-.07,0-.28,0-.53Zm105.19,135.5c-.14-.14-.29-.33-.32-.31a4.93,4.93,0,0,0-.49.42l.36.37ZM767,128.88s0-.1-.06-.11a.54.54,0,0,0-.18,0s0,.11.05.11Z" style="fill:#fb1924"/><path d="M228.06,208.88H224c.09-3.91.47-7.71.2-11.46-.88-12.67-9.09-22-21.62-24.49a79.08,79.08,0,0,0-11.6-1c-3.12-.15-6.26,0-9.52,0-.86,4.18-1.7,8.23-2.52,12.28q-6,29.34-11.93,58.68c-.77,3.81-1.77,7.58-1.42,11.54a12,12,0,0,0,7.29,10.48,29.58,29.58,0,0,0,10.85,2.41c1.6.11,3.2,0,5.15,0l-.66,3.65H108.45l.67-3.21c3.16-.48,6.12-.72,9-1.42,10.54-2.57,17.06-9,19.23-19.86,5.16-25.7,10.45-51.38,15.69-77.07.13-.65.34-1.29.55-2.07h49.14c-.47-1.11-.82-1.94-1.19-2.76q-17.89-39.66-35.76-79.34c-3.1-6.93-8.25-10.71-15.74-11.45l-1.43-.14c.22-1.17.41-2.21.62-3.37H296.92c-3.63,17.86-7.19,35.63-10.87,53.45h-3.86V121a52.37,52.37,0,0,0-3.8-21.85c-5.16-12.06-14.54-19.24-26.91-22.83a53.62,53.62,0,0,0-15-2.18H195.79c-.56,0-1.12.06-2,.12l34.7,78.06c3.39-2,8.25-11.56,11.18-21.88H244C238.73,156.63,233.38,182.73,228.06,208.88Z" style="fill:#020317"/><path d="M633.5,121.73c-.38,2.33-.77,4.65-1.15,7-1.11,5-2.29,10-3.32,15.07-1.38,6.79-2.64,13.59-3.95,20.39-1.14,5.52-2.3,11-3.41,16.56q-3.21,15.85-6.36,31.73T609,244.21L602.63,276q-3.18,15.85-6.37,31.72t-6.4,32q-3.17,15.87-6.32,31.74c-.18.91-.3,1.82-.45,2.73-3.54,3.37-7.09,6.73-10.58,10,1-5.08,2-10.36,3.09-15.63l13.56-67.69q6.75-33.7,13.52-67.43,7.23-36.21,14.45-72.43,7-35,14-69.92,5-24.76,9.85-49.53a6.55,6.55,0,0,1,1.93-3.73c3-2.77,5.82-5.65,8.72-8.49-.57,3.4-1.07,6.81-1.74,10.19-2.27,11.58-4.61,23.14-6.92,34.7q-2.62,13.14-5.24,26.28a32.19,32.19,0,0,0-.31,3.25h0l-.41.72L636,109.25l-.54,4.35q-.75,2.93-1.51,5.85C633.79,120.21,633.64,121,633.5,121.73Z" style="fill:#9e080f"/><path d="M631.31,326.29c3.2-3.26,6.37-6.55,9.62-9.77a4.44,4.44,0,0,1,2-.81,7.57,7.57,0,0,1,1.78,0H854.33a26.5,26.5,0,0,1,3.21.37c-3.14,3.2-6.26,6.42-9.44,9.57a3.59,3.59,0,0,1-1.77.72,8.82,8.82,0,0,1-1.78,0H634.1C633.17,326.38,632.24,326.32,631.31,326.29Z" style="fill:#9d060e"/><path d="M897.54,116.42a6.9,6.9,0,0,1-.7-1,89.45,89.45,0,0,0-12.27-20.69,6,6,0,0,1-.5-.89c1.42-.8,2.21-.19,3,.87a89.77,89.77,0,0,1,9.08,14.64c.48,1,.93,2,1.49,2.94.15.26.64.32,1,.47C898.27,114,897.91,115.21,897.54,116.42Z" style="fill:#fdaaad"/><path d="M898.73,110.3c-.82-1.44-1.61-2.91-2.47-4.33-2-3.24-4-6.45-6-9.66-.42-.68-.86-1.34-1.47-2.28a3.7,3.7,0,0,1,3.52,1.75c1.83,3.1,3.58,6.25,5.45,9.34a14.31,14.31,0,0,0,2,2.12Z" style="fill:#feacaf"/><path d="M874.33,232.3a22.46,22.46,0,0,0-1.7,1.68c-1.46,1.82-2.86,3.68-4.51,5.39a5.24,5.24,0,0,1,.76-3.8c1.84-2.63,3.64-5.3,5.5-7.92a6.79,6.79,0,0,1,1.31-1.08c-.3,1.57-.6,3.14-.91,4.72l-.48,1.05Z" style="fill:#feacb0"/><path d="M873.1,240.34a12.52,12.52,0,0,0-1.77,1.29,5.43,5.43,0,0,1-4.06,1.71l6.46-7.61Z" style="fill:#fdaaad"/><path d="M891.73,145.06c-.86-2.76-1.71-5.52-2.57-8.28l.53-.29,2.31,3.77c-1.16,1.18-1,2.25.56,3.05C892.27,143.9,892,144.48,891.73,145.06Z" style="fill:#fd989d"/><path d="M882.18,191.18c-1.43-1.78-1.7-4.72-.47-6.19.66-.8,1.15-.42,1.41.43l-1,5.74Z" style="fill:#feb0b3"/><path d="M900.91,98.73l-2.54-3.23a1.61,1.61,0,0,1,2.24.31l0,.07a5.74,5.74,0,0,0,1.11.79C901.73,97.44,902.1,98.38,900.91,98.73Z" style="fill:#feadb1"/><path d="M882.16,191.16l1-5.74.83.12c-.32,1.75-.62,3.52-1,5.27C882.93,191,882.44,191.05,882.16,191.16Z" style="fill:#fc5f67"/><path d="M892.55,143.31c-1.53-.8-1.72-1.87-.56-3.05h1Z" style="fill:#fc434c"/><path d="M874.3,232.34l.48-1.05Z" style="fill:#fb1924"/><path d="M526.73,167.47h42.1a19,19,0,0,1-.18,2.26q-7.92,39.06-15.72,78.11a5.87,5.87,0,0,1-2.52,3.86,123.4,123.4,0,0,1-47.81,20.23,139.21,139.21,0,0,1-34.87,2.46c-16.57-.86-32.55-4.26-47.35-12.06-23.61-12.47-38-31.8-42.78-58.13-2-10.93-1.79-21.89-.52-32.88a118.08,118.08,0,0,1,12-40.42c12.5-24.51,31.63-42,56.73-53a130.22,130.22,0,0,1,36.38-9.85A155.91,155.91,0,0,1,507,66.73c15.16.52,30,2.72,44.14,8.5a82.5,82.5,0,0,1,32.69,23.5c.76.9,1.48,1.84,2.44,3-11,9.06-22.07,17.92-33.2,27-.54-.52-1.05-.94-1.47-1.43A57.59,57.59,0,0,0,517.88,108c-15.78-2.9-31.39-2.18-46.54,3.38C451,118.83,437,132.86,429,152.91a81,81,0,0,0-5.46,37.37c1.81,20.91,14,35,33,41a82.72,82.72,0,0,0,33.13,3.17,79.84,79.84,0,0,0,23.05-5.8,3.65,3.65,0,0,0,2.49-3.08c2.74-14.37,5.57-28.73,8.36-43.09.89-4.56,1.76-9.13,2.66-13.7A10.38,10.38,0,0,1,526.73,167.47Z" style="fill:#fffeff"/><path d="M824.49,70.19H870.4c-.68,3.45-1.29,6.67-1.94,9.88-1.06,5.3-2.14,10.6-3.2,15.91a5.57,5.57,0,0,0,0,1l-.69,2.13a.51.51,0,0,0,0,.45v2.12c-.32.83-.65,1.67-1,2.51v2c-.31.87-.62,1.74-.94,2.61v2.47l-1.06,3c0,.69-.07,1.38-.11,2.07-.31,1-.63,2-.94,2.93-.06,1-.12,2-.19,3-.27,1-.55,2.1-.82,3.15s-.35,2.1-.52,3.15l-.92,3.63c-.2,2-.41,4-.61,6h0l-.73.48-.27,1.48c-.18,1.55-.35,3.1-.53,4.65l-1.47,5.06c-.22,2-.43,4-.65,6.06-.2.13-.56.22-.59.39-.46,2.09-.87,4.19-1.29,6.28a95,95,0,0,0-2.2,15.58A14.14,14.14,0,0,1,848,184a12.92,12.92,0,0,0-1.09,3.6q-8.22,41-16.4,82.07c-.08.4-.2.79-.33,1.27-.65.06-1.23.16-1.8.16h-35.3c-.42,0-.84-.07-1.26-.11-.16-.3-.29-.61-.46-.9q-36.51-61.34-73.08-122.69c-.27-.45-.61-.85-1.25-1.73l-.66,4.27c-1.71,8.26-3.44,16.52-5.1,24.79-2.4,11.9-4.75,23.82-7.13,35.73-.2.35-.4.7-.59,1,0,.78.11,1.56.17,2.35l-.69,2.76c-.11,1-.21,2-.31,2.95-.26.83-.53,1.66-.79,2.5l-.51,2.13-.52,2.94-.44,2.14-.49,2.58c-.83,3.8-1.68,7.59-2.47,11.39-1.19,5.79-2.34,11.6-3.5,17.4-.57,2.88-1.13,5.77-1.71,8.64-.12.57-.33,1.11-.51,1.71-.59,0-1.09.1-1.59.1H647.54c-.51,0-1-.08-1.52-.12.07-.5.12-1,.22-1.5l11-55q6-29.87,12-59.71l12.45-62.2q2.25-11.19,4.54-22.38h38.4L731,80.8a3.58,3.58,0,0,0,2.56,2.2c-.74.84-.74,1.53.41,2l.54,1.4.51,1,1.06,1.5c.21,1.52,1.19,1.87,3,1.49-1,.93-1.47,1.52-.81,2.61,6.36,10.58,12.65,21.21,19,31.81a3.92,3.92,0,0,0,.69.72l1.4,2.48,1.67,2.56,1.43,2.53,3.15,5.75v.23l.19.1,2.3,3.18c.68,1.33,1.37,2.65,2,4l.53.56h0c1,1.65,1.92,3.34,3,4.92,1,1.39,2.15,2.62,3.13,4,.5.69,1.26,1.35.7,2.49-.16.34.32,1.07.61,1.56q2.63,4.47,5.3,8.91c.3.51.57,1.25,1,1.4,1,.33.89,1,1.12,1.74a20.06,20.06,0,0,0,1.45,2.94l2.37,3.12c.06,2.38,2,3.28,3.65,4.57a3.32,3.32,0,0,0,1.64,4.22c.53.31.74,1.2,1.06,1.85.43.88.82,1.78,1.23,2.67l2.61,4.75c.32-1.39.52-2.21.68-3q5.25-26.35,10.47-52.71,4.71-23.76,9.38-47.51C821.45,85.26,823,77.73,824.49,70.19Z" style="fill:#fffefe"/><path d="M686.19,70.18c-1.51,7.46-3,14.92-4.54,22.38q-6.24,31.1-12.45,62.2l-12,59.71-11,55c-.1.49-.15,1-.22,1.5H642.9c.24-1.68.38-3.07.65-4.43q5.76-28.61,11.54-57.2,1-5.09,2-10.16a9.62,9.62,0,0,0,.06-1.52,2.32,2.32,0,0,1,.06-.38c.66-2.85,1.37-5.69,2-8.55q2.55-12.48,5-25a14.77,14.77,0,0,0,.17-1.76c.69-3.07,1.44-6.12,2-9.2.42-2.11.65-4.26,1-6.39h0l.51-2.17c.59-2.68,1.23-5.35,1.77-8,1.11-5.57,2.17-11.16,3.26-16.74.14-.79.29-1.57.43-2.36q1.54-7.27,3.08-14.55a4.18,4.18,0,0,0,0-1c.15-.47.31-.94.47-1.41.36-2.44.71-4.89,1.07-7.33v-.64c.54-1.82,1.19-3.61,1.58-5.46,1.15-5.41,2.2-10.84,3.34-16.52Z" style="fill:#a10b13"/><path d="M716.37,149.91l.66-4.27c.64.88,1,1.28,1.25,1.73L791.4,270.06c.17.29.3.6.46.9-2.47.5-3.74-.76-4.92-2.81-4.72-8.18-9.6-16.27-14.44-24.37a20,20,0,0,0-1.54-2c-.44-.77-.87-1.55-1.31-2.33l-.9-1.6-1.19-2.12-1.26-1.9c-.41-.73-.83-1.45-1.25-2.18-1.71-3-3.39-6-5.14-9q-5.6-9.51-11.26-19a6.65,6.65,0,0,0-.84-.92l-.56-1-2-3.23c-.84-1.45-1.67-2.9-2.51-4.34l-.6-.5v.07a7.65,7.65,0,0,0-2.46-4.48l-.57-1.2h0c-1.26-2.26-2.47-4.55-3.79-6.78-.85-1.43-1.86-2.76-2.79-4.13-1.35-2.42-2.66-4.85-4.06-7.24q-5.69-9.66-11.43-19.28A5.63,5.63,0,0,0,716.37,149.91Z" style="fill:#a10e15"/><path d="M824.49,70.19c-1.51,7.54-3,15.07-4.54,22.61q-4.69,23.74-9.38,47.51Q805.35,166.67,800.1,193c-.16.82-.36,1.64-.68,3l-2.61-4.75A9.18,9.18,0,0,0,798,185.4v.09c.17-.54.35-1.09.53-1.63q1.51-8,3-16.06c.53-2.52,1-5,1.58-7.57.31-1.35.61-2.7.92-4q.75-3.69,1.51-7.38l.57-3.89c.22-1.08.43-2.17.65-3.26l.87-3.83c.19-1,.39-2.06.58-3.09s.49-2.06.73-3.1l.69-3.06.48-2.92.57-2.66c.15-1,.3-1.92.46-2.87l.58-2.39.39-2.58.57-2.24.21-2c.15-.84.29-1.67.44-2.5s.35-1.44.53-2.16l.81-3.13a13.24,13.24,0,0,1,.13-1.45l.51-2.82c.1-.35.21-.7.32-1.06l1.68-8.68c.11-.62.21-1.23.32-1.85q1.36-6.39,2.72-12.77c.11-.5.26-1,.32-1.48C821.07,69.94,821.2,70.08,824.49,70.19Z" style="fill:#a10d15"/><path d="M659.78,108.78a16.56,16.56,0,0,1-1.27,2.39,93.7,93.7,0,0,0-18.15,44.9,101.77,101.77,0,0,0,.85,31.83,4.45,4.45,0,0,1,0,.73c-2.15-.31-2.29-.35-2.59-2.26a83.34,83.34,0,0,1-1-8.31c-1.57-22.89,3-44.26,15.92-63.54a27.55,27.55,0,0,1,2.37-3.3,25.83,25.83,0,0,1,2.83-2.4Z" style="fill:#feaeb1"/><path d="M654.65,109.62c-16.72,22.84-21.92,48.45-18.16,76.33A2.57,2.57,0,0,1,634,183.5c-.38-5-1-9.92-.93-14.87.29-20.88,5.76-40.21,17.9-57.44C651.87,109.89,652.79,109,654.65,109.62Z" style="fill:#feacaf"/><path d="M801.56,167.83q-1.53,8-3,16.06c-.18.54-.36,1.09-.53,1.63v-.09l-2.47-1.58c4.2-10.65,4.35-21.08-.08-31.37s-12-17.22-22.14-21.8c1.94-.57,3.81-.92,5.67.13,11.55,6.53,18.91,16.18,21.62,29.23C801.09,162.6,801.24,165.23,801.56,167.83Z" style="fill:#fdaeb1"/><path d="M647.83,172.18l-2-.26c-.33-26.47,8.15-49.27,27-68.44.71,2-.07,3.17-1.12,4.31a85.26,85.26,0,0,0-11.66,15.94,86.66,86.66,0,0,0-11,33C648.48,161.73,648.25,166.81,647.83,172.18Z" style="fill:#feaeb1"/><path d="M650.3,105.57l1.75.94a7.82,7.82,0,0,1-.6,1.1,97.81,97.81,0,0,0-19.67,50.88c-.41,5.9-.51,11.82-.73,17.55-1.77-1.5-2.18-3.7-2.15-6.22.22-20.5,5-39.67,16.27-57C646.73,110.4,648.49,108.12,650.3,105.57Z" style="fill:#feabaf"/><path d="M663.52,111.09c-.59.82-1.1,1.57-1.63,2.29A91,91,0,0,0,645,154.23a100.14,100.14,0,0,0-1.07,17,4.52,4.52,0,0,1-.83,3.32c-.53.63-.58,1.66-1.14,2.54a19.38,19.38,0,0,1-.32-2.14c-.94-20.61,3.56-39.82,14.69-57.33,1.22-1.93,2.67-3.71,3.93-5.62C661,110.73,662,110.51,663.52,111.09Z" style="fill:#feabae"/><path d="M858.07,132.24l.92-3.63c1.2,2.69,2.56,5.32,3.57,8.08A92.6,92.6,0,0,1,868,175.33c-.38,5.55-1.59,11-2.44,16.54a6.66,6.66,0,0,1-.44,1.15l-1.78-1.13c.47-2.71,1-5.43,1.43-8.17a93.62,93.62,0,0,0-5.79-50A9.38,9.38,0,0,0,858.07,132.24Z" style="fill:#feadb1"/><path d="M860.52,119.35c.31-1,.63-2,.94-2.93,1.44,2.38,3,4.69,4.3,7.15a93.61,93.61,0,0,1,9.87,32.1c.23,1.88.52,3.82.58,5.71.18,5.58.08,11.16,0,16.75,0,2.08-.15,2.08-2.43,2.71.05-1,.08-1.88.15-2.78,1.67-20.1-2-39.09-11.87-56.78A15,15,0,0,0,860.52,119.35Z" style="fill:#feadb1"/><path d="M806.14,144.94l-.57,3.89a8,8,0,0,1-1.4-1.62,51.27,51.27,0,0,0-18.77-20.83,56.9,56.9,0,0,0-9.25-4.51c-1.38-.58-2.69-1.3-4.07-1.88a5.62,5.62,0,0,0-1.71-.36c-3-.34-6-.64-9-1,.8-2.34.88-2.45,3.06-2.16a55.85,55.85,0,0,1,21,7,52.29,52.29,0,0,1,20,20.4A11,11,0,0,0,806.14,144.94Z" style="fill:#feaeb1"/><path d="M859.51,125.46c.27-1,.55-2.1.82-3.15,2.8,4.07,4.56,8.66,6.26,13.24,5,13.62,6.48,27.74,5.54,42.16-.1,1.51-.36,3-.56,4.62l-2-.69a4.7,4.7,0,0,1,0-.75,96.53,96.53,0,0,0-3.92-41.07c-1.46-4.48-3.47-8.79-5.26-13.16A6.85,6.85,0,0,0,859.51,125.46Z" style="fill:#feaeb1"/><path d="M625.08,164.2c1.31-6.8,2.57-13.6,3.95-20.39,1-5,2.21-10.05,3.32-15.07,2.22-4.45,4.31-9,6.69-13.35a69.62,69.62,0,0,1,8.61-12.25l1.65,1c-16.49,20.59-22.86,44.5-22.12,70.59h-.45a3,3,0,0,1-.25-.83c0-.62.25-1.42,0-1.86-1.39-2.14-1.36-4.47-1.25-6.85A8.46,8.46,0,0,0,625.08,164.2Z" style="fill:#fca8ac"/><path d="M862.65,108.85l.94-2.61c2.25,3.15,4.7,6.17,6.71,9.47a98.61,98.61,0,0,1,13,37.34c.47,3.16.68,6.36,1,9.54a1.58,1.58,0,0,1-.26,1.14,18,18,0,0,1-.62-2.71,1.64,1.64,0,0,0-.91-1.57c-.42-.23-.6-1.09-.67-1.69a122.22,122.22,0,0,0-3.47-17.9,95.59,95.59,0,0,0-14-29.43A10.64,10.64,0,0,0,862.65,108.85Z" style="fill:#feacb0"/><path d="M856.46,140.23l.27-1.5.55.33.22-.86h0l1.09-.31A91.18,91.18,0,0,1,861,191.73a8,8,0,0,1-1-5.28,88.19,88.19,0,0,0,1.64-20.95,92.59,92.59,0,0,0-4.19-23.92A6.37,6.37,0,0,0,856.46,140.23Z" style="fill:#feadb0"/><path d="M863.6,104.19c.32-.84.65-1.68,1-2.51,1.33,1.5,2.76,2.93,4,4.53a93.13,93.13,0,0,1,11.81,21c0,.07,0,.18.09.23,1.15,1.16-.29,3,1.34,4.29,1.06.87,1.2,2.89,1.69,4.42s.92,3.08,1.32,4.63.77,3.13,1.09,4.7.59,3.16.86,4.74a4.39,4.39,0,0,0,.08,1c-1.68.37-2.11-.46-2.34-1.84a95.52,95.52,0,0,0-11.06-31.72c-2.42-4.25-5.35-8.22-8.11-12.27A8,8,0,0,0,863.6,104.19Z" style="fill:#feabae"/><path d="M861.57,114.35l1.06-3c2,3.09,4.25,6.07,6,9.3a99,99,0,0,1,11.1,34.56,2.37,2.37,0,0,1-1.37,2.88c-.51-2.39-1.07-4.71-1.48-7.05a96,96,0,0,0-13.24-34.87C863.14,115.42,863,114.09,861.57,114.35Z" style="fill:#feacb0"/><path d="M854.46,149.94l1.47-5.06c.6,2.09,1.34,4.15,1.78,6.27a87.62,87.62,0,0,1-.15,36.52,2.14,2.14,0,0,1-.56,1.06c-.27-2.08-1.35-3.9-1-6.13a84,84,0,0,0-.55-30.52A9.45,9.45,0,0,0,854.46,149.94Z" style="fill:#feacaf"/><path d="M660.73,131.52a91.51,91.51,0,0,0-8,39.63,8,8,0,0,1-1.19.2,6.74,6.74,0,0,1-1-.17,4.82,4.82,0,0,1-.22-1,92,92,0,0,1,7.35-37.06,8,8,0,0,1,.54-1.15C658.58,131.24,658.6,131.25,660.73,131.52Z" style="fill:#feadb1"/><path d="M657.26,174.8c-.66-1.15-.23-2.69-2.06-3.15-.3-.08-.43-1.33-.43-2a83.9,83.9,0,0,1,2.8-22.58c1.07-3.91,2.5-7.72,3.79-11.56a16.2,16.2,0,0,1,.88-1.77c1.88,1,1.92,1.06,1.22,2.87a92.64,92.64,0,0,0-4.73,16.24,97.89,97.89,0,0,0-1.46,21C657.27,174.14,657.26,174.47,657.26,174.8Z" style="fill:#feacb0"/><path d="M781.06,126.44a48.34,48.34,0,0,1,21.67,23.45l-1.85,2.17c-.5-1-.94-1.9-1.36-2.77a44.84,44.84,0,0,0-15.29-17.87C782.57,130.26,780.64,129.36,781.06,126.44Z" style="fill:#feadb0"/><path d="M807.66,137.85l-.87,3.83a54.79,54.79,0,0,0-20.25-20.11V119a13.24,13.24,0,0,1,1.6.68,57.92,57.92,0,0,1,18,16.13C806.61,136.53,807.14,137.18,807.66,137.85Z" style="fill:#feadb1"/><path d="M665.37,139.29c1.1,1.3,1,2.64.49,4.23a81.49,81.49,0,0,0-4,22.59c-.09,2.1-.08,2.1-2.53,2.82.19-10.25,1.64-20.19,5.48-29.71Z" style="fill:#feadb0"/><path d="M866.73,94.62a14.89,14.89,0,0,1,3.31,2,87.61,87.61,0,0,1,15.89,24.5l-1.9.5a94.32,94.32,0,0,0-17.92-26.39Z" style="fill:#feabae"/><path d="M770.55,135.22c.54-1.63,1-1.61,2.46-1.31,4.12.84,7.06,3.41,10.13,5.84a32.35,32.35,0,0,1,7.59,9l-2.14,1.39A37.17,37.17,0,0,0,770.55,135.22Z" style="fill:#feaeb1"/><path d="M871,95c1.75-1,2.47.07,3.24.94a82.09,82.09,0,0,1,9.88,13.76c1.65,2.94,3.15,6,4.66,9a24.25,24.25,0,0,1,1,2.74c-1.94,0-2.37-1.22-2.93-2.27-1.61-3.06-3.15-6.17-4.87-9.16a78.42,78.42,0,0,0-9.85-13.48C871.73,96.14,871.45,95.65,871,95Z" style="fill:#feabae"/><path d="M864.57,99.11l.69-2.13c2.21,2.53,4.55,5,6.62,7.6a88.44,88.44,0,0,1,9.27,15.09,5.64,5.64,0,0,1,.28,4.81c-2.54-4.59-4.73-9.09-7.44-13.25s-6-8-9-11.93A1.14,1.14,0,0,0,864.57,99.11Z" style="fill:#feacaf"/><path d="M809,131.66c-.24,1-.49,2.07-.73,3.1A65.75,65.75,0,0,0,791.18,119c-1.06-.67-1.65-2.08-2.23-3.38C797.11,119.15,803.46,124.89,809,131.66Z" style="fill:#feadb0"/><path d="M851.93,162.67c.42-2.09.83-4.19,1.29-6.28,0-.17.39-.26.59-.39a63.82,63.82,0,0,1,1,6.44,93.23,93.23,0,0,1-.48,17.91c-.08.58-.26,1.15-.39,1.72l-2-1.13c.19-3.23.45-6.67.58-10.12.08-2.18,0-4.38-.08-6.57A6.21,6.21,0,0,0,851.93,162.67Z" style="fill:#feabae"/><path d="M794.13,180.29c-1.36-1.36-2-2.46-1.65-3.92a34.88,34.88,0,0,0-.38-18c1.84-1.08,2.51-1,2.9.53A37.22,37.22,0,0,1,794.13,180.29Z" style="fill:#feb0b3"/><path d="M765.73,139.24l-.19-.1v-.23c1.75-1.71,4-1.46,5.81-.71a30.34,30.34,0,0,1,14,11.59,1.66,1.66,0,0,1,.11.49l-2.73-.12a75,75,0,0,0-6.62-6.1,55,55,0,0,0-7.71-4.25A10.6,10.6,0,0,0,765.73,139.24Z" style="fill:#feaeb1"/><path d="M742.73,194.18c.84,1.44,1.67,2.89,2.51,4.34a31.56,31.56,0,0,1-14.29-11,7.8,7.8,0,0,1-1.43-6l.62-.28c.43.66.89,1.3,1.29,2a30.09,30.09,0,0,0,9.13,9.72,13.34,13.34,0,0,0,1.58.74v0Z" style="fill:#fdaeb1"/><path d="M747.25,201.73l.56,1c-1.66,0-3.28-.71-5,0a2.76,2.76,0,0,1-1.89-.46c-2.82-1.49-5.76-2.83-7.86-5.39a3,3,0,0,0-1-.81c-2-1.09-2.63-3-3.16-5,.87-1,1.35-.23,1.9.27,1.93,1.75,3.75,3.65,5.82,5.22A28.84,28.84,0,0,0,747.25,201.73Z" style="fill:#feacb0"/><path d="M810.14,125.73l-.48,2.92a3,3,0,0,1-.64-.41,68.33,68.33,0,0,0-15.92-13.18l1.58-1.71A67.94,67.94,0,0,1,810.14,125.73Z" style="fill:#feacaf"/><path d="M785,118.25c-.26.15-.34.24-.41.23-2.36-.36-4.75,0-7.1-1a49.66,49.66,0,0,0-13.54-3.18c-.46,0-.91-.17-1.94-.35,1.81-1,3-1.81,4.59-1.69C771.09,112.62,780.67,115.64,785,118.25Z" style="fill:#feabae"/><path d="M770.06,146.39c-.68-1.32-1.37-2.64-2-4a18.23,18.23,0,0,1,7.6,4.27,36,36,0,0,1,4.23,4.32c1.83,2.16,1.76,2.21.34,4.53-2.25-2.38-4.48-4.86-6.87-7.2a10.38,10.38,0,0,0-2.77-1.42h.05Z" style="fill:#feb0b3"/><path d="M877.73,97.29c.72-1.17,1.39-1.21,2.15-.17,1.72,2.39,3.54,4.72,5.14,7.19,1.69,2.62,3.19,5.36,4.73,8.06.41.71.69,1.49,1.09,2.38l-1.56.67c-1.82-3.16-3.47-6.27-5.36-9.24S879.85,100.37,877.73,97.29Z" style="fill:#feabae"/><path d="M881.55,94.5a40.59,40.59,0,0,1,4.26,4.63c2.37,3.49,4.51,7.15,6.66,10.79.48.82,1.43,1.71.32,2.88-.2.21.37,1.15.32,2-.28-.29-.67-.53-.83-.87a93.57,93.57,0,0,0-10.07-16.41A15.35,15.35,0,0,1,880.92,95Z" style="fill:#fdaaad"/><path d="M633.93,119.44q.77-2.93,1.51-5.85c2-2.88,4-5.78,6-8.65.77-1.09,1.65-2.1,2.5-3.17l2.16.44h0a117.43,117.43,0,0,0-11.49,17.46Z" style="fill:#fdaaad"/><path d="M811.17,120.15c-.16,1-.31,1.91-.46,2.87-2.57-2.2-5.11-4.43-7.71-6.58-1.36-1.12-2.84-2.1-4.27-3.15,1.4-1.49,2.7-1,4,0Z" style="fill:#feadb0"/><path d="M885,132c.59.64,1.49,1.18,1.73,1.93,1.25,3.93,2.71,7.84,2.29,12.09a14.59,14.59,0,0,1-.6,2.15c-1.44-5.64-2.74-10.73-4-15.81Z" style="fill:#fca8ac"/><path d="M673.35,109.56c-1.28,5.22-4.51,9-9,11.8C664.55,119.38,670.31,111.56,673.35,109.56Z" style="fill:#fdaaad"/><path d="M780.15,125.88l-1.3,2.12-9.39-3.54c.74-.67,1.33-1.22,2.12-2Z" style="fill:#feadb0"/><path d="M812.16,115.11l-.43,2.62-9.68-7.34a7.25,7.25,0,0,1,5.68,1.34C809.27,112.73,810.73,114,812.16,115.11Z" style="fill:#feabae"/><path d="M789.23,178l-2.37-3.12c.25-.3.71-.58.73-.89.14-2.49,1.64-4.43,2.47-6.64a12.39,12.39,0,0,0,.37-3.15h0c1.11,3.38.53,6.76,0,10.13C788.79,175.19,789.65,176.79,789.23,178Z" style="fill:#fdaaad"/><path d="M769.17,122.24c-.78,1.25-1.56,1.87-2.67,1.75-2.5-.26-5-.61-7.71-1,.28-1.14.38-2.16,1.74-2.14A24.42,24.42,0,0,1,769.17,122.24Z" style="fill:#feacaf"/><path d="M878.37,178.58V165a4.86,4.86,0,0,1,2.13,3.77C880.64,174.44,880.34,176.11,878.37,178.58Z" style="fill:#feacb0"/><path d="M790.43,164.19l-2.28-.19c-.63-2.36-1.27-4.76-1.91-7.14,1.91-1.06,2.49-1,3,.75.68,2.14,1.53,4.27,1.12,6.61Z" style="fill:#feacb0"/><path d="M663.21,99.92c-2.16,2.39-4.24,4.61-6.21,6.92-.84,1-1.74,1.22-3.29.75a103.44,103.44,0,0,1,8.14-8.86Z" style="fill:#feaeb1"/><path d="M657.27,197.26a2.32,2.32,0,0,0-.06.38,1.92,1.92,0,0,1-2.53-1,2,2,0,0,1-.08-.22,24.05,24.05,0,0,1-2-7.54c1.5-.17,2.42,0,2.64,1.5.08.58.44,1.18.36,1.72C655.28,194.15,656.21,195.73,657.27,197.26Z" style="fill:#fda4a8"/><path d="M878.53,198.73l1.54.63a1.14,1.14,0,0,1-.07.58c-1,.9-1.68,1.85-1,3.29a1.69,1.69,0,0,1-.08,1.19c-.64,1.53-1.29,3.06-2.06,4.52a2.8,2.8,0,0,1-1.55,1.06c-.17-2.06.87-3.7,1.39-5.47S877.83,200.84,878.53,198.73Z" style="fill:#fda4a8"/><path d="M866.73,196.43l1.9-9.79c1.18.53,2.06,1.14,1.87,2.23A44.33,44.33,0,0,1,869,195c-.22.69-1,1.21-1.54,1.8Z" style="fill:#fdaaad"/><path d="M782.9,164.61c-.6-2.4-1.21-4.82-1.83-7.28l2.79.41c.44,1.46.93,2.89,1.28,4.36C785.56,163.87,785.23,164.21,782.9,164.61Z" style="fill:#feabae"/><path d="M759.27,128.07l-1.4-2.48a25.25,25.25,0,0,1,8.39.75c-.11.79-.21,1.49-.31,2.24Z" style="fill:#feaeb1"/><path d="M812.94,110.9l-.21,2-7.68-5.48,1.08-1.69A22.52,22.52,0,0,1,812.94,110.9Z" style="fill:#fdaaad"/><path d="M732.53,177.17c.93,1.37,1.94,2.7,2.79,4.13,1.32,2.23,2.53,4.52,3.79,6.78a4.85,4.85,0,0,1-1.43-.69,26.08,26.08,0,0,1-5.39-7.75C731.88,178.73,731.63,177.91,732.53,177.17Z" style="fill:#fca8ac"/><path d="M654.05,102.66c-.06-.29-.23-.79-.15-.84.6-.3,1.22-.57,1.85-.81-.11-.27-.43-.81-.34-.89,2-1.79,3.43-4.27,6.31-5.67-.09.87.07,1.59-.22,1.91-2,2.29-3.88,4.83-6.63,6.39Z" style="fill:#fd9ea3"/><path d="M650.9,191.92c-1.84.09-2.63-.61-2.9-2.24-.29-1.83-.92-3.59.44-5.29.27-.34.2-.95.64-1.5C649.73,185.88,650.28,188.86,650.9,191.92Z" style="fill:#fdaaad"/><path d="M873,209.29c-1.69-.13-2.08-.8-1.65-1.9,1-2.43,1.39-5.2,4.57-6.38C874.94,203.84,874,206.56,873,209.29Z" style="fill:#fca8ac"/><path d="M703,216.59l.69-2.76c1.79,1.64,3.57,3.29,5.42,5l-1.39,2Z" style="fill:#feabae"/><path d="M659.78,108.78h-1.09c-.72-1.64.91-.78,1-.88a9.24,9.24,0,0,1,1-2.7c1.43-1.63,3-3.1,4.56-4.64h.64a19,19,0,0,1-4.23,6.65A21.71,21.71,0,0,1,659.78,108.78Z" style="fill:#fda4a8"/><path d="M664,90.49a2.69,2.69,0,0,0,2.8-.54c1.07-.82,2.22-1.52,3.35-2.25.11-.07.3,0,.48,0,.12,1.41-1.45,1.68-1.78,2.45-.67,1.5-2,2-3,2.93a3.82,3.82,0,0,1-1.48.55c-1-1.12-.5-2.15-.33-3.17Z" style="fill:#fd8e93"/><path d="M651.22,100.36a3.14,3.14,0,0,1,1.44-2.75c2.09-1.32,3.55-3.7,6.55-4.07C656.89,96.81,653.12,100,651.22,100.36Z" style="fill:#fda4a8"/><path d="M700.9,227.11l.52-2.94,5.09,4.28c-.26.59-.53,1.17-.92,2C704,229.3,702.43,228.2,700.9,227.11Z" style="fill:#feacaf"/><path d="M893.73,95c2.1-.35,3,.48,3.54,1.69.68,1.55,2.56,2.72,1.68,5.11C896.38,100.06,895.64,97.3,893.73,95Z" style="fill:#fca8ac"/><path d="M814.48,87.73c-2.69-1.08-5.4-2.14-8.06-3.29-.32-.14-.4-.83-.6-1.26l.4-.37,2.51.92a21.24,21.24,0,0,1,3,1.13,36.06,36.06,0,0,1,3.14,2.2C814.73,87.3,814.61,87.52,814.48,87.73Z" style="fill:#fd9ea3"/><path d="M701.93,222c.26-.84.53-1.67.79-2.5a20.83,20.83,0,0,1,3.22,2.71c.55.67.53,1.79.77,2.71l-.53.35Z" style="fill:#feabae"/><path d="M674.32,97.49c.23,2.55-2.33,5.47-5.15,6.11,0-.48-.28-1.11-.07-1.37A26.72,26.72,0,0,1,674.32,97.49Z" style="fill:#feabaf"/><path d="M636,109.24c.35-1.61.7-3.22,1.06-4.82.14-.24.28-.48.41-.72h0c1-.52,1.66-1.94,3.18-1.42C640.21,103.9,637.88,107.34,636,109.24Z" style="fill:#fca8ac"/><path d="M763,94c-1.76,0-3.52-.06-5.28-.06-1.09,0-1.58-.43-1.15-1.84,2.27.1,4.64-.55,6.93.6h0c-.07.26-.15.52-.22.78Z" style="fill:#feb0b3"/><path d="M762.37,133.16l-1.43-2.53,5.54.46c-.28,1-.46,1.71-.69,2.56Z" style="fill:#feaeb1"/><path d="M777.11,111.54c3.13,1.66,7,1.74,9.51,4.76a5.31,5.31,0,0,1-.88-.19c-2.73-1.08-5.45-2.18-8.19-3.26C776.91,112.6,776.46,112.35,777.11,111.54Z" style="fill:#fd8e93"/><path d="M667.43,146.38c-.32,2.13-.55,4.28-1,6.39-.61,3.08-1.36,6.13-2,9.2a61.11,61.11,0,0,1,2.54-15A2.05,2.05,0,0,1,667.43,146.38Z" style="fill:#ee7f84"/><path d="M864.63,204.84c.36.61,1,1.12.53,2-.55,1.12-1,2.29-1.51,3.48-1.59-.33-2-1.11-1.41-2.39a12.8,12.8,0,0,1,1-2.31c.26-.39.92-.51,1.41-.75Z" style="fill:#fdaaad"/><path d="M776.37,111c-2.92,1.67-5.11-.25-7.49-.48.91-.58,1.64-2,2.86-.55a3.36,3.36,0,0,1,2.81,0A14.18,14.18,0,0,1,776.37,111Z" style="fill:#fd989d"/><path d="M783.81,85.54l5.38,1.28c-.15.53-.27,1-.45,1.62-1.61-.44-3.14-.79-4.62-1.32C783.89,87,783.92,86.19,783.81,85.54Z" style="fill:#fd989d"/><path d="M672.67,90.55c-.92,3.06-1.83,3.72-6.37,4.36.89-.81,1.42-1.72,2-1.76,1.79-.12,2.58-1.45,3.66-2.47C672.1,90.55,672.41,90.59,672.67,90.55Z" style="fill:#fd9ea3"/><path d="M736.05,89,735,87.46c2.29.26,4.66-.76,7.47.48A17.48,17.48,0,0,1,736.05,89Z" style="fill:#fd989d"/><path d="M673.39,117.09c-.14.79-.29,1.57-.43,2.36l-3.57,2c.56-2.45,2-3.56,3-5.15Z" style="fill:#fda4a8"/><path d="M642.9,185.34c3.09.18,2.49,2.46,3,4.18l-2.68-1.28C643.13,187.35,643,186.38,642.9,185.34Z" style="fill:#fca8ac"/><path d="M804.06,156.21c-.31,1.35-.61,2.7-.92,4l-1.65-6.48.35-.15Z" style="fill:#fd989d"/><path d="M791.5,100.29c2-1.19,3.1-1.21,4.07-.29.23.22.43.83.3,1s-.8.76-1.09.67A32.49,32.49,0,0,1,791.5,100.29Z" style="fill:#fca8ac"/><path d="M777.38,89.15c1.56-1.87,3.1-.57,4.46-1.4.26.88.42,1.42.68,2.28Z" style="fill:#fd989d"/><path d="M700,231.83l.49-2.58,3.08,2.31C702.28,232.47,701.19,232.92,700,231.83Z" style="fill:#fdaaad"/><path d="M758.59,95.73c3.58-.32,3.58-.32,3.68,1.57C759.5,97.87,759.5,97.87,758.59,95.73Z" style="fill:#fda4a8"/><path d="M796,106.93l-3.62-1.81c.17-.65.33-1.23.47-1.74C794.08,102.94,795.21,104.15,796,106.93Z" style="fill:#fd989d"/><path d="M706.56,212.73c1.48.29,3.07.4,3.77,2.07a13.67,13.67,0,0,1,.42,2,12.42,12.42,0,0,1-4.33-3.75C706.57,213,706.61,212.87,706.56,212.73Z" style="fill:#fda4a8"/><path d="M813.91,106.24c-.18.72-.35,1.44-.53,2.16l-2-1.5a2.07,2.07,0,0,1-1-2.74,2.65,2.65,0,0,1,.24-.4C811.39,105.05,812,106.62,813.91,106.24Z" style="fill:#fd9ea3"/><path d="M799,97.73a2.78,2.78,0,0,1-3.94-.07L795,97.6C796.57,96,796.6,96,799,97.73Z" style="fill:#fda4a8"/><path d="M860.43,201.43c1.92,1.38,1.9,1.78.56,4.07C859.55,203.29,859.55,203.29,860.43,201.43Z" style="fill:#fd9ea3"/><path d="M793,153.49l-3.07-1.38c.48-.9.85-1.6,1.31-2.45.89,1.24,1.73,2.35,1.73,3.87Z" style="fill:#fd9ea3"/><path d="M774.66,128.63c-2.93,1.16-4,.82-4.53-1.43Z" style="fill:#fd989d"/><path d="M865,212.08c.32-.79.61-1.57,1-2.32a4.63,4.63,0,0,1,.68-.9c1,1.47.08,2.86.51,4.56Z" style="fill:#fd989d"/><path d="M678,92.16v.64a19.89,19.89,0,0,1-2.37,1.36c-.35.15-.87-.13-1.32-.22.12-.44.11-1,.38-1.31C675.63,91.49,676.91,92.39,678,92.16Z" style="fill:#fd8e93"/><path d="M864.67,204.86c-1.24-1.53,0-2.78.53-4.61.34,1.31.51,2.19.81,3,.51,1.43-.33,1.57-1.38,1.56Z" style="fill:#fd989d"/><path d="M734.48,86.41l-.54-1.4c1.33-.33,2.7-.93,4.15.59Z" style="fill:#fdaaad"/><path d="M862.07,196.91c1.8,1.88,1.8,1.88.53,4C861.52,198.35,861.52,198.35,862.07,196.91Z" style="fill:#fd989d"/><path d="M769.65,239.47c.44.78.87,1.56,1.31,2.33-2,.11-2,.11-2.83-1.62Z" style="fill:#fd989d"/><path d="M655.65,180c1.9.1,1.9.1,2.43,1.42C655.91,182.08,655.91,182.08,655.65,180Z" style="fill:#fd989d"/><path d="M761.27,89.91A7.37,7.37,0,0,1,766.52,91l-5.29-.43Z" style="fill:#ee7f84"/><path d="M817.73,87.25c-.11.62-.21,1.23-.32,1.85-1.18-.75-1.18-.75-1.85-2.61Z" style="fill:#fd8e93"/><path d="M783.31,88.36l4.31,1.19C783.82,89.9,783.82,89.9,783.31,88.36Z" style="fill:#fd878d"/><path d="M868.52,213.44l2.35-1.06.42.3c-.21.51-.29,1.22-.68,1.51C870,214.73,869.21,214.54,868.52,213.44Z" style="fill:#fd989d"/><path d="M767.56,235.73l1.19,2.14c-1.34.21-2.48.08-2.8-1.73Z" style="fill:#fd9ea3"/><path d="M878.3,161.81c-.14-.75-.23-1.28-.36-2h2C880.23,161.21,879.25,161.31,878.3,161.81Z" style="fill:#fd9ea3"/><path d="M654.05,102.66l.82.09c-.75.76-.51,2.31-2.19,2.59,0-.51-.15-1,0-1.32A8.39,8.39,0,0,1,654.05,102.66Z" style="fill:#fd989d"/><path d="M872.73,214.8c.29-1.16.44-2,1.42-1.68.33.1.45.89.66,1.36Z" style="fill:#fd989d"/><path d="M651,181.87c1.92.83,1.92.83.74,3.21C651.5,184,651.32,183.15,651,181.87Z" style="fill:#fd989d"/><path d="M664,90.49h0l-1.66-.1a2.86,2.86,0,0,1,2.93-1.45h.06Z" style="fill:#fd878d"/><path d="M806.73,103.14c1.15,0,2.19.18,2.32,1.94a3.84,3.84,0,0,1-2.52-1.72A2.09,2.09,0,0,1,806.73,103.14Z" style="fill:#fd878d"/><path d="M629.94,180.3c-.17-.54-.33-1.08-.5-1.63.29-.06.81-.24.83-.18a12.43,12.43,0,0,1,.58,1.58Z" style="fill:#fd8e93"/><path d="M765.05,231.65c.42.73.84,1.45,1.25,2.18C764.45,233.73,764.23,233.35,765.05,231.65Z" style="fill:#fd9ea3"/><path d="M871.31,228.81l-1,2c-.76-1.36-.67-2.2.91-2.12Z" style="fill:#fd878d"/><path d="M793.52,112.66c-1.35.59-1.35.59-1.83-1Z" style="fill:#fd878d"/><path d="M785.86,151.13c.83.23,1.1.81.93,2.21l-1.46-1.79Z" style="fill:#fd878d"/><path d="M676.51,90.45l1-1.53.55.31-.84,1.62Z" style="fill:#fd878d"/><path d="M665.3,137.31l.87-2C666.73,136.4,666.42,137,665.3,137.31Z" style="fill:#fc5f67"/><path d="M880.5,192.56c1.16,1.33.55,1.7-.53,2.18Z" style="fill:#ee7f84"/><path d="M669.56,98.14l-1.94,1c-.09-.32-.2-.51-.15-.58C667.87,98,668.22,97.3,669.56,98.14Z" style="fill:#fd8e93"/><path d="M858.52,200.11l-.62,1.25-.76-.46.82-1.12Z" style="fill:#fd878d"/><path d="M677,100.13c-.16.47-.32.94-.47,1.41h-1.12l-.15-.37Z" style="fill:#fc5f67"/><path d="M763.47,92.73h0l2.65-.22v.57l-1.56.44Z" style="fill:#fca8ac"/><path d="M806.54,103.36c-.53-.28-1.46-.13-1.31-1.16a.46.46,0,0,1,.32-.33c.9-.07,1.1.55,1.19,1.27A2.09,2.09,0,0,0,806.54,103.36Z" style="fill:#fd878d"/><path d="M764.42,96.11h2.31c0,.25.07.46,0,.53C766,97.32,765.27,97.41,764.42,96.11Z" style="fill:#fca8ac"/><path d="M633.93,119.44l.64.2c-.36.71-.71,1.42-1.07,2.12C633.64,121,633.79,120.21,633.93,119.44Z" style="fill:#ee7f84"/><path d="M815.73,97.78c-.11.36-.22.71-.32,1.06l-1-.92Z" style="fill:#fd8e93"/><path d="M703.55,211.48c.19-.35.39-.7.59-1l.91,1h0Z" style="fill:#fc5f67"/><path d="M814.85,101.66c0,.48-.09,1-.13,1.45l-1-1.38.26-.26Z" style="fill:#ee7f84"/><path d="M667.93,144.24l-.51,2.17Z" style="fill:#fc5f67"/><path d="M706.42,213l-.92-1h.06l1,.79A.17.17,0,0,1,706.42,213Z" style="fill:#fc5f67"/><path d="M869.65,231.64l-.45.48-.36-.37a4.93,4.93,0,0,1,.49-.42Z" style="fill:#fd878d"/><path d="M763.47,92.73l1.07.74-1,.6c-.11-.19-.21-.38-.32-.56A5.49,5.49,0,0,0,763.47,92.73Z" style="fill:#fc434c"/><path d="M767,128.88h-.19a.15.15,0,0,0-.05-.11.54.54,0,0,1,.18,0Z" style="fill:#feaeb1"/><path d="M646.54,101.14l-.48,1h0l.46-1Z" style="fill:#fdaaad"/><path d="M665.37,139.29l-.55-.07.24-.6Z" style="fill:#fc5f67"/><path d="M739.08,188.05l.57,1.2Z" style="fill:#fca8ac"/><path d="M813.73,101.73l-.25-.32.5.07Z" style="fill:#ee7f84"/><path d="M792.94,153.53l.21.09-.18-.13Z" style="fill:#fd9ea3"/><path d="M666.37,99.61c-.11.21-.23.42-.35.63l-.17-.13.55-.46Z" style="fill:#fd8e93"/><path d="M665.93,100.64h-.64c.19-.16.38-.32.56-.49l.17.13A.37.37,0,0,1,665.93,100.64Z" style="fill:#fd8e93"/><path d="M666.4,99.65l.26-.34-.29.3Z" style="fill:#fd8e93"/><path d="M705.05,211.44l.51.5h-.06l-.5-.51Z" style="fill:#fc5f67"/><path d="M864.57,99.11a1.1,1.1,0,0,1,.46.19l-.45.26A.48.48,0,0,1,864.57,99.11Z" style="fill:#feabae"/><path d="M766.1,93.05v-.57C766.11,92.67,766.1,92.86,766.1,93.05Z" style="fill:#fc434c"/><path d="M665.34,88.92l.23-.3-.17.35Z" style="fill:#fd878d"/><path d="M871.2,228.73l.26-.3-.15.42Z" style="fill:#fd878d"/><path d="M763.25,93.53c.11.18.21.37.32.56L763,94Z" style="fill:#fd8e93"/><polygon points="646.56 101.16 646.64 101.09 646.54 101.14 646.56 101.16" style="fill:#fdaaad"/><path d="M637.45,103.73c-.13.24-.27.48-.41.72C637.18,104.18,637.32,103.94,637.45,103.73Z" style="fill:#fb1924"/><path d="M857.5,138.22l-.22.86-.55-.35Z" style="fill:#fb1924"/><path d="M770.06,146.39l.53.56Z" style="fill:#fb1924"/><path d="M742.73,194.18l-.6-.5Z" style="fill:#fb1924"/><path d="M798,185.52c.17-.54.35-1.09.53-1.63C798.33,184.43,798.15,185,798,185.52Z" style="fill:#fb1924"/></g></g></g></svg>