<?xml version="1.0" encoding="utf-8"?>
<svg width="300px" height="109px" viewBox="0 0 300 109" version="1.1" xmlns:xlink="http://www.w3.org/1999/xlink" xmlns="http://www.w3.org/2000/svg">
  <desc>Created with Lunacy</desc>
  <defs>
    <linearGradient x1="-0.104517154" y1="0.312160373" x2="9.582277" y2="3.28561926" id="gradient_1">
      <stop offset="0" stop-color="#C87C1F" />
      <stop offset="1" stop-color="#FBC841" />
    </linearGradient>
    <linearGradient x1="-1.81110394" y1="0.04574903" x2="12.3383665" y2="3.08177185" id="gradient_2">
      <stop offset="0" stop-color="#C87C1F" />
      <stop offset="1" stop-color="#FBC841" />
    </linearGradient>
    <linearGradient x1="-1.89758325" y1="-0.269410253" x2="7.303308" y2="2.68369126" id="gradient_3">
      <stop offset="0" stop-color="#C87C1F" />
      <stop offset="1" stop-color="#FBC841" />
    </linearGradient>
    <linearGradient x1="-4.351838" y1="-0.640320539" x2="8.971232" y2="2.366434" id="gradient_4">
      <stop offset="0" stop-color="#C87C1F" />
      <stop offset="1" stop-color="#FBC841" />
    </linearGradient>
    <linearGradient x1="-6.08703756" y1="-0.847119451" x2="8.329066" y2="2.18890333" id="gradient_5">
      <stop offset="0" stop-color="#C87C1F" />
      <stop offset="1" stop-color="#FBC841" />
    </linearGradient>
    <path d="M0 0L41.4454 0L41.4454 56.418L0 56.418L0 0Z" transform="translate(0 1.688)" id="path_1" />
    <path d="M0 0L31.5282 0L31.5282 41.4938L0 41.4938L0 0Z" transform="translate(0.8114771 0.404)" id="path_2" />
    <path d="M3.814 4.01C1.352 6.63 0 10.04 0 13.618L0 13.618C0 17.234 1.352 20.646 3.814 23.226L3.814 23.226C6.3 25.836 9.596 27.272 13.09 27.272L13.09 27.272C15.424 27.272 18.048 26.398 20.294 24.872L20.294 24.872C22.646 23.272 24.398 21.116 25.232 18.798L25.232 18.798C25.598 17.864 25.81 16.986 25.884 16.112L25.884 16.112L25.904 15.866L25.656 15.866L13.318 15.866L13.088 15.866L13.088 16.094L13.088 16.694L13.088 16.92L13.318 16.92L24.632 16.92C24.126 19.396 22.652 21.706 20.46 23.454L20.46 23.454C18.288 25.188 15.602 26.18 13.09 26.18L13.09 26.18C9.87 26.18 6.838 24.86 4.556 22.462L4.556 22.462C2.298 20.088 1.054 16.948 1.054 13.618L1.054 13.618C1.054 10.326 2.298 7.186 4.556 4.77L4.556 4.77C6.876 2.376 9.906 1.056 13.09 1.056L13.09 1.056C15.46 1.056 17.736 1.73 19.676 3.01L19.676 3.01C21.664 4.32 23.166 6.188 24.018 8.41L24.018 8.41L24.074 8.556L24.23 8.556L24.868 8.556L25.188 8.556L25.084 8.256C24.234 5.796 22.614 3.71 20.4 2.22L20.4 2.22C18.246 0.768 15.718 0 13.09 0L13.09 0C9.574 0 6.28 1.424 3.814 4.01" transform="translate(0.68 0.69)" id="path_3" />
    <path d="M0.528 0L0.226 0L0 0L0 0.226L0 0.526L0 26.482L0 26.71L0.226 26.71L0.788 26.71L1.014 26.71L1.014 26.482L1.014 1.054L9.302 1.054C11.496 1.054 13.336 1.794 14.62 3.196L14.62 3.196C15.762 4.438 16.39 6.116 16.39 7.916L16.39 7.916C16.39 11.22 14.172 14.778 9.302 14.778L9.302 14.778L4.202 14.778L3.974 14.778L3.974 15.004L3.974 15.566L3.974 15.668L4.05 15.736L16.128 26.65L16.19 26.71L16.278 26.71L17.142 26.71L17.734 26.71L17.294 26.312L5.656 15.794L9.302 15.794C11.802 15.794 13.902 14.94 15.378 13.324L15.378 13.324C16.688 11.89 17.406 9.962 17.406 7.896L17.406 7.896C17.406 5.83 16.688 3.904 15.378 2.47L15.378 2.47C13.902 0.854 11.802 0 9.302 0L9.302 0L0.528 0Z" transform="translate(0.374 0.916)" id="path_4" />
    <path d="M4.002 4.046C5.234 2.774 6.688 1.776 8.324 1.08C10 0.362 11.78 0 13.618 0C17.274 0 20.7 1.436 23.27 4.044C24.516 5.31 25.496 6.774 26.186 8.4C26.908 10.1 27.272 11.894 27.272 13.73C27.272 15.568 26.908 17.36 26.186 19.062C25.496 20.686 24.516 22.152 23.268 23.416C20.7 26.024 17.274 27.46 13.618 27.46C11.78 27.46 10 27.098 8.324 26.382C6.688 25.684 5.234 24.686 4.004 23.416C2.758 22.152 1.778 20.686 1.086 19.062C0.366 17.36 0 15.568 0 13.73C0 11.894 0.366 10.1 1.086 8.4C1.778 6.774 2.758 5.31 4.002 4.046ZM1.054 13.73C1.054 17.066 2.364 20.232 4.74 22.646C7.126 25.072 10.278 26.406 13.618 26.406C15.312 26.406 16.96 26.066 18.516 25.398C20.024 24.75 21.374 23.824 22.532 22.646C24.884 20.256 26.18 17.088 26.18 13.73C26.18 10.37 24.884 7.202 22.532 4.812C21.374 3.636 20.024 2.712 18.516 2.062C16.96 1.394 15.312 1.054 13.618 1.054C10.278 1.054 7.126 2.39 4.74 4.812C2.364 7.228 1.054 10.394 1.054 13.73Z" transform="translate(0.914 0.54)" id="path_5" />
    <path d="M18.608 0L18.006 0L17.78 0L17.78 0.226L17.78 19.316C17.78 21.87 16.316 23.412 15.088 24.26L15.088 24.26C13.562 25.312 11.494 25.916 9.418 25.916L9.418 25.916C7.342 25.916 5.276 25.314 3.746 24.264L3.746 24.264C2.518 23.42 1.056 21.886 1.056 19.354L1.056 19.354L1.056 0.226L1.056 0L0.828 0L0.228 0L0 0L0 0.226L0 19.316C0 22.252 1.664 24.052 3.058 25.044L3.058 25.044C4.782 26.268 7.1 26.97 9.418 26.97L9.418 26.97C11.72 26.97 14.034 26.27 15.762 25.05L15.762 25.05C17.164 24.058 18.834 22.266 18.834 19.354L18.834 19.354L18.834 0.226L18.834 0L18.608 0Z" transform="translate(0.182 0.954)" id="path_6" />
    <path d="M0.226 0L9.302 0C11.804 0 13.906 0.904 15.382 2.622C16.688 4.14 17.406 6.178 17.406 8.366C17.406 10.552 16.688 12.592 15.382 14.11C13.906 15.824 11.804 16.732 9.302 16.732L1.054 16.732L1.054 26.71L0 26.71L0 0L0.226 0ZM9.302 1.054L1.054 1.054L1.054 15.716L9.302 15.716C12.716 15.716 16.39 13.42 16.39 8.384C16.39 6.46 15.76 4.666 14.616 3.336C13.33 1.842 11.494 1.054 9.302 1.054Z" transform="translate(1.914 0.916)" id="path_7" />
    <clipPath id="mask_1">
      <use xlink:href="#path_1" />
    </clipPath>
    <clipPath id="mask_2">
      <use xlink:href="#path_2" />
    </clipPath>
    <clipPath id="mask_3">
      <use xlink:href="#path_3" />
    </clipPath>
    <clipPath id="mask_4">
      <use xlink:href="#path_4" />
    </clipPath>
    <clipPath id="mask_5">
      <use xlink:href="#path_5" />
    </clipPath>
    <clipPath id="mask_6">
      <use xlink:href="#path_6" />
    </clipPath>
    <clipPath id="mask_7">
      <use xlink:href="#path_7" />
    </clipPath>
  </defs>
  <g id="FlashGroup">
    <g id="Group-15" transform="translate(0 0.596)">
      <g id="Group-3">
        <path d="M0 0L41.4454 0L41.4454 56.418L0 56.418L0 0Z" transform="translate(0 1.688)" id="Clip-2" fill="none" stroke="none" />
        <g clip-path="url(#mask_1)">
          <path d="M20.608 27.322L5.248 3.86C5.248 3.86 3.55 1.004 0 1.004L0 0L41.446 0L41.446 15.05L40.364 15.05C38.744 4.478 30.794 1.082 24.234 1.082L12.658 1.082L27.014 23.232C28.094 21.532 28.788 19.064 28.788 16.904L30.024 16.904L30.024 38.976L28.788 38.976C28.788 33.188 24.774 28.558 18.216 28.558L14.818 28.558L14.818 49.78C14.818 54.798 18.91 55.414 22.382 55.414L22.382 56.418L0 56.418L0 55.414C2.778 55.414 6.716 54.334 6.716 49.704L6.716 27.322L20.608 27.322Z" transform="translate(-0.0006 1.688)" id="Fill-1" fill="#FFFFFF" stroke="none" />
        </g>
      </g>
      <path d="M43.684 39.67L43.684 56.418L0 56.418L0 55.338C3.088 55.338 6.792 55.26 6.792 49.858L6.792 6.638C6.792 1.312 2.548 1.004 0 1.004L0 0L20.684 0L20.684 1.082C17.442 1.082 15.128 1.544 15.128 6.87L15.128 49.934C15.128 54.024 17.982 55.414 20.762 55.414C26.55 55.414 38.126 55.646 42.062 39.67L43.684 39.67Z" transform="translate(57.6538 1.6886)" id="Fill-4" fill="#FFFFFF" stroke="none" />
      <path d="M25.084 10.11L12.504 42.37C8.182 53.1 15.59 55.49 19.218 55.49L19.218 56.494L0 56.494L0 55.49C5.944 55.49 8.258 49.316 10.034 45.072C10.574 43.76 24.544 8.798 24.158 8.104C22.768 5.402 20.53 5.17 20.53 5.17C26.32 3.936 29.56 0 29.56 0C29.56 0 48.392 48.082 48.546 48.39C51.248 54.566 51.942 55.49 54.952 55.49L54.952 56.494L35.426 56.494L35.426 55.49C39.516 55.49 41.446 52.712 40.056 48.546L25.084 10.11Z" transform="translate(117.545 1.6118)" id="Fill-6" fill="#FFFFFF" stroke="none" />
      <path d="M5.942 6.636L5.942 49.78C5.942 54.566 2.314 55.414 0 55.414L0 56.416L19.68 56.416L19.68 55.414C16.67 55.414 13.814 54.72 13.814 49.858L13.814 36.658C13.814 34.576 14.586 32.954 15.744 32.106C18.06 30.486 21.84 29.714 24.696 29.404L24.696 28.864C21.764 28.478 17.982 27.63 15.744 26.008C14.586 25.16 13.814 23.694 13.814 21.532L13.814 6.56C13.814 1.696 16.824 1.002 19.834 1.002L19.834 0L0.154 0L0.154 1.002C2.47 1.002 5.942 1.852 5.942 6.636ZM47.464 6.714C47.464 1.93 51.092 1.002 53.484 1.002L53.484 0L33.65 0L33.65 1.002C36.658 1.002 39.592 1.696 39.592 6.636L39.592 49.858C39.592 54.72 36.658 55.414 33.65 55.414L33.65 56.416L53.484 56.416L53.484 55.414C51.092 55.414 47.464 54.566 47.464 49.78L47.464 6.714Z" transform="translate(246.516 1.689)" id="Fill-8" fill="#FFFFFF" fill-rule="evenodd" stroke="none" />
      <g id="Group-12" transform="translate(198 0)">
        <path d="M0 0L31.5282 0L31.5282 41.4938L0 41.4938L0 0Z" transform="translate(0.8114771 0.404)" id="Clip-11" fill="none" stroke="none" />
        <g clip-path="url(#mask_2)">
          <path d="M28.7929 30.4423C28.1009 29.3943 27.2909 28.3823 26.3229 27.4483C22.9269 24.2063 18.9149 22.1243 14.8229 19.8843C11.2729 17.9563 7.72292 15.4083 6.56492 11.3963C5.56292 8.0763 6.41092 3.5243 9.49892 1.8243C14.3609 -0.721699 26.9409 2.5203 27.7909 15.4083L28.7929 15.4083L28.7929 2.8563C25.7449 1.5983 16.1749 -1.7977 7.79892 1.2083C3.70892 2.6743 0.160923 6.6103 0.00492285 10.8563C-0.149077 16.4883 3.32492 21.8923 8.33892 24.6703C13.5889 27.6803 20.0729 30.6903 23.4669 35.7843C24.2409 36.9423 24.7029 38.3303 24.9329 39.7963L28.7929 40.8203L31.3389 41.4943C31.9349 38.0403 31.1329 33.9923 28.7929 30.4423" transform="translate(0.8114771 0.4034992)" id="Fill-10" fill="#FFFFFF" stroke="none" />
        </g>
      </g>
      <path d="M26.3192 16.516C22.9232 13.196 18.9092 11.112 14.8192 8.874C11.7332 7.178 8.64523 5.016 7.17922 1.85C5.32723 1.432 3.47523 0.954 1.62123 0.444C1.08123 0.294 0.541226 0.156 0.00122572 0C-0.0307743 2.324 0.565226 4.604 1.62123 6.684C3.09323 9.576 5.46323 12.076 8.33722 13.736C13.6612 16.67 20.0692 19.758 23.4632 24.772C26.5512 29.404 24.8532 37.354 19.5272 39.13C14.4352 40.826 3.08723 37.046 2.54723 25.082L1.62123 25.082L1.62123 37.644C5.31923 39.082 17.7592 43.212 26.8592 37.816C32.8032 34.266 33.5732 23.384 26.3192 16.516" transform="translate(188.7052 18.4372)" id="Fill-13" fill="#FFFFFF" stroke="none" />
    </g>
    <g id="Group-18" transform="translate(84 80.596)">
      <path d="M3.814 4.01C1.352 6.63 0 10.04 0 13.618L0 13.618C0 17.234 1.352 20.646 3.814 23.226L3.814 23.226C6.3 25.836 9.596 27.272 13.09 27.272L13.09 27.272C15.424 27.272 18.048 26.398 20.294 24.872L20.294 24.872C22.646 23.272 24.398 21.116 25.232 18.798L25.232 18.798C25.598 17.864 25.81 16.986 25.884 16.112L25.884 16.112L25.904 15.866L25.656 15.866L13.318 15.866L13.088 15.866L13.088 16.094L13.088 16.694L13.088 16.92L13.318 16.92L24.632 16.92C24.126 19.396 22.652 21.706 20.46 23.454L20.46 23.454C18.288 25.188 15.602 26.18 13.09 26.18L13.09 26.18C9.87 26.18 6.838 24.86 4.556 22.462L4.556 22.462C2.298 20.088 1.054 16.948 1.054 13.618L1.054 13.618C1.054 10.326 2.298 7.186 4.556 4.77L4.556 4.77C6.876 2.376 9.906 1.056 13.09 1.056L13.09 1.056C15.46 1.056 17.736 1.73 19.676 3.01L19.676 3.01C21.664 4.32 23.166 6.188 24.018 8.41L24.018 8.41L24.074 8.556L24.23 8.556L24.868 8.556L25.188 8.556L25.084 8.256C24.234 5.796 22.614 3.71 20.4 2.22L20.4 2.22C18.246 0.768 15.718 0 13.09 0L13.09 0C9.574 0 6.28 1.424 3.814 4.01" transform="translate(0.68 0.69)" id="Clip-17" fill="none" stroke="none" />
      <g clip-path="url(#mask_3)">
        <path d="M3.814 4.01C1.352 6.63 0 10.04 0 13.618L0 13.618C0 17.234 1.352 20.646 3.814 23.226L3.814 23.226C6.3 25.836 9.596 27.272 13.09 27.272L13.09 27.272C15.424 27.272 18.048 26.398 20.294 24.872L20.294 24.872C22.646 23.272 24.398 21.116 25.232 18.798L25.232 18.798C25.598 17.864 25.81 16.986 25.884 16.112L25.884 16.112L25.904 15.866L25.656 15.866L13.318 15.866L13.088 15.866L13.088 16.094L13.088 16.694L13.088 16.92L13.318 16.92L24.632 16.92C24.126 19.396 22.652 21.706 20.46 23.454L20.46 23.454C18.288 25.188 15.602 26.18 13.09 26.18L13.09 26.18C9.87 26.18 6.838 24.86 4.556 22.462L4.556 22.462C2.298 20.088 1.054 16.948 1.054 13.618L1.054 13.618C1.054 10.326 2.298 7.186 4.556 4.77L4.556 4.77C6.876 2.376 9.906 1.056 13.09 1.056L13.09 1.056C15.46 1.056 17.736 1.73 19.676 3.01L19.676 3.01C21.664 4.32 23.166 6.188 24.018 8.41L24.018 8.41L24.074 8.556L24.23 8.556L24.868 8.556L25.188 8.556L25.084 8.256C24.234 5.796 22.614 3.71 20.4 2.22L20.4 2.22C18.246 0.768 15.718 0 13.09 0L13.09 0C9.574 0 6.28 1.424 3.814 4.01" transform="translate(0.68 0.69)" id="Fill-16" fill="url(#gradient_1)" stroke="none" />
      </g>
    </g>
    <g id="Group-21" transform="translate(116 80.596)">
      <path d="M0.528 0L0.226 0L0 0L0 0.226L0 0.526L0 26.482L0 26.71L0.226 26.71L0.788 26.71L1.014 26.71L1.014 26.482L1.014 1.054L9.302 1.054C11.496 1.054 13.336 1.794 14.62 3.196L14.62 3.196C15.762 4.438 16.39 6.116 16.39 7.916L16.39 7.916C16.39 11.22 14.172 14.778 9.302 14.778L9.302 14.778L4.202 14.778L3.974 14.778L3.974 15.004L3.974 15.566L3.974 15.668L4.05 15.736L16.128 26.65L16.19 26.71L16.278 26.71L17.142 26.71L17.734 26.71L17.294 26.312L5.656 15.794L9.302 15.794C11.802 15.794 13.902 14.94 15.378 13.324L15.378 13.324C16.688 11.89 17.406 9.962 17.406 7.896L17.406 7.896C17.406 5.83 16.688 3.904 15.378 2.47L15.378 2.47C13.902 0.854 11.802 0 9.302 0L9.302 0L0.528 0Z" transform="translate(0.374 0.916)" id="Clip-20" fill="none" stroke="none" />
      <g clip-path="url(#mask_4)">
        <path d="M0.528 0L0.226 0L0 0L0 0.226L0 0.526L0 26.482L0 26.71L0.226 26.71L0.788 26.71L1.014 26.71L1.014 26.482L1.014 1.054L9.302 1.054C11.496 1.054 13.336 1.794 14.62 3.196L14.62 3.196C15.762 4.438 16.39 6.116 16.39 7.916L16.39 7.916C16.39 11.22 14.172 14.778 9.302 14.778L9.302 14.778L4.202 14.778L3.974 14.778L3.974 15.004L3.974 15.566L3.974 15.668L4.05 15.736L16.128 26.65L16.19 26.71L16.278 26.71L17.142 26.71L17.734 26.71L17.294 26.312L5.656 15.794L9.302 15.794C11.802 15.794 13.902 14.94 15.378 13.324L15.378 13.324C16.688 11.89 17.406 9.962 17.406 7.896L17.406 7.896C17.406 5.83 16.688 3.904 15.378 2.47L15.378 2.47C13.902 0.854 11.802 0 9.302 0L9.302 0L0.528 0Z" transform="translate(0.374 0.916)" id="Fill-19" fill="url(#gradient_2)" stroke="none" />
      </g>
    </g>
    <g id="Group-24" transform="translate(138 80.596)">
      <path d="M4.002 4.046C5.234 2.774 6.688 1.776 8.324 1.08C10 0.362 11.78 0 13.618 0C17.274 0 20.7 1.436 23.27 4.044C24.516 5.31 25.496 6.774 26.186 8.4C26.908 10.1 27.272 11.894 27.272 13.73C27.272 15.568 26.908 17.36 26.186 19.062C25.496 20.686 24.516 22.152 23.268 23.416C20.7 26.024 17.274 27.46 13.618 27.46C11.78 27.46 10 27.098 8.324 26.382C6.688 25.684 5.234 24.686 4.004 23.416C2.758 22.152 1.778 20.686 1.086 19.062C0.366 17.36 0 15.568 0 13.73C0 11.894 0.366 10.1 1.086 8.4C1.778 6.774 2.758 5.31 4.002 4.046ZM1.054 13.73C1.054 17.066 2.364 20.232 4.74 22.646C7.126 25.072 10.278 26.406 13.618 26.406C15.312 26.406 16.96 26.066 18.516 25.398C20.024 24.75 21.374 23.824 22.532 22.646C24.884 20.256 26.18 17.088 26.18 13.73C26.18 10.37 24.884 7.202 22.532 4.812C21.374 3.636 20.024 2.712 18.516 2.062C16.96 1.394 15.312 1.054 13.618 1.054C10.278 1.054 7.126 2.39 4.74 4.812C2.364 7.228 1.054 10.394 1.054 13.73Z" transform="translate(0.914 0.54)" id="Clip-23" fill="none" fill-rule="evenodd" stroke="none" />
      <g clip-path="url(#mask_5)">
        <path d="M4.002 4.046C5.234 2.774 6.688 1.776 8.324 1.08C10 0.362 11.78 0 13.618 0C17.274 0 20.7 1.436 23.27 4.044C24.516 5.31 25.496 6.774 26.186 8.4C26.908 10.1 27.272 11.894 27.272 13.73C27.272 15.568 26.908 17.36 26.186 19.062C25.496 20.686 24.516 22.152 23.268 23.416C20.7 26.024 17.274 27.46 13.618 27.46C11.78 27.46 10 27.098 8.324 26.382C6.688 25.684 5.234 24.686 4.004 23.416C2.758 22.152 1.778 20.686 1.086 19.062C0.366 17.36 0 15.568 0 13.73C0 11.894 0.366 10.1 1.086 8.4C1.778 6.774 2.758 5.31 4.002 4.046ZM1.054 13.73C1.054 17.066 2.364 20.232 4.74 22.646C7.126 25.072 10.278 26.406 13.618 26.406C15.312 26.406 16.96 26.066 18.516 25.398C20.024 24.75 21.374 23.824 22.532 22.646C24.884 20.256 26.18 17.088 26.18 13.73C26.18 10.37 24.884 7.202 22.532 4.812C21.374 3.636 20.024 2.712 18.516 2.062C16.96 1.394 15.312 1.054 13.618 1.054C10.278 1.054 7.126 2.39 4.74 4.812C2.364 7.228 1.054 10.394 1.054 13.73Z" transform="translate(0.914 0.54)" id="Fill-22" fill="url(#gradient_3)" fill-rule="evenodd" stroke="none" />
      </g>
    </g>
    <g id="Group-27" transform="translate(172 80.596)">
      <path d="M18.608 0L18.006 0L17.78 0L17.78 0.226L17.78 19.316C17.78 21.87 16.316 23.412 15.088 24.26L15.088 24.26C13.562 25.312 11.494 25.916 9.418 25.916L9.418 25.916C7.342 25.916 5.276 25.314 3.746 24.264L3.746 24.264C2.518 23.42 1.056 21.886 1.056 19.354L1.056 19.354L1.056 0.226L1.056 0L0.828 0L0.228 0L0 0L0 0.226L0 19.316C0 22.252 1.664 24.052 3.058 25.044L3.058 25.044C4.782 26.268 7.1 26.97 9.418 26.97L9.418 26.97C11.72 26.97 14.034 26.27 15.762 25.05L15.762 25.05C17.164 24.058 18.834 22.266 18.834 19.354L18.834 19.354L18.834 0.226L18.834 0L18.608 0Z" transform="translate(0.182 0.954)" id="Clip-26" fill="none" stroke="none" />
      <g clip-path="url(#mask_6)">
        <path d="M18.608 0L18.006 0L17.78 0L17.78 0.226L17.78 19.316C17.78 21.87 16.316 23.412 15.088 24.26L15.088 24.26C13.562 25.312 11.494 25.916 9.418 25.916L9.418 25.916C7.342 25.916 5.276 25.314 3.746 24.264L3.746 24.264C2.518 23.42 1.056 21.886 1.056 19.354L1.056 19.354L1.056 0.226L1.056 0L0.828 0L0.228 0L0 0L0 0.226L0 19.316C0 22.252 1.664 24.052 3.058 25.044L3.058 25.044C4.782 26.268 7.1 26.97 9.418 26.97L9.418 26.97C11.72 26.97 14.034 26.27 15.762 25.05L15.762 25.05C17.164 24.058 18.834 22.266 18.834 19.354L18.834 19.354L18.834 0.226L18.834 0L18.608 0Z" transform="translate(0.182 0.954)" id="Fill-25" fill="url(#gradient_4)" stroke="none" />
      </g>
    </g>
    <g id="Group-30" transform="translate(196 80.596)">
      <path d="M0.226 0L9.302 0C11.804 0 13.906 0.904 15.382 2.622C16.688 4.14 17.406 6.178 17.406 8.366C17.406 10.552 16.688 12.592 15.382 14.11C13.906 15.824 11.804 16.732 9.302 16.732L1.054 16.732L1.054 26.71L0 26.71L0 0L0.226 0ZM9.302 1.054L1.054 1.054L1.054 15.716L9.302 15.716C12.716 15.716 16.39 13.42 16.39 8.384C16.39 6.46 15.76 4.666 14.616 3.336C13.33 1.842 11.494 1.054 9.302 1.054Z" transform="translate(1.914 0.916)" id="Clip-29" fill="none" fill-rule="evenodd" stroke="none" />
      <g clip-path="url(#mask_7)">
        <path d="M0.226 0L9.302 0C11.804 0 13.906 0.904 15.382 2.622C16.688 4.14 17.406 6.178 17.406 8.366C17.406 10.552 16.688 12.592 15.382 14.11C13.906 15.824 11.804 16.732 9.302 16.732L1.054 16.732L1.054 26.71L0 26.71L0 0L0.226 0ZM9.302 1.054L1.054 1.054L1.054 15.716L9.302 15.716C12.716 15.716 16.39 13.42 16.39 8.384C16.39 6.46 15.76 4.666 14.616 3.336C13.33 1.842 11.494 1.054 9.302 1.054Z" transform="translate(1.914 0.916)" id="Fill-28" fill="url(#gradient_5)" fill-rule="evenodd" stroke="none" />
      </g>
    </g>
  </g>
</svg>