<svg xmlns="http://www.w3.org/2000/svg" xmlns:xlink="http://www.w3.org/1999/xlink" viewBox="0 0 150 150"><defs><clipPath id="clip-path"><rect x="23" y="56.45" width="14.48" height="19.71" style="fill:none"/></clipPath><clipPath id="clip-path-2"><rect x="92.47" y="56" width="11.02" height="14.5" style="fill:none"/></clipPath><clipPath id="clip-path-3"><path d="M53.92,85.45a4.88,4.88,0,0,0-1.33,3.36h0a4.84,4.84,0,0,0,1.33,3.36h0a4.43,4.43,0,0,0,3.24,1.41h0a4.63,4.63,0,0,0,2.52-.84h0a4.5,4.5,0,0,0,1.73-2.12h0a3.39,3.39,0,0,0,.22-.94h0V89.6H57.16V90h4a4,4,0,0,1-1.46,2.29h0a4.27,4.27,0,0,1-2.58,1h0a4.14,4.14,0,0,1-3-1.3h0A4.47,4.47,0,0,1,53,88.81h0a4.49,4.49,0,0,1,1.22-3.09h0a4.16,4.16,0,0,1,3-1.3h0a4.24,4.24,0,0,1,2.3.68h0A4,4,0,0,1,61,87h0L61,87h.39l0-.1a4.21,4.21,0,0,0-1.63-2.11h0a4.59,4.59,0,0,0-2.56-.78h0a4.47,4.47,0,0,0-3.24,1.4" style="fill:none"/></clipPath><clipPath id="clip-path-4"><path d="M63.85,84.13h-.19v9.34H64v-9h2.9a2.4,2.4,0,0,1,1.85.75h0a2.39,2.39,0,0,1,.62,1.65h0a2.33,2.33,0,0,1-2.26,2.4H65.05v.31l0,0,4.22,3.82,0,0h.54l-.15-.14-4.07-3.68h1.27A2.79,2.79,0,0,0,69,88.79h0a2.81,2.81,0,0,0,.7-1.9h0A2.76,2.76,0,0,0,69,85h0a2.81,2.81,0,0,0-2.13-.86Z" style="fill:none"/></clipPath><clipPath id="clip-path-5"><path d="M72.94,85.41a4.61,4.61,0,0,1,1.51-1,4.73,4.73,0,0,1,5.22,1,4.94,4.94,0,0,1,1,1.53,4.8,4.8,0,0,1,0,3.72,4.9,4.9,0,0,1-1,1.52,4.72,4.72,0,0,1-5.22,1,4.49,4.49,0,0,1-1.51-1,4.9,4.9,0,0,1-1-1.52,4.71,4.71,0,0,1,0-3.72A4.94,4.94,0,0,1,72.94,85.41Zm-1,3.39a4.4,4.4,0,0,0,1.28,3.11,4.33,4.33,0,0,0,4.82,1,4.45,4.45,0,0,0,0-8.16,4.33,4.33,0,0,0-4.82,1A4.44,4.44,0,0,0,71.91,88.8Z" style="fill:none"/></clipPath><clipPath id="clip-path-6"><path d="M89.66,84.15h-.28v6.74a2.06,2.06,0,0,1-.94,1.73h0a3.51,3.51,0,0,1-2,.58h0a3.5,3.5,0,0,1-2-.58h0a2,2,0,0,1-.94-1.71h0V84.15h-.37v6.74a2.38,2.38,0,0,0,1.07,2h0a3.92,3.92,0,0,0,2.22.68h0a4,4,0,0,0,2.22-.67h0a2.38,2.38,0,0,0,1.07-2h0V84.15Z" style="fill:none"/></clipPath><clipPath id="clip-path-7"><path d="M92.23,84.13h3.18a2.69,2.69,0,0,1,2.12.92,3.19,3.19,0,0,1,0,4,2.69,2.69,0,0,1-2.12.92H92.52v3.49h-.36V84.13Zm3.18.37H92.52v5.12h2.89a2.41,2.41,0,0,0,2.48-2.34,1.62,1.62,0,0,0,0-.22,2.69,2.69,0,0,0-.62-1.76A2.35,2.35,0,0,0,95.41,84.5Z" style="fill:none"/></clipPath></defs><title>Asset 8</title><g id="Layer_2" data-name="Layer 2"><g id="Layer_1-2" data-name="Layer 1"><g id="Rectangle_32-4" data-name="Rectangle 32-4"><rect width="150" height="150" rx="15" style="fill:#fff"/><rect x="0.5" y="0.5" width="149" height="149" rx="14.5" style="fill:none;stroke:#fff"/></g><g id="Group-3"><path id="Clip-2" d="M23,56.45H37.48V76.16H23Z" style="fill:none"/><g style="clip-path:url(#clip-path)"><g id="Group_62" data-name="Group 62"><path id="Fill-1" d="M30.2,66l-5.37-8.2a2.21,2.21,0,0,0-1.83-1v-.35H37.48v5.26H37.1a5.41,5.41,0,0,0-5.63-4.88h-4l5,7.74a4.44,4.44,0,0,0,.62-2.21h.43v7.71h-.43a3.51,3.51,0,0,0-3.37-3.64,1.82,1.82,0,0,0-.33,0H28.18v7.41c0,1.76,1.43,2,2.64,2v.35H23v-.35c1,0,2.35-.38,2.35-2V66Z"/></g></g></g><path id="Fill-4" d="M58.41,70.31v5.85H43.15v-.38c1.07,0,2.37,0,2.37-1.91V58.77c0-1.86-1.48-2-2.37-2v-.35h7.22v.38c-1.13,0-1.94.16-1.94,2V73.9a1.8,1.8,0,0,0,1.65,1.92h.32c2,0,6.07.08,7.44-5.5Z"/><path id="Fill-6" d="M72.84,60l-4.4,11.27c-1.51,3.75,1.08,4.59,2.35,4.59v.35H64.07v-.35c2.08,0,2.89-2.16,3.51-3.64.19-.46,5.07-12.68,4.93-12.92a1.74,1.74,0,0,0-1.26-1,6,6,0,0,0,3.15-1.81S81,73.22,81,73.33c.94,2.16,1.18,2.48,2.23,2.48v.35H76.45v-.35c1.43,0,2.1-1,1.62-2.43Z"/><path id="Fill-8" d="M111.21,58.77V73.84a1.84,1.84,0,0,1-1.71,2,1.45,1.45,0,0,1-.36,0v.35H116v-.35c-1.05,0-2.05-.24-2.05-1.94V69.26a1.9,1.9,0,0,1,.68-1.59,7.32,7.32,0,0,1,3.12-1v-.19a7.35,7.35,0,0,1-3.12-1A1.83,1.83,0,0,1,114,64V58.74c0-1.7,1.06-1.94,2.11-1.94v-.35h-6.88v.35a1.81,1.81,0,0,1,2,1.58A2.54,2.54,0,0,1,111.21,58.77Zm14.51,0a1.88,1.88,0,0,1,1.75-2h.35v-.34h-6.93v.35c1,0,2.08.24,2.08,2v15.1c0,1.7-1,1.94-2.08,1.94v.35h6.93v-.35a1.87,1.87,0,0,1-2.09-1.6,2.29,2.29,0,0,1,0-.37Z" style="fill-rule:evenodd"/><g id="Group-12"><path id="Clip-11" d="M92.47,56h11V70.5h-11Z" style="fill:none"/><g style="clip-path:url(#clip-path-2)"><g id="Group_63" data-name="Group 63"><path id="Fill-10" d="M102.53,66.64a6.68,6.68,0,0,0-.86-1,18.49,18.49,0,0,0-4-2.64,5.36,5.36,0,0,1-2.89-3,2.94,2.94,0,0,1,1-3.34c1.7-.89,6.09.24,6.39,4.74h.35V57c-1.06-.44-4.41-1.63-7.34-.58a4.05,4.05,0,0,0-2.72,3.37,5.51,5.51,0,0,0,2.91,4.83c1.84,1,4.1,2.1,5.29,3.88a3.53,3.53,0,0,1,.51,1.4l1.35.36.89.24a5.43,5.43,0,0,0-.89-3.86"/></g></g></g><path id="Fill-13" d="M98.14,68.07a17.69,17.69,0,0,0-4-2.67A5.93,5.93,0,0,1,91.45,63c-.65-.15-1.3-.32-2-.49l-.56-.16a5,5,0,0,0,.56,2.34,6.05,6.05,0,0,0,2.35,2.46c1.86,1,4.1,2.1,5.29,3.86s.48,4.4-1.38,5a5,5,0,0,1-5.85-4,5.59,5.59,0,0,1-.08-.91H89.5v4.38c1.3.5,5.64,2,8.82.06,2.08-1.24,2.35-5-.19-7.44"/><path id="Clip-17" d="M53.92,85.45a4.88,4.88,0,0,0-1.33,3.36h0a4.84,4.84,0,0,0,1.33,3.36h0a4.43,4.43,0,0,0,3.24,1.41h0a4.63,4.63,0,0,0,2.52-.84h0a4.5,4.5,0,0,0,1.73-2.12h0a3.39,3.39,0,0,0,.22-.94h0V89.6H57.16V90h4a4,4,0,0,1-1.46,2.29h0a4.27,4.27,0,0,1-2.58,1h0a4.14,4.14,0,0,1-3-1.3h0A4.47,4.47,0,0,1,53,88.81h0a4.49,4.49,0,0,1,1.22-3.09h0a4.16,4.16,0,0,1,3-1.3h0a4.24,4.24,0,0,1,2.3.68h0A4,4,0,0,1,61,87h0L61,87h.39l0-.1a4.21,4.21,0,0,0-1.63-2.11h0a4.59,4.59,0,0,0-2.56-.78h0a4.47,4.47,0,0,0-3.24,1.4"/><g style="clip-path:url(#clip-path-3)"><g id="Group_64" data-name="Group 64"><path id="Fill-16" d="M53.92,85.45a4.88,4.88,0,0,0-1.33,3.36h0a4.84,4.84,0,0,0,1.33,3.36h0a4.43,4.43,0,0,0,3.24,1.41h0a4.63,4.63,0,0,0,2.52-.84h0a4.5,4.5,0,0,0,1.73-2.12h0a3.39,3.39,0,0,0,.22-.94h0V89.6H57.16V90h4a4,4,0,0,1-1.46,2.29h0a4.27,4.27,0,0,1-2.58,1h0a4.14,4.14,0,0,1-3-1.3h0A4.47,4.47,0,0,1,53,88.81h0a4.49,4.49,0,0,1,1.22-3.09h0a4.16,4.16,0,0,1,3-1.3h0a4.24,4.24,0,0,1,2.3.68h0A4,4,0,0,1,61,87h0L61,87h.39l0-.1a4.21,4.21,0,0,0-1.63-2.11h0a4.59,4.59,0,0,0-2.56-.78h0a4.47,4.47,0,0,0-3.24,1.4"/></g></g><path id="Clip-20" d="M63.85,84.13h-.19v9.34H64v-9h2.9a2.4,2.4,0,0,1,1.85.75h0a2.39,2.39,0,0,1,.62,1.65h0a2.33,2.33,0,0,1-2.26,2.4H65.05v.31l0,0,4.22,3.82,0,0h.54l-.15-.14-4.07-3.68h1.27A2.79,2.79,0,0,0,69,88.79h0a2.81,2.81,0,0,0,.7-1.9h0A2.76,2.76,0,0,0,69,85h0a2.81,2.81,0,0,0-2.13-.86Z" style="fill:none"/><g style="clip-path:url(#clip-path-4)"><g id="Group_65" data-name="Group 65"><path id="Fill-19" d="M63.85,84.13h-.19v9.34H64v-9h2.9a2.4,2.4,0,0,1,1.85.75h0a2.39,2.39,0,0,1,.62,1.65h0a2.33,2.33,0,0,1-2.26,2.4H65.05v.31l0,0,4.22,3.82,0,0h.54l-.15-.14-4.07-3.68h1.27A2.79,2.79,0,0,0,69,88.79h0a2.81,2.81,0,0,0,.7-1.9h0A2.76,2.76,0,0,0,69,85h0a2.81,2.81,0,0,0-2.13-.86Z"/></g></g><path id="Clip-23" d="M72.94,85.41a4.61,4.61,0,0,1,1.51-1,4.73,4.73,0,0,1,5.22,1,4.94,4.94,0,0,1,1,1.53,4.8,4.8,0,0,1,0,3.72,4.9,4.9,0,0,1-1,1.52,4.72,4.72,0,0,1-5.22,1,4.49,4.49,0,0,1-1.51-1,4.9,4.9,0,0,1-1-1.52,4.71,4.71,0,0,1,0-3.72A4.94,4.94,0,0,1,72.94,85.41Zm-1,3.39a4.4,4.4,0,0,0,1.28,3.11,4.33,4.33,0,0,0,4.82,1,4.45,4.45,0,0,0,0-8.16,4.33,4.33,0,0,0-4.82,1A4.44,4.44,0,0,0,71.91,88.8Z" style="fill-rule:evenodd"/><g style="clip-path:url(#clip-path-5)"><g id="Group_66" data-name="Group 66"><path id="Fill-22" d="M72.94,85.41a4.61,4.61,0,0,1,1.51-1,4.73,4.73,0,0,1,5.22,1,4.94,4.94,0,0,1,1,1.53,4.8,4.8,0,0,1,0,3.72,4.9,4.9,0,0,1-1,1.52,4.72,4.72,0,0,1-5.22,1,4.49,4.49,0,0,1-1.51-1,4.9,4.9,0,0,1-1-1.52,4.71,4.71,0,0,1,0-3.72A4.94,4.94,0,0,1,72.94,85.41Zm-1,3.39a4.4,4.4,0,0,0,1.28,3.11,4.33,4.33,0,0,0,4.82,1,4.45,4.45,0,0,0,0-8.16,4.33,4.33,0,0,0-4.82,1A4.44,4.44,0,0,0,71.91,88.8Z" style="fill-rule:evenodd"/></g></g><path id="Clip-26" d="M89.66,84.15h-.28v6.74a2.06,2.06,0,0,1-.94,1.73h0a3.51,3.51,0,0,1-2,.58h0a3.5,3.5,0,0,1-2-.58h0a2,2,0,0,1-.94-1.71h0V84.15h-.37v6.74a2.38,2.38,0,0,0,1.07,2h0a3.92,3.92,0,0,0,2.22.68h0a4,4,0,0,0,2.22-.67h0a2.38,2.38,0,0,0,1.07-2h0V84.15Z"/><g style="clip-path:url(#clip-path-6)"><g id="Group_67" data-name="Group 67"><path id="Fill-25" d="M89.66,84.15h-.28v6.74a2.06,2.06,0,0,1-.94,1.73h0a3.51,3.51,0,0,1-2,.58h0a3.5,3.5,0,0,1-2-.58h0a2,2,0,0,1-.94-1.71h0V84.15h-.37v6.74a2.38,2.38,0,0,0,1.07,2h0a3.92,3.92,0,0,0,2.22.68h0a4,4,0,0,0,2.22-.67h0a2.38,2.38,0,0,0,1.07-2h0V84.15Z"/></g></g><path id="Clip-29" d="M92.23,84.13h3.18a2.69,2.69,0,0,1,2.12.92,3.19,3.19,0,0,1,0,4,2.69,2.69,0,0,1-2.12.92H92.52v3.49h-.36V84.13Zm3.18.37H92.52v5.12h2.89a2.41,2.41,0,0,0,2.48-2.34,1.62,1.62,0,0,0,0-.22,2.69,2.69,0,0,0-.62-1.76A2.35,2.35,0,0,0,95.41,84.5Z" style="fill-rule:evenodd"/><g style="clip-path:url(#clip-path-7)"><g id="Group_68" data-name="Group 68"><path id="Fill-28" d="M92.23,84.13h3.18a2.69,2.69,0,0,1,2.12.92,3.19,3.19,0,0,1,0,4,2.69,2.69,0,0,1-2.12.92H92.52v3.49h-.36V84.13Zm3.18.37H92.52v5.12h2.89a2.41,2.41,0,0,0,2.48-2.34,1.62,1.62,0,0,0,0-.22,2.69,2.69,0,0,0-.62-1.76A2.35,2.35,0,0,0,95.41,84.5Z" style="fill-rule:evenodd"/></g></g></g></g></svg>