<svg xmlns="http://www.w3.org/2000/svg" viewBox="0 0 682.5 660.42"><title>Asset 1</title><g id="Layer_2" data-name="Layer 2"><g id="Layer_1-2" data-name="Layer 1"><polygon points="397.5 336.27 358.83 358.81 320.16 336.27 358.83 313.73 397.5 336.27" style="fill:#66c5ff"/><polygon points="397.5 336.27 397.5 390.19 358.83 412.73 358.83 358.81 397.5 336.27" style="fill:#205cff"/><rect x="441.83" y="284.9" width="24.67" height="24.67" style="fill:#205cff"/><rect x="655.33" y="272.57" width="24.67" height="24.67" style="fill:#66c5ff"/><rect x="655.33" y="350.9" width="24.67" height="24.67" style="fill:#66c5ff"/><rect x="655.33" y="429.24" width="24.67" height="24.67" style="fill:#66c5ff"/><rect x="300.67" y="261.7" width="24.67" height="24.67" style="fill:#66c5ff"/><rect x="441.83" y="416.7" width="24.67" height="24.67" style="fill:#66c5ff"/><rect x="251.17" y="416.7" width="24.67" height="24.67" transform="translate(527 858.06) rotate(180)" style="fill:#66c5ff"/><circle cx="77.83" cy="284.9" r="10.87" style="fill:#66c5ff"/><circle cx="114.15" cy="248.59" r="10.87" style="fill:#66c5ff"/><circle cx="119.17" cy="454.33" r="30.64" transform="translate(-286.35 217.33) rotate(-45)" style="fill:#66c5ff"/><path d="M663.29,196.89H615.37l19-44A47.94,47.94,0,0,1,663.29,196.89Z" style="fill:#205cff"/><path d="M257.5,80.83a35.34,35.34,0,1,0,35.33,35.34A35.33,35.33,0,0,0,257.5,80.83Zm0,47.77a12.44,12.44,0,1,1,12.43-12.43A12.43,12.43,0,0,1,257.5,128.6Z" style="fill:#205cff"/><path d="M317.67,391.63l16.22,9.46-16,39.33,4.63,1.89,15.77-38.68,20.58,12,20.58-12,15.77,38.68,4.64-1.89-16-39.33L400,391.63V334.84l-18.71-10.9,15.36-38.1L392,284l-15.08,37.42-18.1-10.55-41.16,24Zm5-51,33.66,19.62v48.13l-33.66-19.62Zm38.66,67.75V360.25L395,340.63v48.13Zm31.21-72.1-33.71,19.64-33.7-19.64,33.7-19.65Z" style="fill:#231f20"/><path d="M469,312.07V282.4H439.33v25.72L406.59,326.9l2.49,4.34,33.42-19.17ZM444.33,287.4H464v19.67H444.33Z" style="fill:#231f20"/><path d="M652.83,270.07v29.67H682.5V270.07Zm24.67,24.67H657.83V275.07H677.5Z" style="fill:#231f20"/><path d="M652.83,378.07H682.5V348.4H652.83Zm5-24.67H677.5v19.67H657.83Z" style="fill:#231f20"/><path d="M652.83,456.4H682.5V426.74H652.83Zm5-24.66H677.5V451.4H657.83Z" style="fill:#231f20"/><path d="M298.17,288.87h29.66V259.2H298.17Zm5-24.67h19.66v19.67H303.17Z" style="fill:#231f20"/><path d="M265.67,344v29.67h29.66V344Zm24.66,24.67H270.67V349h19.66Z" style="fill:#231f20"/><path d="M469,443.86V414.2H442.5L409.08,395l-2.49,4.34,32.74,18.78v25.72ZM444.33,419.2H464v19.66H444.33Z" style="fill:#231f20"/><path d="M248.67,282.4v29.67h26.5l33.42,19.17,2.49-4.34-32.75-18.78V282.4Zm24.66,24.67H253.67V287.4h19.66Z" style="fill:#231f20"/><path d="M248.67,443.86h29.66V418.14l32.75-18.78L308.59,395,275.17,414.2h-26.5Zm5-24.66h19.66v19.66H253.67Z" style="fill:#231f20"/><path d="M361.33,300.51V263.74h12.34V234.07H344v29.67h12.33v36.77ZM349,239.07h19.67v19.67H349Z" style="fill:#231f20"/><path d="M356.33,424.76v36.77H344V491.2h29.67V461.53H361.33V424.76Zm12.34,61.44H349V466.53h19.67Z" style="fill:#231f20"/><path d="M596.33,360.13H549.08V329H514.34a157.37,157.37,0,0,0-21.76-52.47l24.58-24.58L469.55,204.3,445,228.88a157.56,157.56,0,0,0-52.47-21.75V172.39H341.28l-6.3-6.3a91.22,91.22,0,0,0,12.61-30.44h26.08v-39H347.59A91.08,91.08,0,0,0,335,66.25L353.42,47.8,325.86,20.24,307.42,38.69A91,91,0,0,0,277,26.08V0H238V26.08a91,91,0,0,0-30.43,12.61L189.14,20.24,161.58,47.8,180,66.25a91.08,91.08,0,0,0-12.61,30.43H141.33v39h26.08A91.22,91.22,0,0,0,180,166.09l-18.44,18.44,27.56,27.56,18.44-18.44A91.17,91.17,0,0,0,238,206.26v8.15L200.5,251.92l24.58,24.58a158.29,158.29,0,0,0-19.44,43.14l4.81,1.35a153.31,153.31,0,0,1,19.92-43.44l1.13-1.71-23.93-23.92,40.55-40.54L272,235.3l1.71-1.13a152.71,152.71,0,0,1,54.41-22.56l2-.4V177.39H387.5v33.82l2,.4a152.76,152.76,0,0,1,54.42,22.56l1.7,1.13,23.93-23.92,40.54,40.54-23.93,23.92,1.13,1.71A152.35,152.35,0,0,1,509.85,332l.41,2h33.82v26.16H478.87c0-.44,0-.87,0-1.32a120.44,120.44,0,0,0-4.39-32.28l-4.82,1.34a115,115,0,0,1,4.21,30.94c0,.45,0,.88,0,1.32h-43v5h42.88a114.22,114.22,0,0,1-7.88,36.05l4.65,1.84a119.17,119.17,0,0,0,8.23-37.89h65.37V391.3H510.26l-.41,2a152.35,152.35,0,0,1-22.56,54.41l-1.13,1.7,23.93,23.93-40.54,40.54L445.62,490l-1.7,1.14a152.56,152.56,0,0,1-54.42,22.55l-2,.41v33.82H330.17V514.06l-2-.41a152.51,152.51,0,0,1-54.41-22.55L272,490l-23.92,23.93-40.55-40.54,23.93-23.93-1.13-1.7a152.71,152.71,0,0,1-22.56-54.41l-.4-2H173.59V334h6.91v-5H168.59V396.3h34.74a157.56,157.56,0,0,0,21.75,52.47L200.5,473.35,248.12,521l24.58-24.58a157.37,157.37,0,0,0,52.47,21.76v34.74H392.5V518.14A157.37,157.37,0,0,0,445,496.38L469.55,521l47.61-47.61-24.58-24.58a157.37,157.37,0,0,0,21.76-52.47h34.74V365.13h47.25v78.94h43v-5h-38V365.13h38v-5h-38V287.4h38v-5h-43ZM277,226.22v-20a91.25,91.25,0,0,0,30.43-12.61l14.27,14.27A157.2,157.2,0,0,0,277,226.22Zm48.18-53.83v31.93l-17.12-17.11-1.71,1.16A86.31,86.31,0,0,1,274,201.76l-2,.39v26L248.12,204.3,243,209.41v-7.26l-2-.39a86.24,86.24,0,0,1-32.32-13.39L207,187.21,189.14,205l-20.49-20.49,17.81-17.81L185.3,165a86.36,86.36,0,0,1-13.39-32.33l-.39-2H146.33v-29h25.19l.39-2A86.24,86.24,0,0,1,185.3,67.33l1.16-1.71L168.65,47.8l20.49-20.48L207,45.13,208.66,44A86.15,86.15,0,0,1,241,30.58l2-.39V5h29V30.19l2,.39A86.15,86.15,0,0,1,306.34,44l1.71,1.16,17.81-17.81L346.35,47.8,328.54,65.62l1.16,1.71a86.24,86.24,0,0,1,13.39,32.32l.39,2h25.19v29H343.48l-.39,2A86.36,86.36,0,0,1,329.7,165l-1.16,1.71,5.67,5.67Z" style="fill:#231f20"/><path d="M127.52,248.59a13.37,13.37,0,1,0-24.42,7.51L85.34,273.86a13.35,13.35,0,1,0,3.54,3.53l17.76-17.76a13.32,13.32,0,0,0,15,0l89.87,89.87a13.35,13.35,0,1,0,3.53-3.54L125.2,256.1A13.32,13.32,0,0,0,127.52,248.59ZM77.83,293.27a8.37,8.37,0,1,1,8.37-8.37A8.37,8.37,0,0,1,77.83,293.27ZM114.15,257a8.37,8.37,0,1,1,8.37-8.36A8.37,8.37,0,0,1,114.15,257ZM230.94,357a8.37,8.37,0,1,1-8.37-8.37A8.37,8.37,0,0,1,230.94,357Z" style="fill:#231f20"/><path id="paper" d="M51,228.8v85.33h80.83v-33.5h-5v28.5H56v-76.8H82.53V205.8h44.3v24h5v-29H79Zm8.54-1.47,18-18v18Z" style="fill:#231f20"/><path d="M385.67,246.91A115.41,115.41,0,0,1,434,271.74l3.26-3.79a120.25,120.25,0,0,0-50.45-25.9Z" style="fill:#231f20"/><path d="M238.78,358.81A119.43,119.43,0,0,0,247.19,403l4.65-1.85A115.47,115.47,0,0,1,249,324.6l-4.78-1.48A120,120,0,0,0,238.78,358.81Z" style="fill:#231f20"/><path d="M333.21,471a115.25,115.25,0,0,1-46-22.17l-3.12,3.91a120.17,120.17,0,0,0,48,23.13Z" style="fill:#231f20"/><path d="M386.83,475.58a120.27,120.27,0,0,0,49.34-24.94L433,446.81a115.32,115.32,0,0,1-47.28,23.91Z" style="fill:#231f20"/><path d="M532.6,456.83h11.48v93.55h5V456.83h11.48l-14-28Zm8.09-5,5.89-11.78,5.89,11.78Z" style="fill:#231f20"/><path d="M290.09,615.13H247.9V543h-5v77.16h47.19v11.48l28-14-28-14Zm5-3.38,11.77,5.88-11.77,5.89Z" style="fill:#231f20"/><path d="M589.33,473.44h-5V567H572.86l14,28,14-28H589.33Zm-2.5,110.33L581,572h11.77Z" style="fill:#231f20"/><path d="M119.17,421.19a33.14,33.14,0,1,0,33.14,33.14A33.17,33.17,0,0,0,119.17,421.19Zm0,61.28a28.14,28.14,0,1,1,28.14-28.14A28.17,28.17,0,0,1,119.17,482.47Z" style="fill:#231f20"/><path d="M171.69,454.33a52.53,52.53,0,1,0-52.52,52.52A52.58,52.58,0,0,0,171.69,454.33Zm-52.52,47.52a47.53,47.53,0,1,1,47.52-47.52A47.58,47.58,0,0,1,119.17,501.85Z" style="fill:#231f20"/><path d="M257.5,61.67a54.5,54.5,0,1,0,54.5,54.5A54.56,54.56,0,0,0,257.5,61.67Zm0,104a49.5,49.5,0,1,1,49.5-49.5A49.56,49.56,0,0,1,257.5,165.67Z" style="fill:#231f20"/><g id="gear-1"><path d="M541.94,132.92V107.58h-14.1a56.94,56.94,0,0,0-7.32-17.67l10-10L512.57,62l-10,10a56.31,56.31,0,0,0-17.66-7.32V50.58H459.6v14.1A56.31,56.31,0,0,0,441.94,72L432,62,414.05,79.94l10,10a56.7,56.7,0,0,0-7.32,17.67H402.6v25.34h14.1A56.65,56.65,0,0,0,424,150.58l-10,10L432,178.47l10-10a56.79,56.79,0,0,0,17.66,7.32v14.1h25.34v-14.1a56.79,56.79,0,0,0,17.66-7.32l10,10,17.92-17.92-10-10a56.89,56.89,0,0,0,7.32-17.66Zm-69.67,15.83a28.5,28.5,0,1,1,28.5-28.5A28.5,28.5,0,0,1,472.27,148.75Z" style="fill:#66c5ff"/><path d="M420.86,150.2l-10.35,10.35L432,182l10.36-10.35a59,59,0,0,0,14.78,6.13v14.64h30.34V177.78a59.19,59.19,0,0,0,14.78-6.13L512.57,182,534,160.55,523.67,150.2a58.82,58.82,0,0,0,6.13-14.78h14.64V105.08H529.8a58.89,58.89,0,0,0-6.13-14.79L534,79.94,512.57,58.49,502.22,68.84a58.79,58.79,0,0,0-14.78-6.12V48.08H457.1V62.72a58.64,58.64,0,0,0-14.78,6.12L432,58.49,410.51,79.94l10.35,10.35a58.86,58.86,0,0,0-6.12,14.79H400.1v30.34h14.64A58.94,58.94,0,0,0,420.86,150.2ZM405.1,110.08h13.6l.44-2a54.08,54.08,0,0,1,7-16.88l1.07-1.69-9.62-9.62L432,65.56l9.62,9.62,1.69-1.07a54.08,54.08,0,0,1,16.88-7l2-.45V53.08h20.34V66.67l1.94.45a54,54,0,0,1,16.89,7L503,75.18l9.61-9.62L527,79.94l-9.62,9.62,1.06,1.69a53.91,53.91,0,0,1,7,16.88l.44,2h13.6v20.34h-13.6l-.44,1.94a54.06,54.06,0,0,1-7,16.89l-1.06,1.69,9.62,9.61-14.39,14.38L503,165.32l-1.69,1.06a54.06,54.06,0,0,1-16.89,7l-1.94.44v13.6H462.1v-13.6l-2-.44a54.1,54.1,0,0,1-16.88-7l-1.69-1.06L432,174.93l-14.38-14.38,9.62-9.61-1.07-1.69a54,54,0,0,1-7-16.89l-.44-1.94H405.1Z" style="fill:#231f20"/><path d="M472.27,151.25a31,31,0,1,0-31-31A31,31,0,0,0,472.27,151.25Zm0-57a26,26,0,1,1-26,26A26,26,0,0,1,472.27,94.25Z" style="fill:#231f20"/></g><g id="gear-2"><path d="M506.54,599.12V581.61H496.8a39.23,39.23,0,0,0-5.06-12.2l6.89-6.89-12.38-12.38L479.36,557A39.28,39.28,0,0,0,467.15,552v-9.74H449.64V552a39.23,39.23,0,0,0-12.2,5.06l-6.9-6.89-12.38,12.38,6.89,6.89a39,39,0,0,0-5.05,12.2h-9.75v17.51H420a38.93,38.93,0,0,0,5.05,12.21l-6.89,6.89,12.38,12.38,6.9-6.89a39.23,39.23,0,0,0,12.2,5.06v9.74h17.51v-9.74a39.28,39.28,0,0,0,12.21-5.06l6.89,6.89,12.38-12.38-6.89-6.89a39.18,39.18,0,0,0,5.06-12.21Zm-48.14,9.09a17.85,17.85,0,1,1,17.84-17.84A17.85,17.85,0,0,1,458.4,608.21Z" style="fill:#205cff"/><path d="M494.88,569.8l7.29-7.28L486.25,546.6,479,553.88a42,42,0,0,0-9.32-3.86V539.73H447.14V550a41.87,41.87,0,0,0-9.31,3.86l-7.29-7.28-15.91,15.92,7.28,7.28a41.41,41.41,0,0,0-3.86,9.31h-10.3v22.51h10.3a41.29,41.29,0,0,0,3.86,9.32l-7.28,7.28,15.91,15.92,7.29-7.28a41.37,41.37,0,0,0,9.31,3.85V641h22.51v-10.3a41.45,41.45,0,0,0,9.32-3.85l7.28,7.28,15.92-15.92-7.29-7.28a41.29,41.29,0,0,0,3.86-9.32H509V579.11h-10.3A41.41,41.41,0,0,0,494.88,569.8ZM504,596.62H494.8l-.44,2A36.62,36.62,0,0,1,489.62,610l-1.06,1.69,6.53,6.53-8.84,8.85-6.54-6.54L478,621.6a36.68,36.68,0,0,1-11.42,4.73l-2,.44V636H452.14v-9.24l-1.94-.44a36.64,36.64,0,0,1-11.43-4.73l-1.69-1.07-6.54,6.54-8.84-8.85,6.53-6.53L427.17,610a36.6,36.6,0,0,1-4.73-11.43l-.45-2h-9.24V584.11H422l.45-1.94a36.6,36.6,0,0,1,4.73-11.43l1.06-1.69-6.53-6.53,8.84-8.85,6.54,6.54,1.69-1.07a36.4,36.4,0,0,1,11.43-4.73l1.94-.44v-9.24h12.51V554l2,.44A36.44,36.44,0,0,1,478,559.14l1.69,1.07,6.54-6.54,8.84,8.85-6.53,6.53,1.06,1.69a36.52,36.52,0,0,1,4.74,11.43l.44,1.94H504Z" style="fill:#231f20"/><path d="M458.4,570a20.35,20.35,0,1,0,20.34,20.35A20.37,20.37,0,0,0,458.4,570Zm0,35.69a15.35,15.35,0,1,1,15.34-15.34A15.36,15.36,0,0,1,458.4,605.71Z" style="fill:#231f20"/></g><path d="M615.77,164.82l-2.29-1a50.42,50.42,0,1,0,30.44,46.3v-2.5H597.3Zm23.08,47.81a45.39,45.39,0,1,1-29.68-45.14L589.7,212.63Z" style="fill:#231f20"/><path d="M665.79,199.39v-2.5a50.4,50.4,0,0,0-30.45-46.3l-2.29-1-21.48,49.79Zm-30.16-43.16a45.41,45.41,0,0,1,25.09,38.16H619.17Z" style="fill:#231f20"/><path d="M98.89,360.37v11.48l28-14-28-14v11.47H94.83A89.93,89.93,0,0,1,5,265.54v-8.32a89.93,89.93,0,0,1,89.83-89.83v-5A94.94,94.94,0,0,0,0,257.22v8.32a94.94,94.94,0,0,0,94.83,94.83Zm5-8.38,11.78,5.88-11.78,5.89Z" style="fill:#231f20"/><path d="M209.21,586.86H164.33V575.38l-28,14,28,14V591.86h49.88V508.63h-5Zm-49.88,8.38-11.77-5.88,11.77-5.89Z" style="fill:#231f20"/><polygon points="171.69 546.48 171.69 537.38 180.8 537.38 180.8 532.38 171.69 532.38 171.69 523.27 166.69 523.27 166.69 532.38 157.59 532.38 157.59 537.38 166.69 537.38 166.69 546.48 171.69 546.48" style="fill:#231f20"/><polygon points="361.11 573.77 356.11 573.77 356.11 582.87 347 582.87 347 587.87 356.11 587.87 356.11 596.98 361.11 596.98 361.11 587.87 370.21 587.87 370.21 582.87 361.11 582.87 361.11 573.77" style="fill:#231f20"/><polygon points="549.3 596.61 544.3 596.61 544.3 605.71 535.2 605.71 535.2 610.71 544.3 610.71 544.3 619.82 549.3 619.82 549.3 610.71 558.41 610.71 558.41 605.71 549.3 605.71 549.3 596.61" style="fill:#231f20"/><path d="M568.72,293.85a12.21,12.21,0,1,0-12.21,12.2A12.23,12.23,0,0,0,568.72,293.85Zm-19.42,0a7.21,7.21,0,1,1,7.21,7.2A7.22,7.22,0,0,1,549.3,293.85Z" style="fill:#231f20"/><path d="M297.82,546.48a12.21,12.21,0,1,0-12.2,12.21A12.21,12.21,0,0,0,297.82,546.48Zm-19.41,0a7.21,7.21,0,1,1,7.21,7.21A7.21,7.21,0,0,1,278.41,546.48Z" style="fill:#231f20"/><path d="M586.83,636A12.21,12.21,0,1,0,599,648.22,12.22,12.22,0,0,0,586.83,636Zm0,19.41a7.21,7.21,0,1,1,7.21-7.2A7.21,7.21,0,0,1,586.83,655.42Z" style="fill:#231f20"/><path d="M181.4,251a12.21,12.21,0,1,0-12.21,12.21A12.22,12.22,0,0,0,181.4,251ZM162,251a7.21,7.21,0,1,1,7.2,7.21A7.21,7.21,0,0,1,162,251Z" style="fill:#231f20"/><path d="M257.5,78.33a37.84,37.84,0,1,0,37.83,37.84A37.88,37.88,0,0,0,257.5,78.33Zm0,70.67a32.84,32.84,0,1,1,32.83-32.83A32.87,32.87,0,0,1,257.5,149Z" style="fill:#231f20"/><path d="M257.5,101.23a14.94,14.94,0,1,0,14.93,14.94A15,15,0,0,0,257.5,101.23Zm0,24.87a9.94,9.94,0,1,1,9.93-9.93A9.94,9.94,0,0,1,257.5,126.1Z" style="fill:#231f20"/><rect id="tick" x="117.04" y="434.44" width="4.26" height="21.8" rx="2.13" style="fill:#231f20"/><rect x="120.19" y="444.38" width="4.26" height="13.17" rx="2.13" transform="translate(354.71 45.59) rotate(45)" style="fill:#231f20"/></g></g></svg>