<svg xmlns="http://www.w3.org/2000/svg" viewBox="0 0 587.37 199.16"><title>Asset 1</title><g id="Layer_2" data-name="Layer 2"><g id="Layer_1-2" data-name="Layer 1"><g id="fulll-map"><g id="map-shadow" style="opacity:0.39"><path d="M61.89,73.85c1.08.41.43,1.53,1.63,1.84l.58-.24A4,4,0,0,1,63.54,74C63.53,73.5,63.11,73.48,61.89,73.85Z"/><path d="M63.55,75.69c-1.2-.31-.55-1.43-1.63-1.84,1.19-.37,1.61-.35,1.62.15a4,4,0,0,0,.59,1.45Z"/><path d="M347,85.43v-.06S346.94,85.8,347,85.43Z"/><path d="M343.27,92.21c.65.66,3.46.07,3.67-1.9a33.12,33.12,0,0,0,0-4.88v0c0-.35,0-1.41.09-4.23.12-5.82,5.09-4.71,6-6.35s-.21-2.71,0-3.36-1.51-3.15-1.94-4.17,4.1-10.3,6.48-12.46,6.47-3.67,7.34-6A25.23,25.23,0,0,0,366,44.33a14.56,14.56,0,0,0-2.33-.8h-.17c-.85.18-1.79,0-2.67.15s-.44.71-.54,1.28c-.19,1.09-1.8,1.25-3.11.71a13.18,13.18,0,0,1-2.35,0c-.47.11-.93.23-1.39.36-.72.25-1.41.54-2.17.74-1.32.36-2.87.15-4.22.42a8.5,8.5,0,0,0-2.79,1.51,4.65,4.65,0,0,1-3.54.66,13.33,13.33,0,0,1-1.47-.6,2.09,2.09,0,0,0-1.71.16,13,13,0,0,1-3.11,1.34c-.93.2-1.77.26-2,.86,0,.12.11.23.14.32a2,2,0,0,1,.13,1.26c-.1.43-.6.6-1.2.53s-1.25-.14-1.85-.26a2,2,0,0,1-.05.26.88.88,0,0,1-.93.56c-1.93-.11-4.25-.52-5.69-1.64a3.33,3.33,0,0,1-1.11-1.6,2.76,2.76,0,0,0-.3-.68c-.14-.18-.08-.17-.46-.11-1.29.18-2.07-1.27-.83-1.48h-.07l.18-.2,1,.2a3.71,3.71,0,0,1,.58.11c.89.17,1.77.34,2.63.56,2.67.7,4.23,1.14,5.93.59a4.31,4.31,0,0,1,1.84-.94c.66-.54.57-1.16-.39-1.73-1.54-.9-3-2-5-2a2.81,2.81,0,0,1-1.13-.31,8.21,8.21,0,0,0-4.35-.6,2.35,2.35,0,0,1-1.28-.21,5.07,5.07,0,0,0-3-.87c-.91,0-1.2-.28-.87-.88s-.06-.68-.64-.8l-2.66-.58a2.77,2.77,0,0,0-2,.16,1.22,1.22,0,0,1-.92,0c-1.34-.75-1.64-.77-2.91-.12a2.25,2.25,0,0,1-1.19.31,2.63,2.63,0,0,0-2.28.64,4.31,4.31,0,0,1-2.52.84l-.75.08c-.37.72-1.76,1.12-2.81,1.32a9.88,9.88,0,0,0-2.51.6,3.65,3.65,0,0,0-1.52,1.47,1.12,1.12,0,0,1,.17.46h.1l-.09.09a1.22,1.22,0,0,1-1.57,1.2,3.48,3.48,0,0,0-1.55,1.83c-.07.28-.45.53-.74.76-.49.4-1,.76-1.54,1.16a7,7,0,0,1-1.18,1c-1.94,1-4,1.88-6,2.84-1,.5-1.85,1.15-1.86,2.08s.16,1.88.17,2.82a5.42,5.42,0,0,1-.26,1.32,3.4,3.4,0,0,0,3.89,1.42,17.25,17.25,0,0,0,3.47-1.36c.08-.43.6-.81,1.36-.64a3.93,3.93,0,0,1,2.58,2.09c.27.45.47,1,.74,1.49a1.41,1.41,0,0,1,.29,0,3.68,3.68,0,0,0,3.34-.87,13.72,13.72,0,0,1,2.68-1.78c.68-.31,1.84-.65,2-1.26.23-.81-1.1-1.19-1.64-1.78a1.88,1.88,0,0,1,.22-2.65c.78-.93,1.77-1.77,2.58-2.68,1.32-1.49,2.38-3.7,4.61-4.58,1.6-.62,3.91-.36,4.38.92,1.2,1.21,0,3.28-.62,4.38a20.44,20.44,0,0,0-1.39,2.21,1.54,1.54,0,0,0,.63,2.08c.21.12,1.3.5,1.38.27.17-.48.81-.61,1.35-.5a3.76,3.76,0,0,1,2.52,0,3.33,3.33,0,0,1,1.19.8.22.22,0,0,0,.07-.09,4.81,4.81,0,0,0,.4-.6,2,2,0,0,1,2.73-.61c1.34.8.83,2-.14,2.66a5.7,5.7,0,0,1-3.87.94,5.43,5.43,0,0,1-.78-.13,1.38,1.38,0,0,1-.7,0h-.44a1,1,0,0,1-.4.17h0a2.31,2.31,0,0,0-.83,1.93h0v.21a.57.57,0,0,1-.4.46,1.25,1.25,0,0,1-.51,1.25c-1.9,1.44-3-1.37-4.54-1.31a3,3,0,0,0-1.59,2.55c0,.9-.74,1.33-1.83,1.56a7.25,7.25,0,0,1-1.74.06,9,9,0,0,0-4.92.69,3.2,3.2,0,0,1-2.77,0,2.86,2.86,0,0,0-2.55,0,2.29,2.29,0,0,1-2.14.12c-.32-.11-.86-.33-.83-.42a1.92,1.92,0,0,1,.71-.81c.46-.28,1.07-.45,1.56-.71s.75-.56.71-.81-.21-.25-.31-.38a3.24,3.24,0,0,0-.6-.27c-1.14-.36-1.65-.82-1.61-1.69,0-.64-.63-.86-1.39-.54a25.92,25.92,0,0,0-2.54,1.24.57.57,0,0,0-.23.64c.07.16.14.32.22.47a3.74,3.74,0,0,1,1.09,1.75,1.93,1.93,0,0,1,0,.34c.41.66,0,1.33-1,1.52a10.73,10.73,0,0,1-3.54,1.1,10.23,10.23,0,0,0-2.6.71l-.58.33a3.57,3.57,0,0,0-.38.3c-.8.7-1.36,1.51-2.14,2.22a7.27,7.27,0,0,1-3.1,1.7,15.76,15.76,0,0,1-3.28.35l-.84.26a5.85,5.85,0,0,1-1.74.48,6.6,6.6,0,0,1-.87.15h-.1a7.43,7.43,0,0,0-.75.49.92.92,0,0,0,.43.65l.08.07a5.67,5.67,0,0,1,2,.91,1.32,1.32,0,0,1,.77.89A4.58,4.58,0,0,1,267,82.2c-.33,1-1,1.27-2.61,1.19-2.45-.12-4.87-.36-7.32-.43a11.52,11.52,0,0,0-2.73.44h0a5.46,5.46,0,0,0-.34,1.79,10,10,0,0,1,.16,1.73,1.58,1.58,0,0,1-.85,1.18c-1,.53-1.32,1-1,1.76a3,3,0,0,1,.14.93c0,.52.36.82,1.33.77,2.3-.14,3.66.51,4.28,1.77,0,.09.14.16.31.34a1.38,1.38,0,0,0,.74.21c0-.21.25-.47.73-.85a3,3,0,0,0,.47-.4c.49-.58,1.14-.66,2.17-.57a10.07,10.07,0,0,0,3-.24,20.39,20.39,0,0,0,2.74-1,3,3,0,0,0,1.23-.76.49.49,0,0,1,0-.24c.11-.35.18-.71.27-1.06a1.09,1.09,0,0,1,.6-1.3,2.7,2.7,0,0,1,.59-.58,8.41,8.41,0,0,1,1.85-.86c.77-.33.9-.77,1.21-1.28a3.33,3.33,0,0,1,2.31-1.66,16.2,16.2,0,0,1,3.47.4c1.76.14,2.62-.74,4.14-1a4.56,4.56,0,0,1,3.32.64,5,5,0,0,1,1.53,1.72,6.45,6.45,0,0,0,2.7,1.26c2.79.72,5.23,1.69,5.66,3.93h-2.51a20,20,0,0,0-2.45,0,1.46,1.46,0,0,0-1,.76c-.06.13.59.53.95.56a4.62,4.62,0,0,1,2.73,1,7.59,7.59,0,0,0,1,.57,6,6,0,0,1,.38-1.08c.23-.35.44-.84.9-1a1.57,1.57,0,0,0,1.25-1.06c.24-.66.45-1.31.67-2,2.93.3,2.93.3,3.62-.14-.66-.2-1.26-.39-1.88-.55-.44-.12-.91-.18-1.35-.28a14.78,14.78,0,0,1-7.26-4.12,2,2,0,0,1-.39-1.53c0-.39.51-.64,1.14-.35a25.79,25.79,0,0,1,3.44,1.74,10.24,10.24,0,0,0,4.56,2c.75.1,1.48.37,1.33,1-.32,1.3.47,2.53,1.72,3.46,1.51,1.12,3.28,2.09,4.16,3.49a1.91,1.91,0,0,0,1,.13c.93-.71,2.14-1.38,1.23-2.49-.29-.36-.69-.75-.68-1.11,0-.51.12-1.33.59-1.43a30,30,0,0,1,4.13-.43,22,22,0,0,0,2.08,3.37,7,7,0,0,0,2.64,1.39,10.51,10.51,0,0,0,6.24.66,5.57,5.57,0,0,1,1,0c1.36-.08,2.72-.2,4.09-.23,1,0,2.07,0,2.84.06a1.14,1.14,0,0,0,.06.46l1.86-.65C337.23,91.57,342.63,91.56,343.27,92.21Z"/><path d="M463.25,120.45a8,8,0,0,0,.05,1.29,13,13,0,0,1,.5,1.93c0,1,.91,1.72,2.89,2.45a14.37,14.37,0,0,1,2.76,1.48,27.12,27.12,0,0,0,2.7,1.94c1.6.82,3.57,1.48,5.23,2.28a5.17,5.17,0,0,0,4.31.35c-.93-.59-2-1.17-2.79-1.8a13.69,13.69,0,0,1-1.52-1.62,2.08,2.08,0,0,0-.79-.58c-2.28-.68-4.58-1.32-6.86-2a3.35,3.35,0,0,1-1-.41c-1.29-1.31-3.15-2.57-3.36-4-.07-.47-.76-1-1.07-1.52-.18-.3-.42-.77-.17-.84a4.55,4.55,0,0,1,1.76.16c1.11.28,2.17.72,3.28,1a14.05,14.05,0,0,1,5.23,2.23c.77.53,1.46,1.09,2.26,1.62,1.23.79,2,.82,2.7.2.52-.47,1.25-.86,1.73-1.34.9-.93,1.71-1.9,2.48-2.87.11-.14,0-.4-.19-.6-1.39-1.86-3.42-3.49-7.32-4.47a15,15,0,0,1-1.48-.47c-1.64-.58-2.22-1.14-2-1.93a5.29,5.29,0,0,0,.37-1.47c0-1,1.14-1.22,3-1.16a37.57,37.57,0,0,0,6-.15c2.59-.36,4.86-1,7.23-1.5a3.18,3.18,0,0,0,2.7-2,9.32,9.32,0,0,1,.38-1c-.58-.15-1.09-.44-1.12-.82-.09-.91.39-1.76-.35-2.76s-1.32-1.75-1.94-2.63a8.4,8.4,0,0,0-2.32-2.61,11.79,11.79,0,0,0-1.51-.64,4.75,4.75,0,0,1-1.8-1.2c-.7-.84-.32-1.48.26-2a2,2,0,0,0,.81-1.83c-.14-1.09-1-3,.88-3.36s3.65,1.35,4.61,2.31a3.57,3.57,0,0,0,1.88,1.2c.4.11.73.2,1,.3h.07a1.41,1.41,0,0,1,1.47.75v.09a5.92,5.92,0,0,1,1.32,1.37,4.3,4.3,0,0,0,.78,1.1c1.28,1.11,2.55-.1,2.86-.51.51-.68.19-1.64-1-2.57-1-.75-2.46-1.28-3.31-2.08l-.31-.33c-1-.56-1-.85-.37-1.07a.69.69,0,0,1,.37-.36c.36-.19.72-.21.71-.58a5.08,5.08,0,0,0-.48-1.16c-.29-.82-.1-1.5,1-1.76.81-.2,2.47,0,2.64-.58a.45.45,0,0,1,.37-.29A2,2,0,0,1,499.9,83c.83-.24,1.22-.57,1.34-1.16a17.19,17.19,0,0,0,0-4.3,17.39,17.39,0,0,0-.79-4.1,5.74,5.74,0,0,0-1.56-2.64c-1.94-1.73-5-.84-7-1.16-3.51-.55-5.87-3.17-4.7-4.32.57-.57,1.9-.78,2.12-1.51s-.22-1.9.86-2.34h.11v-.07c.23-.93,1.87-1.59,3.94-1.18a3.88,3.88,0,0,0,1.55.17,6.92,6.92,0,0,1,1.19-.22.94.94,0,0,1,0-.62c.09-.23.57-.27,1.1-.15a3.32,3.32,0,0,1,1.31.39l.57.33a7.4,7.4,0,0,1,3.34-.23c1.22.12,2.61.47,3.8.56,1.41.11,1.47-.56,1.67-1.16a5.24,5.24,0,0,1,.54-1.32,1.4,1.4,0,0,1,.1-1.3,2.71,2.71,0,0,1,2.13-.53,17.16,17.16,0,0,1,3.67.85c1.15.31,1.28.07,1.64-.24a4.65,4.65,0,0,1,1.23-.87c1.12-.5,3.31.08,4.52,1.48.47.54.48.84.25,1.06a2.37,2.37,0,0,1,.28.27c1.45,1.76-.73,2.76-1.6,3.69S519,64,519.43,65.28a14.65,14.65,0,0,0,2,3.25l.3.24a45.58,45.58,0,0,0,4.39,4.29l.43.33a3.92,3.92,0,0,0,1.62.74c.71-.1.39-1.28.35-1.64a10.66,10.66,0,0,1-.19-1.69c0-.8.3-1.52.29-2.33a5.7,5.7,0,0,0-.71-2.71,18.69,18.69,0,0,0-2-2.53l-.32-.07a3.07,3.07,0,0,0-.07-.42c-1.2-1.6-.54-3.19,1.44-3.49a16,16,0,0,1,3.24.1,6.25,6.25,0,0,0,3.55-.35c1.5-.88,1.61-2.45,3.36-3.18a4.81,4.81,0,0,1,1.8-.31c.5,0,1.26.17,1.68.12,1-.14-.52-1.14-1.38-1.71a9.17,9.17,0,0,1-1.66-1.32l-.84-.32.55-.07a.92.92,0,0,1-.11-.33.62.62,0,0,1,.52-.69h0a1.8,1.8,0,0,1,.73,0h0c-.35-.38-.75-1-.64-1.34l-.17-.1h.21c.26-.25.9-.13,1.61.12A21.48,21.48,0,0,1,544.11,51c1.26.39,2.55.82,3.81,1.2s2,.45,2.22-.07a3.72,3.72,0,0,0,.1-2.09,1.2,1.2,0,0,0-.13-.31h0c-.48,0-1.31-.17-1.87-.23a9.09,9.09,0,0,1-1.27-.21l-.32-.08c0,.26-.44.35-.94.29-1.67-.2-2.79-1.25-4.27-1.94a2.35,2.35,0,0,1-.86-.6l-.4-.2c-2.56-.67-5.14-1.37-7.63-2-2.65-.64-5.37-1.33-7.77-1.69-3-.46-5.83-.7-8.67-1a.39.39,0,0,0-.16.29h0l.45.29a3.43,3.43,0,0,1,1.25,1.23c.43,1-.66,1.4-2.84.41a6.57,6.57,0,0,0-2.51-.82c-.93,0-1.85.07-2.77.17a24.65,24.65,0,0,0-2.65.23,5.48,5.48,0,0,1-1.28,0c-.46-.06-1-.24-1.53-.35v.09c-.06.16-.25.26-.55.28a5.93,5.93,0,0,1-2.59-.79,24.15,24.15,0,0,0-2.81-1.23,8.94,8.94,0,0,0-2.77-.31c-.74-.07-1.68-.41-2.38-.48a10.44,10.44,0,0,0-2,.26,16.3,16.3,0,0,1-5.6-.61A21,21,0,0,1,480.22,39a4.19,4.19,0,0,0-1.64-.65c-.43-.05-.8,0-1.19-.06a11,11,0,0,1-2.49-.39c-.67-.19-1.36-.45-2-.57h0c-.4,0-.79-.06-1.18-.08h-.6a6.24,6.24,0,0,0-2.76.57c-.61.42.58,1.33.7,2,.07.42-.19.75-.79.8a1.85,1.85,0,0,1-.47,0,1.89,1.89,0,0,1,.67.91c.15.88-1.81.52-3.08-.14-.58-.3-1-.71-1.61-1a2.43,2.43,0,0,0-1.7-.15,8.58,8.58,0,0,1-3.7-.72,1.71,1.71,0,0,1,.24.88c-.07,1-1.7,1.21-3.67.32a19.77,19.77,0,0,1-4.47-3A14.09,14.09,0,0,0,448.13,36a6.21,6.21,0,0,0-2.27-.63,5.29,5.29,0,0,0-2.17,0c-.58.2-.67.73-.95,1.12-.67.94-2.25,1.24-4.42.7-1.29-.32-2.58-.76-3.85-1a31.57,31.57,0,0,0-3.61-.59c-1.21-.12-2.37-.17-3.52-.2h-1.66l-2.07.78c-.83.3-2,.51-2.3,1.16-.11.21-.37.27-.68.23a1.4,1.4,0,0,1-1.16-.15c-1.11-.56-2.09-1.34-1.93-2s.89-.79,1.57-1a12.11,12.11,0,0,1,2.09-.31,4.51,4.51,0,0,0,1.72-.72,4.77,4.77,0,0,0,2-1.7,1.57,1.57,0,0,0-.13-1.27c-.62-.16-1.26-.33-1.88-.47a.85.85,0,0,1-.38.09c-.44,0-.89,0-1.33.09-.27.07-.54.13-.83.18a8,8,0,0,1-3.3-.2l-.46-.12c-1.74-.54-3.25-1.69-4.89-2.43a1.14,1.14,0,0,1-.83-.1,1.14,1.14,0,0,0-1.56.39,1.23,1.23,0,0,0-.12.26c-.12.59.11,1.23-.28,1.72-.79,1-2.51,1.56-4.2,1.78s-3.3.16-4.9.32c-.77.38-1.43.85-2.22,1.23a5.62,5.62,0,0,1-3.58.54,8.46,8.46,0,0,1-1.23-.29,1.75,1.75,0,0,1-.55-.12,3.08,3.08,0,0,1-.63,1,2.55,2.55,0,0,1-1.16.74,18.12,18.12,0,0,1-3.6.39c-1,.1-2.49.53-1,1.57.89.61,2.06.59,2.83,1.4s.37,1.55-.53,1.69a8.45,8.45,0,0,1-3.4-.63c-.81-.27-1.61-.59-2.42-.79a3.9,3.9,0,0,0-1.27-.18c-.12,0,0,.11.13.22a4.27,4.27,0,0,1,1.24,1,.86.86,0,0,1,0,1.07c-.56.61-2.1.35-3.19-.06a4,4,0,0,1-1.13-.63,7.37,7.37,0,0,0,.76,2.59,2,2,0,0,0,.5.32,5.09,5.09,0,0,0,1.34.18,10.09,10.09,0,0,1,3.66.93c1.4.74,1.33,1.61.61,2.19-.34.27-1.12,0-1.55-.28l-.38-.23c-.19.19-.57.24-1.1,0a1.54,1.54,0,0,0-.73-.14,1.89,1.89,0,0,0-.05.23,5,5,0,0,0-.06,1.22,3.2,3.2,0,0,1-1.49,3,4.76,4.76,0,0,1-3.46.23h-.65c-1.36,0-2-1.53-.69-1.54a2.94,2.94,0,0,1,1.31-1c1.2-.58,2.11-1.48.77-2.8a6,6,0,0,1-1.63-2,9.61,9.61,0,0,0-.37-1.15c-.19-.37-.47-.5-.84-.8a2.32,2.32,0,0,1-1-1.74c0-.52.38-1-.18-1.62a2.5,2.5,0,0,0-2-.57c-.55.17-.67.83-.92,1.19-.66.94-2.35,1.7-1.66,3.13s2.61,2.67,3.61,4a.54.54,0,0,1,0,.76.5.5,0,0,1-.36.18c-1.44.27-2.71-.42-4-1.18-.5-.28-1-.53-1.54-.77a25.26,25.26,0,0,1-1.14,4.53c-.87,2.37-5,3.88-7.34,6s-6.91,11.45-6.48,12.46,2.16,3.52,1.94,4.17.87,1.73,0,3.36-5.83.53-6,6.35c-.06,2.82-.08,3.88-.09,4.23a33.12,33.12,0,0,1,0,4.88c-.21,2-3,2.56-3.67,1.9s-6-.64-8,0l-1.86.65a3.9,3.9,0,0,0,.38,1.68.88.88,0,0,1-.12,1.23l-.08,0A1.53,1.53,0,0,0,333,97a21.7,21.7,0,0,0,.67,3,1.35,1.35,0,0,1-.42,1.62.66.66,0,0,0,.08.93h0a28.37,28.37,0,0,1,4.42,3.91c.1.12.34.21.46.32,1,.91,1.95,1.83,3,2.73a8.33,8.33,0,0,0,2.53,1.91,21.13,21.13,0,0,1,4,2.36c2.46,1.44,3.62,3,3.35,4.82-.09.62.59,1.1,1.84,1.22a10.49,10.49,0,0,0,2.31.09c3.16-.46,6.36-.88,9.34-1.51a17.08,17.08,0,0,0,5.18-1.81,8.93,8.93,0,0,1,3.47-.87,4.22,4.22,0,0,0,1.37-.48c1.63-.85,3.23-1.71,4.76-2.6.37-.22.72-.53.73-.84a2.2,2.2,0,0,1,1.23-2.27c.92-.49.54-1-.8-1.36s-2.66-.82-4-1.17-1.9-.73-2-1.43a3.05,3.05,0,0,0-.38-.74l-.48-.13c-.67.52-1.41,1-2,1.56a4.42,4.42,0,0,1-3.42,1,8.39,8.39,0,0,0-1.65.29l-1.45-.51c-1.23-.43-2.22-.89-1.8-1.76.06-.12-.19-.38-.42-.48-.77-.35-1.6-.65-2.39-1a5.87,5.87,0,0,1-1.68-.79,4.34,4.34,0,0,0-3.2-1.53,3.22,3.22,0,0,1,2.64-1.24c1.7-.06,2.64.66,3.85,1.1a2.17,2.17,0,0,1,1.09.89,3,3,0,0,0,2.13,1.54c2.44.56,4.89,1.4,7.28.51a1.91,1.91,0,0,1,2.49.66,3,3,0,0,0,2.54.9,27.79,27.79,0,0,1,4.18.17,29.76,29.76,0,0,0,8,0c2.38-.28,3-.12,4.42,1.25,1.18,1.15,1.27,1.14,3.37,1.19a26.56,26.56,0,0,1,2.82.39,7.65,7.65,0,0,1-.27,1.17c-.18.45.27.8,1,.81,1.31,0,2.57-.13,3.83-.23a10.85,10.85,0,0,0,1.75-.32c-.74,2.72,2.09,5,4.71,7.34,1.31,1.16,2.58,2.32,3.9,3.48.33.3.7.59,1.07.88,1,.78,2.12,1.55,3.09,2.35a2.35,2.35,0,0,0,2.51.48,17.59,17.59,0,0,0,2.75-1.45c2-1.33,2.19-2.94.08-4.87-.24-.21-.39-.58-.21-.71,1.58-1.24,3.16-2.47,4.85-3.64s3.65-2.31,5.3-3.53a4.41,4.41,0,0,1,3.93-.61c.83.15,1.67.31,2.51.45,2.49.43,4.5,1.52,6.75,2.3a1.78,1.78,0,0,1,.92.79,8.8,8.8,0,0,0,2.9,3.16c.9.65,1.32.76,2,.31s1.11-.81,1.65-1.22l.51.16c3.24,1,4.76,2.76,7,4.21C463.26,120.18,463.24,120.34,463.25,120.45Z"/><path d="M254.45,96a10.55,10.55,0,0,1-2.22,1,7.57,7.57,0,0,0-1.64.68c-1.15,1.1-2.75,2.19-1.27,3.62a34.22,34.22,0,0,1-4.75,1.55,7.63,7.63,0,0,0-3.91,1.76c-2.23,1.87-4.5,3.73-7,5.54-.84.61-.85,1.06-.26,1.55,1.63,1.34,1.39,2.84.19,4.34-1.34,1.66-1,3.77,1.11,5a9.21,9.21,0,0,1,1.61,1,31.44,31.44,0,0,0,2.74,2.55,68.33,68.33,0,0,0,5.93,3.7,6.91,6.91,0,0,0,2.57.61c2.23.12,4.54,0,6.75.19,5.17.39,9.82-.74,14.51-1.6a8.49,8.49,0,0,1,4.13,0,14.14,14.14,0,0,1,2.75,1.15,4.63,4.63,0,0,0,2.36.75l.53-.13a8.64,8.64,0,0,1,3.75-.2h.09a3.74,3.74,0,0,1,2.55,1.32c.65.92.28,1.87-.17,2.8a2.91,2.91,0,0,0-.22,2.88,7,7,0,0,0,1.1,1.49c.84.55,1.64,1.12,2.39,1.7a3,3,0,0,1,.8,1.09c.16.12.31.25.46.38a2.45,2.45,0,0,1,.92.44,5,5,0,0,1,.64,1,8.87,8.87,0,0,1,1.34,1.77c1.46,2.68-.5,4.88-3.21,7-.73,1.85-.31,3.68,2.34,5.49a5.82,5.82,0,0,1,2.53,3.12c.54,2.46,2.55,4.64,5.15,6.74,1.89,1.51,4.32,2.91,4.23,4.78a1.43,1.43,0,0,0,.77,1,6,6,0,0,0,3.94,1c3.11-.15,6.21-.33,9.32-.43a52.78,52.78,0,0,0,5.89-.51,1.2,1.2,0,0,1,.6-.36A24.51,24.51,0,0,0,329.4,169c1.53-.95,3.07-1.9,4.59-2.86a9,9,0,0,0,1.84-1.41,3,3,0,0,0,.59-1.55c.24-1,1.73-1.64,2.91-2.37,1.64-1,.44-2.15.44-3.34s1.71-2.41,3-3.47c1.83-1.48,3.73-2.94,5.55-4.42a9.2,9.2,0,0,0,.36-6.27,6.84,6.84,0,0,1,.93-6.64c1.59-2.16,4.48-3.85,7.47-5.46,3.17-1.72,6.51-3.38,9.31-5.23a9.54,9.54,0,0,0,.87-4.62c-1.69.23-3.29.51-4.95.67-2.35.23-4.71.48-7.12.55-2.22.06-3.32-.48-4.12-1.66a2,2,0,0,0-.69-.54,37.3,37.3,0,0,0-4.93-2.28c-3.11-1-4.19-2.74-5.58-4.19s-2.24-3-4.42-4.2a2.6,2.6,0,0,1-.69-.63c-1.61-1.85-3.19-3.71-4.73-5.55a3,3,0,0,0,1.06-.29c1.75-1.58.27-3.23-2.4-3.56a21.47,21.47,0,0,0-7.91,0,9.77,9.77,0,0,1-3.1-.07c-1.32-.17-2.61-.47-3.91-.71a17.53,17.53,0,0,1-2.69-.53,11.67,11.67,0,0,0-5.18-.55c-1.64.15-2,.45-1.66,1.43a.86.86,0,0,1-.4.87,14,14,0,0,1-1.81.92,1.4,1.4,0,0,1-.29-.09,8.82,8.82,0,0,0-4.49-1.53,1,1,0,0,1-.71-.51c-.4-1-1.61-1.3-3.1-1.35-.93,0-1.87.06-2.81,0a6.62,6.62,0,0,1-1.6-.2c-.67-.19-1.26-.46-1.81-.67-.08-.69-.11-1.39-.24-2.08s-.41-1.11-.47-1.66-.34-.77-1.13-.79-1.57,0-2.36,0c-2.93.12-5.86.36-8.79.35a23.46,23.46,0,0,0-8.78,1.86,6.18,6.18,0,0,1-2.09.33,22.54,22.54,0,0,1-2.72-.25c-1.11-.13-1.62-.29-1.61-.58a1.38,1.38,0,0,1-.74-.21C256.18,94,255.55,95.11,254.45,96Z"/><path d="M241.3,42.28l.91-.33v-.3h-3a2.62,2.62,0,0,1-.88-.37,5.75,5.75,0,0,1,.9-.73c.21-.12.6,0,.82-.15.61-.34,1.48-.69,1.7-1.12.46-.88.27-1.87,1.43-2.63a.15.15,0,0,0,.07-.14c-.56-1,.68-1,1.39-1.29a3.34,3.34,0,0,0,1.25-.69,37.22,37.22,0,0,0,2.14-3.1c.43-.65.34-1.18-.42-1.5-.32-.14-.73-.29-.83-.53a1.53,1.53,0,0,1,0-1.15,2,2,0,0,1,1.2-.19,10.15,10.15,0,0,1,1.72.92,4.67,4.67,0,0,0,.88-1.36c0-.2-.77-.37-1.13-.6s-.75-.43-.79-.72c-.08-.54-.41-.71-1-.7h-1.17A6,6,0,0,1,249,23.29c.36-.14.87-.69.83-.91-.18-.95.53-1.08,1.33-1.21A2.73,2.73,0,0,0,252,21a13,13,0,0,0,2.51-1.55,2.47,2.47,0,0,1,.94-.69c1.22-.43,2.44-.88,3.62-1.4.27-.11.6-.54.57-.75A.86.86,0,0,0,259,16c-1.64-.07-3.29-.07-4.94-.06a1.06,1.06,0,0,0-.66.23c-.65.77-1.33.58-2.09.51a3,3,0,0,0-1.44.21c-1.47.67-2.91,1.43-4.37,2.15l-.18-.22,3.32-2.88-2.41-1,1.79-.82-1-.49c-.64-.31-1.27-.61-1.92-.9-1.63-.73-3.12-1.57-5.37-1.33a32.5,32.5,0,0,1-6-.05,6.4,6.4,0,0,0-3.41.7,5.18,5.18,0,0,1-2.35.53h-9.27c.14.52.22.84.32,1.2l-1.27.24c.28.47.51.84.65,1.06-1.29-.3-2.67-.67-4.12-.93a5.59,5.59,0,0,0-1.51.28l.3,1.05a1.82,1.82,0,0,1,0,.33c-.77-.28-1.64-.38-2-.81a2,2,0,0,0-1.81-.35c-2.43.35-4.87.69-7.33,1.08a4.68,4.68,0,0,0-1.29.53c-.41.29-.83.56-1.27.81-2.91,1.2-5.81,1.74-8.76,2.69a6.06,6.06,0,0,0-1,.55c.22.14.37.39.66.4,1.64.06,1.66,0,1.36,1.57a23.5,23.5,0,0,1-3.11.64,36.17,36.17,0,0,0-6.73,1.58,15.21,15.21,0,0,0-1.84.83,3,3,0,0,0-.2.29l3.46,1.17c-.38.17-.64.3-.91.41-1.06.41-1.53,1.26-.87,1.63a3.11,3.11,0,0,0,.79.23,30.62,30.62,0,0,0,9,.85c2.46-.1,4.25.6,4.73,2.38a3,3,0,0,0,.56,1.18c1.13,1.31,1.12,2.77-.83,4.66-1,.93-.62,1.41.66,1.48a4.31,4.31,0,0,0,2.8-1.06c.6.61,1.2,1.21,1.87,1.86-1.31.41-2.61,1-3.78.55a1.53,1.53,0,0,0-1.61.56c-.13.14.17.42.28.63a.69.69,0,0,1,0,.13l-1,.48a5.54,5.54,0,0,0,2.15.76,11.7,11.7,0,0,0,2.8-1c-.23.68-.46,1.24-.62,1.8-.19.72-.7,1-1.67,1a4.19,4.19,0,0,0-2.07.58,6.11,6.11,0,0,0-1.77,2.72,7,7,0,0,0,.76,3.23c.79,2,1.75,3.88,2.64,5.83.17.37.43.55,1.08.57a6.87,6.87,0,0,1,3.58.83,4.37,4.37,0,0,0,3.35.06c1.66-.46,2.52-1.32,2.16-2.32-.25-.73.26-1,1.19-1.48,1.42-.72,3-1.52,3.2-2.8.16-1,1.1-1.5,2.27-1.83a18.7,18.7,0,0,1,2.78-.54c2.4-.28,4.53-.68,6.38-2.4a7.83,7.83,0,0,1,5.5-2.19,21.46,21.46,0,0,0,8.6-1.87A40,40,0,0,1,241.3,42.28Z"/><path d="M581.24,179.9a3.2,3.2,0,0,0,.68-.42c.34-.35,1.14-.37,2.16-.25,1.54.19,2,.06,1.42-.59-1.29-1.35-.72-2.35-.11-3.36a1.05,1.05,0,0,0,.13-1,15.86,15.86,0,0,0-1.71-3.13c-1-1.35-2.33-2.68-5.79-3.81-1.68-.55-3-1.36-4.6-2a15.44,15.44,0,0,0-1.53-.35,11.57,11.57,0,0,1-2.08-.62,15.55,15.55,0,0,0-4.44-1.56,13.59,13.59,0,0,1-4.22-1.56c-1.13-.68-2.29-1.35-3.52-2-.52-.27-1.29-.47-1.91-.72s-1.44-.6-2.05-.92c-1-.55-1.94-1.14-3-1.69a3.52,3.52,0,0,0-1.27-.34c-.34,0-.58.25-.55.45s.37.54.62.82c1,1.09,2,2.19,2.95,3.28.75.9,0,1.17-2.12.77a21.9,21.9,0,0,1-2.27-.51,20.76,20.76,0,0,0-6.39-1.19,4.25,4.25,0,0,0,.36-1.31,5.57,5.57,0,0,0-.42-1.25l-2.63-.17a7.42,7.42,0,0,1-1.76-.12,4.89,4.89,0,0,0-3.31-.17,5.4,5.4,0,0,1-1.38.24c-1.67.08-1.9.66-1.67,1.39a7.78,7.78,0,0,0,.69,1.31l-3.63-.74c-1.74-.34-2.66-.2-2.5.56s-.56,1.15-2.33,1.07c-1.2,0-1.6.27-1.43.81a4.73,4.73,0,0,1,.37,1.32.69.69,0,0,1-.61.65c-1.93.36-4,.65-6,1-.86.12-1.82.17-2.66.31-1.93.31-2.49,1.18-1.57,2.24.61.71,1.4,1.42,1.1,2.1-.07.15.26.43.55.63,2.53,1.68,5.07,3.36,7.75,5,.83.51.69.68-.24.79s-.85.38,0,.78a10.41,10.41,0,0,0,3.64.81c2,.13,3.62.12,4.49-.55a1.72,1.72,0,0,1,.64-.11c1.77-.05,3.49-.19,5.34-.11,1.42.06,2.17-.12,2.58-.57a4.43,4.43,0,0,1,3-1.06,11.65,11.65,0,0,0,1.66-.24c3.42-.74,7.48-.3,11.93.76A9.17,9.17,0,0,1,557,176c.24.17.58.34,1.15.66a11.79,11.79,0,0,1,1-1.24,1.1,1.1,0,0,1,.78-.28,4.28,4.28,0,0,1,1.42.53,5.27,5.27,0,0,0,3.17,1.63,4.6,4.6,0,0,1,1.08.43,22,22,0,0,0,6.63,1.93c2.27.39,4.47.81,4.41-.49.89.26,1.57.42,2.11.64A2.65,2.65,0,0,0,581.24,179.9Z"/><path d="M534.61,148.43a19.29,19.29,0,0,1-2.4,1c-.87-.57-1.57-1.06-2.36-1.52a5.68,5.68,0,0,0-1.66-.76,36.07,36.07,0,0,0-4.16.15c-.23,0-.2.37,0,.57a3,3,0,0,0,1,.33c1.08.16,2.15.27,3.59.44l-.55.75c.88.2,2.17.57,3.44.78,1.9.31,3.78.46,5.69.75,1.52.24,2.82,1.09,2.48,1.55s.22.89,1.66,1h1.39a10.47,10.47,0,0,1,1.53.16c.53.08,1.26.27,1.89.4a13.22,13.22,0,0,1,1.66.35c1.21.47,1.72.37,2,0a6.67,6.67,0,0,1,.35-.71.77.77,0,0,1,.57-.3,9.22,9.22,0,0,1,4.34.69,27.38,27.38,0,0,0,7.75,1.51,10,10,0,0,0,1.09-.06,8.68,8.68,0,0,0-3.32-.9,11.21,11.21,0,0,1-4.45-1.93,6.8,6.8,0,0,0-3.24-1.55c-2.39-.45-4.78-.87-7.16-1.33s-4.83-.88-7.21-1.45S535.73,147.72,534.61,148.43Z"/><path d="M492.06,132.34a4.29,4.29,0,0,0-.07.5c-.08,1.14.42,1.51,2.79,2.36a4.74,4.74,0,0,1,1.74,1.07,3,3,0,0,0,2.23.89,51,51,0,0,1,9.34,1.53c1.14.27,1.9.26,2-.25a17.28,17.28,0,0,0,.35-2.27c.07-.68,0-1.38.12-2a1,1,0,0,1,.74-.65c1.28-.44,1.29-.52-.36-1.3a6,6,0,0,1-1-.44,11.66,11.66,0,0,1-2.21-2c-.15-.23.87-.49,1.51-.63.92-.2.67-.5-.26-.87-.63-.25-1.34-.44-2-.68a3.25,3.25,0,0,1-1.1-.55,2.11,2.11,0,0,0-2.37-.58c-.69.21-1.41.54-1.52,1-.41,1.57-2.53,2.31-5.16,2.82-1,.21-1.46.57-1.28,1.2a7.41,7.41,0,0,1,.1,1.24,10.66,10.66,0,0,1-1.19-.44C492.38,131.21,492.35,131.21,492.06,132.34Z"/><path d="M372.58,147.42a3.18,3.18,0,0,0-1.36-.27c-.93.56-2.22,1.11-2.48,1.8-.33.84-1.2,1.21-2.7,1.37-1.22.13-2.49.22-3.76.27-1.9.08-2.51.64-1.62,1.51a23.59,23.59,0,0,0,2,2c.83.65.72,1.17-.1,1.65-1.81,1.05-1.62,2.29-.82,3.62s3,2.25,6.18,2.27c2.16,0,3.35-.72,3.67-2.16.52-2.34-.25-4.83,2-7,.3-.29.05-.72.2-1.06a1,1,0,0,1,.73-.54c1.17-.12,1.19-.51.78-.94A34.09,34.09,0,0,0,372.58,147.42Z"/><path d="M514.64,95.9c.16-.53.68-.82,1.84-.78A9.25,9.25,0,0,0,518,95c1.41-.13,2.44-.37,2-1.46a23.91,23.91,0,0,1-.73-3.46,3.32,3.32,0,0,0-1.88-2.36c-1-.58-2.09-1.14-3.07-1.74-.3-.18-.63-.52-.55-.63s.61-.09,1,0a11.64,11.64,0,0,0,1.58.31c.47,0,1.16,0,1.26-.14.35-.6,1.37-.66,2.71-.55l-.47-1.08c-2.93-.92-5.42-1.61-7.93-2.36-1-.31-1.71-.32-1,.33a2.23,2.23,0,0,1,.78,2.82c-.1.39.39,1,.74,1.51.58.88,1.29,1.77,1.89,2.65.28.41.24.81.64,1.21.84.85-.07,1-.8,1.19a12.24,12.24,0,0,1-2.42-.13,10,10,0,0,0,.41,1.2c.24.52-.48,1.58-1.3,1.51a8.81,8.81,0,0,0-6.08,1.51c-1.63.89-1.43,2,1.32,3.41a2.5,2.5,0,0,0,2.05.41c1.22-.46.52-2-1.62-3l4.82-.9a8.07,8.07,0,0,1-2.08.8c-.4.14-.84.32-.87.58s1,.69,1.34.73a3.49,3.49,0,0,0,1.6-.2c.3-.09.34-.35.58-.49a1.17,1.17,0,0,1,.75-.2C513.89,96.64,514.49,96.41,514.64,95.9Z"/><path d="M261.61,65.41c-.19.83.1,1.22,1.28,1.53.46.12.84.37,1.31.46,1.3.26.84,1.16,1.33,1.71l-1.91.76c-.21.08-.57.08-.66.18-.24.29-.63.69-.5.9.64,1,.42,1.84-.78,2.67a9.44,9.44,0,0,0-1,1l.2.28c1.22-.13,2.45-.22,3.65-.41,1.37-.22,2.71-.57,4.07-.8.91-.15,1.86-.16,2.77-.3a1.5,1.5,0,0,0,.89-.49c.25-.36.16-.83.49-1.12a6.57,6.57,0,0,1,1.55-.7,1,1,0,0,0-.22-.18c-.77-.36-1.58-.68-2.32-1-.42-.21-1.08-.48-1.08-.74,0-.73-.81-1-1.38-1.38a18.46,18.46,0,0,1-1.82-1.26c-1-.89-1-1.14.27-2a1.78,1.78,0,0,0,.55-.43c.15-.22.32-.51.23-.71s-.57-.16-.9-.17h-2.1l.49-.82-.6-.28c-1.29-.57-1.51-.53-2.49.42a1.52,1.52,0,0,1-.63.46c-1.14.29-.94.8-.76,1.35A2.28,2.28,0,0,1,261.61,65.41Z"/><path d="M488.43,136.85c-.06,0-.28-.28-.48-.31a13.78,13.78,0,0,1-5.66-2.16,16.28,16.28,0,0,0-2.79-1c-1.74-.59-3.47-1.2-5.23-1.76-1.3-.42-2.7-.7-3.95-1.15s-2.58-1.1-3.9-1.62a8.26,8.26,0,0,0-1.62-.44c-1-.18-2-.34-3-.46a15.14,15.14,0,0,0-1.65,0c.21.35.22.8.66,1a15.23,15.23,0,0,0,2.8.9,15.85,15.85,0,0,1,4.88,2.08,32.28,32.28,0,0,0,2.88,1.73c1.85,1,3.73,2,5.73,2.85,3.28,1.48,6.28,3.28,10.8,3.65.77.06,1.34.17,1.25-.25C489,138.91,488.71,137.93,488.43,136.85Z"/><path d="M519.49,137.06a4.58,4.58,0,0,1,.46.42c.29.25.6.49.93.73.73.53,1.49,1,2.24,1.57a7,7,0,0,0,2.13.39c.55,0,1.39.06,1.47-.08a.75.75,0,0,0-.37-.94c-2.06-.77-2.85-2-5.24-2.66a1.28,1.28,0,0,1-.73-.45c0-.12.28-.23.55-.27a12,12,0,0,0,1.55-.13c.4-.13.5-.34.73-.52-.44-.17-.89-.32-1.34-.45a3.59,3.59,0,0,0-3.58.66c-.6-.15-1.06-.23-1.47-.38a2.13,2.13,0,0,0-2.1,0c-.81.57-.3,2.08,1.11,2.83a4.45,4.45,0,0,1,2.2,1.88c.29.71,1.58.78,2.6.85s1.15-.28.72-.74c-.7-.76-1.45-1.52-2.15-2.28a1.11,1.11,0,0,1-.24-.5A1.88,1.88,0,0,1,519.49,137.06Z"/><path d="M511.05,77.15c.23-.71-.46-1.21-1.39-1.73a26.26,26.26,0,0,1-5.84-4.31,8,8,0,0,0-3.3-2.31c-.41.58-.13,1.23.59,2a8.73,8.73,0,0,1,.68.68c1.71,1.74,3.42,3.48,5,5.22a11.92,11.92,0,0,1,1.28,2l1,1.69.45.19c.28-.76,1.47-.51,3-.08a5.8,5.8,0,0,0-1.31-1.26c-1.62-1.08-3-2.11-2-3.16Z"/><path d="M256.19,68.24c-1,0-1.55.33-1.34,1s-.11,1-.63,1.54c-1.1,1.06-.74,1.54,1.5,1.58a13.42,13.42,0,0,0,2.68-.3c.92-.26,2.28-.8,2.38-1.26a10.22,10.22,0,0,1,.87-2.9c.08-.14-.41-.57-.66-.57a6.89,6.89,0,0,0-2.55.33A4.44,4.44,0,0,1,256.19,68.24Z"/><path d="M510.25,142.12c-1.21-1.06-2-1.22-4.12-1.1-2.44.13-4.94.2-7.44.27a9.21,9.21,0,0,1-1.48-.18l-6.83-1c.27,1.23,1,1.73,2.64,1.7,5.1-.11,10.72,1.4,15.89,1.5a.83.83,0,0,1,.34.05l5.34.32c-2.45-1.3-4.86-.89-7.11-1.67Z"/><path d="M586.24,182c-.22-.4-.62-.56-1.48-.44a22.76,22.76,0,0,1-2.5.23,6,6,0,0,1-3.18-.4c-.14.55,0,1,1.24,1.42a31.59,31.59,0,0,1,3.25,1.35,3.56,3.56,0,0,0,2,.38,8,8,0,0,0,1.1-.07c.32-.09.75-.22.69-.38C587.05,183.41,586.61,182.7,586.24,182Z"/><path d="M515.52,126.2a1.88,1.88,0,0,1,1.83.29l2.87,1.67a21.42,21.42,0,0,0,1.87-1.94c.35-.47-2.71-2.91-4-3.28h-.23c.45,1-.53,1.7-2.54,1.83-1,0-1.91.08-2,.65-.06.36-.14.72-.21,1.08l.32.21A12.5,12.5,0,0,0,515.52,126.2Z"/><path d="M187.82,138.43a7.73,7.73,0,0,1-3.49-.89,18.45,18.45,0,0,0-5.44-1.13,1.89,1.89,0,0,1-.87-.21,14.37,14.37,0,0,0-2.62.27,11,11,0,0,1-2.34.44,2.39,2.39,0,0,1-1.93-.78H171l.11-.06a1,1,0,0,1,0-1.16l-.4-.11c-.58-.13-1.27-.14-1.85-.28a4.75,4.75,0,0,1-1.77-.77,14.82,14.82,0,0,0-2-.13,2,2,0,0,0-1.15-.47c-1.83-.21-2.74-.63-2.09-1.8.21-.38-1.36-.76-1.32-1.21s.79-1.17,0-1.6-1.92-.87-2.81-1.34a7.92,7.92,0,0,0-5.11-.67c-2.37.37-3.16-.61-4.67-1-.31-.07-.13-.54-.2-.81a.46.46,0,0,0-.23-.33c-1.19-.49-2-1.28-4.32-.85,1.43-1.13,1.4-1.17-.71-1.34a6.75,6.75,0,0,1-1.22-.22c.28-.32.48-.53.7-.77a9.07,9.07,0,0,0-4.84.43,3.77,3.77,0,0,1-1.09.26c-1.7-.14-3.37-.31-5-.52a1.59,1.59,0,0,1-1-.47c-.49-.65-1.76-.65-3-.61-2.11.06-3.53.88-3.62,1.94,0,.23-.36.5-.55.75h-.44c-.15-.17-.51-.34-.41-.51a6,6,0,0,1,4-2.79,11.1,11.1,0,0,0-4.25.44,23.34,23.34,0,0,1-2.5.44c-1.69.24-3.31.39-4.62,1.37a33.18,33.18,0,0,1-3.23,1.84c-1.72-1.18-4.11-1.4-7.45-.71-1.67.35-3.12.36-3.38-.56,0-.06-.12-.11-.22-.15-2-.84-1.07-2.06.44-3.4a14,14,0,0,0,1.93-2c.19-.25,0-.6-.33-.76-1.52-.78-4.08-.51-6.38-.49H93a13.21,13.21,0,0,0,1.43-.78,21.36,21.36,0,0,1,3.44-2.54c1-.64,2-1.46,3-2.2.81-.61.67-1-.47-.93-1.43,0-2.94.23-4.4.31A4.47,4.47,0,0,0,92.59,111a4.44,4.44,0,0,1-3.13,1.4c-2.36.13-5.26.91-6.84,0a3.24,3.24,0,0,1-.92-.64c-.16-.21,0-.55-.18-.74-1.33-1.21.46-2.84,1.31-4.34a3.33,3.33,0,0,1,1.34-1.21,4.34,4.34,0,0,0,2.28-2.24c.47-.89,1.22-1.28,3-1.61a16.81,16.81,0,0,0,2.2-.54,12.51,12.51,0,0,1,6.47-.61,7,7,0,0,0,4.55-.1c2.61-1,6.28-1.18,7.82-.34a2.71,2.71,0,0,0,1.38.17c1.83-.19,2.51.34,2.42,1.26a11.5,11.5,0,0,0,.4,3.83c.14.56,1.29.52,2.1-.06a4.92,4.92,0,0,0,1.7-1.81,4.68,4.68,0,0,0,.11-2.49c-.37-1.67.93-3,4.15-4.11,2.68-1,5.32-1.94,8-2.91l.4-.15c2.48-.81,2.51-.82,2.16-2.07-.09-.3-.46-.52-.62-.7a10.79,10.79,0,0,1,.67-1,7.76,7.76,0,0,1,.65-.63c.3.17.29.26.3.36s.07.48.11.72a10.09,10.09,0,0,0,3.47-1.57,13.35,13.35,0,0,1,2.68-1.7,25.05,25.05,0,0,1,4.93-1.07c1.41-.16,1.75-.18,2.13-1,.14-.31.05-.62.28-.92a2.52,2.52,0,0,1,1.13-.91,28.17,28.17,0,0,1,4.08-.75c1.57-.15,2.6-.7,2.69-1.55a.48.48,0,0,1-.52-.38A1.93,1.93,0,0,1,156,78.8c.23-.63.64-.89,1.62-1l.17-.08c1.17-.5,2.71-.94,3.7-1.41h0a1.18,1.18,0,0,0-.4-.25,6.37,6.37,0,0,0-2.22,0,25.74,25.74,0,0,0-2.61.55A22.93,22.93,0,0,1,153.69,78a2.42,2.42,0,0,1-1.3.19l-.77.43c.14-.19.29-.38.45-.56a.39.39,0,0,1-.17-.21c-.48-1.31,2.39-2.27,4.35-2.73a11.47,11.47,0,0,1,3.94-1.36,6.7,6.7,0,0,1,3.31.48,2.21,2.21,0,0,1,.76-.26,15.27,15.27,0,0,1,3.31-.06,31.48,31.48,0,0,0,4-.26c.89-.12,1.8-.26,2.71-.43a16.55,16.55,0,0,1,2.61-.63,2.66,2.66,0,0,0,2-1.7,2.74,2.74,0,0,1-1.36-.17,1.27,1.27,0,0,1-.34-.27c-.24.09-.49.17-.74.24-2.36.64-4.15-.15-3.51-1.66.16-.39.46-.75.41-1.12a3.48,3.48,0,0,0-.66-1.15,4.31,4.31,0,0,1-.59-2.19c0-1.43.38-3-.33-4.18h0a14.83,14.83,0,0,0-1.26.95c-1,.7-2.39,1.12-3.21.6a6.55,6.55,0,0,1-1.71.19,4.51,4.51,0,0,0-.72.12c-.25-.42-.31-.91-.75-1.16-.73-.42-.4-1,0-1.64a7.76,7.76,0,0,1,1-.93l-1.64-.77a13.9,13.9,0,0,1-2.64-1.4,4.09,4.09,0,0,0-2.77-.57,15.08,15.08,0,0,1-3-.27,2.74,2.74,0,0,0-2.66,1.18,2.19,2.19,0,0,0-.23.83c0,1.23-.71,2.35-3,3.35-1.15.51-1.3.94-.66,1.34,1.91,1.19,1.9,1.35-.16,3.45A4,4,0,0,1,145.28,67h-.49c-1.39.08-1.66.21-1.85,1.09s-.07,1.41-.23,2.14a2,2,0,0,1-.76,1c-.89.63-2.17,1.28-3.09,1s-1.86-.87-1.66-1.48c.32-1,.31-2,1.89-3,.63-.43.53-.76-.2-.82a17.56,17.56,0,0,0-2.4-.23c-2.84.07-4.52-.68-5.74-1.85a3.49,3.49,0,0,0-1.77-1,2,2,0,0,1-.53.33c-2.65,1.17-5,.75-4.18-1,.24-.48.46-.77.11-1.07s-.54-.45-.54-.81a3.87,3.87,0,0,1,1.46-2.22,20.64,20.64,0,0,1,5.87-3.65,17.71,17.71,0,0,0,2.17-1c.41-.23.8-.47,1.23-.68a13.78,13.78,0,0,1,3.07-1,10.24,10.24,0,0,0,2.71-.77,17.6,17.6,0,0,0,2.54-1.83,10.83,10.83,0,0,1,6-2,6.16,6.16,0,0,0,3-.75,11,11,0,0,0,2.09-2,5.89,5.89,0,0,0,1.07-1.7,3.28,3.28,0,0,1,1.55-1.57c1.78-1,3.09-.44,4.29-.15l.11-.1.44.22a6.44,6.44,0,0,1,2.16.47c.46.28.09,1,.54,1.22s.23.54-.08.86a.88.88,0,0,1-.11.39h-.49a19.15,19.15,0,0,0-1.83,1.13c-.37.27-1,1-.13.63a11,11,0,0,0,1.39-.85,6.8,6.8,0,0,1,1.81-.85c3.24-.91,3.23,1.64,1.14,3.17a4.32,4.32,0,0,1-1.8.81h-.3l-.13.18a2.43,2.43,0,0,1-.72.84,4.94,4.94,0,0,1-3.18,1.27c-.56,0-2.34.07-2.5.63-.06.24.1.43.36.58h3.63a1.33,1.33,0,0,1,.71.14c.48.45.85,1,1.36,1.41.68.58.8,1.58,2.7,1.28a2.41,2.41,0,0,1,.79.24l4.13,1.41.39-.18a1.28,1.28,0,0,0-.12-.61c-.55-.75-1.16-1.48-1.68-2.24-.1-.15,0-.42.07-.63l.36-.09.34.28A10.23,10.23,0,0,0,171.68,55a1.54,1.54,0,0,0,2-.19,5.24,5.24,0,0,1,1-.44,2.42,2.42,0,0,0-.66-2.9,21.12,21.12,0,0,1-1.93-2.08l.33-.34c.51-.11,1-.26,1.53-.33,1.42-.21,1.59.55,2.05,1.08s.89,1.05,1.29,1.53c1.52-.81,2.72-1.44,3.9-2.08l2-1.11a9.39,9.39,0,0,1-1.38-.78,3.65,3.65,0,0,0-2.45-.73c-.66,0-1.48-.21-1.59-.57-.22-.66-1-.58-1.78-.55a1.32,1.32,0,0,1-.94-.27,2.73,2.73,0,0,1-.32-1,9.61,9.61,0,0,1,1.43-.64,17.47,17.47,0,0,0,1.83-.8c.19-.1.38-.55.27-.59-1-.46-1.67-1.17-3.53-.8.48-1.69-.74-2.3-2.65-2.49a4.46,4.46,0,0,1-2.88-1.45c-.32-.31-.7-.57-1.18-1l.68-1.07c-.24-.06-.49-.11-.74-.15-2-.18-4-.25-5.83-.54a10,10,0,0,0-4.1.47c-.85.24-1.84.54-2,1.24-.16.92-1.39,1.59-2.28,2.5-.08-.5-.16-.88-.2-1.28-.07-.85.39-1.35,1.85-2,.93-.38,1.86-.71,3-1.14-1.66-.6-3.87,0-5.9.37a1.4,1.4,0,0,0-.44.22c-1.4,1.1-2.9,2.17-4.18,3.31-1,.84-.72,1.31.37,1.44l1,.11-.14.15-1.82.31-.23.27c.77.26,1.57.49,2.3.78a5.71,5.71,0,0,1,1.7.83c.45.39-.73.92-1,1.36-.72,1.35-2.44,2.15-4.11,3a1.76,1.76,0,0,1-1.13.14c-.16-.17-.06-.54.15-.82a5.79,5.79,0,0,1,1.08-.75c.61-.39.76-.68.35-.9a3.72,3.72,0,0,1-.48-.41c-.46-.39-1.15-.29-2.09.26-.4.24-.85.43-1.52.77a6.63,6.63,0,0,1,.43-.94c.41-.6.56-1.06-.39-1.13-.23,0-.3-.45-.11-.67,1.32-1.5,1.18-2.56.49-3.48-.23-.32-.4-.68.45-1.21s1.44-1.22,2.3-.8a2.88,2.88,0,0,0,1.29-.27,25.44,25.44,0,0,0,2.55-1c.47-.22,1.17-.67,1.22-.88s-.3-.52-.67-.6a11.88,11.88,0,0,0-2.3-.23,10.43,10.43,0,0,0-5.07,1c-.89.42-1.27.79-1.23,1.3a4.45,4.45,0,0,1-.08,1.5,2.55,2.55,0,0,1-2,1.58,6.75,6.75,0,0,0-3,1.72c-.67.53-.72.87-.24,1.07a8.94,8.94,0,0,0,1.81.67c.77.16.88.53.45,1.19a3.07,3.07,0,0,1-1.9,1.19,2.91,2.91,0,0,0-1.8,1.11,2,2,0,0,1-2,.9c.23-.64,1.83-1.47.76-1.85,1.2-.61,2.59-.3,3.25-1.3-.62-.53-1.15-1.05-1.77-1.5a1.56,1.56,0,0,0-1,.07,7.39,7.39,0,0,1-3.17,1.14,6.13,6.13,0,0,0-1.21.65c.17.12.28.3.52.37.5.14,1.06.23,1.59.34-1.38,1.08-2.61,1.7-3.89,1.29a3.69,3.69,0,0,0-1.48,0,5.08,5.08,0,0,1-3.64-.51,4,4,0,0,1-.51-.41,10.42,10.42,0,0,0-1.58,0,6.78,6.78,0,0,0-1,.19,3,3,0,0,1-.43.12h-.13c-.6.17-1.23.39-1.83.6a2,2,0,0,1-.48.12,7.62,7.62,0,0,1-.82.22c-.18.36-.35.73-.53,1.09a1,1,0,0,1-.35-.75,1.31,1.31,0,0,0,0-.28h-.17a4.28,4.28,0,0,0-1.59-.22c-.91.1-1.93.39-2.86.52-1.28.19-2.75.27-3.29-.22a.55.55,0,0,1-.18-.38h-.84l.86-.26a3.46,3.46,0,0,1,.23-.74c.07-.26.08-.48-.36-.52a9.22,9.22,0,0,1-1.66-.14,2.17,2.17,0,0,1-1.24-.86,5,5,0,0,1-3.16-1.42c-.46-.56-1.07-.46-2.56.28-1.32.66-1.88.62-1.7-.09,0-.21,0-.55-.13-.52a6.77,6.77,0,0,0-1.32.5,3.72,3.72,0,0,0-.48.27c-.78.49-1.33.57-1.41.19a8.55,8.55,0,0,1,0-1.6,2.73,2.73,0,0,0-.1-.48,11.09,11.09,0,0,0-1.12.48c-1.31.8-2.73,1.28-3.25.85-.78-.64-2.37-.12-4,.33a7.53,7.53,0,0,1-2.24.52c-1-.39-2.46.1-4.07.67-1.22.43-2,.49-2.51.09a9,9,0,0,0-2.35-1.09c-.64-.24-1.84-.2-2.06-.62-.32-.6-1.23-.52-2.57-.27-.73.14-1.64.21-1.86,0-.49-.49-1.49-.55-2.7-.51a3.22,3.22,0,0,1-1.34-.17A5.08,5.08,0,0,0,59.2,41c-.44.1-1.06,0-.94-.18.82-.94-.21-.87-1.17-.75-1.49.19-2.44.06-3-.39A1.87,1.87,0,0,0,53,39.59c-1.58.23-3.22.5-4.86.78-.36.06-.83.26-1.24.37a16,16,0,0,1-2.56.65,7.26,7.26,0,0,0-2.78.77,13,13,0,0,1-5.86,1.66,2.94,2.94,0,0,0-.78.17c-.7.2-1.42.43-2.13.64a2.1,2.1,0,0,0,.1.81c.3.46.85.8,1.08,1.29.31.69.58,1.38,2.21,1.38.32,0,.46.14.88.28a19.09,19.09,0,0,1-4.91.8C32,49.19,32,49,32,48.9c.41-.71-.35-.74-1.53-.51-1.72.34-3.49.73-5.25,1.1-1.3.28-2,.68-1.9,1.17s.17,1.06,1,1.11c1.95.11,3.21.8,6.34,0,.48-.12,1.11-.07,1.12.11.05.53-1.6,1.42-2.83,1.58-.46.06-1,.22-1.51.32a8.82,8.82,0,0,1-1.85.3,6,6,0,0,0-3.43.84c-.66.32-1.54.45-2.24.76A27,27,0,0,0,17.38,57c-.08,0,.35.24.57.35h.32a4.07,4.07,0,0,1,.41.42c-.46.18-.94.4-1.38.53s-.9.18-1.37.27c-.49,1,.77,1.35,2.92.91a2.69,2.69,0,0,1,1.54,0c.12.09-.6.67-1.13,1-1.12.62-1.12,1-.81,1.23s1.11,0,2-.31l1.67-.66c-.43,1.34,2.23.7,3.9.69a13.1,13.1,0,0,0-2,.86c-.87.95-2.33,1.27-3.67,1.72-1.5.51-3,1-4.53,1.48-.25.07-.49.11-.73.16-1.37.26-2.71.48-4.12.8-3,.69-6,1.43-9,2.15a9.55,9.55,0,0,0-1.08.3,9.34,9.34,0,0,0-.89.46,1.93,1.93,0,0,0,.67.12,12.24,12.24,0,0,0,1.2-.27c2.22-.47,4.44-1,6.62-1.41,2-.41,3.93-.62,6-1.17,4.79-1.33,9.57-2.75,14.3-4.16,1.36-.79,2.71-1.58,4.13-2.32a39.22,39.22,0,0,1,4.55-2,13.17,13.17,0,0,1,4.1-1c1.69.16-.72,1.42-2.37,2.32a6.53,6.53,0,0,0,1.76.27,7.65,7.65,0,0,0,2-1c2.93-2.11,5-.57,6.53-.4.37,0,.43.19.3.39a1.65,1.65,0,0,1,.7,0,25.14,25.14,0,0,0,3,.27,4.29,4.29,0,0,1,2.25.88A9.67,9.67,0,0,0,57.17,61a9.81,9.81,0,0,0,2.43.65c2.74.59,2.21,2.67,1.66,4.63a4.34,4.34,0,0,0,0,2.89,3.46,3.46,0,0,1,.41,2.9,1.47,1.47,0,0,1-.1.22c.36,0,.55.21.36.53l-.85,1.45a2.85,2.85,0,0,1,.3,2.58c-1,2.9-5.33,6.21-8.21,9.25a2.63,2.63,0,0,1-1.39.67,1.88,1.88,0,0,0-.32,1c0,.28-.24.59-.24.86a11.25,11.25,0,0,0,.11,1.53c0,.12.23.19.23.31v2.62a.39.39,0,0,1-.21.35c-1.11.62-.49.77.13.84,2.54.31,3.35,1.31,3.34,2.77a21.32,21.32,0,0,0,.71,4.2c0,.23.12.46.18.72l-1.6.24c-.27.75.35,1.08,1.28,1.29,1.52.34,1.59.6.73,1.66-.2.25-.26.55-.1.72a17.27,17.27,0,0,0,2,1.72,1.58,1.58,0,0,0,1,.15,2.35,2.35,0,0,0,1-.46c.5-.46.53-.81-.22-1a.61.61,0,0,1-.54-.47,19.26,19.26,0,0,0-.09-3.22,25.48,25.48,0,0,0-1.3-2.55c-.23-.62-.46-1.3.84-2.15,1.91,0,2.29.6,1.84,1.63a2,2,0,0,0,.25,2c.71,1,2.38,1.57,1.63,3-.08.15.17.27.27.4,1,1.25,2.11,2.47,3,3.77.19.27-.2.85-.7,1.21-1,.71-1.07,1.18-.62,1.69,1.39,1.56,4.61,2.16,7.27,3.06a39.52,39.52,0,0,0,4.69,1,9.45,9.45,0,0,0,4.1,0,3.62,3.62,0,0,1,2.88.28c.65.54,1.23,1.1,1.9,1.63a2.13,2.13,0,0,0,.93.36,24.16,24.16,0,0,0,4.32.6c3,0,3.43,1,3.71,2.15A2.88,2.88,0,0,0,96.6,123c1,.28,1.24,1.12,1.88,1.77,1.6-.76,2.32-.54,3-.14a2.77,2.77,0,0,0,.73.26c1.21.32,2,.12,2.5-.71.3-.48.73-.58,1.51-.57s2.68.94,2.39,1.6a18.09,18.09,0,0,1-2.22,3.74c-.81,1.08-3.59,1.36-4.85,2.47-.83.72-2.76,1.31-4.27,1.91-1.11.44-2.74,1.73-2.33,2.11.65.61,2-.07,3-.19.23,0,.47,0,.7,0a10.25,10.25,0,0,1-1.84.7,8.7,8.7,0,0,0-4.22,1.73c-.23.18-.4.43-.32.59.32.69.79,1.35,1.13,2,.76,1.53,1.51,3.08,2.27,4.63a6.44,6.44,0,0,1,.41,1.11c.14.54.21,1.1.35,1.63.09.35,0,.82.42,1,2.49,1.11,5.11,2.17,7.78,3.22,1.66.65,2.73,2.65,1.29,3.65-2.57,1.78-3.31,3.61-4.55,5.43a5.41,5.41,0,0,1-1.77,1.76A12.71,12.71,0,0,0,97.78,164c-.58.73-1.13,1.46-1.62,2.19a29.92,29.92,0,0,1-5.62,6.86A27.27,27.27,0,0,0,87,176.33a8.31,8.31,0,0,0-1.14,2.36,8.41,8.41,0,0,1-1.41,2.62.34.34,0,0,1,.17.45v0A6.12,6.12,0,0,1,82.36,184a8.86,8.86,0,0,1-2.27,1.57l-.4.16-.54.37c-1,.73-1.19,1.49-2.1,2.22s-2.07,1.37-2.48,2.2a13.7,13.7,0,0,0-1.36,4.68,2,2,0,0,0,1.15.58,11.54,11.54,0,0,1,1.44.32,4.63,4.63,0,0,0,4.57-.21c.51.38,1.64.67-.33,1.2-.22.06-.32.5-.07.61,1.1.52,2.35,1,3.55,1.47h1.14c.84-.07,1.69-.18,2.53-.25.76-.81.29-1.67-.12-2.49a5,5,0,0,1-.8-1.08c-.92-1.63-.77-3.15,2.94-4.64a42.17,42.17,0,0,0,4.84-1.95c.9-.53.49-.79,0-1.23-1.46-1.31.18-2.54,3.45-3.58a10.57,10.57,0,0,0,4.22-2c.51-.5.27-.89.5-1.38a2.49,2.49,0,0,1,1.26-1,3,3,0,0,1,.38-.23,5.1,5.1,0,0,1,2.64-.45h.23l.44-.09a6.54,6.54,0,0,0,.87-.34c.65-.33,1.06-.72,1.76-1a13.78,13.78,0,0,1,2.33-.84,28,28,0,0,1,4.17-.74c1.87-.2,5.13-.2,6.56-1,1.79-1-.06-2.48,2.36-3.31l.19-.06-.41-.1h.65a16,16,0,0,1,4.53-.16,7.2,7.2,0,0,0,4.16-1.47c2.68-1.55,6.28-2.57,9.66-3.74a20.1,20.1,0,0,0,5-2.26c1-.76,1.63-1.59,2.57-2.37,2.31-1.9,5.87-2.72,10-3.35a56.54,56.54,0,0,0,6.21-1,15.24,15.24,0,0,0,3.89-1.67,49.21,49.21,0,0,0,5.7-4.27c.73-1.33,1.35-2.67,2-4.06a3.36,3.36,0,0,0,3.09-1.16,5.08,5.08,0,0,1,3-1.55,5.84,5.84,0,0,0,3.53-1.87,9.09,9.09,0,0,0,1.12-2.43C190.51,139.16,189.63,138.54,187.82,138.43ZM127.12,80l.13-.11a3.63,3.63,0,0,1,2.29-1.28c1.66-.33,2.23.46,2.25,1.22a1.29,1.29,0,0,1-.06.48c.47.14.56.34-.21.81l-.1.06a3.2,3.2,0,0,1-1.59,1.59,1.2,1.2,0,0,1-.22.4c-.71,1-3.07,1-2.52.08H127c-.51,0-.91-.26-.79-.56a10.41,10.41,0,0,1,1-2.64s-.05,0-.06,0Zm4.77,4.45a.69.69,0,0,1,.25-.57,6.07,6.07,0,0,1,3.08-1.6,2.32,2.32,0,0,1,.67-.28,4.67,4.67,0,0,1,3-.07.61.61,0,0,1,.22.2h.2c1.37.26-.22,1.73-1.6,1.48h-.08a10.26,10.26,0,0,1-5,1.26c-.45,0-.71-.14-.78-.33a20.8,20.8,0,0,1-6.44,1.21C127.74,84.93,129.89,84.16,131.89,84.44Zm-14.13.29c.94-1.16,1.83-2.33,2.94-3.48.67-.69,3.38-1.28,4.91-1.21-1.2.63-2.35,1.26-3.57,1.84-1,.47-1.42,1-1.54,1.52a5.92,5.92,0,0,1-.51,1.15c-.22.49-.79.74-1.59.81S117.43,85.15,117.76,84.73Z"/></g><g id="map"><g id="map-2"><path d="M61.89,62.58c1.08.42.43,1.54,1.63,1.85l.58-.24a4,4,0,0,1-.59-1.45C63.53,62.24,63.11,62.22,61.89,62.58Z" style="fill:#205cff"/><path d="M63.55,64.43c-1.2-.31-.55-1.43-1.63-1.85,1.19-.36,1.61-.34,1.62.16a4,4,0,0,0,.59,1.45Z" style="fill:#205cff"/><path d="M347,74.17v-.06S346.94,74.54,347,74.17Z" style="fill:#205cff"/><path d="M343.27,81c.65.66,3.46.07,3.67-1.91a33,33,0,0,0,0-4.87v0c0-.35,0-1.41.09-4.23.12-5.83,5.09-4.71,6-6.35s-.21-2.71,0-3.36-1.51-3.15-1.94-4.17,4.1-10.3,6.48-12.46,6.47-3.67,7.34-6A24.74,24.74,0,0,0,366,33a14.56,14.56,0,0,0-2.33-.8h-.17c-.85.18-1.79,0-2.67.15s-.44.71-.54,1.28c-.19,1.09-1.8,1.25-3.11.71a13.18,13.18,0,0,1-2.35,0c-.47.1-.93.23-1.39.35-.72.26-1.41.54-2.17.75-1.32.36-2.87.15-4.22.42a8.5,8.5,0,0,0-2.79,1.51,4.65,4.65,0,0,1-3.54.66,13.33,13.33,0,0,1-1.47-.6,2,2,0,0,0-1.71.16A13.21,13.21,0,0,1,334.43,39c-.93.2-1.77.26-2,.86,0,.12.11.23.14.32a2,2,0,0,1,.13,1.25c-.1.44-.6.6-1.2.54s-1.25-.14-1.85-.26a.5.5,0,0,1,0,.26.88.88,0,0,1-.93.56c-1.93-.11-4.25-.52-5.69-1.64a3.33,3.33,0,0,1-1.11-1.6,2.43,2.43,0,0,0-.3-.68c-.14-.18-.08-.17-.46-.11-1.29.18-2.07-1.27-.83-1.48h-.07l.18-.2,1,.2a2.83,2.83,0,0,1,.58.11c.89.16,1.77.33,2.63.56,2.67.7,4.23,1.14,5.93.59a4.14,4.14,0,0,1,1.84-.94c.66-.54.57-1.16-.39-1.73-1.54-.9-3-2-5-2a2.81,2.81,0,0,1-1.13-.31,8.11,8.11,0,0,0-4.35-.6,2.35,2.35,0,0,1-1.28-.21,5.07,5.07,0,0,0-3-.87c-.91-.05-1.2-.28-.87-.88s-.06-.68-.64-.8l-2.66-.58a2.72,2.72,0,0,0-2,.16,1.22,1.22,0,0,1-.92,0c-1.34-.75-1.64-.77-2.91-.13a2.17,2.17,0,0,1-1.19.32,2.63,2.63,0,0,0-2.28.64,4.31,4.31,0,0,1-2.52.84l-.75.07c-.37.73-1.76,1.13-2.81,1.33a9.88,9.88,0,0,0-2.51.6,3.65,3.65,0,0,0-1.52,1.47,1.12,1.12,0,0,1,.17.46h.1l-.09.09a1.27,1.27,0,0,1-.38.9,1.32,1.32,0,0,1-1.19.3,3.48,3.48,0,0,0-1.55,1.83c-.07.28-.45.52-.74.75-.49.4-1,.77-1.54,1.17a7.52,7.52,0,0,1-1.18,1c-1.94,1-4,1.88-6,2.84-1,.5-1.85,1.15-1.86,2.08s.16,1.88.17,2.82a5.42,5.42,0,0,1-.26,1.32,3.4,3.4,0,0,0,3.89,1.42,18.11,18.11,0,0,0,3.47-1.36c.08-.43.6-.81,1.36-.64a3.93,3.93,0,0,1,2.58,2.09c.27.45.47,1,.74,1.49h.29a3.64,3.64,0,0,0,3.34-.86,13.72,13.72,0,0,1,2.68-1.78c.68-.31,1.84-.65,2-1.26.23-.81-1.1-1.19-1.64-1.78a1.9,1.9,0,0,1,.22-2.66C299,44,300,43.11,300.8,42.2c1.32-1.49,2.38-3.7,4.61-4.58,1.6-.63,3.91-.37,4.38.91,1.2,1.22,0,3.28-.62,4.38a21.17,21.17,0,0,0-1.39,2.22,1.54,1.54,0,0,0,.63,2.08c.21.12,1.3.49,1.38.26.17-.47.81-.6,1.35-.49a3.76,3.76,0,0,1,2.52,0,3.23,3.23,0,0,1,1.23.83l.07-.09a4.81,4.81,0,0,0,.4-.6,2,2,0,0,1,2.73-.61c1.34.8.83,2-.14,2.66a5.7,5.7,0,0,1-3.87.94,7.09,7.09,0,0,1-.78-.14,1.38,1.38,0,0,1-.7,0,1.62,1.62,0,0,0-.44,0,.87.87,0,0,1-.4.16h0a2.35,2.35,0,0,0-.87,1.86h0v.21a.55.55,0,0,1-.4.45,1.22,1.22,0,0,1-.51,1.26c-1.9,1.44-3-1.38-4.54-1.32a3.06,3.06,0,0,0-1.55,2.57c0,.9-.74,1.33-1.83,1.56a6.76,6.76,0,0,1-1.74.05,9.33,9.33,0,0,0-4.92.69,3.2,3.2,0,0,1-2.77,0,2.93,2.93,0,0,0-2.55,0,2.32,2.32,0,0,1-2.14.13c-.32-.12-.86-.33-.83-.42a1.86,1.86,0,0,1,.71-.81c.46-.29,1.07-.45,1.56-.71s.75-.56.71-.81-.21-.25-.31-.38a2.3,2.3,0,0,0-.6-.27c-1.14-.36-1.65-.82-1.61-1.69,0-.64-.63-.87-1.39-.54a25.92,25.92,0,0,0-2.54,1.24.57.57,0,0,0-.23.64c.07.16.14.31.22.47a3.74,3.74,0,0,1,1.09,1.75,1.82,1.82,0,0,1,0,.33c.41.67,0,1.34-1,1.53A10.42,10.42,0,0,1,280.24,59a10.68,10.68,0,0,0-2.6.72l-.58.33-.38.29c-.8.71-1.36,1.51-2.14,2.23a7.25,7.25,0,0,1-3.1,1.69,15.12,15.12,0,0,1-3.28.36l-.84.25a5.58,5.58,0,0,1-1.74.49q-.43.09-.87.15h-.1a7.43,7.43,0,0,0-.75.49.89.89,0,0,0,.43.64l.08.08a5.67,5.67,0,0,1,2,.91,1.32,1.32,0,0,1,.77.89,4.58,4.58,0,0,1-.06,2.41c-.33,1-1,1.27-2.61,1.19-2.45-.12-4.87-.37-7.32-.43a11,11,0,0,0-2.73.44h0a5.46,5.46,0,0,0-.34,1.79,10,10,0,0,1,.16,1.73,1.58,1.58,0,0,1-.85,1.18c-1,.53-1.32,1-1,1.76a3,3,0,0,1,.14.93c0,.52.36.82,1.33.77,2.3-.14,3.66.51,4.28,1.77,0,.09.14.16.31.34a1.38,1.38,0,0,0,.74.21c0-.21.25-.47.73-.85a3,3,0,0,0,.47-.4c.49-.58,1.14-.66,2.17-.57a10.07,10.07,0,0,0,3-.24,20.39,20.39,0,0,0,2.74-1,3,3,0,0,0,1.23-.76.49.49,0,0,1,0-.24c.11-.36.18-.71.27-1.06a1.09,1.09,0,0,1,.6-1.31,3.19,3.19,0,0,1,.59-.57,8.41,8.41,0,0,1,1.85-.86c.77-.33.9-.77,1.21-1.28a3.37,3.37,0,0,1,2.31-1.67,16.21,16.21,0,0,1,3.47.41c1.76.13,2.62-.74,4.14-1a4.61,4.61,0,0,1,3.32.63,5,5,0,0,1,1.53,1.73,6.45,6.45,0,0,0,2.7,1.26c2.79.72,5.23,1.68,5.66,3.93h-2.51a16.7,16.7,0,0,0-2.45,0,1.46,1.46,0,0,0-1,.76c-.06.13.59.53.95.55a4.75,4.75,0,0,1,2.73,1,9.9,9.9,0,0,0,1,.57,6,6,0,0,1,.38-1.08c.23-.35.44-.84.9-1a1.55,1.55,0,0,0,1.25-1.06c.24-.65.45-1.3.67-2,2.93.3,2.93.3,3.62-.14-.66-.2-1.26-.39-1.88-.55-.44-.12-.91-.18-1.35-.28a14.78,14.78,0,0,1-7.26-4.12,2,2,0,0,1-.39-1.53c0-.39.51-.65,1.14-.35a25.79,25.79,0,0,1,3.44,1.74,10.24,10.24,0,0,0,4.56,2c.75.1,1.48.37,1.33,1-.32,1.3.47,2.53,1.72,3.46,1.51,1.12,3.28,2.09,4.16,3.49a1.72,1.72,0,0,0,1,.12c.93-.71,2.14-1.38,1.23-2.48-.29-.36-.69-.75-.68-1.11s.12-1.33.59-1.43a30,30,0,0,1,4.13-.43,21.12,21.12,0,0,0,2.08,3.36,7,7,0,0,0,2.64,1.4,10.44,10.44,0,0,0,6.24.65,8.34,8.34,0,0,1,1,0c1.36-.07,2.72-.19,4.09-.22,1,0,2.07,0,2.84.06a1.19,1.19,0,0,0,.06.46l1.86-.65C337.23,80.31,342.63,80.3,343.27,81Z" style="fill:#205cff"/><path d="M463.25,109.19a8,8,0,0,0,.05,1.29,13,13,0,0,1,.5,1.93c0,1,.91,1.72,2.89,2.44a15,15,0,0,1,2.76,1.49,30.21,30.21,0,0,0,2.7,1.94c1.6.82,3.57,1.47,5.23,2.28a5.17,5.17,0,0,0,4.31.35c-.93-.59-2-1.18-2.79-1.81a12.87,12.87,0,0,1-1.52-1.61,2.08,2.08,0,0,0-.79-.58c-2.28-.68-4.58-1.32-6.86-2a3.35,3.35,0,0,1-1-.41c-1.29-1.31-3.15-2.58-3.36-4-.07-.47-.76-1-1.07-1.52-.18-.3-.42-.77-.17-.84a4.75,4.75,0,0,1,1.76.15c1.11.28,2.17.73,3.28,1a14.05,14.05,0,0,1,5.23,2.23c.77.53,1.46,1.09,2.26,1.61,1.23.8,2,.83,2.7.21.52-.47,1.25-.86,1.73-1.35.9-.93,1.71-1.89,2.48-2.86.11-.14,0-.4-.19-.6-1.39-1.86-3.42-3.5-7.32-4.47-.5-.13-1-.3-1.48-.47-1.64-.58-2.22-1.14-2-1.93a5.29,5.29,0,0,0,.37-1.47c0-1,1.14-1.22,3-1.16a37.57,37.57,0,0,0,6-.15c2.59-.36,4.86-1,7.23-1.5a3.18,3.18,0,0,0,2.7-2,9.32,9.32,0,0,1,.38-1c-.58-.15-1.09-.44-1.12-.82-.09-.91.39-1.76-.35-2.77s-1.32-1.75-1.94-2.62a8.4,8.4,0,0,0-2.32-2.61,11.79,11.79,0,0,0-1.51-.64,4.74,4.74,0,0,1-1.74-1.19c-.7-.85-.32-1.48.26-2a2,2,0,0,0,.81-1.83c-.14-1.09-1-3,.88-3.36s3.65,1.35,4.61,2.31a3.57,3.57,0,0,0,1.88,1.2c.4.11.73.2,1,.3h.07a1.42,1.42,0,0,1,1.47.74v.09a5.58,5.58,0,0,1,1.32,1.38,5,5,0,0,0,.78,1.1c1.28,1.11,2.55-.1,2.86-.51.51-.68.19-1.64-1-2.57-1.14-.64-2.26-1.34-3.33-2.09-.11-.11-.22-.22-.31-.33-1-.55-1-.84-.37-1.06a.69.69,0,0,1,.37-.36c.36-.19.72-.21.71-.58a5.08,5.08,0,0,0-.48-1.16c-.29-.82-.1-1.5,1-1.77.81-.19,2.47,0,2.64-.57a.45.45,0,0,1,.37-.29,2,2,0,0,1,1.12-.61c.83-.24,1.22-.57,1.34-1.16a17.19,17.19,0,0,0,0-4.3,17.39,17.39,0,0,0-.79-4.1,5.77,5.77,0,0,0-1.6-2.64c-1.94-1.73-5-.84-7-1.16-3.51-.55-5.87-3.17-4.7-4.32.57-.57,1.9-.79,2.12-1.52s-.22-1.89.86-2.34h.11v-.08c.23-.92,1.87-1.59,3.94-1.17a3.88,3.88,0,0,0,1.55.17,7.24,7.24,0,0,1,1.12-.25.94.94,0,0,1,0-.62c.09-.23.57-.27,1.1-.15a3.32,3.32,0,0,1,1.31.39l.57.33a7.4,7.4,0,0,1,3.34-.24c1.22.13,2.61.48,3.8.57,1.41.11,1.47-.57,1.67-1.16a4.85,4.85,0,0,1,.59-1.29,1.4,1.4,0,0,1,.1-1.3,2.71,2.71,0,0,1,2.13-.53,17.76,17.76,0,0,1,3.67.84c1.15.32,1.28.08,1.64-.23a4.65,4.65,0,0,1,1.23-.87c1.12-.5,3.31.08,4.52,1.48.47.54.48.84.25,1.06a2.37,2.37,0,0,1,.28.27c1.45,1.75-.73,2.75-1.6,3.69S519,52.74,519.41,54a14.35,14.35,0,0,0,2,3.26,1.76,1.76,0,0,1,.3.24,45.58,45.58,0,0,0,4.39,4.29l.43.33a3.92,3.92,0,0,0,1.62.74c.71-.1.39-1.28.35-1.64a10.66,10.66,0,0,1-.19-1.69c0-.8.3-1.52.29-2.33a5.7,5.7,0,0,0-.71-2.71,18.69,18.69,0,0,0-2-2.53l-.32-.07a3.07,3.07,0,0,0-.07-.42c-1.2-1.6-.54-3.19,1.44-3.49a15.26,15.26,0,0,1,3.24.1,6.43,6.43,0,0,0,3.55-.35c1.5-.88,1.61-2.46,3.36-3.18a4.81,4.81,0,0,1,1.8-.31c.5,0,1.26.17,1.68.12,1-.14-.52-1.14-1.38-1.71a9.17,9.17,0,0,1-1.66-1.32l-.84-.32.55-.08a.76.76,0,0,1-.11-.33.62.62,0,0,1,.54-.69h0a2.24,2.24,0,0,1,.73,0h0c-.35-.38-.75-1-.64-1.35l-.17-.09h.21c.26-.25.9-.14,1.61.12a22.39,22.39,0,0,1,4.78,1.16c1.26.4,2.55.83,3.81,1.21s2,.44,2.22-.07a3.81,3.81,0,0,0,.1-2.09,1.2,1.2,0,0,0-.13-.31h0c-.48,0-1.31-.18-1.87-.23a9.12,9.12,0,0,1-1.27-.22l-.32-.07c0,.25-.44.34-.94.29-1.67-.2-2.79-1.25-4.27-1.94a2.35,2.35,0,0,1-.86-.6l-.4-.2c-2.56-.67-5.14-1.37-7.63-2-2.65-.64-5.37-1.33-7.77-1.69-3-.46-5.83-.7-8.67-1a.39.39,0,0,0-.16.29h0l.45.29a3.43,3.43,0,0,1,1.25,1.23c.43,1-.66,1.4-2.84.41a6.76,6.76,0,0,0-2.51-.83c-1,0-1.85.14-2.77.17s-1.78.14-2.65.24a5.48,5.48,0,0,1-1.28,0c-.46-.07-1-.24-1.53-.36a.17.17,0,0,1,0,.1c-.06.16-.25.26-.55.28a5.92,5.92,0,0,1-2.72-.76,24.15,24.15,0,0,0-2.81-1.23,8.94,8.94,0,0,0-2.77-.31c-.74-.07-1.68-.42-2.38-.48a10.42,10.42,0,0,0-2,.25,16.06,16.06,0,0,1-5.6-.6,20.9,20.9,0,0,1-5.15-1.76,4.19,4.19,0,0,0-1.64-.65c-.43-.06-.8,0-1.19-.06a11.06,11.06,0,0,1-2.49-.4c-.67-.18-1.36-.44-2-.56h0l-1.23-.1h-.6a6.11,6.11,0,0,0-2.76.57c-.61.42.58,1.33.7,2,.07.42-.19.75-.79.8a1.85,1.85,0,0,1-.47,0,1.93,1.93,0,0,1,.67.9c.15.88-1.81.52-3.08-.13-.58-.3-1-.71-1.61-1A2.43,2.43,0,0,0,462,29a8.41,8.41,0,0,1-3.7-.73,1.75,1.75,0,0,1,.24.89c-.07,1-1.7,1.21-3.67.32a19.55,19.55,0,0,1-4.47-3,14.24,14.24,0,0,0-2.29-1.81,6.21,6.21,0,0,0-2.27-.63,5.66,5.66,0,0,0-2.17,0c-.58.21-.67.74-.95,1.13-.67.93-2.25,1.23-4.42.7-1.29-.32-2.58-.77-3.85-1.05a31.57,31.57,0,0,0-3.61-.59c-1.21-.13-2.37-.17-3.52-.2-.56,0-1.13-.05-1.66,0l-2.07.78c-.83.3-2,.51-2.3,1.16-.11.21-.37.27-.68.22a1.36,1.36,0,0,1-1.16-.14c-1.11-.56-2.09-1.34-1.93-2s.89-.79,1.57-1a12.11,12.11,0,0,1,2.09-.31,4.39,4.39,0,0,0,1.69-.73,4.81,4.81,0,0,0,2-1.63,1.57,1.57,0,0,0-.13-1.27c-.62-.15-1.26-.32-1.88-.46a.73.73,0,0,1-.38.08,11.73,11.73,0,0,0-1.33.1,7.63,7.63,0,0,1-.83.17,8,8,0,0,1-3.3-.19l-.46-.12a44.56,44.56,0,0,1-4.89-2.44,1,1,0,0,1-.83-.1,1.15,1.15,0,0,0-1.57.42,1,1,0,0,0-.11.24c-.12.59.11,1.23-.28,1.72-.79,1-2.51,1.56-4.2,1.78s-3.3.16-4.9.32c-.77.38-1.43.85-2.22,1.23a5.62,5.62,0,0,1-3.58.54,8.46,8.46,0,0,1-1.23-.29,1.75,1.75,0,0,1-.55-.12,3.08,3.08,0,0,1-.63,1,2.55,2.55,0,0,1-1.16.74,19,19,0,0,1-3.6.39c-1,.1-2.49.53-1,1.57.89.61,2.06.59,2.83,1.39s.37,1.56-.53,1.7a8.26,8.26,0,0,1-3.4-.64c-.81-.26-1.61-.58-2.42-.78a3.43,3.43,0,0,0-1.27-.18c-.12,0,0,.11.13.22a4.14,4.14,0,0,1,1.24,1,.86.86,0,0,1,0,1.07c-.56.6-2.1.35-3.19-.06a4,4,0,0,1-1.13-.63,7.26,7.26,0,0,0,.76,2.58,1.81,1.81,0,0,0,.5.33,5.09,5.09,0,0,0,1.34.18,10.28,10.28,0,0,1,3.66.92c1.4.75,1.33,1.62.61,2.2-.34.27-1.12,0-1.55-.28l-.38-.23a1,1,0,0,1-1.1,0,1.54,1.54,0,0,0-.73-.14,1.89,1.89,0,0,0-.05.23,5,5,0,0,0-.06,1.22,3.2,3.2,0,0,1-1.41,2.93,4.76,4.76,0,0,1-3.46.23h-.65c-1.36,0-2-1.53-.69-1.54a2.94,2.94,0,0,1,1.31-1c1.2-.58,2.11-1.48.77-2.81a6,6,0,0,1-1.63-2,9.61,9.61,0,0,0-.37-1.15c-.19-.37-.47-.5-.84-.8a2.32,2.32,0,0,1-1-1.74c0-.52.38-1-.18-1.63a2.53,2.53,0,0,0-2-.56c-.55.17-.67.82-.92,1.19-.66.94-2.35,1.7-1.66,3.13s2.54,2.58,3.55,3.9a.54.54,0,0,1,0,.76.5.5,0,0,1-.36.18c-1.44.27-2.71-.42-4-1.18a17,17,0,0,0-1.54-.77,24.62,24.62,0,0,1-1.16,4.64c-.87,2.38-5,3.89-7.34,6S350.64,55,351.07,56s2.16,3.52,1.94,4.17.87,1.73,0,3.36-5.83.52-6,6.35c-.06,2.82-.08,3.88-.09,4.23a33,33,0,0,1,0,4.87c-.21,2-3,2.57-3.67,1.91s-6-.64-8,0l-1.86.65a3.85,3.85,0,0,0,.38,1.67.88.88,0,0,1-.13,1.24l-.07.05a1.53,1.53,0,0,0-.53,1.2,21.7,21.7,0,0,0,.67,3,1.35,1.35,0,0,1-.42,1.62.66.66,0,0,0,.08.93h0a29.38,29.38,0,0,1,4.42,3.92c.1.12.34.21.46.32,1,.91,1.95,1.83,3,2.73a8.45,8.45,0,0,0,2.53,1.91,22,22,0,0,1,4,2.35c2.46,1.45,3.62,3,3.35,4.83-.09.62.59,1.1,1.84,1.22a10.49,10.49,0,0,0,2.31.08c3.16-.45,6.36-.87,9.34-1.5a17.08,17.08,0,0,0,5.18-1.81,8.93,8.93,0,0,1,3.47-.87,4.24,4.24,0,0,0,1.37-.49c1.63-.85,3.23-1.71,4.76-2.59.37-.22.72-.53.73-.84a2.2,2.2,0,0,1,1.23-2.27c.92-.49.54-1-.8-1.36s-2.66-.82-4-1.17-1.9-.73-2-1.44a3,3,0,0,0-.38-.73l-.48-.13c-.67.52-1.41,1-2,1.56a4.5,4.5,0,0,1-3.42,1,8.39,8.39,0,0,0-1.65.29c-.34-.13-.89-.33-1.45-.52-1.29-.39-2.29-.86-1.89-1.76.06-.12-.19-.38-.42-.48-.77-.35-1.6-.65-2.39-1a6.06,6.06,0,0,1-1.6-.82,4.34,4.34,0,0,0-3.2-1.53A3.23,3.23,0,0,1,358.32,89c1.7-.06,2.64.66,3.85,1.09a2.19,2.19,0,0,1,1.09.9,2.91,2.91,0,0,0,2.13,1.53c2.44.57,4.89,1.41,7.28.51a1.92,1.92,0,0,1,2.49.67,3,3,0,0,0,2.54.9,25.26,25.26,0,0,1,4.17.17,29.76,29.76,0,0,0,8,0c2.38-.29,3-.13,4.42,1.25,1.18,1.15,1.27,1.14,3.37,1.19a26.54,26.54,0,0,1,2.82.38,5.94,5.94,0,0,1-.27,1.18c-.18.45.27.8,1,.8,1.31,0,2.57-.12,3.83-.22.52,0,1-.18,1.75-.32-.74,2.72,2.09,5,4.71,7.34,1.31,1.15,2.58,2.32,3.9,3.48.33.3.7.59,1.07.88,1,.78,2.12,1.55,3.09,2.35a2.35,2.35,0,0,0,2.51.48,16.85,16.85,0,0,0,2.82-1.56c2-1.33,2.19-2.93.08-4.86-.24-.21-.39-.58-.21-.72,1.58-1.23,3.16-2.46,4.85-3.64s3.65-2.3,5.3-3.52a4.41,4.41,0,0,1,3.93-.61l2.51.45c2.49.43,4.5,1.52,6.75,2.29a1.8,1.8,0,0,1,.92.8,8.8,8.8,0,0,0,2.9,3.16c.9.65,1.32.76,2,.31s1.11-.81,1.65-1.22l.51.16c3.24,1,4.76,2.76,7,4.2A.44.44,0,0,1,463.25,109.19Z" style="fill:#205cff"/><path d="M254.45,84.7a10.55,10.55,0,0,1-2.22,1,7.57,7.57,0,0,0-1.64.68c-1.15,1.1-2.75,2.18-1.27,3.62a34.18,34.18,0,0,1-4.75,1.54,7.73,7.73,0,0,0-3.91,1.77c-2.23,1.87-4.5,3.73-7,5.54-.84.61-.85,1.06-.26,1.55,1.63,1.34,1.39,2.84.19,4.34-1.34,1.65-1,3.77,1.11,5a9.21,9.21,0,0,1,1.61,1,34.74,34.74,0,0,0,2.74,2.55c1.82,1.28,3.83,2.51,5.93,3.69a6.55,6.55,0,0,0,2.57.61c2.23.13,4.54,0,6.75.2,5.17.39,9.82-.74,14.51-1.6a8.25,8.25,0,0,1,4.13,0,13.55,13.55,0,0,1,2.75,1.15,4.83,4.83,0,0,0,2.36.75l.53-.13a8.64,8.64,0,0,1,3.75-.2h.09a3.81,3.81,0,0,1,2.55,1.31c.65.93.28,1.88-.17,2.81a2.91,2.91,0,0,0-.22,2.88,6.94,6.94,0,0,0,1.1,1.48c.84.56,1.64,1.13,2.39,1.71a3,3,0,0,1,.8,1.09c.16.12.31.25.46.38a2.45,2.45,0,0,1,.92.44,5,5,0,0,1,.64,1,8.59,8.59,0,0,1,1.34,1.77c1.46,2.68-.5,4.88-3.21,7-.73,1.86-.31,3.69,2.34,5.5a5.78,5.78,0,0,1,2.53,3.12c.54,2.46,2.55,4.63,5.15,6.74,1.89,1.51,4.32,2.91,4.23,4.78a1.45,1.45,0,0,0,.77,1,6,6,0,0,0,3.94,1c3.11-.15,6.21-.32,9.32-.43a48.42,48.42,0,0,0,5.89-.51,1.26,1.26,0,0,1,.6-.35,24.51,24.51,0,0,0,5.61-2.74c1.53-1,3.07-1.9,4.59-2.86a8.7,8.7,0,0,0,1.84-1.42,3,3,0,0,0,.59-1.55c.24-1,1.73-1.63,2.91-2.36,1.64-1,.44-2.15.44-3.35s1.71-2.41,3-3.46c1.83-1.49,3.73-2.94,5.55-4.42a9.2,9.2,0,0,0,.36-6.27,6.84,6.84,0,0,1,.93-6.64c1.59-2.16,4.48-3.85,7.47-5.46,3.17-1.72,6.51-3.38,9.31-5.23a9.54,9.54,0,0,0,.87-4.62c-1.69.23-3.29.5-4.95.67-2.35.23-4.71.48-7.12.54-2.22.07-3.32-.48-4.12-1.65a2,2,0,0,0-.69-.54,37.3,37.3,0,0,0-4.93-2.28c-3.11-1-4.19-2.74-5.58-4.2s-2.24-3-4.42-4.19a2.6,2.6,0,0,1-.69-.63c-1.61-1.86-3.19-3.72-4.73-5.55.24-.07.85-.1,1.06-.29,1.75-1.58.27-3.23-2.4-3.57a21.91,21.91,0,0,0-7.91,0,9.77,9.77,0,0,1-3.1-.07c-1.32-.17-2.61-.47-3.91-.71a17.53,17.53,0,0,1-2.69-.53,11.67,11.67,0,0,0-5.18-.55c-1.64.15-2,.44-1.66,1.43a.88.88,0,0,1-.4.87,12.26,12.26,0,0,1-1.81.91,1,1,0,0,1-.29-.08,8.82,8.82,0,0,0-4.49-1.53,1,1,0,0,1-.71-.51c-.4-1-1.61-1.3-3.1-1.35-.93,0-1.87.06-2.81,0a6.62,6.62,0,0,1-1.6-.2c-.67-.19-1.26-.46-1.81-.67-.08-.69-.11-1.39-.24-2.08s-.41-1.11-.47-1.67-.34-.76-1.13-.78-1.57,0-2.36,0c-2.93.12-5.86.37-8.79.36a23.46,23.46,0,0,0-8.78,1.86,6.18,6.18,0,0,1-2.09.33,22.55,22.55,0,0,1-2.72-.26c-1.11-.12-1.62-.28-1.61-.57a1.38,1.38,0,0,1-.74-.21C256.18,82.76,255.55,83.85,254.45,84.7Z" style="fill:#205cff"/><path d="M241.3,31l.91-.33v-.3h-3a2.62,2.62,0,0,1-.88-.37,7.08,7.08,0,0,1,.9-.74c.21-.12.6,0,.82-.15.61-.33,1.48-.68,1.7-1.11.46-.88.27-1.87,1.43-2.63a.15.15,0,0,0,.07-.14c-.56-1,.68-1,1.39-1.29a3.34,3.34,0,0,0,1.25-.69c.79-1,1.47-2.06,2.14-3.1.43-.65.34-1.18-.42-1.5-.32-.14-.73-.29-.83-.53a1.53,1.53,0,0,1,0-1.15,1.92,1.92,0,0,1,1.2-.19,10.15,10.15,0,0,1,1.72.92,4.59,4.59,0,0,0,.88-1.37c0-.2-.77-.36-1.13-.6s-.75-.42-.79-.71c-.08-.54-.41-.71-1-.7h-1.17A6.05,6.05,0,0,1,249,12c.36-.14.87-.69.83-.92-.18-.94.53-1.07,1.33-1.21A2.46,2.46,0,0,0,252,9.7a13,13,0,0,0,2.51-1.55,2.47,2.47,0,0,1,.94-.69c1.22-.43,2.44-.89,3.62-1.4.27-.12.6-.54.57-.75a.84.84,0,0,0-.65-.62c-1.64-.07-3.29-.07-4.94-.07a1.13,1.13,0,0,0-.66.24c-.65.77-1.33.58-2.09.5a3.07,3.07,0,0,0-1.44.22c-1.47.67-2.91,1.43-4.37,2.15l-.18-.23,3.32-2.87-2.41-1,1.79-.82c-.46-.23-.72-.37-1-.49-.64-.31-1.27-.62-1.92-.9C243.5.64,242-.2,239.76,0a31.65,31.65,0,0,1-6,0,6.49,6.49,0,0,0-3.41.69,5,5,0,0,1-2.35.54h-9.27c.14.52.22.84.32,1.2l-1.27.24.65,1.06c-1.29-.3-2.67-.67-4.12-.93a5.58,5.58,0,0,0-1.51.27l.3,1.06a1.82,1.82,0,0,1,0,.33c-.77-.28-1.64-.38-2-.81a2,2,0,0,0-1.81-.35c-2.43.35-4.87.69-7.33,1.07a5,5,0,0,0-1.29.54c-.41.29-.83.56-1.27.81-2.91,1.2-5.81,1.74-8.76,2.68a7.52,7.52,0,0,0-1,.56c.22.14.37.38.66.39,1.64.07,1.66,0,1.36,1.58a23.5,23.5,0,0,1-3.11.64,36.17,36.17,0,0,0-6.73,1.58,14.8,14.8,0,0,0-1.93.8l-.2.3,3.46,1.16c-.38.18-.64.31-.91.42-1.06.41-1.53,1.26-.87,1.63a3.11,3.11,0,0,0,.79.23,30.62,30.62,0,0,0,9,.85c2.46-.1,4.25.6,4.73,2.38a3,3,0,0,0,.56,1.18c1.13,1.31,1.12,2.77-.83,4.65-1,.94-.62,1.42.66,1.49a4.37,4.37,0,0,0,2.8-1.06c.6.61,1.2,1.21,1.87,1.86-1.31.41-2.61,1.05-3.78.55a1.52,1.52,0,0,0-1.61.56c-.13.14.17.41.28.63a.55.55,0,0,1,0,.17l-1,.48a5.54,5.54,0,0,0,2.15.76,11.7,11.7,0,0,0,2.8-1c-.23.67-.46,1.24-.62,1.8s-.7.94-1.67,1a4.19,4.19,0,0,0-2.07.58,6.11,6.11,0,0,0-1.77,2.72,7,7,0,0,0,.76,3.23c.79,2,1.75,3.88,2.64,5.83.17.37.43.55,1.08.57a6.87,6.87,0,0,1,3.58.83,4.33,4.33,0,0,0,3.35.06c1.66-.46,2.52-1.32,2.16-2.33-.25-.72.26-1,1.19-1.47,1.42-.72,3-1.52,3.2-2.8.16-1,1.1-1.5,2.27-1.83a16.45,16.45,0,0,1,2.78-.54c2.4-.28,4.53-.68,6.38-2.4a7.82,7.82,0,0,1,5.5-2.19,21.46,21.46,0,0,0,8.6-1.87C238.5,31.84,239.89,31.48,241.3,31Z" style="fill:#205cff"/><path d="M581.24,168.64a3.2,3.2,0,0,0,.68-.42c.34-.35,1.14-.38,2.16-.25,1.54.19,2,.06,1.42-.6-1.29-1.34-.72-2.34-.11-3.35a1.05,1.05,0,0,0,.13-1,15.66,15.66,0,0,0-1.71-3.14c-1-1.34-2.33-2.67-5.79-3.8-1.68-.55-3-1.36-4.6-2a13.09,13.09,0,0,0-1.53-.36,11.57,11.57,0,0,1-2.08-.62,15.55,15.55,0,0,0-4.44-1.56,13.59,13.59,0,0,1-4.22-1.56c-1.13-.68-2.29-1.35-3.52-2-.52-.28-1.29-.47-1.91-.73s-1.44-.59-2.05-.91c-1-.56-1.94-1.14-3-1.69a3.52,3.52,0,0,0-1.27-.34c-.34,0-.58.25-.55.44a2.88,2.88,0,0,0,.62.83c1,1.09,2,2.18,2.95,3.28.75.9,0,1.16-2.12.77-.76-.15-1.55-.3-2.27-.51a20.76,20.76,0,0,0-6.39-1.19,4.25,4.25,0,0,0,.36-1.31,5.11,5.11,0,0,0-.42-1.25L539,145.2a7.42,7.42,0,0,1-1.76-.12,5,5,0,0,0-3.31-.18,5,5,0,0,1-1.38.25c-1.67.08-1.9.66-1.67,1.39a7.78,7.78,0,0,0,.69,1.31l-3.63-.76c-1.74-.35-2.66-.2-2.5.56s-.56,1.15-2.33,1.07c-1.2,0-1.6.27-1.43.8a4.7,4.7,0,0,1,.37,1.33.69.69,0,0,1-.61.65c-1.93.36-4,.65-6,1-.86.12-1.82.17-2.66.31-1.93.31-2.49,1.18-1.57,2.24.61.71,1.4,1.42,1.1,2.1-.07.15.26.43.55.62,2.53,1.68,5.07,3.37,7.75,5,.83.51.69.68-.24.79s-.85.38,0,.78a10.41,10.41,0,0,0,3.64.81c2,.13,3.62.11,4.49-.55a1.72,1.72,0,0,1,.64-.11c1.77,0,3.49-.19,5.34-.11,1.42,0,2.17-.12,2.58-.57a4.43,4.43,0,0,1,3-1.06,11.65,11.65,0,0,0,1.66-.24c3.42-.75,7.48-.3,11.93.76a9.17,9.17,0,0,1,3.4,1.45c.24.17.58.34,1.15.66a11.79,11.79,0,0,1,1-1.24,1.1,1.1,0,0,1,.78-.28,4.28,4.28,0,0,1,1.42.53,5.27,5.27,0,0,0,3.17,1.63,4.6,4.6,0,0,1,1.08.43,22.56,22.56,0,0,0,6.63,1.93c2.27.39,4.47.8,4.41-.49.89.26,1.57.42,2.11.64A2.71,2.71,0,0,0,581.24,168.64Z" style="fill:#205cff"/><path d="M534.61,137.17a19.29,19.29,0,0,1-2.4,1c-.87-.57-1.57-1.06-2.36-1.52a5.43,5.43,0,0,0-1.66-.76A36.07,36.07,0,0,0,524,136c-.23,0-.2.37,0,.57a3,3,0,0,0,1,.33c1.08.16,2.15.27,3.59.44l-.55.74c.88.21,2.17.58,3.44.78,1.9.31,3.78.47,5.69.76,1.52.24,2.82,1.09,2.48,1.54s.22.9,1.66,1h1.39a13.23,13.23,0,0,1,1.53.16c.63.11,1.26.27,1.89.4a13.22,13.22,0,0,1,1.66.35c1.21.47,1.72.37,2,0a6.67,6.67,0,0,1,.35-.71.82.82,0,0,1,.57-.31,9.22,9.22,0,0,1,4.34.7,27.38,27.38,0,0,0,7.75,1.51,6.65,6.65,0,0,0,1.09-.07,9.17,9.17,0,0,0-3.32-.9,10.88,10.88,0,0,1-4.45-1.93,7,7,0,0,0-3.24-1.55c-2.39-.44-4.78-.86-7.16-1.32s-4.83-.88-7.21-1.45S535.73,136.46,534.61,137.17Z" style="fill:#205cff"/><path d="M492.06,121.08a4.29,4.29,0,0,0-.07.5c-.08,1.14.42,1.51,2.79,2.36a4.61,4.61,0,0,1,1.74,1.07,3,3,0,0,0,2.23.89,51,51,0,0,1,9.34,1.53c1.14.27,1.9.26,2-.25a17.28,17.28,0,0,0,.35-2.27c.07-.68,0-1.38.12-2a1,1,0,0,1,.74-.65c1.28-.44,1.29-.52-.36-1.3a5.28,5.28,0,0,1-1-.45,11.66,11.66,0,0,1-2.21-2c-.15-.23.87-.49,1.51-.63.92-.2.67-.5-.26-.87-.63-.26-1.34-.44-2-.69a3.23,3.23,0,0,1-1.1-.54,2.1,2.1,0,0,0-2.37-.59c-.69.22-1.41.55-1.52,1-.41,1.57-2.53,2.31-5.16,2.82-1,.2-1.46.57-1.28,1.19a7.53,7.53,0,0,1,.1,1.25c-.62-.23-.94-.32-1.19-.44C492.38,120,492.35,120,492.06,121.08Z" style="fill:#205cff"/><path d="M372.58,136.15a3,3,0,0,0-1.36-.26c-.93.56-2.22,1.1-2.48,1.79-.33.85-1.2,1.22-2.7,1.38-1.22.13-2.49.22-3.76.27-1.9.08-2.51.64-1.62,1.51a23.59,23.59,0,0,0,2,2c.83.65.72,1.17-.1,1.65-1.81,1-1.62,2.29-.82,3.61s3,2.26,6.18,2.28c2.16,0,3.35-.73,3.67-2.17.52-2.33-.25-4.82,2-7,.3-.29.05-.72.2-1.07a1,1,0,0,1,.73-.53c1.17-.12,1.19-.51.78-.94C374.44,137.79,373.53,137,372.58,136.15Z" style="fill:#205cff"/><path d="M514.64,84.64c.16-.53.68-.82,1.84-.78a10.56,10.56,0,0,0,1.49-.1c1.41-.14,2.44-.37,2-1.46a23.91,23.91,0,0,1-.73-3.46,3.32,3.32,0,0,0-1.88-2.36c-1-.58-2.09-1.14-3.07-1.74-.3-.18-.63-.52-.55-.63s.61-.09,1,0,1.11.28,1.58.32a2.38,2.38,0,0,0,1.26-.14c.35-.6,1.37-.67,2.71-.55l-.47-1.08c-2.87-.84-5.39-1.57-7.89-2.32-1-.32-1.71-.32-1,.33a2.23,2.23,0,0,1,.78,2.82c-.1.39.39,1,.74,1.51.58.87,1.29,1.76,1.89,2.64.28.42.24.82.64,1.22.84.85-.07,1-.8,1.19a13.06,13.06,0,0,1-2.42-.14,10.13,10.13,0,0,0,.41,1.21c.24.52-.48,1.58-1.3,1.5a8.76,8.76,0,0,0-6.08,1.52c-1.63.88-1.43,2,1.32,3.41a2.46,2.46,0,0,0,2.05.4c1.22-.45.52-2-1.62-3l4.82-.91a7.75,7.75,0,0,1-2.08.81c-.4.13-.84.32-.87.58a2.94,2.94,0,0,0,1.34.73,3.78,3.78,0,0,0,1.6-.2c.3-.09.34-.35.58-.5a1.24,1.24,0,0,1,.75-.19C513.89,85.38,514.49,85.15,514.64,84.64Z" style="fill:#205cff"/><path d="M261.61,54.15c-.19.83.1,1.22,1.28,1.53.46.12.84.36,1.31.46,1.3.26.84,1.16,1.33,1.71-.63.25-1.26.51-1.91.75-.21.08-.57.09-.66.19-.24.29-.63.69-.5.9.64,1,.42,1.84-.78,2.67a9.44,9.44,0,0,0-1,1l.2.28c1.22-.13,2.45-.22,3.65-.41,1.37-.22,2.71-.57,4.07-.8.91-.15,1.86-.16,2.77-.3a1.48,1.48,0,0,0,.89-.5c.25-.35.16-.82.49-1.12a7.41,7.41,0,0,1,1.55-.69,1,1,0,0,0-.22-.19c-.77-.35-1.58-.67-2.32-1-.42-.21-1.08-.48-1.08-.74,0-.73-.81-1-1.38-1.38a18.46,18.46,0,0,1-1.82-1.26c-1-.89-1-1.14.27-2a1.91,1.91,0,0,0,.55-.43c.15-.22.32-.51.23-.71s-.57-.16-.9-.17h-2.1l.49-.82-.6-.28c-1.29-.57-1.51-.53-2.49.41a1.54,1.54,0,0,1-.63.47c-1.14.29-.94.79-.76,1.35A2.32,2.32,0,0,1,261.61,54.15Z" style="fill:#205cff"/><path d="M488.43,125.58c-.06,0-.28-.27-.48-.3a13.78,13.78,0,0,1-5.66-2.16,15.2,15.2,0,0,0-2.79-1c-1.74-.59-3.47-1.2-5.23-1.76-1.3-.42-2.7-.71-3.95-1.15s-2.58-1.1-3.9-1.62a8.26,8.26,0,0,0-1.62-.44c-1-.19-2-.35-3-.46a15.14,15.14,0,0,0-1.65,0c.21.35.22.8.66,1a16,16,0,0,0,2.8.89,16.12,16.12,0,0,1,4.88,2.09c.9.59,1.84,1.18,2.88,1.73,1.85,1,3.73,1.95,5.73,2.85,3.28,1.48,6.28,3.28,10.8,3.65.77.06,1.34.17,1.25-.25C489,127.64,488.71,126.67,488.43,125.58Z" style="fill:#205cff"/><path d="M519.49,125.8a4.58,4.58,0,0,1,.46.42c.29.25.6.49.93.73l2.24,1.57a7.4,7.4,0,0,0,2.13.38c.55,0,1.39.07,1.47-.08a.73.73,0,0,0-.37-.93c-2.06-.77-2.85-2-5.24-2.66a1.28,1.28,0,0,1-.73-.45c0-.12.28-.24.55-.27a12,12,0,0,0,1.55-.13c.4-.13.5-.34.73-.52a10.54,10.54,0,0,0-1.34-.45,3.57,3.57,0,0,0-3.58.66c-.6-.15-1.06-.24-1.47-.38a2.13,2.13,0,0,0-2.1,0c-.81.57-.3,2.08,1.11,2.83a4.45,4.45,0,0,1,2.2,1.88c.29.71,1.58.78,2.6.85s1.15-.28.72-.74c-.7-.76-1.45-1.52-2.15-2.28a1.11,1.11,0,0,1-.24-.5A1.88,1.88,0,0,1,519.49,125.8Z" style="fill:#205cff"/><path d="M511.05,65.89c.23-.72-.46-1.21-1.39-1.74a25.91,25.91,0,0,1-5.84-4.3,8.08,8.08,0,0,0-3.3-2.32c-.41.58-.13,1.24.59,2a8.73,8.73,0,0,1,.68.68c1.71,1.74,3.42,3.48,5,5.22a11.92,11.92,0,0,1,1.28,2l1,1.69.45.19c.28-.76,1.47-.51,3-.08A5.4,5.4,0,0,0,511.28,68c-1.62-1.09-3-2.12-2-3.16Z" style="fill:#205cff"/><path d="M256.19,57c-1,0-1.55.33-1.34,1s-.11,1-.63,1.55c-1.1,1-.74,1.54,1.5,1.58a13.42,13.42,0,0,0,2.68-.3c.92-.26,2.28-.8,2.38-1.27a10.15,10.15,0,0,1,.87-2.89c.08-.14-.41-.57-.66-.57a7.1,7.1,0,0,0-2.55.32A4.44,4.44,0,0,1,256.19,57Z" style="fill:#205cff"/><path d="M510.25,130.86c-1.21-1.06-2-1.22-4.12-1.1-2.44.13-4.94.2-7.44.27a9.21,9.21,0,0,1-1.48-.18l-6.83-1c.27,1.22,1,1.73,2.64,1.69,5.1-.1,10.72,1.41,15.89,1.5l.34.06,5.34.32c-2.45-1.3-4.86-.89-7.11-1.68Z" style="fill:#205cff"/><path d="M586.24,170.74c-.22-.41-.62-.56-1.48-.44a22.76,22.76,0,0,1-2.5.23,6,6,0,0,1-3.18-.4c-.14.54,0,1,1.24,1.42a31.59,31.59,0,0,1,3.25,1.35,3.56,3.56,0,0,0,2,.38,4.78,4.78,0,0,0,1.1-.08c.28-.08.75-.21.69-.37C587.05,172.14,586.61,171.44,586.24,170.74Z" style="fill:#205cff"/><path d="M515.52,115a1.88,1.88,0,0,1,1.83.29l2.87,1.67a24.74,24.74,0,0,0,1.87-2c.35-.47-2.71-2.91-4-3.28h-.23c.45,1-.53,1.7-2.54,1.82-1,.06-1.91.09-2,.65-.06.37-.14.72-.21,1.08l.32.22A13.5,13.5,0,0,0,515.52,115Z" style="fill:#205cff"/><path d="M187.82,127.17a7.86,7.86,0,0,1-3.49-.89,18.08,18.08,0,0,0-5.44-1.13,1.89,1.89,0,0,1-.87-.21,14.37,14.37,0,0,0-2.62.27,11,11,0,0,1-2.34.44,2.36,2.36,0,0,1-1.93-.79H171a.41.41,0,0,1,.11-.07,1,1,0,0,1,0-1.15l-.4-.12c-.58-.12-1.27-.13-1.85-.27a4.62,4.62,0,0,1-1.77-.78,16.65,16.65,0,0,0-2-.12,2,2,0,0,0-1.15-.48c-1.83-.2-2.74-.62-2.09-1.79.21-.38-1.36-.76-1.32-1.21s.79-1.17,0-1.6-1.92-.87-2.81-1.34a7.92,7.92,0,0,0-5.11-.67c-2.37.37-3.16-.61-4.67-1-.31-.07-.13-.54-.2-.81a.46.46,0,0,0-.23-.33c-1.19-.49-2-1.28-4.32-.86,1.43-1.13,1.4-1.16-.71-1.33a10.09,10.09,0,0,1-1.22-.23l.7-.76a9.07,9.07,0,0,0-4.84.43,3.77,3.77,0,0,1-1.09.26c-1.7-.14-3.37-.31-5-.52a1.64,1.64,0,0,1-1-.47c-.49-.65-1.76-.65-3-.61-2.11.06-3.53.88-3.62,1.94,0,.23-.36.5-.55.75h-.44c-.15-.17-.51-.34-.41-.51a6,6,0,0,1,4-2.79,10.72,10.72,0,0,0-4.25.44,23.34,23.34,0,0,1-2.5.44c-1.69.24-3.31.39-4.62,1.37a33.18,33.18,0,0,1-3.23,1.84c-1.72-1.18-4.11-1.41-7.45-.71-1.67.35-3.12.35-3.38-.56,0-.06-.12-.11-.22-.15-2-.84-1.07-2.07.44-3.4a14.61,14.61,0,0,0,1.93-2c.19-.25,0-.6-.33-.76-1.52-.79-4.08-.52-6.38-.49H93a13.21,13.21,0,0,0,1.43-.78,21.92,21.92,0,0,1,3.44-2.53c1-.64,2-1.46,3-2.21.81-.61.67-1-.47-.92-1.43,0-2.94.23-4.4.31a4.42,4.42,0,0,0-3.44,1.41,4.44,4.44,0,0,1-3.13,1.4c-2.36.13-5.26.91-6.84,0a3.24,3.24,0,0,1-.92-.64c-.16-.21,0-.56-.18-.74-1.33-1.22.46-2.84,1.31-4.34a3.26,3.26,0,0,1,1.34-1.21A4.36,4.36,0,0,0,86.45,92c.47-.89,1.22-1.28,3-1.61a16.81,16.81,0,0,0,2.2-.54,12.51,12.51,0,0,1,6.47-.61,7,7,0,0,0,4.55-.1c2.61-1,6.28-1.18,7.82-.34a2.71,2.71,0,0,0,1.38.17c1.83-.19,2.51.34,2.42,1.26a11.5,11.5,0,0,0,.4,3.83c.14.56,1.29.52,2.1-.06a5,5,0,0,0,1.7-1.81,4.68,4.68,0,0,0,.11-2.49c-.37-1.67.93-3,4.15-4.11,2.68-1,5.32-1.94,8-2.91l.4-.15c2.48-.82,2.51-.82,2.16-2.07-.09-.3-.46-.53-.62-.7a9.59,9.59,0,0,1,.67-1,7.76,7.76,0,0,1,.65-.63c.3.16.29.26.3.36s.07.48.11.72a10.09,10.09,0,0,0,3.47-1.57,12.92,12.92,0,0,1,2.68-1.7,25.05,25.05,0,0,1,4.93-1.07c1.41-.16,1.75-.18,2.13-1,.14-.31.05-.62.28-.92A2.52,2.52,0,0,1,149,72a28.17,28.17,0,0,1,4.08-.75c1.57-.15,2.6-.7,2.69-1.55a.48.48,0,0,1-.52-.38,1.94,1.94,0,0,1,.75-1.79c.23-.63.64-.89,1.62-1l.17-.08c1.17-.5,2.71-.94,3.7-1.41h0a1.18,1.18,0,0,0-.4-.25,6.37,6.37,0,0,0-2.22,0q-1.32.21-2.61.54a21.48,21.48,0,0,1-2.61,1.35,2.42,2.42,0,0,1-1.3.19l-.77.43c.14-.19.29-.38.45-.56a.41.41,0,0,1-.17-.22c-.48-1.3,2.39-2.26,4.35-2.73a11.52,11.52,0,0,1,3.94-1.35,6.7,6.7,0,0,1,3.31.48,2.21,2.21,0,0,1,.76-.26,15.27,15.27,0,0,1,3.31-.06,31.48,31.48,0,0,0,4-.26c.89-.13,1.8-.26,2.71-.43a16.55,16.55,0,0,1,2.61-.63,2.68,2.68,0,0,0,2-1.7,2.75,2.75,0,0,1-1.36-.18,1.06,1.06,0,0,1-.34-.26c-.24.08-.49.17-.74.23-2.36.65-4.15-.15-3.51-1.65.16-.39.46-.75.41-1.12a3.48,3.48,0,0,0-.66-1.15,4.41,4.41,0,0,1-.59-2.19c0-1.43.38-3-.33-4.19h0a15.36,15.36,0,0,0-1.26,1c-1,.7-2.39,1.12-3.21.6a6.55,6.55,0,0,1-1.71.19,6,6,0,0,0-.72.11c-.25-.41-.31-.91-.75-1.15-.73-.42-.4-1,0-1.64a7.76,7.76,0,0,1,1-.93l-1.64-.77a14.17,14.17,0,0,1-2.64-1.46,4,4,0,0,0-2.77-.57,15.08,15.08,0,0,1-3-.27,2.73,2.73,0,0,0-2.66,1.18,2.19,2.19,0,0,0-.23.82c0,1.24-.71,2.36-3,3.36-1.15.51-1.3.94-.66,1.34,1.91,1.18,1.9,1.35-.16,3.45a4,4,0,0,1-3.17,1.35h-.49c-1.39.08-1.66.21-1.85,1.09-.16.72-.07,1.41-.23,2.14a2,2,0,0,1-.76,1c-.89.63-2.17,1.28-3.09,1s-1.86-.87-1.66-1.48c.32-1,.31-2,1.89-3.05.63-.43.53-.76-.2-.83a21.42,21.42,0,0,0-2.4-.23c-2.84.08-4.52-.68-5.74-1.84a3.49,3.49,0,0,0-1.77-1,2.2,2.2,0,0,1-.53.32c-2.65,1.18-5,.76-4.18-1,.24-.48.46-.77.11-1.08s-.54-.45-.54-.8a3.87,3.87,0,0,1,1.46-2.22,20.64,20.64,0,0,1,5.87-3.65,19.34,19.34,0,0,0,2.17-1c.41-.22.8-.46,1.23-.67a13.29,13.29,0,0,1,3.07-1,10.75,10.75,0,0,0,2.71-.77,18.07,18.07,0,0,0,2.58-1.76,10.8,10.8,0,0,1,6-2,6.16,6.16,0,0,0,3-.75,11,11,0,0,0,2.09-2,5.89,5.89,0,0,0,1.07-1.7,3.3,3.3,0,0,1,1.55-1.58c1.78-.94,3.09-.43,4.29-.14l.11-.1.44.21a6.7,6.7,0,0,1,2.16.48c.46.28.09,1,.54,1.22s.23.54-.08.86a.88.88,0,0,1-.11.39h-.49c-.62.38-1.22.78-1.8,1.22-.37.28-1,1.06-.13.64a10.84,10.84,0,0,0,1.31-.9,7.16,7.16,0,0,1,1.81-.86c3.24-.88,3.24,1.66,1.14,3.19a4.32,4.32,0,0,1-1.8.81h-.3l-.13.18a2.43,2.43,0,0,1-.72.84,5,5,0,0,1-3.18,1.27c-.56,0-2.34.07-2.5.63-.06.24.1.43.36.58h3.63a1.33,1.33,0,0,1,.71.14c.48.45.85,1,1.36,1.41.68.57.8,1.58,2.7,1.28a2.41,2.41,0,0,1,.79.24l4.18,1.4.39-.18a1,1,0,0,0-.12-.61c-.55-.76-1.16-1.48-1.68-2.24-.1-.15,0-.42.07-.63l.36-.09.34.28a10.49,10.49,0,0,0,1.47,1.36,1.54,1.54,0,0,0,2-.19,5.24,5.24,0,0,1,1-.44,2.43,2.43,0,0,0-.66-2.91,21,21,0,0,1-1.93-2.07l.33-.34c.51-.11,1-.26,1.53-.33,1.42-.21,1.59.55,2,1.08s.89,1,1.29,1.53l3.9-2.09,2-1.1a9.39,9.39,0,0,1-1.38-.78,3.65,3.65,0,0,0-2.45-.73c-.66,0-1.48-.22-1.59-.57-.22-.66-1-.58-1.78-.55a1.32,1.32,0,0,1-.94-.27,2.73,2.73,0,0,1-.32-1,9.56,9.56,0,0,1,1.43-.63,15,15,0,0,0,1.83-.81c.19-.1.38-.54.27-.59-1-.45-1.67-1.17-3.53-.79.48-1.69-.74-2.3-2.65-2.49a4.5,4.5,0,0,1-2.88-1.45c-.32-.31-.7-.57-1.18-1l.68-1.06A4.62,4.62,0,0,0,168,24c-1.95-.18-4-.25-5.83-.54a9.68,9.68,0,0,0-4.1.47c-.85.24-1.84.54-2,1.24-.16.92-1.39,1.59-2.28,2.5-.08-.5-.16-.88-.2-1.28-.07-.85.39-1.35,1.85-1.95.93-.39,1.86-.72,3-1.14-1.66-.6-3.87,0-5.9.37a1.4,1.4,0,0,0-.44.22c-1.4,1.09-2.9,2.17-4.18,3.31-1,.84-.72,1.31.37,1.44l1,.1-.14.16-1.82.31-.23.27c.77.26,1.57.49,2.3.78a5.71,5.71,0,0,1,1.7.83c.45.38-.73.92-1,1.36-.72,1.34-2.44,2.15-4.11,3a1.76,1.76,0,0,1-1.13.14c-.16-.17-.06-.54.15-.82a5.35,5.35,0,0,1,1.08-.75c.61-.39.76-.68.35-.91a3,3,0,0,1-.48-.4c-.46-.39-1.15-.29-2.09.26-.4.23-.85.43-1.52.77a6.63,6.63,0,0,1,.43-.94c.41-.61.56-1.06-.39-1.13-.23,0-.3-.45-.11-.67,1.32-1.5,1.18-2.56.49-3.48-.23-.32-.4-.68.45-1.21s1.44-1.22,2.3-.81a2.74,2.74,0,0,0,1.29-.26,23.56,23.56,0,0,0,2.55-1c.47-.22,1.17-.67,1.22-.88s-.3-.52-.67-.6a11.88,11.88,0,0,0-2.3-.23,10.43,10.43,0,0,0-5.07,1c-.89.42-1.27.79-1.23,1.3a4.39,4.39,0,0,1-.08,1.49,2.54,2.54,0,0,1-2,1.59,6.73,6.73,0,0,0-3,1.71c-.67.54-.72.88-.24,1.08a9.85,9.85,0,0,0,1.81.67c.77.16.88.53.45,1.18a3,3,0,0,1-1.91,1.14,2.8,2.8,0,0,0-1.8,1.11,2,2,0,0,1-2,.9c.23-.64,1.83-1.47.76-1.86,1.2-.61,2.59-.29,3.25-1.29-.62-.54-1.15-1.05-1.77-1.5a1.5,1.5,0,0,0-1,.07,7.39,7.39,0,0,1-3.17,1.14,6.09,6.09,0,0,0-1.21.64c.17.13.28.31.52.38.5.14,1.06.23,1.59.34-1.38,1.08-2.61,1.69-3.89,1.28a4.09,4.09,0,0,0-1.48,0,5,5,0,0,1-3.64-.5,4,4,0,0,1-.51-.41,10.42,10.42,0,0,0-1.58,0,6.78,6.78,0,0,0-1,.19,3,3,0,0,1-.43.12h-.13c-.6.18-1.23.4-1.83.61a2,2,0,0,1-.48.12c-.28.09-.56.16-.82.22-.18.36-.35.73-.53,1.09a1,1,0,0,1-.35-.75,1.31,1.31,0,0,0,0-.28h-.17a4.74,4.74,0,0,0-1.59-.22c-.91.11-1.93.4-2.86.53-1.28.19-2.75.27-3.29-.23a.53.53,0,0,1-.18-.37h-.84l.86-.26A3.46,3.46,0,0,1,107,34c.07-.26.08-.48-.36-.52a8.54,8.54,0,0,1-1.75-.06,2.17,2.17,0,0,1-1.24-.86,5,5,0,0,1-3.16-1.42c-.46-.56-1.07-.46-2.56.28-1.32.66-1.88.62-1.7-.1,0-.21,0-.54-.13-.51a6.77,6.77,0,0,0-1.32.5,3.72,3.72,0,0,0-.48.27c-.78.49-1.33.56-1.41.19a8.55,8.55,0,0,1,0-1.6,2.73,2.73,0,0,0-.1-.48,11.09,11.09,0,0,0-1.12.48c-1.31.8-2.73,1.28-3.25.85-.78-.64-2.37-.12-4,.33a7.86,7.86,0,0,1-2.24.52c-1-.39-2.46.1-4.07.67-1.22.43-2,.49-2.51.09a9,9,0,0,0-2.35-1.09c-.64-.24-1.84-.2-2.06-.62-.32-.6-1.23-.52-2.57-.27-.73.14-1.64.21-1.86,0-.49-.49-1.49-.55-2.7-.51A3.1,3.1,0,0,1,62.71,30a5.11,5.11,0,0,0-3.51-.17c-.44.1-1.06-.05-.94-.18.82-.94-.21-.87-1.17-.75-1.49.19-2.44.06-3-.39A1.87,1.87,0,0,0,53,28.42c-1.58.23-3.22.5-4.86.78-.36.06-.83.26-1.24.37a17.46,17.46,0,0,1-2.56.65,7.26,7.26,0,0,0-2.78.77,12.82,12.82,0,0,1-5.86,1.65,3.15,3.15,0,0,0-.75.1c-.7.2-1.42.43-2.13.64a2.12,2.12,0,0,0,.1.81c.3.45.85.8,1.08,1.29.31.69.58,1.38,2.21,1.38.32,0,.46.14.88.28a19.09,19.09,0,0,1-4.91.8c-.15,0-.16-.16-.09-.29.41-.71-.35-.75-1.53-.51-1.72.34-3.49.73-5.25,1.1-1.3.28-2,.67-1.9,1.17s.17,1.06,1,1.11c1.95.11,3.21.8,6.34,0,.48-.12,1.11-.07,1.12.11.05.53-1.6,1.42-2.83,1.58-.46.06-1,.22-1.51.32a8.82,8.82,0,0,1-1.85.3,6.05,6.05,0,0,0-3.43.83c-.66.32-1.54.46-2.24.77a26.89,26.89,0,0,0-2.55,1.34c-.08,0,.35.24.57.36h.32a4.07,4.07,0,0,1,.41.42c-.46.18-.94.4-1.38.52a12.79,12.79,0,0,1-1.37.28c-.49,1,.77,1.34,2.92.9a2.88,2.88,0,0,1,1.54,0c.12.1-.6.68-1.13,1-1.12.61-1.12,1-.81,1.23s1.11,0,2-.31l1.67-.67c-.43,1.35,2.23.71,3.9.7a13.1,13.1,0,0,0-2,.86c-.87.95-2.33,1.26-3.67,1.72-1.5.51-3,1-4.53,1.47a6,6,0,0,1-.73.17c-1.37.26-2.71.48-4.12.8-3,.69-6,1.43-9,2.15a9.55,9.55,0,0,0-1.08.3c-.31.12-.59.3-.89.45a1.7,1.7,0,0,0,.67.13A12.24,12.24,0,0,0,1.92,58c2.22-.47,4.44-1,6.62-1.41,2-.41,3.93-.62,6-1.18,4.59-1.4,9.35-2.79,14.1-4.2,1.36-.79,2.71-1.58,4.13-2.32a39.53,39.53,0,0,1,4.55-2,13.17,13.17,0,0,1,4.1-1c1.69.16-.72,1.41-2.37,2.32a6.15,6.15,0,0,0,1.76.26,7.5,7.5,0,0,0,2-1c2.93-2.12,5-.57,6.53-.4.37,0,.43.19.3.39a1.65,1.65,0,0,1,.7,0,24.22,24.22,0,0,0,3.17.36,4.23,4.23,0,0,1,2.25.89,9.47,9.47,0,0,0,1.43,1.09,9.81,9.81,0,0,0,2.43.65C62.34,51,61.81,53,61.26,55a4.34,4.34,0,0,0,0,2.89,3.46,3.46,0,0,1,.41,2.9,1.47,1.47,0,0,1-.1.22c.36,0,.55.21.36.53L61.11,63a2.85,2.85,0,0,1,.3,2.58c-1,2.9-5.33,6.21-8.21,9.24a2.64,2.64,0,0,1-1.39.68,1.88,1.88,0,0,0-.32,1c0,.27-.24.59-.24.86a11.25,11.25,0,0,0,.11,1.53c0,.12.23.19.23.31v2.62a.39.39,0,0,1-.21.35c-1.11.61-.49.77.13.84,2.54.31,3.35,1.31,3.34,2.77A21.48,21.48,0,0,0,55.54,90c.05.24.12.47.18.73l-1.6.24c-.27.75.35,1.08,1.28,1.29,1.52.34,1.59.6.73,1.66-.2.25-.26.55-.1.72a17.27,17.27,0,0,0,2,1.72,1.58,1.58,0,0,0,1,.15A2.2,2.2,0,0,0,60,96c.5-.45.53-.8-.22-1a.6.6,0,0,1-.54-.46,19.26,19.26,0,0,0-.09-3.22,25.48,25.48,0,0,0-1.3-2.55c-.23-.62-.46-1.3.84-2.15,1.91,0,2.29.59,1.84,1.63a2,2,0,0,0,.25,2c.71.94,2.38,1.57,1.63,3-.08.15.17.27.27.4,1,1.25,2.11,2.47,3,3.77.19.26-.2.85-.7,1.21-1,.71-1.07,1.17-.62,1.69,1.39,1.56,4.61,2.16,7.27,3.06a39.52,39.52,0,0,0,4.69,1,9.45,9.45,0,0,0,4.1,0,3.62,3.62,0,0,1,2.88.28c.65.53,1.23,1.1,1.9,1.62a2,2,0,0,0,.93.37,23.27,23.27,0,0,0,4.32.59c3,0,3.43,1,3.71,2.16a2.89,2.89,0,0,0,2.46,2.38c1,.27,1.24,1.12,1.88,1.77,1.6-.76,2.32-.54,3-.15a2.38,2.38,0,0,0,.73.27c1.21.32,2,.12,2.5-.71.3-.48.73-.59,1.51-.58s2.68,1,2.39,1.61a18.54,18.54,0,0,1-2.22,3.74c-.81,1.08-3.59,1.36-4.85,2.47-.83.72-2.76,1.31-4.27,1.91-1.11.44-2.74,1.73-2.33,2.11.65.61,2-.07,3-.2a5.76,5.76,0,0,1,.7.06,10.25,10.25,0,0,1-1.84.7,8.72,8.72,0,0,0-4.22,1.72c-.23.19-.4.44-.32.6.32.69.79,1.35,1.13,2,.76,1.54,1.51,3.09,2.27,4.63a6.54,6.54,0,0,1,.41,1.12c.14.54.21,1.09.35,1.63.09.35,0,.81.42,1,2.49,1.11,5.11,2.17,7.78,3.22,1.66.65,2.73,2.65,1.29,3.65-2.57,1.78-3.31,3.6-4.55,5.43a5.2,5.2,0,0,1-1.77,1.75,12.77,12.77,0,0,0-1.81,1.27c-.58.73-1.13,1.45-1.62,2.18a29.51,29.51,0,0,1-5.62,6.87,27.27,27.27,0,0,0-3.51,3.28,8,8,0,0,0-1.19,2.27,8.41,8.41,0,0,1-1.41,2.62.34.34,0,0,1,.17.45v0a6.15,6.15,0,0,1-2.25,2.25,8.86,8.86,0,0,1-2.27,1.57l-.4.15-.54.38c-1,.73-1.19,1.48-2.1,2.22s-2.07,1.37-2.48,2.2a13.36,13.36,0,0,0-1.39,4.7,1.89,1.89,0,0,0,1.15.59,11.54,11.54,0,0,1,1.44.32,4.61,4.61,0,0,0,4.57-.22c.51.38,1.64.68-.33,1.21-.22.06-.32.5-.07.61,1.1.52,2.35,1,3.55,1.47h1.14c.84-.08,1.69-.18,2.53-.25.76-.82.29-1.67-.12-2.49a5,5,0,0,1-.8-1.08c-.92-1.64-.77-3.15,2.94-4.64a40.74,40.74,0,0,0,4.84-2c.9-.53.49-.79,0-1.23-1.46-1.31.18-2.54,3.45-3.58a10.57,10.57,0,0,0,4.22-2c.51-.5.27-.9.5-1.39a2.54,2.54,0,0,1,1.26-1,3,3,0,0,1,.38-.23,5.2,5.2,0,0,1,2.64-.46h.23l.44-.09a6.54,6.54,0,0,0,.87-.34c.65-.34,1.06-.72,1.76-1.05a14.75,14.75,0,0,1,2.33-.85,28,28,0,0,1,4.17-.73c1.87-.21,5.13-.2,6.56-1,1.79-1-.06-2.49,2.36-3.32h.19l-.41-.1h.65a16,16,0,0,1,4.53-.17,7.12,7.12,0,0,0,4.16-1.46c2.68-1.55,6.28-2.57,9.66-3.74a20.1,20.1,0,0,0,5-2.26c1-.76,1.63-1.59,2.57-2.37,2.31-1.91,5.87-2.73,10-3.35a56.54,56.54,0,0,0,6.21-1,15.24,15.24,0,0,0,3.89-1.67,50.38,50.38,0,0,0,5.7-4.27c.73-1.33,1.35-2.67,2-4.06a3.36,3.36,0,0,0,3.09-1.16,5.08,5.08,0,0,1,3-1.55,6,6,0,0,0,3.53-1.87,9.09,9.09,0,0,0,1.12-2.43C190.51,127.9,189.63,127.28,187.82,127.17Zm-60.7-58.45.13-.11a3.56,3.56,0,0,1,2.29-1.28c1.66-.33,2.23.46,2.25,1.22a1.29,1.29,0,0,1-.06.48c.47.14.56.34-.21.81l-.1.06a3.2,3.2,0,0,1-1.59,1.59,1.41,1.41,0,0,1-.22.4c-.71,1-3.07,1-2.52.07H127c-.51,0-.91-.26-.79-.56a10.41,10.41,0,0,1,1-2.64A.07.07,0,0,1,127.12,68.72Zm4.77,4.46a.69.69,0,0,1,.25-.57,6.07,6.07,0,0,1,3.08-1.6,2.64,2.64,0,0,1,.71-.31,4.6,4.6,0,0,1,3-.07.61.61,0,0,1,.22.2h.2c1.37.25-.22,1.73-1.6,1.48h-.08a10.51,10.51,0,0,1-5,1.26c-.45,0-.71-.14-.78-.34a20.53,20.53,0,0,1-6.44,1.22C127.74,73.67,129.89,72.9,131.89,73.18Zm-14.13.29c.94-1.17,1.83-2.33,2.94-3.48.67-.69,3.38-1.28,4.91-1.21-1.2.63-2.35,1.26-3.57,1.84-1,.47-1.42.94-1.54,1.52a5.92,5.92,0,0,1-.51,1.15c-.22.49-.79.74-1.59.81S117.43,73.88,117.76,73.47Z" style="fill:#205cff"/></g></g></g><g id="ponits"><path d="M330.29,139.35a11.06,11.06,0,1,0,11,11.07v-.07A11.06,11.06,0,0,0,330.29,139.35Zm0,20.75a9.7,9.7,0,1,1,9.7-9.7,9.7,9.7,0,0,1-9.7,9.7Z" style="fill:#fff"/><circle cx="330.29" cy="150.4" r="2.13" style="fill:#fff"/><path d="M374,84.26a11,11,0,1,0,11,11A11,11,0,0,0,374,84.26ZM374,105a9.7,9.7,0,1,1,9.69-9.71h0A9.69,9.69,0,0,1,374,105Z" style="fill:#fff"/><circle cx="374.04" cy="95.31" r="2.13" style="fill:#fff"/><path d="M313,39.33a11.06,11.06,0,1,0,11,11.07v-.07A11.06,11.06,0,0,0,313,39.33Zm0,20.75a9.7,9.7,0,1,1,9.69-9.71h0A9.69,9.69,0,0,1,313,60.08Z" style="fill:#fff"/><circle cx="313.04" cy="50.38" r="2.13" style="fill:#fff"/><path d="M479.31,109.43a11.06,11.06,0,1,0,11.05,11.07v-.07A11.06,11.06,0,0,0,479.31,109.43Zm0,20.75a9.7,9.7,0,1,1,9.7-9.7,9.7,9.7,0,0,1-9.7,9.7Z" style="fill:#fff"/><circle cx="479.31" cy="120.48" r="2.13" style="fill:#fff"/><path d="M279.75,52.91a11,11,0,1,0,11.05,11A11,11,0,0,0,279.75,52.91Zm0,20.75a9.7,9.7,0,1,1,9.7-9.7,9.7,9.7,0,0,1-9.7,9.7Z" style="fill:#fff"/><circle cx="279.75" cy="63.96" r="2.13" style="fill:#fff"/><path d="M269.67,50.59a11.06,11.06,0,1,0,11.05,11.07h0a11,11,0,0,0-10.94-11.06Zm0,20.75a9.7,9.7,0,1,1,9.7-9.7h0a9.69,9.69,0,0,1-9.69,9.69Z" style="fill:#fff"/><circle cx="269.67" cy="61.65" r="2.13" style="fill:#fff"/><path d="M267.45,66.8a11,11,0,1,0,11.05,11A11,11,0,0,0,267.45,66.8Zm0,20.75a9.7,9.7,0,1,1,9.7-9.7,9.7,9.7,0,0,1-9.7,9.7Z" style="fill:#fff"/><circle cx="267.45" cy="77.85" r="2.13" style="fill:#fff"/></g></g></g></svg>