<svg xmlns="http://www.w3.org/2000/svg" viewBox="0 0 150 150"><title>Asset 7</title><g id="Layer_2" data-name="Layer 2"><g id="Layer_1-2" data-name="Layer 1"><g id="Rectangle_32-3" data-name="Rectangle 32-3"><rect width="150" height="150" rx="15" style="fill:#fff"/><rect x="0.5" y="0.5" width="149" height="149" rx="14.5" style="fill:none;stroke:#fff"/></g><g id="ozeety-logo_gt9tst" data-name="ozeety-logo gt9tst"><g id="ozeety_simple" data-name="ozeety simple"><path id="Path-2-2" d="M36.28,62.22l11.2,9,0-14.56Z" style="fill:#eac654"/><path id="Path-3-2" d="M36.06,81.66,47.48,71.27,32,71.66Z" style="fill:#c8992e"/><path id="Path-4-2" d="M47.88,76l-.4-4.69L36.06,81.66Z" style="fill:#f9df7b"/><path id="Path-5-2" d="M32,71.66l15.46-.39-11.2-9Z" style="fill:#b57e10"/><path id="Path-6" d="M54.26,83.46l-1.58-5.1L46.4,85.81Z" style="fill:#c8992e"/><path id="Path-7" d="M52.68,78.36,47.88,76,46.4,85.82Z" style="fill:#b57e10"/><path id="Path-8" d="M46.4,85.82,47.88,76l-11.82,5.7Z" style="fill:#eac654"/><path id="Path-9" d="M58.08,77.5l-5.4.86,1.58,5.11Z" style="fill:#f9df7b"/><path id="Path-10" d="M58.87,68.37l.33-10.19-7.32,9.69Z" style="fill:#b57e10"/><path id="Path-11" d="M68.42,65.14l-9.22-7-.33,10.19,9.55-3.23Z" style="fill:#eac654"/><path id="Path-12" d="M59.2,58.18,47.52,56.71l4.36,11.16Z" style="fill:#c8992e"/><path id="Path-13" d="M74.23,78.79l-1.09-5.33-6.3,5.33Z" style="fill:#eac654"/><path id="Path-14" d="M47.52,56.71l0,14.56,4.4-3.4Z" style="fill:#f9df7b"/><path id="Path-15" d="M66.84,78.79l6.3-5.33-7.68-.1Z" style="fill:#b57e10"/><path id="Path-16" d="M73.14,73.46l-4.72-8.32-3,8.22,7.68.1Z" style="fill:#c8992e"/><path id="Path-17" d="M65.46,73.36l3-8.22-9.55,3.23Z" style="fill:#f9df7b"/><path id="Path-18" d="M66.84,78.79l4.39,4.09,3-4.09Z" style="fill:#f9df7b"/><path id="Path-19" d="M71.23,82.88l3,4.39V78.79Z" style="fill:#c8992e"/><path id="Path-20" d="M74.92,120.54V107.73l-9.43-3.51Z" style="fill:#eac654"/><path id="Path-21" d="M65.49,104.22l9.43,3.51V92.66Z" style="fill:#f9df7b"/><path id="Path-22" d="M74.92,120.54V107.73l9.42-3.51Z" style="fill:#b57e10"/><path id="Path-23" d="M84.34,104.22l-9.42,3.51V92.66Z" style="fill:#c8992e"/><path id="Path-24" d="M53,92.14l6.57-1.76-2.77,6.3Z" style="fill:#eac654"/><path id="Path-25" d="M56.65,83.69l2.94,6.69L53,87.24Z" style="fill:#c8992e"/><path id="Path-26" d="M60.67,88.42l-1.08,2-2.94-6.69Z" style="fill:#f9df7b"/><path id="Path-27" d="M53,87.24l6.61,3.14L53,92.14Z" style="fill:#b57e10"/><path id="Path-28" d="M64.87,86.4,63.2,88.31l-1.28-4.44Z" style="fill:#c8992e"/><path id="Path-29" d="M63.2,88.3l-2.53.12,1.25-4.55Z" style="fill:#b57e10"/><path id="Path-30" d="M61.92,83.87l-1.25,4.55-4-4.73Z" style="fill:#eac654"/><path id="Path-31" d="M65.38,89.71l-2.18-1.4,1.67-1.91Z" style="fill:#f9df7b"/><path id="Path-32" d="M64,93.81l-1.81,4.48-1.32-5.6Z" style="fill:#b57e10"/><path id="Path-33" d="M67.48,97l-5.32,1.24L64,93.81Z" style="fill:#eac654"/><path id="Path-34" d="M62.16,98.29l-5.34-1.61,4-4,1.31,5.6Z" style="fill:#c8992e"/><path id="Path-35" d="M72.61,92.25l-1.5,2.1-1.7-3.52Z" style="fill:#eac654"/><path id="Path-36" d="M56.82,96.68l2.78-6.3,1.25,2.31Z" style="fill:#f9df7b"/><path id="Path-37" d="M69.41,90.83l1.7,3.52-3.34-1.43Z" style="fill:#b57e10"/><path id="Path-38" d="M71.11,94.35,67.48,97l.3-4.12Z" style="fill:#c8992e"/><path id="Path-39" d="M67.77,92.92,67.47,97,64,93.82Z" style="fill:#f9df7b"/><path id="Path-40" d="M69.41,90.83l2.69-.92.51,2.34Z" style="fill:#f9df7b"/><path id="Path-41" d="M72.1,89.91l2.13-1.32-1.62,3.66Z" style="fill:#c8992e"/><path id="Path-42" d="M96.81,92.14l-6.57-1.76L93,96.68Z" style="fill:#eac654"/><path id="Path-43" d="M93.18,83.69l-2.94,6.69,6.61-3.14Z" style="fill:#c8992e"/><path id="Path-44" d="M89.16,88.42l1.08,2,2.94-6.69Z" style="fill:#f9df7b"/><path id="Path-45" d="M96.85,87.24l-6.61,3.14,6.57,1.76Z" style="fill:#b57e10"/><path id="Path-46" d="M85,86.4l1.66,1.91,1.28-4.44Z" style="fill:#c8992e"/><path id="Path-47" d="M86.63,88.3l2.53.12-1.25-4.55Z" style="fill:#b57e10"/><path id="Path-48" d="M87.91,83.87l1.25,4.55,4-4.73Z" style="fill:#eac654"/><path id="Path-49" d="M84.46,89.71l2.17-1.4L85,86.4Z" style="fill:#f9df7b"/><path id="Path-50" d="M85.87,93.81l1.8,4.48L89,92.69Z" style="fill:#b57e10"/><path id="Path-51" d="M82.36,97l5.32,1.24-1.81-4.47Z" style="fill:#eac654"/><path id="Path-52" d="M87.67,98.29,93,96.68l-4-4Z" style="fill:#c8992e"/><path id="Path-53" d="M77.22,92.25l1.5,2.1,1.7-3.52Z" style="fill:#eac654"/><path id="Path-54" d="M93,96.68l-2.77-6.3L89,92.69Z" style="fill:#f9df7b"/><path id="Path-55" d="M80.42,90.83l-1.7,3.52,3.34-1.44Z" style="fill:#b57e10"/><path id="Path-56" d="M78.72,94.35,82.35,97l-.29-4.12Z" style="fill:#c8992e"/><path id="Path-57" d="M82.06,92.92l.3,4.12,3.51-3.22Z" style="fill:#f9df7b"/><path id="Path-58" d="M80.42,90.83l-2.68-.92-.52,2.34Z" style="fill:#f9df7b"/><path id="Path-59" d="M77.74,89.91,75.6,88.59l1.62,3.66Z" style="fill:#c8992e"/><path id="Path-60" d="M113.55,62.22l-11.2,9,0-14.56Z" style="fill:#eac654"/><path id="Path-61" d="M113.77,81.66,102.35,71.27l15.47.39Z" style="fill:#c8992e"/><path id="Path-62" d="M102,76l.4-4.69,11.42,10.39Z" style="fill:#f9df7b"/><path id="Path-63" d="M117.82,71.66l-15.47-.39,11.2-9,4.27,9.44Z" style="fill:#b57e10"/><path id="Path-64" d="M95.57,83.46l1.58-5.1,6.28,7.45Z" style="fill:#c8992e"/><path id="Path-65" d="M97.15,78.36,102,76l1.48,9.86Z" style="fill:#b57e10"/><path id="Path-66" d="M103.43,85.82,102,76l11.82,5.7Z" style="fill:#eac654"/><path id="Path-67" d="M91.75,77.5l5.4.86-1.58,5.11Z" style="fill:#f9df7b"/><path id="Path-68" d="M91,68.37l-.33-10.19L98,67.87Z" style="fill:#b57e10"/><path id="Path-69" d="M81.42,65.14l9.21-7L91,68.37Z" style="fill:#eac654"/><path id="Path-70" d="M90.63,58.18l11.68-1.47L98,67.87Z" style="fill:#c8992e"/><path id="Path-71" d="M75.6,78.79l1.1-5.33L83,78.79Z" style="fill:#eac654"/><path id="Path-72" d="M102.31,56.71l0,14.56L98,67.87Z" style="fill:#f9df7b"/><path id="Path-73" d="M83,78.79l-6.3-5.33,7.68-.1Z" style="fill:#b57e10"/><path id="Path-74" d="M76.69,73.46l4.73-8.32,3,8.22Z" style="fill:#c8992e"/><path id="Path-75" d="M84.37,73.36l-3-8.22L91,68.37Z" style="fill:#f9df7b"/><path id="Path-76" d="M83,78.79,78.6,82.88l-3-4.09Z" style="fill:#f9df7b"/><path id="Path-77" d="M78.6,82.88l-3,4.39V78.79Z" style="fill:#c8992e"/><path id="Path-78" d="M61.25,36.17,74.92,73.91V40.43Z" style="fill:#b57e10"/><path id="Path-79" d="M88.58,36.17,74.92,73.91V40.43Z" style="fill:#eac654"/><path id="Path-80" d="M61.25,36.17h0l13.67,4.25V28.51A15.87,15.87,0,0,0,61.25,36.17Z" style="fill:#c8992e"/><path id="Path-81" d="M74.92,28.51V40.42l13.66-4.25h0A15.87,15.87,0,0,0,74.92,28.51Z" style="fill:#f9df7b"/></g></g></g></g></svg>