<svg xmlns="http://www.w3.org/2000/svg" xmlns:xlink="http://www.w3.org/1999/xlink" viewBox="0 0 150 150"><defs><linearGradient id="linear-gradient" x1="-327.27" y1="602.47" x2="-326.85" y2="603.37" gradientTransform="matrix(46.48, 0, 0, -37.44, 15275.09, 22628.2)" gradientUnits="userSpaceOnUse"><stop offset="0" stop-color="#fcc741"/><stop offset="0.1" stop-color="#c87c20"/><stop offset="0.2" stop-color="#fbd97b"/><stop offset="0.4" stop-color="#f6a94a"/><stop offset="0.5" stop-color="#a86116"/><stop offset="0.6" stop-color="#f6a94a"/><stop offset="0.8" stop-color="#f7ef9b"/><stop offset="0.83" stop-color="#ebd27c"/><stop offset="0.89" stop-color="#cd882d"/><stop offset="0.9" stop-color="#c87c20"/><stop offset="1" stop-color="#fcc741"/></linearGradient><linearGradient id="linear-gradient-2" x1="-327.12" y1="602.85" x2="-326.71" y2="603.74" gradientTransform="matrix(46.48, 0, 0, -37.43, 15272.09, 22676.97)" xlink:href="#linear-gradient"/><linearGradient id="linear-gradient-3" x1="-278.56" y1="556.69" x2="-266.55" y2="555.7" gradientTransform="matrix(5.95, 0, 0, -7.88, 1697.72, 4462.05)" xlink:href="#linear-gradient"/><linearGradient id="linear-gradient-4" x1="-264.61" y1="494.4" x2="-249.29" y2="492.37" gradientTransform="matrix(4.67, 0, 0, -3.82, 1275.56, 1964.63)" xlink:href="#linear-gradient"/><linearGradient id="linear-gradient-5" x1="-247.99" y1="497.08" x2="-228.73" y2="495.1" gradientTransform="matrix(3.72, 0, 0, -3.91, 960.83, 2015.78)" xlink:href="#linear-gradient"/><linearGradient id="linear-gradient-6" x1="-268.32" y1="492.86" x2="-253.4" y2="490.8" gradientTransform="matrix(4.8, 0, 0, -3.77, 1326.27, 1930.75)" xlink:href="#linear-gradient"/><linearGradient id="linear-gradient-7" x1="-221.67" y1="522.66" x2="-195.84" y2="521.1" gradientTransform="matrix(2.77, 0, 0, -4.97, 653.69, 2671.04)" xlink:href="#linear-gradient"/><linearGradient id="linear-gradient-8" x1="-268.34" y1="494.09" x2="-253.04" y2="492.05" gradientTransform="matrix(4.68, 0, 0, -3.8, 1294.54, 1949.25)" xlink:href="#linear-gradient"/><linearGradient id="linear-gradient-9" x1="-291.74" y1="493.78" x2="-281.68" y2="491.72" gradientTransform="matrix(7.11, 0, 0, -3.78, 2113.86, 1940.4)" xlink:href="#linear-gradient"/><linearGradient id="linear-gradient-10" x1="-285.2" y1="557.19" x2="-273.22" y2="556.21" gradientTransform="matrix(5.97, 0, 0, -7.88, 1741.73, 4459.6)" xlink:href="#linear-gradient"/><linearGradient id="linear-gradient-11" x1="-272.99" y1="494.72" x2="-257.68" y2="492.67" gradientTransform="matrix(4.68, 0, 0, -3.8, 1316.25, 1949.25)" xlink:href="#linear-gradient"/><linearGradient id="linear-gradient-12" x1="-263.79" y1="498.1" x2="-245.86" y2="496.11" gradientTransform="matrix(4, 0, 0, -3.9, 1093.6, 2014.04)" xlink:href="#linear-gradient"/><linearGradient id="linear-gradient-13" x1="-250.68" y1="494.17" x2="-229.12" y2="492.11" gradientTransform="matrix(3.32, 0, 0, -3.77, 871.69, 1934.16)" xlink:href="#linear-gradient"/><linearGradient id="linear-gradient-14" x1="-275.58" y1="495.09" x2="-260.23" y2="493.05" gradientTransform="matrix(4.66, 0, 0, -3.8, 1323.9, 1949.21)" xlink:href="#linear-gradient"/><linearGradient id="linear-gradient-15" x1="-296.66" y1="494.8" x2="-286.59" y2="492.74" gradientTransform="matrix(7.11, 0, 0, -3.78, 2149.23, 1940.64)" xlink:href="#linear-gradient"/></defs><title>Asset 2</title><g id="Layer_2" data-name="Layer 2"><g id="Layer_1-2" data-name="Layer 1"><g id="Rectangle_31" data-name="Rectangle 31"><rect width="150" height="150" rx="15" style="fill:#fff"/><rect x="0.5" y="0.5" width="149" height="149" rx="14.5" style="fill:none;stroke:#fff"/></g><path id="Path_1" data-name="Path 1" d="M97.28,58.61a25.56,25.56,0,0,0-3.5-7.08A25,25,0,0,0,88.37,46,20.11,20.11,0,0,0,82,42.79a10.26,10.26,0,0,1-1.77-.68A11,11,0,0,1,78.36,41a15.27,15.27,0,0,1-3.15-3.17,41.47,41.47,0,0,0-3-3.73,9.84,9.84,0,0,0-3.46-2.33,21.44,21.44,0,0,0-5.54-1.27c-2.29-.26-5.37-.42-9.24-.46a11.79,11.79,0,0,1,6.37,2.91c.47.47,1,1,1.57,1.7a16.65,16.65,0,0,0,3,2.73,7.55,7.55,0,0,0,3.64,1.4c1.21.13,2.24.29,3.11.47a19.23,19.23,0,0,1,2.37.63,13.72,13.72,0,0,1,2,.84c.6.31,1.24.64,1.9,1l-.07.2a15.48,15.48,0,0,0-2.55-.2,20,20,0,0,0-9.11,2.13,25.3,25.3,0,0,0-7.38,5.61,26.66,26.66,0,0,0-4.93,8,24,24,0,0,0-1.8,9.19h0a9,9,0,0,0,7.68,0h0v0a59.32,59.32,0,0,1,.8-10.48A20.84,20.84,0,0,1,63.2,48.6,11.82,11.82,0,0,1,68,44.12a18.87,18.87,0,0,1,14.53,0,11.87,11.87,0,0,1,4.81,4.48,21,21,0,0,1,2.67,7.48,60.28,60.28,0,0,1,.8,10.48v0h0a9,9,0,0,1,7.68,0h0A26.11,26.11,0,0,0,97.28,58.61Z" style="fill:url(#linear-gradient)"/><path id="Path_2" data-name="Path 2" d="M53.28,92A25.87,25.87,0,0,0,56.79,99a24.52,24.52,0,0,0,5.41,5.54,20,20,0,0,0,6.42,3.19,11.07,11.07,0,0,1,1.77.66,12.52,12.52,0,0,1,1.82,1.12,15.52,15.52,0,0,1,3.14,3.18,41.71,41.71,0,0,0,3,3.74,9.62,9.62,0,0,0,3.47,2.33,21.13,21.13,0,0,0,5.54,1.27c2.3.27,5.38.42,9.25.47a11.83,11.83,0,0,1-6.38-2.92c-.46-.46-1-1-1.56-1.7a16.77,16.77,0,0,0-3-2.73,7.58,7.58,0,0,0-3.65-1.4c-1.2-.13-2.24-.29-3.1-.47a19.38,19.38,0,0,1-2.38-.63,15.41,15.41,0,0,1-2-.84c-.6-.31-1.24-.64-1.9-1l.06-.2a16.85,16.85,0,0,0,2.55.2,19.85,19.85,0,0,0,9.11-2.14,25,25,0,0,0,7.38-5.6,26.45,26.45,0,0,0,4.94-8A24,24,0,0,0,98.52,84h0a9,9,0,0,0-7.68,0h0v0A60.28,60.28,0,0,1,90,94.49,21,21,0,0,1,87.37,102a11.82,11.82,0,0,1-4.84,4.48,18.87,18.87,0,0,1-14.53,0A11.8,11.8,0,0,1,63.19,102a20.84,20.84,0,0,1-2.67-7.48A59.94,59.94,0,0,1,59.72,84v0h0a9,9,0,0,1-7.67,0h0A25.94,25.94,0,0,0,53.28,92Z" style="fill:url(#linear-gradient-2)"/><path id="Path_3" data-name="Path 3" d="M45.22,79.22A11.85,11.85,0,0,1,44,79.16,2.65,2.65,0,0,1,43.3,79a1.23,1.23,0,0,1-.44-.3,4.45,4.45,0,0,1-.38-.48,2.11,2.11,0,0,0-.4-.39,1.39,1.39,0,0,0-.4-.21,2.53,2.53,0,0,1-.89-.43,3.37,3.37,0,0,1-.7-.71,3.33,3.33,0,0,1-.44-.91,3.2,3.2,0,0,1-.16-1,2.86,2.86,0,0,1,.26-1.25,3.66,3.66,0,0,1,.68-1,3.12,3.12,0,0,1,1-.7,2.42,2.42,0,0,1,1.09-.25,2.56,2.56,0,0,1,1.09.25,3.2,3.2,0,0,1,1,.67,3.3,3.3,0,0,1,.67,1,3.33,3.33,0,0,1-.61,3.47,3.05,3.05,0,0,1-.94.73,2.67,2.67,0,0,1-1.17.27l-.33,0v0l.25.13.25.11.3.08.4.06a.91.91,0,0,1,.47.18,1.9,1.9,0,0,1,.39.36,2.3,2.3,0,0,0,.2.22,1,1,0,0,0,.2.15,1.12,1.12,0,0,0,.26.08,1.45,1.45,0,0,0,.36,0Zm-4.74-4.67a8.67,8.67,0,0,0,.1,1.35,2.78,2.78,0,0,0,.35,1,1.52,1.52,0,0,0,.61.57,2.43,2.43,0,0,0,1.87,0,1.54,1.54,0,0,0,.62-.57,2.76,2.76,0,0,0,.34-1,7.6,7.6,0,0,0,.1-1.35,7.28,7.28,0,0,0-.08-1.14,2.91,2.91,0,0,0-.3-1,1.73,1.73,0,0,0-.6-.69,2.15,2.15,0,0,0-2,0,1.68,1.68,0,0,0-.61.69,2.91,2.91,0,0,0-.3,1A8.72,8.72,0,0,0,40.48,74.55Z" style="fill:url(#linear-gradient-3)"/><path id="Path_4" data-name="Path 4" d="M50.92,77.6H49.54v-.86h0a3.72,3.72,0,0,1-.19.34,1.18,1.18,0,0,1-.27.32,1.05,1.05,0,0,1-.36.23,1.19,1.19,0,0,1-.49.1,2.1,2.1,0,0,1-.56-.08,1.68,1.68,0,0,1-.33-.16l-.14-.11a.59.59,0,0,1-.13-.18,1,1,0,0,1-.1-.29,1.53,1.53,0,0,1,0-.43V74.05h-.68v-.12h1.4v2.63a2.73,2.73,0,0,0,0,.41.76.76,0,0,0,.11.33.61.61,0,0,0,.23.22.74.74,0,0,0,.36.09.89.89,0,0,0,.39-.12,1.34,1.34,0,0,0,.36-.31A1.83,1.83,0,0,0,49.52,76V74h-.65V73.9h1.39v3.57h.66Z" style="fill:url(#linear-gradient-4)"/><path id="Path_5" data-name="Path 5" d="M55.24,77.5a1.82,1.82,0,0,1-.27.15.94.94,0,0,1-.37.07.87.87,0,0,1-.6-.18,1,1,0,0,1-.25-.49h0l-.09.19a1,1,0,0,1-.18.22,1.11,1.11,0,0,1-.34.18,1.49,1.49,0,0,1-.52.08,1.84,1.84,0,0,1-.57-.09.79.79,0,0,1-.33-.2.5.5,0,0,1-.16-.27.84.84,0,0,1,0-.27.85.85,0,0,1,.12-.49.84.84,0,0,1,.31-.28,2.3,2.3,0,0,1,.43-.18l.47-.14c.19-.07.37-.12.47-.17a.83.83,0,0,0,.29-.16.52.52,0,0,0,.14-.25,1.87,1.87,0,0,0,0-.4,2.22,2.22,0,0,0,0-.37.71.71,0,0,0-.09-.28.41.41,0,0,0-.2-.17.68.68,0,0,0-.34-.06.93.93,0,0,0-.47.1.35.35,0,0,0-.19.32,1.5,1.5,0,0,0,0,.29l0,.2a.29.29,0,0,1-.09.2.38.38,0,0,1-.25.09.44.44,0,0,1-.36-.11.41.41,0,0,1-.07-.26.64.64,0,0,1,.08-.36,1,1,0,0,1,.25-.31,1.65,1.65,0,0,1,.42-.21,1.92,1.92,0,0,1,.58-.07,1.63,1.63,0,0,1,.66.1,1.08,1.08,0,0,1,.39.28,1,1,0,0,1,.23.36,1.62,1.62,0,0,1,.07.44v2.13a.51.51,0,0,0,.08.34.28.28,0,0,0,.22.09l.2,0a.75.75,0,0,0,.2-.1Zm-1.5-2h0c0,.08-.11.15-.29.22l-.64.26a.93.93,0,0,0-.42.31.81.81,0,0,0-.14.5.82.82,0,0,0,0,.27.64.64,0,0,0,.1.24.41.41,0,0,0,.19.18.71.71,0,0,0,.32.07.93.93,0,0,0,.46-.12.83.83,0,0,0,.26-.3,1.17,1.17,0,0,0,.12-.39,2.31,2.31,0,0,0,0-.37Z" style="fill:url(#linear-gradient-5)"/><path id="Path_6" data-name="Path 6" d="M55.46,77.47h.66V74h-.66v-.12h1.37v.92h0l.15-.28a1.84,1.84,0,0,1,.27-.34,1.65,1.65,0,0,1,2-.12,1,1,0,0,1,.36.87v2.5h.66v.12h-2v-.12h.68V74.69a.88.88,0,0,0-.16-.54.58.58,0,0,0-.49-.22,1.17,1.17,0,0,0-.52.12,1.48,1.48,0,0,0-.44.34,1.63,1.63,0,0,0-.3.51,1.9,1.9,0,0,0-.11.63v1.93h.66v.12H55.47Z" style="fill:url(#linear-gradient-6)"/><path id="Path_7" data-name="Path 7" d="M60.62,73.92h.66v-1.1l.13.05h.21a.83.83,0,0,0,.22,0,.4.4,0,0,0,.18-.1v1.17h1.24V74H62v2.8a1,1,0,0,0,.05.39.51.51,0,0,0,.12.23.34.34,0,0,0,.17.11l.17,0a.6.6,0,0,0,.49-.21,1.09,1.09,0,0,0,.23-.5l.12,0a1.21,1.21,0,0,1-.08.25.76.76,0,0,1-.15.26,1,1,0,0,1-.28.2.92.92,0,0,1-.43.08,1.22,1.22,0,0,1-.9-.25.91.91,0,0,1-.25-.7V74h-.66Z" style="fill:url(#linear-gradient-7)"/><path id="Path_8" data-name="Path 8" d="M68.2,77.6H66.82v-.86h0l-.19.35a1.43,1.43,0,0,1-.63.55,1.33,1.33,0,0,1-.49.09,1.81,1.81,0,0,1-.56-.08,2,2,0,0,1-.33-.16l-.13-.11a.62.62,0,0,1-.14-.18,1.57,1.57,0,0,1-.1-.28,2.15,2.15,0,0,1,0-.43V74.05h-.66v-.12h1.4v2.63A2.73,2.73,0,0,0,65,77a.93.93,0,0,0,.12.33.58.58,0,0,0,.22.22.77.77,0,0,0,.36.09,1,1,0,0,0,.39-.11,1.26,1.26,0,0,0,.37-.32A1.75,1.75,0,0,0,66.82,76v-2h-.64v-.12h1.38v3.54h.66Z" style="fill:url(#linear-gradient-8)"/><path id="Path_9" data-name="Path 9" d="M68.58,77.47h.66V74h-.66v-.12H70v.9h0a1.47,1.47,0,0,1,.52-.75,1.34,1.34,0,0,1,.82-.24,1.48,1.48,0,0,1,.76.19.93.93,0,0,1,.43.62h0a2.28,2.28,0,0,1,.17-.3,1.48,1.48,0,0,1,.25-.25,1.09,1.09,0,0,1,.37-.19,1.49,1.49,0,0,1,.47-.07,1.12,1.12,0,0,1,1.26,1,1.08,1.08,0,0,1,0,.31v2.37h.67v.12H73.62v-.12h.66V74.56a.65.65,0,0,0-.16-.46.59.59,0,0,0-.44-.16,1.2,1.2,0,0,0-.42.08,1.24,1.24,0,0,0-.39.25,1.17,1.17,0,0,0-.27.42,1.36,1.36,0,0,0-.11.6v2.18h.66v.12H71.09v-.12h.66v-2.8a.78.78,0,0,0-.15-.55.49.49,0,0,0-.41-.18.93.93,0,0,0-.4.09,1.08,1.08,0,0,0-.39.28,1.55,1.55,0,0,0-.31.5,2,2,0,0,0-.13.76v1.9h.66v.12H68.56Z" style="fill:url(#linear-gradient-9)"/><path id="Path_10" data-name="Path 10" d="M84.55,79.22a11.66,11.66,0,0,1-1.18-.06,2.58,2.58,0,0,1-.73-.16,1.37,1.37,0,0,1-.45-.3,4.54,4.54,0,0,1-.39-.48,1.9,1.9,0,0,0-.4-.4,1.13,1.13,0,0,0-.39-.21,2.63,2.63,0,0,1-.89-.43,3.14,3.14,0,0,1-.7-.71,3.48,3.48,0,0,1-.44-.91,3.24,3.24,0,0,1-.16-1,2.83,2.83,0,0,1,.26-1.25,3.33,3.33,0,0,1,.68-1,3.26,3.26,0,0,1,1-.69,2.41,2.41,0,0,1,1.09-.24,2.55,2.55,0,0,1,1.09.24,3.08,3.08,0,0,1,1,.67,3.42,3.42,0,0,1,.67,1,3.2,3.2,0,0,1,0,2.45,3.43,3.43,0,0,1-.63,1,3.22,3.22,0,0,1-1,.73,2.48,2.48,0,0,1-1.17.27,1.72,1.72,0,0,1-.32,0v0l.25.13L82,78l.3.08a2.57,2.57,0,0,0,.4.06.93.93,0,0,1,.46.18,2,2,0,0,1,.39.37l.2.22.2.14a.79.79,0,0,0,.26.08,2.19,2.19,0,0,0,.36,0Zm-4.74-4.68a7.5,7.5,0,0,0,.11,1.34,2.69,2.69,0,0,0,.34,1,1.51,1.51,0,0,0,.62.58,2.4,2.4,0,0,0,1.86,0,1.51,1.51,0,0,0,.62-.58,2.7,2.7,0,0,0,.35-1,8.54,8.54,0,0,0,.1-1.34,8.77,8.77,0,0,0-.08-1.15,3.37,3.37,0,0,0-.3-1,1.77,1.77,0,0,0-.61-.69,2.15,2.15,0,0,0-2,0,1.77,1.77,0,0,0-.61.69,3.37,3.37,0,0,0-.3,1,9.17,9.17,0,0,0-.08,1.16Z" style="fill:url(#linear-gradient-10)"/><path id="Path_11" data-name="Path 11" d="M90.25,77.6H88.87v-.86h0a2.91,2.91,0,0,1-.18.35,1.14,1.14,0,0,1-.27.31,1.26,1.26,0,0,1-.36.24,1.37,1.37,0,0,1-.49.09,1.77,1.77,0,0,1-.56-.08,2.11,2.11,0,0,1-.34-.16l-.13-.11a.59.59,0,0,1-.13-.18,1,1,0,0,1-.1-.28,2.18,2.18,0,0,1-.05-.43V74.05h-.66v-.12H87v2.63A2.73,2.73,0,0,0,87,77a.93.93,0,0,0,.12.33.58.58,0,0,0,.22.22.68.68,0,0,0,.37.09,1,1,0,0,0,.39-.11,1.22,1.22,0,0,0,.36-.32A1.75,1.75,0,0,0,88.86,76v-2h-.65v-.12H89.6v3.54h.66Z" style="fill:url(#linear-gradient-11)"/><path id="Path_12" data-name="Path 12" d="M90.84,75.76A1.75,1.75,0,0,1,91,75a2.2,2.2,0,0,1,.48-.62,2,2,0,0,1,.64-.4,1.71,1.71,0,0,1,1.4,0,2,2,0,0,1,.64.4,2.2,2.2,0,0,1,.48.62,1.78,1.78,0,0,1,0,1.54,2.13,2.13,0,0,1-1.09,1,1.82,1.82,0,0,1-1.48,0,2.11,2.11,0,0,1-1.08-1A1.64,1.64,0,0,1,90.84,75.76Zm.86,0a3.94,3.94,0,0,0,.09,1,1.53,1.53,0,0,0,.25.55.7.7,0,0,0,.36.25,1.47,1.47,0,0,0,.88,0,.7.7,0,0,0,.36-.25,1.52,1.52,0,0,0,.23-.54,3.94,3.94,0,0,0,.09-1,4.15,4.15,0,0,0-.06-.86,1.8,1.8,0,0,0-.21-.56.88.88,0,0,0-.37-.32,1.46,1.46,0,0,0-1,0,.86.86,0,0,0-.36.32,1.41,1.41,0,0,0-.21.56,4.06,4.06,0,0,0-.06.85Z" style="fill:url(#linear-gradient-12)"/><path id="Path_13" data-name="Path 13" d="M95.45,77.47h.66V74h-.66v-.12h1.38v.87h0a1.45,1.45,0,0,1,.11-.29,1.36,1.36,0,0,1,.21-.32,1.59,1.59,0,0,1,.33-.25,1,1,0,0,1,.47-.1.79.79,0,0,1,.34.06.81.81,0,0,1,.24.17.52.52,0,0,1,.14.22.75.75,0,0,1,0,.26.41.41,0,0,1-.13.36.45.45,0,0,1-.3.1c-.25,0-.36-.08-.36-.24a.28.28,0,0,1,0-.13l0-.09a.36.36,0,0,1,0-.11.49.49,0,0,0,0-.17c0-.19-.1-.28-.3-.28a.57.57,0,0,0-.29.11,1,1,0,0,0-.29.3,2.23,2.23,0,0,0-.22.47,2.35,2.35,0,0,0-.09.64v2h.73v.12H95.4Z" style="fill:url(#linear-gradient-13)"/><path id="Path_14" data-name="Path 14" d="M103.58,77.6H102.2v-.86h0a2.31,2.31,0,0,1-.18.35,1.43,1.43,0,0,1-.63.55,1.33,1.33,0,0,1-.49.09,2,2,0,0,1-.55-.08,2.11,2.11,0,0,1-.34-.16l-.13-.11a.62.62,0,0,1-.14-.18c0-.09-.07-.19-.1-.28a2.15,2.15,0,0,1,0-.43V74.05h-.66v-.12h1.4v2.63a2.73,2.73,0,0,0,0,.41.93.93,0,0,0,.12.33.58.58,0,0,0,.22.22.77.77,0,0,0,.36.09,1,1,0,0,0,.39-.11,1.42,1.42,0,0,0,.37-.32A1.89,1.89,0,0,0,102.2,76v-2h-.67v-.12h1.39v3.54h.66Z" style="fill:url(#linear-gradient-14)"/><path id="Path_15" data-name="Path 15" d="M104,77.47h.66V74H104v-.12h1.38v.9h0a1.47,1.47,0,0,1,.52-.75,1.29,1.29,0,0,1,.81-.24,1.43,1.43,0,0,1,.76.19.87.87,0,0,1,.43.62h0a1.52,1.52,0,0,1,.17-.3,1.23,1.23,0,0,1,.25-.26,1.22,1.22,0,0,1,.36-.18,1.59,1.59,0,0,1,.48-.07,1.13,1.13,0,0,1,1.26,1,1.15,1.15,0,0,1,0,.32v2.37h.66v.12H109v-.12h.66V74.56a.64.64,0,0,0-.15-.46.6.6,0,0,0-.44-.16,1.2,1.2,0,0,0-.42.08,1.14,1.14,0,0,0-.39.25,1.11,1.11,0,0,0-.28.42,1.73,1.73,0,0,0-.11.6v2.18h.66v.12h-2v-.12h.66v-2.8a.9.9,0,0,0-.15-.55.53.53,0,0,0-.42-.18.89.89,0,0,0-.39.09,1.12,1.12,0,0,0-.4.28,1.74,1.74,0,0,0-.31.5,2,2,0,0,0-.12.76v1.9H106v.12h-2.06Z" style="fill:url(#linear-gradient-15)"/><rect id="Rectangle_9" data-name="Rectangle 9" x="13.32" y="13.32" width="123.93" height="123.93" style="fill:none"/></g></g></svg>