<svg xmlns="http://www.w3.org/2000/svg" xmlns:xlink="http://www.w3.org/1999/xlink" viewBox="0 0 340 340"><defs><linearGradient id="Dégradé_sans_nom_20" x1="134.27" y1="162.33" x2="187.21" y2="70.63" gradientUnits="userSpaceOnUse"><stop offset="0" stop-color="#fcc741"/><stop offset="0.1" stop-color="#c87c20"/><stop offset="0.2" stop-color="#fbd97b"/><stop offset="0.4" stop-color="#f6a94a"/><stop offset="0.5" stop-color="#a86116"/><stop offset="0.6" stop-color="#f6a94a"/><stop offset="0.8" stop-color="#f7ef9b"/><stop offset="0.83" stop-color="#ebd27c"/><stop offset="0.89" stop-color="#cd882d"/><stop offset="0.9" stop-color="#c87c20"/><stop offset="1" stop-color="#fcc741"/></linearGradient><linearGradient id="Dégradé_sans_nom_20-2" x1="152.79" y1="269.37" x2="205.73" y2="177.67" xlink:href="#Dégradé_sans_nom_20"/><linearGradient id="Dégradé_sans_nom_20-3" x1="70.51" y1="168.64" x2="266.85" y2="189.93" xlink:href="#Dégradé_sans_nom_20"/><linearGradient id="Dégradé_sans_nom_20-4" x1="70.53" y1="168.45" x2="266.87" y2="189.75" xlink:href="#Dégradé_sans_nom_20"/><linearGradient id="Dégradé_sans_nom_20-5" x1="70.66" y1="167.22" x2="267" y2="188.52" xlink:href="#Dégradé_sans_nom_20"/><linearGradient id="Dégradé_sans_nom_20-6" x1="70.81" y1="165.87" x2="267.15" y2="187.17" xlink:href="#Dégradé_sans_nom_20"/><linearGradient id="Dégradé_sans_nom_20-7" x1="71.11" y1="163.04" x2="267.45" y2="184.34" xlink:href="#Dégradé_sans_nom_20"/><linearGradient id="Dégradé_sans_nom_20-8" x1="71.08" y1="163.37" x2="267.42" y2="184.66" xlink:href="#Dégradé_sans_nom_20"/><linearGradient id="Dégradé_sans_nom_20-9" x1="71.26" y1="161.67" x2="267.6" y2="182.96" xlink:href="#Dégradé_sans_nom_20"/><linearGradient id="Dégradé_sans_nom_20-10" x1="71.76" y1="157.07" x2="268.1" y2="178.36" xlink:href="#Dégradé_sans_nom_20"/><linearGradient id="Dégradé_sans_nom_20-11" x1="71.78" y1="156.88" x2="268.12" y2="178.18" xlink:href="#Dégradé_sans_nom_20"/><linearGradient id="Dégradé_sans_nom_20-12" x1="71.94" y1="155.46" x2="268.28" y2="176.75" xlink:href="#Dégradé_sans_nom_20"/><linearGradient id="Dégradé_sans_nom_20-13" x1="72.08" y1="154.17" x2="268.41" y2="175.46" xlink:href="#Dégradé_sans_nom_20"/><linearGradient id="Dégradé_sans_nom_20-14" x1="72.21" y1="152.96" x2="268.55" y2="174.26" xlink:href="#Dégradé_sans_nom_20"/><linearGradient id="Dégradé_sans_nom_20-15" x1="72.39" y1="151.26" x2="268.73" y2="172.56" xlink:href="#Dégradé_sans_nom_20"/></defs><title>Asset 4</title><g id="Layer_2" data-name="Layer 2"><g id="Calque_1" data-name="Calque 1"><path d="M230.36,124.25a70,70,0,0,0-9.62-19.42,67.53,67.53,0,0,0-14.83-15.21,55,55,0,0,0-17.62-8.76A29,29,0,0,1,183.43,79a31.45,31.45,0,0,1-5-3.07,42.6,42.6,0,0,1-8.62-8.7A113.73,113.73,0,0,0,161.48,57,26.8,26.8,0,0,0,152,50.6a58.64,58.64,0,0,0-15.2-3.48q-9.43-1.09-25.37-1.28a32.4,32.4,0,0,1,17.49,8c1.28,1.28,2.72,2.84,4.3,4.67A47.08,47.08,0,0,0,141.51,66a20.86,20.86,0,0,0,10,3.85c3.31.36,6.14.79,8.52,1.28a53.09,53.09,0,0,1,6.51,1.74,40.57,40.57,0,0,1,5.4,2.29c1.65.86,3.39,1.77,5.22,2.75l-.18.55a44.12,44.12,0,0,0-7-.55,54.78,54.78,0,0,0-25,5.86,68.81,68.81,0,0,0-20.24,15.39A72.75,72.75,0,0,0,111.19,121a66.42,66.42,0,0,0-4.94,25.2h0a24.53,24.53,0,0,0,21.07,0h0v-.1a165.64,165.64,0,0,1,2.19-28.76q2.2-12.29,7.33-20.52a32.45,32.45,0,0,1,13.28-12.28q8.16-4,19.88-4,11.91,0,20,4a32.54,32.54,0,0,1,13.19,12.28q5.13,8.24,7.33,20.52a165.64,165.64,0,0,1,2.19,28.76v.1h0a24.58,24.58,0,0,1,21.06,0h0A71.26,71.26,0,0,0,230.36,124.25Z" style="fill:url(#Dégradé_sans_nom_20)"/><path d="M109.64,215.75a70,70,0,0,0,9.62,19.42,67.53,67.53,0,0,0,14.83,15.21,55,55,0,0,0,17.62,8.76,29,29,0,0,1,4.86,1.82,31.45,31.45,0,0,1,5,3.07,42.6,42.6,0,0,1,8.62,8.7A113.73,113.73,0,0,0,178.52,283a26.8,26.8,0,0,0,9.53,6.41,58.64,58.64,0,0,0,15.2,3.48q9.44,1.1,25.37,1.28a32.4,32.4,0,0,1-17.49-8c-1.28-1.28-2.72-2.84-4.3-4.67a47.08,47.08,0,0,0-8.34-7.51,20.86,20.86,0,0,0-10-3.85c-3.31-.36-6.14-.79-8.52-1.28a53.09,53.09,0,0,1-6.51-1.74,40.57,40.57,0,0,1-5.4-2.29c-1.65-.86-3.39-1.77-5.22-2.75l.18-.55a44.12,44.12,0,0,0,7,.55,54.78,54.78,0,0,0,25-5.86,68.81,68.81,0,0,0,20.24-15.39,72.75,72.75,0,0,0,13.56-21.8,66.42,66.42,0,0,0,4.94-25.2h0a24.53,24.53,0,0,0-21.07,0h0v.1a165.64,165.64,0,0,1-2.19,28.76q-2.2,12.28-7.33,20.52a32.45,32.45,0,0,1-13.28,12.28q-8.16,4-19.88,4-11.91,0-20-4a32.54,32.54,0,0,1-13.19-12.28q-5.13-8.23-7.33-20.52A165.64,165.64,0,0,1,127.32,194v-.1h0a24.58,24.58,0,0,1-21.06,0h0A71.26,71.26,0,0,0,109.64,215.75Z" style="fill:url(#Dégradé_sans_nom_20-2)"/><path d="M87.52,180.81a32.56,32.56,0,0,1-3.26-.16,7.4,7.4,0,0,1-2-.45,3.45,3.45,0,0,1-1.22-.82A14.65,14.65,0,0,1,80,178.06,5.83,5.83,0,0,0,78.91,177a3.39,3.39,0,0,0-1.08-.58,7.09,7.09,0,0,1-2.44-1.18,8.42,8.42,0,0,1-1.91-1.95,9,9,0,0,1-1.23-2.49,9.16,9.16,0,0,1-.44-2.8,8.27,8.27,0,0,1,.72-3.43,9.66,9.66,0,0,1,1.88-2.78A9,9,0,0,1,77,159.87a6.84,6.84,0,0,1,3-.68,7.18,7.18,0,0,1,3,.67,8.76,8.76,0,0,1,2.62,1.84,9.23,9.23,0,0,1,1.84,2.78,8.84,8.84,0,0,1,.06,6.7A9.24,9.24,0,0,1,85.8,174a8.72,8.72,0,0,1-2.6,2,7,7,0,0,1-3.21.75,5.42,5.42,0,0,1-.89-.07l0,.07.67.35a5.5,5.5,0,0,0,.69.3,7.27,7.27,0,0,0,.84.22,10.81,10.81,0,0,0,1.09.16,2.65,2.65,0,0,1,1.28.5,5.78,5.78,0,0,1,1.07,1c.2.24.39.44.55.6a2.51,2.51,0,0,0,.54.4,2.3,2.3,0,0,0,.7.22,5.62,5.62,0,0,0,1,.07ZM74.52,168a21,21,0,0,0,.28,3.7,7.54,7.54,0,0,0,.94,2.63,4.17,4.17,0,0,0,1.69,1.57,6.56,6.56,0,0,0,5.12,0,4.19,4.19,0,0,0,1.7-1.57,7.54,7.54,0,0,0,.94-2.63,21,21,0,0,0,.28-3.7,22.74,22.74,0,0,0-.21-3.13,8.59,8.59,0,0,0-.81-2.71,4.86,4.86,0,0,0-1.67-1.89,5.89,5.89,0,0,0-5.57,0,4.86,4.86,0,0,0-1.67,1.89,8.59,8.59,0,0,0-.81,2.71A22.74,22.74,0,0,0,74.52,168Z" style="fill:url(#Dégradé_sans_nom_20-3)"/><path d="M103.15,176.35H99.36V174h0a7.34,7.34,0,0,1-.51.95,3.59,3.59,0,0,1-.73.87,3.7,3.7,0,0,1-1,.64,3.46,3.46,0,0,1-1.35.25,4.59,4.59,0,0,1-1.53-.22,3.86,3.86,0,0,1-.91-.44,4.08,4.08,0,0,1-.37-.3,1.58,1.58,0,0,1-.36-.48,3.22,3.22,0,0,1-.29-.79,5.57,5.57,0,0,1-.11-1.18v-6.68H90.34v-.33h3.83v7.22a7.9,7.9,0,0,0,.08,1.13,2.53,2.53,0,0,0,.32.9,1.7,1.7,0,0,0,.61.61,1.91,1.91,0,0,0,1,.23,2.28,2.28,0,0,0,1.07-.31,3.53,3.53,0,0,0,1-.87A5,5,0,0,0,99.32,172v-5.45H97.53v-.33h3.81V176h1.81Z" style="fill:url(#Dégradé_sans_nom_20-4)"/><path d="M115,176.09a3.87,3.87,0,0,1-.73.41,2.64,2.64,0,0,1-1,.18,2.33,2.33,0,0,1-1.64-.49,2.49,2.49,0,0,1-.69-1.35h0c-.06.14-.15.32-.26.53a2.13,2.13,0,0,1-.5.61,2.89,2.89,0,0,1-.91.5,4.39,4.39,0,0,1-1.43.2,4.51,4.51,0,0,1-1.58-.23,2.56,2.56,0,0,1-.91-.55,1.63,1.63,0,0,1-.44-.74,3.06,3.06,0,0,1-.1-.76,2.43,2.43,0,0,1,.32-1.32,2.51,2.51,0,0,1,.86-.79,6.61,6.61,0,0,1,1.18-.48l1.3-.4c.52-.17,1-.32,1.28-.45a2.19,2.19,0,0,0,.79-.45,1.39,1.39,0,0,0,.39-.69,4.66,4.66,0,0,0,.1-1.11,6.08,6.08,0,0,0-.07-1,2.12,2.12,0,0,0-.25-.77,1.26,1.26,0,0,0-.54-.48,2.27,2.27,0,0,0-.94-.16,2.74,2.74,0,0,0-1.29.27.93.93,0,0,0-.5.88,4.22,4.22,0,0,0,.07.79,3.16,3.16,0,0,1,.07.57.72.72,0,0,1-.24.55.93.93,0,0,1-.68.23c-.51,0-.84-.1-1-.29a1.22,1.22,0,0,1-.19-.72,2.13,2.13,0,0,1,.24-1,2.46,2.46,0,0,1,.69-.84,3.54,3.54,0,0,1,1.15-.57,5.47,5.47,0,0,1,1.59-.21,5.27,5.27,0,0,1,1.81.27A3,3,0,0,1,112,167a2.66,2.66,0,0,1,.64,1,4,4,0,0,1,.19,1.21v5.85a1.44,1.44,0,0,0,.21.92.76.76,0,0,0,.61.24,1.82,1.82,0,0,0,.54-.1,2,2,0,0,0,.54-.28Zm-4.12-5.5h0c0,.2-.29.41-.78.61l-1.76.7a2.57,2.57,0,0,0-1.15.86,2.28,2.28,0,0,0-.4,1.38,3.75,3.75,0,0,0,.07.73,1.71,1.71,0,0,0,.26.67,1.46,1.46,0,0,0,.53.48,1.85,1.85,0,0,0,.88.19,2.17,2.17,0,0,0,1.25-.33,2.07,2.07,0,0,0,.73-.83,3.18,3.18,0,0,0,.33-1.07,6.65,6.65,0,0,0,.08-1Z" style="fill:url(#Dégradé_sans_nom_20-5)"/><path d="M115.61,176h1.81v-9.43h-1.81v-.33h3.78v2.52h0c.09-.21.23-.46.41-.78a4.33,4.33,0,0,1,.74-.92,4,4,0,0,1,2.89-1.08,4,4,0,0,1,2.53.76,2.83,2.83,0,0,1,1,2.39V176h1.81v.33h-5.64V176H125v-7.6a2.45,2.45,0,0,0-.43-1.5,1.57,1.57,0,0,0-1.35-.59,3.27,3.27,0,0,0-1.44.33,3.93,3.93,0,0,0-1.2.92,4.42,4.42,0,0,0-.81,1.39,5.12,5.12,0,0,0-.29,1.74V176h1.81v.33h-5.64Z" style="fill:url(#Dégradé_sans_nom_20-6)"/><path d="M129.78,166.26h1.81v-3l.35.12a2.54,2.54,0,0,0,.57,0,1.88,1.88,0,0,0,.61-.08,1.32,1.32,0,0,0,.49-.27v3.22H137v.33h-3.34v7.69a3.55,3.55,0,0,0,.13,1.07,1.7,1.7,0,0,0,.34.63,1.08,1.08,0,0,0,.46.3,2.14,2.14,0,0,0,.48.07,1.66,1.66,0,0,0,1.33-.6,2.94,2.94,0,0,0,.65-1.38l.33.12a5.27,5.27,0,0,1-.22.68,2.26,2.26,0,0,1-.43.72,2.31,2.31,0,0,1-.76.56,2.76,2.76,0,0,1-1.18.23,3.46,3.46,0,0,1-2.46-.69,2.56,2.56,0,0,1-.69-1.92v-7.48h-1.81Z" style="fill:url(#Dégradé_sans_nom_20-7)"/><path d="M150.58,176.35H146.8V174h-.05a8.69,8.69,0,0,1-.5.95,3.59,3.59,0,0,1-.73.87,3.86,3.86,0,0,1-1,.64,3.53,3.53,0,0,1-1.35.25,4.59,4.59,0,0,1-1.53-.22,4.17,4.17,0,0,1-.92-.44,4.07,4.07,0,0,1-.36-.3,1.45,1.45,0,0,1-.37-.48,3.25,3.25,0,0,1-.28-.79,4.93,4.93,0,0,1-.12-1.18v-6.68h-1.81v-.33h3.83v7.22a6.64,6.64,0,0,0,.09,1.13,2.52,2.52,0,0,0,.31.9,1.78,1.78,0,0,0,.61.61,1.93,1.93,0,0,0,1,.23,2.25,2.25,0,0,0,1.07-.31,3.28,3.28,0,0,0,1-.87,4.81,4.81,0,0,0,1.07-3.13v-5.45H145v-.33h3.8V176h1.81Z" style="fill:url(#Dégradé_sans_nom_20-8)"/><path d="M151.62,176h1.81v-9.43h-1.81v-.33h3.78v2.47h0a4.1,4.1,0,0,1,1.42-2.07,3.79,3.79,0,0,1,2.25-.66,4.2,4.2,0,0,1,2.08.52,2.52,2.52,0,0,1,1.18,1.72h.05a3.73,3.73,0,0,1,.45-.83,3.36,3.36,0,0,1,.7-.71,3.62,3.62,0,0,1,1-.51,4.4,4.4,0,0,1,1.31-.19c2.28,0,3.43,1.17,3.43,3.51V176h1.81v.33h-5.64V176h1.81v-8a1.71,1.71,0,0,0-.44-1.24,1.57,1.57,0,0,0-1.19-.45,3.25,3.25,0,0,0-1.17.23,3.12,3.12,0,0,0-1.06.67,3.21,3.21,0,0,0-.76,1.15,4.17,4.17,0,0,0-.3,1.64v6h1.81v.33h-5.64V176h1.81v-7.67a2.3,2.3,0,0,0-.42-1.52,1.41,1.41,0,0,0-1.13-.5,2.89,2.89,0,0,0-1.08.25,3.06,3.06,0,0,0-1.09.78,4.27,4.27,0,0,0-.85,1.37,5.47,5.47,0,0,0-.34,2.07V176h1.81v.33h-5.64Z" style="fill:url(#Dégradé_sans_nom_20-9)"/><path d="M195.43,180.81a32.5,32.5,0,0,1-3.25-.16,7.4,7.4,0,0,1-2-.45,3.49,3.49,0,0,1-1.23-.82,14.74,14.74,0,0,1-1.06-1.32,5.83,5.83,0,0,0-1.11-1.11,3.39,3.39,0,0,0-1.08-.58,7.22,7.22,0,0,1-2.45-1.18,8.38,8.38,0,0,1-1.9-1.95,9,9,0,0,1-1.23-2.49,9.16,9.16,0,0,1-.44-2.8,8.27,8.27,0,0,1,.72-3.43,9.46,9.46,0,0,1,1.88-2.78,8.86,8.86,0,0,1,2.62-1.87,6.84,6.84,0,0,1,3-.68,7.14,7.14,0,0,1,3,.67,8.52,8.52,0,0,1,2.62,1.84,9.07,9.07,0,0,1,1.85,2.78,8.84,8.84,0,0,1,.06,6.7,9.65,9.65,0,0,1-1.74,2.79,8.72,8.72,0,0,1-2.6,2,7,7,0,0,1-3.21.75,5.34,5.34,0,0,1-.89-.07l0,.07.68.35a5.5,5.5,0,0,0,.69.3,7.64,7.64,0,0,0,.83.22,11.05,11.05,0,0,0,1.1.16,2.65,2.65,0,0,1,1.28.5,6.12,6.12,0,0,1,1.07,1,6.88,6.88,0,0,0,.55.6,2.1,2.1,0,0,0,.54.4,2.33,2.33,0,0,0,.69.22,5.76,5.76,0,0,0,1,.07Zm-13-12.86a21,21,0,0,0,.29,3.7,7.35,7.35,0,0,0,.94,2.63,4.17,4.17,0,0,0,1.69,1.57,6.54,6.54,0,0,0,5.11,0,4.15,4.15,0,0,0,1.71-1.57,7.54,7.54,0,0,0,.94-2.63,22.05,22.05,0,0,0,.28-3.7,22.74,22.74,0,0,0-.21-3.13,8.59,8.59,0,0,0-.81-2.71,4.86,4.86,0,0,0-1.67-1.89,5.89,5.89,0,0,0-5.57,0,4.78,4.78,0,0,0-1.67,1.89,8.59,8.59,0,0,0-.81,2.71A22.72,22.72,0,0,0,182.43,168Z" style="fill:url(#Dégradé_sans_nom_20-10)"/><path d="M211.07,176.35h-3.79V174h-.05a8.69,8.69,0,0,1-.5.95,3.59,3.59,0,0,1-.73.87,3.86,3.86,0,0,1-1,.64,3.53,3.53,0,0,1-1.35.25,4.59,4.59,0,0,1-1.53-.22,4.17,4.17,0,0,1-.92-.44,4.07,4.07,0,0,1-.36-.3,1.45,1.45,0,0,1-.37-.48,3.25,3.25,0,0,1-.28-.79,4.93,4.93,0,0,1-.12-1.18v-6.68h-1.81v-.33h3.84v7.22a6.68,6.68,0,0,0,.08,1.13,2.35,2.35,0,0,0,.32.9,1.7,1.7,0,0,0,.61.61,1.89,1.89,0,0,0,1,.23,2.25,2.25,0,0,0,1.07-.31,3.28,3.28,0,0,0,1-.87,4.81,4.81,0,0,0,1.07-3.13v-5.45h-1.78v-.33h3.81V176h1.81Z" style="fill:url(#Dégradé_sans_nom_20-11)"/><path d="M212.69,171.32a4.71,4.71,0,0,1,.5-2.14,6,6,0,0,1,1.3-1.71,5.7,5.7,0,0,1,1.76-1.11,4.78,4.78,0,0,1,3.83,0,5.7,5.7,0,0,1,1.76,1.11,6,6,0,0,1,1.3,1.71,4.71,4.71,0,0,1,.5,2.14,4.8,4.8,0,0,1-.47,2.08,5.66,5.66,0,0,1-1.23,1.7,5.84,5.84,0,0,1-1.75,1.15,5,5,0,0,1-4.05,0,5.72,5.72,0,0,1-1.75-1.15,5.66,5.66,0,0,1-1.23-1.7A4.66,4.66,0,0,1,212.69,171.32Zm2.35,0a10.48,10.48,0,0,0,.26,2.65,4.07,4.07,0,0,0,.68,1.52,2,2,0,0,0,1,.69,4.29,4.29,0,0,0,2.39,0,2,2,0,0,0,1-.69A4.07,4.07,0,0,0,221,174a11,11,0,0,0,.26-2.65,12.2,12.2,0,0,0-.19-2.37,4.33,4.33,0,0,0-.57-1.55,2.3,2.3,0,0,0-1-.86,4,4,0,0,0-2.77,0,2.3,2.3,0,0,0-1,.86,4.33,4.33,0,0,0-.57,1.55A12.2,12.2,0,0,0,215,171.32Z" style="fill:url(#Dégradé_sans_nom_20-12)"/><path d="M225.33,176h1.81v-9.43h-1.81v-.33h3.79v2.38h0a4.51,4.51,0,0,1,.3-.8,3.38,3.38,0,0,1,.59-.86,3.27,3.27,0,0,1,.9-.69,2.69,2.69,0,0,1,1.28-.29,2.25,2.25,0,0,1,.94.18,2,2,0,0,1,.66.45,1.53,1.53,0,0,1,.38.62,2.15,2.15,0,0,1,.12.7,1.22,1.22,0,0,1-.36,1,1.36,1.36,0,0,1-.82.26c-.69,0-1-.22-1-.66a1.05,1.05,0,0,1,0-.34l.11-.26c0-.09.07-.18.11-.29a2,2,0,0,0,0-.47c0-.51-.27-.76-.82-.76a1.46,1.46,0,0,0-.8.29,3,3,0,0,0-.79.82,5.42,5.42,0,0,0-.61,1.3,5.88,5.88,0,0,0-.24,1.75V176h2v.33h-5.88Z" style="fill:url(#Dégradé_sans_nom_20-13)"/><path d="M247.64,176.35h-3.78V174h-.05a7.34,7.34,0,0,1-.51.95,3.34,3.34,0,0,1-.72.87,3.76,3.76,0,0,1-1,.64,3.46,3.46,0,0,1-1.35.25,4.57,4.57,0,0,1-1.52-.22,4,4,0,0,1-.92-.44l-.37-.3a1.58,1.58,0,0,1-.36-.48,3.25,3.25,0,0,1-.28-.79,4.93,4.93,0,0,1-.12-1.18v-6.68h-1.81v-.33h3.83v7.22a7.9,7.9,0,0,0,.08,1.13,2.53,2.53,0,0,0,.32.9,1.78,1.78,0,0,0,.61.61,1.91,1.91,0,0,0,1,.23,2.28,2.28,0,0,0,1.07-.31,3.4,3.4,0,0,0,1-.87,5,5,0,0,0,1.07-3.13v-5.45H242v-.33h3.81V176h1.81Z" style="fill:url(#Dégradé_sans_nom_20-14)"/><path d="M248.68,176h1.81v-9.43h-1.81v-.33h3.78v2.47h0a4.1,4.1,0,0,1,1.42-2.07,3.78,3.78,0,0,1,2.24-.66,4.14,4.14,0,0,1,2.08.52,2.53,2.53,0,0,1,1.19,1.72h.05a3.73,3.73,0,0,1,.45-.83,3.13,3.13,0,0,1,.7-.71,3.48,3.48,0,0,1,1-.51,4.34,4.34,0,0,1,1.3-.19q3.44,0,3.44,3.51V176h1.81v.33h-5.65V176h1.81v-8a1.7,1.7,0,0,0-.43-1.24,1.58,1.58,0,0,0-1.19-.45,3.25,3.25,0,0,0-1.17.23,3,3,0,0,0-1.06.67,3.21,3.21,0,0,0-.76,1.15,4.17,4.17,0,0,0-.3,1.64v6h1.81v.33h-5.64V176h1.81v-7.67a2.3,2.3,0,0,0-.42-1.52,1.43,1.43,0,0,0-1.13-.5,2.89,2.89,0,0,0-1.08.25,3.1,3.1,0,0,0-1.1.78,4.25,4.25,0,0,0-.84,1.37,5.47,5.47,0,0,0-.34,2.07V176h1.81v.33h-5.64Z" style="fill:url(#Dégradé_sans_nom_20-15)"/><rect width="340" height="340" style="fill:none"/></g></g></svg>