<svg xmlns="http://www.w3.org/2000/svg" xmlns:xlink="http://www.w3.org/1999/xlink" viewBox="0 0 340 340"><defs><linearGradient id="linear-gradient" x1="119.47" y1="203.9" x2="119.47" y2="218.44" gradientUnits="userSpaceOnUse"><stop offset="0" stop-color="#fff"/><stop offset="1" stop-color="#3fa9f5"/></linearGradient><linearGradient id="linear-gradient-2" x1="134.43" y1="203.78" x2="134.43" y2="218.6" xlink:href="#linear-gradient"/><linearGradient id="linear-gradient-3" x1="148.25" y1="203.76" x2="148.25" y2="218.58" xlink:href="#linear-gradient"/><linearGradient id="linear-gradient-4" x1="159.94" y1="203.9" x2="159.94" y2="218.44" xlink:href="#linear-gradient"/><linearGradient id="linear-gradient-5" x1="167.22" y1="203.9" x2="167.22" y2="218.44" xlink:href="#linear-gradient"/><linearGradient id="linear-gradient-6" x1="174.39" y1="203.9" x2="174.39" y2="218.44" xlink:href="#linear-gradient"/><linearGradient id="linear-gradient-7" x1="185.83" y1="204.29" x2="185.83" y2="218.44" xlink:href="#linear-gradient"/><linearGradient id="linear-gradient-8" x1="197.1" y1="203.9" x2="197.1" y2="218.44" xlink:href="#linear-gradient"/><linearGradient id="linear-gradient-9" x1="202.82" y1="203.9" x2="202.82" y2="218.44" xlink:href="#linear-gradient"/><linearGradient id="linear-gradient-10" x1="210" y1="203.9" x2="210" y2="218.44" xlink:href="#linear-gradient"/><linearGradient id="linear-gradient-11" x1="220.63" y1="203.9" x2="220.63" y2="218.44" xlink:href="#linear-gradient"/></defs><title>Asset 2</title><g id="Layer_2" data-name="Layer 2"><g id="Layer_1-2" data-name="Layer 1"><rect width="340" height="340" style="fill:none"/><path id="Path" d="M263.35,186.86h7.91l-28.38-65.39H228.63v2.06a7.08,7.08,0,0,1,6.38,3.15L208.9,186.86h7.8L240,133.13Z" style="fill:#fff"/><path id="Path-2" d="M119.57,186.86h7.91L99.09,121.47H84.85v2.06a7.09,7.09,0,0,1,6.38,3.15L65.11,186.86h7.81l23.31-53.73Z" style="fill:#fff"/><path id="Path-3" d="M186.72,121.42v2.06c7.29,0,7.83,6.76,7.86,8.27v55.11h7.69V121.42Z" style="fill:#fff"/><path id="Path-4" d="M326.22,121.42V174.5l-42.2-53v0H270.2v2.06a7.34,7.34,0,0,1,7.72,6.69v56.69H284v-53l42.18,53,0,0v0h6.09V121.42Z" style="fill:#fff"/><path id="Shape" d="M141.8,186.85h-7.7V131.74c0-1.38-.55-8.27-7.87-8.27v-2.06h36.65a19.51,19.51,0,0,1,13.06,5,16.71,16.71,0,0,1,5.4,12.86,18.16,18.16,0,0,1-5.22,13.37c-3.47,3.46-8.8,5.22-15.85,5.22H141.8v29Zm0-58.57v22.88h18.73a13.18,13.18,0,0,0,9.34-3.07,11.62,11.62,0,0,0,3.26-8.83,10.15,10.15,0,0,0-3.31-8.24,15.27,15.27,0,0,0-9.91-2.74Z" style="fill:#fff"/><path id="Path-5" d="M62.19,164.2c-2.57-11.79-18-12.77-27.71-15.61-.6-.17-1.21-.34-1.82-.49-5.12-1.32-10.37-3.37-9.82-9.74.82-13.47,27.71-14.65,31.22-1.91h7.51c-3.3-16.86-28.82-18.45-40.15-10.17A15.81,15.81,0,0,0,18,148.37c.21.28.42.56.65.82,6.47,7.2,19.19,7.57,28.46,10.62,4.34,1.17,8.26,4.41,8.08,9.28-1.13,15-31.41,14.11-33.64-.16v-5.1H7.7v2A6.93,6.93,0,0,1,14,168.93C16.78,195.17,67.84,191.77,62.19,164.2Z" style="fill:#fff"/><path d="M124.63,203.9v14.54h-.95v-7.07h-8.45v7.07h-.93V203.9h.93v6.68h8.45V203.9Z" style="fill:url(#linear-gradient)"/><path d="M138,204.72a6.47,6.47,0,0,1,2.5,2.63,8.71,8.71,0,0,1,0,7.67,6.69,6.69,0,0,1-2.5,2.64,7.34,7.34,0,0,1-7.19,0,6.78,6.78,0,0,1-2.51-2.64,8.54,8.54,0,0,1,0-7.67,6.56,6.56,0,0,1,2.51-2.63,7.34,7.34,0,0,1,7.19,0Zm-6.68.71a5.69,5.69,0,0,0-2.16,2.29,7.9,7.9,0,0,0,0,6.93,5.66,5.66,0,0,0,2.16,2.28,6.26,6.26,0,0,0,6.16,0,5.62,5.62,0,0,0,2.17-2.28,7.9,7.9,0,0,0,0-6.93,5.65,5.65,0,0,0-2.17-2.29,6.26,6.26,0,0,0-6.16,0Z" style="fill:url(#linear-gradient-2)"/><path d="M152.3,216.66a3.36,3.36,0,0,1-1.36,1.39,4.59,4.59,0,0,1-2.33.53,5.41,5.41,0,0,1-2.39-.51,4.48,4.48,0,0,1-1.67-1.38,3.74,3.74,0,0,1-.72-1.88h1a3.87,3.87,0,0,0,.53,1.36,3.4,3.4,0,0,0,1.25,1.18,4.05,4.05,0,0,0,2,.47,3.14,3.14,0,0,0,2.35-.84,2.91,2.91,0,0,0,.82-2.11,2.78,2.78,0,0,0-.51-1.75,3.45,3.45,0,0,0-1.27-1,16.62,16.62,0,0,0-2-.74,17,17,0,0,1-2.21-.8,3.51,3.51,0,0,1-1.39-1.16,3.42,3.42,0,0,1-.57-2.06,3.35,3.35,0,0,1,1.1-2.58,4.28,4.28,0,0,1,3-1,4.63,4.63,0,0,1,3.1,1,4.06,4.06,0,0,1,1.41,2.34h-1a3.19,3.19,0,0,0-1.09-1.76,3.51,3.51,0,0,0-2.43-.8,3.43,3.43,0,0,0-2.28.73,2.59,2.59,0,0,0-.86,2.08,2.63,2.63,0,0,0,.5,1.66,3.22,3.22,0,0,0,1.23,1,14.49,14.49,0,0,0,2,.72,14.65,14.65,0,0,1,2.25.81,3.79,3.79,0,0,1,1.44,1.21,3.57,3.57,0,0,1,.58,2.16A4,4,0,0,1,152.3,216.66Z" style="fill:url(#linear-gradient-3)"/><path d="M156.49,212.13v6.31h-.93V203.9h4a5.12,5.12,0,0,1,3.59,1.1,4,4,0,0,1,1.17,3.05,3.8,3.8,0,0,1-1.22,3,5.32,5.32,0,0,1-3.54,1Zm6.88-4.08a3.22,3.22,0,0,0-.91-2.48,4.27,4.27,0,0,0-3-.84h-3v6.58h3Q163.37,211.31,163.37,208.05Z" style="fill:url(#linear-gradient-4)"/><path d="M167.68,203.9v14.54h-.93V203.9Z" style="fill:url(#linear-gradient-5)"/><path d="M179,203.9v.79h-4.18v13.75h-1V204.69h-4.17v-.79Z" style="fill:url(#linear-gradient-6)"/><path d="M189.29,214.67H182.4L181,218.44h-1l5.38-14.15h1l5.34,14.15h-1Zm-.29-.77-3.15-8.47-3.18,8.47Z" style="fill:url(#linear-gradient-7)"/><path d="M194.86,217.68h5.42v.76h-6.35V203.9h.93Z" style="fill:url(#linear-gradient-8)"/><path d="M203.29,203.9v14.54h-.93V203.9Z" style="fill:url(#linear-gradient-9)"/><path d="M214.65,203.9v.79h-4.19v13.75h-1V204.69h-4.16v-.79Z" style="fill:url(#linear-gradient-10)"/><path d="M225.7,203.9l-4.58,8.66v5.88h-.93v-5.88l-4.63-8.66h1.09l4,7.67,4-7.67Z" style="fill:url(#linear-gradient-11)"/></g></g></svg>