<svg id="Calque_1" data-name="Calque 1" xmlns="http://www.w3.org/2000/svg" viewBox="0 0 500 500"><defs><style>.cls-1{fill:#fff;}</style></defs><path class="cls-1" d="M379.39,270.25h11L351,179.61H331.27v2.86c4.66,0,7.33,2,8.85,4.35L303.9,270.25h10.82l32.34-74.49Z"/><path class="cls-1" d="M180.07,270.25h11l-39.35-90.64H132v2.86c4.66,0,7.33,2,8.85,4.35l-36.21,83.43H115.4l32.34-74.49Z"/><path class="cls-1" d="M273.17,179.53v2.86c10.1,0,10.84,9.37,10.88,11.45v76.41h10.67V179.53Z"/><path class="cls-1" d="M466.54,179.54v73.58L408,179.58v0H388.89v2.86c7.93,0,10.1,5.77,10.69,9.27v78.58H408v-73.5l58.47,73.5,0,0v0H475V179.54Z"/><path class="cls-1" d="M258.21,186.44q-7.48-6.91-19.12-6.92H189.31v2.87c10.09,0,10.87,9.33,10.92,11.46v76.4H210.9V230h25.59q14.73,0,22-7.23t7.24-18.52Q265.7,193.35,258.21,186.44Zm-8.41,30.07q-4.53,4.26-12.94,4.25h-26V189H236q18.31,0,18.32,15.23Q254.32,212.27,249.8,216.51Z"/><path class="cls-1" d="M100.53,238.84c-3.56-16.35-24.9-17.7-38.4-21.64-.84-.24-1.68-.47-2.53-.69C52.5,214.69,45.22,211.85,46,203c1.13-18.68,38.4-20.31,43.25-2.65H99.67C95.11,177,59.73,174.79,44,186.27,33.57,193.64,32.2,208.64,40.15,218c9,10,26.6,10.48,39.46,14.71,6,1.63,11.44,6.11,11.2,12.87-1.58,20.84-43.54,19.56-46.63-.22v-7.08H25v2.81c4.58,0,7.19,2,8.69,4.27C37.58,281.76,108.37,277.05,100.53,238.84Z"/><path class="cls-1" d="M164.41,306.21q0-6.84,3.62-10.53t10.29-3.7a15.18,15.18,0,0,1,8.68,2.27,11.38,11.38,0,0,1,4.54,6.73H188.6q-2.16-6.47-10.2-6.47c-3.6,0-6.34,1-8.24,3s-2.86,4.9-2.86,8.68.95,6.7,2.86,8.7,4.64,3,8.24,3q8,0,10.2-6.43h2.94a11.4,11.4,0,0,1-4.54,6.74,15.18,15.18,0,0,1-8.68,2.27q-6.67,0-10.29-3.7T164.41,306.21Z"/><path class="cls-1" d="M206.81,292.18h2.45l13.19,28.14h-3.18l-3.09-6.76H199.9l-3.1,6.76h-3.17ZM201.11,311H215L208,296Z"/><path class="cls-1" d="M225.78,292.18h11.66a20.18,20.18,0,0,1,3.94.38,9.55,9.55,0,0,1,3.38,1.37,7.14,7.14,0,0,1,2.37,2.67,10.95,10.95,0,0,1,0,8.6,7.1,7.1,0,0,1-2.37,2.68,9.54,9.54,0,0,1-3.38,1.36,19.43,19.43,0,0,1-3.94.38H228.8v10.7h-3Zm3,2.57v12.3h8.48a19.29,19.29,0,0,0,2.73-.2,6.54,6.54,0,0,0,2.47-.86,5,5,0,0,0,1.79-1.87,6.49,6.49,0,0,0,.69-3.22,6.43,6.43,0,0,0-.69-3.21,4.76,4.76,0,0,0-1.79-1.85A7.11,7.11,0,0,0,240,295a17.94,17.94,0,0,0-2.73-.22Z"/><path class="cls-1" d="M257.3,292.18v28.14h-3V292.18Z"/><path class="cls-1" d="M261.92,294.75v-2.57h23.59v2.57H275.22v25.57h-3V294.75Z"/><path class="cls-1" d="M299.1,292.18h2.45l13.18,28.14h-3.17l-3.1-6.76H292.18l-3.09,6.76h-3.18ZM293.39,311h13.87l-7-15Z"/><path class="cls-1" d="M337.48,317.74v2.58H318.07V292.18h3v25.56Z"/></svg>