<svg xmlns="http://www.w3.org/2000/svg" viewBox="0 0 150 150"><title>Asset 3</title><g id="Layer_2" data-name="Layer 2"><g id="Layer_1-2" data-name="Layer 1"><g id="Rectangle_2" data-name="Rectangle 2"><rect width="150" height="150" rx="15" style="fill:#fff"/><rect x="0.5" y="0.5" width="149" height="149" rx="14.5" style="fill:none;stroke:#fff"/></g><path id="Path_16" data-name="Path 16" d="M105.78,79.45h2.6L99.07,58H94.4v.68a2.32,2.32,0,0,1,2.1,1L87.93,79.45h2.56l7.65-17.61Z" style="fill:#205cff"/><path id="Path_17" data-name="Path 17" d="M58.66,79.45h2.6L52,58H47.3v.68a2.3,2.3,0,0,1,2.09,1L40.83,79.45h2.54L51,61.84Z" style="fill:#205cff"/><path id="Path_18" data-name="Path 18" d="M80.67,58v.68a2.54,2.54,0,0,1,2.58,2.49,1.48,1.48,0,0,1,0,.21V79.45h2.52V58Z" style="fill:#205cff"/><path id="Path_19" data-name="Path 19" d="M126.38,58V75.4L112.54,58H108v.68a2.4,2.4,0,0,1,2.52,2.19V79.46h2V62.08l13.83,17.38h2V58Z" style="fill:#205cff"/><path id="Path_20" data-name="Path 20" d="M77.13,59.64A6.36,6.36,0,0,0,72.61,58H60.84v.68a2.53,2.53,0,0,1,2.59,2.5V79.45H66V69.93h6a7.1,7.1,0,0,0,5.2-1.7,5.92,5.92,0,0,0,1.71-4.38A5.45,5.45,0,0,0,77.13,59.64Zm-2,7.11a4.37,4.37,0,0,1-3.06,1H65.93V60.24h5.95c2.88,0,4.33,1.2,4.33,3.6a3.81,3.81,0,0,1-1.07,2.9Z" style="fill:#205cff"/><path id="Path_21" data-name="Path 21" d="M39.86,72C39,68.16,34,67.84,30.78,66.91l-.6-.17c-1.68-.43-3.4-1.1-3.22-3.19.27-4.42,9.08-4.8,10.23-.63h2.46c-1.08-5.52-9.44-6-13.16-3.32a5.17,5.17,0,0,0-1.12,7.23l.21.27c2.13,2.36,6.29,2.47,9.33,3.47a3.2,3.2,0,0,1,2.65,3.05c-.38,4.92-10.3,4.62-11-.06V71.89H22v.66a2.28,2.28,0,0,1,2.05,1C25,82.17,41.71,81.06,39.86,72Z" style="fill:#205cff"/><path id="Path_22" data-name="Path 22" d="M55,88a3.43,3.43,0,0,1,.85-2.49,3.28,3.28,0,0,1,2.44-.87,3.62,3.62,0,0,1,2,.53,2.7,2.7,0,0,1,1.07,1.59h-.7a2.25,2.25,0,0,0-2.41-1.53,2.6,2.6,0,0,0-1.95.71,3.47,3.47,0,0,0,0,4.11,2.56,2.56,0,0,0,1.95.71,2.25,2.25,0,0,0,2.41-1.52h.7a2.72,2.72,0,0,1-1.07,1.6,3.62,3.62,0,0,1-2,.53,3.28,3.28,0,0,1-2.44-.87A3.47,3.47,0,0,1,55,88Z" style="fill:#205cff"/><path id="Path_23" data-name="Path 23" d="M65,84.63h.58l3.12,6.66h-.75l-.74-1.6H63.35l-.74,1.6h-.75Zm-1.35,4.45h3.29l-1.66-3.54Z" style="fill:#205cff"/><path id="Path_24" data-name="Path 24" d="M69.47,84.63h2.75a4.73,4.73,0,0,1,.93.09,2.26,2.26,0,0,1,.8.33,1.62,1.62,0,0,1,.56.63,2.56,2.56,0,0,1,0,2,1.65,1.65,0,0,1-.56.64,2.44,2.44,0,0,1-.8.32,4.73,4.73,0,0,1-.93.09h-2v2.53h-.71Zm.71.61v2.91h2a4.58,4.58,0,0,0,.64,0,1.67,1.67,0,0,0,.58-.2,1.21,1.21,0,0,0,.43-.44,1.91,1.91,0,0,0,0-1.52,1.07,1.07,0,0,0-.43-.44,1.67,1.67,0,0,0-.58-.2,3.45,3.45,0,0,0-.64,0Z" style="fill:#205cff"/><path id="Path_25" data-name="Path 25" d="M76.92,84.63v6.66h-.71V84.63Z" style="fill:#205cff"/><path id="Path_26" data-name="Path 26" d="M78,85.24v-.61h5.58v.61H81.16v6.05h-.71V85.24Z" style="fill:#205cff"/><path id="Path_27" data-name="Path 27" d="M86.8,84.63h.58l3.11,6.66h-.74L89,89.69H85.16l-.73,1.6h-.75Zm-1.35,4.45h3.28l-1.66-3.54Z" style="fill:#205cff"/><path id="Path_28" data-name="Path 28" d="M95.87,90.68v.61H91.28V84.63H92v6.05Z" style="fill:#205cff"/></g></g></svg>