<svg xmlns="http://www.w3.org/2000/svg" viewBox="0 0 149.15 46.74"><title>Asset 1</title><g id="Layer_2" data-name="Layer 2"><g id="Layer_1-2" data-name="Layer 1"><g id="Sapian_Logo" data-name="Sapian Logo"><path id="Path" d="M117.47,30.08h3.63l-13-30h-6.54V1a3.25,3.25,0,0,1,2.93,1.45l-12,27.65H96L106.75,5.39Z" style="fill:#205cff"/><path id="Path-2" d="M51.4,30.08H55L42,0H35.45V1a3.25,3.25,0,0,1,2.93,1.45l-12,27.65H30L40.68,5.39Z" style="fill:#205cff"/><path id="Path-3" d="M82.26,0V1c3.35,0,3.59,3.1,3.61,3.8V30.08H89.4V0Z" style="fill:#205cff"/><path id="Path-4" d="M146.35,0V24.4L127,0V0h-6.35V1A3.38,3.38,0,0,1,124.16,4V30.08H127V5.72l19.38,24.36h2.81V0Z" style="fill:#205cff"/><path id="Shape" d="M61.62,30.08H58.08V4.75c0-.63-.25-3.79-3.62-3.79V0H71.3a9,9,0,0,1,6,2.3,7.64,7.64,0,0,1,2.48,5.91,8.32,8.32,0,0,1-2.4,6.14c-1.59,1.59-4,2.4-7.28,2.4H61.62V30.08Zm0-26.92V13.68h8.6a6.07,6.07,0,0,0,4.29-1.41A5.33,5.33,0,0,0,76,8.21a4.68,4.68,0,0,0-1.52-3.79,7,7,0,0,0-4.55-1.26Z" style="fill:#205cff"/><path id="Path-5" d="M25,19.67c-1.18-5.42-8.26-5.87-12.73-7.17l-.84-.23C9.12,11.66,6.7,10.72,7,7.79c.37-6.18,12.73-6.73,14.34-.87h3.45C23.24-.83,11.51-1.56,6.31,2.25A7.26,7.26,0,0,0,4.73,12.4l.29.37c3,3.31,8.82,3.48,13.08,4.88,2,.54,3.79,2,3.71,4.26-.52,6.91-14.43,6.49-15.45-.07V19.5H0v.93a3.17,3.17,0,0,1,2.88,1.41C4.17,33.9,27.64,32.33,25,19.67Z" style="fill:#205cff"/><path id="Path-6" d="M55.78,37.28a5.92,5.92,0,0,1,1.91.35,5.07,5.07,0,0,1,.75.34,3.38,3.38,0,0,1,1.64,2.3h-.93a2.65,2.65,0,0,0-.36-.76,2.55,2.55,0,0,0-.48-.56,2.34,2.34,0,0,0-.55-.38,4.87,4.87,0,0,0-.57-.24,4.23,4.23,0,0,0-1.41-.21,3.64,3.64,0,0,0-2.77,1A4,4,0,0,0,52.06,42,4.05,4.05,0,0,0,53,44.89a3.64,3.64,0,0,0,2.77,1,4.48,4.48,0,0,0,1.5-.23A3.29,3.29,0,0,0,58.42,45a2.81,2.81,0,0,0,.74-1,3.42,3.42,0,0,0,.29-1.3H55.78v-.86h4.65a3.55,3.55,0,0,1,0,.46,4.87,4.87,0,0,1,0,.66,5.42,5.42,0,0,1-.17.8,4,4,0,0,1-.34.83,4,4,0,0,1-1.62,1.57,5.44,5.44,0,0,1-2.51.55,5.9,5.9,0,0,1-2-.32A3.85,3.85,0,0,1,51.37,44a6.33,6.33,0,0,1,0-4,3.9,3.9,0,0,1,2.41-2.41,5.9,5.9,0,0,1,2-.32Z" style="fill:#205cff"/><path id="Shape-2" d="M63.11,46.68h-1V37.35H66a6.88,6.88,0,0,1,1.29.12,3.06,3.06,0,0,1,1.12.46,2.3,2.3,0,0,1,.79.88,3.08,3.08,0,0,1,.29,1.43,3.33,3.33,0,0,1-.18,1.17,2.48,2.48,0,0,1-.5.82,2.26,2.26,0,0,1-.74.52,4.46,4.46,0,0,1-.92.29l2.58,3.63H68.59l-2.51-3.54h-3v3.54Zm0-8.48v4.08h2.81a6.82,6.82,0,0,0,.9-.07,2.18,2.18,0,0,0,.82-.29,1.6,1.6,0,0,0,.59-.62,2.56,2.56,0,0,0,0-2.13,1.64,1.64,0,0,0-.59-.61,2.36,2.36,0,0,0-.82-.29,6.82,6.82,0,0,0-.9-.07Z" style="fill:#205cff"/><path id="Shape-3" d="M75.59,46.74H75.4a5.93,5.93,0,0,1-1.91-.32A3.9,3.9,0,0,1,71.08,44a6.38,6.38,0,0,1,0-4A4.12,4.12,0,0,1,72,38.53a4,4,0,0,1,1.49-.93,5.83,5.83,0,0,1,1.9-.32h.19a5.83,5.83,0,0,1,1.9.32A3.86,3.86,0,0,1,79.89,40a6.47,6.47,0,0,1,0,4,3.86,3.86,0,0,1-2.4,2.41A5.88,5.88,0,0,1,75.59,46.74Zm-.1-8.61a4.35,4.35,0,0,0-2.76,1,3.92,3.92,0,0,0-1,2.88,3.92,3.92,0,0,0,1,2.88,3.58,3.58,0,0,0,2.51,1h.5a3.54,3.54,0,0,0,2.5-1,4,4,0,0,0,1-2.88,4,4,0,0,0-1-2.88A4.32,4.32,0,0,0,75.49,38.13Z" style="fill:#205cff"/><path id="Path-7" d="M81.89,37.35h1V42.1A8,8,0,0,0,83,43.65a2.88,2.88,0,0,0,.45,1.19,2.18,2.18,0,0,0,.9.77,4.11,4.11,0,0,0,2.93,0,2.31,2.31,0,0,0,.9-.77,3.17,3.17,0,0,0,.44-1.19,10,10,0,0,0,.12-1.54l0-4.76h1v4.86a8.88,8.88,0,0,1-.2,1.85,3.88,3.88,0,0,1-.66,1.43,2.91,2.91,0,0,1-1.22.92,4.67,4.67,0,0,1-1.88.33A4.59,4.59,0,0,1,84,46.41a2.82,2.82,0,0,1-1.21-.92,3.73,3.73,0,0,1-.66-1.43,7.71,7.71,0,0,1-.2-1.85Z" style="fill:#205cff"/><path id="Shape-4" d="M92.87,46.67h-1V37.35h3.87a7.07,7.07,0,0,1,1.3.12,3.11,3.11,0,0,1,1.11.46,2.3,2.3,0,0,1,.79.88,3.64,3.64,0,0,1,0,2.86,2.3,2.3,0,0,1-.79.88A3.19,3.19,0,0,1,97,43a7.07,7.07,0,0,1-1.3.12H92.87v3.54Zm0-8.47v4.08h2.81a6.82,6.82,0,0,0,.9-.07,2.18,2.18,0,0,0,.82-.29A1.6,1.6,0,0,0,98,41.3a2.56,2.56,0,0,0,0-2.13,1.57,1.57,0,0,0-.59-.61,2.59,2.59,0,0,0-.82-.29,5.46,5.46,0,0,0-.9-.07Z" style="fill:#205cff"/></g></g></g></svg>