<svg xmlns="http://www.w3.org/2000/svg" viewBox="0 0 150 150"><title>Asset 5</title><g id="Layer_2" data-name="Layer 2"><g id="Layer_1-2" data-name="Layer 1"><g id="Rectangle_32" data-name="Rectangle 32"><rect width="150" height="150" rx="15" style="fill:#fff"/><rect x="0.5" y="0.5" width="149" height="149" rx="14.5" style="fill:none;stroke:#fff"/></g><rect id="Rectangle_33" data-name="Rectangle 33" x="20.99" y="20.99" width="108.29" height="108.29" style="fill:none"/><path id="Path" d="M104.87,80.51h2.52l-9-20.82H93.81v.65a2.26,2.26,0,0,1,2,1L87.53,80.51H90L97.43,63.4Z" style="fill:#205cff"/><path id="Path-2" d="M59.08,80.51H61.6L52.55,59.68H48v.66a2.23,2.23,0,0,1,2,1L41.73,80.51h2.49L51.65,63.4Z" style="fill:#205cff"/><path id="Path-3" d="M80.46,59.67v.65A2.47,2.47,0,0,1,83,62.75,1.48,1.48,0,0,1,83,63V80.51h2.45V59.67Z" style="fill:#205cff"/><path id="Path-4" d="M124.89,59.67v16.9L111.45,59.69h-4.4v.66a2.34,2.34,0,0,1,2.46,2.13V80.53h1.94V63.65l13.44,16.88h1.94V59.67Z" style="fill:#205cff"/><path id="Shape" d="M66.16,80.5H63.71V63a2.49,2.49,0,0,0-2.32-2.63H61.2v-.66H72.87A6.26,6.26,0,0,1,77,61.25a5.36,5.36,0,0,1,1.72,4.1,5.82,5.82,0,0,1-1.66,4.26,6.92,6.92,0,0,1-5,1.67H66.15v9.23Zm0-18.65v7.29h6a4.2,4.2,0,0,0,3-1,3.75,3.75,0,0,0,1-2.81,3.24,3.24,0,0,0-1.06-2.63,4.9,4.9,0,0,0-3.15-.87Z" style="fill:#205cff"/><path id="Path-5" d="M40.8,73.29c-.82-3.75-5.73-4.07-8.82-5l-.58-.16c-1.63-.42-3.3-1.07-3.13-3.1.26-4.29,8.82-4.66,9.94-.61H40.6c-1.05-5.37-9.17-5.87-12.78-3.23a5,5,0,0,0-1.09,7,2.56,2.56,0,0,0,.2.26c2.07,2.3,6.12,2.41,9.07,3.38a3.11,3.11,0,0,1,2.57,3c-.36,4.78-10,4.49-10.71,0V73.18H23.45v.63a2.19,2.19,0,0,1,2,1C26.34,83.15,42.6,82.07,40.8,73.29Z" style="fill:#205cff"/><path id="Path_34" data-name="Path 34" d="M60.69,85.93v4.64h-.3V88.31H57.7v2.26h-.3V85.93h.3v2.13h2.69V85.93Z" style="fill:#205cff"/><path id="Path_35" data-name="Path 35" d="M65,86.2a2,2,0,0,1,.8.83,2.84,2.84,0,0,1,0,2.45,2.15,2.15,0,0,1-.8.84,2.34,2.34,0,0,1-2.29,0,2.09,2.09,0,0,1-.8-.84,2.71,2.71,0,0,1,0-2.45,2,2,0,0,1,.8-.83A2.34,2.34,0,0,1,65,86.2Zm-2.13.22a1.93,1.93,0,0,0-.69.73,2.52,2.52,0,0,0,0,2.21,1.84,1.84,0,0,0,.69.72,2,2,0,0,0,2,0,1.71,1.71,0,0,0,.69-.72,2.52,2.52,0,0,0,0-2.21,1.73,1.73,0,0,0-.69-.73A2,2,0,0,0,62.82,86.42Z" style="fill:#205cff"/><path id="Path_36" data-name="Path 36" d="M69.5,90a1.07,1.07,0,0,1-.43.44,1.49,1.49,0,0,1-.74.17,1.62,1.62,0,0,1-.76-.16A1.37,1.37,0,0,1,67,90a1.2,1.2,0,0,1-.23-.6h.32a1.33,1.33,0,0,0,.17.43,1.12,1.12,0,0,0,.4.38,1.43,1.43,0,0,0,.64.15,1,1,0,0,0,.75-.27,1,1,0,0,0,.26-.67.86.86,0,0,0-.17-.56,1.16,1.16,0,0,0-.4-.32,4.29,4.29,0,0,0-.63-.23,5.89,5.89,0,0,1-.7-.26,1.06,1.06,0,0,1-.44-.37,1.18,1.18,0,0,1,.16-1.48,1.39,1.39,0,0,1,1-.31,1.48,1.48,0,0,1,1,.31,1.31,1.31,0,0,1,.44.75h-.31a1,1,0,0,0-.35-.56,1.14,1.14,0,0,0-.77-.26,1.07,1.07,0,0,0-.73.24.78.78,0,0,0-.27.66.84.84,0,0,0,.15.53,1.11,1.11,0,0,0,.4.31,3.66,3.66,0,0,0,.63.23,5.59,5.59,0,0,1,.72.26,1.23,1.23,0,0,1,.46.39,1.09,1.09,0,0,1,.18.68A1.21,1.21,0,0,1,69.5,90Z" style="fill:#205cff"/><path id="Path_37" data-name="Path 37" d="M70.84,88.56v2h-.3V85.94h1.27a1.57,1.57,0,0,1,1.14.35,1.3,1.3,0,0,1,.38,1,1.25,1.25,0,0,1-.39.95,1.7,1.7,0,0,1-1.13.32ZM73,87.26a1,1,0,0,0-.29-.79,1.34,1.34,0,0,0-1-.27h-1v2.1h1C72.61,88.3,73,88,73,87.26Z" style="fill:#205cff"/><path id="Path_38" data-name="Path 38" d="M74.4,85.93v4.64h-.3V85.93Z" style="fill:#205cff"/><path id="Path_39" data-name="Path 39" d="M78,85.93v.26H76.68v4.38h-.32V86.19H75v-.26Z" style="fill:#205cff"/><path id="Path_40" data-name="Path 40" d="M81.28,89.37H79.09l-.45,1.2h-.32L80,86.06h.31l1.7,4.51h-.31Zm-.09-.25-1-2.7-1,2.7Z" style="fill:#205cff"/><path id="Path_41" data-name="Path 41" d="M83.06,90.32h1.72v.25h-2V85.93h.3Z" style="fill:#205cff"/><path id="Path_42" data-name="Path 42" d="M85.74,85.93v4.64h-.3V85.93Z" style="fill:#205cff"/><path id="Path_43" data-name="Path 43" d="M89.36,85.93v.26H88v4.38h-.31V86.19H86.38v-.26Z" style="fill:#205cff"/><path id="Path_44" data-name="Path 44" d="M92.88,85.93l-1.46,2.76v1.88h-.3V88.69l-1.47-2.76H90l1.27,2.45,1.27-2.45Z" style="fill:#205cff"/></g></g></svg>