<svg xmlns="http://www.w3.org/2000/svg" viewBox="0 0 398.68 384.54"><title>Asset 1</title><g id="Layer_2" data-name="Layer 2"><g id="Layer_2-2" data-name="Layer 2"><ellipse cx="341.08" cy="380.31" rx="57.6" ry="4.23" style="fill:#cee2fd"/><ellipse cx="174.71" cy="380.62" rx="44.63" ry="3.92" style="fill:#cee2fd"/><ellipse cx="44.63" cy="380.62" rx="44.63" ry="3.92" style="fill:#cee2fd"/><path d="M375.45,370.22l-17.39,5.95-2-11.87h-5.29l-10.56-67.4v-3.46l-21.17-71.69-.63-2.16,0,9.12L318.21,291,316,296l7.71,68.56L320,368.68l.09,6.44-17.7-1.81-5.51-9,3.16-2.71,1.08-.93.16-.14-1.87-2.44-1-1.29,0-.29-11-67.73h0l-.25-1.47-1-6.44-.26-1.56-.15-.93-14.75-71.74,12.77-23.18.66-7.63.2-2.31,2.39-27.75-2.81-5.34,1.32-4.6L279,67.28s18.47-5.89,26.43-11.7c0,0,0,0,.05,0,.37-.27.71-.54,1-.8,1.46-1.24,2.39-2.46,2.49-3.61.08-.8.13-1.7.17-2.68.3-7.29-.17-18.51-.17-18.51l27,7.7s.22,12.55.22,14.1a2.91,2.91,0,0,0,.5,1.39,17.35,17.35,0,0,0,4.41,4.52c.37.29.76.55,1.15.8l.07,0c.26.16.66.37,1.18.62,6,2.92,27.37,11.22,27.37,11.22l-13.21,66.15L355,138.86l3.84,36.95.34,3.35,6.17,16.62,3.3,90.34,4.21,67.05.08,1.33.19,3.08.09,1.33.27,4.33-2.64,1.06.06.07,1.12,1.45Z" style="fill:#f0efe6"/><path d="M305.81,146.13s-1.25,12.34-3.73,20.6a35.48,35.48,0,0,1-7.84,13.6l-7.56-2Z" style="fill:#0b212e"/><path d="M342,150.37s-.43,1.66,2.79,10.08,8.42,18.38,8.42,18.38l4.62-3Z" style="fill:#0b212e"/><polygon points="375.45 370.22 358.06 376.17 356.08 364.3 350.79 364.3 340.23 296.9 340.23 293.44 319.06 221.75 318.43 219.59 318.4 228.71 318.21 290.96 316 296.02 323.71 364.6 319.97 368.68 320.06 375.12 302.36 373.31 296.85 364.3 300.01 361.59 301.09 360.67 301.25 360.52 299.38 358.08 298.39 356.79 298.35 356.5 287.32 288.77 287.32 288.76 287.07 287.29 286.03 280.85 285.77 279.29 285.62 278.36 270.87 206.62 283.64 183.44 284.3 175.81 358.82 175.81 359.16 179.16 365.33 195.78 365.59 202.98 365.66 205.05 365.77 207.89 365.84 209.9 368.63 286.12 372.84 353.17 372.92 354.5 373.11 357.58 373.2 358.91 373.47 363.24 370.83 364.3 370.89 364.37 372.01 365.82 375.45 370.22" style="fill:#2e576b"/><path d="M383.66,378.92v5.62H358.39v-9.42s9.11-7.5,12.39-7.1c1,.12,2.45,1.09,4.08,2.41.47.38.94.78,1.42,1.21.27.23.55.48.82.73s.82.75,1.21,1.13C381.18,376.21,383.66,378.92,383.66,378.92Z" style="fill:#0b212e"/><path d="M320.06,375.12v9.42H294.79v-5.62s3-3.28,6.23-6.25c.52-.47,1-.94,1.56-1.38s1.18-1,1.74-1.42a18.46,18.46,0,0,1,1.54-1.08h0a5.1,5.1,0,0,1,1.81-.77C311,367.62,320.06,375.12,320.06,375.12Z" style="fill:#0b212e"/><path d="M336.65,53.13l-6.77,7L309.13,48.45c.3-7.29-.17-18.51-.17-18.51l27,7.7s.22,12.55.22,14.1A2.91,2.91,0,0,0,336.65,53.13Z" style="fill:#9b4537"/><path d="M305.77,22.18s-3.14-1.93-4.68-.44-1,6.82,2.92,9.63a6.56,6.56,0,0,0,7.26.66l.44,11.34,22,6.66L344.3,40.4l-3-8.48-.51-18.79a5.39,5.39,0,0,0-.74-2.57C338.49,7.93,334.57,2,329.6.77a22.27,22.27,0,0,0-17.39,2.47c-5.12,3-6.72,7.49-6.77,8.37S305.77,22.18,305.77,22.18Z" style="fill:#9b4537"/><path d="M360.29,182.21s-4.88.91-11.48,1.86c-1.16.17-2.38.34-3.63.5-4.36.56-9.15,1.09-13.65,1.36h0l-2.24.12c-4.28.17-9.57,0-15-.33-4.09-.25-8.27-.6-12.17-1l-3.47-.35c-8.48-.87-14.91-1.74-14.91-1.74l.6-6.85h74.52Z" style="fill:#0b212e"/><polygon points="274.73 199.61 266.91 194.09 282.82 184.93 274.73 199.61" style="fill:#f0efe6"/><polygon points="375.11 197.28 369.83 196.49 372.19 194.31 375.11 197.28" style="fill:#0b212e"/><polygon points="360.29 182.21 365.51 200.71 372.43 194.09 360.29 182.21" style="fill:#f0efe6"/><path d="M386.46,145.75l1,1.72-12.34,49.81-14.82-15.07,8.85-34.6h0l.41-1.58.07-.27-2.48-1.81,1.65-1.24,2-1.54-1-.56-3.48-1.94,1.11-5.4-6-16.27,4.59-23a.44.44,0,0,0,0-.15l4.7-23.54.26,1,5.62,22.25.35,1.38,1.79,7.12.33,1.27,6.95,27.54-.39.49-.27.33,2,1.86,2.41,2.19Z" style="fill:#2e576b"/><path d="M278.14,153l4.68,32-16.57,10.87-9.69-51.91,1.76-2.72-1.76-2.3,5.39-9.73s2.88-15.4,5.72-30.25c.08-.43.17-.86.25-1.28.4-2.09.8-4.17,1.18-6.17.09-.43.16-.87.24-1.29.29-1.44.55-2.82.82-4.16.1-.51.19-1,.29-1.51,1.34-6.85,2.36-11.94,2.62-12.7.67-2,3.71-3.55,5.14-4.18l.75-.31,3.12,33.18c0,.07,0,.14,0,.21l1.66,17.7-5.41,19.68.56,1.32-.68.75-.89,1-.59.66-.15.16,3.46,2.81.61.5Z" style="fill:#2e576b"/><path d="M331.53,175.81v10.12h0l-2.24.12c-4.28.17-9.57,0-15-.33v-9.91Z" style="fill:#f5cb99"/><path d="M348.81,175.81v8.26c-1.16.17-2.38.34-3.63.5v-8.76Z" style="fill:#2e576b"/><path d="M298.61,175.81v8.59l3.47.35v-8.94Z" style="fill:#2e576b"/><polygon points="329.88 60.1 322.29 68.03 326.08 71.33 319.42 165.45 329.99 178.83 339.73 165.97 329.99 71.44 334.17 68.25 329.88 60.1 329.88 60.1" style="fill:#73a3cc"/><path d="M344.3,40.4l-.61.63-.46.49-.49.5-.45.48-4.44,4.62-.53.54-1,1.06-.54.57-.72.74-6.54-1.86-.63-.19L325,47.16l-.64-.18-1.24-.35-.65-.19-2.17-.62-.52-.15-3.07-.87-.64-.19-2.9-.82-.67-.19-.79-.23-.14-3.65,0-1.1-.12-3.18,0-.89-.1-2.52-.11-1.88-.05-.85L311,27.84l0-.76-.23-3.85,1.66,2.83.34.57.42.72.34.59,1.6,2.73.42.71.43.74.37.64.61,1,.52.31.58.33,2.5,1.47.58.34,1.58.92.57.34,1.25.73.6.35,2.08,1.22.57.33,1.05.61.62.37.05,0,4.05-2.39.15.11.62.48,1.09.84.81.62h0l.43.34,1.86-3.71.33-.64h0l.45-.91.33-.66.88-1.76.35-.69.42-.84,1.15,3.21v0l.75,2.13Z" style="fill:#0b212e"/><polygon points="319.67 33 320.08 30.99 331.06 28.43 331.06 32.55 319.67 33" style="fill:#0b212e"/><polygon points="333.1 32.55 333.29 29.42 339.4 33 339.4 34.29 333.1 32.55" style="fill:#0b212e"/><path d="M326.35,11.16a9.07,9.07,0,0,0-6,2.37c-1.28,1.13.6,3,1.86,1.86a6.3,6.3,0,0,1,4.09-1.59A1.32,1.32,0,0,0,326.35,11.16Z" style="fill:#0b212e"/><path d="M339.27,14.19a5.48,5.48,0,0,0-4.78.37,1.33,1.33,0,0,0-.48,1.81,1.35,1.35,0,0,0,1.81.47,2.78,2.78,0,0,1,2.11-.36,1.36,1.36,0,0,0,1.81-.48A1.33,1.33,0,0,0,339.27,14.19Z" style="fill:#0b212e"/><path d="M334.73,22.54c-.61-.59-1.55.35-.93.94a2.68,2.68,0,0,1,.92,2.36,1.67,1.67,0,0,1-2.31,1.27c-.81-.27-1.16,1-.35,1.28a3,3,0,0,0,3.69-1.5A3.81,3.81,0,0,0,334.73,22.54Z" style="fill:#0b212e"/><path d="M312.75,26.63s0,0,0,0c-.55.41-1.11.82-1.69,1.19l0-.76c.26-.17.51-.35.76-.53s.45-.33.67-.49Z" style="fill:#0b212e"/><path d="M313.51,27.94c-.76.75-1.55,1.49-2.35,2.21l-.05-.85c.7-.63,1.39-1.27,2.06-1.95Z" style="fill:#0b212e"/><path d="M315.53,31.38c-1.4,1.32-2.78,2.68-4.12,4.06l0-.89c1.21-1.23,2.45-2.45,3.7-3.65a.27.27,0,0,1,0-.23Z" style="fill:#0b212e"/><path d="M316.33,32.76c-1.55,2.33-3.15,4.65-4.76,7l0-1.1c1.5-2.15,3-4.31,4.43-6.5Z" style="fill:#0b212e"/><path d="M318,34.43a88.32,88.32,0,0,1-4.87,9.36l-.67-.19a85.7,85.7,0,0,0,5-9.5Z" style="fill:#0b212e"/><path d="M321.12,36.24q-2.31,4.23-4.41,8.56l-.64-.19q2.15-4.39,4.47-8.71Z" style="fill:#0b212e"/><path d="M323.27,37.5q-1.12,3.07-2.22,6.17l-.75,2.15-.52-.15c.18-.65.33-1.3.42-1.57l.86-2.43q.81-2.27,1.64-4.51Z" style="fill:#0b212e"/><path d="M325.12,38.58c-.56,2.7-1.23,5.39-2,8.05l-.65-.19c.79-2.71,1.48-5.45,2-8.21Z" style="fill:#0b212e"/><path d="M327.77,40.13c-.85,2.37-1.78,4.71-2.77,7l-.64-.18c1-2.37,2-4.76,2.84-7.18Z" style="fill:#0b212e"/><path d="M328.51,48.15v0l-.63-.19c.33-2.4.7-4.82.94-7.24l.62.37C329.2,43.46,328.84,45.81,328.51,48.15Z" style="fill:#0b212e"/><path d="M336.31,48.72l-.54.57c-.55-2.25-1-4.51-1.47-6.78-.22-1.22-.43-2.43-.61-3.65l.62.48c.1.83.44,1.95.51,2.37.15.83.31,1.67.48,2.5C335.62,45.72,336,47.22,336.31,48.72Z" style="fill:#0b212e"/><path d="M337.85,47.12l-.53.54c-.73-2.47-1.38-5-1.92-7.48l.81.62h0Q336.92,44,337.85,47.12Z" style="fill:#0b212e"/><path d="M342.74,42l-.45.48q-1.91-2.53-3.78-5.07l.33-.64Z" style="fill:#0b212e"/><path d="M343.69,41l-.46.49q-2-2.84-3.94-5.65l.33-.66Q341.68,38.11,343.69,41Z" style="fill:#0b212e"/><path d="M343.18,37.28q-1.43-1.85-2.68-3.83l.35-.69c.5.81,1,1.6,1.57,2.37v0Z" style="fill:#0b212e"/><polygon points="333.84 53.11 336.31 48.72 335.05 50.03 311.71 43.37 333.84 53.11" style="fill:#0b212e"/><path d="M327.48,20.5c-.29,1.32-1.3,2.22-2.25,2s-1.47-1.45-1.18-2.77,1.31-2.22,2.26-2S327.78,19.18,327.48,20.5Z" style="fill:#0b212e"/><path d="M339.33,21.28c-.28,1.24-1.17,2.1-2,1.92s-1.26-1.34-1-2.59,1.18-2.1,2-1.92S339.61,20,339.33,21.28Z" style="fill:#0b212e"/><path d="M302,25.87s-1-1.74.28-2.27,4,1.86,4,1.86Z" style="fill:#0b212e"/><path d="M306,26.24s-1-.08-.33,1.11a1.66,1.66,0,0,0,1.86.87Z" style="fill:#0b212e"/><path d="M343.46,59.12,336,69.61a.66.66,0,0,1-1.14,0l-5.63-8-7.32,7.32a.66.66,0,0,1-.93,0c-2.91-2.83-5.91-5.57-9.07-8.12-2.14-1.73-4.51-3.29-6.49-5.22.37-.27.71-.54,1-.8,3.32,3.31,7.57,5.92,11,9,1.2,1.09,2.39,2.18,3.56,3.32.71.69,2.23-1.45,2.56-1.78l5.25-5.26a.68.68,0,0,1,1,.14l5.55,7.94,6.82-9.64C342.54,58.66,342.94,58.87,343.46,59.12Z" style="fill:#0b212e"/><path d="M308.19,112.23c0,.85,0,1.7,0,2.53,0,1.4,0,2.78-.06,4.1-.47,24.21-3.58,36.08-7.84,45.12-4.64,9.85-16.58,18.68-16.58,18.68l.8-9.16,2.18-25.38h0l.15-1.75h0l.06-.6-2.81-5.34.66-2.31.41-1.42.25-.87-1.64-17.44-1.66-17.7c0-.07,0-.14,0-.21L279,67.28l.54-.18a164.72,164.72,0,0,0,18.89-7.47c.74-.37,1.47-.74,2.17-1.11a39.42,39.42,0,0,0,4.83-2.94c.16,1.86.35,4.13.55,6.74.05.55.09,1.12.14,1.71C307,76.43,308.19,95.16,308.19,112.23Z" style="fill:#2e576b"/><path d="M370.83,70.34l-4.7,23.54a.44.44,0,0,1,0,.15l-4.59,23-3.27,16.36-.32,1.63h0l-.3,1.5L355,138.86l.09.88.15,1.48,4.55,38.7s-18.86-21.87-18.72-35.65c.05-5.24.07-16.32.07-29v-3.08c0-15.71,0-33.22-.05-44.77V65.77c0-3.4,0-6.18,0-8.12.37.29.76.55,1.15.8A52.69,52.69,0,0,0,347.69,61l2.56,1.08c7.17,3,16.81,6.77,19.71,7.9Z" style="fill:#2e576b"/><path d="M379.18,103.4l-13.81,2.88a.91.91,0,0,1-.23,0c-.5,2.55-3,8.14-2.83,7.31q2-9.76,3.79-19.57a.44.44,0,0,0,0-.15Q368.26,82,370,70l.87.34.26,1q-2.11,14.73-4.88,29.35,5.34-3.42,10.5-7.1l.35,1.38q-5.49,3.9-11.19,7.51c-.15.8-.31,1.61-.46,2.41l13.44-2.8Z" style="fill:#0b212e"/><path d="M280.71,99.72a.71.71,0,0,1-.12-.18,34.9,34.9,0,0,0-4.57,0c-1.65-.07-3.3-.15-4.95-.29-1.14-.1-2.27-.22-3.4-.35.08-.43.17-.86.25-1.28,1.87.21,3.74.38,5.62.48,2.11.11,4.85-.29,7,.09-.07-1-.15-1.94-.23-2.9a.55.55,0,0,1-.36-.21c-.63-.72-1.28-1.41-1.95-2.08a.66.66,0,0,1-.61-.37c-2.78-.43-5.55-.82-8.33-1.18.09-.43.16-.87.24-1.29,2.23.29,4.46.61,6.69.94-1.93-1.74-3.94-3.37-5.87-5.1.1-.51.19-1,.29-1.51,2.57,2.35,5.33,4.52,7.85,6.94h0a.57.57,0,0,1,.43.44c.51.49,1,1,1.47,1.51q-1-12.89-2-25.77l.75-.31.54-.18q1.23,15.8,2.45,31.59a.71.71,0,0,1,.1.54l-.05.2.08,1c0,.07,0,.14,0,.21.34,4.38.68,8.77,1,13.14C283.17,113.9,281.09,104.72,280.71,99.72Z" style="fill:#0b212e"/><path d="M308.18,114.76c0,1.4,0,2.78-.06,4.1-4.77-14.75-9.41-29.58-15-44.07a.64.64,0,0,1,.17-.64q1.74-1.55,3.47-3.12a.53.53,0,0,1-.19-.29v0A18.55,18.55,0,0,0,292.87,69a.68.68,0,0,1-.24-.91c1.55-2.14,3.06-4.31,4.46-6.55l1.3-1.92c.74-.37,1.47-.74,2.17-1.11-.23.32-.43.59-.55.8q-2.73,4.53-5.8,8.83c.62.24,1.34.49,2,.8a4.49,4.49,0,0,1,1.62,1.12q4.11-3.76,8.05-7.7l.06,0c.05.55.09,1.12.14,1.71-3.54,3.52-7.16,6.94-10.9,10.24-1.3,1.14,1.83,7.09,2.32,8.46.85,2.37,1.69,4.76,2.5,7.15C302.81,98.14,305.49,106.45,308.18,114.76Z" style="fill:#0b212e"/><path d="M356.32,80.72c0,2-1.55,4.33-2.29,6.09-4,9.61-8.45,19-12.91,28.48v-3.08c3.51-7.42,7-14.85,10.22-22.4,1.13-2.67,2.35-5.33,3.34-8.06.88-2.36-2.82-5-4.36-6.39-3-2.75-6.07-5.4-9.25-7.92V65.77q4.05,3.17,7.89,6.59a.25.25,0,0,1,0-.07l4.07-4.58L347.69,61l2.56,1.08,4.14,5.17a.67.67,0,0,1,0,.94l-4.45,5q2,1.78,3.89,3.63C354.9,77.91,356.32,79.05,356.32,80.72Z" style="fill:#0b212e"/><path d="M291.88,153a.67.67,0,0,1-.81.46l-.13,0a.67.67,0,0,1-.47-.77,8.53,8.53,0,0,1-1-1.27l-.83-1c-.64-.77-1.3-1.52-2-2.25,0,0,0,0,0,0l.15-1.75c.82.83,1.61,1.69,2.36,2.58S292.11,151.67,291.88,153Z" style="fill:#0b212e"/><path d="M292.72,145.11a.69.69,0,0,1-.67-.55q-3.76-3.12-7.31-6.46l.41-1.42q4.05,3.85,8.36,7.39C294.09,144.55,293.33,145.52,292.72,145.11Z" style="fill:#0b212e"/><path d="M358.24,133.35l-.32,1.63h0c-2.63,1.25-5.45,2.2-8.11,3.29-.79.32-1.13-1-.36-1.28C352.36,135.83,355.44,134.8,358.24,133.35Z" style="fill:#0b212e"/><path d="M355.22,141.22c-1.35.91-2.68,1.85-4,2.85-.66.51-1.61-.41-.93-.93,1.53-1.2,3.12-2.33,4.74-3.4Z" style="fill:#0b212e"/><path d="M379.38,137.08q-5.37,2.68-10.59,5.62l2-1.54-1-.56q3.82-2.11,7.74-4.08a.66.66,0,0,1,.62-.62l.85-.05A.66.66,0,0,1,379.38,137.08Z" style="fill:#0b212e"/><path d="M377.59,143.54a61.26,61.26,0,0,1-8.45,4.06l.41-1.58a63.19,63.19,0,0,0,6.37-3.07.55.55,0,0,1,.46-.48l.7-.14A.67.67,0,0,1,377.59,143.54Z" style="fill:#0b212e"/><path d="M387.52,133.62c-2.73-1.2-5.5-2.31-8.32-3.3-.79-.28-.45-1.56.35-1.28q3.13,1.11,6.19,2.39l-.27.33Z" style="fill:#0b212e"/><path d="M280.06,144.71a.58.58,0,0,1-.17-.06c-2.17-1.08-5.71-2.39-7.44-4.35a96.4,96.4,0,0,1-9.32,2.69c-.82.2-1.17-1.07-.35-1.27,3.16-.75,6.25-1.65,9.32-2.69a.47.47,0,0,1,.18-.16l.16-.08a.67.67,0,0,1,.91.23l.09.12a.54.54,0,0,1,.09.4,11.45,11.45,0,0,0,3.22,2.2l-.15.16Z" style="fill:#0b212e"/><path d="M278.23,140.12l-.89,1c-1.3-1.61-2.78-3.33-3.36-5.25a46.78,46.78,0,0,1-6.26-.2c-.84-.09-.85-1.41,0-1.32a47.82,47.82,0,0,0,6.77.19.66.66,0,0,1,.64.49C275.52,136.82,276.94,138.54,278.23,140.12Z" style="fill:#0b212e"/><path d="M291.91,180.33h-.12a.67.67,0,0,0-.66.66v.1a.57.57,0,0,0,.17.44,2.89,2.89,0,0,0-1.22,1.62c-.4.74-.81,1.48-1.22,2.22l-3.07,5.54q-3.06,5.54-6.13,11.08a.67.67,0,0,0,1.15.67q3.36-6.1,6.74-12.19l3.06-5.55c.66-1.19,1.82-2.55,2-3.94A.65.65,0,0,0,291.91,180.33Z" style="fill:#0b212e"/><path d="M365.66,205.05q-7.95-8.93-15.54-18.17c-.53-.66.4-1.6.94-.94q7.1,8.66,14.53,17Z" style="fill:#0b212e"/><path d="M365.84,209.9q-6.24-6.68-12.85-13c-.62-.59.32-1.52.93-.93q6.07,5.82,11.85,11.92Z" style="fill:#0b212e"/><path d="M342,202.11l-16.15.65c0-1.19,0-2.38,0-3.58l2.67-.41c2-.3,5.51-1.51,7.68-.9a.71.71,0,0,0,.39.37l.16.06a.66.66,0,0,0,.74-.3l.11-.19a.65.65,0,0,0-.24-.9c-1.58-.76-3.64-.22-5.31,0-2.07.28-4.13.62-6.19.94,0-3.16,0-6.32,0-9.48a.66.66,0,0,0-1.32,0l0,9.69-.22,0-6.37,1q-.21-4.27-.41-8.56c0-.84-1.36-.85-1.33,0l.42,8.77-10.32,1.58c-.84.13-.48,1.4.35,1.28l10-1.55.12,2.58a36,36,0,0,0-7.55,1.34c-.8.25-.46,1.52.36,1.27a34.9,34.9,0,0,1,7.25-1.3l.51,10.76-.16.12a.7.7,0,0,0,.23,1.25l.54,11.54a.64.64,0,0,0,.36.56l0-9.12.63,2.16q-.13-2.94-.28-5.87c1.7-1.24,3.38-2.5,5-3.81s2.07-2.18,2.07-4.48c0-1.17,0-2.34,0-3.5l16.15-.66C342.89,203.4,342.89,202.08,342,202.11Zm-24-1.72,2.81-.43,3.73-.57c0,1,0,2.05,0,3.07,0,.11,0,.23,0,.36h-.24c-2,.08-4.11.13-6.15.26C318.13,202.19,318.09,201.29,318,200.39Zm5.76,10a61.2,61.2,0,0,1-5.09,4c-.16-3.32-.32-6.63-.47-10,2.13-.13,4.27-.18,6.4-.25C324.76,206.32,324.89,209.42,323.8,210.38Z" style="fill:#0b212e"/><path d="M365.54,363.47a2,2,0,0,0-1.15.6l.18-.56a.67.67,0,0,0-.11-.8c-1.37-1.33-3-2.28-3.19-3.89q6-.21,11.93.09l-.09-1.33q-5.83-.29-11.67-.09v0a9.88,9.88,0,0,0,.44-3c3.68,0,7.36,0,11,0l-.08-1.33c-3.66,0-7.32,0-11,0,0-.91-.12-1.82-.16-2.67l-1-19.23c-.31-5.94-.56-11.89-1-17.83-.46-6.36-2.23-12.93-1.08-19.29a24.2,24.2,0,0,1,1.38-4.08l3.35-3.05c.63-.58-.3-1.51-.93-.93l-1.74,1.58c0-.08,0-.16,0-.24a19.72,19.72,0,0,0,.09-3.76c1-1.08,2.07-2.15,3.14-3.2.6-.59-.33-1.53-.94-.93-.79.77-1.57,1.55-2.33,2.35-.07-.78-.16-1.56-.24-2.34q-.94-9.82-2-19.63-2-19.64-4.3-39.23c-.09-.84-1.42-.85-1.32,0q2,17.64,3.89,35.3.89,8.5,1.73,17c.33,3.34.95,6.77,1,10.16a111.93,111.93,0,0,0-12.8,16.57c-.34.53.36,1.32.9.9,3.57-2.76,7-5.7,10.34-8.71-1.25,4.23-1.05,8.34-.48,12.81.74,5.84,1.16,11.69,1.46,17.57s.62,12,.92,17.94l.46,9c.07,1.32.18,2.65.2,4h-5.26a.66.66,0,0,0,0,1.32h5.23a11.41,11.41,0,0,1-.52,3.06l-1.07,0c-.85,0-.86,1.36,0,1.32l.53,0,0,.06a.69.69,0,0,0,.1.8l3.23,3.11c.53.51.07,1.77-.12,2.59-1.05.7-2.14,1.35-3.24,2-.59.34,6.42-2.62,7.21-2.59,1.89.08,3.62.75,5.44,1l-1.12-1.45A44.92,44.92,0,0,0,365.54,363.47Zm-15.4-66.55a110.46,110.46,0,0,1,9.35-11.79,18.77,18.77,0,0,1-.7,4.26C356,292,353.09,294.49,350.14,296.92Z" style="fill:#0b212e"/><path d="M320.32,364.62a88.49,88.49,0,0,0-12.92-4.18l-1.29-.36a17,17,0,0,0,1.66,2.29.67.67,0,0,1-.14,1c-.17.08-.32.17-.46.25l.93.46c2.09,1,5.88,3.76,8.2,3.47a.67.67,0,0,1,.64.84l0,.12a.67.67,0,0,1-.82.46l-.08,0a.16.16,0,0,1-.08-.05c-2.64,0-6.19-2.56-8.48-3.67l-1.34-.65c-.35.63-.14,1.41.13,2.81.16.83-1.11,1.18-1.27.35l-.68-3.54a.83.83,0,0,1,.06-.49c-1.45-.71-2.89-1.42-4.33-2.15l1.08-.93,4.58,2.27c.2-.11.41-.2.6-.31a20.54,20.54,0,0,1-2-3.1c-1.6-.5-3.25-1-4.91-1.44l-1-1.29,0-.29a53.32,53.32,0,0,1,5.2,1.41c-3-7.13-2.12-15.61-2.9-23.22-.74-7.08-2.14-14.05-3.17-21.09-.92-6.18-1-12.29-1.48-18.5a19.5,19.5,0,0,0-.66-3.66c-1-.33-2-.65-3-1q-2.52-.89-5.06-1.7h0l-.25-1.47q4,1.27,7.86,2.7c-.5-1.56-1.07-3.1-1.52-4.83-.08-.31-.15-.63-.21-1l-2.88-1.34-4.29-2-.26-1.56.52.23,5.87,2.76.75.35c-.31-2.05-.43-4.13-.63-6.2-.7-7.16-1.53-14.31-2.56-21.44q-2.89-20.28-7.44-40.28c-.19-.82,1.08-1.18,1.27-.35,2.93,12.9,5.39,25.92,7.27,39,.91,6.41,1.73,12.81,2.4,19.24.35,3.45.28,7.28,1.09,10.67l10.76,5.05c.68.32.19,1.45-.51,1.21l-.85-.29a.66.66,0,0,1-.33-.25l-8.59-4a54.58,54.58,0,0,1,2,5.69c3.23,1.17,7,2.2,9.68,4.33.67.53-.27,1.45-.93.93-2.24-1.78-5.44-2.95-8.53-4,.82,5.86.51,11.83,1.28,17.71.87,6.63,2.16,13.2,3.1,19.82.8,5.67.88,11.31,1.27,17,.29,4.14.85,8.27,2.6,11.93.86.26,1.7.51,2.53.74A88.87,88.87,0,0,1,321,363.48C321.76,363.82,321.09,365,320.32,364.62Z" style="fill:#0b212e"/><polygon points="266.25 195.79 270.16 196.38 282.82 184.92 266.25 195.79" style="fill:#0b212e"/><polygon points="360.29 182.21 373.04 195.17 369.83 196.49 360.29 182.21" style="fill:#0b212e"/><rect x="294.79" y="381.07" width="25.27" height="1.32" style="fill:#355f74"/><rect x="358.39" y="380.41" width="25.27" height="1.32" style="fill:#355f74"/><path d="M376.28,371.64a14.79,14.79,0,0,0-7.39,2c-.72.46-1.39-.68-.67-1.13a14.91,14.91,0,0,1,6.64-2.12C375.33,370.81,375.8,371.21,376.28,371.64Z" style="fill:#355f74"/><path d="M378.31,373.5a29.49,29.49,0,0,0-6.39,1.72c-.79.31-1.13-1-.35-1.28a31,31,0,0,1,5.53-1.57C377.51,372.74,377.92,373.12,378.31,373.5Z" style="fill:#355f74"/><path d="M307,373.64a10.93,10.93,0,0,0-6-1c.52-.47,1-.94,1.56-1.38a12.53,12.53,0,0,1,5.07,1.21C308.42,372.86,307.75,374,307,373.64Z" style="fill:#355f74"/><path d="M307.68,370.92a8.56,8.56,0,0,0-3.36-1.05,18.46,18.46,0,0,1,1.54-1.08h0a10.6,10.6,0,0,1,2.49,1A.66.66,0,0,1,307.68,370.92Z" style="fill:#355f74"/><polygon points="365.14 106.29 366.48 130.55 361.51 116.99 364 105.3 365.14 106.29" style="fill:#0b212e"/><polygon points="283.76 118.38 282 99.43 279.95 132.23 283.76 118.38" style="fill:#0b212e"/><polygon points="312.92 215.5 336.43 211.15 320.44 226.4 318.43 219.59 318.4 230.69 312.92 215.5" style="fill:#0b212e"/><polygon points="350.79 364.3 360.95 357.95 366.81 357.95 356.49 366.77 356.08 364.3 350.79 364.3" style="fill:#0b212e"/><polyline points="319.82 32.41 319.13 35.92 321.34 38.94 321.13 32.41 319.99 32.41" style="fill:#0b212e"/><polyline points="339.37 33.05 340.06 36.56 337.85 39.59 338.06 33.05 339.19 33.05" style="fill:#0b212e"/><path d="M145,82.61c.46.31-.93,6.19-.62,9s13.06,8.69,15.49,9.88l.27.12s19.51-11,20.13-11c.42,0,8.72-6.38,14.37-10.74l.48-.38c1.46-1.11,2.7-2.08,3.55-2.74l.49-.37.6-.46c1.23-.93-.31-2-1.71-2.32-.91-.19.59-3,1.9-5.33l.29-.52c.55-1,1-1.79,1.22-2.19.62-1.4-5.88-3.56-9-5.42-2.5-1.5-3.82-4.15-5.89-5.77-.17-.12-.34-.25-.51-.36a6.6,6.6,0,0,0-1.15-.6l-5.14,1.15h0l-.41.09-3.37-4.64-1.84.72h0L169.6,52.6h0l-2,.78s-1.77,2.63-2.24,3.24a1.53,1.53,0,0,1-.61.29,72.78,72.78,0,0,1-9.37,1.57c-.23,0-1.49,1.75-3.13,4.23l-.54.84c-.46.71-.95,1.46-1.44,2.24-.16.26-.32.52-.49.78-1.43,2.28-2.91,4.73-4.15,6.87l-.39.68c-1.49,2.63-2.54,4.69-2.54,5.24,0,1.83,1.81,2.92,2.3,3.24Z" style="fill:#b74f46"/><path d="M151.73,63.55c2.41-.65,4.84-1.16,7.27-1.75a10.16,10.16,0,0,0,6.36-4.53c.45-.67.87-1.35,1.29-2,.73-1.21,1.74-1.54,3-2,1.44-.53,2.94-1,4.33-1.66a5.66,5.66,0,0,0,1.62-1c.19-.17,1.25,1.22,1.37,1.36,1.18,1.41,2.28,2.88,3.32,4.39.22.33.76,0,.54-.31s-.65-.93-1-1.39h0a58.2,58.2,0,0,0-3.91-4.81.32.32,0,0,0-.44,0,6.72,6.72,0,0,1-1.27,1h0a23.28,23.28,0,0,1-4.62,1.83h0a18.4,18.4,0,0,0-1.81.7l-.15.08c-1.31.67-2,2.18-2.85,3.53a9.2,9.2,0,0,1-1.05,1.49c-2.1,2.31-4.64,2.72-7.54,3.35-1.31.29-2.61.61-3.91,1Z" style="fill:#0b212e"/><path d="M149.8,66.57l2.49-.68c3-.85,6-1.69,9-2.69a21.73,21.73,0,0,0,6.58-3.75l3.65-2.9c.71-.56,1-1,1.91-.5l1.81,1.07a.31.31,0,0,0,.31-.53L172.8,55a.32.32,0,0,0-.38.05c-2.21,1.75-4.37,3.62-6.68,5.24a24.54,24.54,0,0,1-7.35,3.18q-4,1.23-8,2.31l-.11,0C150.13,66.05,150,66.31,149.8,66.57Z" style="fill:#0b212e"/><path d="M145.26,74.12h0a83.54,83.54,0,0,0,11.91-2.63,14.37,14.37,0,0,0,4.73-1.92,12.29,12.29,0,0,0,2.74-3.18c.94-1.49,1.67-3,3.34-3.78l5.22-2.47c.36-.17,0-.7-.31-.53l-4.7,2.22a5.87,5.87,0,0,0-2.61,1.93c-1.8,2.68-3.1,5.36-6.39,6.44a81.16,81.16,0,0,1-10.08,2.64c-1.16.22-2.33.43-3.5.6Z" style="fill:#0b212e"/><path d="M181.22,58.88a14.65,14.65,0,0,0,5.42-4.47c-.17-.12-.34-.25-.51-.36a13.92,13.92,0,0,1-5.22,4.29C180.55,58.52,180.86,59.05,181.22,58.88Z" style="fill:#0b212e"/><path d="M185.16,60c1.14.34,2.27.66,3.43.93s2,.3,2.72,1.21a16.85,16.85,0,0,0,3.7,3.29,36.11,36.11,0,0,0,5,2.84l.29-.52a31.44,31.44,0,0,1-5.4-3.17,16.2,16.2,0,0,1-2.52-2.14c-.39-.44-.74-1.3-1.22-1.58a13.44,13.44,0,0,0-3-.67c-1-.24-1.9-.51-2.85-.78C185,59.33,184.79,59.93,185.16,60Z" style="fill:#0b212e"/><path d="M189.91,69.68a48.3,48.3,0,0,0,7,5.92c.59.41,1.19.81,1.8,1.19l.49-.37-.65-.45c-.9-.59-1.78-1.2-2.63-1.84a51.84,51.84,0,0,1-5.57-4.89A.31.31,0,0,0,189.91,69.68Z" style="fill:#0b212e"/><path d="M189.85,75a16.09,16.09,0,0,1,4.83,4.89l.48-.38a16.57,16.57,0,0,0-5-5C189.82,74.27,189.51,74.81,189.85,75Z" style="fill:#0b212e"/><path d="M144.42,91.63c.3,2.72,13.06,8.69,15.49,9.88l7-3.9,5-13.76-11.77-7.11L145,82.6h0C145.5,82.92,144.11,88.8,144.42,91.63Z" style="fill:#0b212e"/><path d="M116.35,164.9c0,.46,5.49,9.59,5.49,9.59s6.27.93,6.27,0S140.79,156,140.17,155.7s-9.69-40-9.82-40.59c0,.62-9.73,19.35-10.54,20.91l-.06.11,1.22,1.7.56.77-1.78,2.48S116.35,164.43,116.35,164.9Z" style="fill:#838383"/><polygon points="133.98 139.76 125.63 154.43 129.11 153.71 131.71 152.63 134.55 152.37 133.98 139.76" style="fill:#0b212e"/><polygon points="171.18 368.76 173.03 371.19 173.47 371.77 176.5 375.74 180.25 380.67 181.54 382.37 198.56 382.37 198.12 379.9 197.78 378.04 193.76 374.64 193.25 373.23 192.84 372.12 192.29 370.62 191.87 369.48 191.87 369.47 191.49 368.43 191.06 367.27 189.74 363.65 174.12 357.93 171.18 368.76" style="fill:#0b212e"/><path d="M215.31,221c0,.9,2.69,19.05,2.48,19.67s-1.23,5.36-1.23,5.36l-7,4.2-1.24-27.51Z" style="fill:#fa9778"/><path d="M207.92,246.56c2.55-.09,4.13-.88,4.21-3.68,0-1.36.06-2.71.06-4.06,0-2.21,1-3.55,2.05-5.49.38-.7,1.45-.08,1.07.62-.89,1.62-1.91,3-1.89,4.87s0,4.06-.11,6.09c-.07,2.33-3.64,2.83-5.39,2.88C207.13,247.82,207.13,246.58,207.92,246.56Z" style="fill:#0b212e"/><polygon points="215.31 220.97 216.29 228.46 208.63 230.09 208.3 222.69 215.31 220.97" style="fill:#f9f8ef"/><polygon points="215.46 222.32 208.35 223.62 208.77 226.82 215.46 222.32" style="fill:#0b212e"/><polygon points="207.3 223.83 217.8 221.9 201.5 170.31 207.3 223.83" style="fill:#838383"/><polyline points="204.68 180.37 210.62 199.16 206.91 221.66" style="fill:#0b212e"/><path d="M203.82,191.55a409.33,409.33,0,0,1,6.69,58.07c1.35,32.06.69,41.34.69,41.34l-3.61,10.52v3.4l-12,47.33L189.9,355l3.24,5.11-1.85,5.72s-7.89.77-11,0-10.21-4.79-10.06-5.41,2.94-9.28,2.94-9.28c1.55-.93,1.24-3.41,1.24-3.41L180,329.63a5.27,5.27,0,0,1-.62-1.55c0-.46,7.42-33.72,7.42-33.72s2.79-2,2.32-2.32-2.94-1.7-2.94-1.7l-24.9-98.79Z" style="fill:#838383"/><path d="M192.22,191.55,189,221l-4.64,6.11-13.15,86.77s.51,42,.37,42.4,3.19,5.39,3.19,5.39l-2.18,2s2,8,.91,8.1c-7.92.84-15.59,5.34-15.59,5.81s-7.43-60.95-7.43-60.95l-2.63-125.08Z" style="fill:#838383"/><path d="M184.1,228.16c-.63.25-1.26.49-1.89.76s-1.05-.89-.33-1.2c1.85-.77,3.71-1.48,5.6-2.13.31-1.8.63-3.61.94-5.41l-3.48,2.12a.58.58,0,0,1-.56.81l-.85-.05a.63.63,0,0,1-.32-1.16l3.22-2q.31-11.92.49-23.85a.62.62,0,0,1,1.24,0q-.16,11.55-.47,23.09l1-.62q2.11-12.12,4.24-24.23l-.73-2.21,3.63-4.83,3.68-.12L201,218.31l-7.19-21.52-3.66,20.92,5-3.07a.62.62,0,0,1,.63,1.07l-6,3.62-1,5.82q2.64-.87,5.32-1.58a.62.62,0,0,1,.33,1.19q-3,.78-5.89,1.76v.06c-.09.52-.63.55-1,.28-.69.24-1.38.5-2.07.76C182.65,238.22,179,262.79,179,262A178,178,0,0,1,184.1,228.16Z" style="fill:#0b212e"/><polygon points="183.25 233.68 185.15 224.57 195.93 224.29 183.25 233.68" style="fill:#0b212e"/><polygon points="201.22 225.01 200.96 233.99 209.6 234.91 209.39 232.38 201.22 225.01" style="fill:#0b212e"/><polygon points="181.28 200.53 180.31 234.81 148.93 244.09 148.73 226.46 181.28 200.53" style="fill:#0b212e"/><path d="M157.88,377.58l.13,3.09.06,1.24.12,2.63h24.44v-3.25l-9.16-9.52c-.48,0-.94,0-1.39,0h0C161.38,372.15,157.88,377.58,157.88,377.58Z" style="fill:#0b212e"/><path d="M130.35,115.1v0l17.47,76.41H201.5l-3.72-67.23-18.14-19,6.68-19.18L168.5,77.92l-5.78,17.32-5.84,3.59-4.48,2.74-1.68,1Z" style="fill:#f9f8ef"/><path d="M169.39,118.59q4.73-8.2,8.87-16.71c.35-.72,1.41-.09,1.07.62l-.33.66c.08.07.59,2.07.64,2.19,4.15,4,3.74,6.75,6.79,10.52.5.62-.13,2.12-.63,1.5a53.83,53.83,0,0,1-7.48-12.85c-2.47,5-5.31,10-8.09,14.77C169.83,120,169,119.28,169.39,118.59Z" style="fill:#0b212e"/><polygon points="185.4 115.95 198.4 188.67 200.96 188.67 199.64 143.9 185.4 115.95" style="fill:#0b212e"/><polygon points="201.5 187.17 177.37 187.94 176.28 197.07 201.5 195.52 201.5 187.17" style="fill:#0b212e"/><polygon points="197.68 187.29 197.4 195.77 185.31 196.52 184.9 187.7 197.68 187.29" style="fill:#f5cb99"/><polygon points="177.91 104.31 174.52 111.74 177.91 114.63 185.26 185.24 192.22 192.12 197.4 185.24 180.38 115.09 182.35 112.46 179.64 105.35 177.91 104.31" style="fill:#b74f46"/><polygon points="179.64 105.35 162.72 95.24 168.5 77.92 186.32 86.17 179.64 105.35" style="fill:#fa9778"/><path d="M130.35,115.1v0c.26,1.39,8.45,46.08,8.45,70.6v46.65h39.8s2.19-19.31,3.16-40.84c.79-17.58.77-36.63-1.92-47.84-6-25-22.7-45-23-44.88l-4.48,2.74-1.68,1Z" style="fill:#838383"/><path d="M149,107.33c2,.88,5.79,1.73,4.88,4.37-.52,1.47-1,4.45-2,5.8a.07.07,0,0,0-.06,0l-.08,0a.64.64,0,0,0-.22.85l0,.1a.61.61,0,0,0,1,.12c.84-.85,1.06-2.43,1.45-3.53q.9-2.55,1.79-5.11a.65.65,0,0,0-.29-.7,59.46,59.46,0,0,0-5.31-2.77,27.93,27.93,0,0,0,2.19-4.94l-1.68,1a27.24,27.24,0,0,1-1.91,3.87A.63.63,0,0,0,149,107.33Z" style="fill:#0b212e"/><path d="M179.64,105.35c.76.8,9.5,15.22,14.78,35.7.27,1,.52,2,.77,3.1a121.91,121.91,0,0,1,3,20c2.06,32,3.3,68.27,3.3,68.27s7.89,0,7.89,0S202.73,159,202.73,159l-1.23-39.19-6.44-4.25-1.56-1Z" style="fill:#838383"/><polygon points="165.92 112.46 130.35 118.96 135.6 175.34 175.51 170.31 165.92 112.46" style="fill:#41515e"/><polygon points="165.92 112.46 161.28 113.31 170.02 171 175.51 170.31 165.92 112.46" style="fill:#5c7285"/><polygon points="173.28 156.83 162.62 163.5 162.41 157.66 173.28 156.83" style="fill:#0b212e"/><polygon points="128.8 152.78 160.18 146.72 164.68 166.68 128.1 174.49 124.16 158.25 128.8 152.78" style="fill:#838383"/><path d="M158.6,75.65A11.59,11.59,0,0,0,160.18,80,5.69,5.69,0,0,0,163.76,82s1.13,5.26,3.6,8.66,9.39,6.91,11.76,6.91,10.93-2.89,10.93-2.89l2-8-1.76-4.53s0-.09.05-.25c.24-1.41,1.38-8.66.51-13.87a12.93,12.93,0,0,0-.36-1.65A10.58,10.58,0,0,0,190,65c-2.48-5.26-6-10.93-16.81-8.41l-4.6,12.53-3.13,2.61-2.27,1.88v2S158.5,75.23,158.6,75.65Z" style="fill:#fa9778"/><path d="M187.65,67.5a3.19,3.19,0,0,1,2.07,0,4,4,0,0,1,1.09.58,12.93,12.93,0,0,0-.36-1.65,5,5,0,0,0-3.13-.07C186.57,66.57,186.89,67.77,187.65,67.5Z" style="fill:#b74f46"/><path d="M183,76.72a4.34,4.34,0,0,0,3-.17c.79-.36.42-1.88.38-2.55s1.19-.79,1.24,0c.06,1.1.39,2.77-.76,3.47a5.36,5.36,0,0,1-4.2.45A.62.62,0,0,1,183,76.72Z" style="fill:#0b212e"/><path d="M162,73.4a14.63,14.63,0,0,0,1.14,2.25,4.48,4.48,0,0,1,.2.44,4.11,4.11,0,0,1,.19.65,20,20,0,0,1,.23,5.3h0v0a0,0,0,0,1,0,0,30.49,30.49,0,0,0,2.45,6.75l0,0a16.73,16.73,0,0,0,1.12,1.82c2.48,3.41,9.39,6.91,11.76,6.91s10.93-2.89,10.93-2.89l2-8-1-2.89-.68-1.89a2.76,2.76,0,0,0-2.41-1.55,14.84,14.84,0,0,1-2.91-.17s-3.13-1.85-4.78-1.64a9.11,9.11,0,0,0-3.61,1.8,14.12,14.12,0,0,1-1.42,0c-.41,0-.87-.08-1.37-.16h0l-.62-.12a10.94,10.94,0,0,1-1.33-.36l-.59-.23a6.53,6.53,0,0,1-1.63-1l-.1-.1a4.57,4.57,0,0,1-.44-.44,19.55,19.55,0,0,1-2.62-4l-.3-.57c-.28-.57-.54-1.11-.75-1.58-.45-1-.73-1.68-.73-1.68l-2,1.24Z" style="fill:#b74f46"/><path d="M189.57,83.85l-.53,6s-3.7,0-6.81-.26a26.06,26.06,0,0,1-6.92-2l1.9-6.25,7.77-.57Z" style="fill:#fa9778"/><path d="M187.72,82.35l-.5,2s-1.52.67-4.78,0a10.1,10.1,0,0,1-5.23-3l7.76-.81Z" style="fill:#fff"/><path d="M175.66,65.58a5.45,5.45,0,0,1,2.7-1.24,5.11,5.11,0,0,1,1.61,0,6.44,6.44,0,0,1,1,.29c.15,0,1.07.46,1.16.73v0a.61.61,0,0,1-.59.78h-.09l-.14,0a18,18,0,0,0-1.92-.63,4,4,0,0,0-2.9.94C175.92,67,175,66.08,175.66,65.58Z" style="fill:#b74f46"/><path d="M178.23,69.55c-.44,1-.27,2.08.4,2.37s1.57-.3,2-1.31.27-2.08-.4-2.37S178.67,68.54,178.23,69.55Z" style="fill:#0b212e"/><path d="M187.94,71.51c-.4.93-.24,1.9.37,2.17s1.43-.27,1.84-1.2.24-1.9-.37-2.17S188.35,70.59,187.94,71.51Z" style="fill:#0b212e"/><path d="M175.17,80.32A5.05,5.05,0,0,0,178.6,82c2.75,0,6.12-.89,6.38-1.2s.39,2,2.94,3.06a3.29,3.29,0,0,0,3.06-.06l-.68-1.89a2.76,2.76,0,0,0-2.41-1.55,14.84,14.84,0,0,1-2.91-.17s-3.13-1.85-4.78-1.64a9.11,9.11,0,0,0-3.61,1.8A14.12,14.12,0,0,1,175.17,80.32Z" style="fill:#0b212e"/><path d="M163.76,82v0a0,0,0,0,1,0,0,27.24,27.24,0,0,0,1.61,6.31l.86.47a23.14,23.14,0,0,0,3.51,6.3c2.9,3,12.3,3.23,12.3,3.23l4.84-1.07,3.16-2.62-2.82-.94-.66-6.88-5.3-.65-2.67,6.16s-5.87-1.87-8.38-3.92l-.41-.34c1.33-2.66,2.66-5.33,4-8l-.62-.12-3.84,7.69c-.51-.46-1.05-1-1.58-1.5.7-.92,1.26-2.17,1.8-3l2.29-3.54-.59-.23c-.63,1-1.26,2-1.9,2.94L168,84.45c-.22.34-.47.86-.74,1.3-.8-.79-1.55-1.58-2.16-2.23a67.74,67.74,0,0,0,4.4-5.18,4.57,4.57,0,0,1-.44-.44,66.69,66.69,0,0,1-4.38,5.17l-.94-1Z" style="fill:#0b212e"/><path d="M163.34,76.09a4.11,4.11,0,0,1,.19.65,39.08,39.08,0,0,0,2.93-2.83l-.3-.57C165.25,74.27,164.33,75.25,163.34,76.09Z" style="fill:#0b212e"/><polygon points="168.54 69.15 163.14 75.65 158.6 75.65 170.63 63.47 168.54 69.15" style="fill:#0b212e"/><path d="M194.42,141.05c.27,1,.52,2,.77,3.1,1.59-9.51,2.24-19.25-.13-28.62l-1.56-1C196,123.17,195.71,132.17,194.42,141.05Z" style="fill:#0b212e"/><path d="M121.65,163.05l3.5-5c.74-1,1.65-2.11,2.32-3.26l-1.84.58-1.26.39c-.16.06-.88.19-1.27.3a.53.53,0,0,1-.3.38l-.09,0a.63.63,0,0,1-.84-.22l-.08-.09a.62.62,0,0,1,0-.63c.48-.65,1.53-.74,2.25-1l3.77-1.18a.52.52,0,0,1,.3,0,6.24,6.24,0,0,0,.22-.85.6.6,0,0,1,.59-.45c5.59-.27,26.46-5,31.71-5.52.79-.08.78,1.16,0,1.24-7.81.83-15,3.48-22.73,4.77-1.8.29-7.84-.19-8.6,1.4-1.46,3.06-3.79,5.85-5.84,8.62a.49.49,0,0,1-.17.58l-.67.58C122.11,164.22,121.21,163.66,121.65,163.05Z" style="fill:#0b212e"/><path d="M119.75,136.13l1.22,1.7,9.18,3.75c.75.3,1.06-.89.34-1.2L119.81,136Z" style="fill:#0b212e"/><path d="M170,137.08l.5,3-4.58-.24s-1.24-9.74-3.63-10.52-2.25,2.49-1.94,3.68,1.24,5.68.93,7.54-1.1,6.18-1.1,6.18L163,159.17s4.94-1,8.35-1.77,5.49-2.32,5.49-2.63.15-6.27,0-8.12-.85-4.88-.93-6.11a2.9,2.9,0,0,0-1.38-2.32C173.89,137.75,170,137.08,170,137.08Z" style="fill:#fa9778"/><path d="M180.38,357.14l.22-.32a.62.62,0,0,1,.7-.25q4.29-2.13,8.69-4a34.27,34.27,0,0,0,.93-3.42q1-3.57,2-7.13l3.91-14.27q4.08-14.86,8.15-29.73a52.25,52.25,0,0,0,1.92-13.89c0-4.86,0-9.73-.14-14.59-.24-10.12-.84-20.24-1.73-30.32-.07-.8,1.17-.79,1.24,0Q207.67,255.57,208,272q.17,7.81.05,15.63c-.07,4.95-1.61,9.57-2.9,14.31Q200.75,318,196.35,334l-4.23,15.46c-.21.76-.41,1.63-.67,2.48.86-.35,1.71-.7,2.58-1s1.06.91.33,1.19c-1.17.46-2.32.93-3.47,1.41a4.77,4.77,0,0,1-2.41,2.67l.13.17.46-.19c.74-.31,1.06.89.33,1.19l0,0a4.35,4.35,0,0,1,.95,2c0,1.66-1.61,4.19-2.23,5.74-.29.74-1.49.42-1.19-.32q.88-2.23,1.76-4.47a2.82,2.82,0,0,0-.52-2.47l-6.19,2.57c-.74.31-1.06-.89-.33-1.19l5.82-2.42-.48-.69a.63.63,0,0,1,.37-.91,2.91,2.91,0,0,0,1.63-.89c-2.61,1.13-5.18,2.33-7.73,3.62C180.71,358.24,180,357.69,180.38,357.14Z" style="fill:#0b212e"/><path d="M159.08,315.3a63.66,63.66,0,0,0,10.63-5.73c.67-.44,1.29.63.63,1.07a65.21,65.21,0,0,1-10.63,5.73C159,316.68,158.35,315.61,159.08,315.3Z" style="fill:#0b212e"/><path d="M198,301.26q5.46-5.28,10.9-10.6c.57-.56,1.45.32.88.87q-3.76,3.69-7.54,7.35c-.65.63-7.07,6.66-7.15,6.51.37.7-.69,1.33-1.07.62C193.28,304.57,197.21,302.06,198,301.26Z" style="fill:#0b212e"/><path d="M156.17,314.17q6.74-5,13.58-9.89c1.18-6.58,1.07-13.47,1.34-20.12.43-10.24.61-20.49.62-30.74a.62.62,0,0,1,1.23,0q0,16.61-.71,33.2c-.22,5.17-.45,10.35-.87,15.52,0,.35-.07.71-.11,1.06l.6-.42c.66-.47,1.27.61.63,1.06-.49.35-1,.7-1.45,1a35.38,35.38,0,0,1-.78,3.79c-.75,2.85-2.39,5.24-2.69,8.24-.53,5.18-.05,10.65-.05,15.86q0,8.64,0,17.29v7.41a3.24,3.24,0,0,0,.87,2.4l3.43-1.06a13,13,0,0,1-1-1.23c-.44-.66.63-1.28,1.07-.62a11.15,11.15,0,0,0,2.8,2.89.65.65,0,0,1,.22.85,10,10,0,0,0-1.27,4.09c-.07.79-1.3.8-1.24,0a13.52,13.52,0,0,1,.26-1.59l-1.38.76a2.11,2.11,0,0,1-.42,1.41c-1,1.34-.44,2.72-.35,4.37,0,.8-1.2.79-1.24,0a19.51,19.51,0,0,0-.54-3.73.63.63,0,0,1,.29-.7v-.13l-2.33,1.26c-1.49.81-3.52,2.46-5.2,2.72a.63.63,0,0,1-.76-.43l0-.1a.63.63,0,0,1,.29-.7l.07,0a.64.64,0,0,1,.5,0,16.52,16.52,0,0,0,2.09-1.17l3.23-1.75,2.13-1.15V362c-.35-.23-.69-.48-1-.74l-8.18,2.53a.63.63,0,0,1-.6-1l.26-.3a.51.51,0,0,1,.73-.08l6.73-2.08a5.51,5.51,0,0,1-.41-.79c-.6-1.24-.25-3.22-.25-4.52V325.36c0-4.35-.51-8.85,1.18-12.94a37.75,37.75,0,0,0,2-6.37c-4.23,3-8.44,6.07-12.6,9.19C156.16,315.72,155.54,314.65,156.17,314.17ZM171,362.59l0,.1,1.53-.82a.54.54,0,0,1,.52,0,12.89,12.89,0,0,1,.54-1.28q-.47-.37-.9-.78a.38.38,0,0,1-.15.09l-3,.94A3.82,3.82,0,0,1,171,362.59Z" style="fill:#0b212e"/><path d="M158,380.67l.06,1.24h23.7v.46q0,.81,0,1.62a.63.63,0,0,0-.17.55h1.06v-2.17H183q0-.74,0-1.47a.62.62,0,0,0-.77-.58l-.35-.42h16.25l-.22-1.24H180.82a76.36,76.36,0,0,0-7.35-6.89c-.24.06-1.16-.06-1.39,0h0a11.39,11.39,0,0,0-1.18.45c-.72.33-.09,1.39.62,1.07a9.39,9.39,0,0,1,2-.63l.2.2-1.06.31c-.75.24-.43,1.43.33,1.19.58-.18,1.17-.34,1.76-.47l.72.72c-.34.07-.68.16-1,.26-.76.25-.44,1.45.32,1.19a7.82,7.82,0,0,1,1.72-.34h0q2.27,2.4,4.4,4.93Z" style="fill:#2e576b"/><path d="M189.44,373.59a9,9,0,0,0,3.31-.21l.5-.15-.41-1.11c-.42.1-.85.17-1.11.21a8.77,8.77,0,0,1-2.29,0C188.65,372.27,188.65,373.5,189.44,373.59Z" style="fill:#2e576b"/><path d="M189,371.53a14.16,14.16,0,0,0,3.33-.91l-.42-1.14a11.89,11.89,0,0,1-2.91.81C188.17,370.36,188.16,371.6,189,371.53Z" style="fill:#2e576b"/><path d="M186.89,369.74a23,23,0,0,0,4.6-1.31l-.42-1.16a21.9,21.9,0,0,1-4.51,1.27C185.78,368.68,186.11,369.87,186.89,369.74Z" style="fill:#2e576b"/><line x1="206.91" y1="221.66" x2="204.67" y2="180.37" style="fill:#0b212e"/><path d="M138.8,191q9-1.11,18.13-1.77a17.39,17.39,0,0,1-.31,3.67c-.24,1.15-2.48.74-3.21.76-2,.06-4,.13-5.93.24q-4.35.24-8.68.61v1.24q9.07-.78,18.17-.92a.63.63,0,0,0,.61-.46,26.52,26.52,0,0,0,.58-6,.62.62,0,0,0-1.07-.41q-9.18.66-18.29,1.78Z" style="fill:#0b212e"/><polygon points="169.07 171.12 138.8 185.74 138.4 174.9 169.07 171.12" style="fill:#0b212e"/><path d="M37.37,123.08S49.29,119.54,47.81,108s-7.48-23.93-6.2-29a13.16,13.16,0,0,1,4.92-7.49L46,62.82A11.53,11.53,0,0,0,32.3,59.47C23.49,62.92,20.56,74,20.19,83.4,19.45,102.5,37.37,123.08,37.37,123.08Z" style="fill:#424447"/><path d="M26.22,100c8.84-7.43,1.41-21.51,4-31.14a9.3,9.3,0,0,1,15.42-4.2c.54.54-.3,1.37-.84.84-3.84-3.81-9.42-2.74-12.4,1.47-2.65,3.75-1.55,9.9-1.21,14.19.53,6.8,1.79,14.74-4.08,19.68C26.48,101.33,25.64,100.5,26.22,100Z" style="fill:#0b212e"/><path d="M30,99.52A23.89,23.89,0,0,0,34,87.11c.15-3.65-.12-7.23.61-10.83,1.06-5.22,6-9.93,11.49-7.73.7.28.4,1.42-.31,1.14-3.62-1.45-6.81.43-8.76,3.55s-1.84,7.14-1.83,10.65c0,6.1-.93,11-4.27,16.23C30.55,100.76,29.53,100.17,30,99.52Z" style="fill:#0b212e"/><path d="M75.43,137.12l3.87,13.2.35,1.2.44,1.49.33,1.12L84,166.36s10.49-3.69,10.19-10.55a60.53,60.53,0,0,0-1.68-8.68c-.08-.39-.18-.78-.28-1.18l-.78-3.15c-.11-.41-.22-.82-.32-1.23-1.1-4.24-2.38-8.94-3.64-13.49-.12-.41-.23-.81-.34-1.22-.3-1-.59-2.1-.88-3.12l-.36-1.28c-2.61-9.18-4.82-16.61-4.82-16.61Z" style="fill:#2e576b"/><path d="M79.3,150.32l.35,1.2c4-2.83,7.92-5.73,11.8-8.72-.11-.41-.22-.82-.32-1.23Q85.31,146.07,79.3,150.32Z" style="fill:#0b212e"/><path d="M80.09,153l.33,1.12c1.91-1,3.56-2.5,5.41-3.59a51.85,51.85,0,0,1,6.68-3.41c-.08-.39-.18-.78-.28-1.18A43.14,43.14,0,0,0,87,148.49C84.69,149.8,82.49,151.81,80.09,153Z" style="fill:#0b212e"/><path d="M24,287.77v.34c0,7.05.2,18.35,1,23.56,1.18,7.87,8.87,26.78,8.87,26.78s.93,4.13,1.35,7.07l0,.22a10.33,10.33,0,0,1-.47,3.42c-1,3.87-3.25,9.51-4.26,14.11A23.88,23.88,0,0,0,30,367c-.23,4.34.75,8.19,1.86,10.09a6.86,6.86,0,0,0,.41.6c1.58,2,6.5,3.2,6.5,3.2s.16-.11.41-.31a18.52,18.52,0,0,0,5.3-6.43,11.61,11.61,0,0,0,.62-2.24c.9-4.8.76-13,.76-13.52s1.78-10.24.79-14.18a5.79,5.79,0,0,0-.19-.63,10,10,0,0,0-1.74-3.12v0c-1.13-1.42-2.27-2.43-2.39-3.71-.2-2.17.19-15.17,1.37-27.18a35.25,35.25,0,0,0,.16-4.66c-.31-9.68-4.4-16.72-5.08-17.4l-7.68-2.83L24,282S24,284.34,24,287.77Z" style="fill:#fa9778"/><polygon points="45.08 345.38 32.74 371.79 38.75 380.84 42.57 374.94 45.08 345.38" style="fill:#995647"/><path d="M34.74,349.16a8.07,8.07,0,0,0,6.94-.81,15.51,15.51,0,0,0,4.76-4.82,10,10,0,0,0-1.74-3.12c-1.76,1.94-4.32,4.52-6,5.06a7.42,7.42,0,0,1-3.54,0l0,.22A10.33,10.33,0,0,1,34.74,349.16Z" style="fill:#0b212e"/><path d="M31.84,377a6.86,6.86,0,0,0,.41.6c1.58,2,6.5,3.2,6.5,3.2s.16-.11.41-.31a18.52,18.52,0,0,0,5.3-6.43,11.61,11.61,0,0,0,.62-2.24,8.49,8.49,0,0,1-6.62.56c-3-1-6.58-3.95-8.48-5.47C29.75,371.29,30.73,375.14,31.84,377Z" style="fill:#0b212e"/><path d="M31.84,377a6.86,6.86,0,0,0,.41.6c1.58,2,6.5,3.2,6.5,3.2s.16-.11.41-.31a6.22,6.22,0,0,0-2.8-3.6C35,376.28,33.07,376.66,31.84,377Z" style="fill:#fa9778"/><path d="M38.1,375.73a27.69,27.69,0,0,0,1,4.67l0,.13c.66,2.21,1.37,4,1.37,4h12a14.15,14.15,0,0,0,3-4.14,5.65,5.65,0,0,0,.36-4.14c-.19-.54-.39-1.29-.6-2.18-1.29-5.56-2.75-16.57-2.75-16.57v0a6.33,6.33,0,0,0,1.06-2.08,3.83,3.83,0,0,0,.11-1.79,28.8,28.8,0,0,1-.2-5.52s6.89-13,9.65-32.5c1.63-11.5,1.34-19.58.82-24.26a31.61,31.61,0,0,0-.82-4.88l-9,1.51-2.67.45a126.21,126.21,0,0,0-4.66,16.18A77,77,0,0,0,45.45,314c-.61,7.29-.62,18.05-.76,26.36a107.6,107.6,0,0,1-.5,10.77c0,.26-.08.49-.12.68-.2.89-.53,2.2-.94,3.74-1.6,6-4.34,15.57-5,17.93A6.36,6.36,0,0,0,38.1,375.73Z" style="fill:#fa9778"/><path d="M51.55,288.42a126.21,126.21,0,0,0-4.66,16.18L64,291.34,54.22,288Z" style="fill:#0b212e"/><path d="M23.72,287.89l.26.22,19.85,16.73c-.31-9.68-4.4-16.72-5.08-17.4l-7.68-2.83L24,287.77Z" style="fill:#0b212e"/><path d="M43.13,355.58a19.52,19.52,0,0,1,5.71-.36,5.49,5.49,0,0,1,3.7,2.29v0a6.33,6.33,0,0,0,1.06-2.08,11.13,11.13,0,0,0-5-3.81,9.54,9.54,0,0,0-4.44-.44c0,.26-.08.49-.12.68C43.87,352.73,43.54,354,43.13,355.58Z" style="fill:#0b212e"/><path d="M39.13,380.4c.66,2.27,1.4,4.14,1.4,4.14h12a14.15,14.15,0,0,0,3-4.14Z" style="fill:#2e576b"/><path d="M38.1,375.73a27.69,27.69,0,0,0,1,4.67h16.4a5.65,5.65,0,0,0,.36-4.14c-.19-.54-.39-1.29-.6-2.18-1.09-.83-3-1.66-6.52-1.66A20.12,20.12,0,0,0,38.1,375.73Z" style="fill:#0b212e"/><path d="M56,379.06c.05-.22.36-1.58-4.22-1.58s-9.19,2.92-9.19,2.92h13Z" style="fill:#fa9778"/><path d="M13.15,206.69c-4.73,15.56-2.37,29.35,0,43.33s5.71,36.44,5.71,36.44,19.5,6.1,29.51,6.49S64,291.34,64,291.34,77.55,237.81,76.17,215A229.52,229.52,0,0,0,73,188.4c-.17-1-.35-2-.52-3-.5-2.75-1-5.29-1.36-7.66a81.54,81.54,0,0,1-1-8.68c-.59-10.65,4.13-17.32,8.66-34.85s2.36-28.36,2.36-28.36-4.35-2.29-8-4.16l-1.55-.8-1.49-.75A20.46,20.46,0,0,1,64.69,96a13.6,13.6,0,0,1-3.29-5.1,4.86,4.86,0,0,1-.19-.82,7.06,7.06,0,0,1-.1-1h0c-.12-3.78,1.72-9.11,2.26-10.37L47.81,70S47.22,82.42,46,87.73c-.16.72-.92,1.43-2.13,2.11a33.39,33.39,0,0,1-6.51,2.49c-1.4.41-2.9.8-4.45,1.18-1.72.41-3.5.8-5.26,1.17-8.72,1.78-17.24,2.9-17.24,2.9S22.21,141.5,22,159.42a122.54,122.54,0,0,1-1.8,19.65l-.36,2h0q-.45,2.34-1,4.65C17.33,192.75,15.32,199.54,13.15,206.69Z" style="fill:#393a3d"/><path d="M18.89,185.76a94.16,94.16,0,0,0,11-6.66c8.67-5.9,9.52-14.25,9.52-14.25L20.21,179.07Z" style="fill:#0b212e"/><path d="M61.7,176.75c3.23,5,8.53,9.5,11.29,11.65-.17-1-.35-2-.52-3-.5-2.75-1-5.29-1.36-7.66L57.26,161.49A30.62,30.62,0,0,0,61.7,176.75Z" style="fill:#0b212e"/><path d="M32.92,93.51,42,110.71l19.59,4,10.55-8.83,1-4.16-1.55-.8-1.49-.75A20.46,20.46,0,0,1,64.69,96a13.6,13.6,0,0,1-3.29-5.1,4.86,4.86,0,0,1-.19-.82,7.06,7.06,0,0,1-.1-1h0c-.12-3.78,1.72-9.11,2.26-10.37L47.81,70S47.22,82.42,46,87.73c-.16.72-.92,1.43-2.13,2.11a33.39,33.39,0,0,1-6.51,2.49C36,92.74,34.47,93.13,32.92,93.51Z" style="fill:#fa9778"/><polygon points="49.74 74.5 61.13 89.41 62.14 81.52 49.74 74.5" style="fill:#0b212e"/><path d="M2.17,157.23l18-15.59s-5.51-38.4-9.77-44.06c0,0-2.18,8.61-4.51,18.44-.09.39-.19.77-.27,1.16-.32,1.31-.62,2.64-.93,4l-.27,1.15c-.88,3.86-1.73,7.65-2.43,11-.06.33-.13.66-.2,1-.73,3.61-1.26,6.57-1.42,8.32A34.06,34.06,0,0,0,2.17,157.23Z" style="fill:#2e576b"/><path d="M5.64,117.18A44.65,44.65,0,0,1,12,120.27a.6.6,0,0,0,.6-1A48.6,48.6,0,0,0,5.91,116C5.82,116.41,5.72,116.79,5.64,117.18Z" style="fill:#0b212e"/><path d="M4.44,122.29c2.64.27,5.28.55,7.92.81.76.08.75-1.1,0-1.18l-7.65-.78Z" style="fill:#0b212e"/><path d="M1.81,134.26c4.46,1.29,11.91,3,12.92,3.43.71.28,1-.86.31-1.13a56.74,56.74,0,0,0-9.95-2.63c-1-.2-2-.4-3.08-.65C2,133.61,1.88,133.94,1.81,134.26Z" style="fill:#0b212e"/><path d="M27.66,94.68l6.86,71H61l10.56-64.84-1.49-.75A20.46,20.46,0,0,1,64.69,96c.07,3.84-.55,11-5.65,12.88-7.09,2.66-13.2-3-17.33-7.68-2-2.26-3.4-5.81-4.34-8.89C34.43,93.19,31,94,27.66,94.68Z" style="fill:#f9f8ef"/><path d="M57.56,163.85C59,173.22,68.7,182.22,72.47,185.4a139.58,139.58,0,0,1-2.4-16.34c-.59-10.65,4.13-17.32,8.66-34.85s2.36-28.36,2.36-28.36-4.87-2.56-8.61-4.49c-.32-.16-.63-.31-.92-.47l-.48-.24-1-.51A20.46,20.46,0,0,1,64.69,96a13.6,13.6,0,0,1-3.29-5.1c1,6.37,3.88,27.15,2.51,35.86-.61,3.89-1.91,8.43-3.2,13.23-.13.5-.27,1-.4,1.52C58.32,149.05,56.53,157,57.56,163.85Z" style="fill:#2e576b"/><path d="M22,159.42a123.62,123.62,0,0,1-2.16,21.69c18-4.47,21.53-15.34,23.82-39.12.13-1.35.25-2.72.35-4.09,0-.48.07-1,.1-1.43,1.27-18.66.22-39.15-.24-46.63a33.39,33.39,0,0,1-6.51,2.49l-1.82.51-1.31.34c-2.11.53-4.36,1-6.58,1.5-8.72,1.78-17.24,2.9-17.24,2.9S22.21,141.5,22,159.42Z" style="fill:#2e576b"/><path d="M44,137.9c0-.48.07-1,.1-1.43-9.8-6.77-11.81-21.72-10.25-34.71q3.42-.29,6.85-.45c.76,0,.76-1.23,0-1.19-2.24.12-4.47.26-6.7.44a64.3,64.3,0,0,1,1.53-7.72l-1.31.34C30.46,108.2,31.11,129.53,44,137.9Z" style="fill:#0b212e"/><path d="M56.9,154.16S67.06,166.05,79.79,171a33.34,33.34,0,0,0,4.72,1.45c14.85,3.32,9.58-17.65,9.58-17.65s-4.43-.27-9.51-.83c-1.44-.17-2.93-.35-4.38-.56-6.6-.94-21.51-5.23-21.51-5.23Z" style="fill:#2e576b"/><polygon points="35.99 96.1 7.73 102.41 15.9 158.93 43.67 155.19 35.99 96.1" style="fill:#b74f46"/><polygon points="35.99 96.1 43.67 155.19 39.11 155.8 31.07 97.2 35.99 96.1" style="fill:#8c3e35"/><path d="M3.5,162.67c1.6,1.61,5.43-1.11,9.65-5.23,7.41-7.24,16-18.8,16-18.8l-5-10s-4.93,8-10.15,11.32c-1.59,1-3.5,2.13-5.38,3.18C4.4,145.5.29,147.61.29,147.61S-.93,158.24,3.5,162.67Z" style="fill:#2e576b"/><path d="M3.14,146.32a1,1,0,0,1,.38-.2l.76-.57c.52-.39,3.35-1.68,4.37-2.45.62-.45,1.44-.42.84,0l-4.23,3.15C4.67,146.72,2.67,146.08,3.14,146.32Z" style="fill:#0b212e"/><path d="M56.9,154.16S67.06,166.05,79.79,171c2.81-.78,5.74-2.86,7.12-7.83s-.19-7.63-2.33-9.2c-1.44-.17-2.93-.35-4.38-.56-6.6-.94-21.51-5.23-21.51-5.23Z" style="fill:#fa9778"/><path d="M7.73,149.18a12.1,12.1,0,0,0,5.42,8.26c7.41-7.24,16-18.8,16-18.8l-5-10s-4.93,8-10.15,11.32c-1.59,1-3.5,2.13-5.38,3.18A10.78,10.78,0,0,0,7.73,149.18Z" style="fill:#fa9778"/><path d="M32.3,153.37c0,1.29,1.31,1.59,1.84,1.64a1.22,1.22,0,0,0,.23,0s0,.2.09.48c.1.59.29,1.53.35,1.71s.06.07.13.09a8.36,8.36,0,0,0,1.84.12l0,.25a4.46,4.46,0,0,0,.55,1.58c.39.55,5.9.74,8.63.64s11.92-4.61,11.92-4.61l.76-7.15S50,144,48.74,143.52A15.75,15.75,0,0,0,39.1,145c-3.11,1.88-4.29,2.73-4.39,3.16a13.88,13.88,0,0,0,0,2c0,.24,0,.4,0,.4a8,8,0,0,0-1,.63h0A3.2,3.2,0,0,0,32.3,153.37Z" style="fill:#fa9778"/><path d="M24.18,128.6l5,10s7.09,1,8.18.59,4.77-3.89,4.63-4.82a4.25,4.25,0,0,0-1.22-1.83c-.21-.21-.36-.34-.36-.34l.22-.39h0a6.21,6.21,0,0,0,.81-2.22,2.42,2.42,0,0,0-.17-1,1.46,1.46,0,0,0-.17-.31,5.06,5.06,0,0,0,.32-.61h0a2.71,2.71,0,0,0,.27-1.27,4.71,4.71,0,0,0-.68-1.65l-.11-.17s.39-.44.88-.94a.73.73,0,0,0,.21-.55h0a2.41,2.41,0,0,0-.75-1.45c-.34-.35-1.61-.36-2.49-.32h0c-.49,0-.85.07-.85.07a4.09,4.09,0,0,0-.12-.41,4.71,4.71,0,0,0-.41-1c-.3-.44-5.33-.64-6.07-.49a15.6,15.6,0,0,0-5,4A46.85,46.85,0,0,0,24.18,128.6Z" style="fill:#fa9778"/><path d="M42.88,62.82c-.05.11-.83,1.59.4,4.62s2.27,7,5.61,5.52a22.06,22.06,0,0,0,4.43,6c3.06,3,13.69,7.58,18.83,1C75,76.24,75.83,67,75.57,60c0-.64,0-1.26-.09-1.85a22.22,22.22,0,0,0-1.08-6.37A14.85,14.85,0,0,0,73,49.33a17.09,17.09,0,0,0-15.7-7.39c-10,.79-13.19,5.12-14.37,10.34a27.34,27.34,0,0,0,0,10.54Z" style="fill:#fa9778"/><path d="M42.89,62.82c4-3.35,6.2,3.64,6.2,3.64a16.18,16.18,0,0,1,2-4.72A9.8,9.8,0,0,1,55.59,58s-.12-.51-.22-1.26c0-.35-.09-.75-.1-1.18a8.57,8.57,0,0,1,.32-3.27c.17-.47.33-.92.52-1.34A4.46,4.46,0,0,1,57,49.57c.91-.91,2.43-1.58,5.39-1.9a13.33,13.33,0,0,1,3.63,0h0a5.26,5.26,0,0,1,3.38,1.61s.11-.2.7-.27h0a8.15,8.15,0,0,1,2.82.27,18,18,0,0,0-3.8-4,16.86,16.86,0,0,0-3.75-2.18,17.34,17.34,0,0,0-8.15-1.23,27.85,27.85,0,0,0-4.45.68,16.61,16.61,0,0,0-2.71.86,12.82,12.82,0,0,0-2,1,10.92,10.92,0,0,0-4.6,5.75c-.13.38-.25.76-.36,1.15s-.16.58-.22.88a21.33,21.33,0,0,0-.48,3.45h0c0,.41,0,.8,0,1.18A28.36,28.36,0,0,0,42.89,62.82Z" style="fill:#424447"/><path d="M43.11,51.4a48.81,48.81,0,0,0,13-.46A4.46,4.46,0,0,1,57,49.57a47.12,47.12,0,0,1-13.56.68C43.34,50.63,43.22,51,43.11,51.4Z" style="fill:#0b212e"/><path d="M42.37,56.92c4.38.72,8.79,1,13-.19,0-.35-.09-.75-.1-1.18-4.16,1.25-8.53.92-12.86.19C42.39,56.15,42.37,56.54,42.37,56.92Z" style="fill:#0b212e"/><path d="M46.71,45.49a.58.58,0,0,0,.27.09c4.09.43,8.22.22,12.29.71a29.68,29.68,0,0,1,6.78,1.43h0a5.26,5.26,0,0,1,3.38,1.61s.11-.2.7-.27C68.3,47,64.69,46,62.26,45.55c-4.69-.85-9.46-.65-14.19-1A11.07,11.07,0,0,0,46.71,45.49Z" style="fill:#0b212e"/><path d="M50.1,43.48c3.41.53,6.8.18,10.24.37a33.77,33.77,0,0,1,8.82,1.5,16.86,16.86,0,0,0-3.75-2.18c-4.12-.56-8.52-.23-12.6-.55A16.61,16.61,0,0,0,50.1,43.48Z" style="fill:#0b212e"/><path d="M60.27,72a6.07,6.07,0,0,0,4.87,3.1c.75,0,.76,1.23,0,1.18a7.29,7.29,0,0,1-5.89-3.69C58.88,71.94,59.9,71.34,60.27,72Z" style="fill:#0b212e"/><path d="M64.29,63.78c-.2,1.37.17,2.56.83,2.66s1.35-.94,1.55-2.31-.16-2.57-.82-2.66S64.5,62.4,64.29,63.78Z" style="fill:#0b212e"/><path d="M73,64.3c-.18,1.28.07,2.37.57,2.45s1.06-.91,1.25-2.19-.06-2.37-.57-2.45S73.19,63,73,64.3Z" style="fill:#0b212e"/><path d="M67.82,70.61c1.53.9,3.84-.07,3.17-2.07-.24-.72.9-1,1.14-.31a3,3,0,0,1-.95,3.26,3.48,3.48,0,0,1-4,.14A.59.59,0,0,1,67.82,70.61Z" style="fill:#0b212e"/><path d="M60.91,56.84a8.2,8.2,0,0,1,7.28.55.89.89,0,0,1-.9,1.53,6.46,6.46,0,0,0-5.6-.48,1,1,0,0,1-.3.1h0l-.08,0-.16,0C60.07,58.69,60.07,57.18,60.91,56.84Z" style="fill:#0b212e"/><path d="M73.35,60.07A3,3,0,0,1,75.57,60c0-.64,0-1.26-.09-1.85a4.48,4.48,0,0,0-2.6.2C71.83,58.77,72.28,60.48,73.35,60.07Z" style="fill:#0b212e"/><path d="M35.35,202,47.3,212.12c.58.49-.26,1.32-.84.84l-10.7-9.05a.55.55,0,0,1-.37-.16l-.87-.89C34,202.31,34.78,201.54,35.35,202Z" style="fill:#0b212e"/><path d="M29.43,230.33l15.27,27.2a.6.6,0,0,1-1,.6q-7.62-13.6-15.26-27.21A.59.59,0,0,1,29.43,230.33Z" style="fill:#0b212e"/><path d="M29.62,243.57l.69.71a.63.63,0,0,1,.15.32q7.35,9,14,18.48c.43.63-.59,1.22-1,.6q-6.91-9.94-14.62-19.27C28.31,243.83,29.09,243,29.62,243.57Z" style="fill:#0b212e"/><path d="M33.63,268.13l.92.64a.6.6,0,0,1,.26.47,65.41,65.41,0,0,1,9.72,11.9c.41.64-.61,1.23-1,.59a64.33,64.33,0,0,0-10.6-12.67C32.42,268.61,33.07,267.74,33.63,268.13Z" style="fill:#0b212e"/><path d="M52,134l.18-.4a.46.46,0,0,1,.58-.28l5.57-4.65c.58-.49,1.42.34.84.83L53,134.67A.59.59,0,0,1,52,134Z" style="fill:#0b212e"/><path d="M49.59,132.64l4.69-4.56c.55-.54,1.38.3.84.83l-4.7,4.57C49.88,134,49,133.18,49.59,132.64Z" style="fill:#0b212e"/><path d="M76.91,141.09c.28-.62,3.48-8,3.94-8.36,1-.68,3.27-2.06,4.2-2.77s1.63-1.24,2.44-1.88c-.12-.41-.23-.81-.34-1.22-.7.56-1.41,1.12-2.13,1.66s-1.5,1.13-2.26,1.68c-.24.18-1.2.88-1.51,1.13a.84.84,0,0,0-.27,0c.18-1,.33-2,.44-3.06a.29.29,0,0,0,.12-.07l4.73-4.42-.36-1.28-4.31,4a32.42,32.42,0,0,0-1.19-8.29A49.76,49.76,0,0,1,76.91,141.09Z" style="fill:#0b212e"/><path d="M84.58,153.94l6.46-.56S89.27,150.83,89,151,84.58,153.94,84.58,153.94Z" style="fill:#0b212e"/><path d="M33.73,151.14a.26.26,0,0,0,.17,0,73.16,73.16,0,0,1,8.33-3.23c.36-.11.2-.69-.16-.57a73.43,73.43,0,0,0-7.37,2.79c0,.24,0,.4,0,.4A8,8,0,0,0,33.73,151.14Z" style="fill:#0b212e"/><path d="M34.14,155a1.22,1.22,0,0,0,.23,0s0,.2.09.48a80.33,80.33,0,0,1,8.7-2.84.3.3,0,0,0-.16-.57A81.14,81.14,0,0,0,34.14,155Z" style="fill:#0b212e"/><path d="M34.94,157.32a8.36,8.36,0,0,0,1.84.12l0,.25c.76-.13,1.53-.32,2.31-.46,1.63-.29,3.26-.5,4.9-.71.37,0,.38-.63,0-.59-1.32.17-2.64.33-3.95.54a23.49,23.49,0,0,1-4.91.73A.25.25,0,0,0,34.94,157.32Z" style="fill:#0b212e"/><path d="M34.94,128.08c.42-.66,1.86-.86,2.57-1.19a20.15,20.15,0,0,0,2.73-1.51l.79-.55-.11-.17s.39-.44.88-.94a.73.73,0,0,0,.21-.55c-.92,1.36-3,2.35-4.33,3-1,.45-2.64.66-3.25,1.63C34.23,128.11,34.74,128.41,34.94,128.08Z" style="fill:#0b212e"/><path d="M30.52,123.68c2.84-.44,5.48-1.58,8.24-2.29-.49,0-.85.07-.85.07a4.09,4.09,0,0,0-.12-.41,62.33,62.33,0,0,1-7.42,2.06C30,123.17,30.15,123.74,30.52,123.68Z" style="fill:#0b212e"/><path d="M36.58,131.84a11.77,11.77,0,0,0,3.47-2.17c.39-.3.83-.63,1.24-1a1.46,1.46,0,0,0-.17-.31,5.06,5.06,0,0,0,.32-.61,15.4,15.4,0,0,1-2.09,1.72,10.81,10.81,0,0,1-2.93,1.8C36.06,131.39,36.22,132,36.58,131.84Z" style="fill:#0b212e"/><path d="M36.84,135.81a21.2,21.2,0,0,0,3.95-3.23c-.21-.21-.36-.34-.36-.34l.22-.39a19.4,19.4,0,0,1-3.85,3.26.26.26,0,0,0-.29.15.91.91,0,0,0-.07.14C36.31,135.66,36.57,136,36.84,135.81Z" style="fill:#0b212e"/><polygon points="40.78 132.58 40.92 134.31 38.21 134.57 40.78 132.58" style="fill:#0b212e"/><path d="M60.31,141.53c14.2-6.6,15.6-25.91,12.17-40.17-.32-.16-.63-.31-.92-.47l-.48-.24a56.29,56.29,0,0,1,1.18,5.81c-1.6-.89-3.21-1.76-4.85-2.6-.67-.34-1.27.67-.6,1,1.89,1,3.75,2,5.59,3a.07.07,0,0,1,.06,0c1.52,12.31-.84,26.38-11.75,32.1C60.58,140.51,60.44,141,60.31,141.53Z" style="fill:#0b212e"/></g></g></svg>