<svg xmlns="http://www.w3.org/2000/svg" viewBox="0 0 356.01 370.78"><title>Asset 2</title><g id="Layer_2" data-name="Layer 2"><g id="Layer_2-2" data-name="Layer 2"><ellipse cx="302.58" cy="366.86" rx="53.43" ry="3.92" style="fill:#cee2fd"/><ellipse cx="183.51" cy="366.86" rx="53.43" ry="3.92" style="fill:#cee2fd"/><ellipse cx="53.43" cy="366.86" rx="53.43" ry="3.92" style="fill:#cee2fd"/><path d="M297.4,340c1.14,4.84-3.86,15.72-6.15,19.58a12.92,12.92,0,0,0-1,2.35,35.54,35.54,0,0,0-1.39,8.84h23.05s3.86-15.67,3.63-19.18c-.09-1.36-1.56-3.64-3.32-5.92-2.78-3.61-6.3-7.22-6.3-7.22s-5.12-25.25-5.59-42.56A53.81,53.81,0,0,0,298.91,285c-2.29-9.55-6.57-13.77-6.57-13.77l-12.49-2.27s-2.2,17.38,2.89,32.3c2.77,8.11,6.52,17.43,9.55,25C294.84,332.64,296.88,337.81,297.4,340Z" style="fill:#fa9778"/><path d="M288.83,370.78h23.05s3.86-15.67,3.63-19.18c-.09-1.36-1.56-3.64-3.32-5.92-2.78-3.61-6.3-7.22-6.3-7.22s-5.12-25.25-5.59-42.56A53.81,53.81,0,0,0,298.91,285c0,.55-.3,11.41-1.46,20.82-.76,6.21-3.38,15-5.16,20.47,2.55,6.39,4.59,11.56,5.11,13.76,1.14,4.84-3.86,15.72-6.15,19.58a12.92,12.92,0,0,0-1,2.35A35.54,35.54,0,0,0,288.83,370.78Z" style="fill:#995647"/><path d="M288.83,370.78h23.05s3.86-15.67,3.63-19.18c-.09-1.36-1.56-3.64-3.32-5.92.35,2.31-.13,6.26-4.64,11.75-6.44,7.85-14.89,7.29-17.33,4.51A35.54,35.54,0,0,0,288.83,370.78Z" style="fill:#0b212e"/><path d="M281,62c0,.45,0,.91.08,1.37.24,3.75.7,7.75,1.26,11.6l.12.86c.35,2.33.73,4.59,1.11,6.71.05.26.09.52.14.78,1.33,7.31,2.65,12.74,2.65,12.74l34.83-7.57.26-.06,5.78-1.25v0c0-.32.4-3.74.73-8.67l.06-.92s0-.1,0-.16c.7-11.08,1.11-28.66-2.43-36.67-3.38-7.62-9.74-10.64-16.11-11.38a30.13,30.13,0,0,0-3.54-.2,35,35,0,0,0-7.21.81c-8.43,1.84-14.4,7.81-17.21,21.15A45.41,45.41,0,0,0,281,62Z" style="fill:#5d342b"/><path d="M308.86,82.89l1.23,4.16,11.08,1.47.26-.06,5.78-1.27c0-.32.4-3.74.73-8.67l.06-.92s0-.1,0-.16l-4.87-20.06h-9.33s-4,3.7-4,3.87S308.86,82.89,308.86,82.89Z" style="fill:#0b212e"/><path d="M294.68,37s-4.57-4.87-9.71.63S281,62,281,62l1.88,16.49Z" style="fill:#0b212e"/><path d="M281,62c0,.45,0,.91.08,1.37.45-.78.87-1.58,1.25-2.38,3.21-6.84,3.69-16.67,11.35-20.28.41-.2.06-.8-.35-.61-7.1,3.35-8,11.7-10.6,18.2A36.56,36.56,0,0,1,281,62Z" style="fill:#995647"/><path d="M282.32,75l.12.86c3.78-3.5,5.53-8.79,7-13.72.13-.43-.55-.62-.68-.18C287.38,66.6,285.77,71.59,282.32,75Z" style="fill:#995647"/><path d="M283.55,82.57c.05.26.09.52.14.78,4.57-3.63,8-8.61,8-14.66a.35.35,0,0,0-.7,0C291,74.4,287.8,79.1,283.55,82.57Z" style="fill:#995647"/><path d="M327.94,78.52l.06-.92a25.11,25.11,0,0,1-6.67-20.15c.05-.52.13-1,.23-1.55a.38.38,0,0,0-.23-.41.31.31,0,0,0-.45.23A25.78,25.78,0,0,0,327.94,78.52Z" style="fill:#995647"/><path d="M316.47,56.34c0-.45.73-.45.7,0a57.13,57.13,0,0,0,1,15.87c1,4.64,2.41,9.79,6.33,12.81.36.27,0,.88-.35.6-3.78-2.9-5.27-7.46-6.36-11.92A55.7,55.7,0,0,1,316.47,56.34Z" style="fill:#995647"/><path d="M302.58,30.1c5.71.58,9.94,5.65,13.31,9.84,3.91,4.88,6.68,10.88,6.05,17.26-.05.44-.75.45-.7,0,.58-5.87-1.77-11.25-5.18-15.89-3.17-4.31-7.81-9.93-13.48-10.51C302.14,30.75,302.13,30.05,302.58,30.1Z" style="fill:#995647"/><path d="M292.64,38.42a.36.36,0,0,0,.71,0c.07-4.29,5.13-6.47,9.17-7.64.54-.16,1.07-.3,1.56-.42l.68-.17a34.58,34.58,0,0,1,4.71-.8,30.13,30.13,0,0,0-3.54-.2,30.81,30.81,0,0,0-3.14.82l-.27.08-.14,0C298.37,31.42,292.73,33.5,292.64,38.42Z" style="fill:#995647"/><path d="M300.49,36.52s5,1.32,12.21,6.82a34.69,34.69,0,0,1,10.24,12.38l-9.13,2.36Z" style="fill:#0b212e"/><path d="M268.47,218.89a159.31,159.31,0,0,0,4.24,34.61,66.41,66.41,0,0,0,5.59,15.71c6.32,11.47,13.34,13.81,13.34,13.81s4.44-11.12,5.27-19.19c0-.18,0-.37,0-.59.22-2.39.53-7.26.88-13.23,0-.49.06-1,.08-1.47h0c.08-1.33.16-2.71.23-4.12,1-17.92,2.15-41.15,2.15-41.15l3.51-3s-.63,30.4-.92,47.28c0,.6,0,1.18,0,1.75-.07,4.14-.12,7.24-.12,8.55,0,6.49,5.45,31.25,4.74,55.82s-7,32.48-11.41,42.05c-.55,1.21-1,2.35-1.44,3.43-2.82,7.44-2.42,11.62-2.42,11.62h19.66s.92-8,1.18-13.35c.06-1.3.09-2.44.05-3.27-.17-4.29-1.23-15-1.23-15s11.41-23,13.87-43-4.74-34.2-4.74-34.2,2.77-7,5.84-16c.38-1.09.75-2.21,1.13-3.36,2.77-8.37,5.54-17.83,6.55-24.87a93.37,93.37,0,0,0,1-15.47,65.32,65.32,0,0,0-5.35-25.34,37.06,37.06,0,0,1-2.28-6.76c-2.28-9.65-1.28-21.22,2.1-35,4.22-17.23,11.24-45.8,11.24-45.8S335,86.91,326.85,84c-2.87-1-5.7-2.15-8.12-3.23a33.47,33.47,0,0,1-4.92-2.58h0c-1.21-.8-1.93-1.55-1.93-2.19V60.92L297,63.12V77.63l-6.32,3h0l-14.32,6.77-6.15,2.53c7.84,60.16,7.83,60.76,8.43,65.78a49.63,49.63,0,0,1-3.32,22.35c-.28.73-.58,1.47-.89,2.22a74.94,74.94,0,0,0-5.17,21.7h0A161.94,161.94,0,0,0,268.47,218.89Z" style="fill:#fa9778"/><path d="M283,251.47,297,263.24c.22-2.39.53-7.26.88-13.23,0-.49.06-1,.08-1.47h0c.08-1.33.16-2.71.23-4.12Z" style="fill:#0b212e"/><path d="M302.89,247.56c0,.6,0,1.18,0,1.75l24-3.33c.38-1.09.75-2.21,1.13-3.36Z" style="fill:#0b212e"/><path d="M272.71,253.5,297.84,250c0-.49.06-1,.08-1.47Z" style="fill:#0b212e"/><path d="M268.47,218.89a159.31,159.31,0,0,0,4.24,34.61l25.21-5,5-1L328,242.62c2.77-8.37,5.54-17.83,6.55-24.87a96.75,96.75,0,0,0,1-11.23c0-1.44,0-2.85,0-4.24q-.08-3.27-.41-6.37a61.64,61.64,0,0,0-4.94-19,37.06,37.06,0,0,1-2.28-6.76c-15.3,2.28-39.37,5.88-52.53,7.87-.28.73-.58,1.47-.89,2.22a74.94,74.94,0,0,0-5.17,21.7h0A161.94,161.94,0,0,0,268.47,218.89Z" style="fill:#2e576b"/><path d="M318.73,198.62a33.36,33.36,0,0,0,5.76,3.66,73.86,73.86,0,0,0,11,4.24c0-1.44,0-2.85,0-4.24q-.08-3.27-.41-6.37Z" style="fill:#0b212e"/><path d="M276.37,87.39l7.07,89.84,11-1.22,1-.11,18.35-2,13-89.89c-5.24-1.91-10.36-4-13-5.81h0c-1.21-.8-1.93-1.55-1.93-2.19V74.66L297,77v.63l-2.79,1.31-1.33.64Z" style="fill:#f9f8ef"/><path d="M295.46,175.9c0-.69,0-1.41,0-2.16q0-5.72,0-11.44l.06-22.88c0-13.35,0-23.12,0-36.47l-.59,1.91-.22,46c0,7.49-.21,16.68-.21,25.15Z" style="fill:#0b212e"/><path d="M319.49,199a44.66,44.66,0,0,0,16,3.28,65.32,65.32,0,0,0-5.35-25.34,37.66,37.66,0,0,1-2.56-8c-.09-.48-.19-1-.26-1.44-.12-.68-.22-1.38-.31-2.09-.07-.56-.13-1.12-.18-1.69-.71-8.24.47-17.71,3.13-28.57,4.22-17.23,11.24-45.8,11.24-45.8S335,86.91,326.85,84l-2.51-.94c-.58-.22-1.15-.43-1.7-.66-1.38-.54-2.7-1.09-3.91-1.63-2.2,3.72-8.65,17-12.84,50.59C300.77,172.31,309,194.31,319.49,199Z" style="fill:#b4cbde"/><path d="M311.36,121.74a112,112,0,0,0,16.15-17.69.7.7,0,0,0-.12-.85c-2.77-2.38-5.88-4.62-8.42-7.26.21,0,7.06-3.16,7.75-3.45a.71.71,0,0,0,.49-.87l-2.87-8.57c-.58-.22-1.15-.43-1.7-.66,1,3,2,6,3,9-2,.83-4,1.67-6,2.49-.43.18-1.68.52-2,1-1.2,2,2.28,3.69,3.47,4.71,1.73,1.49,5.52,3.29,3.67,5.7-1.5,1.94-3,3.85-4.67,5.67a116.38,116.38,0,0,1-9.77,9.72C309.68,121.35,310.67,122.34,311.36,121.74Z" style="fill:#0b212e"/><path d="M269.27,202a22.32,22.32,0,0,0,13.7-10.4c8.9-14.45,3.75-34.71,3-66.77-.46-21.3,2.58-36.43,4.67-44.18l-14.32,6.77-6.15,2.53c7.84,60.16,7.83,60.76,8.43,65.78a42.47,42.47,0,0,1-.3,10.76c-.07.51-.16,1-.25,1.56a56.54,56.54,0,0,1-3.66,12.25A74.94,74.94,0,0,0,269.27,202Z" style="fill:#b4cbde"/><path d="M284.55,83.52q-2.58,3.62-5.39,7.07a.71.71,0,0,0,.15,1.1,28.06,28.06,0,0,0,3.85,1.9,27,27,0,0,0-5,3c-1.18,1-.81,2-.47,3.47.68,3.05,1.36,6.09,2,9.14.38,1.74.41,4.35,1.48,5.8a.72.72,0,0,0,1.22,0l.1-.17a.72.72,0,0,0-.25-1l-.12-.08-.05,0c-.84-1.68-.95-4.57-1.3-6.23s-.77-3.49-1.16-5.22c-.52-2.31-1-4.37,1.44-5.82,1.37-.82,2.74-1.62,4.1-2.44A.7.7,0,0,0,285,92.8a29.4,29.4,0,0,1-4.28-1.92q3.36-4.17,6.38-8.57Z" style="fill:#0b212e"/><path d="M290.35,100.79c1.31-1.83,3.61-5.09,5.49-8,.59-.9,1.14-1.77,1.59-2.57a.7.7,0,0,0-1.21-.71l-.14.23c-1.35,2.27-3.28,4.56-4.74,7,.4-2.28,2.45-15.37,2.85-17.53a2.07,2.07,0,0,0,0-.22l-1.33.64c-.68,3.86-1.29,8.9-2,12.64a53.73,53.73,0,0,1-1.61,7.26C289,100.21,289.89,101.44,290.35,100.79Z" style="fill:#0b212e"/><path d="M294.91,104.86l9.39-13.25.83-1.17,8.68-12.26h0c-1.21-.8-1.93-1.55-1.93-2.19V60.92L297,63.12V77.63Z" style="fill:#fa9778"/><path d="M310.39,67.4a13.06,13.06,0,0,1-5,6.84A24,24,0,0,1,297,77.63V65.55Z" style="fill:#0b212e"/><path d="M312.67,63.71s-.35,3.51-6,6.05-12.72,4.57-15,3.43-5.26-6.46-5.61-12.27,1.14-8.8,1-11.78,3-13.78,9-13.43,11.5,3.68,15.71,9.74,3.52,9.74,3.52,9.74,6.14-4.91,7.63.53S317,66.6,312.67,63.71Z" style="fill:#fa9778"/><path d="M330,135.14l4,27.34s16.73-5.73,17.68-13.35-4.92-21-4.92-21l-1.65-11.52-.2-1.42-.52-3.62-.24-1.66L341.2,89.34c-1.6,1.93-3.17,6.27-4.59,11.53-.74,2.68-1.44,5.61-2.08,8.58-.35,1.63-.7,3.28-1,4.9-1.2,6.06-2.18,11.88-2.79,15.8C330.23,133.22,330,135.14,330,135.14Z" style="fill:#b4cbde"/><path d="M328.26,135.37c-.16.89,1.19,1.26,1.35.37.34-1.87.7-3.73,1.11-5.59q.79-3.72,1.75-7.39a.58.58,0,0,0,.75,0,63.5,63.5,0,0,1,11.89-6.15l-.2-1.42a76.35,76.35,0,0,0-9.22,4.4q4.28-4.1,8.7-8l-.24-1.66q-5.59,4.93-10.94,10.12c.08-.32.16-.63.25-.93a.62.62,0,0,0-.28-.74,38.41,38.41,0,0,1,.33-4,36.94,36.94,0,0,1,4.12-12.55.71.71,0,0,0-1-.93.52.52,0,0,0-.19.22,38.3,38.3,0,0,0-4.65,18.9Q329.66,127.6,328.26,135.37Z" style="fill:#0b212e"/><path d="M261.54,139.15v1.44c.22,15.4,7.3,19.29,12.33,20.09,2.81.45,3.16-9.26,1.64-25.2-.05-.5,2.13-2.89,2.08-3.4-.31-3.06-.7-6.28-1.17-9.62-.4-2.9-1.2-7.39-2.08-12.14-.11-.54-.21-1.08-.31-1.62-1.51-8-3.22-16.32-3.81-18.78a144.61,144.61,0,0,0-4.38,15.68c-.1.45-.2.9-.31,1.37a177.33,177.33,0,0,0-3.22,19.9c-.05.48-.1,1-.14,1.44a6.75,6.75,0,0,0-2.19,4.27c-.08,1.18,1.72,2.08,1.66,3.28,0,.45,0,.9-.05,1.36h0l-1,.52c0,.16-.85,1-.85,1.17S261.54,138.89,261.54,139.15Z" style="fill:#b4cbde"/><path d="M273.38,119.76s-4,21.65-3.51,21.53,11-2.3,11-2.3Z" style="fill:#0b212e"/><path d="M262.17,128.31c5.16,1.86,10.28,3.83,15.57,5.28.48.14,1,.26,1.44.38a.7.7,0,0,0,.38-1.35c-.66-.17-1.32-.35-2-.54-5.19-1.45-10.21-3.39-15.28-5.21C262.26,127.35,262.21,127.83,262.17,128.31Z" style="fill:#0b212e"/><path d="M265.53,107q4.44,1.59,8.81,3.35l.14.05.06,0c.49,2.23,1,4.46,1.68,6.67a.7.7,0,0,0,1.35-.37,114.1,114.1,0,0,1-4-22.44c-.07-.9-1.47-.9-1.4,0a117.54,117.54,0,0,0,2,14.51l-.15-.06c-2.71-1.09-5.44-2.13-8.19-3.1C265.74,106.05,265.64,106.5,265.53,107Z" style="fill:#0b212e"/><polygon points="326.65 160.62 284.58 161.79 276.37 142.12 326.86 153.23 326.65 160.62" style="fill:#0b212e"/><polygon points="313.64 104.86 328.48 155.7 286.02 162.48 269.87 112.63 313.64 104.86" style="fill:#826b62"/><path d="M348,138.72l-16-5.05-4.92,17.22L334,162.48s10.89-4.33,12.17-9.71A108.07,108.07,0,0,0,348,138.72Z" style="fill:#b4cbde"/><path d="M331,137.58c1.4-2,2.79-5.27,5.17-6.17a10.88,10.88,0,0,1,3.37-.2l5.83-.13a.7.7,0,0,1,0,1.4l-6.81.16c-2,0-2.68.48-3.86,2.14l-1.45,2a18.64,18.64,0,0,0,3.32-2.54,1.9,1.9,0,0,1,2.07-.63,30.23,30.23,0,0,1,9.11,3c.81.39.1,1.6-.71,1.21a49.92,49.92,0,0,0-7.63-2.56c-1.83-.54-5.44,2.82-7,3.6a.72.72,0,0,1-1-.35A.63.63,0,0,1,331,137.58Z" style="fill:#0b212e"/><polygon points="340.37 154.2 334 162.48 331.53 158.34 331.16 143.25 340.37 154.2" style="fill:#0b212e"/><path d="M256.18,148.09c.7,7.83,5.38,10.22,8.78,12.78,2.28,1.72,6.46.67,8.91-.19a19.32,19.32,0,0,0,2-.78l-6-23.64-4.25.68-2.89.46h0l-.33.06a7.32,7.32,0,0,0-.82.42,11.07,11.07,0,0,0-2.62,2,9.91,9.91,0,0,0-1.75,2.46h0A10.45,10.45,0,0,0,256.18,148.09Z" style="fill:#b4cbde"/><path d="M257.2,142.37a12.83,12.83,0,0,1,9.8-1.73.74.74,0,0,0,.83-1,.76.76,0,0,0,.15-1.3,24.34,24.34,0,0,0-2.36-1.44,8.86,8.86,0,0,0-3.14-1,7.89,7.89,0,0,0-.84,0c0,.45,0,.9-.05,1.36h0l.2,0a7.23,7.23,0,0,1,.93.16h0a11.94,11.94,0,0,1,3.88,1.76,15.13,15.13,0,0,0-5.07,0,12.16,12.16,0,0,0-2.59.76A9.91,9.91,0,0,0,257.2,142.37Z" style="fill:#0b212e"/><path d="M272.74,162.48s6.85-3.61,3.63-13.36-14.26-2.45-14.26-2.45S264.05,158.94,272.74,162.48Z" style="fill:#0b212e"/><path d="M303.48,136.56c.06.1.12.16.19.17a3,3,0,0,0,.65.09s0,.2,0,.47a6.1,6.1,0,0,0,0,.85c0,.31.51.57.93.74l0,0c.33.13.62.21.62.21s0,.35.1.71a2,2,0,0,0,.21.73c.22.35,12.9,4,12.9,4l10.53.44,4.81,4.15,5.9,5.07a14.26,14.26,0,0,0,.23-12.91l-3.51-2.11-15.63-9.38s-15.92-1.71-16-1.36-.42,1,0,1.31S319.17,133,319.17,133l-.18,1s-15.67.34-15.8.87A2.92,2.92,0,0,0,303.48,136.56Z" style="fill:#fa9778"/><path d="M267.43,138.71a3.61,3.61,0,0,0-3.43.39c-1.88,1.19-2.13,6.28-2.13,6.28Z" style="fill:#0b212e"/><path d="M261.87,145.38a54.56,54.56,0,0,0,1.21,5.44,10.06,10.06,0,0,0,.91,1.89l12.92-2.59s9.81-9.15,9.77-9.84c0-.25,0-.49,0-.7,0-.38,0-.66,0-.66a3.12,3.12,0,0,0,.95-.64l.08-.12a.51.51,0,0,0,.08-.36,3.16,3.16,0,0,0-.38-1,.58.58,0,0,0-.09-.14,1.18,1.18,0,0,0,.49-1.18,0,0,0,0,0,0,0c-.21-.77-.73-1.31-1.37-1.27s-1.26.14-1.26.14l-10.27,4.13s8.1-5.27,7.88-5.8-.32-1.29-.84-1.1c0,0-11.63,4.4-12.59,5.15S261.87,145.38,261.87,145.38Z" style="fill:#fa9778"/><path d="M292.22,370.78h19.66s.16-1.41.37-3.46c.29-2.81.66-6.79.81-9.89l-.17.12-.12.09a21.87,21.87,0,0,1-10.63,4c-4.1.4-6.08-.77-7.05-1.84a5.25,5.25,0,0,1-.45-.61c-.58,1.55-1,2.94-1.37,4.2a.24.24,0,0,0,0,.08A23.35,23.35,0,0,0,292.22,370.78Z" style="fill:#0b212e"/><path d="M292.23,370.78h.7a35.82,35.82,0,0,1,2.16-11,5.25,5.25,0,0,1-.45-.61c-.58,1.55-1,2.94-1.37,4.2a.24.24,0,0,0,0,.08A36.25,36.25,0,0,0,292.23,370.78Z" style="fill:#355f74"/><ellipse cx="298.57" cy="52.27" rx="1.55" ry="2.34" style="fill:#0b212e"/><ellipse cx="288.61" cy="51.56" rx="0.92" ry="1.87" style="fill:#0b212e"/><path d="M296.87,45a7.07,7.07,0,0,1,6.11.81c1.13.75.07,2.57-1.06,1.82a5,5,0,0,0-4.49-.59C296.13,47.44,295.58,45.41,296.87,45Z" style="fill:#0b212e"/><path d="M287.83,44.68a7,7,0,0,1,3,1.11c1.13.75.07,2.57-1.06,1.82a5.14,5.14,0,0,0-2.52-.86Z" style="fill:#0b212e"/><path d="M289.11,57c.21,1.16,2,.83,2.83.7s1.27,1.22.38,1.36c-1.6.24-4.18.42-4.57-1.69C287.59,56.51,289,56.14,289.11,57Z" style="fill:#0b212e"/><path d="M291.39,63.47c3.21.32,5.74.36,8.58-1.46.76-.49,1.47.73.71,1.21A12.54,12.54,0,0,1,296.24,65a15.18,15.18,0,0,1-4.85-.14C290.5,64.78,290.49,63.38,291.39,63.47Z" style="fill:#0b212e"/><path d="M316.2,56.53a4.26,4.26,0,0,1,2.88-1.6,1.85,1.85,0,0,1,2.09,1.4C321.35,57.21,315,58.08,316.2,56.53Z" style="fill:#0b212e"/><path d="M315.57,59.31c.11-.39.41-.52.74-.68l.95-.46a.71.71,0,0,1,1,.25.69.69,0,0,1-.25,1c-.35.17-.76.33-1.12.53a.73.73,0,0,1-.2.19l0,0a.68.68,0,0,1-.7,0h0A.69.69,0,0,1,315.57,59.31Z" style="fill:#0b212e"/><polygon points="304.67 90.01 311.88 75.99 318.73 80.76 312.67 99.96 304.67 90.01" style="fill:#f9f8ef"/><path d="M304.3,91.61q3.65,4.06,7.22,8.2a.72.72,0,0,0,.33.56l.47.29c.59.37,1.34-.51.89-1-2.13-2.48-6.62-7.67-8.08-9.19Z" style="fill:#0b212e"/><path d="M308.78,266.58a16.63,16.63,0,0,1,3.35,5.52c.31.85-1,1.21-1.35.37a15.07,15.07,0,0,0-3-4.9C307.18,266.91,308.17,265.91,308.78,266.58Z" style="fill:#0b212e"/><path d="M283.85,272.11l4.19,6.34c.5.75-.72,1.46-1.21.71l-4.19-6.34C282.14,272.06,283.35,271.36,283.85,272.11Z" style="fill:#0b212e"/><path d="M289.75,232.22A339.26,339.26,0,0,0,313,207.38c.59-.69,1.58.31,1,1a335.11,335.11,0,0,1-23.27,24.84C290.09,233.84,289.1,232.85,289.75,232.22Z" style="fill:#0b212e"/><path d="M286.89,229.52l19.05-21.84c.59-.69,1.58.31,1,1l-19.05,21.84C287.29,231.2,286.3,230.2,286.89,229.52Z" style="fill:#0b212e"/><path d="M322,162.36c.39,1.06,2.17,1.53,3.09,2l1.91,1c-.07-.56-.13-1.12-.18-1.69l-.5-.27-2.07-1.1a9.07,9.07,0,0,0-.83-.54l0,0a.73.73,0,0,0-1-.26l-.11.05A.69.69,0,0,0,322,162.36Z" style="fill:#0b212e"/><path d="M319.77,167.83l7.81,1.1c-.09-.48-.19-1-.26-1.44l-7.18-1C319.26,166.34,318.87,167.7,319.77,167.83Z" style="fill:#0b212e"/><path d="M278.1,168c1.38-.47,2.75-1,4.1-1.58.83-.36.11-1.56-.71-1.21-1,.44-2.08.85-3.14,1.23C278.28,167,278.19,167.49,278.1,168Z" style="fill:#0b212e"/><circle cx="298.77" cy="111.35" r="1.18" style="fill:#0b212e"/><circle cx="284.72" cy="113.71" r="1.18" style="fill:#0b212e"/><path d="M334.46,149.13l5.9,5.07a14.26,14.26,0,0,0,.23-12.91l-3.51-2.11a11.7,11.7,0,0,1,0,5.28A13.5,13.5,0,0,1,334.46,149.13Z" style="fill:#f9f8ef"/><path d="M303.48,136.56c.06.1.12.16.19.17a3,3,0,0,0,.65.09s0,.2,0,.47q5.9.22,11.8,0c.45,0,.45-.73,0-.7C311.89,136.74,307.69,136.74,303.48,136.56Z" style="fill:#0b212e"/><path d="M305.29,138.9c.33.13.62.21.62.21s0,.35.1.71a54.91,54.91,0,0,0,10.44,1.69c.45,0,.45-.67,0-.7A54,54,0,0,1,305.29,138.9Z" style="fill:#0b212e"/><path d="M319.87,139.72a1.42,1.42,0,0,1,.15-.57,1.62,1.62,0,0,0-.09-1.86c-.21-.4.39-.75.61-.35.45.82.87,1.57.22,2.4-.35.44.14.44.25.84a1,1,0,0,1,0,.41,1,1,0,0,0,.7,1.25c.42.16.24.84-.19.68-.93-.35-1.48-.84-1.23-1.88C320.39,140.2,319.84,140.15,319.87,139.72Z" style="fill:#0b212e"/><path d="M276,143.62c2.13-1.45,4.31-2.84,6.54-4.13,1.52-.88,4.68-2.83,4.68-2.83a1.18,1.18,0,0,0,.49-1.18.35.35,0,0,0-.09.07c-1.52,1.65-4.08,2.53-6,3.66s-4,2.47-6,3.81C275.29,143.27,275.64,143.87,276,143.62Z" style="fill:#0b212e"/><path d="M286.64,139.58q-4.63,3.39-9.12,7c-.35.28-.84-.22-.49-.5,3.37-2.73,10.52-8,10.6-8Z" style="fill:#0b212e"/><path d="M311.15,370.78h.73s.16-1.41.37-3.46c.29-2.81.66-6.79.81-9.89l-.17.12-.12.09Z" style="fill:#355f74"/><path d="M309,344.61l1.64-2.7a.35.35,0,0,1,.61.35c-.55.9-1.1,1.8-1.64,2.7C309.37,345.35,308.76,345,309,344.61Z" style="fill:#0b212e"/><path d="M167.5,21.31a32.75,32.75,0,0,0,0,7,22.34,22.34,0,0,0,.51,3.12l1.68.06h.08l20.94.81,7.06.27,1.36-6.52.13-.63.34-1.63.14-.66L200,22l1.46-7,.14-.66.12-.57a26.33,26.33,0,0,0-4.05-4.65l-.57-.48a14.08,14.08,0,0,0-1.76-1.25,25.63,25.63,0,0,0-4.11-1.92l-.91-.32a24.64,24.64,0,0,0-2.5-.7l3.76-2.29A20.22,20.22,0,0,0,185.21.23c-.22,0-.45-.06-.68-.09h0a20.78,20.78,0,0,0-4.2-.06c-.23,0-.46,0-.69.07-.49.05-1,.13-1.5.23a14.08,14.08,0,0,0-6,3c-.2.15-.39.31-.57.47a21.08,21.08,0,0,0-1.92,1.84l-.49.54,0,0a33.64,33.64,0,0,0-2.46,3.18l-.36.55c-.49.75-.74,1.22-.74,1.22l2.94,2S168.16,15.42,167.5,21.31Z" style="fill:#1a4559"/><polygon points="184.44 19.98 190.69 32.32 197.75 32.59 199.11 26.07 199.24 25.44 199.58 23.81 199.72 23.15 199.96 22.01 191.34 15.81 184.44 19.98" style="fill:#0b212e"/><path d="M167.5,21.31a32.75,32.75,0,0,0,0,7l2.19,3.18.05.07,0-.07,7.8-15.89-9.33-5.76.88-3.64a33.64,33.64,0,0,0-2.46,3.18l-.36.55c-.49.75-.74,1.22-.74,1.22l2.94,2S168.16,15.42,167.5,21.31Z" style="fill:#0b212e"/><path d="M169.13,6.2a18,18,0,0,0,3.37,4.45,35.89,35.89,0,0,0,7.3,5.74.32.32,0,0,0,.32-.56,34.22,34.22,0,0,1-6.78-5.26,18.79,18.79,0,0,1-3.72-4.91Z" style="fill:#0b212e"/><path d="M171.54,3.82c1.38,4.86,5.8,9,9.45,12.12.33.28.79-.18.47-.45-3.67-3.14-8.09-7.26-9.35-12.14C171.91,3.5,171.72,3.66,171.54,3.82Z" style="fill:#0b212e"/><path d="M179.32,7.56a19.38,19.38,0,0,0,3.21,8.33c.24.34.81,0,.57-.34A18.58,18.58,0,0,1,180,8a19.39,19.39,0,0,1-.2-4.57,14.58,14.58,0,0,1,.48-3.33c-.23,0-.46,0-.69.07a16.07,16.07,0,0,0-.33,2.23A20.88,20.88,0,0,0,179.32,7.56Z" style="fill:#0b212e"/><path d="M183.92,16.15c.16.36.67.08.58-.27a.33.33,0,0,0,.55-.23c0-3.1.17-6.13,2.9-8.07a33.82,33.82,0,0,1,3.24-2.09l-.91-.32a17.58,17.58,0,0,0-3.49,2.51c-2.26,2.12-2.41,5-2.39,7.93A17.34,17.34,0,0,1,185.21.23c-.22,0-.45-.06-.68-.09h0A18,18,0,0,0,183.92,16.15Z" style="fill:#0b212e"/><path d="M189.62,15.57c2.32-.71,5.29-.42,7.71-.48,1.36,0,2.72-.06,4.09-.07l.14-.66c-1.62,0-3.25.05-4.87.09-2.31.07-5-.19-7.24.49C189.05,15.07,189.22,15.7,189.62,15.57Z" style="fill:#0b212e"/><path d="M187.85,15.68c1.08-2.38,3.52-3.61,5.76-4.72,1.32-.66,2.66-1.27,4-1.82l-.57-.48q-2.2.9-4.3,2c-2.18,1.14-4.42,2.35-5.48,4.69C187.11,15.73,187.67,16.07,187.85,15.68Z" style="fill:#0b212e"/><path d="M189.73,19.4q5,2,9.85,4.41l.14-.66q-4.82-2.38-9.82-4.39C189.5,18.61,189.34,19.24,189.73,19.4Z" style="fill:#1a4559"/><path d="M189.36,22.54c2.46,1,4.94,2,7.48,2.8l2.27.73.13-.63c-.17-.06-.32-.12-.47-.16-1-.31-2-.62-2.92-1-2.13-.74-4.23-1.54-6.32-2.4C189.14,21.75,189,22.39,189.36,22.54Z" style="fill:#1a4559"/><path d="M166.28,10a84,84,0,0,0,8.53,6.6c.36.24.68-.32.34-.56a81.18,81.18,0,0,1-8.51-6.59Z" style="fill:#1a4559"/><polygon points="140.19 199.87 150.22 202.97 152.84 188.25 146.57 186.46 140.19 199.87" style="fill:#0b212e"/><path d="M235.07,178.49,232.45,180l-.61-3.61,1.88.46S234.62,176.86,235.07,178.49Z" style="fill:#0b212e"/><polygon points="167.17 370.78 211.49 370.78 211.08 368.21 210.87 366.9 210.51 364.56 192.85 357 191.09 354.53 190.32 353.46 189.2 351.88 188.44 350.8 187.4 349.34 186.64 348.28 185.65 346.89 183.56 348.02 182.4 348.64 173.55 353.41 169.86 352.4 169.6 352.33 168.16 351.93 167.38 366.9 167.31 368.21 167.17 370.78" style="fill:#0b212e"/><polygon points="168.16 351.93 169.52 352.31 169.86 352.4 173.55 353.41 182.4 348.64 183.56 348.02 185.65 346.89 182.84 340.17 182.22 338.69 182.22 332.97 185.65 329.2 212.26 215.77 212.64 214.13 213.73 209.47 214.09 207.95 215.41 202.32 214.95 188.25 214.95 188.24 214.59 177.06 203.28 176.97 197.38 176.92 185.68 176.83 185.55 176.83 176.82 176.76 176.81 176.88 176.81 177.06 176.74 178.36 176.66 179.99 176.19 189.48 176.13 190.81 175.66 200.29 175.6 201.38 168.99 335.09 168.92 336.41 168.69 341.17 168.63 342.48 168.29 349.18 168.16 351.93" style="fill:#826b62"/><path d="M147.06,177.06l.39,22,0,1.33.05,2.8,0,1.31,1.32,75.19,6,53.2.14,1.31.77,6.8.15,1.3,1,8.95.25,2.2h12.26l.06-1.1,0-.69h0l.15-2.49v0l3.68-66,4.16-19.94,5.5-41.27a.41.41,0,0,0,0-.11l1.34-10.09.27-2,4.66-3.93,6.27-22.46,1.78-6.37,0-.16-11.74.07h-.13l-8.73,0Z" style="fill:#826b62"/><path d="M167.46,179.14s1.72.53,0,1.64-7.4.57-9.28-2.29l-1.88-2.87Z" style="fill:#0b212e"/><path d="M137.41,74.1l6.55,37v0c0,.07,0,.22.06.43l0,.2v0c0,.11,0,.23.06.38a.34.34,0,0,0,0,.1c.06.38.12.85.19,1.39,0,0,0,.06,0,.09,0,.2.05.42.09.64l0,.18q.06.45.12,1c0,.29.08.61.12.93s.05.4.08.62a.78.78,0,0,0,0,.14c0,.23.06.47.08.71s.07.58.11.89c.07.59.14,1.21.22,1.86l.12,1.06c0,.38.08.77.13,1.16s0,.5.08.74c.11,1.1.23,2.24.34,3.41,0,.36.07.73.11,1.09.26,2.8.51,5.77.7,8.77h0c0,.19,0,.37,0,.56,0,.72.09,1.45.13,2.17,0,.14,0,.27,0,.41,0,.37,0,.74.05,1.11.07,1.68.12,3.34.15,5,0,.27,0,.53,0,.8,0,.53,0,1.06,0,1.59.13,15.2,0,28.56,0,28.56l8.16-.05,59.36-.36s-1.29-45.13-.31-58.14,3.43-45.07,3.43-45.07a137.54,137.54,0,0,1-13-5.5c-.69-.34-1.36-.69-2-1a27.09,27.09,0,0,1-3.22-2,8.76,8.76,0,0,1-1.55-1.4c-1.11-1.32-1.72-4.62-2-8.49a163.6,163.6,0,0,1-.08-18.81l-24.53,2.12s-.06,3.07-.11,7.09c0,2.48-.05,5.33-.05,8,0,.54,0,1.07,0,1.56a16.3,16.3,0,0,1-.77,4.48,8.64,8.64,0,0,1-1.07,2.15,9.23,9.23,0,0,1-3.17,2.75c-.22.13-.45.25-.68.36l-.71.34h0l-.09,0c-.45.2-1.08.45-1.87.74-1.62.6-3.88,1.38-6.38,2.21l-1,.33c-3.57,1.17-7.53,2.44-10.81,3.47l-.71.22-3.17,1-.57.18c-.23.06-.43.13-.62.19l-.29.09Z" style="fill:#f0efe6"/><polygon points="170.28 153.4 163.36 171.9 155.51 168.58 170.28 153.4" style="fill:#0b212e"/><rect x="155.07" y="167.43" width="55.92" height="9.55" transform="translate(366.07 344.4) rotate(180)" style="fill:#0b212e"/><rect x="185.27" y="167.43" width="13.35" height="9.55" style="fill:#f5cb99"/><rect x="168.92" y="167.43" width="4.31" height="10.26" transform="translate(342.14 345.11) rotate(180)" style="fill:#826b62"/><polygon points="191.21 69.93 185.09 62.76 179.66 69.93 183.47 76.74 180.83 164.01 189.9 171.01 197.43 163.36 187.29 76.27 191.21 69.93" style="fill:#fa9778"/><path d="M169,67c2.61,2,4.33,5.61,7.05,7.43,3.23-4.1,9.21-12,9-11.69,2.77,3.41,6.36,7.41,9.28,10.69,2.29-1.62,3.16-5.7,5-7.77.56-.64,1.48.29.93.92-2,2.23-6,8.34-6.16,8.28s-6.25-6.88-9-10.31c-2.51,3.84-8.71,11.66-9,11.45-2.87-1.91-4.95-5.79-7.7-7.87C167.71,67.65,168.36,66.51,169,67Z" style="fill:#0b212e"/><path d="M171.06,55l6.25,3.45,7.78,4.31L195.87,55a163.6,163.6,0,0,1-.08-18.81l-24.53,2.12s-.06,3.07-.11,7.09c0,2.48-.05,5.33-.05,8C171.1,54,171.09,54.51,171.06,55Z" style="fill:#fa9778"/><path d="M170.29,59.48a33.86,33.86,0,0,0,12-2.58c6.41-2.64,11.31-9.27,11.31-9.27L171.15,45.4c0,2.48-.05,5.33-.05,8,0,.54,0,1.07,0,1.56A16.3,16.3,0,0,1,170.29,59.48Z" style="fill:#0b212e"/><path d="M196.28,30.38s.64-3.82,4.09-2.7c4.25,1.39,1.88,8.75.73,10.31s-6.29,1.71-6.29,2.12-.08,6.54-1.23,7.52S183,54.34,181.89,54.34s-6.46.08-7.68-.74-5.73-6.29-6-7.93-.86-18.44-.86-18.44A20.59,20.59,0,0,0,168.1,22c0-2.78.71-6.57,2.68-7,1.3.12,1.79,1.31,5.39.8,2.78-.24,9.1-2.64,11.88-1.83s4.55,2.58,4.14,4.63a49.39,49.39,0,0,0-.57,5.69Z" style="fill:#fa9778"/><path d="M188.14,51.52a12.44,12.44,0,0,0,5.16-4.28c1.23-1.9,1.16-4.92,1.12-7.09a.33.33,0,0,1,.65,0,16,16,0,0,1-1.2,7.42c-1,2-3.42,3.56-5.4,4.51C188.09,52.26,187.76,51.7,188.14,51.52Z" style="fill:#0b212e"/><path d="M139.05,185.48a26.48,26.48,0,0,0,1.14,14.39s7.49-11.32,15-22.81a.13.13,0,0,0,0-.05c7.13-10.89,14.26-21.93,15.06-23.62.62-1.31.58-16,.3-33.8,0-.87,0-1.76-.05-2.64-.24-14-.62-29.56-.94-41.76,0-.69,0-1.37-.05-2-.12-4.44-.23-8.36-.32-11.52a9.23,9.23,0,0,1-3.17,2.75c-.22.13-.45.25-.68.36l-.71.34h0l-.09,0c-.45.2-1.08.45-1.87.74-1.62.6-3.88,1.38-6.38,2.21l-1,.33c-3.57,1.17-7.53,2.44-10.81,3.47l-.71.22-3.17,1-.57.18c-.23.06-.43.13-.62.19l-.29.09-1.74.54,6.55,37v0c0,.07,0,.22.06.43l0,.2v0c0,.11,0,.23.06.38a.34.34,0,0,0,0,.1c0,.38.12.85.19,1.39,0,0,0,.06,0,.09,0,.2.05.42.09.64l0,.18c0,.3.07.62.12,1s.08.61.12.93.05.41.08.62a.78.78,0,0,0,0,.14c0,.23,0,.47.08.71s.07.58.11.89c.07.59.14,1.21.22,1.86l.12,1.06c0,.38.08.77.13,1.16s0,.5.08.74c.11,1.1.23,2.24.34,3.41,0,.36.07.73.11,1.09.26,2.8.51,5.77.7,8.77h0c0,.19,0,.37,0,.56,0,.72.09,1.45.13,2.17,0,.14,0,.27,0,.41,0,.37,0,.74.05,1.11,0,0-.49,2.84-1.21,7.11-.19,1.07-.39,2.23-.6,3.46C143.12,163.14,140.12,180.37,139.05,185.48Z" style="fill:#826b62"/><polygon points="144.32 156.17 151.21 174.36 140.87 173.08 144.32 156.17" style="fill:#0b212e"/><path d="M199.36,107.71c0,1.09,0,2.18,0,3.27,0,14,.06,27.41.18,34.76.28,17.06,2.09,26,3.73,31.23,0,0,0,.06,0,.09.29.91.57,1.71.83,2.42,1.8,4.85,10.82,8.77,10.82,8.77h0l-.36-11.18s-1.3-45.54-.32-58.55,3.43-45.07,3.43-45.07a137.54,137.54,0,0,1-13-5.5h0l-.14-.07-.88-.45-1-.52a27.09,27.09,0,0,1-3.22-2c0,2.64,0,6.11-.05,10.15,0,.59,0,1.2,0,1.82C199.38,85.65,199.36,96.77,199.36,107.71Z" style="fill:#826b62"/><polygon points="206.75 146.3 201.68 185.97 226.04 199.87 228.49 198.23 228.49 166.51 206.75 146.3" style="fill:#1a4559"/><path d="M206.69,189.68l1.51.69.33.12a3.12,3.12,0,0,0-.71.61,1.68,1.68,0,0,0-.42,1c0,.65.91,1.2,1.52,1.5.32.15.55.24.55.24a1.92,1.92,0,0,0,.17.26,3.66,3.66,0,0,0,.75.78,2.1,2.1,0,0,0,1,.38,2.77,2.77,0,0,0,.71,0,.84.84,0,0,0,.18.32,1.77,1.77,0,0,0,1,.55c1,.27,9.2-.43,9.59-1.2s7.36-15.65,7.36-15.65-6.05-4.14-9.43-3.92-9.49,5-10.36,5.72-1.77,4.69-1.92,4.75-2.6.43-2.6.43S205.33,189,206.69,189.68Z" style="fill:#fa9778"/><path d="M230.24,179.32v-1.41s3.38,2.22,2.56,3.81-4.51,1.75-4.51,1.75Z" style="fill:#0b212e"/><path d="M232.87,181.54a7.85,7.85,0,0,0-2.63-2.22c-3.36-1.85-6-3.41-8.12-3.6a10,10,0,0,0-3.62.28l1.73-3.88a46.8,46.8,0,0,1,6.67-.7c2.78,0,6.82,5.39,6.82,5.39Z" style="fill:#f0efe6"/><path d="M213,109.65l.67,2.75.9,3.72.63,2.6.4,1.66,3.47,14.3.06.23-.3,1.14L218,139l.48.68.77,1.09.08.11-2.22,1.88,2.63,2.28v28.19a22,22,0,0,1,8.74.43,12.13,12.13,0,0,1,6.58,4.86l.94-38.13L234.87,139l2.45-4.07-2.25-2.5s-1.35-6.13-3.31-17.49c-.07-.41-.15-.84-.25-1.3s-.18-.84-.29-1.29c-.73-3.1-1.92-7-3.28-11.13l-.45-1.37c-.5-1.48-1-3-1.55-4.48-.17-.49-.34-1-.52-1.46-3.75-10.57-7.72-20.45-7.72-20.45Z" style="fill:#826b62"/><path d="M168.49,179.51s.32.9-4.1.73-6.21-1.75-6.21-1.75l-10.73,14.32L136,180.69l9.57-9.27s9.48,1,11.69,1.13,2.69,1.71,4.42,2.83C164.83,177.42,169.3,176.76,168.49,179.51Z" style="fill:#fa9778"/><polygon points="146.57 170.87 135.24 182.37 131.58 178.77 143.47 168.2 146.57 170.87" style="fill:#f0efe6"/><path d="M110.93,143.45,130.71,180l15.86-14.11-15-24.52,3.38-2-1.3-1.6L133,137l.41-.73,1.11-1.94.64-1.14L146.57,113,137.41,74.1s-5.66,11.44-11.1,23.15l-.55,1.18-.84,1.83-.54,1.18c-3.3,7.22-6.24,14-7.4,17.73C113.71,129.55,110.93,143.45,110.93,143.45Z" style="fill:#826b62"/><ellipse cx="182.81" cy="30.16" rx="1.56" ry="2.48" transform="translate(-1.9 44.72) rotate(-13.87)" style="fill:#0b212e"/><path d="M169.72,31.58c.28,1.18,1.11,2,1.84,1.81s1.1-1.27.81-2.45-1.11-2-1.84-1.82S169.44,30.4,169.72,31.58Z" style="fill:#0b212e"/><path d="M180.68,22.31h.14a.88.88,0,0,1,.33.07c.75.19,1.54.21,2.29.43A8.28,8.28,0,0,1,186,24.11c1,.73,0,2.43-1,1.69a7.92,7.92,0,0,0-2.1-1.09c-.82-.27-1.68-.22-2.5-.47C179.39,23.92,179.55,22.25,180.68,22.31Z" style="fill:#0b212e"/><path d="M169.49,25.11a5.83,5.83,0,0,1,1-.48,6,6,0,0,1,1.92-.38c1.27-.06,1.26,1.9,0,2a4,4,0,0,0-1.55.39c-.58.27-.9.85-1.63.76a1,1,0,0,1-1-1C168.22,25.92,169.35,25.19,169.49,25.11Z" style="fill:#0b212e"/><path d="M173.23,35c.15-.83,1.41-.47,1.26.35a2.28,2.28,0,0,0,1.2,2.44c1,.56,2.58,0,3.64,0,.84-.06.83,1.24,0,1.31-1.65.13-3.33.59-4.79-.46A3.6,3.6,0,0,1,173.23,35Z" style="fill:#0b212e"/><path d="M185.32,42.36s-8.38-.09-10.41,0a12.36,12.36,0,0,0-3.42.61s.92,3.85,6.07,3.07C180.7,45.56,185.32,42.36,185.32,42.36Z" style="fill:#fff"/><path d="M201.43,30.75a1.62,1.62,0,0,0-1.8-1.35c-1.51.21-2,3.89-2,3.89Z" style="fill:#0b212e"/><path d="M198.09,33s1.24.18,1.22,1-1.37,1.64-1.37,1.64Z" style="fill:#0b212e"/><path d="M152.6,368.21c.06-.39.15-.83.26-1.31.17-.79.42-1.71.74-2.79,1.47-4.82,2.87-8.5,2.87-8.5l.48-4.4a30.19,30.19,0,0,1,3.45-1.89c-.13-2.34-.17-4.69-.12-7-1.44,0-2.9,0-4.34,0l-.15-1.3,4.52,0c.07-2.07.18-4.13.32-6.2q-2.79-.39-5.61-.62l-.14-1.31c2,.14,3.9.36,5.84.63.42-5.62,1-11.24,1.28-16.88.58-11.46.15-23,.21-34.45q0-4.2.07-8.4c-1.68,1.4-3.37,2.78-5.08,4.12-.64.52-1.57-.36-.92-.92l.44-.38a.3.3,0,0,1,.11-.06q2.76-2.2,5.47-4.48c0-.72,0-1.45,0-2.18-3.53,3-7.73,6.32-8.13,5.89.57.62-.35,1.55-.92.93l-.1-.11a.67.67,0,0,1-.11-.79c.34-.71,1.15-1.13,1.74-1.61l3.81-3.11q1.86-1.53,3.73-3.05.41-28.37,1.86-56.7c0-.83,1.35-.84,1.31,0q-1.41,27.8-1.84,55.61l2.56-2.08c.65-.53,1.58.39.92.92-.38.32-1.77,1.52-3.5,3,0,.73,0,1.46,0,2.19q3.9-3.3,7.67-6.76c.62-.58,1.55.35.93.92-2.82,2.59-5.69,5.1-8.62,7.57q0,4.1-.08,8.21c-.07,11.48.26,23-.15,34.48-.22,6.13-.88,12.23-1.33,18.33,2.33.38,4.64.85,7,1.42l.89.22c.51-6.42.81-12.85,1-19.28.4-11.2,0-22.67,1.78-33.78.85-5.41,2.88-10.58,3.86-16,1.12-6.16,1.57-12.48,2.28-18.7,1.42-12.5,5.08-38.29,5.41-38h.07c.67-.89,1.39-1.75,2.15-2.59s1.48-1.47,2.25-2.17a2.64,2.64,0,0,0,.42-.46c-1.41-.28-2.82-.58-4.22-.88a.7.7,0,0,1-.85-.17c-2.75-.59-5.5-1.19-8.23-1.86a.56.56,0,0,1-.22-.09.69.69,0,0,1,0-1.09.62.62,0,0,1,.34-.1h1.48a.59.59,0,0,1,.6.46c2,.48,4,.93,6.07,1.36.25-.87.48-1.74.72-2.62-2.25-.47-4.51-1-6.76-1.47-.75-.17-.54-1.25.18-1.28l1.15,0a.54.54,0,0,1,.59.41c1.73.38,3.46.76,5.19,1.12.44-1.63.88-3.26,1.3-4.9-3.46-.79-6.92-1.61-10.39-2.42l-5.41-1.27c-.82-.2-.47-1.43.35-1.26l.7.14a.43.43,0,0,1,.12.05l4.3,1L186.85,192c.52-2,1-4,1.52-6q-5.81-3.06-11.71-5.94l-1.57-.77c-.68-.32-.2-1.39.5-1.19l1.15.33.57.16a.62.62,0,0,1,.46.57c3.66,1.78,7.31,3.63,10.92,5.52.48-2,1-4,1.42-6,.19-.82,1.45-.47,1.26.35q-.72,3.15-1.49,6.3,2.19,1.16,4.38,2.35c.38-1.34.78-2.68,1.17-4a.64.64,0,0,1,.17-.29.66.66,0,0,1,1.09.64l-1.26,4.31c.75.41,1.5.81,2.24,1.23s.08,1.54-.66,1.13l-1.95-1.07-1.19,4.06,1.11.25c.82.19.48,1.45-.35,1.26l-1.12-.26c-.45,1.57-.91,3.13-1.36,4.69q4.33.84,8.7,1.59c.83.15.48,1.41-.34,1.26-2.91-.49-5.81-1-8.7-1.59-.22.88-.4,1.8-.69,2.64q4.6.9,9.23,1.67c.84.14.48,1.4-.34,1.26-3.16-.52-6.31-1.1-9.45-1.71a4.27,4.27,0,0,1-.92,1.12,29.77,29.77,0,0,0-5.24,5.91l-.15.22s-.06,0-.08.09l-1.11,9.78a.41.41,0,0,1,0,.11q-1.38,12.21-2.77,24.41c-.63,5.56-1.16,11.15-1.92,16.69-.82,5.92-2.61,11.48-4,17.28s-1.4,11.95-1.62,17.9c-.24,6.38-.39,12.76-.62,19.15s-.54,12.62-1.07,18.91c1.67-1.34,3.14-2.42,5.52-2.32.82,0,1.63.11,2.45.18,0-4.84,1.74-9.51,3.05-14.12,3-10.64,4-21.74,5.81-32.63.62-3.89,1.35-7.75,2.14-11.62-1.51,1.17-3,2.37-4.48,3.51-.67.51-1.32-.63-.66-1.14,1.84-1.38,3.66-2.9,5.55-4.31,3.75-17.7,9-35.2,13.5-52.66a.66.66,0,0,1,1.27.35c-4.4,17-9.36,34-13.13,51.14a31.72,31.72,0,0,1,3.15-1.9c.75-.39,1.42.75.66,1.12a34.49,34.49,0,0,0-4.21,2.65c-.76,3.59-1.48,7.18-2.12,10.78-1.86,10.49-2.87,21.1-5.3,31.49-1.29,5.52-3.6,10.84-3.9,16.55,0,.31,0,.62,0,.94.62.08,1.23.16,1.85.27v1.35c-.6-.09-1.21-.18-1.81-.25a25.75,25.75,0,0,0,.3,2.61,8.4,8.4,0,0,1,1.51.3v.18l.62,1.48a10.1,10.1,0,0,0-1.83-.43,66.67,66.67,0,0,0,2.55,8.28c.16.45.33.89.48,1.34.29.79-1,1.13-1.26.34-.13-.35-.25-.71-.38-1.06a69.21,69.21,0,0,1-2.63-8.94,4.46,4.46,0,0,0-1.48.36l-7.9,3.59c-.21,1.82-.44,3.63-.68,5.45v0c-.11.7-.21,1.4-.31,2.1h0v0h0c.05.12.11.24.15.36h0c.11.26.2.51.3.78a73.5,73.5,0,0,1,2.79,12v6.42H152.37A10.17,10.17,0,0,1,152.6,368.21Zm41.28-179.33c-1.43-.78-2.88-1.56-4.32-2.32q-.7,2.85-1.44,5.71l4.48,1C193,191.83,193.45,190.36,193.88,188.88Zm-3,10.4c.46-1.58.91-3.16,1.37-4.73l-4.43-1q-.63,2.44-1.29,4.86C188,198.69,189.41,199,190.86,199.28Zm-1.09,3.89a18,18,0,0,0,.75-2.62l-4.36-.89-.72,2.62C186.88,202.58,188.33,202.89,189.77,203.17ZM170.91,342a60.88,60.88,0,0,1,8-3.61,3.9,3.9,0,0,1,.57-.13c-.15-.85-.27-1.7-.35-2.56,0-.07,0-.14,0-.21l-1.28-.14c-3.1-.3-4.67,1-6.91,2.71-.1,1.1-.19,2.21-.31,3.32A.67.67,0,0,1,170.91,342Zm-9.23,6.81c1.93-.75,4-1.24,5.49-.6a3.05,3.05,0,0,1,1.12,1,.44.44,0,0,1,.08.11c.32-2.26.59-4.53.83-6.8h-.57c-2.35-.08-4.69-.13-7-.17C161.56,344.46,161.57,346.62,161.68,348.77Zm7.95-10.69a.73.73,0,0,1,.06-.7c0-.25.05-.5.07-.76h0l-.84-.21c-2.31-.58-4.64-1.05-7-1.43q-.21,3-.32,6c2.36,0,4.71.09,7.06.17l.65,0C169.44,340.15,169.54,339.11,169.63,338.08Z" style="fill:#0b212e"/><path d="M147.45,199l0,1.33c2.74.56,5.49,1.1,8.24,1.6,2.56.46,5.29,1.31,7.91.91.83-.12.47-1.39-.35-1.26-3.36.52-7.65-1-11-1.61C150.69,199.68,149.07,199.35,147.45,199Z" style="fill:#0b212e"/><path d="M147.52,203.15l0,1.31,11.78.41c.84,0,.84-1.28,0-1.31Z" style="fill:#0b212e"/><path d="M200.4,213.06a79,79,0,0,0,13.33-3.59l.36-1.52a80,80,0,0,1-13.24,3.7.74.74,0,0,0-.33,0l-.47.14A.65.65,0,0,0,200.4,213.06Z" style="fill:#0b212e"/><polygon points="175.6 201.38 182.6 219.16 195.13 204.87 175.6 201.38" style="fill:#0b212e"/><path d="M152.6,368.21h19c.09,1.43.16,2.57.16,2.57h.86v-2.57h38.43l-.21-1.31H172.65v-2.54a73.5,73.5,0,0,0-2.79-12c-.1-.27-.19-.52-.3-.78h0c0-.12-.1-.24-.15-.36v0h0v0c0,.1.1.49.2,1.08.48,2.63,1.65,9.2,1.74,11.05,0,.91.13,2.24.21,3.52H152.86C152.75,367.38,152.66,367.82,152.6,368.21Z" style="fill:#355f74"/><path d="M160.3,353.76a22,22,0,0,1,8.32.5.66.66,0,0,1-.35,1.27,20.59,20.59,0,0,0-8-.46C159.46,355.18,159.48,353.87,160.3,353.76Z" style="fill:#355f74"/><path d="M159.32,356.68l.24,0h.05a21.84,21.84,0,0,1,9.14.3c.82.2.47,1.46-.35,1.26a20.57,20.57,0,0,0-8.73-.26C158.84,358.1,158.49,356.84,159.32,356.68Z" style="fill:#355f74"/><path d="M158.89,351.55c2.57-1.05,5.82-.69,8.49-.24.83.15.48,1.41-.35,1.27-2.42-.41-5.46-.72-7.8.23C158.45,353.13,158.12,351.86,158.89,351.55Z" style="fill:#355f74"/><path d="M186.4,356.86c1.54-.83,3.1-1.6,4.69-2.33l-.77-1.07c-1.31.6-2.59,1.24-3.86,1.91a.61.61,0,0,0-.49.15l-.36.31C185,356.33,185.77,357.2,186.4,356.86Z" style="fill:#355f74"/><path d="M184.31,354.64a48.76,48.76,0,0,0,4.89-2.76l-.76-1.08c-1.17.75-2.38,1.44-3.61,2.09a.61.61,0,0,0-.72.12c-.19.21-.39.4-.59.6C183,354.15,183.66,355,184.31,354.64Z" style="fill:#355f74"/><path d="M182.73,353.05c1.55-1.24,3.1-2.48,4.67-3.71l-.76-1.06c-1.62,1.27-3.23,2.56-4.83,3.85C181.15,352.65,182.08,353.58,182.73,353.05Z" style="fill:#355f74"/><path d="M160.28,195.9l.16-.06a.64.64,0,0,1,.63.17h0a26.06,26.06,0,0,0,3-.69l4.05-.85c.82-.18,1.17,1.08.35,1.26L162.71,197c-.89.19-2.18.83-2.82-.1A.67.67,0,0,1,160.28,195.9Z" style="fill:#0b212e"/><path d="M162.47,192.24l4.37-.82c.83-.15,1.18,1.11.35,1.26l-4.37.82C162,193.66,161.64,192.4,162.47,192.24Z" style="fill:#0b212e"/><path d="M199.36,114.91c0,1.09,0,2.18,0,3.27,3.71-8.74,7.82-24.49,12.31-32.87a.66.66,0,0,0-.24-.89,65.52,65.52,0,0,1-6.22-4.31l5.45-2.42a.64.64,0,0,0,.23-.89C209,74,206.43,71,204.68,67.94h0l-.14-.07-.88-.45-1-.52c1.64,3.51,4.43,6.77,6.66,10l-5,2.21a.62.62,0,0,0-.23.18c-1.63-1.32-3.2-2.73-4.7-4.21,0,.59,0,1.2,0,1.82a68.73,68.73,0,0,0,10.84,8.35C206.33,92.57,202.7,107.27,199.36,114.91Z" style="fill:#0b212e"/><path d="M158.21,94a156.81,156.81,0,0,0,12.37,25.6c0-.87,0-1.76-.05-2.64a144.52,144.52,0,0,1-9.78-20c-1.18-3-3.27-6.19-.87-9.28l4-5.06,5.76-7.42c0-.69,0-1.37-.05-2l-5.16,6.63-3.6-4.45c-1.69-2.1-1.71-2.18-.09-4.25a44.44,44.44,0,0,0,4-6l-.09,0c-.45.2-1.08.45-1.87.74a41.43,41.43,0,0,1-5.05,6.72.67.67,0,0,0,0,.92l5.9,7.31s0,0,0,0c-1,1.3-2,2.59-3,3.89-1.25,1.61-2.73,3.11-3.44,5C156.67,90.93,157.83,93,158.21,94Z" style="fill:#0b212e"/><path d="M145.37,100.11a52.6,52.6,0,0,1-.82,15.41c.12,1,.26,2.07.41,3.29,2.21-6.37,2.16-13.15,1.63-19.83-.55-6.91-1.51-13.73-4.52-20-.36-.76-1.49-.1-1.13.66C144,86,144.91,93.08,145.37,100.11Z" style="fill:#0b212e"/><path d="M213.63,112.4l.9,3.72a.64.64,0,0,0,.22-.44c.08-.89.16-1.78.26-2.67q6.51-5.87,12.93-11.81l-.45-1.37q-6,5.57-12.06,11a.77.77,0,0,0-.2-.13c.14-1.26.29-2.52.44-3.78a93.35,93.35,0,0,0,10.27-11.59c-.17-.49-.34-1-.52-1.46a108.51,108.51,0,0,1-9.52,11q1.2-9.61,3-19.15c.15-.82-1.1-1.17-1.26-.35-1.32,6.92-3.7,25.11-3.82,26.28A2.53,2.53,0,0,0,213.63,112.4Z" style="fill:#0b212e"/><path d="M119.74,136.13a1.1,1.1,0,0,0,.91,0c4.24-.18,9.11-.19,13,1.64L133,137l.41-.73c-3.95-1.57-8.7-1.58-12.83-1.4a.48.48,0,0,0-.12,0l-.55,0A.65.65,0,0,0,119.74,136.13Z" style="fill:#0b212e"/><path d="M121.22,131.63a21.55,21.55,0,0,1,13.3,2.66l.64-1.14a22.59,22.59,0,0,0-13.94-2.83C120.39,130.42,120.38,131.73,121.22,131.63Z" style="fill:#0b212e"/><path d="M124.38,101.44,137.65,107c.78.32,1.12-1,.35-1.27l-13.08-5.47Z" style="fill:#0b212e"/><path d="M125.76,98.43l11.69,4.84c.78.32,1.12-1,.34-1.26l-11.48-4.76Z" style="fill:#0b212e"/><path d="M215.16,118.72l.4,1.66a.65.65,0,0,0,.06-.21c.06-.57,4.49-2.09,4.66-2.17,1.55-.64,3.1-1.28,4.66-1.89,2.18-.85,4.36-1.68,6.57-2.49-.08-.41-.18-.84-.29-1.29q-5.68,2.07-11.29,4.42C218.68,117.28,216.41,117.7,215.16,118.72Z" style="fill:#0b212e"/><path d="M218.79,136.05a28.75,28.75,0,0,1,13.78.6.65.65,0,0,0,.35-1.26,30.33,30.33,0,0,0-13.89-.71l.06.23Z" style="fill:#0b212e"/><path d="M218.49,139.64l.77,1.09a29.08,29.08,0,0,1,11-1.84.66.66,0,0,0,0-1.31A30.34,30.34,0,0,0,218.49,139.64Z" style="fill:#0b212e"/><path d="M145.09,151.73c.65-1.08,1.31-2.16,2-3.23A190.7,190.7,0,0,1,161.9,128c.54-.64-.38-1.58-.92-.93a194.33,194.33,0,0,0-13.93,19c-.46.72-.92,1.44-1.36,2.16C145.5,149.34,145.3,150.5,145.09,151.73Z" style="fill:#0b212e"/><path d="M146.66,136.9h0c0,.19,0,.37,0,.56,0,.72.09,1.45.13,2.17,0,.14,0,.27,0,.41q3.74-9.72,7.5-19.44c.3-.78-1-1.12-1.26-.34Q149.88,128.58,146.66,136.9Z" style="fill:#0b212e"/><path d="M131.84,141.74a85.88,85.88,0,0,1-8.91,2.63,1,1,0,0,1-.34,0,.57.57,0,0,1-.49.24.66.66,0,0,1,0-1.31.66.66,0,0,1,.15,0,.56.56,0,0,1,.33-.21,86.07,86.07,0,0,0,12.26-3.9Z" style="fill:#0b212e"/><polygon points="206.84 146.91 206.84 184.5 203.27 185.51 206.84 146.91" style="fill:#f9f8ef"/><polygon points="206.75 146.3 201.68 185.97 203.27 185.51 206.84 146.91 206.88 146.43 206.75 146.3" style="fill:#0b212e"/><path d="M207.82,191.1a6.21,6.21,0,0,0,5.31-5.22c0-.42-.63-.42-.66,0-.12,2-2.18,4-4.27,4.49l.33.12A3.12,3.12,0,0,0,207.82,191.1Z" style="fill:#0b212e"/><path d="M208.92,193.63c.32.15.55.24.55.24a1.92,1.92,0,0,0,.17.26c.66-.18,1.3-.48,1.94-.7l3.24-1.15c.4-.15.23-.78-.17-.64l-3.24,1.16A15.16,15.16,0,0,1,208.92,193.63Z" style="fill:#0b212e"/><path d="M211.43,195.29a2.77,2.77,0,0,0,.71,0,.84.84,0,0,0,.18.32,16.28,16.28,0,0,1,4.53-1.33c.41-.05.42-.7,0-.65A18.93,18.93,0,0,0,211.43,195.29Z" style="fill:#0b212e"/><path d="M34.45,25.55c-.4.61-4.83,4.13-5.13,21.82s5.43,34.48,5.93,34.48,20.91-8.64,20.31-9S34.45,25.55,34.45,25.55Z" style="fill:#feedc5"/><path d="M42.32,81.27a57.93,57.93,0,0,1-8.75-33.4c0-.78-1.18-.78-1.21,0a59.11,59.11,0,0,0,8.92,34C41.69,82.54,42.74,81.94,42.32,81.27Z" style="fill:#f5cb99"/><path d="M48.24,81.23a101,101,0,0,1-5.41-14.3c-1.4-4.75-3.32-10.54-2.19-15.48.17-.76-1-1.08-1.16-.32-1.13,4.93.6,10.3,1.89,15.06A96.23,96.23,0,0,0,47.2,81.84C47.53,82.55,48.56,81.93,48.24,81.23Z" style="fill:#f5cb99"/><path d="M103,146.19c0,9.65-11.26,40.22-11.26,40.22L89,173.74l4-7L90.15,149l-.33-1.11-2.49-8.2,1.61-3.9-1.61-1L82.1,108.59l8.05-28.75,9,40s3.56,15.56,3.8,25.32C103,145.52,103,145.86,103,146.19Z" style="fill:#fa9778"/><path d="M103,145.17a41.42,41.42,0,0,0-5.6-.46,11.48,11.48,0,0,0-7.57,3.13l-2.21-7.27-.28-.93.13-.33.72-1.73.76-1.84,0,0-1.57-1L82.1,108.59l8.05-28.75L94.59,99.5l.29,1.25.7,3.13.27,1.18,3.34,14.79S102.75,135.41,103,145.17Z" style="fill:#41515e"/><path d="M34,133.68c-.11,0-1.87,8.84-4.15,20.48C25.36,176.77,19,210,19,210l-1,21.17h-6.5L6.91,215.06l4.55-22.19s1.38-16.72,1.38-30.52c0-.84,0-1.7.05-2.59.51-13.62,4.77-31.71,4.77-31.71V114.63a67.81,67.81,0,0,1,.95-9.73c.06-.41.12-.82.19-1.23s.15-.89.22-1.34.14-.8.21-1.2C21.11,90.46,24,79,24,79s9.2,27.59,8.84,30.31S34.25,133.63,34,133.68Z" style="fill:#fa9778"/><path d="M14.08,209.73c0-.77-1.24-.78-1.21,0A102.79,102.79,0,0,0,14.21,223c.13.77,1.29.44,1.16-.32A101.55,101.55,0,0,1,14.08,209.73Z" style="fill:#0b212e"/><path d="M34,133.68c-.11,0-1.87,8.84-4.15,20.48l-3.39,11.09-13.52-5.49c.51-13.62,4.77-31.71,4.77-31.71V114.63a67.81,67.81,0,0,1,.95-9.73c.06-.41.12-.82.19-1.23s.15-.89.22-1.34.14-.8.21-1.2C21.11,90.46,24,79,24,79s9.2,27.59,8.84,30.31S34.25,133.63,34,133.68Z" style="fill:#41515e"/><path d="M63.61,340.82H61l2,8.25-1.61,1.71,1.81,10.53,2,.68,3.22,8.79H48.53V367H32.84l-.9-6.23,3.31-2.61h0l.09-5.23,4.13-8.35-1.21-15.38-2-1.91-8-57.4,2.41-4.17-14.48-69L19,183l1.15-5.64,9.32-45.54L24,79S40.08,72.21,44,65.94a4.8,4.8,0,0,0,.87-2.79c-.41-6.84-1.21-15.08-1.21-15.08l15.68-2.8L60.79,63l3.06,1.76,26.3,15.13L80.09,133.68,89,173.74l1,4.31,1.84,8.36L70,271.46l2.61,9.65Z" style="fill:#fa9778"/><polygon points="38.27 329.16 41.79 345.05 45.51 349.95 48.53 360.64 51.09 354.6 51.54 339.77 49.63 339.62 49.63 328.46 38.27 329.16" style="fill:#995647"/><path d="M89,173.74l1,4.31-19,9.76-41.69,1L19,183l1.15-5.64L21.61,170l7.81-38.18L24,79S40.08,72.21,44,65.94l8,12.67.71,1.14,3.85,6.12,2.13-6.21L59.27,78h0l4.58-13.3,3,1.71L90.15,79.84,80.09,133.68,88,169.21Z" style="fill:#f9f8ef"/><path d="M70.36,161.58s-.75,5.64,7.17,8.71,11,1.74,11,1.74l-1.32-6Z" style="fill:#0b212e"/><path d="M42.68,160.62s-2,7.49-8.7,10.86c-3.7,1.87-12.95,1.39-12.95,1.39l.58-2.87Z" style="fill:#0b212e"/><path d="M52.72,79.75Q50.25,83.79,48,88c-.37.69-1.41.08-1-.61q2.37-4.44,5-8.74Z" style="fill:#0b212e"/><path d="M62.2,88.65a90.85,90.85,0,0,0-3.5-9L59.27,78a95.49,95.49,0,0,1,4.1,10.32C63.61,89.07,62.44,89.39,62.2,88.65Z" style="fill:#0b212e"/><path d="M48.53,370.78V367H32.84l-.9-6.23,3.31-2.61h0a38.11,38.11,0,0,1,6.08-.41,49.07,49.07,0,0,1,7.84,1.21v1.21s2.19-.08,5,0a84.53,84.53,0,0,1,9,1.18l2,.68,3.22,8.79Z" style="fill:#0b212e"/><path d="M70,271.46l2.61,9.65-9,59.71H61l-11.36-1.2V328.46l-1,.57-4.87,2.75-5.48-2.62-2-1.91-8-57.4,2.41-4.17-14.48-69,4-19.32A278.33,278.33,0,0,0,51.56,180h1.21c1.47,0,2.92,0,4.33-.05s2.81-.12,4.17-.22l1.29-.11A99.82,99.82,0,0,0,89,173.74l2.8,12.67Z" style="fill:#41515e"/><path d="M63.86,277.65l-6.48,60c-.08.78,1.13.77,1.21,0l6.48-60C65.15,276.88,64,276.88,63.86,277.65Z" style="fill:#0b212e"/><path d="M44,65.94v82c0,11.43-1.95,16.86-6,19.58-3.2,2.12-12.55,2.42-16.41,2.44l7.81-38.18L24,79s4.41-1.87,9.17-4.55c.49-.27,1-.56,1.46-.85C38.51,71.35,42.36,68.6,44,65.94Z" style="fill:#41515e"/><path d="M34.85,95.35a38.16,38.16,0,0,1-1.57-13.3l5.2-1.83c.73-.25.42-1.42-.32-1.16l-4.79,1.68a41.9,41.9,0,0,1,1.25-7.1c-.48.29-1,.58-1.46.85a42,42,0,0,0,.53,21.18c1.75,6.22,5.25,12.78,10.35,17.08v-1.61C39.54,107,36.6,101,34.85,95.35Z" style="fill:#0b212e"/><path d="M80.09,133.68,88,169.21c-15.18-.86-21.13-7.29-21.13-23.07V66.42l12,6.88,1.36.78,10,5.76Z" style="fill:#41515e"/><path d="M79.17,97a39.93,39.93,0,0,1-5.41,11.7c-1.79,2.54-3.75,5.47-6.94,6.18v-1.24c3.66-1.08,6.3-5.76,8-8.91a41.65,41.65,0,0,0,4-10.92,55.1,55.1,0,0,0,0-20.48c-.26-1.53-.58-3-.94-4.55-.18-.76,1-1.08,1.17-.32.44,1.86.82,3.75,1.13,5.65C81.37,81.69,81.38,89.56,79.17,97Z" style="fill:#0b212e"/><polygon points="13.86 220.7 18.47 220.42 20.62 241.08 17.96 241.99 12.87 231.19 13.86 220.7" style="fill:#f5cb99"/><path d="M52.65,55s-13.38,2.81-16.09,1.81S31,49.48,31,37.31a33.69,33.69,0,0,1,.2-3.67c.05-.48.12-.94.19-1.38,1.28-7.56,5.3-8.67,5.65-8.92,6.33-4.52,13.87,1.81,14.27,2.21S52.65,55,52.65,55Z" style="fill:#fa9778"/><path d="M37.89,57l14.76,1.13v-9.8S51,56.64,37.89,57Z" style="fill:#0b212e"/><path d="M80.5,74.3s.39,6.65-2,11.67a16.1,16.1,0,0,1-6.94,7.14s1.21-6.94-1.1-11.26A14.92,14.92,0,0,0,68,78.72c-.35-.35-.72-.72-1.12-1.09-1-.95-2.1-1.95-3.25-3-.58-.52-1.17-1-1.76-1.6A44.92,44.92,0,0,1,54,64.16c-4.53-7.34-4.23-34.59-8.85-39.48-4.44-4.69-9.68-.38-10.11,0a14.5,14.5,0,0,1,8.09-4.94A24.8,24.8,0,0,1,47.18,19a34.8,34.8,0,0,1,7.57.11c.85.11,1.68.24,2.49.4h0a28,28,0,0,1,5,1.47,14.62,14.62,0,0,1,2,1,10,10,0,0,1,.93.59c6,4.3,9.35,16.11,10.06,22.76S78,63,80.89,67.27a18.85,18.85,0,0,1,3.06,9Z" style="fill:#feedc5"/><path d="M33.6,33.54a2.81,2.81,0,0,0-2.37.1c.05-.48.12-.94.19-1.38a3.12,3.12,0,0,1,3,.43C35,33.25,34.25,34,33.6,33.54Z" style="fill:#0b212e"/><path d="M37.13,43.86c-.85.12-2.78,0-2.33-1.39.25-.74-.92-1-1.16-.32a2.16,2.16,0,0,0,.72,2.31,3.82,3.82,0,0,0,3.09.57C38.22,44.92,37.89,43.76,37.13,43.86Z" style="fill:#0b212e"/><path d="M44.16,45.93c-.39,2.2-3.9,3-5.69,2.86-.78,0-.77,1.16,0,1.2,2.34.13,6.37-1,6.85-3.74C45.46,45.49,44.3,45.16,44.16,45.93Z" style="fill:#0b212e"/><path d="M44,36.91c.31,1.13-.09,2.21-.89,2.43s-1.69-.52-2-1.65A1.88,1.88,0,0,1,42,35.26C42.78,35.05,43.67,35.79,44,36.91Z" style="fill:#0b212e"/><path d="M35.28,38.11c.3,1.11.07,2.13-.52,2.29s-1.29-.61-1.59-1.72-.07-2.12.51-2.28S35,37,35.28,38.11Z" style="fill:#0b212e"/><path d="M45.42,31.22A5.83,5.83,0,0,0,39,32c-.6.5.26,1.35.85.85a4.54,4.54,0,0,1,5-.62C45.51,32.61,46.12,31.57,45.42,31.22Z" style="fill:#0b212e"/><path d="M63.58,74.63c-.58-.52-1.17-1-1.76-1.6a31.17,31.17,0,0,1-1.53-9.12q-.12-8.8-1.08-17.57c-.68-6.15-1.73-12.57-4.87-18a24.26,24.26,0,0,0-5.19-6.55,7.65,7.65,0,0,0-5.76-2.08h-.3A24.8,24.8,0,0,1,47.18,19a5,5,0,0,1,1.18.66,23,23,0,0,1,5,4.89,37.36,37.36,0,0,1,6.32,16,146,146,0,0,1,1.79,18.89c.12,3.67-.18,7.53.77,11.11A34.54,34.54,0,0,0,63.58,74.63Z" style="fill:#f5cb99"/><path d="M69.06,63.94a.54.54,0,0,1-.36.4c-.06,4.8-.32,9.61-.75,14.38-.35-.35-.72-.72-1.12-1.09a171.79,171.79,0,0,0-.23-31.91c-.95-9.24-3.5-21.27-11.85-26.62.85.11,1.68.24,2.49.4h0c6.36,5.4,9.09,14.89,10.17,22.87a144.74,144.74,0,0,1,1.27,17.18A59.86,59.86,0,0,0,68.41,38c-1.15-5.69-2.89-11.94-6.11-17a14.62,14.62,0,0,1,2,1A53,53,0,0,1,69.77,38.7,64.42,64.42,0,0,1,69.06,63.94Z" style="fill:#f5cb99"/><path d="M64,134c-1.45,1.18-2.85,2.44-4.28,3.65-.59.51.27,1.36.86.85,1.42-1.21,2.82-2.47,4.28-3.65C65.47,134.41,64.61,133.56,64,134Z" style="fill:#0b212e"/><path d="M64.08,138.19A14,14,0,0,0,61,141c-.48.6.37,1.46.85.85a12.85,12.85,0,0,1,2.79-2.62C65.32,138.79,64.72,137.75,64.08,138.19Z" style="fill:#0b212e"/><path d="M94.88,100.75c-2,1.21-3.91,2.47-5.82,3.76-.65.43-1.25-.61-.61-1,2-1.36,4.07-2.69,6.14-4Z" style="fill:#0b212e"/><path d="M95.85,105.06A43.54,43.54,0,0,0,89.63,108a.6.6,0,0,1-.6-1,44.35,44.35,0,0,1,6.55-3.08Z" style="fill:#0b212e"/><path d="M96.52,132l-.86.8a.55.55,0,0,1-.49.14.58.58,0,0,1-.23.13c-2.23,1.51-4.46,3.09-6.76,4.49l.76-1.84,0,0c2.33-1.5,4.61-3.14,6.89-4.64C96.37,130.69,97,131.56,96.52,132Z" style="fill:#0b212e"/><path d="M98.71,135.47l-11.1,5.1-.28-.93.13-.33,9.86-4.53a.63.63,0,0,1,.31-.23l.61-.18C98.88,134.17,99.33,135.18,98.71,135.47Z" style="fill:#0b212e"/><path d="M26.43,105.29l-.4-.19a63,63,0,0,0-7-2.77c.06-.4.14-.8.21-1.2a61.6,61.6,0,0,1,6.8,2.63l.24.11C26.32,104.32,26.37,104.79,26.43,105.29Z" style="fill:#0b212e"/><path d="M26.78,108.59l-.74-.33-2.15-1-5.28-2.38c.06-.41.12-.82.19-1.23l6.74,3,.5.21.58.22C26.67,107.61,26.73,108.09,26.78,108.59Z" style="fill:#0b212e"/><path d="M29.41,131.73c-1.16-.67-2.32-1.33-3.49-2-1.82-1.05-3.64-2.08-5.47-3.12a.6.6,0,0,1,.61-1l4.88,2.77,3.3,1.88C29.33,131,29.39,131.52,29.41,131.73Z" style="fill:#0b212e"/><path d="M28.39,136.88l-.25,1.2c-.95-.41-1.91-.84-2.85-1.3-1.51-.71-3-1.47-4.44-2.28-.69-.38-.08-1.42.61-1,1.3.71,2.61,1.4,3.95,2C26.39,136,27.38,136.45,28.39,136.88Z" style="fill:#0b212e"/><path d="M32.26,191.66l-.62,0a.51.51,0,0,0-.47.22.55.55,0,0,0-.51.55A18.17,18.17,0,0,1,24.58,194c-.77.07-.77,1.27,0,1.2a19.7,19.7,0,0,0,8-2.45A.61.61,0,0,0,32.26,191.66Z" style="fill:#0b212e"/><path d="M31.52,196a11.44,11.44,0,0,1-4.12,1.16c-.78,0-.78,1.23,0,1.2A12.92,12.92,0,0,0,32.13,197C32.85,196.68,32.23,195.65,31.52,196Z" style="fill:#0b212e"/><path d="M73.36,200.91a2.16,2.16,0,0,1-1.69.33.53.53,0,0,1-.38-.18q-9.36.36-18.71.85l-.45,52c-.06,6.55.13,13.16-.3,19.7-.4,6.11-1.31,12.16-1.49,18.3-.4,13.07-.61,39.57-.71,39.66-.79-3.88-.94-27.3-.5-39.66.23-6.5,1.3-12.91,1.56-19.4.24-6.19.18-12.4.23-18.6L51.37,202q-5.84.32-11.68.67c-.78.05-.78-1.16,0-1.21q5.85-.36,11.69-.67l0-2.76-9.49.59c-.78,0-.77-1.16,0-1.21l8.92-.55a.56.56,0,0,1,.09-.94l.51-.26L51.56,180h1.21l-.13,15c2.23-1,5.53-2.58,5.54-3.88,0-2.15,1-4.47,1.63-6.52.48-1.64,1-3.28,1.46-4.9l1.29-.11-.33,1.07c-1.1,3.66-2.8,7.67-2.86,11.53a.6.6,0,0,1-.29.52l-6.45,3.54v.39l18-1.11a.61.61,0,0,1,.31,1.12,3.29,3.29,0,0,1-2.3.51.62.62,0,0,1-.46-.27l-15.56,1,0,2.77q10.23-.54,20.46-.91A.6.6,0,0,1,73.36,200.91Z" style="fill:#0b212e"/><path d="M66.7,263.71v-.11a.59.59,0,0,0-.58-.44c-1.25,0-2.09,2-2.71,2.89a64.74,64.74,0,0,0-3.48,5.52.6.6,0,0,0,1,.61q1.17-2.07,2.48-4.05c.43-.66.88-1.31,1.34-2a19.21,19.21,0,0,1,1.11-1.64.49.49,0,0,0,.42-.06l.12-.08A.62.62,0,0,0,66.7,263.71Z" style="fill:#0b212e"/><path d="M65.71,269.55a22.83,22.83,0,0,1-2.93,4.7c-.48.6.36,1.46.85.85a24,24,0,0,0,3.13-4.94C67.08,269.46,66,268.85,65.71,269.55Z" style="fill:#0b212e"/><path d="M43,275.75a31.89,31.89,0,0,1-6.4-3.93c-.61-.47-1.21.58-.6,1.05a32,32,0,0,0,6.39,3.92C43.1,277.11,43.72,276.07,43,275.75Z" style="fill:#0b212e"/><path d="M42.79,281l-5.09-4c-.6-.47-1.46.38-.85.86l5.08,4C42.54,282.32,43.4,281.47,42.79,281Z" style="fill:#0b212e"/><path d="M83,190q-3.1-1.37-6.29-2.57c-.73-.28-1,.89-.32,1.16q3,1.14,6,2.45C83.06,191.31,83.67,190.27,83,190Z" style="fill:#0b212e"/><path d="M82.5,186.79,78,184.54c-.7-.35-1.31.69-.61,1l4.53,2.26C82.59,188.18,83.2,187.14,82.5,186.79Z" style="fill:#0b212e"/><path d="M29.42,131.82l-1,5.06-.25,1.2-5.71,28,2.86-29.26.12-1.27.51-5.3v-.46c0-.32,0-.79,0-1.39,0-3.9.1-13.19.1-20.1v-1.34c0-.64,0-1.25,0-1.82v-1.34c0-1.08,0-2,0-2.64.07.68.16,1.62.28,2.75.05.45.1.92.16,1.42s.12,1.2.19,1.85c.05.47.11,1,.16,1.45.83,7.51,2,17.77,2.46,21.65.09.76.15,1.28.17,1.49A.62.62,0,0,1,29.42,131.82Z" style="fill:#0b212e"/><path d="M49.18,360.13v-4l1.91-3.3v-13l1.14.12,0,12.95Z" style="fill:#0b212e"/><polygon points="49.18 360.13 48.53 366.96 48.53 370.78 49.83 370.78 49.18 360.13" style="fill:#2e576b"/><path d="M20.1,177.36s16.41,6.83,31.94,7.11,31.24-8.79,31.24-8.79a117,117,0,0,1-30.51,4.37A224.13,224.13,0,0,1,20.1,177.36Z" style="fill:#0b212e"/><path d="M44,307.48q-.43-9.72-1-19.43c0-.78-1.25-.78-1.2,0q.7,11.88,1.19,23.79l-4.12,17.58,4.93,2.36,5.88-3.32,1.07-49.77Z" style="fill:#0b212e"/><polygon points="45.31 194.78 68.93 193.84 51.69 208.5 45.31 194.78" style="fill:#0b212e"/><polygon points="83.28 115.53 83.28 108.09 88.57 111.41 85.92 116.23 87.33 134.73 83.28 115.53" style="fill:#0b212e"/><path d="M87.08,87.93q-1.35,9.19-3.41,18.26c-.18.76,1,1.08,1.16.32q2.06-9.06,3.41-18.26C88.35,87.49,87.19,87.16,87.08,87.93Z" style="fill:#0b212e"/><path d="M25.86,97.59c.09-.11-.21-.71-.27-1-.14-.72-.23-1.44-.31-2.17a24.41,24.41,0,0,1-.06-4.1c.05-.78-1.16-.78-1.2,0a27.32,27.32,0,0,0,.19,5.27c.11.82.08,2.51.89,3a.6.6,0,0,0,.82-.22l0-.08A.62.62,0,0,0,25.86,97.59Z" style="fill:#0b212e"/><path d="M38.16,126.19l-4.92-7.48c-.43-.65-1.47,0-1,.61l4.91,7.48C37.54,127.44,38.59,126.84,38.16,126.19Z" style="fill:#0b212e"/><path d="M39,130.94l-2.57-3.16c-.49-.6-1.34.26-.85.85l2.57,3.16C38.68,132.4,39.53,131.54,39,130.94Z" style="fill:#0b212e"/></g></g></svg>