<svg xmlns="http://www.w3.org/2000/svg" xmlns:xlink="http://www.w3.org/1999/xlink" viewBox="0 0 422.42 295.61"><defs><style>.cls-1{isolation:isolate;}.cls-2{fill:#f2eaf4;}.cls-3{fill:#f7b75c;}.cls-4,.cls-6{fill:#b9b9f1;}.cls-4,.cls-46,.cls-64{opacity:0.7;}.cls-12,.cls-13,.cls-14,.cls-22,.cls-25,.cls-4,.cls-41,.cls-46,.cls-52,.cls-61,.cls-64,.cls-7{mix-blend-mode:multiply;}.cls-46,.cls-5{fill:#cdcdf7;}.cls-12,.cls-7{opacity:0.35;}.cls-12,.cls-8{fill:#5851bc;}.cls-9{fill:#9393d8;}.cls-10{fill:#eaeaea;}.cls-11{fill:#fff;}.cls-13,.cls-14{opacity:0.5;}.cls-13{fill:url(#Безымянный_градиент_6);}.cls-14{fill:url(#Безымянный_градиент_6-2);}.cls-15{opacity:0.55;mix-blend-mode:screen;}.cls-16{fill:#214ebe;}.cls-17{fill:#f39f86;}.cls-18{fill:#1548ad;}.cls-19{fill:#f7b75e;}.cls-20{fill:#132555;}.cls-21{fill:#0c1e47;}.cls-22,.cls-26{fill:#ce4a30;}.cls-22,.cls-25{opacity:0.25;}.cls-23{fill:#a4a4f7;}.cls-24{fill:#7a74d1;}.cls-27,.cls-30{fill:none;}.cls-27{stroke:#a4a4f7;stroke-miterlimit:10;opacity:0.45;}.cls-28{fill:#e4e9ff;}.cls-29{fill:#2342a7;}.cls-31{fill:#42666e;}.cls-32{fill:#d7d8da;}.cls-33{fill:#ccb285;}.cls-34{fill:#c6a673;}.cls-35{fill:#e59e4a;}.cls-36{fill:#557f87;}.cls-37{fill:#112353;}.cls-38{fill:#f2f2f2;}.cls-39{fill:#e1fbff;}.cls-40{fill:#9999d6;}.cls-42{fill:#f9dfd0;}.cls-43{fill:#e29a44;}.cls-44{fill:#4b4b5e;}.cls-45{fill:#f4f4f4;}.cls-47{fill:#35aad3;}.cls-48{fill:#62c4d1;}.cls-49{fill:#8ce9fb;}.cls-50{fill:#16405a;}.cls-51{fill:#103649;}.cls-52{fill:#bec4cc;opacity:0.67;}.cls-53{fill:#f29d77;}.cls-54{fill:#fc9549;}.cls-55{fill:#fcded6;}.cls-56{fill:#1a1a1a;}.cls-57{fill:#bbbdbf;}.cls-58{fill:#ed4a23;}.cls-59{fill:#9e9e9e;}.cls-60{fill:#473b4c;}.cls-61{fill:#7f7f7f;opacity:0.4;}.cls-62{fill:#f2a181;}.cls-63{fill:#fff2ee;}.cls-65{fill:#e58d6e;}</style><linearGradient id="Безымянный_градиент_6" x1="215.46" y1="356.66" x2="215.46" y2="272.2" gradientUnits="userSpaceOnUse"><stop offset="0.01" stop-color="#ffd819"/><stop offset="1" stop-color="#feb744"/></linearGradient><linearGradient id="Безымянный_градиент_6-2" x1="195.67" y1="230.06" x2="339.92" y2="230.06" xlink:href="#Безымянный_градиент_6"/></defs><title>2176754</title><g class="cls-1"><g id="OBJECT"><path class="cls-2" d="M83.91,275.16a6.9,6.9,0,0,0,6.9,6.89h41.9a9.27,9.27,0,0,0,0-18.54h0a12.43,12.43,0,0,0-24-4.12,11,11,0,0,0-14.93,9.54,6.9,6.9,0,0,0-9.86,6.23Z" transform="translate(-59.68 -81.87)"/><path class="cls-3" d="M261.61,129.77a1.63,1.63,0,0,1-1.64-1.63V83.51a1.64,1.64,0,1,1,3.27,0v44.63A1.63,1.63,0,0,1,261.61,129.77Z" transform="translate(-59.68 -81.87)"/><path class="cls-3" d="M293.6,135.91a1.56,1.56,0,0,1-.85-.25,1.64,1.64,0,0,1-.54-2.25l23.45-38a1.64,1.64,0,0,1,2.79,1.72l-23.45,38A1.65,1.65,0,0,1,293.6,135.91Z" transform="translate(-59.68 -81.87)"/><path class="cls-3" d="M229.61,135.91a1.65,1.65,0,0,1-1.4-.78l-23.44-38a1.63,1.63,0,0,1,2.78-1.72l23.45,38a1.64,1.64,0,0,1-.53,2.25A1.61,1.61,0,0,1,229.61,135.91Z" transform="translate(-59.68 -81.87)"/><path class="cls-2" d="M397.44,184.55a9.66,9.66,0,0,0-4.2,1A15.51,15.51,0,0,0,372.12,172a17.6,17.6,0,0,0-34,5.82h0a13.13,13.13,0,0,0,0,26.25h59.31a9.77,9.77,0,0,0,0-19.53Z" transform="translate(-59.68 -81.87)"/><path class="cls-2" d="M158,169a5,5,0,0,0-2.12.48,7.84,7.84,0,0,0-7.84-7.36,8,8,0,0,0-2.85.53A8.9,8.9,0,0,0,128,165.57h0a6.64,6.64,0,0,0,0,13.28h30a4.94,4.94,0,0,0,0-9.88Z" transform="translate(-59.68 -81.87)"/><polygon class="cls-4" points="287.54 61.27 273.17 76.16 273.33 71.03 287.54 61.27"/><polygon class="cls-5" points="265.86 68.51 280.95 74.72 287.54 61.27 265.86 68.51"/><polygon class="cls-4" points="287.54 61.27 271.3 70.75 273.17 76.16 274.45 72.05 287.54 61.27"/><rect class="cls-6" x="183.97" y="164.88" width="40.89" height="1.13" transform="matrix(0.76, -0.65, 0.65, 0.76, -118.13, 91.07)"/><path class="cls-5" d="M188.81,162.25l14.75,3.46L193,152.43a3.38,3.38,0,1,1,.39-4.79,3.39,3.39,0,0,1-.39,4.79l0,0,11.15,12.76s-1-10.44-1.18-15.61c-3.6-2-13.47-8.49-16.19-10.87l-.88-.77s2.35-1.78-6.47,5.78c.21.29.43.62.67,1C183.66,149.93,188.81,162.25,188.81,162.25Z" transform="translate(-59.68 -81.87)"/><path class="cls-6" d="M174,143.23l2.31,2.7a1.21,1.21,0,0,0,1.7.13l10.84-9.3a1.2,1.2,0,0,0,.18-1.63l0-.07-2.31-2.7a1.21,1.21,0,0,0-1.7-.13l-10.84,9.3A1.2,1.2,0,0,0,174,143.23Z" transform="translate(-59.68 -81.87)"/><g class="cls-7"><path class="cls-8" d="M174,143.23l2.31,2.7a1.21,1.21,0,0,0,1.7.13l10.84-9.3a1.2,1.2,0,0,0,.18-1.63c-8.48,8.19-10.94,4.88-11.52,3.5l-3.38,2.9A1.2,1.2,0,0,0,174,143.23Z" transform="translate(-59.68 -81.87)"/></g><path class="cls-6" d="M193.22,169.61a15,15,0,0,0,16.53-15.3,19.92,19.92,0,0,0-5-13.14l-.85.73a18.81,18.81,0,0,1,4.68,12.4,14.32,14.32,0,0,1-4.86,10.93c-6.42,5.5-16.77,4-23.09-3.37l-.85.73A19.82,19.82,0,0,0,193.22,169.61Z" transform="translate(-59.68 -81.87)"/><path class="cls-6" d="M218.89,153a1.37,1.37,0,1,0,2.08-1.79,1.37,1.37,0,0,0-2.08,1.79Z" transform="translate(-59.68 -81.87)"/><path class="cls-6" d="M203.33,142.55a1.37,1.37,0,1,0,.15-1.94A1.36,1.36,0,0,0,203.33,142.55Z" transform="translate(-59.68 -81.87)"/><path class="cls-6" d="M179.42,163.13a1.37,1.37,0,1,0,.15-1.93A1.37,1.37,0,0,0,179.42,163.13Z" transform="translate(-59.68 -81.87)"/><path class="cls-6" d="M187.85,179.65a1.38,1.38,0,1,0,.15-1.93A1.38,1.38,0,0,0,187.85,179.65Z" transform="translate(-59.68 -81.87)"/><path class="cls-9" d="M176.7,292.07l-2.59-6.85,6.85-2.58,2.59,6.85Zm-1.13-6.19,1.78,4.74,4.74-1.79-1.79-4.74Z" transform="translate(-59.68 -81.87)"/><path class="cls-9" d="M181,287.34a4.07,4.07,0,0,1-3.81-2.63,4,4,0,0,1,.1-3.11,4,4,0,0,1,5.38-2,4.06,4.06,0,0,1-1.67,7.77Zm0-7a2.94,2.94,0,0,0-2.68,1.73,2.93,2.93,0,0,0,3.72,4,2.87,2.87,0,0,0,1.63-1.54,2.93,2.93,0,0,0,.08-2.25h0a2.93,2.93,0,0,0-1.53-1.64A3,3,0,0,0,181,280.33Z" transform="translate(-59.68 -81.87)"/><path class="cls-6" d="M401.43,169.15l.13-1.31-1.77-.74-.84,1-1.11-.46,3.75-4.18,1.27.53-.31,5.61Zm.25-2.28c.11-1.19.17-1.86.19-2s0-.28.05-.37c-.2.26-.7.87-1.51,1.85Z" transform="translate(-59.68 -81.87)"/><polygon class="cls-6" points="345.04 88.39 344.52 88.18 346.39 83.7 346.91 83.91 345.04 88.39"/><polygon class="cls-6" points="345.76 89 343.59 88.09 343.81 87.57 345.98 88.48 345.76 89"/><rect class="cls-6" x="406.04" y="164.5" width="0.56" height="2.35" transform="translate(37.55 395.26) rotate(-67.4)"/><polygon class="cls-6" points="345.23 81.47 340.75 79.61 340.96 79.09 345.44 80.95 345.23 81.47"/><polygon class="cls-6" points="340.67 80.54 340.14 80.32 341.05 78.15 341.57 78.37 340.67 80.54"/><rect class="cls-6" x="403.84" y="162.8" width="2.35" height="0.56" transform="translate(39.4 392.71) rotate(-67.45)"/><path class="cls-5" d="M118.29,201.43l-1.21-.53-1.25,1.46.7,1.11-.79.91-2.8-4.88.9-1,5.24,2.05Zm-2.09-.94-1.85-.81-.33-.16c.18.26.6.93,1.28,2Z" transform="translate(-59.68 -81.87)"/><rect class="cls-5" x="118.07" y="194.87" width="0.57" height="4.85" transform="translate(-167.97 75.89) rotate(-49.15)"/><polygon class="cls-5" points="59.96 118.08 59.53 117.71 61.07 115.93 61.5 116.3 59.96 118.08"/><rect class="cls-5" x="115.34" y="195.42" width="2.35" height="0.57" transform="matrix(0.65, -0.76, 0.76, 0.65, -167.38, 73.8)"/><polygon class="cls-5" points="51.01 118.12 50.58 117.75 53.76 114.08 54.18 114.45 51.01 118.12"/><rect class="cls-5" x="110.19" y="198.63" width="0.57" height="2.35" transform="translate(-172.6 70.78) rotate(-49.14)"/><polygon class="cls-5" points="54.67 115.25 52.9 113.71 53.27 113.28 55.05 114.82 54.67 115.25"/><path class="cls-9" d="M68.54,245.64l.9-.15c0-.31-.1-.6-.16-.9l.9-.15c.21,1.28.43,2.57.65,3.87l1.69-2.41-1.69.28-.15-.9.07,0,2.49-.42a.14.14,0,0,0,.11-.07c.24-.33.48-.66.71-1l0-.06.45.32-.06.05-.71,1a.13.13,0,0,0,0,.11l.42,2.5v.08l-.9.15c-.09-.58-.19-1.15-.29-1.71l-1.73,2.39h0l3.85-.65.15.89-.88.15.15.92-.9.15-.16-.91-3.34.57-.57-3.34-.9.15Z" transform="translate(-59.68 -81.87)"/><path class="cls-9" d="M365.54,222.62l.48-1.1-1.09-.47c.15-.36.31-.72.47-1.09l4.72,2-1.44-3.57-.9,2.06-1.1-.48,0-.09,1.32-3a.25.25,0,0,0,0-.17l-.59-1.5,0-.08.66-.27s0,.07,0,.1l.59,1.49a.16.16,0,0,0,.1.11l3.05,1.32.1,0-.48,1.1-2.08-.9,1.38,3.6h0c.68-1.56,1.35-3.13,2-4.69l1.08.47c-.15.36-.31.71-.47,1.07l1.12.49-.48,1.1-1.11-.48c-.59,1.36-1.18,2.71-1.77,4.08L367.13,222l-.48,1.1Z" transform="translate(-59.68 -81.87)"/><path class="cls-6" d="M453.36,311.43A28.55,28.55,0,0,0,441,314.25a45.7,45.7,0,0,0-62.18-39.75,51.81,51.81,0,0,0-100,17.14h-.05a38.64,38.64,0,0,0,0,77.27H453.36a28.74,28.74,0,0,0,0-57.48Z" transform="translate(-59.68 -81.87)"/><path class="cls-4" d="M328.74,249.24a51.2,51.2,0,0,1,47.62,32.4,45.16,45.16,0,0,1,61.44,39.27,28.38,28.38,0,0,1,38.3,36.78A28.69,28.69,0,0,0,441,314.25a45.7,45.7,0,0,0-62.18-39.75,51.8,51.8,0,0,0-99.67,13.21A51.2,51.2,0,0,1,328.74,249.24Z" transform="translate(-59.68 -81.87)"/><path class="cls-10" d="M277.54,298.58h0a50.71,50.71,0,0,1,.72-6.91,38.58,38.58,0,0,0-38.05,36.93A38.18,38.18,0,0,1,277.54,298.58Z" transform="translate(-59.68 -81.87)"/><path class="cls-11" d="M325.16,291.61c9.49-1.17,18.88-2.14,28.27-.23,8,1.62,13.34,7.38,14.39,15.1,1.15,8.48-2.7,16.17-10,19.87a31.26,31.26,0,0,1-15.13,3.06c-1.26,0-2.53,0-4.06,0,0,7,.07,14,.11,21l-13.3.06C325.36,331,325.26,311.47,325.16,291.61Zm13.54,27.1c3.76.47,7.33.56,10.72-1,3.68-1.72,5.55-5.4,5-9.75a7.78,7.78,0,0,0-7.18-6.94,71.23,71.23,0,0,0-8.65,0C338.64,307,338.67,312.71,338.7,318.71Z" transform="translate(-59.68 -81.87)"/><path class="cls-11" d="M399.47,308.56l-2.22,8.78c-2.83-.66-5.5-1.4-8.22-1.86a6.83,6.83,0,0,0-3.76.31,4.25,4.25,0,0,0-2.35,2.57,3.88,3.88,0,0,0,1.56,3.06,34.69,34.69,0,0,0,5.21,2.37,42.66,42.66,0,0,1,6.23,3,12.55,12.55,0,0,1-.31,21.17c-4.81,3.09-10.22,3.68-15.71,3.1-3.69-.39-7.3-1.42-11.26-2.23.88-3.73,1.63-6.87,2.25-9.5,4.24.81,8.26,1.65,12.31,2.31a4.69,4.69,0,0,0,3-.56,4.28,4.28,0,0,0,2-2.59,4.38,4.38,0,0,0-1.5-3.17c-1.13-.92-2.71-1.27-4.09-1.9a54.79,54.79,0,0,1-7.14-3.35c-7.64-4.89-7.84-14.95-.54-20.39C380.85,305.3,392.17,304.71,399.47,308.56Z" transform="translate(-59.68 -81.87)"/><path class="cls-12" d="M299.27,368.91l.64-.57.23-.22c.33-.31.65-.62,1-.95l.25-.26c.3-.32.6-.63.89-1,.1-.1.18-.21.27-.31.28-.32.56-.64.82-1l.29-.36.73-.95c.82,2.21,1.56,4.2,2.07,5.55h3.67A71.05,71.05,0,0,0,308.55,356l.27-.69c.12-.3.24-.59.35-.89s.17-.51.26-.77.2-.57.29-.87.15-.55.23-.82l.24-.85c.07-.29.13-.59.2-.88s.13-.55.19-.83.11-.63.17-.95.1-.52.14-.78.09-.7.13-1l.09-.73c0-.39.06-.79.09-1.18,0-.21,0-.41,0-.61,0-.61.05-1.21.05-1.82v-6.07l.26-.59c0,1.71.1,3.68.2,5.7a72.81,72.81,0,0,0,.94,9.36c.4,4.83,1.26,13.57,1.73,18.25h3.85c.43-3.83,1.1-10,1.27-12.66a10.58,10.58,0,0,0-.73-4.69v0c-1.22-2.33.9-9.63,1.94-22.09.15-1.88,1-2.1,1.56-6a11.66,11.66,0,0,0-1.33-6.81c.24-.15.25-.59.17-1.06s-.07-.74-.1-1.11l.51-.4c1.88-1.57,3.55-3.28,3.76-4.52.45-2.79.1-11.07-.13-15,0-.24,0-.46,0-.66a7.81,7.81,0,0,0-1.49-4.35c-1.29-2.11-3.94-2.45-5.19-2.48a2.65,2.65,0,0,0-.56-1.25,2.3,2.3,0,0,0-1.12-.3,11.47,11.47,0,0,1-.19-1.84l.94,0c.43-.17.2-.27.37-1.09.1-.51.86-.86,1.43-2.36.15-.15.29-.32.44-.47A79,79,0,0,0,333.73,261c.5-.93,1-1.87,1.43-2.82a78.28,78.28,0,0,0,5.5-15.46,51.77,51.77,0,0,0-10-1c-.85,0-1.7,0-2.55.07-.28,0-.55,0-.83.06l-1.68.12c-.34,0-.67.08-1,.12-.5.06-1,.11-1.48.18l-1.07.18c-.46.08-.92.15-1.37.24l-1.11.24-1.29.29c-.38.09-.75.2-1.12.3l-1.23.34q-.57.16-1.14.36l-1.16.38c-.39.13-.77.28-1.15.42l-1.1.42-1.17.49-1,.46-1.17.55-1,.48-1.19.63-.88.5-1.21.7-.79.5c-.42.26-.82.53-1.23.8l-.7.49-1.25.89-.61.46-1.28,1-.48.41c-.45.37-.9.76-1.34,1.15l-.32.29c-.48.44-.95.89-1.42,1.34a.57.57,0,0,1-.11.11,51.69,51.69,0,0,0-15.35,35h-.05a38.64,38.64,0,0,0,0,77.27Zm5.15-52.19v-.06c0-.79.08-1.6.15-2.41h0a53.71,53.71,0,0,1,.95-6.3c0,.35.09.69.13,1a24.58,24.58,0,0,1,0,4.11c-.15,1.26-1.22,3.17-.54,3.51l-.49,2.29h-.28C304.39,318.17,304.39,317.45,304.42,316.72Z" transform="translate(-59.68 -81.87)"/><path class="cls-3" d="M260.94,143A78.95,78.95,0,0,0,205.1,277.81c10,10,15.72,27,15.39,39.54h80.9c-.33-12.5,5.36-29.5,15.4-39.54A78.95,78.95,0,0,0,260.94,143Z" transform="translate(-59.68 -81.87)"/><path class="cls-5" d="M301.77,316.87H220a6.53,6.53,0,0,0-6.53,6.53v16.86a35.6,35.6,0,0,0,35.6,35.6h23.65a35.6,35.6,0,0,0,35.6-35.6V323.4A6.53,6.53,0,0,0,301.77,316.87Z" transform="translate(-59.68 -81.87)"/><path class="cls-11" d="M300.09,226.33c-3.58-1.17-9.6-.5-18,9.4a47.83,47.83,0,0,0-6.82,11.13,138.59,138.59,0,0,1-14.51-1.94l-1.18,6c.51.1,6.16,1.19,13.31,1.87-9.63,27.07-8.25,65.62-8.17,67.63l6.13-.24c0-.49-1.48-41,8.38-66.95,7.43.31,15.3-.11,20.33-2.56,5.46-2.65,7.55-9,7.2-14.15S303.88,227.58,300.09,226.33Zm-3.18,18.84c-3.45,1.68-9.08,2.16-15,2a38.82,38.82,0,0,1,4.88-7.52c5.5-6.5,9.48-8.15,11.37-7.53,1.35.44,2.34,2.32,2.5,4.8C300.87,239.93,299.78,243.78,296.91,245.17Z" transform="translate(-59.68 -81.87)"/><path class="cls-11" d="M261.09,244.92a138.21,138.21,0,0,1-14.51,1.94,47.8,47.8,0,0,0-6.81-11.13c-8.37-9.9-14.4-10.57-18-9.4-3.8,1.25-6.37,5.16-6.71,10.21s1.75,11.5,7.2,14.15c5,2.45,12.89,2.88,20.33,2.56,9.85,25.93,8.41,66.46,8.39,66.95l6.13.24c.08-2,1.45-40.56-8.17-67.63,7.14-.68,12.79-1.77,13.3-1.87Zm-36.12.25c-2.87-1.39-4-5.24-3.76-8.21.17-2.48,1.15-4.36,2.5-4.8a2.64,2.64,0,0,1,.83-.12c2.1,0,5.75,2,10.54,7.65a38.35,38.35,0,0,1,4.88,7.52C234.05,247.33,228.42,246.85,225,245.17Z" transform="translate(-59.68 -81.87)"/><path class="cls-9" d="M301.77,316.87H220a6.53,6.53,0,0,0-6.53,6.53v6.79h54.49a6.76,6.76,0,1,1,0,13.51h-54.3a35.4,35.4,0,0,0,4.1,13.52h49.16a6.76,6.76,0,0,1,6.76,6.76v11.85a35.58,35.58,0,0,0,34.64-35.57V323.4A6.53,6.53,0,0,0,301.77,316.87Z" transform="translate(-59.68 -81.87)"/><path class="cls-13" d="M214.17,278.32c-5.94-5.29-18.33-10.09-9.07-.51,9.8,10.15,15.64,26.82,15.39,39.3h8.37C228.86,311.91,232.49,294.68,214.17,278.32Z" transform="translate(-59.68 -81.87)"/><path class="cls-14" d="M260.94,143a78.87,78.87,0,0,0-65.27,34.49c19.28-24.47,55.65-34.86,91.15-13a41.7,41.7,0,0,1,13.64,13.69c24.56,40,10.86,79.43-20.69,95.84-14.08,7.33-22.73,27.76-16.94,43.06h38.56c-.25-12.48,5.43-29.32,15.4-39.3A78.95,78.95,0,0,0,260.94,143Z" transform="translate(-59.68 -81.87)"/><g class="cls-15"><path class="cls-11" d="M190.88,215.53l14.81,1.14A60.29,60.29,0,0,1,215.46,193l-12-8.05A77.77,77.77,0,0,0,190.88,215.53Z" transform="translate(-59.68 -81.87)"/><path class="cls-11" d="M208.63,216.9,223.44,218a39.26,39.26,0,0,1,6.36-15.36l-12-8.05A56.86,56.86,0,0,0,208.63,216.9Z" transform="translate(-59.68 -81.87)"/><path class="cls-11" d="M207.6,179.55q5.52,4.63,11,9.28a60.31,60.31,0,0,1,20-15.91L233.5,159A77.77,77.77,0,0,0,207.6,179.55Z" transform="translate(-59.68 -81.87)"/><path class="cls-11" d="M220.83,190.67l11,9.28a39.29,39.29,0,0,1,13-10.34l-5.18-13.92A56.79,56.79,0,0,0,220.83,190.67Z" transform="translate(-59.68 -81.87)"/></g><path class="cls-12" d="M412.55,274.24h-23.1q.23,11.24.38,22.48a8.94,8.94,0,0,1-.42,3.38h0c-.3,0-.17.08-.27.63v0a7,7,0,0,1-4.53,2.76.38.38,0,0,0,0,.24.57.57,0,0,0-.18.7c.11.25,1.43.59,3.24.4a8.75,8.75,0,0,0,2-.56,3.1,3.1,0,0,0,.74-.5,3,3,0,0,0,.67-.16l.07.07,2.07-.9s-.22-1.31-.4-2a1.61,1.61,0,0,0-.14-.32,94.9,94.9,0,0,0,4.06-14.41c-.38,6.08-2.57,18.44-2.73,18.87a3.16,3.16,0,0,1-2.62,1.84c-.49,0-2.9-.1-2.64,1,.06.27,1.31.83,3.12.95a8.46,8.46,0,0,0,2.07-.2,3.86,3.86,0,0,0,1.28-.7l.28.37,2.2-.53s0-.57,0-1.25a2.87,2.87,0,0,0-.47-1.34l0-1.25,1.21-.14s2.44-7.89,3.6-10.57a23,23,0,0,0,1.31-3.37,24.59,24.59,0,0,0,.51-4.2,36.9,36.9,0,0,1,1.41-7.6,1.11,1.11,0,0,1,.2-.44,1.2,1.2,0,0,1,.8-.28c3.11-.29,4.53.24,6.47-.36,2.57-.79,2.84-2,3-2A8,8,0,0,0,412.55,274.24Z" transform="translate(-59.68 -81.87)"/><path class="cls-16" d="M399.94,230.22a1.88,1.88,0,0,0,.16,1.53l1.89-2.56h-1.32Z" transform="translate(-59.68 -81.87)"/><path class="cls-17" d="M410.22,233.61a7,7,0,0,1-2.93,5.21l.19,3-1.93,1.25-1.32.85-.75-1.58-.11-1.94a1,1,0,0,0-.79-.92,3.63,3.63,0,0,1-1.87-1.13.79.79,0,0,1-.12-.15h0c-1.25-1.71-1.72-8.22,2.56-10.08S410.3,230.3,410.22,233.61Z" transform="translate(-59.68 -81.87)"/><path class="cls-16" d="M405.61,234.62c.16.07.32-.19.32-.19a17.72,17.72,0,0,1,1.25-2.4c.57-.57,1.91-.52,2,1.26.08,1.39-1.55,4.34-2.05,5.2a.33.33,0,0,0,.08.42.44.44,0,0,0,.19.07h0a.29.29,0,0,0,.21-.08c1.06-.92,5.71-5.39,2-9.58,0,0-2.93.19-3.38,1.6a28.3,28.3,0,0,0-.76,3.34S405.43,234.55,405.61,234.62Z" transform="translate(-59.68 -81.87)"/><path class="cls-16" d="M399.94,230.22s2.57-2,6.47.44l3.19-.82s.13,0,.06-.52-.42-5.17-6-4.12C400.43,225.81,398.46,228,399.94,230.22Z" transform="translate(-59.68 -81.87)"/><path class="cls-18" d="M407.42,239h0a.29.29,0,0,0,.21-.08c1.06-.92,5.71-5.39,2-9.58a4.16,4.16,0,0,1,.11,1.34S412.13,234.46,407.42,239Z" transform="translate(-59.68 -81.87)"/><path class="cls-17" d="M377.37,246.3s-2-1.42-2.08-2a13.6,13.6,0,0,0-1.92-3.49,10.58,10.58,0,0,0-3.31-1.37c-.5-.08-3.39.17-3,.56s2.23.25,2.59.47l.36.21s-.36.49-.22.79-.61.74-.33,1.25-.11.46.14,1c.43.86,1.51,1.35,1.8,1.11.22.51,1,1.56,1.81,1.49s2.65,1.68,2.65,1.68" transform="translate(-59.68 -81.87)"/><path class="cls-17" d="M408,236.21c.07,1.35,0,3.7.36,4s1.63.29,1.63.29-4.46,5.64-4.85,5.33-5.68-4.61-4.49-4.83,2.34-.17,2.31-.79-.07-1.22-.1-1.84" transform="translate(-59.68 -81.87)"/><path class="cls-19" d="M413.11,266.33s-8.7,1-10.71,1-1.9-1-1.9-1a80.39,80.39,0,0,0-.89-9.16c-.39-1.64-.56-2.25-.9-3.81-.75-3.48-.71-4.14-1.51-8.43l5.2-4.18a2.75,2.75,0,0,0,2.72,1.63,4,4,0,0,0,3.82-2l7.09,4.71.66,11.45-.84,9.43" transform="translate(-59.68 -81.87)"/><path class="cls-17" d="M388.6,297.37a19,19,0,0,0,.52,2.32c.23.6,2.17.05,2.3-.33a17.71,17.71,0,0,0-.61-3.2" transform="translate(-59.68 -81.87)"/><path class="cls-20" d="M392.1,299.85c.16.64.38,1.86.38,1.86l-1.94.84-.32-.29a3.52,3.52,0,0,1-1.08.85,8.08,8.08,0,0,1-1.88.53c-1.69.18-2.94-.14-3-.38-.42-1,1.83-1.24,2.27-1.36a3,3,0,0,0,2.13-2.13c.1-.52,0-.61.26-.59a.71.71,0,0,1,.49.23,1.22,1.22,0,0,0,1.38.32,1.52,1.52,0,0,0,.68-.57A.85.85,0,0,1,392.1,299.85Z" transform="translate(-59.68 -81.87)"/><path class="cls-20" d="M397.18,274.75a32.93,32.93,0,0,1-9.91.23,36.62,36.62,0,0,1,1.88,4.54c1.32,5.71,1.78,13.39,2.12,18.14,0,0-.64,1.22-2.67.29-3-7.51-8.35-22.72-8.3-26,.07-4.2,10.55-5.21,18.24-6.25" transform="translate(-59.68 -81.87)"/><path class="cls-21" d="M410.57,266.34c2.42,1.76-13.39,8.41-13.39,8.41a26.24,26.24,0,0,1-5.18.49,3.46,3.46,0,0,1-.39-1c-.09-.46,0-.94-.12-1.4a3.3,3.3,0,0,0-1.58-2.13,7.09,7.09,0,0,0-2.59-.83,34.37,34.37,0,0,0-5.87-.11c4.76-3.5,14.48-4,19-4.25C401.32,267,410.23,266.08,410.57,266.34Z" transform="translate(-59.68 -81.87)"/><path class="cls-17" d="M393.61,301.37a19.81,19.81,0,0,0,.11,2.37c.12.63,2.13.43,2.32.07a17.16,17.16,0,0,0,0-3.25" transform="translate(-59.68 -81.87)"/><path class="cls-20" d="M396.63,304.41c.05.66.05,1.9.05,1.9l-2.06.5-.26-.35a3.7,3.7,0,0,1-1.21.66,7.93,7.93,0,0,1-1.94.18c-1.7-.11-2.88-.64-2.93-.89-.25-1,2-.91,2.47-1a3,3,0,0,0,2.47-1.73c.19-.49.08-.6.36-.53a.66.66,0,0,1,.43.3,1.24,1.24,0,0,0,1.31.56,1.44,1.44,0,0,0,.77-.45A.86.86,0,0,1,396.63,304.41Z" transform="translate(-59.68 -81.87)"/><path class="cls-20" d="M415.85,266a97.77,97.77,0,0,1-10.72.34c-1.36,0-11.71,1.94-12.7,3.69-1.63,2.89,1.06,19.74.81,31.81,0,0,1.24,1,3.44.06.54-5.93,4-19.91,1.63-26.44,5.7.76,10.31,1.51,15.49-.21a4.15,4.15,0,0,0,2.67-2.83A9.9,9.9,0,0,0,415.85,266Z" transform="translate(-59.68 -81.87)"/><path class="cls-19" d="M402.4,240.77l-1.48.09a11.57,11.57,0,0,0-3.08.58c-1.41.53-2.4,1.84-3.55,2.86s-6.83,6.45-7.9,6.65S376,244.72,376,244.72L373.66,247s10.17,9.41,13.21,9.42c1.47,0,9.59-4.27,12.19-5.93Z" transform="translate(-59.68 -81.87)"/><path class="cls-22" d="M386.89,254.63c-2.09.11-11.68-7.21-12.79-8.06l-.44.44s10.17,9.41,13.21,9.42c1.22,0,7.07-3,10.48-4.91l.89-.51-.53-3.17S389.11,254.5,386.89,254.63Z" transform="translate(-59.68 -81.87)"/><path class="cls-23" d="M377.13,267.87h23.29l-4.18-13.62a1.78,1.78,0,0,0-1.71-1.26h-20.4a1.16,1.16,0,0,0-1.11,1.5Z" transform="translate(-59.68 -81.87)"/><path class="cls-24" d="M376.83,267.87h22.94l-4.17-13.62a1.79,1.79,0,0,0-1.71-1.26h-20.4a1.16,1.16,0,0,0-1.11,1.5l4,13A.48.48,0,0,0,376.83,267.87Z" transform="translate(-59.68 -81.87)"/><g class="cls-25"><path class="cls-26" d="M412.65,247.34A89.8,89.8,0,0,0,411,260.43c-4.07,1.58-5.73,3.93-9.71,5.7,0,0-3.15-.52-3.48.67-.19.68,3.68,1.22,3.68,1.22,3.69,0,13.43-2.68,14.09-2.86s2.57-12.55,2.65-19.27a4.21,4.21,0,0,0-.62-2.73,3.55,3.55,0,0,0-1.2-.89,16.79,16.79,0,0,0-7.43-1.87" transform="translate(-59.68 -81.87)"/></g><path class="cls-17" d="M401.8,266.94a2.33,2.33,0,0,0-1.94-.61,13.65,13.65,0,0,0-1.56.12c-.23,0-.5.09-.53.35s1.14,0,1.75.17a30.86,30.86,0,0,1-3.6.1,1.12,1.12,0,0,0-.41,0,.37.37,0,0,0-.24.32.44.44,0,0,0,.17.27,2.48,2.48,0,0,0,1.24.5,9.52,9.52,0,0,0,5.47-.48" transform="translate(-59.68 -81.87)"/><path class="cls-19" d="M412.4,247.24c-.1,5.6-.5,8.17-.39,13.77-2.81.6-6.71,3.78-10.69,5.56a2.13,2.13,0,0,0,.13,1.45c.31.12,13.44-3.08,14.48-4s2.18-11.37,2.26-18.09a4.21,4.21,0,0,0-.62-2.73,3.55,3.55,0,0,0-1.2-.89,16.79,16.79,0,0,0-7.43-1.87" transform="translate(-59.68 -81.87)"/><path class="cls-27" d="M388.67,260.66c.09,1.2-1.32,2.16-3.15,2.16s-3.37-1-3.45-2.16,1.33-2.16,3.15-2.16S388.59,259.47,388.67,260.66Z" transform="translate(-59.68 -81.87)"/><ellipse class="cls-23" cx="385.37" cy="260.66" rx="1.2" ry="2.1" transform="matrix(0.04, -1, 1, 0.04, 50.22, 553.71)"/><path class="cls-12" d="M289.49,297.09a22,22,0,0,0,3.32,0,72.91,72.91,0,0,0,8.92-.88h0c0,.13,0,.29,0,.43s0,.44,0,.67,0,.69.05,1.05,0,.45,0,.68c0,.39.07.78.11,1.18,0,.23,0,.46.07.69,0,.41.09.82.15,1.24l.09.73c0,.29.07.57.11.85.16-.63.31-1.27.49-1.9a1,1,0,0,1,.05-.16q.34-1.25.75-2.49c0-.1.07-.19.1-.29.26-.78.53-1.57.83-2.35.06-.16.12-.32.19-.48.27-.71.55-1.42.85-2.12.11-.26.23-.51.34-.77.27-.6.53-1.21.82-1.8l.49-1c.26-.52.51-1,.79-1.55s.42-.74.64-1.11l0-.05a13.21,13.21,0,0,0-1.63.79c-.11.08-.09.27-.05.49l-3.49.19c-1.25.09-9.78,2.37-10.8,2.69l-.23.08a2.23,2.23,0,0,0-.32.06l-.2.06a10.24,10.24,0,0,0-1.24-2.34,84.29,84.29,0,0,1-4.8-8.8l-.36.11a1.58,1.58,0,0,0-.06-.23.9.9,0,0,0,.27-.58v0c1.18,1.36,1.78.79,1.78.79l0,0c.15-.15.54-.73-.62-2.14-1.38-1.68-3.53-3.33-3.34-3.78s.67-1.37.92-1.87a.63.63,0,0,0-.07-.65l-.7-.87h0l-.69-.87a10.18,10.18,0,0,1-1.44-2.95,5.85,5.85,0,0,0-.57.25s0,0,0,0a.36.36,0,0,0-.32-.05,5.91,5.91,0,0,0-2.53,1.51,8.44,8.44,0,0,0-2.13,2.17,1.06,1.06,0,0,0-.16.43.41.41,0,0,0,.21.38.49.49,0,0,0,.46-.09h0l0,0a17.32,17.32,0,0,1,2,2l.7.87.69.87a.62.62,0,0,0,.62.22c.54-.13,1.69-.42,2-.48.07,0,.16.05.26.14a4.34,4.34,0,0,0-.45,3.37,5.2,5.2,0,0,0,1.52,2.18l-.2.06s.6,3.44,1.18,6.19a27.45,27.45,0,0,0,2.05,6.34s0,0,0,.05C287.68,295.4,288.75,296.93,289.49,297.09Zm-2.22-16.51a.34.34,0,0,1-.12.06s0,0,0,0A.33.33,0,0,0,287.27,280.58Zm-.53-.28a.33.33,0,0,0,.06.22h0a.31.31,0,0,1-.07-.2ZM278.3,272l.05-.06c.07.09.11.16.09.14Zm3.46-.13,1.11-.9Zm3.33,7.37v0Z" transform="translate(-59.68 -81.87)"/><path class="cls-12" d="M307.63,323.4a6.52,6.52,0,0,0-5-6.32c-.12.48-.12.86.14,1-.93,4.34-4.51,21.29-5.15,26.78a18.52,18.52,0,0,0-.76,5.34c.15,1,2,6.09,3.8,11.11.32-.44.66-.86,1-1.32s.55-.9.82-1.35.64-1,.93-1.56.49-1,.74-1.53.51-1,.73-1.55c.05-.11.08-.24.13-.35-.19-.54-.38-1.09-.58-1.56v0c-1.08-2.49.05-5.19.59-6.26l.21-.39.06-.09h0c.78-1.47,1.58-3.13,2.34-4.77,0-.1,0-.2,0-.3Z" transform="translate(-59.68 -81.87)"/><path class="cls-12" d="M316.33,275c.37-.68-.2-1.61-.88-2-1.58-1-4.93-.76-6.75-1.35a1.82,1.82,0,0,1-1.37-1.37c-1.64,1.24-1.82,2.64-1,4a3.79,3.79,0,0,0,.63.85,9.26,9.26,0,0,0-1.36,2.76,16.36,16.36,0,0,0-.52,5.22,3.66,3.66,0,0,0,1.17,2.63c.46.29,2.24,0,2.53.36a3,3,0,0,1,.29,1.06c.14-.24.27-.49.42-.73.26-.43.55-.85.82-1.28s.45-.71.68-1c.35-.51.71-1,1.07-1.47.18-.25.36-.52.55-.76.43-.57.89-1.11,1.35-1.65.12-.15.24-.31.37-.45.59-.68,1.2-1.33,1.82-2s.92-1,1.39-1.5C317.19,275,316.33,275,316.33,275Z" transform="translate(-59.68 -81.87)"/><path class="cls-11" d="M315.72,315.25c.79-.58,1.65-1.24,2.48-1.93,1.87-1.57,3.54-3.28,3.75-4.52.45-2.78.1-11.07-.12-15,0-.24,0-.46,0-.67a7,7,0,0,0-3.2-5.93c-.51,4.8-1.65,15.64-1.74,16.2S315.72,315.25,315.72,315.25Z" transform="translate(-59.68 -81.87)"/><path class="cls-17" d="M284.63,278.83c-.17-.63-1.65-6-2.5-5.31s-.82,2.87-.61,3.54c.38,1.19,1.66,2.62,2.44,2.64C284.51,279.71,284.78,279.42,284.63,278.83Z" transform="translate(-59.68 -81.87)"/><path class="cls-28" d="M321.29,374.88c0,.69-6.29,1.24-14,1.24s-14-.55-14-1.24,6.28-1.23,14-1.23S321.29,374.2,321.29,374.88Z" transform="translate(-59.68 -81.87)"/><path class="cls-17" d="M311.68,369.49s.05,2.36.1,3,2,.64,2.18.33a17.16,17.16,0,0,0,.34-3.07" transform="translate(-59.68 -81.87)"/><path class="cls-20" d="M314.47,373.31a12.38,12.38,0,0,1-.18,1.65h-2.2l-.11-.37a3.49,3.49,0,0,1-1.28.37h-1.86c-1.37,0-2.14-.17-2.18-.41-.14-1,1.49-1,1.91-1a3.48,3.48,0,0,0,2.83-1.19c.21-.45.11-.56.37-.48a.63.63,0,0,1,.37.33,1.15,1.15,0,0,0,1.16.63,1.39,1.39,0,0,0,.74-.36A.79.79,0,0,1,314.47,373.31Z" transform="translate(-59.68 -81.87)"/><path class="cls-17" d="M303.93,368.85a18.57,18.57,0,0,0,.67,2.16c.27.54,2.06-.13,2.15-.5a16.3,16.3,0,0,0-.82-3" transform="translate(-59.68 -81.87)"/><path class="cls-20" d="M307.42,370.82c.23.58.58,1.71.58,1.71l-1.68,1-.32-.24a3.27,3.27,0,0,1-.88.92,7.53,7.53,0,0,1-1.66.68c-1.53.35-2.71.18-2.83,0-.51-.88,1.52-1.36,1.91-1.52a2.73,2.73,0,0,0,1.69-2.22c0-.5-.1-.57.17-.58a.63.63,0,0,1,.47.16,1.12,1.12,0,0,0,1.3.16,1.38,1.38,0,0,0,.56-.61A.79.79,0,0,1,307.42,370.82Z" transform="translate(-59.68 -81.87)"/><path class="cls-10" d="M315.71,315.25c.8-.58,1.66-1.24,2.48-1.93.07-3.05,1-7.31,2.26-12.65,1.52-6.73.57-8,.57-8l-3,.47c-.51,4.75-1.06,9.88-1.13,10.26C316.72,304.14,315.71,315.25,315.71,315.25Z" transform="translate(-59.68 -81.87)"/><path class="cls-29" d="M308.38,340.53a74.82,74.82,0,0,0,.95,9.39c.41,2.08,6.95,2.46,6.11.86-1.22-2.33.9-9.64,1.94-22.09.15-1.89,1-2.11,1.56-6a11.83,11.83,0,0,0-1.58-7.25l-9.08-.85-.12,11.32,0,3.82S308.11,335,308.38,340.53Z" transform="translate(-59.68 -81.87)"/><path class="cls-29" d="M314.64,349.32a9.34,9.34,0,0,1,1.53,6.17c-.25,4-1.64,15.91-1.64,15.91a8.5,8.5,0,0,1-3.16-.09s-2.25-22.1-2.25-24.61S314.64,349.32,314.64,349.32Z" transform="translate(-59.68 -81.87)"/><path class="cls-22" d="M308.38,340.53a72.81,72.81,0,0,1,2.64-7.34,14,14,0,0,1,2.58-4c4.6-4.83,1.43-11.09,1.43-11.09s-3.75,3.11-4,3.43-1.75,2.94-2.86,4.39l0,3.82S308.11,335,308.38,340.53Z" transform="translate(-59.68 -81.87)"/><path class="cls-29" d="M297.61,339s-2.05,6.78-1.73,8.9,7.86,22,7.86,22a7.55,7.55,0,0,0,3-.75s-.16-8.75-1.64-14.22-3.19-8.82-4.66-9.31S298,340.18,297.61,339Z" transform="translate(-59.68 -81.87)"/><path class="cls-29" d="M304.27,343.07s-2.23,3.55-.86,6.75-2.3,2.66-2.3,2.66-1.84-5.35-1.43-6.05,1.92-3,2.41-3.14A19.4,19.4,0,0,1,304.27,343.07Z" transform="translate(-59.68 -81.87)"/><path class="cls-29" d="M302,314.79s-4.78,22.12-5.4,28.08c-.27,2.53,2.39,6.7,4.84,4.42,2.93-2.73,7.66-15.22,9.13-17.42s7-4.23,3.22-15.42" transform="translate(-59.68 -81.87)"/><path class="cls-11" d="M282.85,279.31s.59,3.43,1.18,6.18a26.38,26.38,0,0,0,2.05,6.34.11.11,0,0,1,0,.05c.58,1.26,1.66,2.8,2.4,2.95a21.93,21.93,0,0,0,3.31,0,75,75,0,0,0,9.05-.89l.16,0c1.59-.21,3.05-.4,4.05-.51a2,2,0,0,0,1.23-.55,1.83,1.83,0,0,0,.6-1h0a2.65,2.65,0,0,0-1.44-2.64l-.14-.09c1.17-1.16,2.36-2.42,2.36-2.42s-3.29.15-5.12.28c-1.25.08-9.79,2.36-10.81,2.68l-.22.08-.32.06-.2.06a10.8,10.8,0,0,0-1.24-2.33,85.88,85.88,0,0,1-4.81-8.81l-1.65.5h0Z" transform="translate(-59.68 -81.87)"/><g id="_Group_" data-name="&lt;Group&gt;"><g id="_Group_2" data-name="&lt;Group&gt;"><path id="_Path_" data-name="&lt;Path&gt;" class="cls-30" d="M285.8,278.27a.33.33,0,0,1,.05-.47.32.32,0,0,1,.47.05.33.33,0,1,1-.52.42Z" transform="translate(-59.68 -81.87)"/><path id="_Compound_Path_" data-name="&lt;Compound Path&gt;" class="cls-31" d="M286.6,278.73l0,0c.15-.15.54-.73-.62-2.14-1.38-1.68-3.53-3.33-3.34-3.78s.67-1.37.91-1.87a.6.6,0,0,0-.07-.65l-.7-.87-4.11,3.28-.35.28.7.87a.61.61,0,0,0,.61.22c.55-.13,1.7-.42,2-.48s1.55,2.42,2.88,4.14S286.6,278.73,286.6,278.73Zm-.45-.35a.35.35,0,0,1-.35-.11.31.31,0,0,1-.07-.21.3.3,0,0,1,.12-.26.32.32,0,0,1,.47.05.33.33,0,0,1-.05.47A.34.34,0,0,1,286.15,278.38Z" transform="translate(-59.68 -81.87)"/></g><rect id="_Rectangle_" data-name="&lt;Rectangle&gt;" class="cls-32" x="277.4" y="270.17" width="5.71" height="1.11" transform="translate(608.5 225.69) rotate(141.42)"/><g id="_Group_3" data-name="&lt;Group&gt;"><path id="_Path_2" data-name="&lt;Path&gt;" class="cls-33" d="M277.47,271a20.6,20.6,0,0,0-1.83-1.4l.21-.21A5.19,5.19,0,0,1,277.47,271Z" transform="translate(-59.68 -81.87)"/><path id="_Path_3" data-name="&lt;Path&gt;" class="cls-34" d="M275.64,269.6a20.6,20.6,0,0,1,1.83,1.4,5.19,5.19,0,0,0-1.62-1.61l.37-.37s1.12.77,1.22.82a13.27,13.27,0,0,0-.91-1.13s.37-.38.91-.87a10.8,10.8,0,0,0,1.54,1.3c-.43-.5-.89-1-1.34-1.48.32-.28.68-.58,1.07-.87l.85,1.07a5.3,5.3,0,0,1-.46-1.36,3.3,3.3,0,0,1,.6-.46,12.22,12.22,0,0,0,1.05,2.43,14.15,14.15,0,0,1-.69-2.63,6,6,0,0,1,.65-.28,10,10,0,0,0,1.43,2.95l-4.46,3.56a19.07,19.07,0,0,0-2.29-2.24Z" transform="translate(-59.68 -81.87)"/><path id="_Path_4" data-name="&lt;Path&gt;" class="cls-33" d="M279.7,266l.36-.2a14.15,14.15,0,0,0,.69,2.63A12.22,12.22,0,0,1,279.7,266Z" transform="translate(-59.68 -81.87)"/><path id="_Path_5" data-name="&lt;Path&gt;" class="cls-33" d="M277.44,267.84l.2-.18c.45.49.91,1,1.34,1.48A10.8,10.8,0,0,1,277.44,267.84Z" transform="translate(-59.68 -81.87)"/></g><path id="_Path_6" data-name="&lt;Path&gt;" class="cls-35" d="M275.19,270.22a.48.48,0,0,0,.47-.09.81.81,0,0,1-.15-.31,1.32,1.32,0,0,1,.47-1.06,21.17,21.17,0,0,1,1.87-1.8,3.26,3.26,0,0,1,1.82-.93c.14,0,.31,0,.36.16a.29.29,0,0,1,0,.13.71.71,0,0,0,.16-.28.3.3,0,0,0-.06-.26.35.35,0,0,0-.33,0,5.85,5.85,0,0,0-2.53,1.5,8.41,8.41,0,0,0-2.12,2.17.94.94,0,0,0-.16.43A.38.38,0,0,0,275.19,270.22Z" transform="translate(-59.68 -81.87)"/><path id="_Path_7" data-name="&lt;Path&gt;" class="cls-35" d="M279.69,268.08a.23.23,0,0,0,.06-.12c.06-.25-.18-.44-.24-.67a.37.37,0,0,1,0-.18.62.62,0,0,0,0,.48c.05.12.16.22.21.34A.39.39,0,0,1,279.69,268.08Z" transform="translate(-59.68 -81.87)"/><path id="_Path_8" data-name="&lt;Path&gt;" class="cls-35" d="M279,270.64a.49.49,0,0,0,.16-.46,1,1,0,0,0-.3-.51,5.55,5.55,0,0,1-.48-.49,3.56,3.56,0,0,0,.37.58A1.06,1.06,0,0,1,279,270.64Z" transform="translate(-59.68 -81.87)"/><path id="_Path_9" data-name="&lt;Path&gt;" class="cls-3" d="M275.66,270.13h0a3,3,0,0,1,.36-.25.48.48,0,0,1,.51.05c.36.25.5.26.74-.16.07-.12.2-.23.33-.18a.35.35,0,0,1,.14.13l.42.56a1.48,1.48,0,0,0,.32.34.47.47,0,0,0,.44.07l.07,0a1.06,1.06,0,0,0-.25-.88,3.56,3.56,0,0,1-.37-.58h0l-.07-.11a.59.59,0,0,1,.07-.75,1,1,0,0,1,.73-.07.68.68,0,0,0,.58-.17.39.39,0,0,0,0-.15c-.05-.12-.16-.22-.21-.34a.62.62,0,0,1,0-.48.79.79,0,0,1,.31-.58,1.51,1.51,0,0,0,.23-.21.29.29,0,0,0,0-.13c0-.14-.22-.17-.36-.16a3.26,3.26,0,0,0-1.82.93,21.17,21.17,0,0,0-1.87,1.8,1.32,1.32,0,0,0-.47,1.06A.81.81,0,0,0,275.66,270.13Z" transform="translate(-59.68 -81.87)"/><path id="_Path_10" data-name="&lt;Path&gt;" class="cls-36" d="M286.6,278.73l0,0a2.74,2.74,0,0,1-.5-.31.35.35,0,0,1-.35-.11.31.31,0,0,1-.07-.21c-.1-.07-.2-.16-.31-.25a22.71,22.71,0,0,1-3.13-4.31.63.63,0,0,0-.7-.33l-1.67.37a.64.64,0,0,1-.63-.21l-.57-.67-.35.28.7.87a.61.61,0,0,0,.61.22c.55-.13,1.7-.42,2-.48s1.55,2.42,2.88,4.14S286.6,278.73,286.6,278.73Z" transform="translate(-59.68 -81.87)"/></g><path class="cls-17" d="M284.82,278c.05-.29.38-2,.06-2.12-.5-.12-.77,1-.95,1.75-.1.41,0,1,.38,1.06S284.72,278.43,284.82,278Z" transform="translate(-59.68 -81.87)"/><path class="cls-17" d="M313.54,285.28a9.93,9.93,0,0,1-.19-3.69c.35-1.55,1.41-4.31,1.16-6.44s-2.83-4-5.65-3.85-3.76,2.8-4.3,4.34a16,16,0,0,0-.51,5.21,3.6,3.6,0,0,0,1.17,2.63c.45.3,2.23,0,2.53.37a8.47,8.47,0,0,1,.43,2.35" transform="translate(-59.68 -81.87)"/><path class="cls-37" d="M314.18,283s-4.17-.08-5-.23a3.11,3.11,0,0,1-2.66-2.67c1,0,1.2-2.1.69-2.93s-1.24-.37-1.36.39,0,.52-.23.62-.66.08-.49-1.38a5.49,5.49,0,0,1,.67-2.42c.42-.84.63-.78,1-.92-.36-.19-.76-.23-1.44-1.41-.79-1.36-.62-2.76,1-4a1.83,1.83,0,0,0,1.37,1.38c1.81.58,5.17.32,6.75,1.34.67.43,1.24,1.36.88,2.05,0,0,1.35-.15,1.3,2.5-.08,5.37-1.92,5.77-2.08,6.59S314.61,282.8,314.18,283Z" transform="translate(-59.68 -81.87)"/><path class="cls-38" d="M315.2,286.83a3.72,3.72,0,0,0-.65-1.75c-.49-.46-3.76-.46-4.74-.33a15.32,15.32,0,0,0-3.72,1.48c-.31.24.32,1.48.32,1.48Z" transform="translate(-59.68 -81.87)"/><path class="cls-11" d="M302.34,312.31c-.15,1.28-1.27,3.26-.51,3.54a15.29,15.29,0,0,0,3.09-.1H305c1.36-.12,2.91-.27,4.21-.37,5.2-.22,7.85.82,8.37.52.25-.15.26-.6.18-1.06a12,12,0,0,1-.09-3.44c.13-1,.31-2.12.56-3.43.86-4.56,2.53-11.51,2.78-15.69.41-6.55-6.61-5.93-6.61-5.93-8.93-.56-13.13,2-13.61,5.85,0,.28-.06.57-.08.88-.23,3.95,1,10.34,1.55,15.11A23.67,23.67,0,0,1,302.34,312.31Z" transform="translate(-59.68 -81.87)"/><path class="cls-10" d="M302.34,312.31c-.15,1.28-1.27,3.26-.51,3.54a15.29,15.29,0,0,0,3.09-.1c-1.38.1-1.64-.95-1.33-1.66a10.17,10.17,0,0,0,.89-4.23c-.07-1.9-.78-6.19-1.2-10.24a32.31,32.31,0,0,1,0-7.1c-.22.43-.83,1-2.56,1.43,0,4,1.05,9.81,1.58,14.24A23.67,23.67,0,0,1,302.34,312.31Z" transform="translate(-59.68 -81.87)"/><path class="cls-12" d="M373.56,364.87a3.15,3.15,0,0,0-.83-.64,2.3,2.3,0,0,0-1-.24,2.17,2.17,0,0,0-.51.06,2.26,2.26,0,0,0-.49.19,2.94,2.94,0,0,0-.43.27l-.2.18H360.9a2.13,2.13,0,0,0-.41-.26,1.87,1.87,0,0,0-.89-.22A2.13,2.13,0,0,0,358,365a4,4,0,0,0-.69,1v-5.1a.54.54,0,1,0,0-1.07h-12.1a.54.54,0,0,0,0,1.07h0v8.07h30.12a6.57,6.57,0,0,0-1.46-3.67ZM360,364.69a1.36,1.36,0,0,0-.48.09h0a1.76,1.76,0,0,0-.49.29,1.56,1.56,0,0,1,1-.39h0Z" transform="translate(-59.68 -81.87)"/><path class="cls-28" d="M337.68,375.38c0,.63,9.14,1.15,20.41,1.15s20.4-.52,20.4-1.15-9.13-1.16-20.4-1.16S337.68,374.74,337.68,375.38Z" transform="translate(-59.68 -81.87)"/><rect class="cls-39" x="283.33" y="277.29" width="12.1" height="15.51"/><rect class="cls-3" x="283.33" y="280.18" width="12.1" height="9.73"/><g class="cls-7"><rect class="cls-8" x="290.9" y="277.29" width="4.52" height="15.51"/></g><path class="cls-40" d="M343,375.38h12.1a.71.71,0,0,0,0-1.41H343a.71.71,0,0,0,0,1.41Z" transform="translate(-59.68 -81.87)"/><path class="cls-40" d="M355.64,359.21a.54.54,0,0,1-.54.54H343a.54.54,0,0,1,0-1.07h12.1A.54.54,0,0,1,355.64,359.21Z" transform="translate(-59.68 -81.87)"/><path class="cls-3" d="M350,358.68a.54.54,0,1,1,0,1.07h-.59a.54.54,0,1,1,0-1.07Z" transform="translate(-59.68 -81.87)"/><rect class="cls-3" x="283.79" y="276.8" width="3.78" height="1.06" rx="0.28" ry="0.28"/><g class="cls-41"><rect class="cls-42" x="283.33" y="277.87" width="12.1" height="0.63"/></g><path class="cls-43" d="M355.08,374.22a1.57,1.57,0,0,1,1.68-1.41h14.51a1.44,1.44,0,1,1,0,2.83H356.76A1.57,1.57,0,0,1,355.08,374.22Z" transform="translate(-59.68 -81.87)"/><path class="cls-43" d="M368.12,374.22a1.57,1.57,0,0,1,1.68-1.41h3.25a1.44,1.44,0,1,1,0,2.83H369.8A1.57,1.57,0,0,1,368.12,374.22Z" transform="translate(-59.68 -81.87)"/><path class="cls-40" d="M354.3,370.8a9.66,9.66,0,0,0,.4,1.61c.12.29.2.51.29.69a6,6,0,0,0,.5.84,3,3,0,0,0,.87.81,1.93,1.93,0,0,0,1,.3,2.06,2.06,0,0,0,1.3-.47h0a2,2,0,0,0,.21-.19,4.57,4.57,0,0,0,.81-1.11,7.79,7.79,0,0,0,.67-1.94c.06-.29.12-.65.14-.8v-.06a11.51,11.51,0,0,0,.09-1.29c0-.14,0-.33,0-.47a8.85,8.85,0,0,0-.06-.91c-.08-.56-.08-.56-.14-.85s-.12-.55-.19-.8a5.33,5.33,0,0,0-1.17-2.23l-.13-.14-.22-.18a2.22,2.22,0,0,0-.41-.27,2,2,0,0,0-.9-.22,2.23,2.23,0,0,0-1.61.76,6,6,0,0,0-1.39,3,10.55,10.55,0,0,0-.22,1.78A11.5,11.5,0,0,0,354.3,370.8Zm.86-.27a11,11,0,0,1-.1-1.54c0-3,1.28-5.46,2.8-5.41l.24,0a1.93,1.93,0,0,1,.64.29c1.08.77,1.85,2.85,1.82,5.28a9.87,9.87,0,0,1-.09,1.35,5.62,5.62,0,0,1-1.73,3.74,1.72,1.72,0,0,1-.64.28,1.23,1.23,0,0,1-.33,0C356.52,374.54,355.48,372.83,355.16,370.53Z" transform="translate(-59.68 -81.87)"/><path class="cls-39" d="M356.71,374.1a3.35,3.35,0,0,1-.46-.52,8.09,8.09,0,0,1-1.17-4.59,10,10,0,0,1,.06-1.11c.05-.37.1-.67.17-1a7.09,7.09,0,0,1,.62-1.74,3.66,3.66,0,0,1,.4-.64,2.55,2.55,0,0,1,.48-.5,1.63,1.63,0,0,1,.51-.29h0a1.32,1.32,0,0,1,.48-.09h.49c-1.5,0-2.72,2.4-2.75,5.4s1.18,5.52,2.7,5.58h-.49A1.73,1.73,0,0,1,356.71,374.1Zm.51.34h.07l0,0h0l0,0h-.07" transform="translate(-59.68 -81.87)"/><path class="cls-39" d="M355.56,369a11,11,0,0,0,.1,1.54c.3,2.19,1.26,3.85,2.44,4l.16,0h1.33a1.65,1.65,0,0,1-.67-.19l-.18-.11a5.54,5.54,0,0,1-1.75-3.74,11,11,0,0,1-.1-1.54c0-2.37.79-4.36,1.85-5.09l.19-.12a1.46,1.46,0,0,1,.7-.18H358.1C356.7,363.81,355.59,366.12,355.56,369Z" transform="translate(-59.68 -81.87)"/><path class="cls-3" d="M356.89,369a11,11,0,0,0,.1,1.54,5.54,5.54,0,0,0,1.75,3.74l.18.11a1.65,1.65,0,0,0,.67.19h7.64c-1.24-.05-2.29-1.75-2.6-4a11,11,0,0,1-.1-1.54c0-3,1.25-5.39,2.75-5.39h-7.65a1.46,1.46,0,0,0-.7.18l-.19.12C357.68,364.63,356.91,366.62,356.89,369Z" transform="translate(-59.68 -81.87)"/><path class="cls-39" d="M364.53,369a11,11,0,0,0,.1,1.54c.31,2.29,1.36,4,2.6,4h1.67c-1.25-.05-2.29-1.75-2.6-4a9.64,9.64,0,0,1-.1-1.54c0-3,1.25-5.39,2.74-5.39h-1.66C365.78,363.6,364.56,366,364.53,369Z" transform="translate(-59.68 -81.87)"/><path class="cls-40" d="M366.2,370.53c0,.09,0,.2,0,.3a10.16,10.16,0,0,0,.27,1.23,6.37,6.37,0,0,0,1,2,4.47,4.47,0,0,0,.44.5l.25.2,0,0,.26.17a0,0,0,0,0,0,0,2.16,2.16,0,0,0,2.35-.1,2.51,2.51,0,0,0,.51-.43,4.23,4.23,0,0,0,.34-.4,3.3,3.3,0,0,0,.26-.39,6.72,6.72,0,0,0,.49-1s.18-.5.26-.84c0-.14.07-.28.1-.4.06-.28.1-.55.15-.89,0-.05,0-.09,0-.14.05-.45.06-.81.07-1.17v-.48a9.21,9.21,0,0,0-.07-.92c-.08-.57-.08-.57-.14-.88s-.15-.64-.2-.81a5.51,5.51,0,0,0-1.22-2.31,3,3,0,0,0-.82-.65,2.33,2.33,0,0,0-1-.24,2.42,2.42,0,0,0-.51.07,3,3,0,0,0-.5.18,2.57,2.57,0,0,0-.42.28,1.68,1.68,0,0,0-.21.18l-.12.12a4.43,4.43,0,0,0-.8,1.16,7.22,7.22,0,0,0-.65,1.91A11.06,11.06,0,0,0,366.2,370.53Zm1.26-.39a2.45,2.45,0,0,0,0-.27c0-.29,0-.58,0-.88,0-3,1.28-5.45,2.79-5.39s2.72,2.55,2.7,5.58a10.42,10.42,0,0,1-.07,1.14c0,.32-.09.62-.15.91-.42,2-1.42,3.38-2.57,3.34C368.79,374.52,367.71,372.62,367.46,370.14Z" transform="translate(-59.68 -81.87)"/><g class="cls-7"><path class="cls-8" d="M354.3,370.8a9.66,9.66,0,0,0,.4,1.61c.12.29.2.51.29.69a6,6,0,0,0,.5.84,3,3,0,0,0,.87.81,1.93,1.93,0,0,0,1,.3,2.06,2.06,0,0,0,1.3-.47h9.21a2.35,2.35,0,0,0,1.64.7,2.25,2.25,0,0,0,1.25-.4,2.51,2.51,0,0,0,.51-.43,4.23,4.23,0,0,0,.34-.4,3.3,3.3,0,0,0,.26-.39,6.72,6.72,0,0,0,.49-1s.18-.5.26-.84c0-.14.07-.28.1-.4l-.08-.15c-.42,2-1.42,3.38-2.57,3.34-1.37-.05-2.48-2.08-2.67-4.7a1.24,1.24,0,0,0,0,.27c0,.61-1,.43-1.11.39H355.16A1.94,1.94,0,0,1,354.3,370.8Z" transform="translate(-59.68 -81.87)"/></g><path class="cls-43" d="M366.51,372.06a6.37,6.37,0,0,0,1,2,4.47,4.47,0,0,0,.44.5l.25.2,0,0,.26.17a0,0,0,0,0,0,0,2.16,2.16,0,0,0,2.35-.1,2.51,2.51,0,0,0,.51-.43,4.23,4.23,0,0,0,.34-.4,3.3,3.3,0,0,0,.26-.39,6.72,6.72,0,0,0,.49-1s.18-.5.26-.84c0-.14.07-.28.1-.4.06-.28.1-.55.15-.89,0-.05,0-.09,0-.14l-.09,0a17.14,17.14,0,0,0-5.37-.18h0A3.78,3.78,0,0,0,366.51,372.06Z" transform="translate(-59.68 -81.87)"/><path class="cls-44" d="M367.52,369c0,.2,0,.41,0,.61.12,2.62,1.22,4.7,2.57,4.75s2.53-2,2.67-4.75c0-.14,0-.28,0-.43,0-2.91-1.13-5.3-2.59-5.35S367.55,366.08,367.52,369Z" transform="translate(-59.68 -81.87)"/><path class="cls-43" d="M370.09,374.77c-1.58-.06-2.83-2.22-3-5.15,0-.22,0-.44,0-.63a7.24,7.24,0,0,1,1.63-5,2.07,2.07,0,0,1,1.49-.62c1.7.06,3,2.6,3,5.77,0,.15,0,.3,0,.45-.15,2.95-1.45,5.15-3,5.15Zm-.78-10.14a6.54,6.54,0,0,0-1.37,4.36h0c0,.18,0,.37,0,.58.11,2.36,1.08,4.31,2.16,4.35h0c1.1,0,2.08-1.94,2.2-4.36,0-.13,0-.26,0-.4,0-2.86-1.13-4.9-2.18-4.93h0A1.25,1.25,0,0,0,369.31,364.63Z" transform="translate(-59.68 -81.87)"/><path class="cls-12" d="M233.92,340.34a20.1,20.1,0,0,0-5.94-.9,18.82,18.82,0,0,0-2.27.14,20,20,0,0,0-6.31,1.82,31.29,31.29,0,0,0-6-16.6v15.46a35.61,35.61,0,0,0,27.14,34.58,21.85,21.85,0,0,0,2.22-2.08l.21-.23a22.49,22.49,0,0,0,1.63-2.12.16.16,0,0,1,0-.07,20.86,20.86,0,0,0,1.22-2.17l.23-.47a20.35,20.35,0,0,0,.94-2.43l0-.14a19,19,0,0,0,.55-2.4c0-.21.07-.43.1-.65a21.37,21.37,0,0,0,.19-2.67,20,20,0,0,0-14-19.07Z" transform="translate(-59.68 -81.87)"/><path class="cls-5" d="M223.46,337.19a19.92,19.92,0,0,0-8.58,1.95,31.73,31.73,0,0,0-43.2-27.61,36,36,0,0,0-69.46,11.91h0a26.84,26.84,0,0,0,0,53.68H223.46a20,20,0,1,0,0-39.93Zm-67.66,20h-1.9q.75-.36,1.47-.75Z" transform="translate(-59.68 -81.87)"/><path class="cls-45" d="M155.58,359.68c-.46.25-.92.49-1.39.71H156C155.85,360.16,155.71,359.92,155.58,359.68Z" transform="translate(-59.68 -81.87)"/><path class="cls-46" d="M223.46,337.19a19.92,19.92,0,0,0-8.58,1.95,31.73,31.73,0,0,0-43.2-27.61,36,36,0,0,0-69.46,11.91h0a26.83,26.83,0,0,0-12.42,50.62,25.41,25.41,0,0,1,15.43-45.61h0A34.11,34.11,0,0,1,171,317.17,30.07,30.07,0,0,1,212,343.33a18.9,18.9,0,0,1,19.66,32,20,20,0,0,0-8.16-38.18Z" transform="translate(-59.68 -81.87)"/><path class="cls-11" d="M147.26,329.2c1.47,0,2.93,0,4.4,0a1.17,1.17,0,0,1,1.31.87c.6,2,1.17,4,1.78,6s1.29,4,1.92,6.06c.45,1.45.85,2.91,1.29,4.36s.88,2.83,1.32,4.24.9,3,1.35,4.45.81,2.72,1.24,4.06c.59,1.86,1.21,3.71,1.76,5.58,0,.13-.4.57-.63.58-1.26.06-2.52,0-3.78,0h-3.57a.89.89,0,0,1-1-.78c-.62-2.2-1.33-4.38-2-6.56a4.3,4.3,0,0,1-.13-.7,1.18,1.18,0,0,0-1.34-1.2c-2.86,0-5.72,0-8.58,0-.57,0-.79.17-.95.76q-.9,3.38-2,6.69c-.58,1.78-.63,1.76-2.53,1.75s-3.61,0-5.42,0c-.74,0-1-.27-.78-1,.45-1.45.92-2.89,1.36-4.34s.91-3,1.37-4.55.85-2.77,1.28-4.16q1-3.18,2-6.37c.63-2,1.27-4.05,1.9-6.09s1.28-4.19,1.91-6.28c.24-.78.46-1.56.71-2.33a1.4,1.4,0,0,1,1.64-1.11c1.39.1,2.79,0,4.18,0Zm-.27,6.52c-.15.11-.28.16-.3.23-.38,1.43-.76,2.87-1.13,4.31-.49,1.86-1,3.71-1.47,5.57-.27,1.05-.5,2.11-.76,3.16-.15.58.1.82.68.82h6.23c.54,0,.73-.2.52-.77a23.7,23.7,0,0,1-.84-2.59c-.78-2.9-1.53-5.81-2.3-8.72C147.44,337.08,147.21,336.43,147,335.72Z" transform="translate(-59.68 -81.87)"/><path class="cls-11" d="M175.2,352.42c0,4,0,8,0,11.94,0,.83-.21,1.15-1.09,1.12-2-.06-4.08,0-6.12,0-.84,0-1.11-.29-1.11-1.14,0-7.93,0-15.86.07-23.79,0-1.47,0-1.49,1.47-1.48,1.88,0,3.75.06,5.62,0,.94,0,1.24.28,1.23,1.22-.05,4.05,0,8.1-.05,12.15Z" transform="translate(-59.68 -81.87)"/><path class="cls-11" d="M171.11,327.7a4.1,4.1,0,0,1,4.37,4.21c-.12,2.53-1.54,4-4.4,4a4,4,0,0,1-4.37-4.19A4.08,4.08,0,0,1,171.11,327.7Z" transform="translate(-59.68 -81.87)"/><path class="cls-12" d="M206.64,195.66a1.69,1.69,0,0,0-.08-.24l0,0a1.38,1.38,0,0,0-.18-.41,1.1,1.1,0,0,0-1.09-.47l-4.19.65-13.9,2.18-2.37,1.36a78.88,78.88,0,0,0-3.44,20.57c.87-.29,2.91-1.08,3.42-2.23l8.88-5.09,9.72-11.59,2.93-3.49A1.52,1.52,0,0,0,206.64,195.66Z" transform="translate(-59.68 -81.87)"/><g id="_Group_4" data-name="&lt;Group&gt;"><path id="_Path_11" data-name="&lt;Path&gt;" class="cls-47" d="M157.87,211.84a2.12,2.12,0,0,0,.3.56l.18.2a2.74,2.74,0,0,0,2.18.57h0l.27-.1.09,0c1.89-.8,5.89-3.73,8.62-5.82h0c1.63-1.26,2.81-2.2,2.81-2.2l-.24-.38-1-1.42s-6.07,2.87-8.94,3.87a18.9,18.9,0,0,0-3.34,1.36,3.37,3.37,0,0,0-.31.21A3.45,3.45,0,0,0,157.87,211.84Z" transform="translate(-59.68 -81.87)"/><path id="_Path_12" data-name="&lt;Path&gt;" class="cls-48" d="M150.24,212.66a64.89,64.89,0,0,0,8,.77,7.49,7.49,0,0,0,2.55-.36l.08,0h0c1.89-.8,5.89-3.73,8.62-5.82-.4.23-5.57,3.24-8.46,4.62a10.26,10.26,0,0,1-1.63.66,6.09,6.09,0,0,1-1.07.1h-.17a7.75,7.75,0,0,1-6.5-3.72,14.83,14.83,0,0,0-1.28-1.75S150.3,210.36,150.24,212.66Z" transform="translate(-59.68 -81.87)"/></g><path id="_Path_13" data-name="&lt;Path&gt;" class="cls-49" d="M137.5,223.94a8.28,8.28,0,0,1,.37,4.75c-.7,3.14.09,3.36.09,3.36a41,41,0,0,0,7.81,3.81c2.55.79,4.71.66,4.65-2.15v0c0-.17,0-.33,0-.49-.12-6.31,1.19-6.63,1.52-13.69.33-7.25.26-11.54-2.06-12.71a15.34,15.34,0,0,0-10.94-1c-3.71.87-4.93,1.85-4.9,4.59a21.66,21.66,0,0,0,.4,3.38A59.89,59.89,0,0,0,137.5,223.94Z" transform="translate(-59.68 -81.87)"/><path id="_Path_14" data-name="&lt;Path&gt;" class="cls-48" d="M137.5,223.94a8.28,8.28,0,0,1,.37,4.75c-.7,3.14.09,3.36.09,3.36a41,41,0,0,0,7.81,3.81l3.32-.31,1.33-1.05v-.83c0-.17,0-.33,0-.49a24.84,24.84,0,0,1-5-.13,20.58,20.58,0,0,1-4.9-1.23,1.91,1.91,0,0,1-1.21-2.13,28,28,0,0,0,.46-4.4,23.8,23.8,0,0,0-1.18-5.43,10.89,10.89,0,0,1-.44-4,36.12,36.12,0,0,0,0-4.58l-2.62-1.42-1.47.54a21.66,21.66,0,0,0,.4,3.38A59.89,59.89,0,0,0,137.5,223.94Z" transform="translate(-59.68 -81.87)"/><path id="_Path_15" data-name="&lt;Path&gt;" class="cls-50" d="M146.45,208.42s3.84,12.6,3.07,18.64l-1.41,2.58-1.55-2.81s1.26-12.07-1.15-18.2Z" transform="translate(-59.68 -81.87)"/><path id="_Path_16" data-name="&lt;Path&gt;" class="cls-51" d="M146.71,207.35l0,.16a3.6,3.6,0,0,1-.24.91h0l-1,.21-.91-.67,1-1.21.16,0a2.27,2.27,0,0,1,1,.54Z" transform="translate(-59.68 -81.87)"/><g id="_Group_5" data-name="&lt;Group&gt;"><path id="_Path_17" data-name="&lt;Path&gt;" class="cls-17" d="M149.6,290.34a4.69,4.69,0,0,1,.32,1.54c0,.61-2,.65-2.21.33a16.67,16.67,0,0,1-.34-3.11" transform="translate(-59.68 -81.87)"/><path id="_Path_18" data-name="&lt;Path&gt;" class="cls-20" d="M147.19,292.75a12.62,12.62,0,0,0,.18,1.67h2.24l.11-.37a3.5,3.5,0,0,0,1.29.37h1.89c1.38,0,2.17-.17,2.2-.42.15-1-1.5-1-1.93-1-1.24,0-2.58-.57-2.87-1.2-.21-.46-.11-.57-.37-.49a.63.63,0,0,0-.38.34,1.14,1.14,0,0,1-1.17.63,1.38,1.38,0,0,1-.76-.36A.81.81,0,0,0,147.19,292.75Z" transform="translate(-59.68 -81.87)"/></g><g id="_Group_6" data-name="&lt;Group&gt;"><path id="_Path_19" data-name="&lt;Path&gt;" class="cls-17" d="M127.84,288.23a17.79,17.79,0,0,1-.68,2.19c-.27.55-2.09-.13-2.18-.51a17.41,17.41,0,0,1,.84-3" transform="translate(-59.68 -81.87)"/><path id="_Path_20" data-name="&lt;Path&gt;" class="cls-20" d="M124.3,290.22c-.23.59-.58,1.74-.58,1.74l1.69,1,.34-.25a3.32,3.32,0,0,0,.89.93,7.07,7.07,0,0,0,1.68.69c1.55.36,2.74.19,2.87,0,.51-.89-1.55-1.37-1.94-1.53a2.75,2.75,0,0,1-1.71-2.26c0-.5.1-.58-.17-.59a.65.65,0,0,0-.48.16,1.12,1.12,0,0,1-1.32.16,1.35,1.35,0,0,1-.57-.61A.8.8,0,0,0,124.3,290.22Z" transform="translate(-59.68 -81.87)"/></g><g id="_Group_7" data-name="&lt;Group&gt;"><path id="_Path_21" data-name="&lt;Path&gt;" class="cls-20" d="M135.7,244.61s-3-7.28,2.26-12.56a29.59,29.59,0,0,0,8.15,2.27,17.78,17.78,0,0,0,4.3-.11,66.92,66.92,0,0,1,.75,14Z" transform="translate(-59.68 -81.87)"/><path id="_Path_22" data-name="&lt;Path&gt;" class="cls-20" d="M147.1,291h.27a15.43,15.43,0,0,0,3-.2v-.55c-.11-8.33.9-21.94,1.1-26.25a4.33,4.33,0,0,0,0-.82c-.32-3.15-3.58-2.74-5,.15a12.18,12.18,0,0,0-.77,2.23,20.8,20.8,0,0,0-.51,3.14C144.54,276,146.54,285.67,147.1,291Z" transform="translate(-59.68 -81.87)"/><path id="_Path_23" data-name="&lt;Path&gt;" class="cls-20" d="M141.45,248l.06.26c.72,3.8,3.06,14,4.17,17.37h0a2,2,0,0,0,1.43,1.05c1.64.44,4.08-.17,4.29-3.43a7.8,7.8,0,0,0,0-1.18c-.14-1.71-.26-9-.23-13.82a19.29,19.29,0,0,0-.69-4.91c-.11-1.41-.36-3.48-1.11-3.74C145.63,238.29,140.48,242.66,141.45,248Z" transform="translate(-59.68 -81.87)"/><path class="cls-21" d="M147.37,266l-.92-2.57c-1-3.34-1-11.13-1-11.13a39.74,39.74,0,0,0,2.84-12.4l-2.13.29-3.81,4.58-.79,3.51c.58,3.08,2.23,10.39,3.42,14.83h0a18.26,18.26,0,0,1,.24,5.7,2.34,2.34,0,0,0,0,.78c-.44,7.11,1.42,16.33,2,21.51h.27s-.47-8.51-1.23-14.4a23.39,23.39,0,0,1,1-10C147.26,266.2,147.37,266,147.37,266Z" transform="translate(-59.68 -81.87)"/><path id="_Path_24" data-name="&lt;Path&gt;" class="cls-20" d="M134,263.17c2.52-2.37,6-1.25,4.39,2.43-1.75,3.94-7.17,14.88-10.11,22.67l-.2.51a16.49,16.49,0,0,1-3.08-1c1.4-5.06,2.42-13.78,5.32-19.85A16.43,16.43,0,0,1,134,263.17Z" transform="translate(-59.68 -81.87)"/><g id="_Group_8" data-name="&lt;Group&gt;"><g id="_Group_9" data-name="&lt;Group&gt;"><path id="_Path_25" data-name="&lt;Path&gt;" class="cls-20" d="M148.24,239.85c.49-5.86-6.81-2-10.31,0a4.94,4.94,0,0,0-2.21,4c-.2,1.53-2.1,17.32-2.48,20.2-.85,6.5,4.82,2.94,5.36,1.14C140,260.6,148,243.05,148.24,239.85Z" transform="translate(-59.68 -81.87)"/></g></g><path id="_Path_26" data-name="&lt;Path&gt;" class="cls-20" d="M133.75,260a15.7,15.7,0,0,1-2.85,6.94,49.88,49.88,0,0,0,4.48-2.27,15.52,15.52,0,0,0,.87-3.62C136.17,260.71,133.75,260,133.75,260Z" transform="translate(-59.68 -81.87)"/></g><path id="_Path_27" data-name="&lt;Path&gt;" class="cls-52" d="M142.59,235.25l0,.42-.57.61a1.78,1.78,0,0,1-.88-.55,5.42,5.42,0,0,1-.57-.92l-.26.3s-6.47-5-9.25-9.9l1.17-1.26,1.07.42s3.11,3.13,3.31,3.42l2.41,3.62Z" transform="translate(-59.68 -81.87)"/><path class="cls-37" d="M148.84,191s1.3,2.18-.15,3.85-2.86-2.61-2.86-2.61Z" transform="translate(-59.68 -81.87)"/><g id="_Group_10" data-name="&lt;Group&gt;"><path class="cls-17" d="M149.38,198c-.48.19-.37,1.2-.46,1.73s.19,2.27-.87,2.66c-.87.32-2.18.72-2.44.81,0,.08,0,.46.06.84a.57.57,0,0,0,0,.13c0,.37.06.7.06.7l-.28,2.07-1.76-.78-2.6-.76s-.12-2.71-.23-3.13c-.07-.26-1-2.09-1.75-3.87a8.73,8.73,0,0,1-.75-2.78c0-1.89.06-3.87,1.23-4.84s8.55-4.47,8.76,1.31a30.55,30.55,0,0,0,1.09,4.69C149.84,197.39,149.86,197.85,149.38,198Z" transform="translate(-59.68 -81.87)"/></g><path id="_Path_28" data-name="&lt;Path&gt;" class="cls-17" d="M141.58,196.74s-.09-1.07-.91-.92c-1.09.2-1.56,3.06.73,3.1A8.38,8.38,0,0,1,141.58,196.74Z" transform="translate(-59.68 -81.87)"/><path class="cls-53" d="M145.68,204.21a10,10,0,0,1-2.9-1.43,12.87,12.87,0,0,0,2.83.46c0,.08,0,.46.06.84A.57.57,0,0,0,145.68,204.21Z" transform="translate(-59.68 -81.87)"/><path class="cls-37" d="M149.05,188.37s4.6,5.21-6.62,5.56c0,0-.66.22-.32,1.69s-.53,1.12-.53,1.12-1.16-2-1.8.35a4.09,4.09,0,0,0,.4,2.21,7.82,7.82,0,0,1,.93,3.1c0,.38-.31.31-.44.27-.46-.14-1.86-2.66-2.67-5.58s-1.46-5.51,1.9-8S149.05,188.37,149.05,188.37Z" transform="translate(-59.68 -81.87)"/><path id="_Path_29" data-name="&lt;Path&gt;" class="cls-48" d="M141.06,204.46s-.26.31-.76,1.06a8.84,8.84,0,0,1,1.32.63c.54.33,3.15,2.17,3.15,2.17l.77-1.57A26.44,26.44,0,0,0,141.06,204.46Z" transform="translate(-59.68 -81.87)"/><path id="_Path_30" data-name="&lt;Path&gt;" class="cls-48" d="M145.54,206.75a2.17,2.17,0,0,1,1.19,1,3.53,3.53,0,0,0,.07-2.09,2,2,0,0,0-1.08-1Z" transform="translate(-59.68 -81.87)"/><path class="cls-54" d="M187.24,205.22a7.14,7.14,0,0,0-2.84-5.58c.37-1.72-1.28-3.82-2.3-4.51l-66.81,33.46,2.29,4.51h0l2.84,5.58,2.3,4.52,66.81-33.46C189.58,208.51,188.85,205.93,187.24,205.22Z" transform="translate(-59.68 -81.87)"/><path class="cls-55" d="M199.84,196.55l-1-2L198,193l-15.91,2.18c1,.69,2.67,2.79,2.3,4.51a7.14,7.14,0,0,1,2.84,5.58c1.61.71,2.34,3.29,2.29,4.52l11.13-11.58Z" transform="translate(-59.68 -81.87)"/><path class="cls-56" d="M204.37,193.4a1.49,1.49,0,0,0-.31-.63,1.36,1.36,0,0,0-1.25-.47L198,193l.82,1.61,1,2,.82,1.61,3.35-3.5A1.34,1.34,0,0,0,204.37,193.4Z" transform="translate(-59.68 -81.87)"/><path class="cls-57" d="M102.27,234.78l-5,2.55a1.43,1.43,0,0,0-.71,1.89l6.55,12.87a1.42,1.42,0,0,0,1.94.54l5-2.55Z" transform="translate(-59.68 -81.87)"/><path class="cls-58" d="M108.17,246.38l-2.54-5-3.36-6.61-5,2.55a1.34,1.34,0,0,0-.28.18l-.07.06-.16.16h0l-.09.13-.06.1a1.19,1.19,0,0,0-.11.26,1.27,1.27,0,0,0,.07,1l6.55,12.87a1.42,1.42,0,0,0,1.94.54l5-2.55Z" transform="translate(-59.68 -81.87)"/><rect class="cls-57" x="103.78" y="229.12" width="18.33" height="19.71" rx="1.56" ry="1.56" transform="translate(-155.78 -4.66) rotate(-26.97)"/><rect class="cls-59" x="115.96" y="225.13" width="3.83" height="22.66" rx="1.56" ry="1.56" transform="translate(-154.1 -2.69) rotate(-26.97)"/><rect class="cls-59" x="106.55" y="229.92" width="3.83" height="22.66" rx="1.56" ry="1.56" transform="translate(-157.3 -6.44) rotate(-26.97)"/><path class="cls-12" d="M200.66,198.16l3.35-3.5a1.34,1.34,0,0,0,.36-1.26,2.25,2.25,0,0,0-.08-.24c-5.46,4.42-17,14.46-17,14.46l-85.15,42.51,1,2a.91.91,0,0,0,.15.23,1.37,1.37,0,0,0,.42.34,1.34,1.34,0,0,0,.53.14,1.5,1.5,0,0,0,.84-.17l3.67-1.86a1.55,1.55,0,0,0,1.94.43l.6-.3a1.55,1.55,0,0,0,2.05.61l.63-.32a1.57,1.57,0,0,0,.72-2l6-3.06a1.56,1.56,0,0,0,2.06.61l.62-.32a1.56,1.56,0,0,0,.72-2l.14-.07a1.56,1.56,0,0,0,.68-2.1l0-.09,64.7-32.38Z" transform="translate(-59.68 -81.87)"/><g id="_Group_11" data-name="&lt;Group&gt;"><path id="_Path_31" data-name="&lt;Path&gt;" class="cls-17" d="M139.66,233.94l2-1.7s.6,1,1,1.13a2.48,2.48,0,0,0,.54-.06,3.65,3.65,0,0,1,1.65.51c.48.22,1.11.42,1.13.61s-.3.5-.64.47l-.16,0a1.15,1.15,0,0,1,0,.2c-.14.43-2.14,3.22-4.13.18A5.83,5.83,0,0,0,139.66,233.94Z" transform="translate(-59.68 -81.87)"/><path id="_Path_32" data-name="&lt;Path&gt;" class="cls-49" d="M138.63,214.08a58,58,0,0,1-2.75,8.11.75.75,0,0,1-.08.18s0,0,0,0a1.9,1.9,0,0,1-.11.31,2.48,2.48,0,0,1-2.41,1.66c-.08,0-.27,0-.52,0s-.66,0-1,0-.79-.11-.92-.32h0a.64.64,0,0,1,0-.21.45.45,0,0,1,0-.11s0-.08,0-.13l0-.35v-.17a11.53,11.53,0,0,1,.13-1.69c.22-2.33,2.52-9.63,3.3-12.67a2.15,2.15,0,0,1,.72-1.13,1.87,1.87,0,0,1,1.09-.43h.19a2.72,2.72,0,0,1,2.2,1.8,6.27,6.27,0,0,1,.6,2A7.1,7.1,0,0,1,138.63,214.08Z" transform="translate(-59.68 -81.87)"/><path id="_Path_33" data-name="&lt;Path&gt;" class="cls-49" d="M142.13,233.21l-1.27,1.15h0l-.33.29s-2.59-2.24-4.6-4.14a22.79,22.79,0,0,1-4.94-6.09c-.06-.11-.11-.24-.16-.34v0a.64.64,0,0,1,0-.21.45.45,0,0,1,0-.11s0-.08,0-.13l0-.35v-.17a2.05,2.05,0,0,1,.47-1.36l.09-.11a2,2,0,0,1,.51-.37,3,3,0,0,1,.37-.16,3.61,3.61,0,0,1,2.89.39l.24.26q.27.28.54.63a10.25,10.25,0,0,1,1.39,2.32A83.67,83.67,0,0,0,142.13,233.21Z" transform="translate(-59.68 -81.87)"/></g><path id="_Path_34" data-name="&lt;Path&gt;" class="cls-48" d="M140.86,234.36h0l-.33.29s-2.59-2.24-4.6-4.14a22.79,22.79,0,0,1-4.94-6.09c-.06-.11-.11-.24-.16-.34v0a.64.64,0,0,1,0-.21.45.45,0,0,1,0-.11s0-.08,0-.13l0-.35v-.17a11.53,11.53,0,0,1,.13-1.69c.22-2.33,2.52-9.63,3.3-12.67a2.15,2.15,0,0,1,.72-1.13,1.87,1.87,0,0,1,1.09-.43h.19a20.23,20.23,0,0,0-1.94,5.53c-1,4.22-1.76,6.77-2.05,8.4a6.16,6.16,0,0,0-.13,1.76,5.71,5.71,0,0,0,.74,1.54C134.52,227.33,139,233.1,140.86,234.36Z" transform="translate(-59.68 -81.87)"/><path id="_Path_35" data-name="&lt;Path&gt;" class="cls-17" d="M175,217.19s3.68-.89,4.41-2.38c.8-1.64-.07-2.92-1.23-2.29-1.81,1-2.51,3.79-2.51,3.79l-.67.88Z" transform="translate(-59.68 -81.87)"/><g class="cls-7"><path class="cls-8" d="M75.35,350.28h0c0,.82.05,1.63.12,2.43,0,.23,0,.45.07.67.08.66.18,1.31.3,2,0,.15,0,.3.08.45s.07.25.1.38l.64-1.39h0v0A25.94,25.94,0,0,0,78,351.3l0-.11a1.74,1.74,0,0,0,0-.22c0-.14.07-.28.1-.43s.07-.3.1-.45.11-.57.17-.87l0-.18a.13.13,0,0,0,0-.06c.06-.29.11-.63.16-1,.09-.54.18-1.09.27-1.69h.24c.74,3.09,1.31,5.5,1.31,5.5a32.72,32.72,0,0,0-1.89,7.67,22.91,22.91,0,0,0,0,3.52l.33.56c.24.42.48.83.75,1.24s.35.54.54.81.57.79.88,1.18.63.78,1,1.16l.36.39c1-6.15,2.76-13.57,3.21-16.83a57,57,0,0,0,.48-6.13l0,0s.49-10.25.31-16.79A26.75,26.75,0,0,0,75.35,350.28Z" transform="translate(-59.68 -81.87)"/></g><g id="_Group_12" data-name="&lt;Group&gt;"><g id="_Group_13" data-name="&lt;Group&gt;"><path id="_Path_36" data-name="&lt;Path&gt;" class="cls-16" d="M75,282.49s4.5.12,2.12,5.25S75,282.49,75,282.49Z" transform="translate(-59.68 -81.87)"/><path id="_Path_37" data-name="&lt;Path&gt;" class="cls-17" d="M76.24,284.35s1.21.75,1.19,4.76c0,.14.49,1.32.53,1.46.17.54-.16.58-.62.8-.19,3-.64,3-1,3.24s-3.94-.41-6.17-1.52-3-4.41-2-6.44S73.62,282.6,76.24,284.35Z" transform="translate(-59.68 -81.87)"/><path id="_Path_38" data-name="&lt;Path&gt;" class="cls-16" d="M67.71,284.7a2.74,2.74,0,0,0-3.15-1.64c-2.26.56-2.69,5.37,2.21,4.46A3.71,3.71,0,0,1,67.71,284.7Z" transform="translate(-59.68 -81.87)"/><path id="_Path_39" data-name="&lt;Path&gt;" class="cls-60" d="M68.05,284s-.53-.89-1.47.3c-.63.79-1.62,3.12-.26,3.69Z" transform="translate(-59.68 -81.87)"/><path id="_Path_40" data-name="&lt;Path&gt;" class="cls-16" d="M66.17,287.19c-.36,1.9.58,4.81,4.31,6.07,0,0,.33-1.15.57-2.28s3.4-2.41,4.77-3.64a1.7,1.7,0,0,0,.19-.19,2.82,2.82,0,0,0,0-3.73,4.63,4.63,0,0,0-5.51-1.49A6.36,6.36,0,0,0,66.17,287.19Z" transform="translate(-59.68 -81.87)"/><path id="_Path_41" data-name="&lt;Path&gt;" class="cls-17" d="M75.16,291.42a4.77,4.77,0,0,0-.65,3.15c0,.21,0,.42,0,.62a20.36,20.36,0,0,0,.34,2.31l-4.3-.11a26.25,26.25,0,0,0-.11-4.14S76.55,289.92,75.16,291.42Z" transform="translate(-59.68 -81.87)"/><path id="_Path_42" data-name="&lt;Path&gt;" class="cls-61" d="M72.72,289.25a1.22,1.22,0,0,0-1.61-.53c-1,.5-.39,2.32.35,2.62a1,1,0,0,0,1.05-.16Z" transform="translate(-59.68 -81.87)"/><path id="_Path_43" data-name="&lt;Path&gt;" class="cls-17" d="M73,289.25a1.25,1.25,0,0,0-1.62-.53c-1,.5-.46,2.42.36,2.62a.89.89,0,0,0,1-.36Z" transform="translate(-59.68 -81.87)"/><path id="_Path_44" data-name="&lt;Path&gt;" class="cls-62" d="M74.55,295.19a13.06,13.06,0,0,1-2.85-1.44c1.21.39,2.81.82,2.81.82C74.53,294.78,74.54,295,74.55,295.19Z" transform="translate(-59.68 -81.87)"/></g><g id="_Group_14" data-name="&lt;Group&gt;"><path id="_Path_45" data-name="&lt;Path&gt;" class="cls-20" d="M84.22,297,80.82,312a.71.71,0,0,0,.59.87L92,314.35a.73.73,0,0,0,.8-.55l3.4-14.94a.72.72,0,0,0-.6-.87L85,296.47A.72.72,0,0,0,84.22,297Z" transform="translate(-59.68 -81.87)"/><polygon id="_Path_46" data-name="&lt;Path&gt;" class="cls-63" points="25.2 215.63 21.95 229.93 32.46 231.44 35.72 217.14 25.2 215.63"/><g id="_Group_15" data-name="&lt;Group&gt;"><g id="_Group_16" data-name="&lt;Group&gt;"><path class="cls-46" d="M94.28,300.25h0L85.32,299a.18.18,0,0,1-.16-.21.19.19,0,0,1,.21-.15l8.93,1.28a.18.18,0,0,1,.16.21A.18.18,0,0,1,94.28,300.25Z" transform="translate(-59.68 -81.87)"/></g><g id="_Group_17" data-name="&lt;Group&gt;" class="cls-64"><path class="cls-5" d="M94,301.6h0L85,300.32a.2.2,0,0,1-.16-.21.19.19,0,0,1,.21-.16L94,301.23a.18.18,0,0,1,.16.21A.18.18,0,0,1,94,301.6Z" transform="translate(-59.68 -81.87)"/></g><g id="_Group_18" data-name="&lt;Group&gt;"><path class="cls-46" d="M90.26,302.72h0l-5.58-.8a.19.19,0,1,1,0-.37l5.58.8a.18.18,0,0,1,.16.21A.18.18,0,0,1,90.26,302.72Z" transform="translate(-59.68 -81.87)"/></g><g id="_Group_19" data-name="&lt;Group&gt;" class="cls-64"><path class="cls-5" d="M89.86,303.88h0l-5.59-.8a.19.19,0,0,1-.16-.21.2.2,0,0,1,.21-.16l5.59.81a.17.17,0,0,1,.15.21A.17.17,0,0,1,89.86,303.88Z" transform="translate(-59.68 -81.87)"/></g><g id="_Group_20" data-name="&lt;Group&gt;" class="cls-64"><path class="cls-5" d="M89.46,305.05h0l-5.58-.81a.17.17,0,0,1-.16-.21.18.18,0,0,1,.21-.15l5.58.8a.19.19,0,0,1,.16.21A.19.19,0,0,1,89.46,305.05Z" transform="translate(-59.68 -81.87)"/></g><g id="_Group_21" data-name="&lt;Group&gt;"><path class="cls-46" d="M91.51,311.47h0l-5.59-.8a.18.18,0,0,1-.15-.21.17.17,0,0,1,.2-.16l5.59.8a.2.2,0,0,1,.16.21A.2.2,0,0,1,91.51,311.47Z" transform="translate(-59.68 -81.87)"/></g></g></g><g id="_Group_22" data-name="&lt;Group&gt;"><path class="cls-65" d="M80.14,312.14a4.6,4.6,0,0,0,1.47-1.31l1.27-1.51a1.18,1.18,0,0,0,.35-.67c-.59,0-1,.61-1.55.84a.18.18,0,0,1-.23-.21,15.2,15.2,0,0,1,1.32-3,1,1,0,0,0,.2-.83,5.4,5.4,0,0,0-2,1.43A10.68,10.68,0,0,0,80,308.19a14.55,14.55,0,0,0-1.9,4.67Z" transform="translate(-59.68 -81.87)"/></g><g id="_Group_23" data-name="&lt;Group&gt;"><path id="_Path_47" data-name="&lt;Path&gt;" class="cls-17" d="M78.23,324.81l-6.73-7.25s-4.07,4.31-3.32,9a42.29,42.29,0,0,0,1.27,4.65c.21,1,.74,15.41.44,16.42s-1.86,3.75-2.69,6.72c-1,3.58-2.08,9.08-2.9,12.18s.53,7.23.82,6.19c2.49-8.95,9-19.55,10.11-24.05S77.11,335.85,78.23,324.81Z" transform="translate(-59.68 -81.87)"/><path class="cls-62" d="M73.81,352.54c.15-1.18.37-2.35.47-3.53A17,17,0,0,0,73,340.88l4.18-7.09.16,0c0,.41-.09.82-.13,1.22s-.07.68-.11,1l-.15,1.33c-.17,1.51-.33,2.92-.5,4.22,0,.33-.09.65-.13,1q-.15,1.18-.33,2.25c-.1.68-.21,1.33-.32,1.93-.06.38-.14.75-.21,1.1,0,.15-.07.3-.1.45s-.06.29-.1.44a1.6,1.6,0,0,1,0,.21Z" transform="translate(-59.68 -81.87)"/><path id="_Path_48" data-name="&lt;Path&gt;" class="cls-17" d="M67.17,366.26s-2.06,5.85-1.9,6.59c.1.46.56,2,.66,2.21s1.52,1.26.54,1.23-3.26-3.08-3.61-3.31a1.45,1.45,0,0,1-.67-1.5,6.24,6.24,0,0,1,1.25-2.22,18.93,18.93,0,0,0,1.08-3.68Z" transform="translate(-59.68 -81.87)"/><path id="_Path_49" data-name="&lt;Path&gt;" class="cls-20" d="M67.78,376.55a6,6,0,0,0-1.59-1.26h0c-.18-.23-.33-.38-.26-.23s-.52.37-.85.11c-1.12-.91-1.45-2.26-2-2.9a2.19,2.19,0,0,1-.15-2.31,5.25,5.25,0,0,0-1.62.73,2.92,2.92,0,0,0-.86,1,15.34,15.34,0,0,1-.77,1.76l1.06.85,1-.94.28.3a2.33,2.33,0,0,1,.55,1.13,8.1,8.1,0,0,0,.27.83,2.63,2.63,0,0,0,.79,1.1l.46.37a1.88,1.88,0,0,0,1.2.43h2.12a.48.48,0,0,0,.49-.53A1.15,1.15,0,0,0,67.78,376.55Z" transform="translate(-59.68 -81.87)"/></g><g id="_Group_24" data-name="&lt;Group&gt;"><path id="_Path_50" data-name="&lt;Path&gt;" class="cls-17" d="M83.32,375.65c-.14-.19-1.86-.63-2.65-1a4.64,4.64,0,0,1-1.74-2,20,20,0,0,1,.21-3.66c.75-6.49,3.09-15.89,3.61-19.69.9-6.6.65-13.51-.94-24.37L73,316.76s-3.1,4.7-2.64,9.51c.27,2.78,2.51,3.41,2.79,4.51s4.49,18.79,4.49,18.79a32.72,32.72,0,0,0-1.89,7.67c-.36,3.47.56,7.68.49,11.7a13,13,0,0,1-.35,3.23c-.35.71-1.14,1.5-1.19,2.42a1.43,1.43,0,0,0,1,1.34c.65.27,1.06-.08,1.29-.07,1.35.07,1.63,1,3.94,1.23a3.69,3.69,0,0,0,2.38-.75A.49.49,0,0,0,83.32,375.65Z" transform="translate(-59.68 -81.87)"/><path id="_Path_51" data-name="&lt;Path&gt;" class="cls-20" d="M83.45,376.49A1.88,1.88,0,0,1,83,377a2.44,2.44,0,0,1-1.49.46H80.35a2.61,2.61,0,0,1-1.3-.35,5.94,5.94,0,0,1-.73-.47,2.56,2.56,0,0,0-1.15-.53,3.3,3.3,0,0,0-.73,0l-.08,1.36H74.8a7.79,7.79,0,0,0-.39-2,2.55,2.55,0,0,1,.11-1.19,5.48,5.48,0,0,1,1-1.58c.07.21.39,1.49,1.59,1.69.83.14,1.93,1,3.38,1,.42,0,.84-.51.59-.62s.46,0,.91.18a12.69,12.69,0,0,1,1.47.72C83.62,375.78,83.6,376.2,83.45,376.49Z" transform="translate(-59.68 -81.87)"/></g><path id="_Path_52" data-name="&lt;Path&gt;" class="cls-29" d="M83.27,343.13s-1.5.74-7,.94c-.49,0-1,0-1.57.05h-1c-3,0-4.36-.28-4.34-.56s-1.51-11.72-2-13.45a14.32,14.32,0,0,1-.92-5.83c.18-3.12,2.66-6.85,3.34-7.52l11.49-.19s2,4.68,2.17,7.58C83.88,330.27,83.27,343.13,83.27,343.13Z" transform="translate(-59.68 -81.87)"/><path id="_Path_53" data-name="&lt;Path&gt;" class="cls-17" d="M64.23,307.57s.46,2.33.74,3.28,1.69,7,3,6.95,8.63-6.21,8.63-6.21l-1-2.07-6.43,3.07A82.74,82.74,0,0,0,68.08,304Z" transform="translate(-59.68 -81.87)"/><g id="_Group_25" data-name="&lt;Group&gt;"><path class="cls-62" d="M66.09,307.82a40.4,40.4,0,0,0,2.49,6.81c.23.31,4.54-1.24,4.55-2.92l-4.47-5.06Z" transform="translate(-59.68 -81.87)"/></g><path id="_Path_54" data-name="&lt;Path&gt;" class="cls-19" d="M70.15,296.64a7.76,7.76,0,0,0-3.9,1.32c-2.79,2.07-2.13,9.9-2.13,9.9s-.13.41,1.72.3a13.08,13.08,0,0,0,3.33-.63l-.53-6.27Z" transform="translate(-59.68 -81.87)"/><path id="_Path_55" data-name="&lt;Path&gt;" class="cls-22" d="M65.52,301.37s-.24,4.5.58,6.77a7.29,7.29,0,0,0,1.51-.19Z" transform="translate(-59.68 -81.87)"/><g id="_Group_26" data-name="&lt;Group&gt;"><path class="cls-35" d="M69.68,297.06c.08-.51.22-1.11.69-1.31a2,2,0,0,1,.42-.09,14,14,0,0,1,2.74-.21,3.93,3.93,0,0,1,1.77.32A4.32,4.32,0,0,1,77,298Z" transform="translate(-59.68 -81.87)"/></g><g id="_Group_27" data-name="&lt;Group&gt;"><path class="cls-19" d="M81.15,314.75a15.31,15.31,0,0,1-.62-5c.15-.91,1-1.4,1.32-3.44a7.53,7.53,0,0,0-1.2-5.53c-.85-1.24-2-3.74-2.26-3.82-3.55-1.08-4.13-.56-6.52-.46a16.92,16.92,0,0,0-3.09.36c-1.29.29-2.83.71-3.09,2.46a17.5,17.5,0,0,0,.75,8c.54,1.69,3.78,7.55,3,8.68a4,4,0,0,0-.7,1.08c-.2,1.18,1.71,1.47,3.62,1.69a30.7,30.7,0,0,0,5.5,0C83.23,318.35,81.31,315.08,81.15,314.75Z" transform="translate(-59.68 -81.87)"/></g><path id="_Path_56" data-name="&lt;Path&gt;" class="cls-22" d="M81.48,306.83a4.61,4.61,0,0,1-.35,1.36,4,4,0,0,1-1.77.27,31.4,31.4,0,0,1-1-5.16S81.48,306.39,81.48,306.83Z" transform="translate(-59.68 -81.87)"/><g id="_Group_28" data-name="&lt;Group&gt;"><path id="_Path_57" data-name="&lt;Path&gt;" class="cls-17" d="M79.79,305.73s4.36,10.54,6.26,10.54c1.37,0,4.75-9.73,4.75-9.73l-2.13-1-2.38,4.08-2.91-7.17Z" transform="translate(-59.68 -81.87)"/><path id="_Path_58" data-name="&lt;Path&gt;" class="cls-17" d="M88.24,306.26a4.2,4.2,0,0,0,.66-1.91,8,8,0,0,1-.05-2,9,9,0,0,1,.71-1.39c.21-.18,1-.46,1.15-.34s.42-.46.72-.41a.67.67,0,0,1,.57.59c0,.29.41.34.46.54a2.48,2.48,0,0,0,.1.54c.08.15.3.08.38.46s0,.38,0,.56.18.17.13.51a4.19,4.19,0,0,1-.49,1.17,3.38,3.38,0,0,1-1.19,1.2,2.3,2.3,0,0,0-.69,1Z" transform="translate(-59.68 -81.87)"/><path id="_Path_59" data-name="&lt;Path&gt;" class="cls-24" d="M89.41,298.11A.26.26,0,0,0,89,298a.34.34,0,0,0-.09.42c0,.08,1.29,2.92,1.29,2.92s.11.12.31-.06.15-.29.15-.29S89.47,298.19,89.41,298.11Z" transform="translate(-59.68 -81.87)"/><g id="_Group_29" data-name="&lt;Group&gt;"><path id="_Path_60" data-name="&lt;Path&gt;" class="cls-62" d="M90.77,300.82a3.25,3.25,0,0,1-.78.82c-.2.19-.18.31-.4.5.39,0,.32-.26.82-.62a1,1,0,0,0,.52-.64.09.09,0,0,0-.16-.06Z" transform="translate(-59.68 -81.87)"/></g></g><g id="_Group_30" data-name="&lt;Group&gt;"><path class="cls-19" d="M75.19,296.31a8.73,8.73,0,0,1,7,3.64,28.84,28.84,0,0,1,2.9,6c-.76,1.08-3.21,2.1-5,2.08a18.46,18.46,0,0,1-1.84-5.1Z" transform="translate(-59.68 -81.87)"/></g></g></g></g></svg>