<svg id="OBJECTS" xmlns="http://www.w3.org/2000/svg" xmlns:xlink="http://www.w3.org/1999/xlink" viewBox="0 0 358.6 377.9"><defs><style>.cls-1{fill:#1e079d;}.cls-2,.cls-7{fill:none;}.cls-3{opacity:0.37;}.cls-4{fill:#87aedd;}.cls-5{fill:#58affb;}.cls-6{fill:#003783;}.cls-7{stroke:#16c5dc;stroke-miterlimit:10;stroke-width:1.99px;}.cls-8{fill:#ff4272;}.cls-9{fill:#212973;}.cls-10{fill:#7baeff;}.cls-11{opacity:0.53;}.cls-12{isolation:isolate;}.cls-13{fill:#ce7c56;}.cls-14{fill:#ffbe3d;}.cls-15{fill:#e2a029;}.cls-16{fill:#2670d4;}.cls-17,.cls-53{fill:#2689fd;}.cls-18,.cls-44{fill:#cc096a;}.cls-19{fill:#ee2c6a;}.cls-20{fill:#5b5bd6;}.cls-21{fill:#b391ff;}.cls-22{fill:#7974f5;}.cls-23{fill:#382747;}.cls-24{fill:#535e6d;}.cls-25{fill:#636f82;}.cls-26{fill:#e2edff;}.cls-27{fill:#e16b40;}.cls-28{fill:#455baf;}.cls-29{fill:#e1e8f2;}.cls-30{fill:#ff8654;}.cls-31{fill:#ff9f75;}.cls-32{fill:#cfdae4;}.cls-33{fill:#00a5ff;}.cls-34{fill:#4d2c63;}.cls-35{fill:#ee428c;}.cls-36{fill:#00265a;}.cls-37{fill:#002f71;}.cls-38{fill:#002a65;}.cls-39{fill:#00357f;}.cls-40{fill:#001e46;}.cls-41{fill:#0046a6;}.cls-42{fill:#4da5dc;}.cls-43{fill:#5155d4;}.cls-44{opacity:0.76;}.cls-45{fill:#eaeeee;}.cls-46{fill:#adcdfc;}.cls-47{fill:#c7d8f2;}.cls-48{fill:#ea9273;}.cls-49{fill:#fff;}.cls-50{fill:#94a3c0;}.cls-51{fill:#616d7f;}.cls-52{fill:#6d7b93;}.cls-53{opacity:0.54;}.cls-54{fill:#93513f;}.cls-55{fill:#a55d46;}.cls-56{fill:#ff5668;}.cls-57{fill:#16c5dc;}.cls-58{fill:#f2f8fd;}.cls-59{fill:#7cccff;}.cls-60{fill:#bb4f23;}.cls-61{clip-path:url(#clip-path);}.cls-62{fill:#88630a;}.cls-63{clip-path:url(#clip-path-2);}.cls-64{fill:#113c7a;}.cls-65{clip-path:url(#clip-path-3);}.cls-66{fill:#d4d9df;}.cls-67{clip-path:url(#clip-path-4);}</style><clipPath id="clip-path" transform="translate(-83.21 -61.72)"><path class="cls-1" d="M172.62,281.35v2.85c0-1-.64,1.66-1.92.92l0-6.28C172,279.57,172.63,280.38,172.62,281.35Z"/></clipPath><clipPath id="clip-path-2" transform="translate(-83.21 -61.72)"><path class="cls-2" d="M174.85,284.94l0,4.27a17.69,17.69,0,0,1-8.66,2.08l0-4.26A17.59,17.59,0,0,0,174.85,284.94Z"/></clipPath><clipPath id="clip-path-3" transform="translate(-83.21 -61.72)"><path class="cls-2" d="M153.86,284l0-6.44c0,1.83,1.2,3.66,3.62,5.06a17.73,17.73,0,0,0,8.69,2.08l0,6.63a17.84,17.84,0,0,1-8.69-2.08C155.06,287.81,153.85,285.79,153.86,284Z"/></clipPath><clipPath id="clip-path-4" transform="translate(-83.21 -61.72)"><path class="cls-2" d="M253.07,228.06V227a1.84,1.84,0,0,0,.18.77v1.07A1.64,1.64,0,0,1,253.07,228.06Z"/></clipPath></defs><title>3017084</title><g class="cls-3"><path class="cls-4" d="M303.91,293.81c44.22,25.53,44.45,66.92.52,92.45s-115.39,25.54-159.61,0-44.45-66.92-.52-92.45S259.69,268.28,303.91,293.81Z" transform="translate(-83.21 -61.72)"/></g><g class="cls-3"><path class="cls-4" d="M346.23,381.66c23,13.26,23.09,34.76.27,48s-59.93,13.26-82.9,0-23.08-34.76-.27-48S323.26,368.4,346.23,381.66Z" transform="translate(-83.21 -61.72)"/></g><g class="cls-3"><path class="cls-4" d="M183.14,269.29c23,13.26,23.09,34.76.27,48s-59.93,13.26-82.9,0-23.08-34.76-.27-48S160.17,256,183.14,269.29Z" transform="translate(-83.21 -61.72)"/></g><path class="cls-5" d="M328.51,62.52l-.18-.1-.24-.13-.24-.11-.23-.09-.23-.09-.05,0h0l-.17-.06-.24-.07-.23-.05-.26,0-.17,0h-.36l-.3,0-.33,0h0a2.5,2.5,0,0,0-.39.11,2.86,2.86,0,0,0-.47.22l-3.85,2.23a2.78,2.78,0,0,1,.86-.32h0a3.17,3.17,0,0,1,1-.05h0a5,5,0,0,1,1.08.23h0a6.72,6.72,0,0,1,1.17.54l107.51,62.07,3.85-2.24Z" transform="translate(-83.21 -61.72)"/><path class="cls-5" d="M441.8,134.35a2.62,2.62,0,0,0,0-.28c0-.09,0-.19,0-.28l0-.29c0-.09,0-.19-.05-.29h0a2.33,2.33,0,0,0-.05-.28l-.06-.31c0-.1,0-.2-.07-.3s-.05-.21-.08-.31-.05-.16-.07-.24v-.06a2.81,2.81,0,0,0-.1-.31c0-.09-.06-.19-.1-.29a2.33,2.33,0,0,0-.11-.28c0-.1-.07-.19-.11-.29l-.09-.21v0l0,0c0-.1-.08-.19-.13-.29s-.09-.2-.14-.3l-.18-.35-.21-.37,0-.06,0-.08c-.14-.23-.28-.46-.43-.68s-.24-.36-.37-.53l-.25-.33-.23-.28-.22-.26-.23-.25,0,0,0,0-.18-.18-.24-.24-.26-.24-.25-.23-.14-.1,0,0a.39.39,0,0,1-.1-.08l-.26-.19-.25-.18-.25-.17-.24-.15-.06,0-3.85,2.24a9.61,9.61,0,0,1,1.16.8l0,0a12.35,12.35,0,0,1,1.06,1h0a13.7,13.7,0,0,1,1.82,2.47l0,.06a14.21,14.21,0,0,1,.68,1.35v0c.2.47.38.94.53,1.42v0a10.9,10.9,0,0,1,.33,1.43h0a8.57,8.57,0,0,1,.12,1.41l-.21,73.46a6.17,6.17,0,0,1-.12,1.25v0a4.21,4.21,0,0,1-.32,1v0a3.61,3.61,0,0,1-.44.68c-.05.06-.1.14-.16.2a3.11,3.11,0,0,1-.63.52l3.85-2.24a2.81,2.81,0,0,0,.63-.52,1.56,1.56,0,0,0,.16-.2,2.65,2.65,0,0,0,.21-.26,3.78,3.78,0,0,0,.22-.4h0v0a2.71,2.71,0,0,0,.13-.3l.1-.3c0-.1.05-.2.08-.3s0-.08,0-.13v0a.5.5,0,0,0,0-.12c0-.09,0-.19.05-.28a104.78,104.78,0,0,1,0-.55,2.72,2.72,0,0,0,0-.28v0l.21-73.46A2.35,2.35,0,0,0,441.8,134.35Z" transform="translate(-83.21 -61.72)"/><path class="cls-6" d="M432.17,126.83a12.73,12.73,0,0,1,5.79,10l-.21,73.46c0,3.68-2.62,5.17-5.82,3.31L324.42,151.55a12.73,12.73,0,0,1-5.79-10l.21-73.45c0-3.69,2.62-5.17,5.82-3.32Z" transform="translate(-83.21 -61.72)"/><polyline class="cls-7" points="243.6 74.6 251.81 70.41 257.19 79.09 263.18 85.19 269.17 81.57 281.99 77.44 287.77 85.7 293.56 90.46 298.83 98.21 305.96 83.22 314.64 87.36 319.19 83.64 328.59 86.12 342.54 84.88"/><path class="cls-8" d="M425.42,142.53c-2.13-1.23-3.88-.24-3.88,2.21a8.47,8.47,0,0,0,3.86,6.68c2.14,1.24,3.87.25,3.88-2.21A8.52,8.52,0,0,0,425.42,142.53Z" transform="translate(-83.21 -61.72)"/><path class="cls-9" d="M425.41,145c-1-.56-1.75-.11-1.75,1a3.84,3.84,0,0,0,1.74,3c1,.56,1.75.11,1.76-1A3.84,3.84,0,0,0,425.41,145Z" transform="translate(-83.21 -61.72)"/><path class="cls-10" d="M408,168.44v1a.76.76,0,0,1-1.13.66l-4.63-2.67a.76.76,0,0,1-.38-.65v-1a.75.75,0,0,1,1.13-.65l4.63,2.66A.78.78,0,0,1,408,168.44Z" transform="translate(-83.21 -61.72)"/><path class="cls-10" d="M422.66,181.72v1a.75.75,0,0,1-1.12.65l-19.3-11.06a.78.78,0,0,1-.38-.65v-1A.76.76,0,0,1,403,170l19.3,11.06A.77.77,0,0,1,422.66,181.72Z" transform="translate(-83.21 -61.72)"/><g class="cls-11"><path class="cls-10" d="M414.71,186.92v1a.75.75,0,0,1-1.12.65l-11.35-6.5a.76.76,0,0,1-.37-.65v-1a.75.75,0,0,1,1.12-.65l11.34,6.5A.76.76,0,0,1,414.71,186.92Z" transform="translate(-83.21 -61.72)"/></g><path class="cls-10" d="M419.67,184.88v1a.75.75,0,0,1-1.12.65l-16.31-9.34a.76.76,0,0,1-.37-.65v-1a.76.76,0,0,1,1.13-.65l16.3,9.35A.73.73,0,0,1,419.67,184.88Z" transform="translate(-83.21 -61.72)"/><g class="cls-12"><polygon class="cls-13" points="257.81 46.2 260.65 44.55 260.62 52.87 257.78 54.52 257.81 46.2"/><polygon class="cls-14" points="250.94 42.23 253.78 40.58 260.65 44.55 257.81 46.2 250.94 42.23"/><polygon class="cls-15" points="257.81 46.2 257.78 54.52 250.92 50.56 250.94 42.23 257.81 46.2"/></g><g class="cls-12"><polygon class="cls-16" points="268.69 45.02 271.53 43.37 271.49 59.14 268.64 60.79 268.69 45.02"/><polygon class="cls-5" points="261.83 41.06 264.67 39.41 271.53 43.37 268.69 45.02 261.83 41.06"/><polygon class="cls-17" points="268.69 45.02 268.64 60.79 261.79 56.83 261.83 41.06 268.69 45.02"/></g><g class="cls-12"><polygon class="cls-18" points="279.57 44.95 282.41 43.29 282.35 65.41 279.51 67.06 279.57 44.95"/><polygon class="cls-19" points="272.71 40.98 275.55 39.33 282.41 43.29 279.57 44.95 272.71 40.98"/><polygon class="cls-19" points="279.57 44.95 279.51 67.06 272.65 63.1 272.71 40.98 279.57 44.95"/></g><g class="cls-12"><polygon class="cls-20" points="290.45 45.52 293.29 43.87 293.21 71.68 290.37 73.33 290.45 45.52"/><polygon class="cls-21" points="283.59 41.56 286.43 39.91 293.29 43.87 290.45 45.52 283.59 41.56"/><polygon class="cls-22" points="290.45 45.52 290.37 73.33 283.51 69.37 283.59 41.56 290.45 45.52"/></g><path class="cls-23" d="M266.15,261.25s1,3.52-1.83,5.49a24.69,24.69,0,0,1-6.61,3.3c-2.33.9-4.48,3.95-3.41,6.11s6.1,2.51,9.33,1.61,3.77-3.77,6.82-4.84a11.32,11.32,0,0,0,5-3.24c.89-.89-1.54-9.07-1.54-9.07l-8.87,1" transform="translate(-83.21 -61.72)"/><path class="cls-24" d="M263.33,172.1S260.68,190,259,196.3s-7.29,29.51-6.3,34.48S260.35,248,262,254s3,10.94,4.31,11.6,5.64,0,8.29-4,.33-1.66.33-1.66-1-9.95-2-13.26-5.3-14.25-5-17.9,7.29-22.21,12.26-30.83a108.14,108.14,0,0,0,8-17.57Z" transform="translate(-83.21 -61.72)"/><path class="cls-23" d="M281.06,270.53a5.63,5.63,0,0,1-2.69,4.67c-2.87,2-3.41,3.23-5.74,4.13s-4.49,3.94-3.41,6.1,6.1,2.51,9.33,1.61,3.77-3.77,6.82-4.84a11.3,11.3,0,0,0,5-3.23c.9-.9.54-4.49.54-4.49L280,270.89" transform="translate(-83.21 -61.72)"/><path class="cls-25" d="M269,177.08s1,14.58,3,18.56,2.32,7,3.31,12.6,4.31,43.75,4,50.71-.33,14.92,0,15.92,6.63,3.64,11.93,0c0,0,1-8.29,1.66-17.91s.33-22.2,1.33-34.47,6-34.14,6-42.43C300.12,180.06,284.21,185,269,177.08Z" transform="translate(-83.21 -61.72)"/><path class="cls-24" d="M269,177.08s.2,2.8.58,6.29a71,71,0,0,0,13.22,5.47c10.44,3,11.5,7,11.5,16.41s-3.95,18.9-3.45,28.35c.37,7.06.75,29.44-.74,41.93a11.43,11.43,0,0,0,1.1-.66s1-8.29,1.66-17.91.33-22.2,1.33-34.47,6-34.14,6-42.43C300.12,180.06,284.21,185,269,177.08Z" transform="translate(-83.21 -61.72)"/><path class="cls-26" d="M255.4,126.23s13.74-11.37,16.53-11.63c3.35-.26,7.54.87,8.63,5.63a8.77,8.77,0,0,1-4,9.75c-2.52,1.38-28,14.57-31.94,14.54s-6.41-3.38-3.87-7.55S255.4,126.23,255.4,126.23Z" transform="translate(-83.21 -61.72)"/><path class="cls-27" d="M280.48,112.33a1.7,1.7,0,0,1,0,.45c-.21,1-.85,3.63-1,4.72s1,2.93,3.81,3,7.72-.87,9.49-4.17a77.89,77.89,0,0,1,1-10Z" transform="translate(-83.21 -61.72)"/><path class="cls-28" d="M292.12,113s13.52,10.71,14.74,14.1,1.06,12.69-2.13,18.73-3,31.81-4.28,36.21-13.32,5.21-20.68,3.41-19-8-16.68-16.31c3.46-12.33,2.4-27.72,2.12-31.64s.72-13.69,2.85-20.17c.45-1.37,5.27-3.27,5.27-3.27S278.32,111.74,292.12,113Z" transform="translate(-83.21 -61.72)"/><path class="cls-29" d="M292.57,114.82c-11.75-1.08-17.17.94-18.51,1.57a34.77,34.77,0,0,0,.17,8.35c.92,5.55,3.13,20.82,3.13,20.82s7.26-12.54,12-17.7c3.36-3.64,6.67-7.06,8.34-8.77C294.92,116.68,292.57,114.82,292.57,114.82Z" transform="translate(-83.21 -61.72)"/><path class="cls-30" d="M280.48,112.33a1.7,1.7,0,0,1,0,.45c-.21,1-.85,3.63-1,4.72s1,2.93,3.81,3,7.72-.87,9.49-4.17a77.89,77.89,0,0,1,1-10Z" transform="translate(-83.21 -61.72)"/><path class="cls-31" d="M271.37,93.59c.75-8.82,7.12-14.41,15.06-13.37,0,0,8.49,0,13,7s-.39,13.77-3.52,18c-1.32,1.75-2.31,3.11-2.94,4-.23.32-.45.65-.69,1l-.06.09h0a17.69,17.69,0,0,1-6.75,5.08c-3.29,1.35-7.34,1.17-9.73-.92S270.61,102.41,271.37,93.59Z" transform="translate(-83.21 -61.72)"/><path class="cls-32" d="M275.72,127.84,281,123.2l4.2,7.34,4.22-2.67c-4.77,5.17-12,17.69-12,17.69s-1.84-12.73-2.86-19.17Z" transform="translate(-83.21 -61.72)"/><path class="cls-33" d="M276.08,136.83l2.34-8.24-.35-2.82L281,123.2l2,3.56-2.34,2.13L280,141.13c-1.59,2.57-2.67,4.43-2.67,4.43S276.78,141.52,276.08,136.83Z" transform="translate(-83.21 -61.72)"/><path class="cls-13" d="M300.22,86.24a12.79,12.79,0,0,1,1,12.54c-3.19,7-7.2,10.46-8.32,10.46s-1.71-.2-1.56-1.07,1.12-3.84,1.12-3.84,4.61-1.25,4.15-4.29-2.19-3.34-4-2.22-1.88,2.53-2.82,3.8-.8,4.08-1.67,3.92-1.54-.89-1.75-2.27a5.92,5.92,0,0,1,1-5c1.41-1.9-.93-4.37.39-6.83A16.76,16.76,0,0,1,290.05,88s-.86,1.82-6.54,1.55-8.13.37-10.55-.68-2.32-4.17-1.1-5.48,4.44-2.36,8.1-4.32,6-1.46,10.85-1.06S300.83,82.76,300.22,86.24Z" transform="translate(-83.21 -61.72)"/><path class="cls-13" d="M287,99s0,9-2.49,10.26-2.39-3.67-6.22-4.6-6.47-.71-6.37,1.12,1.07,8.22,4.48,9.72,8.65.71,11.1-.83,2.17-12.39,3.23-14.22S287,99,287,99Z" transform="translate(-83.21 -61.72)"/><path class="cls-31" d="M244.66,144.52s-3.79,1.81-7.52-1.92S222,118.49,222,118.49a6.51,6.51,0,0,1,6-5.47s12.93,16.65,15.67,19.64S249.44,141.23,244.66,144.52Z" transform="translate(-83.21 -61.72)"/><path class="cls-26" d="M301.05,151.37S294,135,294.5,132.24c.69-3.29,3-7,7.82-6.7a8.75,8.75,0,0,1,8.25,6.53c.62,2.81,5.25,24.69,4.14,28.43s-5,5.2-8.34,1.6S301.05,151.37,301.05,151.37Z" transform="translate(-83.21 -61.72)"/><path class="cls-31" d="M315.24,158.45s-1.1-4-6.36-4.44-31,4-31,4a6.52,6.52,0,0,0-.25,8.09s23.86-.87,27.9-.74S315.86,164.22,315.24,158.45Z" transform="translate(-83.21 -61.72)"/><path class="cls-31" d="M272.28,155.36c-1.3-.55-5-2.2-5.73-2.38-.83.09-1.11,2.13.28,2.87s3.32,2,3.51,2.78-1.67,3.05-2.5,3.51-7.09,1.67-7.36,2.71,1.45,1.45,2.56,1.17a15.51,15.51,0,0,1,2.42-.34,2.34,2.34,0,0,0,1.25,1.11c1,.41,1.39.34,1.73.69a3.61,3.61,0,0,0,2.29.83c1.32.14,4-1.11,5.82-1.59s3.6-1,3.6-1l-1.61-6.62a1.53,1.53,0,0,0-.78-1C276.42,157.4,273.28,155.79,272.28,155.36Z" transform="translate(-83.21 -61.72)"/><path class="cls-31" d="M227.94,113s-1.12-3.73-2.48-5.1a8.59,8.59,0,0,1-2.49-4c-.5-1.61.62-5.47-.5-5.47s-2.73,2.12-2.61,3.73,0,3.24-.37,3.61-4.85-2.49-5.84-3.48-4.1-3.35-4.84-2.48-.38,1.61,1,2.73,4.84,3.35,5.46,4.22,0,.75-1.61-.12-1.49.74-1.12,2-1.12,1.36-.13,2.73.13.87,1.25,2.24,1.49,2.11,3.6,2.61a13.32,13.32,0,0,1,5.6,3c1.12,1.12,5.22-.62,5.22-.62Z" transform="translate(-83.21 -61.72)"/><path class="cls-34" d="M128.21,147.31s4.45,1,5.32,5.19-3.1,7.55-1.12,10.77,4.58,2.6,5.33,7.92-7.92,14.36-14.24,5.32S128.21,147.31,128.21,147.31Z" transform="translate(-83.21 -61.72)"/><path class="cls-14" d="M102.42,186.32s-8.33,2.22-10.55,7.22-1.66,42.74,10,58.29,33.32,17.76,38.31,15.54S174,250.72,176.26,243.5s-8.89-12.77-15-15.54-10-6.67-13.33-16.66-5-27.2-8.88-30S125.74,174.11,102.42,186.32Z" transform="translate(-83.21 -61.72)"/><path class="cls-35" d="M143,193.25s-2.84-16.51-4.67-18.41c-2.23-2.24-5.91-4-9.6-1.26A8.25,8.25,0,0,0,125.6,183c1,2.52,10.31,23.53,13.11,25.91s6.64,1.5,7.38-3S143,193.25,143,193.25Z" transform="translate(-83.21 -61.72)"/><path class="cls-30" d="M137,206.83s3.14,4.91,8.25,3.34,12.17-25.33,13.94-26.9c0,0,.78-5.69-4.52-5.89,0,0-12.17,20-13.94,22.18S136.41,204.08,137,206.83Z" transform="translate(-83.21 -61.72)"/><g class="cls-12"><polygon class="cls-36" points="68.29 217.44 63.07 214.41 43.52 217.63 48.74 220.67 68.29 217.44"/><polygon class="cls-37" points="48.74 220.67 43.52 217.63 39.85 219.76 45.07 222.79 48.74 220.67"/><polygon class="cls-38" points="25.75 242 20.53 238.97 20.53 241.18 25.75 244.21 25.75 242"/><polygon class="cls-39" points="45.07 222.79 39.85 219.76 20.53 238.97 25.75 242 45.07 222.79"/><polygon class="cls-40" points="45.07 222.79 25.75 242 25.75 244.21 45.08 227.61 48.76 225.49 68.29 219.65 68.29 217.44 48.74 220.67 45.07 222.79"/></g><g class="cls-12"><polygon class="cls-36" points="19.69 217.44 24.91 214.41 44.45 217.63 39.24 220.67 19.69 217.44"/><polygon class="cls-37" points="39.24 220.67 44.45 217.63 48.13 219.76 42.91 222.79 39.24 220.67"/><polygon class="cls-38" points="62.23 242 67.45 238.97 67.44 241.18 62.23 244.21 62.23 242"/><polygon class="cls-39" points="42.91 222.79 48.13 219.76 67.45 238.97 62.23 242 42.91 222.79"/><polygon class="cls-40" points="42.91 222.79 62.23 242 62.23 244.21 42.9 227.61 39.22 225.49 19.68 219.65 19.69 217.44 39.24 220.67 42.91 222.79"/></g><g class="cls-12"><polygon class="cls-36" points="19.69 217.44 24.91 214.41 44.45 217.63 39.24 220.67 19.69 217.44"/><polygon class="cls-37" points="39.24 220.67 44.45 217.63 48.13 219.76 42.91 222.79 39.24 220.67"/><polygon class="cls-38" points="62.23 242 67.45 238.97 67.44 241.18 62.23 244.21 62.23 242"/><polygon class="cls-39" points="42.91 222.79 48.13 219.76 67.45 238.97 62.23 242 42.91 222.79"/><polygon class="cls-40" points="42.91 222.79 62.23 242 62.23 244.21 42.9 227.61 39.22 225.49 19.68 219.65 19.69 217.44 39.24 220.67 42.91 222.79"/></g><g class="cls-12"><polygon class="cls-41" points="47.55 198.03 47.49 220 43.65 222.23 43.71 200.26 47.55 198.03"/><polygon class="cls-6" points="43.71 200.26 43.65 222.23 39.78 220 39.84 198.03 43.71 200.26"/><polygon class="cls-42" points="47.55 198.03 43.71 200.26 39.84 198.03 43.69 195.8 47.55 198.03"/></g><path class="cls-23" d="M183.65,305.43s4.91,5.4,9,7.22c4.09,3.83,7.8,6.64,7.31,9.61-1,3-10.23.66-14-1.49a29.13,29.13,0,0,1-6.93-5.94l.63,1.78a.54.54,0,0,1-.73.68,3.62,3.62,0,0,1-1.55-1.14c-.83-1.15-1.65-4.95-.83-6.76S183.65,305.43,183.65,305.43Z" transform="translate(-83.21 -61.72)"/><path class="cls-30" d="M150.65,262.93a26,26,0,0,0,6.41,15.77c6.42,7.22,15.24,20.05,18.18,28.34,3,5.36,5.68,7.24,10.23,3.5,1.81-.82-1.65-8.41-7-18.74-5.24-10.09-13.9-31.81-16.31-34.22S151.45,252.23,150.65,262.93Z" transform="translate(-83.21 -61.72)"/><path class="cls-30" d="M184.52,305a19.75,19.75,0,0,0,6.06,7.06c4.46,3.34-1.15,6.76-4.29,5.77s-8.75-5.11-9.24-6.93S177.63,300.39,184.52,305Z" transform="translate(-83.21 -61.72)"/><path class="cls-23" d="M195.53,292.56s4.91,5.4,9,7.21c4.08,3.84,7.79,6.65,7.3,9.62-1,3-10.23.66-14-1.49a29.13,29.13,0,0,1-6.93-5.94l.63,1.78a.54.54,0,0,1-.73.68,3.62,3.62,0,0,1-1.55-1.14c-.82-1.15-1.65-4.95-.82-6.76S195.53,292.56,195.53,292.56Z" transform="translate(-83.21 -61.72)"/><path class="cls-30" d="M162.53,250.06A26,26,0,0,0,169,265.83c6.41,7.22,15.23,20.05,18.17,28.34,3,5.36,5.68,7.24,10.23,3.5,1.81-.82-1.65-8.41-7-18.74-5.24-10.09-13.9-31.81-16.31-34.22S163.33,239.36,162.53,250.06Z" transform="translate(-83.21 -61.72)"/><path class="cls-30" d="M196.4,292.1a19.84,19.84,0,0,0,6.06,7.06c4.46,3.34-1.15,6.76-4.29,5.77s-8.74-5.11-9.24-6.93S189.51,287.52,196.4,292.1Z" transform="translate(-83.21 -61.72)"/><path class="cls-43" d="M115.09,227.38s-3,13.86,3.71,22.77S145.53,264.5,146.52,266s3.22,4,5.7,4,21.78-9.16,24.25-18.81c-.74-6.68-3-8.66-5.69-10.89s-20.3-10.4-21.29-11.88a14.56,14.56,0,0,1-1.48-4.46Z" transform="translate(-83.21 -61.72)"/><path class="cls-35" d="M112.68,176.88s-9.79,4.7-11.67,8.23-1.88,12,5.4,19.74c4.47,6.35,7.06,23.75,9.56,28,3.14,4.07,18,5,26,1.88s7.94-10.88,6.27-13.52c-4.71-7.43-2.82-14.22-2.67-17.83s3-7.68,1.26-12.69-9.72-8.46-11-10-5-7.37-9.25-7.52S112.68,176.88,112.68,176.88Z" transform="translate(-83.21 -61.72)"/><path class="cls-44" d="M148.26,221.19c-4.71-7.43-2.82-14.22-2.67-17.83.11-2.48,1.49-5.2,1.76-8.29-5.4,5.06-13.38,10.75-22.11,11-10.09.32-19-5.38-24.08-9.57a24.53,24.53,0,0,0,5.25,8.33c4.47,6.35,7.06,23.75,9.56,28,3.14,4.07,18,5,26,1.88S149.93,223.83,148.26,221.19Z" transform="translate(-83.21 -61.72)"/><path class="cls-34" d="M146.51,217.74a20.61,20.61,0,0,1-1.08-9c-18.92,11.46-34.43,5.47-34.43,5.47v0a19,19,0,0,0,1.06,4.77s-.14.07-.13.1c.21.78.34,1.55.54,2.31,0,0,0,.08,0,.12.09.32.15.64.23,1s.21.8.31,1.19c0,0,0,.06,0,.09C131.4,227.39,142.66,220.66,146.51,217.74Z" transform="translate(-83.21 -61.72)"/><g class="cls-12"><path class="cls-26" d="M159.27,162.08a1.42,1.42,0,0,1,1.16.07c-.85-.5-1.44-.78-2.38-.24l-1.11.64-6.35,3.67-14.66,8.46a6.08,6.08,0,0,0-3.19,3.47c-.5,1.62-.18,3.65-.18,5.31l0,9.14v2.78a2.28,2.28,0,0,0,1.39,2.26c-.82-.47-.69-1.61-.69-2.42,0-1.19,0-2.38,0-3.57l0-9.24c0-2.19-.21-4.29,1.46-6a16.85,16.85,0,0,1,3.78-2.38l12.63-7.29,5.5-3.18A15.58,15.58,0,0,1,159.27,162.08Z" transform="translate(-83.21 -61.72)"/><path class="cls-10" d="M158.76,162.31c1.29-.75,2.35-.15,2.35,1.33l0,16.41a5.18,5.18,0,0,1-2.34,4l-23.17,13.38c-1.3.75-2.35.15-2.36-1.34l0-16.41a5.13,5.13,0,0,1,2.33-4Z" transform="translate(-83.21 -61.72)"/></g><path class="cls-35" d="M114.3,205.13s-2.84-16.51-4.67-18.41c-2.23-2.24-5.91-4-9.6-1.26a8.25,8.25,0,0,0-3.14,9.38c1,2.52,10.31,23.53,13.11,25.91s6.64,1.5,7.38-3S114.3,205.13,114.3,205.13Z" transform="translate(-83.21 -61.72)"/><path class="cls-30" d="M108.29,218.71s3.14,4.91,8.25,3.34,12.17-25.33,13.94-26.9c0,0,.78-5.69-4.52-5.89,0,0-12.17,20-13.94,22.19S107.7,216,108.29,218.71Z" transform="translate(-83.21 -61.72)"/><path class="cls-30" d="M125.73,190.08s.83-5,3-6.43,7.1-2.81,8.42-1.16.49,8.25-.83,8.91a44.46,44.46,0,0,1-4.45,1.65s-1.16,2.48-2.64,2.48S125.73,190.08,125.73,190.08Z" transform="translate(-83.21 -61.72)"/><path class="cls-45" d="M155.76,174.53a2.28,2.28,0,0,0-1,1.8c0,.67.47.94,1.05.6a2.28,2.28,0,0,0,1-1.8C156.81,174.46,156.34,174.19,155.76,174.53Z" transform="translate(-83.21 -61.72)"/><path class="cls-27" d="M123.63,174a1.3,1.3,0,0,0,0,.45c.2,1,.84,3.6,1,4.69s-1,2.91-3.79,3-7.67-.86-9.43-4.15a78.16,78.16,0,0,0-1-9.91Z" transform="translate(-83.21 -61.72)"/><path class="cls-30" d="M129.7,153.44c-2-8.56-9.12-13.13-16.78-10.93,0,0-8.35,1.25-11.71,8.81s2.42,13.48,6.11,17.21c1.56,1.53,2.74,2.72,3.48,3.47.27.29.54.58.82.83l.08.08h0a17.66,17.66,0,0,0,7.38,4c3.43.84,7.39.06,9.43-2.34S131.75,162,129.7,153.44Z" transform="translate(-83.21 -61.72)"/><path class="cls-34" d="M128,145.37s3.8,1.15,1,6.93-7.42,4-7.59,8.74-.82,6.77-5,9.08.83,4.62.83,12.54-7.76,9.07-11.06,6.76-.49-4.62-4.78-8.91-9.08-6.27-5.78-12.21,3.47-5.61,3-13.53,3.14-12.87,10.23-15S123.26,137.78,128,145.37Z" transform="translate(-83.21 -61.72)"/><g class="cls-12"><path class="cls-46" d="M251.19,358.89c-.55,6.22-6.41,10.44-11.69,12.72A45,45,0,0,1,221.19,375a43.6,43.6,0,0,1-18.61-4.12c-5-2.47-10.33-6.94-10.32-13,0,4.43.3,8.09,3.49,11.54,4.11,4.46,10.3,6.85,16.12,8.06,11.36,2.34,26.82,1.21,35.44-7.53,3.47-3.52,3.94-7.23,4-11.91A8.52,8.52,0,0,1,251.19,358.89Z" transform="translate(-83.21 -61.72)"/><path class="cls-26" d="M242.55,345.85c11.56,6.67,11.63,17.49.15,24.17s-30.18,6.67-41.73,0-11.61-17.5-.13-24.17S231,339.18,242.55,345.85Z" transform="translate(-83.21 -61.72)"/></g><g class="cls-12"><polygon class="cls-47" points="143.81 270.64 143.74 296.43 139.23 299.05 139.3 273.26 143.81 270.64"/><polygon class="cls-10" points="139.3 273.26 139.23 299.05 134.69 296.43 134.76 270.64 139.3 273.26"/><polygon class="cls-42" points="143.81 270.64 139.3 273.26 134.76 270.64 139.27 268.01 143.81 270.64"/></g><g class="cls-12"><path class="cls-46" d="M332.25,262.79c-.05,20.3-15.89,35.89-32.23,45.57C281.18,319.53,259.14,325,237.48,327a186.11,186.11,0,0,1-65.67-5.35,136.33,136.33,0,0,1-30.24-12,84,84,0,0,1-22.94-17.9c-7.17-8.23-12.13-18.55-12.1-29.62,0,5.12-.24,10.26.82,15.3A48,48,0,0,0,117.77,298a81.84,81.84,0,0,0,22.34,18.07,132.5,132.5,0,0,0,30,12.36,187.63,187.63,0,0,0,64.38,6.06c21.53-1.61,43.27-6.81,62.34-17.15,16.37-8.86,33-23.49,35.13-43.14A111.5,111.5,0,0,0,332.25,262.79Z" transform="translate(-83.21 -61.72)"/><path class="cls-26" d="M298.94,216.24c44.22,25.53,44.45,66.92.52,92.46s-115.39,25.53-159.62,0-44.44-66.92-.51-92.45S254.72,190.72,298.94,216.24Z" transform="translate(-83.21 -61.72)"/></g><path class="cls-48" d="M280.43,252.5s-1.61-1.86-3.1-3.84-3-3.46-4.7-2.84a1.81,1.81,0,0,0-1.36,2.1s-.25,1.36-.49,3.09.12,4.46,2.72,5.45a18.13,18.13,0,0,0,4.95,1.11Z" transform="translate(-83.21 -61.72)"/><path class="cls-31" d="M277.09,258.56s-2.73-1.61-2.11-4.08,1.36-4,1.49-5.07-.62-4.46.62-5.08,1.36.5,1.48,1.61a17.13,17.13,0,0,0,1.61,5.2c.74,1.11,1.73,2.72,1.73,2.72S279.69,258.32,277.09,258.56Z" transform="translate(-83.21 -61.72)"/><path class="cls-49" d="M305.83,280.13s-5,3.35-10.49-1.43-17.42-18.82-18.77-20.08a7.09,7.09,0,0,1,4.48-6.19s8.87,7.41,13.47,10.53S314.31,274.47,305.83,280.13Z" transform="translate(-83.21 -61.72)"/><path class="cls-47" d="M276.94,256.75a7.17,7.17,0,0,0-.37,1.87c1.35,1.26,13.27,15.31,18.77,20.08,3.55,3.08,6.87,2.78,8.79,2.18C294.18,275.8,281.8,262.27,276.94,256.75Z" transform="translate(-83.21 -61.72)"/><path class="cls-49" d="M316.42,270.17s19-5.31,21.9-4.33c3.49,1.24,7.2,4.27,6.17,9.55a9.67,9.67,0,0,1-8.37,8.06c-3.16.27-30.17.93-34.11-.84s-4.94-6.29-.51-9.36S316.42,270.17,316.42,270.17Z" transform="translate(-83.21 -61.72)"/><path class="cls-47" d="M344.49,275.39c.05-.25.08-.49.11-.73a13,13,0,0,1-10.39,5.2c-10.1.38-25.06.37-28.26-.23a33.55,33.55,0,0,1-7.2-2.81c-.6,2.32.7,4.63,3.26,5.79,3.94,1.77,30.95,1.11,34.11.84A9.67,9.67,0,0,0,344.49,275.39Z" transform="translate(-83.21 -61.72)"/><path class="cls-50" d="M253.82,392.89s-2.46,1.69-.15,5.7,4.31,1.54,9.55,5.55,7.09,4.77,9.87,4.47,4.47-1.7,4.93-3.24-.93-4.16-.93-4.16Z" transform="translate(-83.21 -61.72)"/><path class="cls-23" d="M276,393s1.07,5.24,1.69,9.25c.15,1.85-2.31,4.36-5.86,4.21s-5.54-1.23-6.78-2.77-8.94-4.52-10.32-5.76-1.7-4.93-1.08-5.85a4.64,4.64,0,0,1,5.39-1.39c2.47,1.08,4.47,3.08,9.4,3.39S276,393,276,393Z" transform="translate(-83.21 -61.72)"/><path class="cls-50" d="M278.28,379.53s-2.47,1.7-.16,5.7,4.32,1.54,9.56,5.55,7.09,4.78,9.86,4.47,4.47-1.7,4.93-3.24-.92-4.16-.92-4.16Z" transform="translate(-83.21 -61.72)"/><path class="cls-23" d="M300.47,379.68s1.08,5.24,1.69,9.25c.16,1.85-2.31,4.37-5.85,4.21s-5.55-1.23-6.78-2.77-8.94-4.52-10.33-5.75-1.7-4.94-1.08-5.86a4.67,4.67,0,0,1,5.4-1.39c2.46,1.08,4.46,3.09,9.4,3.39S300.47,379.68,300.47,379.68Z" transform="translate(-83.21 -61.72)"/><path class="cls-51" d="M281.31,337.05c1.23,9.86,6.16,35.75,7,44.79,0,0,2.06,3.29,8.22,2.47l2.93-1.22a2.84,2.84,0,0,0,1.73-3c-.62-5-2-17.54-1.37-25,.82-9.45-1.64-15.21-1.64-15.21.2-3.08.61-13.76-5.55-16.64,0,0-15.11-2.78-11.3,13.77" transform="translate(-83.21 -61.72)"/><path class="cls-52" d="M293.84,327.8l-1.64,3.29s-25.28,1.23-32.06,8.63c0,0-4.52.82-3.29,10.68s6.17,35.76,7,44.8c0,0,2.06,3.29,8.22,2.46l2.93-1.21a2.85,2.85,0,0,0,1.72-3c-.62-5-2-17.54-1.36-25,.82-9.46-1.65-15.21-1.65-15.21a128.55,128.55,0,0,1,23,7c11.92,4.93,22.19-.83,26.71-3.29a29.88,29.88,0,0,0,6.17-4.11,18.78,18.78,0,0,0,11.09-4.52c5.34-4.52,6.17-16.44.41-23.43S293.84,327.8,293.84,327.8Z" transform="translate(-83.21 -61.72)"/><path class="cls-48" d="M306.75,275.26s4.08-1.52,3.81-7c-1.24-5.37-2.74-5.74-2.74-5.74s5.72-5.28,12.61-3.61c0,0,4.25,8.64,9.07,12.33C329.5,271.27,325.65,281.42,306.75,275.26Z" transform="translate(-83.21 -61.72)"/><path class="cls-5" d="M320.31,269.92s-16,5.34-20.55,12.74-3.7,15.61-.41,27.12-3.29,21.78-1.65,28,13.15,11.91,30,9,18.09-9.46,19.32-13.15-3.29-21.37.82-35.76-4.11-24.25-7.4-26.71S330.58,265.39,320.31,269.92Z" transform="translate(-83.21 -61.72)"/><path class="cls-53" d="M340.44,271.15c-3.28-2.47-9.86-5.76-20.13-1.23,0,0-16,5.34-20.55,12.74a20.59,20.59,0,0,0-2.38,5.55c6.49-8.43,15.7-12.14,21.69,2.25,5.6,13.43-8.64,52.9-21.07,40.49a15.46,15.46,0,0,0-.3,6.78c1.65,6.16,13.15,11.91,30,9s18.09-9.46,19.32-13.15-3.29-21.37.82-35.76S343.73,273.61,340.44,271.15Z" transform="translate(-83.21 -61.72)"/><path class="cls-49" d="M305,276.9s4.31,2.78,15.1,1.23,11.41-9.24,10.48-9.86a20.48,20.48,0,0,1-2.77-3.08S316.4,270.43,312.4,272s-6.17,2.47-6.17,2.47Z" transform="translate(-83.21 -61.72)"/><g class="cls-12"><polygon class="cls-36" points="256.4 338.23 251.18 335.19 231.64 338.42 236.85 341.45 256.4 338.23"/><polygon class="cls-37" points="236.85 341.45 231.64 338.42 227.96 340.55 233.18 343.58 236.85 341.45"/><polygon class="cls-38" points="213.86 362.79 208.64 359.76 208.65 361.97 213.86 365 213.86 362.79"/><polygon class="cls-39" points="233.18 343.58 227.96 340.55 208.64 359.76 213.86 362.79 233.18 343.58"/><polygon class="cls-40" points="233.18 343.58 213.86 362.79 213.86 365 233.19 348.4 236.87 346.28 256.4 340.44 256.4 338.23 236.85 341.45 233.18 343.58"/></g><g class="cls-12"><polygon class="cls-36" points="207.8 338.23 213.02 335.19 232.56 338.42 227.35 341.45 207.8 338.23"/><polygon class="cls-37" points="227.35 341.45 232.56 338.42 236.24 340.55 231.02 343.58 227.35 341.45"/><polygon class="cls-38" points="250.34 362.79 255.56 359.76 255.56 361.97 250.34 365 250.34 362.79"/><polygon class="cls-39" points="231.02 343.58 236.24 340.55 255.56 359.76 250.34 362.79 231.02 343.58"/><polygon class="cls-40" points="231.02 343.58 250.34 362.79 250.34 365 231.01 348.4 227.33 346.28 207.8 340.44 207.8 338.23 227.35 341.45 231.02 343.58"/></g><g class="cls-12"><polygon class="cls-36" points="207.8 338.23 213.02 335.19 232.56 338.42 227.35 341.45 207.8 338.23"/><polygon class="cls-37" points="227.35 341.45 232.56 338.42 236.24 340.55 231.02 343.58 227.35 341.45"/><polygon class="cls-38" points="250.34 362.79 255.56 359.76 255.56 361.97 250.34 365 250.34 362.79"/><polygon class="cls-39" points="231.02 343.58 236.24 340.55 255.56 359.76 250.34 362.79 231.02 343.58"/><polygon class="cls-40" points="231.02 343.58 250.34 362.79 250.34 365 231.01 348.4 227.33 346.28 207.8 340.44 207.8 338.23 227.35 341.45 231.02 343.58"/></g><g class="cls-12"><polygon class="cls-41" points="235.67 318.82 235.6 340.78 231.76 343.02 231.82 321.05 235.67 318.82"/><polygon class="cls-6" points="231.82 321.05 231.76 343.02 227.89 340.78 227.96 318.82 231.82 321.05"/><polygon class="cls-42" points="235.67 318.82 231.82 321.05 227.96 318.82 231.8 316.58 235.67 318.82"/></g><path class="cls-14" d="M369.12,294.77a5.31,5.31,0,0,0-7.05-4.82c-14.75,5.17-48.53,17.42-50.71,21.76-2.06,4.14-8.75,27.25-12,38.83a5.3,5.3,0,0,1-7.8,3.11l-20.42-12a5.31,5.31,0,0,0-7.94,5.45l3.28,19.68a5.33,5.33,0,0,0,2.59,3.73L290.88,383a42,42,0,0,0,39.73,1.15l16.84-8.42a42,42,0,0,0,23.2-39.12Z" transform="translate(-83.21 -61.72)"/><path class="cls-49" d="M284.68,294.18s16.13-11.29,19.23-11.34c3.71,0,8.21,1.63,9,7a9.67,9.67,0,0,1-5.22,10.38c-2.9,1.3-28.16,10.89-32.46,10.52s-6.74-4.29-3.59-8.66S284.68,294.18,284.68,294.18Z" transform="translate(-83.21 -61.72)"/><path class="cls-47" d="M312.9,289.8c0-.25-.09-.49-.14-.72a12.94,12.94,0,0,1-8.08,8.34c-9.4,3.72-23.51,8.67-26.73,9.16a33.65,33.65,0,0,1-7.72-.26c.2,2.39,2.2,4.14,5,4.38,4.3.37,29.56-9.22,32.46-10.52A9.67,9.67,0,0,0,312.9,289.8Z" transform="translate(-83.21 -61.72)"/><path class="cls-31" d="M241.44,299.9a24.73,24.73,0,0,1-5.44-1.61c-1.49-.87-3.47-3-4.21-3s-3,.74-3.46.49,0-1.11.37-1.23,3-.37,2.6-.5-3.1.62-3.34,0,2.72-4,5.81-4.7,3.59.49,5.08,1.11a39.93,39.93,0,0,1,5.07,3.34S243.67,298.91,241.44,299.9Z" transform="translate(-83.21 -61.72)"/><path class="cls-49" d="M279.83,306.28s-3.15,5.79-10.93,3.94-26.5-9.47-28.45-10a7.79,7.79,0,0,1,1.21-8.3s12.39,2.7,18.45,3.41S285.2,296.47,279.83,306.28Z" transform="translate(-83.21 -61.72)"/><path class="cls-47" d="M239.86,298.2a8.18,8.18,0,0,0,.59,2c2,.53,20.68,8.15,28.45,10,5,1.19,8.1-.79,9.66-2.35C266.3,308,247.39,301.11,239.86,298.2Z" transform="translate(-83.21 -61.72)"/><path class="cls-31" d="M302,236.12a9.86,9.86,0,0,0-3.79,6.27c-.5,4,2.14,6.11,1,8.58a10.83,10.83,0,0,0-1,7.43c.66,2.31,1.65,7.92,3.13,9.4s7.43,0,12.05-1.32a17.14,17.14,0,0,0,10.39-8.58c1.65-3.63,4-10.06,2.64-15.51s-6.93-9.73-10.72-10.06A18.25,18.25,0,0,0,302,236.12Z" transform="translate(-83.21 -61.72)"/><path class="cls-54" d="M299.49,237.11s-3.63,3-1.82,7.26c1.16,1.32,4.46,3,5.61,5.28s-1.81,5.28.5,7.76,4.45,3.46,5.11,6.6,4.95,2.64,10.56,1c2.15-1,3.63-4.79,3.63-4.79s3.8-7.09,4.46-11.55-.5-6.43-1.82-6.43-6.93,4.45-11.38,3S302.13,236.45,299.49,237.11Z" transform="translate(-83.21 -61.72)"/><path class="cls-55" d="M299.49,237.11a9.21,9.21,0,0,1,4.45-6.76c4.29-2.81,14.36-1,17,.33,2,1.32.16,1.65.16,1.65a17.23,17.23,0,0,1,5.45,3.79c2,2.31,2.64,7.92,1.32,10.73s-8.58,4.45-12.54,3.63S299,244,299.49,237.11Z" transform="translate(-83.21 -61.72)"/><path class="cls-31" d="M304.42,255.63s.71-2.74,2.3-1.24.71,5.23-.35,5.58S303.8,258.29,304.42,255.63Z" transform="translate(-83.21 -61.72)"/><path class="cls-56" d="M278,214.74a10.07,10.07,0,0,0-4.56,7.89l0,9.17c0,2.91,2.06,4.07,4.59,2.62l35.2-20.55,2.06,3.51,2-5.87,12.48-7a10,10,0,0,0,4.55-7.89l0-9.17c0-2.9-2.06-4.08-4.58-2.62Z" transform="translate(-83.21 -61.72)"/><polygon class="cls-49" points="123.06 205.12 161.92 227.7 189.25 211.92 150.39 189.34 123.06 205.12"/><path class="cls-26" d="M239.29,261.23l-6.11,3.55-7.74-2.28c2.16-2.47,7.38-3.46,11.65-2.2A10,10,0,0,1,239.29,261.23Z" transform="translate(-83.21 -61.72)"/><path class="cls-57" d="M240.7,261.69c4.1,2.37,4.13,6.22,0,8.59a16.35,16.35,0,0,1-14.83,0c-3.28-1.9-4-4.66-2-7L233.3,266Z" transform="translate(-83.21 -61.72)"/><path class="cls-58" d="M286.6,273.52a.83.83,0,0,1,0,1.58L264.43,288a3,3,0,0,1-2.72,0L246.23,279a.83.83,0,0,1,0-1.58l22.18-12.88a3,3,0,0,1,2.72,0Z" transform="translate(-83.21 -61.72)"/><path class="cls-10" d="M287.17,274.37s0,0,0,.06,0,0,0,.05l0,.06,0,0,0,.06s0,0,0,.05l-.05.06,0,0-.08.09,0,0-.06,0-.05,0-.07.05-.08.05L264.43,288a1.69,1.69,0,0,1-.27.12l-.07,0-.18.06-.2.05-.23,0h-.06l-.32,0h-.05l-.32,0h-.05l-.31,0-.05,0-.27-.08-.05,0-.29-.13L246.23,279a1.13,1.13,0,0,1-.54-.58.83.83,0,0,1,0-.22v.89a.41.41,0,0,0,0,.11,1.06,1.06,0,0,0,.56.69l15.48,8.93.28.14h0l0,0,.18.06.09,0h.06l.05,0,.19,0h.87l.16,0,.07,0,.19,0,.1,0,.08,0,.08,0,.27-.13L286.61,276l0,0,.05,0,.07-.05.05,0,.06-.05h0l0,0,.09-.09v0l0,0,0-.06,0,0v0l0-.06s0,0,0,0h0s0,0,0-.06a.06.06,0,0,0,0,0h0v-.95Z" transform="translate(-83.21 -61.72)"/><path class="cls-59" d="M284.32,273.8a.27.27,0,0,1,0,.51l-21.05,12.23a1,1,0,0,1-.88,0l-13.95-8.05a.27.27,0,0,1,0-.51l21.05-12.23a1,1,0,0,1,.88,0Z" transform="translate(-83.21 -61.72)"/><g class="cls-12"><polygon class="cls-13" points="113.42 169.02 95.98 158.88 96.01 169.51 113.45 179.65 113.42 169.02"/><polygon class="cls-14" points="130.28 159.29 112.83 149.15 95.98 158.88 113.42 169.02 130.28 159.29"/><polygon class="cls-15" points="113.42 169.02 113.45 179.65 130.31 169.91 130.28 159.29 113.42 169.02"/></g><g class="cls-12"><polygon class="cls-16" points="92.73 170.19 75.28 160.05 75.34 181.44 92.79 191.58 92.73 170.19"/><polygon class="cls-5" points="109.58 160.46 92.14 150.32 75.28 160.05 92.73 170.19 109.58 160.46"/><polygon class="cls-17" points="92.73 170.19 92.79 191.58 109.64 181.84 109.58 160.46 92.73 170.19"/></g><g class="cls-12"><polygon class="cls-18" points="72.09 169.71 54.65 159.57 54.74 193.33 72.19 203.47 72.09 169.71"/><polygon class="cls-56" points="88.95 159.97 71.5 149.84 54.65 159.57 72.09 169.71 88.95 159.97"/><polygon class="cls-19" points="72.09 169.71 72.19 203.47 89.05 193.74 88.95 159.97 72.09 169.71"/></g><g class="cls-12"><path class="cls-57" d="M205.47,277.06a.06.06,0,0,1,0,0,1.29,1.29,0,0,1-.18.35l0,.06a1.55,1.55,0,0,1-.3.33,1.46,1.46,0,0,1-.27.2,2.29,2.29,0,0,1-.23.16l-34.79,20.23a4.23,4.23,0,0,1-.75.32l-.28.09c-.12,0-.24.07-.37.09l-.46.08s-.07-.52-.11-.51c-.21,0-.42-.5-.63-.5H167c-.21,0-.42.52-.62.5,0,0-.06.25-.09.25-.21,0-.41.07-.61,0,0,0-.07.05-.1,0a3.16,3.16,0,0,1-.53-.13h-.09a4.94,4.94,0,0,1-.57-.26l-22.42-12.94a1.89,1.89,0,0,1-1.11-1.55v4a1.89,1.89,0,0,0,1.11,1.55l22.42,12.94a3.36,3.36,0,0,0,.54.26h0s-.6,0-.57,0-.33.08-.33.12h0c1,0,.79,0,.85,0l.44,0,.26,0c.13,0,.33,0,.46.07h.56l.43,0h0s-.3-.08-.18-.08H167c.06,0,.11.05.17.05s.27,0,.41,0h.16l.32,0,.14,0,.37-.1.2-.05.08,0a3.85,3.85,0,0,0,.74-.33l34.8-20.22,0,0c.07,0,.12-.09.18-.13a3.16,3.16,0,0,0,.27-.2l0,0,.23-.25,0-.06,0-.06.07-.11a1,1,0,0,0,.1-.21,0,0,0,0,0,0,0,.09.09,0,0,0,0-.05s-.23-.09-.22-.13-.24-.15-.24-.22v0l.28-4C205.28,276.8,205.51,276.93,205.47,277.06Z" transform="translate(-83.21 -61.72)"/><path class="cls-49" d="M204.43,275.13c1.48.85,1.48,2.22,0,3.07l-34.79,20.23a5.85,5.85,0,0,1-5.31,0l-22.42-12.95c-1.47-.85-1.48-2.22,0-3.07l34.8-20.22a5.88,5.88,0,0,1,5.31,0Z" transform="translate(-83.21 -61.72)"/></g><polygon class="cls-19" points="91.61 211 91.59 215.34 89.17 217.44 87.02 217.44 87.02 212.64 91.61 211"/><polygon class="cls-60" points="91.59 214.9 91.57 221.02 87.48 223.39 87.5 217.11 91.59 214.9"/><path class="cls-18" d="M169.8,274.65c-.25-.1-.54-.2-.81-.28l-.68-.16c-.21,0-.42-.08-.64-.11s-.42-.06-.63-.07l-.64,0h-.66L165,274c-.28,0-.55.07-.82.12a9.21,9.21,0,0,0-1.23.3,7.64,7.64,0,0,0-1.42.63l-.08,0a5.46,5.46,0,0,0-.82.61,5.23,5.23,0,0,0-.4.43,2.94,2.94,0,0,0-.26.39,1.76,1.76,0,0,0-.17.37,2,2,0,0,0-.15.74v.05l0,6.44v-.06c0-.12,0-.24,0-.37A2.92,2.92,0,0,1,160,283a4.4,4.4,0,0,1,.26-.39,4,4,0,0,1,.4-.43,6,6,0,0,1,.82-.61l.08,0a7.94,7.94,0,0,1,1.42-.63,8.49,8.49,0,0,1,1.23-.3c.27-.05.55-.09.82-.12l.72-.05h.67l.63,0a6.07,6.07,0,0,1,.63.07c.22,0,.43.06.65.11s.45.1.67.16.54.17.79.27a8.17,8.17,0,0,1,.94.45l0-6.43A6.79,6.79,0,0,0,169.8,274.65Z" transform="translate(-83.21 -61.72)"/><g class="cls-12"><path class="cls-1" d="M172.62,281.35v2.85c0-1-.64,1.66-1.92.92l0-6.28C172,279.57,172.63,280.38,172.62,281.35Z" transform="translate(-83.21 -61.72)"/><g class="cls-61"><path class="cls-16" d="M172.62,281.35v2.85c0-1-.64,1.66-1.92.92l0-6.44a3.22,3.22,0,0,1,1.91,2.67" transform="translate(-83.21 -61.72)"/></g></g><path class="cls-2" d="M178.42,281.37l0,2.84c0,1.81-1.19,3.62-3.57,5l0-2.85C177.22,285,178.41,283.17,178.42,281.37Z" transform="translate(-83.21 -61.72)"/><path class="cls-17" d="M178.42,281.48a4.19,4.19,0,0,1-.09.7,4.43,4.43,0,0,1-.19.69,5.52,5.52,0,0,1-.33.7,6.65,6.65,0,0,1-.49.73,8.21,8.21,0,0,1-.76.82,9.86,9.86,0,0,1-1.56,1.15l-.15.09,0,2.85.15-.09a9.86,9.86,0,0,0,1.56-1.15,8.21,8.21,0,0,0,.76-.82,5.57,5.57,0,0,0,.49-.74,5.41,5.41,0,0,0,.33-.69,6,6,0,0,0,.2-.69,5.71,5.71,0,0,0,.08-.71v-.11l0-2.84Z" transform="translate(-83.21 -61.72)"/><path class="cls-5" d="M174.79,276.62c4.81,2.78,4.83,7,.06,9.74L170.74,284c2.52-1.47,2.51-3.69,0-5.15Z" transform="translate(-83.21 -61.72)"/><polygon class="cls-62" points="91.64 223.22 91.62 227.48 87.51 225.11 87.53 224.44 91.64 223.22"/><g class="cls-12"><g class="cls-63"><path class="cls-15" d="M172.11,286.14a16.75,16.75,0,0,1-2.27.57c-.52.09-1,.16-1.57.21s-.9.08-1.36.09l-.72,0,0,4.26.73,0q.67,0,1.35-.09c.53-.05,1.05-.12,1.57-.21a18.36,18.36,0,0,0,2.27-.56,14.46,14.46,0,0,0,2.74-1.2l0-4.27A13.29,13.29,0,0,1,172.11,286.14Z" transform="translate(-83.21 -61.72)"/></g></g><polygon class="cls-64" points="82.98 225.3 82.96 229.56 82.94 226.21 82.96 221.76 82.98 225.3"/><path class="cls-14" d="M174.85,284.94a17.59,17.59,0,0,1-8.66,2.09l0-3.36a9.31,9.31,0,0,0,4.57-1.1Z" transform="translate(-83.21 -61.72)"/><g class="cls-12"><g class="cls-65"><path class="cls-18" d="M165.65,284.65q-.6,0-1.2-.06c-.4,0-.8-.08-1.19-.14s-.82-.12-1.22-.21-.86-.19-1.28-.31-1-.31-1.48-.5a13.91,13.91,0,0,1-1.78-.85c-2.42-1.4-3.63-3.23-3.62-5.06l0,6.44c0,1.83,1.2,3.85,3.62,5.25a14.58,14.58,0,0,0,1.78.85c.48.19,1,.35,1.48.5s.85.22,1.29.31.8.15,1.21.21.79.1,1.19.14.8,0,1.21.06h.53l0-6.63Z" transform="translate(-83.21 -61.72)"/></g></g><path class="cls-56" d="M174.82,272.73l-4.08,2.37a10.16,10.16,0,0,0-9.19,0c-2.52,1.46-2.51,3.84,0,5.3a9.3,9.3,0,0,0,4.59,1.1l0,3.36a17.84,17.84,0,0,1-8.69-2.08c-4.81-2.78-4.83-7.28-.06-10.06S170,270,174.82,272.73Z" transform="translate(-83.21 -61.72)"/><path class="cls-66" d="M197.31,277.26c.34.2.35.51,0,.71a1.38,1.38,0,0,1-1.22,0l-17.35-10a.37.37,0,0,1,0-.71,1.38,1.38,0,0,1,1.22,0Z" transform="translate(-83.21 -61.72)"/><path class="cls-66" d="M185.33,272.66a.37.37,0,0,1,0,.7,1.35,1.35,0,0,1-1.22,0l-7.36-4.25c-.34-.2-.34-.52,0-.71a1.32,1.32,0,0,1,1.22,0Z" transform="translate(-83.21 -61.72)"/><path class="cls-66" d="M187.61,276.14c.34.2.35.52,0,.71a1.32,1.32,0,0,1-1.22,0l-11.52-6.65a.37.37,0,0,1,0-.7,1.32,1.32,0,0,1,1.22,0Z" transform="translate(-83.21 -61.72)"/><g class="cls-12"><g class="cls-67"><g class="cls-12"><path class="cls-6" d="M253.25,227.76v1.07a1.64,1.64,0,0,1-.18-.77V227a1.84,1.84,0,0,0,.18.77" transform="translate(-83.21 -61.72)"/></g></g></g><path class="cls-41" d="M236.93,227.05s0,.1,0,.16l0,.11c0,.05,0,.1,0,.16l-.05.11a1.42,1.42,0,0,1-.08.18l-.11.18V229l.08-.14a.08.08,0,0,0,0,0,1.51,1.51,0,0,0,.09-.18l0-.07s0,0,0,0a1,1,0,0,0,0-.16.31.31,0,0,0,0-.08s0,0,0,0a.81.81,0,0,0,0-.16s0-.06,0-.09v-1.11S236.93,227,236.93,227.05Z" transform="translate(-83.21 -61.72)"/><path class="cls-17" d="M262.59,228.15s0,.1,0,.15,0,.07,0,.1a.65.65,0,0,1,0,.13.42.42,0,0,1,0,.1.67.67,0,0,1-.06.12l-.05.1-.09.13-.06.08-.17.18,0,0-.1.08-.12.09-.11.08-.16.1-.4.2-.14,0-.3.11-.1,0-.34.09-.13,0-.28.05-.26,0-.31,0-.19,0h-.52l-.52,0-.17,0-.42-.05v1.08h.12l.3,0,.17,0h0l.48,0h.72l.22,0h.09l.26,0,.17,0,.1,0,.14,0c.11,0,.23-.05.34-.09l.1,0,0,0A1.84,1.84,0,0,0,261,231l.15-.06a2.38,2.38,0,0,0,.39-.2l.05,0,.11-.08.12-.07.12-.1.09-.08h0l0,0a1.54,1.54,0,0,0,.17-.19l0,0,0,0,.09-.13,0,0s0,0,0,0l.06-.13,0-.06a0,0,0,0,1,0,0,.5.5,0,0,1,0-.13s0,0,0-.07a0,0,0,0,0,0,0s0-.11,0-.16V228S262.59,228.11,262.59,228.15Z" transform="translate(-83.21 -61.72)"/><path class="cls-17" d="M232.66,230.06l-.36.05-.32,0-.23,0h-.56l-.53,0h-.08l-.45-.06-.14,0-.47-.1h0a3.9,3.9,0,0,1-.48-.17l-.06,0a3.42,3.42,0,0,1-.43-.21,1.91,1.91,0,0,1-1.1-1.62V229a1.89,1.89,0,0,0,1.1,1.62,2.86,2.86,0,0,0,.43.21l.05,0h0a3,3,0,0,0,.45.15h0l.36.09.11,0,.13,0,.16,0,.3,0h.1l.43,0h1l.16,0,.37-.05.14,0,.32-.06V230Z" transform="translate(-83.21 -61.72)"/><polygon class="cls-17" points="182.4 173.17 182.4 174.25 174.26 178.97 174.27 177.9 182.4 173.17"/><polygon class="cls-17" points="149.85 178.03 149.85 179.1 141.44 174.25 141.45 173.17 149.85 178.03"/><path class="cls-17" d="M262.66,242a.34.34,0,0,0,0,.1c0,.06,0,.13,0,.19a.38.38,0,0,0,0,.1l-.06.11a1.08,1.08,0,0,1-.08.19c-.05.09-.11.17-.17.26l0,0a2.75,2.75,0,0,1-.22.26l0,0a2.61,2.61,0,0,1-.24.22l0,0a2.37,2.37,0,0,1-.3.23l-.05,0L261,244l-.36.19-.12.06-.26.11-.14.06-.26.1-.15.05-.19.06-.32.09-.18.05-.33.06-.17,0-.59.08h-.16l-.34,0h-.89l-.23,0-.19,0-.22,0-.18,0-.2,0-.21-.05-.15-.05-.27-.08-.2-.08-.1,0-.3-.15a1.91,1.91,0,0,1-1.1-1.62v1.07a1.89,1.89,0,0,0,1.1,1.62l.3.16.1,0,.12.05.08,0,.26.09.1,0,.06,0,.2.05.14,0h.06l.18,0,.16,0h.07l.19,0h1.12l.34,0h.15c.2,0,.4,0,.6-.08h.05l.12,0,.32-.07.19,0,.32-.09.11,0,.08,0,.15-.05.25-.1.15-.05.26-.12.11-.06.37-.19.07-.05.29-.18.06,0,.3-.24,0,0,.09-.08.15-.15,0,0c.06-.07.13-.14.18-.21l0,0,0-.05.16-.24h0c0-.07.06-.13.09-.19a.54.54,0,0,0,.05-.11h0a.45.45,0,0,0,0-.11,1.09,1.09,0,0,0,.05-.17h0s0-.07,0-.11,0-.1,0-.16v-1.11A1.36,1.36,0,0,1,262.66,242Z" transform="translate(-83.21 -61.72)"/><path class="cls-17" d="M240.57,237.55l-.42-.22-.14-.06-.3-.13,0,0-.27-.1-.07,0-.38-.11h0l-.54-.13h0l-.12,0-.34-.06h-.07l-.13,0-.27,0h-1.14l-.26,0h-.19l-.37.05h-.11l-.13,0-.26.06-.14,0-.16.05,0,0-.27.1-.12,0a2,2,0,0,0-.36.18l-.05,0-.11.08-.11.08-.12.09-.1.08h0l0,0-.17.18,0,0,0,0a1,1,0,0,0-.09.13l0,.05a.08.08,0,0,0,0,0,.52.52,0,0,0-.06.13l0,.05s0,0,0,0,0,.09,0,.13a.19.19,0,0,1,0,.07v0s0,.1,0,.16v1.18s0-.07,0-.11a.77.77,0,0,1,0-.15.3.3,0,0,1,0-.1.5.5,0,0,1,0-.13.3.3,0,0,1,0-.1.61.61,0,0,1,0-.12l.06-.1.08-.13.07-.08.16-.18s0,0,.05,0l.09-.07.13-.1a.41.41,0,0,1,.11-.07.91.91,0,0,1,.16-.11l.35-.18.13-.05.27-.1.21-.06.14-.05.26,0,.13,0,.11,0,.37-.05.19,0h1.18l.22,0,.27,0,.2,0,.33.06.17,0,.53.14a2.64,2.64,0,0,1,.4.12l.08,0,.31.12.29.13.15.06.41.22a2.93,2.93,0,0,1,1.74,2.29v-1.07A2.91,2.91,0,0,0,240.57,237.55Z" transform="translate(-83.21 -61.72)"/><polygon class="cls-17" points="170.13 180.31 170.12 181.38 161.99 186.11 161.99 185.03 170.13 180.31"/><path class="cls-5" d="M260.86,225.76c2,1.17,2.32,2.91.65,3.88a6.47,6.47,0,0,1-4.08.53l8.18,4.73-8.13,4.72a6.57,6.57,0,0,1,4.09.53c1.69,1,1.42,2.71-.6,3.89s-5,1.33-6.71.36a1.75,1.75,0,0,1-.92-2.37l-8.14,4.73-8.4-4.85a6.67,6.67,0,0,0,4.41-.48c1.68-1,1.39-2.71-.64-3.88s-5-1.33-6.71-.36a1.74,1.74,0,0,0-.8,2.56l-8.4-4.85,8.46-4.92a6.82,6.82,0,0,1-4.6-.44c-1.68-1-1.41-2.71.61-3.88s5-1.34,6.7-.37a1.75,1.75,0,0,1,.77,2.66l8.47-4.92,8.18,4.73a1.75,1.75,0,0,1,.9-2.37C255.83,224.42,258.83,224.58,260.86,225.76Z" transform="translate(-83.21 -61.72)"/><polygon class="cls-17" points="161.99 185.03 161.99 186.11 153.58 181.25 153.59 180.18 161.99 185.03"/></svg>