<svg xmlns="http://www.w3.org/2000/svg" xmlns:xlink="http://www.w3.org/1999/xlink" viewBox="0 0 92 92"><defs><linearGradient id="linear-gradient" x1="33.33" y1="-2388.97" x2="33.33" y2="-2392.61" gradientTransform="matrix(1, 0, 0, -1, 0, -2334.47)" gradientUnits="userSpaceOnUse"><stop offset="0" stop-color="#fff"/><stop offset="1" stop-color="#3fa9f5"/></linearGradient><linearGradient id="linear-gradient-2" x1="37.07" y1="-2388.94" x2="37.07" y2="-2392.65" xlink:href="#linear-gradient"/><linearGradient id="linear-gradient-3" x1="40.56" y1="-2388.94" x2="40.56" y2="-2392.65" xlink:href="#linear-gradient"/><linearGradient id="linear-gradient-4" x1="43.48" y1="-2388.97" x2="43.48" y2="-2392.61" xlink:href="#linear-gradient"/><linearGradient id="linear-gradient-5" x1="45.3" y1="-2388.97" x2="45.3" y2="-2392.61" xlink:href="#linear-gradient"/><linearGradient id="linear-gradient-6" x1="47.08" y1="-2388.97" x2="47.08" y2="-2392.61" xlink:href="#linear-gradient"/><linearGradient id="linear-gradient-7" x1="49.98" y1="-2389.06" x2="49.98" y2="-2392.61" xlink:href="#linear-gradient"/><linearGradient id="linear-gradient-8" x1="52.8" y1="-2388.97" x2="52.8" y2="-2392.61" xlink:href="#linear-gradient"/><linearGradient id="linear-gradient-9" x1="54.23" y1="-2388.97" x2="54.23" y2="-2392.61" xlink:href="#linear-gradient"/><linearGradient id="linear-gradient-10" x1="56.02" y1="-2388.97" x2="56.02" y2="-2392.61" xlink:href="#linear-gradient"/><linearGradient id="linear-gradient-11" x1="58.69" y1="-2388.97" x2="58.69" y2="-2392.61" xlink:href="#linear-gradient"/></defs><title>Asset 5</title><g id="Layer_2" data-name="Layer 2"><g id="Calque_1" data-name="Calque 1"><rect width="92" height="92" style="fill:#010101"/><g id="Layer_1-2" data-name="Layer 1-2"><rect x="3.38" y="3.38" width="85.24" height="85.24" style="fill:none"/><path id="Path" d="M69.4,50.23h2l-7.12-16.4H60.7v.52a1.78,1.78,0,0,1,1.6.79L55.75,50.23h2l5.84-13.47Z" style="fill:#fff"/><path id="Path-2" d="M33.36,50.23h2l-7.12-16.4H24.65v.52a1.78,1.78,0,0,1,1.6.79L19.7,50.23h2l5.85-13.47Z" style="fill:#fff"/><path id="Path-3" d="M50.19,33.82v.52a1.94,1.94,0,0,1,2,2.07V50.23h1.93V33.82Z" style="fill:#fff"/><path id="Path-4" d="M85.17,33.82V47.13L74.59,33.84H71.12v.52A1.84,1.84,0,0,1,73.06,36V50.25h1.52V37L85.15,50.25h1.53V33.82Z" style="fill:#fff"/><path id="Shape" d="M38.93,50.22H37V36.41a2,2,0,0,0-2-2.08v-.51h9.18a4.9,4.9,0,0,1,3.28,1.25,4.2,4.2,0,0,1,1.35,3.23,4.51,4.51,0,0,1-1.31,3.35,5.41,5.41,0,0,1-4,1.31H38.93v7.27Zm0-14.68v5.74h4.7A3.32,3.32,0,0,0,46,40.51a2.9,2.9,0,0,0,.81-2.22A2.51,2.51,0,0,0,46,36.23a3.84,3.84,0,0,0-2.48-.69Z" style="fill:#fff"/><path id="Path-5" d="M19,44.55c-.64-3-4.51-3.21-6.95-3.92l-.45-.12c-1.29-.33-2.6-.85-2.46-2.44.2-3.38,6.94-3.68,7.82-.48h1.89C18,33.36,11.59,33,8.75,35a4,4,0,0,0-.86,5.54c.06.07.11.14.17.2,1.62,1.81,4.81,1.9,7.13,2.67a2.44,2.44,0,0,1,2,2.32c-.29,3.76-7.88,3.54-8.44,0V44.45H5.31V45a1.77,1.77,0,0,1,1.58.78C7.59,52.31,20.39,51.46,19,44.55Z" style="fill:#fff"/><path d="M34.63,54.5v3.64h-.24V56.37H32.27v1.77H32V54.5h.23v1.67h2.12V54.5Z" style="fill:url(#linear-gradient)"/><path d="M38,54.7a1.71,1.71,0,0,1,.62.66,2.18,2.18,0,0,1,0,1.93A1.71,1.71,0,0,1,38,58a1.88,1.88,0,0,1-1.81,0,1.71,1.71,0,0,1-.62-.66,2.12,2.12,0,0,1,0-1.93,1.71,1.71,0,0,1,.62-.66A1.88,1.88,0,0,1,38,54.7Zm-1.68.18a1.44,1.44,0,0,0-.54.58,2,2,0,0,0,0,1.73,1.44,1.44,0,0,0,.54.58,1.58,1.58,0,0,0,1.55,0,1.44,1.44,0,0,0,.54-.58,2,2,0,0,0,0-1.73,1.44,1.44,0,0,0-.54-.58A1.58,1.58,0,0,0,36.3,54.88Z" style="fill:url(#linear-gradient-2)"/><path d="M41.56,57.7a.77.77,0,0,1-.34.35,1.17,1.17,0,0,1-.58.13,1.38,1.38,0,0,1-.6-.13,1.17,1.17,0,0,1-.42-.34,1,1,0,0,1-.18-.48h.25a1.05,1.05,0,0,0,.13.35.89.89,0,0,0,.32.29,1.06,1.06,0,0,0,.5.12.81.81,0,0,0,.59-.21.73.73,0,0,0,.2-.53.64.64,0,0,0-.13-.44.84.84,0,0,0-.31-.25l-.51-.19a4.05,4.05,0,0,1-.55-.2.82.82,0,0,1-.35-.29.84.84,0,0,1-.14-.51.83.83,0,0,1,.27-.65,1,1,0,0,1,.76-.25,1.13,1.13,0,0,1,.77.25,1,1,0,0,1,.36.59h-.25a.82.82,0,0,0-.28-.45.88.88,0,0,0-.61-.2.87.87,0,0,0-.57.19.67.67,0,0,0-.21.52.6.6,0,0,0,.12.41.86.86,0,0,0,.31.26,4.24,4.24,0,0,0,.5.18,3.85,3.85,0,0,1,.57.2,1,1,0,0,1,.36.3.93.93,0,0,1,.14.54A1,1,0,0,1,41.56,57.7Z" style="fill:url(#linear-gradient-3)"/><path d="M42.61,56.56v1.58h-.23V54.5h1a1.26,1.26,0,0,1,.9.27,1.06,1.06,0,0,1,.3.77,1,1,0,0,1-.31.75,1.29,1.29,0,0,1-.89.25Zm1.73-1a.83.83,0,0,0-.23-.62,1.07,1.07,0,0,0-.75-.21h-.75v1.65h.75c.65,0,1-.28,1-.82Z" style="fill:url(#linear-gradient-4)"/><path d="M45.42,54.5v3.64h-.23V54.5Z" style="fill:url(#linear-gradient-5)"/><path d="M48.26,54.5v.2h-1v3.44H47V54.7H45.91v-.2Z" style="fill:url(#linear-gradient-6)"/><path d="M50.84,57.2H49.11l-.35.94h-.25l1.35-3.54h.25l1.34,3.54h-.26ZM50.76,57,50,54.88,49.18,57Z" style="fill:url(#linear-gradient-7)"/><path d="M52.23,58h1.36v.19H52V54.5h.23Z" style="fill:url(#linear-gradient-8)"/><path d="M54.35,54.5v3.64h-.24V54.5Z" style="fill:url(#linear-gradient-9)"/><path d="M57.19,54.5v.2h-1v3.44h-.25V54.7h-1v-.2Z" style="fill:url(#linear-gradient-10)"/><path d="M60,54.5l-1.14,2.17v1.47h-.24V56.67L57.42,54.5h.28l1,1.92,1-1.92Z" style="fill:url(#linear-gradient-11)"/></g></g></g></svg>