<svg xmlns="http://www.w3.org/2000/svg" xmlns:xlink="http://www.w3.org/1999/xlink" viewBox="0 0 233.21 233.21"><defs><linearGradient id="Dégradé_sans_nom_20" x1="80.87" y1="131.41" x2="133.81" y2="39.71" gradientUnits="userSpaceOnUse"><stop offset="0" stop-color="#fcc741"/><stop offset="0.1" stop-color="#c87c20"/><stop offset="0.2" stop-color="#fbd97b"/><stop offset="0.4" stop-color="#f6a94a"/><stop offset="0.5" stop-color="#a86116"/><stop offset="0.6" stop-color="#f6a94a"/><stop offset="0.8" stop-color="#f7ef9b"/><stop offset="0.83" stop-color="#ebd27c"/><stop offset="0.89" stop-color="#cd882d"/><stop offset="0.9" stop-color="#c87c20"/><stop offset="1" stop-color="#fcc741"/></linearGradient><linearGradient id="Dégradé_sans_nom_20-2" x1="99.4" y1="193.5" x2="152.34" y2="101.8" xlink:href="#Dégradé_sans_nom_20"/></defs><title>Asset 2</title><g id="Layer_2" data-name="Layer 2"><g id="Calque_1" data-name="Calque 1"><path d="M177,93.33a70.32,70.32,0,0,0-9.62-19.42A67.16,67.16,0,0,0,152.51,58.7a54.85,54.85,0,0,0-17.61-8.76A30,30,0,0,1,130,48.12a32.21,32.21,0,0,1-5-3.07,43.34,43.34,0,0,1-8.61-8.7,117.29,117.29,0,0,0-8.33-10.26,26.89,26.89,0,0,0-9.53-6.41A58.31,58.31,0,0,0,83.35,16.2Q73.92,15.11,58,14.92a32.4,32.4,0,0,1,17.49,8c1.29,1.28,2.72,2.84,4.31,4.67a46.73,46.73,0,0,0,8.34,7.51,20.83,20.83,0,0,0,10,3.85q5,.54,8.52,1.28a52.91,52.91,0,0,1,6.5,1.74,40.16,40.16,0,0,1,5.41,2.29c1.64.85,3.39,1.77,5.22,2.75l-.19.55a44,44,0,0,0-7-.55,54.77,54.77,0,0,0-25,5.86A68.35,68.35,0,0,0,71.36,68.23,72.55,72.55,0,0,0,57.8,90a66.62,66.62,0,0,0-4.95,25.2h0a24.53,24.53,0,0,0,21.07,0h0v-.1a164.62,164.62,0,0,1,2.2-28.77q2.19-12.27,7.32-20.51A32.47,32.47,0,0,1,96.73,53.57q8.14-4,19.87-4,11.93,0,20,4a32.48,32.48,0,0,1,13.19,12.28q5.13,8.24,7.33,20.51a164.62,164.62,0,0,1,2.2,28.77v.1h0a24.58,24.58,0,0,1,21.06,0h0A71.26,71.26,0,0,0,177,93.33Z" style="fill:url(#Dégradé_sans_nom_20)"/><path d="M56.24,139.88a70,70,0,0,0,9.62,19.42A67.16,67.16,0,0,0,80.7,174.51a54.85,54.85,0,0,0,17.61,8.76,30,30,0,0,1,4.87,1.82,31.91,31.91,0,0,1,5,3.07,43.08,43.08,0,0,1,8.61,8.7,117.29,117.29,0,0,0,8.33,10.26,26.89,26.89,0,0,0,9.53,6.41A58.72,58.72,0,0,0,149.86,217q9.42,1.1,25.37,1.28a32.46,32.46,0,0,1-17.5-8c-1.28-1.28-2.72-2.84-4.3-4.67a46.73,46.73,0,0,0-8.34-7.51,20.83,20.83,0,0,0-10-3.85q-5-.54-8.52-1.28a52.91,52.91,0,0,1-6.5-1.74,40.16,40.16,0,0,1-5.41-2.29q-2.48-1.28-5.22-2.75l.19-.55a44,44,0,0,0,7,.55,54.77,54.77,0,0,0,25-5.86A68.51,68.51,0,0,0,161.85,165a72.75,72.75,0,0,0,13.56-21.8,66.62,66.62,0,0,0,5-25.2h0a24.53,24.53,0,0,0-21.07,0h0v.1a164.62,164.62,0,0,1-2.2,28.77q-2.19,12.27-7.32,20.51a32.47,32.47,0,0,1-13.29,12.28q-8.14,4-19.87,4-11.92,0-20-4a32.48,32.48,0,0,1-13.19-12.28q-5.15-8.24-7.33-20.51a164.62,164.62,0,0,1-2.2-28.77V118h0a24.6,24.6,0,0,1-21.07,0h0A71.26,71.26,0,0,0,56.24,139.88Z" style="fill:url(#Dégradé_sans_nom_20-2)"/><rect width="233.21" height="233.21" style="fill:none"/></g></g></svg>