<svg xmlns="http://www.w3.org/2000/svg" xmlns:xlink="http://www.w3.org/1999/xlink" viewBox="0 0 450.56 446.3"><defs><style>.cls-1{isolation:isolate;}.cls-2{fill:#92b4d1;}.cls-2,.cls-40{opacity:0.2;}.cls-3{fill:#2672ab;}.cls-4{fill:#d1ebff;}.cls-5,.cls-6{fill:#3f92d1;}.cls-46,.cls-5{opacity:0.5;}.cls-13,.cls-14,.cls-46,.cls-7,.cls-8{fill:#fff;}.cls-8{opacity:0.3;}.cls-50,.cls-9{fill:#a8cff0;}.cls-10{fill:#72b5e8;}.cls-11,.cls-48{fill:#03336e;}.cls-12{fill:#022652;}.cls-13{mix-blend-mode:screen;}.cls-14{opacity:0.7;}.cls-15,.cls-44,.cls-45,.cls-48,.cls-49,.cls-50,.cls-51,.cls-52,.cls-53{mix-blend-mode:multiply;}.cls-16{fill:#f1f2f2;}.cls-16,.cls-48{opacity:0.1;}.cls-17{fill:#eceff0;opacity:0.14;}.cls-18{fill:#e7ebee;opacity:0.19;}.cls-19{fill:#e2e8ec;opacity:0.23;}.cls-20{fill:#dee5ea;opacity:0.27;}.cls-21{fill:#d9e1e8;opacity:0.31;}.cls-22{fill:#d4dee6;opacity:0.36;}.cls-23{fill:#cfdbe4;opacity:0.4;}.cls-24{fill:#cad7e2;opacity:0.44;}.cls-25{fill:#c5d4e0;opacity:0.49;}.cls-26{fill:#c0d1de;opacity:0.53;}.cls-27{fill:#bccddb;opacity:0.57;}.cls-28{fill:#b7cad9;opacity:0.61;}.cls-29{fill:#b2c7d7;opacity:0.66;}.cls-30{fill:#adc3d5;opacity:0.7;}.cls-31{fill:#a8c0d3;opacity:0.74;}.cls-32{fill:#a3bdd1;opacity:0.79;}.cls-33{fill:#9eb9cf;opacity:0.83;}.cls-34{fill:#9ab6cd;opacity:0.87;}.cls-35{fill:#95b3cb;opacity:0.91;}.cls-36{fill:#90afc9;opacity:0.96;}.cls-37{fill:#8bacc7;}.cls-38{fill:#eb4680;}.cls-39{fill:#ffd70f;}.cls-41{fill:#0ba19f;}.cls-42{fill:#0fbab8;}.cls-43{fill:#3ecfcd;}.cls-44{fill:url(#radial-gradient);}.cls-45{fill:url(#radial-gradient-2);}.cls-47{fill:#f0f8ff;}.cls-49{fill:url(#linear-gradient);}.cls-51{fill:url(#radial-gradient-3);}.cls-52{fill:url(#radial-gradient-4);}.cls-53{fill:url(#radial-gradient-5);}.cls-54{fill:#ffde17;}.cls-55{fill:#fc0;}</style><radialGradient id="radial-gradient" cx="243.38" cy="274.14" r="52.55" gradientUnits="userSpaceOnUse"><stop offset="0.06" stop-color="#7f9bb0"/><stop offset="1" stop-color="#fff"/></radialGradient><radialGradient id="radial-gradient-2" cx="266.23" cy="272.33" r="33.64" xlink:href="#radial-gradient"/><linearGradient id="linear-gradient" x1="9786.09" y1="78.48" x2="9784.25" y2="113.99" gradientTransform="matrix(-1, 0, 0, 1, 10111.86, 0)" gradientUnits="userSpaceOnUse"><stop offset="0" stop-color="#fff"/><stop offset="1" stop-color="#e5e9ff"/></linearGradient><radialGradient id="radial-gradient-3" cx="432.93" cy="145.22" r="17.72" xlink:href="#radial-gradient"/><radialGradient id="radial-gradient-4" cx="9340.53" cy="2855.27" r="19.62" gradientTransform="matrix(-0.5, -0.87, -0.5, 0.86, 6490.66, 5849.08)" xlink:href="#radial-gradient"/><radialGradient id="radial-gradient-5" cx="158.26" cy="99.37" r="36.16" xlink:href="#radial-gradient"/></defs><title>tradingbots</title><g class="cls-1"><g id="Layer_1" data-name="Layer 1"><path class="cls-2" d="M287.62,446,85.39,329.27c-8-4.61-7-12.66,2.24-18L202.4,245c9.22-5.32,23.17-5.9,31.15-1.29L435.78,360.49c8,4.61,7,12.66-2.24,18L318.78,444.74C309.55,450.06,295.61,450.64,287.62,446Z" transform="translate(-80 -2.84)"/><path class="cls-3" d="M287.62,435.94,85.39,319.18c-3.56-2.05-5.33-4.79-5.39-7.67v-10c.07-3.49,2.65,2.58,7.63-.3L202.4,234.93c9.22-5.32,23.17-5.9,31.15-1.29L435.78,350.4c2.67,1.53,4.6-5,5.29-2.92.23.69.09,9.86.1,10.57.08,3.58-2.51,7.38-7.63,10.33L318.78,434.65C309.55,440,295.61,440.55,287.62,435.94Z" transform="translate(-80 -2.84)"/><path class="cls-4" d="M287.62,426.1,85.39,309.35c-8-4.61-7-12.67,2.24-18L202.4,225.1c9.22-5.33,23.17-5.9,31.15-1.29L435.78,340.56c8,4.61,7,12.67-2.24,18L318.78,424.81C309.55,430.14,295.61,430.72,287.62,426.1Z" transform="translate(-80 -2.84)"/><path class="cls-5" d="M287.62,435.94c8,4.61,21.93,4,31.16-1.29v-9.84c-9.23,5.33-23.17,5.91-31.16,1.29Z" transform="translate(-80 -2.84)"/><path class="cls-6" d="M287.62,426.1,85.39,309.35c-3.86-2.23-5.6-5.27-5.35-8.41,0,.15,0,.33,0,.55v10c.06,2.88,1.83,5.62,5.39,7.67L287.62,435.94Z" transform="translate(-80 -2.84)"/><path class="cls-7" d="M433.54,356.88,318.78,423.14c-9.23,5.33-23.17,5.91-31.16,1.29L85.39,307.68c-3.31-1.91-5-4.42-5.33-7.08-.41,3.26,1.33,6.44,5.33,8.75L287.62,426.1c8,4.62,21.93,4,31.16-1.29l114.76-66.26c5.4-3.11,8-7.16,7.57-10.91C440.7,350.89,438.15,354.23,433.54,356.88Z" transform="translate(-80 -2.84)"/><path class="cls-8" d="M241.59,385.32l-72-41.56c-1.44-.83-1.26-2.28.41-3.24l27-15.6a6.25,6.25,0,0,1,5.62-.24l72,41.56c1.44.83,1.26,2.28-.4,3.24l-27,15.6A6.25,6.25,0,0,1,241.59,385.32Z" transform="translate(-80 -2.84)"/><path class="cls-9" d="M170,342.22l27-15.6a6.25,6.25,0,0,1,5.62-.23l72,41.55a2.06,2.06,0,0,1,.67.59,1.5,1.5,0,0,0-.67-2.29l-72-41.56a6.25,6.25,0,0,0-5.62.24l-27,15.6c-1.33.76-1.69,1.83-1.07,2.66A3.18,3.18,0,0,1,170,342.22Z" transform="translate(-80 -2.84)"/><path class="cls-10" d="M220.39,238.81l12.4,7.16a6.29,6.29,0,0,0,5.7,0c1.56-.9,1.56-2.37,0-3.29l-12.41-7.16a6.3,6.3,0,0,0-5.69,0C218.8,236.43,218.81,237.9,220.39,238.81Zm21.24,12.26,5.87,3.39a6.29,6.29,0,0,0,5.7,0c1.56-.9,1.55-2.37,0-3.28l-5.88-3.4a6.3,6.3,0,0,0-5.69,0C240,248.69,240.05,250.16,241.63,251.07Zm14.7,8.49,5.88,3.4a6.3,6.3,0,0,0,5.69,0c1.57-.91,1.56-2.38,0-3.29L262,256.29a6.27,6.27,0,0,0-5.69,0C254.75,257.18,254.76,258.65,256.33,259.56Zm14.71,8.5,5.88,3.39a6.3,6.3,0,0,0,5.69,0c1.57-.91,1.56-2.38,0-3.29l-5.87-3.39a6.27,6.27,0,0,0-5.69,0C269.46,265.67,269.47,267.15,271,268.06Zm14.71,8.49,5.88,3.39a6.27,6.27,0,0,0,5.69,0c1.57-.9,1.56-2.38,0-3.29l-5.87-3.39a6.32,6.32,0,0,0-5.7,0C284.17,274.17,284.17,275.64,285.75,276.55ZM300.46,285l5.88,3.39a6.27,6.27,0,0,0,5.69,0c1.57-.9,1.56-2.37,0-3.28l-5.87-3.4a6.32,6.32,0,0,0-5.7,0C298.88,282.66,298.88,284.13,300.46,285Zm14.71,8.49,5.87,3.39a6.29,6.29,0,0,0,5.7,0c1.57-.91,1.56-2.38,0-3.29l-5.87-3.39a6.26,6.26,0,0,0-5.7,0C313.58,291.15,313.59,292.62,315.17,293.53ZM329.88,302l5.87,3.4a6.32,6.32,0,0,0,5.7,0c1.57-.91,1.56-2.38,0-3.29l-5.88-3.39a6.27,6.27,0,0,0-5.69,0C328.29,299.64,328.3,301.11,329.88,302Zm14.71,8.5,5.87,3.39a6.32,6.32,0,0,0,5.7,0c1.56-.91,1.56-2.38,0-3.29l-5.88-3.39a6.27,6.27,0,0,0-5.69,0C343,308.13,343,309.61,344.59,310.52ZM359.3,319l5.87,3.39a6.29,6.29,0,0,0,5.7,0c1.56-.9,1.55-2.38,0-3.29L365,315.73a6.3,6.3,0,0,0-5.69,0C357.71,316.63,357.72,318.1,359.3,319ZM374,327.5l5.88,3.39a6.27,6.27,0,0,0,5.69,0c1.57-.9,1.56-2.37,0-3.28l-5.88-3.4a6.3,6.3,0,0,0-5.69,0C372.42,325.12,372.43,326.59,374,327.5ZM388.71,336l5.88,3.4a6.3,6.3,0,0,0,5.69,0c1.57-.91,1.56-2.38,0-3.29l-5.88-3.39a6.27,6.27,0,0,0-5.69,0C387.13,333.61,387.14,335.08,388.71,336Zm15,8.67,5.87,3.39a6.29,6.29,0,0,0,5.7,0c1.57-.9,1.56-2.37,0-3.28l-5.88-3.4a6.3,6.3,0,0,0-5.69,0C402.14,342.28,402.15,343.75,403.73,344.66ZM207.16,246.9l5.09,2.94a7.15,7.15,0,0,0,6.48,0l5.05-2.92c1.79-1,1.78-2.7,0-3.74l-5.09-2.93a7.15,7.15,0,0,0-6.48,0l-5.05,2.92C205.36,244.19,205.36,245.87,207.16,246.9Zm26.28,11.44,5.05-2.91c1.78-1,1.77-2.71,0-3.75l-5.09-2.93a7.15,7.15,0,0,0-6.48,0l-5.05,2.91c-1.79,1-1.78,2.71,0,3.75l5.08,2.93A7.17,7.17,0,0,0,233.44,258.34Zm3.14,5.55,5.08,2.94a7.18,7.18,0,0,0,6.48,0l5.06-2.92c1.78-1,1.77-2.71,0-3.74l-5.09-2.94a7.15,7.15,0,0,0-6.48,0l-5.05,2.92C234.77,261.18,234.78,262.85,236.58,263.89Zm14.71,8.49,5.08,2.94a7.18,7.18,0,0,0,6.48,0l5.06-2.92c1.78-1,1.77-2.7,0-3.74l-5.09-2.94a7.18,7.18,0,0,0-6.48,0l-5,2.92C249.48,269.67,249.49,271.34,251.29,272.38Zm31.31,4.78-5.09-2.94a7.18,7.18,0,0,0-6.48,0L266,277.13c-1.78,1-1.77,2.71,0,3.74l5.09,2.94a7.15,7.15,0,0,0,6.48,0l5.06-2.92C284.4,279.87,284.39,278.2,282.6,277.16Zm14.7,8.49-5.08-2.93a7.15,7.15,0,0,0-6.48,0l-5.06,2.92c-1.78,1-1.77,2.71,0,3.74l5.09,2.94a7.15,7.15,0,0,0,6.48,0l5.06-2.92C299.11,288.37,299.1,286.69,297.3,285.65Zm14.71,8.5-5.08-2.94a7.15,7.15,0,0,0-6.48,0l-5.06,2.92c-1.78,1-1.77,2.7,0,3.74l5.09,2.93a7.15,7.15,0,0,0,6.48,0l5-2.92C313.82,296.86,313.81,295.18,312,294.15Zm14.71,8.49-5.08-2.94a7.15,7.15,0,0,0-6.48,0l-5.06,2.92c-1.78,1-1.77,2.7,0,3.74l5.09,2.94a7.18,7.18,0,0,0,6.48,0l5.05-2.92C328.53,305.35,328.52,303.67,326.72,302.64Zm14.71,8.49-5.09-2.94a7.18,7.18,0,0,0-6.48,0l-5.05,2.92c-1.78,1-1.78,2.7,0,3.74l5.09,2.94a7.18,7.18,0,0,0,6.48,0l5.05-2.92C343.24,313.84,343.23,312.17,341.43,311.13Zm14.71,8.49-5.09-2.93a7.15,7.15,0,0,0-6.48,0l-5.05,2.92c-1.79,1-1.78,2.71,0,3.74l5.08,2.94a7.17,7.17,0,0,0,6.49,0l5.05-2.92C357.94,322.33,357.94,320.66,356.14,319.62Zm-1.89,12.21,5.08,2.93a7.15,7.15,0,0,0,6.48,0l5.06-2.91c1.78-1,1.77-2.71,0-3.75l-5.09-2.93a7.15,7.15,0,0,0-6.48,0l-5,2.91C352.44,329.11,352.45,330.79,354.25,331.83Zm31.31,4.78-5.09-2.94a7.15,7.15,0,0,0-6.48,0l-5.05,2.92c-1.79,1-1.78,2.7,0,3.74l5.08,2.93a7.15,7.15,0,0,0,6.48,0l5.06-2.92C387.36,339.32,387.35,337.64,385.56,336.61ZM407.1,349l-11.61-6.7a7.15,7.15,0,0,0-6.48,0L384,345.24c-1.78,1-1.77,2.71,0,3.75l11.62,6.7a7.15,7.15,0,0,0,6.48,0l5.05-2.91C408.9,351.76,408.9,350.08,407.1,349ZM193.54,254.77l11.61,6.71a7.18,7.18,0,0,0,6.48,0l5.06-2.92c1.78-1,1.77-2.71,0-3.74l-11.62-6.71a7.18,7.18,0,0,0-6.48,0l-5,2.92C191.73,252.06,191.74,253.73,193.54,254.77ZM214.77,267l5.09,2.94a7.18,7.18,0,0,0,6.48,0l5-2.92c1.79-1,1.78-2.7,0-3.74l-5.08-2.94a7.18,7.18,0,0,0-6.48,0l-5.06,2.92C213,264.32,213,266,214.77,267Zm19.8,11.43a7.15,7.15,0,0,0,6.48,0l5-2.92c1.79-1,1.78-2.7,0-3.74L241,268.87a7.18,7.18,0,0,0-6.48,0l-5.06,2.92c-1.78,1-1.77,2.71,0,3.74ZM249.28,287a7.15,7.15,0,0,0,6.48,0l5.05-2.91c1.79-1,1.78-2.71,0-3.75l-5.08-2.93a7.17,7.17,0,0,0-6.49,0l-5.05,2.91c-1.78,1-1.78,2.71,0,3.75Zm14.65-1.1-5.05,2.92c-1.79,1-1.78,2.7,0,3.74l5.09,2.93a7.15,7.15,0,0,0,6.48,0l5-2.92c1.79-1,1.78-2.71,0-3.74l-5.09-2.94A7.15,7.15,0,0,0,263.93,285.85Zm15,8.31-5.67,3.28c-1.62.93-1.61,2.44,0,3.38l5.71,3.3a6.48,6.48,0,0,0,5.85,0l5.68-3.28c1.61-.93,1.6-2.44,0-3.38l-5.71-3.3A6.47,6.47,0,0,0,279,294.16Zm14.71,8.49L288,305.93c-1.62.93-1.61,2.44,0,3.38l5.72,3.3a6.45,6.45,0,0,0,5.85,0l5.68-3.28c1.61-.93,1.6-2.44,0-3.38l-5.71-3.3A6.5,6.5,0,0,0,293.66,302.65Zm14.71,8.49-5.68,3.28c-1.61.93-1.6,2.45,0,3.38l5.71,3.3a6.47,6.47,0,0,0,5.86,0l5.68-3.28c1.61-.93,1.6-2.44,0-3.38l-5.71-3.3A6.5,6.5,0,0,0,308.37,311.14Zm14.71,8.5-5.68,3.27c-1.61.93-1.6,2.45,0,3.39l5.71,3.29a6.47,6.47,0,0,0,5.86,0l5.68-3.27c1.61-.93,1.6-2.45,0-3.39l-5.71-3.29A6.47,6.47,0,0,0,323.08,319.64Zm14.71,8.49-5.68,3.28c-1.61.93-1.6,2.44,0,3.38l5.71,3.3a6.5,6.5,0,0,0,5.86,0l5.68-3.28c1.61-.93,1.6-2.45,0-3.38l-5.71-3.3A6.47,6.47,0,0,0,337.79,328.13Zm20.62,18.46,5.67-3.28c1.62-.93,1.61-2.44,0-3.38l-5.72-3.3a6.45,6.45,0,0,0-5.85,0l-5.68,3.28c-1.61.93-1.6,2.44,0,3.38l5.71,3.3A6.5,6.5,0,0,0,358.41,346.59Zm14.71,8.49,5.67-3.28c1.62-.93,1.61-2.44,0-3.38l-5.72-3.3a6.48,6.48,0,0,0-5.85,0l-5.68,3.28c-1.61.93-1.6,2.44,0,3.38l5.71,3.3A6.47,6.47,0,0,0,373.12,355.08Zm20.67,2-5.71-3.3a6.5,6.5,0,0,0-5.86,0l-5.68,3.28c-1.61.93-1.6,2.44,0,3.38l5.71,3.3a6.47,6.47,0,0,0,5.86,0l5.68-3.28C395.42,359.54,395.41,358,393.79,357.09ZM179.6,262.45,198,273.1a6.47,6.47,0,0,0,5.86,0l5.67-3.27c1.62-.94,1.61-2.45,0-3.39l-18.45-10.64a6.45,6.45,0,0,0-5.85,0l-5.68,3.27C178,260,178,261.52,179.6,262.45ZM207,278.3l5.71,3.29a6.47,6.47,0,0,0,5.86,0l5.67-3.28c1.62-.93,1.61-2.45,0-3.38l-5.72-3.3a6.45,6.45,0,0,0-5.85,0L207,274.92C205.41,275.85,205.42,277.36,207,278.3Zm14.71,8.49,5.71,3.3a6.5,6.5,0,0,0,5.86,0l5.67-3.28c1.61-.93,1.61-2.44,0-3.38l-5.71-3.3a6.47,6.47,0,0,0-5.86,0l-5.67,3.28C220.12,284.34,220.12,285.85,221.75,286.79Zm14.71,8.49,5.71,3.3a6.45,6.45,0,0,0,5.85,0l5.68-3.28c1.61-.93,1.61-2.44,0-3.38l-5.71-3.3a6.5,6.5,0,0,0-5.86,0l-5.67,3.28C234.82,292.83,234.83,294.34,236.46,295.28Zm26.27,11.8,5.68-3.28c1.61-.93,1.6-2.44,0-3.38l-5.71-3.3a6.5,6.5,0,0,0-5.86,0l-5.67,3.28c-1.62.93-1.61,2.45,0,3.38l5.72,3.3A6.45,6.45,0,0,0,262.73,307.08Zm14.71,8.49,5.68-3.27c1.61-.93,1.6-2.45,0-3.39l-5.71-3.29a6.47,6.47,0,0,0-5.86,0l-5.68,3.27c-1.61.93-1.6,2.45,0,3.39l5.72,3.29A6.45,6.45,0,0,0,277.44,315.57Zm14.71,8.5,5.68-3.28c1.61-.93,1.6-2.45,0-3.38l-5.71-3.3a6.47,6.47,0,0,0-5.86,0l-5.68,3.28c-1.61.93-1.6,2.44,0,3.38l5.71,3.3A6.5,6.5,0,0,0,292.15,324.07Zm14.71,8.49,5.68-3.28c1.61-.93,1.6-2.44,0-3.38l-5.71-3.3a6.47,6.47,0,0,0-5.86,0l-5.68,3.28c-1.61.93-1.6,2.44,0,3.38l5.71,3.3A6.5,6.5,0,0,0,306.86,332.56Zm14.71,8.49,5.68-3.28c1.61-.93,1.6-2.44,0-3.38l-5.72-3.3a6.48,6.48,0,0,0-5.85,0L310,334.36c-1.61.93-1.6,2.44,0,3.38l5.71,3.3A6.47,6.47,0,0,0,321.57,341.05Zm14.71,8.49,5.67-3.28c1.62-.93,1.61-2.44,0-3.38l-5.72-3.29a6.45,6.45,0,0,0-5.85,0l-5.68,3.28c-1.61.93-1.6,2.45,0,3.38l5.71,3.3A6.47,6.47,0,0,0,336.28,349.54Zm3.14,5.19,5.71,3.29a6.44,6.44,0,0,0,5.86,0l5.67-3.27c1.62-.93,1.61-2.45,0-3.38l-5.71-3.3a6.45,6.45,0,0,0-5.85,0l-5.68,3.27C337.79,352.28,337.79,353.79,339.42,354.73ZM380.17,365l-14.53-8.39a6.47,6.47,0,0,0-5.86,0l-5.67,3.28c-1.61.93-1.61,2.44,0,3.38l14.52,8.38a6.44,6.44,0,0,0,5.86,0l5.67-3.27C381.8,367.41,381.79,365.89,380.17,365ZM166,270.73l26.17,15.11a7.35,7.35,0,0,0,6.62,0l4.92-2.84c1.82-1.05,1.81-2.77,0-3.82l-26.16-15.11a7.32,7.32,0,0,0-6.62,0L166,266.91C164.19,268,164.2,269.67,166,270.73ZM202,291.47l4.95,2.86a7.3,7.3,0,0,0,6.61,0l4.92-2.84c1.83-1.05,1.82-2.76,0-3.82l-4.95-2.86a7.3,7.3,0,0,0-6.61,0l-4.92,2.84C200.12,288.7,200.12,290.41,202,291.47ZM216.67,300l5,2.86a7.3,7.3,0,0,0,6.61,0l4.92-2.84c1.82-1.05,1.81-2.76,0-3.82l-4.95-2.86a7.3,7.3,0,0,0-6.61,0l-4.92,2.84C214.82,297.19,214.83,298.9,216.67,300Zm14.7,8.49,5,2.86a7.27,7.27,0,0,0,6.61,0l4.92-2.84c1.82-1.05,1.81-2.76,0-3.82l-5-2.85a7.32,7.32,0,0,0-6.62,0l-4.92,2.84C229.53,305.68,229.54,307.4,231.37,308.45Zm14.71,8.5L251,319.8a7.32,7.32,0,0,0,6.62,0l4.92-2.84c1.82-1.06,1.81-2.77,0-3.82l-4.95-2.86a7.29,7.29,0,0,0-6.62,0l-4.92,2.84C244.24,314.18,244.25,315.89,246.08,317Zm14.71,8.49,4.95,2.86a7.35,7.35,0,0,0,6.62,0l4.92-2.84c1.82-1.05,1.81-2.76,0-3.82l-4.95-2.86a7.32,7.32,0,0,0-6.62,0l-4.92,2.84C259,322.67,259,324.38,260.79,325.44Zm14.71,8.49,4.95,2.86a7.32,7.32,0,0,0,6.62,0L292,334c1.82-1,1.81-2.76,0-3.82l-5-2.86a7.32,7.32,0,0,0-6.62,0l-4.92,2.84C273.66,331.16,273.67,332.87,275.5,333.93Zm14.71,8.49,5,2.86a7.32,7.32,0,0,0,6.62,0l4.92-2.84c1.82-1.05,1.81-2.76,0-3.82l-4.95-2.86a7.35,7.35,0,0,0-6.62,0l-4.92,2.84C288.37,339.65,288.38,341.36,290.21,342.42Zm14.71,8.49,4.95,2.86a7.29,7.29,0,0,0,6.62,0l4.92-2.84c1.82-1.05,1.81-2.76,0-3.82l-4.95-2.85a7.3,7.3,0,0,0-6.61,0l-4.92,2.84C303.08,348.15,303.09,349.86,304.92,350.91Zm14.71,8.5,4.95,2.85a7.3,7.3,0,0,0,6.61,0l4.92-2.84c1.83-1.06,1.82-2.77,0-3.82l-4.95-2.86a7.27,7.27,0,0,0-6.61,0l-4.92,2.84C317.79,356.64,317.79,358.35,319.63,359.41Zm14.71,8.49,5,2.86a7.33,7.33,0,0,0,6.61,0l4.92-2.84c1.82-1.05,1.82-2.76,0-3.82l-4.95-2.86a7.3,7.3,0,0,0-6.61,0l-4.92,2.84C332.49,365.13,332.5,366.84,334.34,367.9Zm31.5,4.89-4.95-2.86a7.32,7.32,0,0,0-6.62,0l-4.92,2.84c-1.82,1.05-1.81,2.76,0,3.82l4.95,2.86a7.32,7.32,0,0,0,6.62,0l4.92-2.84C367.68,375.56,367.67,373.85,365.84,372.79ZM175.4,278.57l-11.48-6.63a7.33,7.33,0,0,0-6.61,0l-4.92,2.84c-1.82,1.05-1.81,2.76,0,3.82l11.48,6.63a7.3,7.3,0,0,0,6.61,0l4.92-2.84C177.24,281.34,177.24,279.63,175.4,278.57Zm14.71,8.49-5-2.85a7.32,7.32,0,0,0-6.62,0L173.62,287c-1.82,1.06-1.81,2.77,0,3.82l4.95,2.86a7.27,7.27,0,0,0,6.61,0l4.92-2.84C192,289.83,191.94,288.12,190.11,287.06Zm14.71,8.5-4.95-2.86a7.29,7.29,0,0,0-6.62,0l-4.92,2.84c-1.82,1.05-1.81,2.76,0,3.82l5,2.85a7.32,7.32,0,0,0,6.62,0l4.92-2.84C206.66,298.32,206.65,296.61,204.82,295.56Zm103,59.44-93.2-53.81a7.32,7.32,0,0,0-6.62,0L203,304c-1.82,1.05-1.81,2.76,0,3.82l93.21,53.81a7.3,7.3,0,0,0,6.61,0l4.92-2.84C309.62,357.77,309.61,356.06,307.78,355Zm14.71,8.49-4.95-2.85a7.32,7.32,0,0,0-6.62,0L306,363.46c-1.82,1.06-1.81,2.77,0,3.82l5,2.86a7.27,7.27,0,0,0,6.61,0l4.92-2.84C324.33,366.26,324.32,364.55,322.49,363.49ZM337.2,372l-4.95-2.86a7.29,7.29,0,0,0-6.62,0L320.71,372c-1.82,1.05-1.81,2.76,0,3.82l4.95,2.85a7.32,7.32,0,0,0,6.62,0l4.92-2.84C339,374.75,339,373,337.2,372Zm15,8.66-4.95-2.85a7.3,7.3,0,0,0-6.61,0l-4.92,2.84c-1.82,1.06-1.81,2.77,0,3.82l4.95,2.86a7.27,7.27,0,0,0,6.61,0l4.92-2.84C354.06,383.42,354.05,381.71,352.21,380.65Z" transform="translate(-80 -2.84)"/><path class="cls-9" d="M220.39,237.44l12.4,7.16a6.29,6.29,0,0,0,5.7,0c1.56-.9,1.56-2.37,0-3.29l-12.41-7.16a6.3,6.3,0,0,0-5.69,0C218.8,235.06,218.81,236.53,220.39,237.44Zm21.24,12.26,5.87,3.39a6.29,6.29,0,0,0,5.7,0c1.56-.9,1.55-2.37,0-3.28l-5.88-3.4a6.3,6.3,0,0,0-5.69,0C240,247.32,240.05,248.79,241.63,249.7Zm14.7,8.49,5.88,3.4a6.3,6.3,0,0,0,5.69,0c1.57-.91,1.56-2.38,0-3.29L262,254.92a6.27,6.27,0,0,0-5.69,0C254.75,255.81,254.76,257.28,256.33,258.19Zm14.71,8.5,5.88,3.39a6.3,6.3,0,0,0,5.69,0c1.57-.91,1.56-2.38,0-3.29l-5.87-3.39a6.27,6.27,0,0,0-5.69,0C269.46,264.3,269.47,265.78,271,266.69Zm14.71,8.49,5.88,3.39a6.27,6.27,0,0,0,5.69,0c1.57-.9,1.56-2.38,0-3.29l-5.87-3.39a6.32,6.32,0,0,0-5.7,0C284.17,272.8,284.17,274.27,285.75,275.18Zm14.71,8.49,5.88,3.39a6.27,6.27,0,0,0,5.69,0c1.57-.9,1.56-2.37,0-3.28l-5.87-3.4a6.32,6.32,0,0,0-5.7,0C298.88,281.29,298.88,282.76,300.46,283.67Zm14.71,8.49,5.87,3.39a6.29,6.29,0,0,0,5.7,0c1.57-.91,1.56-2.38,0-3.29l-5.87-3.39a6.26,6.26,0,0,0-5.7,0C313.58,289.78,313.59,291.25,315.17,292.16Zm14.71,8.49,5.87,3.4a6.32,6.32,0,0,0,5.7,0c1.57-.91,1.56-2.38,0-3.29l-5.88-3.39a6.27,6.27,0,0,0-5.69,0C328.29,298.27,328.3,299.74,329.88,300.65Zm14.71,8.5,5.87,3.39a6.32,6.32,0,0,0,5.7,0c1.56-.91,1.56-2.38,0-3.29l-5.88-3.39a6.27,6.27,0,0,0-5.69,0C343,306.76,343,308.24,344.59,309.15Zm14.71,8.49,5.87,3.39a6.29,6.29,0,0,0,5.7,0c1.56-.9,1.55-2.38,0-3.29L365,314.36a6.3,6.3,0,0,0-5.69,0C357.71,315.26,357.72,316.73,359.3,317.64Zm14.7,8.49,5.88,3.39a6.27,6.27,0,0,0,5.69,0c1.57-.9,1.56-2.37,0-3.28l-5.88-3.4a6.3,6.3,0,0,0-5.69,0C372.42,323.75,372.43,325.22,374,326.13Zm14.71,8.49,5.88,3.4a6.3,6.3,0,0,0,5.69,0c1.57-.91,1.56-2.38,0-3.29l-5.88-3.39a6.27,6.27,0,0,0-5.69,0C387.13,332.24,387.14,333.71,388.71,334.62Zm15,8.67,5.87,3.39a6.29,6.29,0,0,0,5.7,0c1.57-.9,1.56-2.37,0-3.28L409.4,340a6.3,6.3,0,0,0-5.69,0C402.14,340.91,402.15,342.38,403.73,343.29ZM207.16,245.53l5.09,2.94a7.15,7.15,0,0,0,6.48,0l5.05-2.92c1.79-1,1.78-2.7,0-3.74l-5.09-2.93a7.15,7.15,0,0,0-6.48,0l-5.05,2.92C205.36,242.82,205.36,244.5,207.16,245.53ZM233.44,257l5.05-2.91c1.78-1,1.77-2.71,0-3.75l-5.09-2.93a7.15,7.15,0,0,0-6.48,0l-5.05,2.91c-1.79,1-1.78,2.71,0,3.75L227,257A7.17,7.17,0,0,0,233.44,257Zm3.14,5.55,5.08,2.94a7.18,7.18,0,0,0,6.48,0l5.06-2.92c1.78-1,1.77-2.71,0-3.74l-5.09-2.94a7.15,7.15,0,0,0-6.48,0l-5.05,2.92C234.77,259.81,234.78,261.48,236.58,262.52ZM251.29,271l5.08,2.94a7.18,7.18,0,0,0,6.48,0l5.06-2.92c1.78-1,1.77-2.7,0-3.74l-5.09-2.94a7.18,7.18,0,0,0-6.48,0l-5,2.92C249.48,268.3,249.49,270,251.29,271Zm31.31,4.78-5.09-2.94a7.18,7.18,0,0,0-6.48,0L266,275.76c-1.78,1-1.77,2.71,0,3.74l5.09,2.94a7.15,7.15,0,0,0,6.48,0l5.06-2.92C284.4,278.5,284.39,276.83,282.6,275.79Zm14.7,8.49-5.08-2.93a7.15,7.15,0,0,0-6.48,0l-5.06,2.92c-1.78,1-1.77,2.71,0,3.74l5.09,2.94a7.15,7.15,0,0,0,6.48,0l5.06-2.92C299.11,287,299.1,285.32,297.3,284.28Zm14.71,8.5-5.08-2.94a7.15,7.15,0,0,0-6.48,0l-5.06,2.92c-1.78,1-1.77,2.7,0,3.74l5.09,2.93a7.15,7.15,0,0,0,6.48,0l5-2.92C313.82,295.49,313.81,293.81,312,292.78Zm14.71,8.49-5.08-2.94a7.15,7.15,0,0,0-6.48,0l-5.06,2.92c-1.78,1-1.77,2.7,0,3.74l5.09,2.94a7.18,7.18,0,0,0,6.48,0l5.05-2.92C328.53,304,328.52,302.3,326.72,301.27Zm14.71,8.49-5.09-2.94a7.18,7.18,0,0,0-6.48,0l-5.05,2.92c-1.78,1-1.78,2.7,0,3.74l5.09,2.94a7.18,7.18,0,0,0,6.48,0l5.05-2.92C343.24,312.47,343.23,310.8,341.43,309.76Zm14.71,8.49-5.09-2.93a7.15,7.15,0,0,0-6.48,0l-5.05,2.92c-1.79,1-1.78,2.71,0,3.74l5.08,2.94a7.17,7.17,0,0,0,6.49,0l5.05-2.92C357.94,321,357.94,319.29,356.14,318.25Zm-1.89,12.21,5.08,2.93a7.15,7.15,0,0,0,6.48,0l5.06-2.91c1.78-1,1.77-2.71,0-3.75l-5.09-2.93a7.15,7.15,0,0,0-6.48,0l-5,2.91C352.44,327.74,352.45,329.42,354.25,330.46Zm31.31,4.78-5.09-2.94a7.15,7.15,0,0,0-6.48,0l-5.05,2.92c-1.79,1-1.78,2.7,0,3.74l5.08,2.93a7.15,7.15,0,0,0,6.48,0l5.06-2.92C387.36,338,387.35,336.27,385.56,335.24Zm21.54,12.43L395.49,341a7.15,7.15,0,0,0-6.48,0L384,343.87c-1.78,1-1.77,2.71,0,3.75l11.62,6.7a7.15,7.15,0,0,0,6.48,0l5.05-2.91C408.9,350.39,408.9,348.71,407.1,347.67ZM193.54,253.4l11.61,6.71a7.18,7.18,0,0,0,6.48,0l5.06-2.92c1.78-1,1.77-2.71,0-3.74l-11.62-6.71a7.18,7.18,0,0,0-6.48,0l-5,2.92C191.73,250.69,191.74,252.36,193.54,253.4Zm21.23,12.26,5.09,2.94a7.18,7.18,0,0,0,6.48,0l5-2.92c1.79-1,1.78-2.7,0-3.74L226.29,259a7.18,7.18,0,0,0-6.48,0l-5.06,2.92C213,263,213,264.62,214.77,265.66Zm19.8,11.43a7.15,7.15,0,0,0,6.48,0l5-2.92c1.79-1,1.78-2.7,0-3.74L241,267.5a7.18,7.18,0,0,0-6.48,0l-5.06,2.92c-1.78,1-1.77,2.71,0,3.74Zm14.71,8.49a7.15,7.15,0,0,0,6.48,0l5.05-2.91c1.79-1,1.78-2.71,0-3.75L255.71,276a7.17,7.17,0,0,0-6.49,0l-5.05,2.91c-1.78,1-1.78,2.71,0,3.75Zm14.65-1.1-5.05,2.92c-1.79,1-1.78,2.7,0,3.74l5.09,2.93a7.15,7.15,0,0,0,6.48,0l5-2.92c1.79-1,1.78-2.71,0-3.74l-5.09-2.94A7.15,7.15,0,0,0,263.93,284.48Zm15,8.31-5.67,3.28c-1.62.93-1.61,2.44,0,3.38l5.71,3.3a6.48,6.48,0,0,0,5.85,0l5.68-3.28c1.61-.93,1.6-2.44,0-3.38l-5.71-3.3A6.47,6.47,0,0,0,279,292.79Zm14.71,8.49L288,304.56c-1.62.93-1.61,2.44,0,3.38l5.72,3.3a6.45,6.45,0,0,0,5.85,0l5.68-3.28c1.61-.93,1.6-2.44,0-3.38l-5.71-3.3A6.5,6.5,0,0,0,293.66,301.28Zm14.71,8.49-5.68,3.28c-1.61.93-1.6,2.45,0,3.38l5.71,3.3a6.47,6.47,0,0,0,5.86,0l5.68-3.28c1.61-.93,1.6-2.44,0-3.38l-5.71-3.3A6.5,6.5,0,0,0,308.37,309.77Zm14.71,8.5-5.68,3.27c-1.61.93-1.6,2.45,0,3.39l5.71,3.29a6.47,6.47,0,0,0,5.86,0l5.68-3.27c1.61-.93,1.6-2.45,0-3.39l-5.71-3.29A6.47,6.47,0,0,0,323.08,318.27Zm14.71,8.49L332.11,330c-1.61.93-1.6,2.44,0,3.38l5.71,3.3a6.5,6.5,0,0,0,5.86,0l5.68-3.28c1.61-.93,1.6-2.45,0-3.38l-5.71-3.3A6.47,6.47,0,0,0,337.79,326.76Zm20.62,18.46,5.67-3.28c1.62-.93,1.61-2.44,0-3.38l-5.72-3.3a6.45,6.45,0,0,0-5.85,0l-5.68,3.28c-1.61.93-1.6,2.44,0,3.38l5.71,3.3A6.5,6.5,0,0,0,358.41,345.22Zm14.71,8.49,5.67-3.28c1.62-.93,1.61-2.44,0-3.38l-5.72-3.3a6.48,6.48,0,0,0-5.85,0L361.53,347c-1.61.93-1.6,2.44,0,3.38l5.71,3.3A6.47,6.47,0,0,0,373.12,353.71Zm20.67,2-5.71-3.3a6.5,6.5,0,0,0-5.86,0l-5.68,3.28c-1.61.93-1.6,2.44,0,3.38l5.71,3.3a6.47,6.47,0,0,0,5.86,0l5.68-3.28C395.42,358.17,395.41,356.66,393.79,355.72ZM179.6,261.08,198,271.73a6.47,6.47,0,0,0,5.86,0l5.67-3.27c1.62-.94,1.61-2.45,0-3.39l-18.45-10.64a6.45,6.45,0,0,0-5.85,0l-5.68,3.27C178,258.63,178,260.15,179.6,261.08ZM207,276.93l5.71,3.29a6.47,6.47,0,0,0,5.86,0l5.67-3.28c1.62-.93,1.61-2.45,0-3.38l-5.72-3.3a6.45,6.45,0,0,0-5.85,0L207,273.55C205.41,274.48,205.42,276,207,276.93Zm14.71,8.49,5.71,3.3a6.5,6.5,0,0,0,5.86,0l5.67-3.28c1.61-.93,1.61-2.44,0-3.38l-5.71-3.3a6.47,6.47,0,0,0-5.86,0L221.73,282C220.12,283,220.12,284.48,221.75,285.42Zm14.71,8.49,5.71,3.3a6.45,6.45,0,0,0,5.85,0l5.68-3.28c1.61-.93,1.61-2.44,0-3.38l-5.71-3.3a6.5,6.5,0,0,0-5.86,0l-5.67,3.28C234.82,291.46,234.83,293,236.46,293.91Zm26.27,11.8,5.68-3.28c1.61-.93,1.6-2.44,0-3.38l-5.71-3.3a6.5,6.5,0,0,0-5.86,0L251.15,299c-1.62.93-1.61,2.45,0,3.38l5.72,3.3A6.45,6.45,0,0,0,262.73,305.71Zm14.71,8.49,5.68-3.27c1.61-.93,1.6-2.45,0-3.39l-5.71-3.29a6.47,6.47,0,0,0-5.86,0l-5.68,3.27c-1.61.93-1.6,2.45,0,3.38l5.72,3.3A6.45,6.45,0,0,0,277.44,314.2Zm14.71,8.5,5.68-3.28c1.61-.93,1.6-2.45,0-3.38l-5.71-3.3a6.47,6.47,0,0,0-5.86,0L280.56,316c-1.61.93-1.6,2.44,0,3.38l5.71,3.3A6.5,6.5,0,0,0,292.15,322.7Zm14.71,8.49,5.68-3.28c1.61-.93,1.6-2.44,0-3.38l-5.71-3.3a6.47,6.47,0,0,0-5.86,0l-5.68,3.28c-1.61.93-1.6,2.44,0,3.38l5.71,3.3A6.5,6.5,0,0,0,306.86,331.19Zm14.71,8.49,5.68-3.28c1.61-.93,1.6-2.44,0-3.38l-5.72-3.3a6.48,6.48,0,0,0-5.85,0L310,333c-1.61.93-1.6,2.44,0,3.38l5.71,3.3A6.47,6.47,0,0,0,321.57,339.68Zm14.71,8.49,5.67-3.28c1.62-.93,1.61-2.44,0-3.38l-5.72-3.29a6.45,6.45,0,0,0-5.85,0l-5.68,3.28c-1.61.93-1.6,2.45,0,3.38l5.71,3.3A6.47,6.47,0,0,0,336.28,348.17Zm3.14,5.19,5.71,3.29a6.44,6.44,0,0,0,5.86,0l5.67-3.27c1.62-.93,1.61-2.45,0-3.38l-5.71-3.3a6.45,6.45,0,0,0-5.85,0L339.4,350C337.79,350.91,337.79,352.42,339.42,353.36Zm40.75,10.23-14.53-8.39a6.47,6.47,0,0,0-5.86,0l-5.67,3.28c-1.61.93-1.61,2.44,0,3.38l14.52,8.38a6.44,6.44,0,0,0,5.86,0l5.67-3.27C381.8,366,381.79,364.52,380.17,363.59ZM166,269.36l26.17,15.11a7.35,7.35,0,0,0,6.62,0l4.92-2.84c1.82-1.05,1.81-2.77,0-3.82l-26.16-15.11a7.32,7.32,0,0,0-6.62,0L166,265.54C164.19,266.59,164.2,268.3,166,269.36ZM202,290.1l4.95,2.86a7.3,7.3,0,0,0,6.61,0l4.92-2.84c1.83-1.05,1.82-2.76,0-3.82l-4.95-2.86a7.3,7.3,0,0,0-6.61,0l-4.92,2.84C200.12,287.33,200.12,289,202,290.1Zm14.71,8.49,5,2.86a7.3,7.3,0,0,0,6.61,0l4.92-2.84c1.82-1.05,1.81-2.76,0-3.82l-4.95-2.86a7.3,7.3,0,0,0-6.61,0l-4.92,2.84C214.82,295.82,214.83,297.53,216.67,298.59Zm14.7,8.49,5,2.86a7.27,7.27,0,0,0,6.61,0l4.92-2.84c1.82-1.05,1.81-2.76,0-3.82l-5-2.86a7.35,7.35,0,0,0-6.62,0l-4.92,2.84C229.53,304.31,229.54,306,231.37,307.08Zm14.71,8.5,4.95,2.85a7.32,7.32,0,0,0,6.62,0l4.92-2.84c1.82-1.06,1.81-2.77,0-3.82l-4.95-2.86a7.29,7.29,0,0,0-6.62,0l-4.92,2.84C244.24,312.81,244.25,314.52,246.08,315.58Zm14.71,8.49,4.95,2.86a7.35,7.35,0,0,0,6.62,0l4.92-2.84c1.82-1.05,1.81-2.76,0-3.82l-4.95-2.86a7.32,7.32,0,0,0-6.62,0l-4.92,2.84C259,321.3,259,323,260.79,324.07Zm14.71,8.49,4.95,2.86a7.32,7.32,0,0,0,6.62,0l4.92-2.84c1.82-1,1.81-2.76,0-3.82l-5-2.86a7.32,7.32,0,0,0-6.62,0l-4.92,2.84C273.66,329.79,273.67,331.5,275.5,332.56Zm14.71,8.49,5,2.86a7.32,7.32,0,0,0,6.62,0l4.92-2.84c1.82-1.05,1.81-2.76,0-3.82l-4.95-2.86a7.35,7.35,0,0,0-6.62,0l-4.92,2.84C288.37,338.28,288.38,340,290.21,341.05Zm14.71,8.49,4.95,2.86a7.29,7.29,0,0,0,6.62,0l4.92-2.84c1.82-1.05,1.81-2.76,0-3.82l-4.95-2.85a7.3,7.3,0,0,0-6.61,0l-4.92,2.84C303.08,346.78,303.09,348.49,304.92,349.54Zm14.71,8.5,4.95,2.85a7.3,7.3,0,0,0,6.61,0l4.92-2.84c1.83-1.06,1.82-2.77,0-3.82l-4.95-2.86a7.27,7.27,0,0,0-6.61,0l-4.92,2.84C317.79,355.27,317.79,357,319.63,358Zm14.71,8.49,5,2.86a7.33,7.33,0,0,0,6.61,0l4.92-2.84c1.82-1.05,1.82-2.76,0-3.82l-4.95-2.86a7.3,7.3,0,0,0-6.61,0l-4.92,2.84C332.49,363.76,332.5,365.47,334.34,366.53Zm31.5,4.89-4.95-2.86a7.32,7.32,0,0,0-6.62,0l-4.92,2.84c-1.82,1.05-1.81,2.76,0,3.82l4.95,2.86a7.32,7.32,0,0,0,6.62,0l4.92-2.84C367.68,374.19,367.67,372.48,365.84,371.42ZM175.4,277.2l-11.48-6.63a7.33,7.33,0,0,0-6.61,0l-4.92,2.84c-1.82,1.05-1.81,2.76,0,3.82l11.48,6.63a7.3,7.3,0,0,0,6.61,0l4.92-2.84C177.24,280,177.24,278.26,175.4,277.2Zm14.71,8.49-5-2.85a7.32,7.32,0,0,0-6.62,0l-4.92,2.84c-1.82,1.06-1.81,2.77,0,3.82l4.95,2.86a7.27,7.27,0,0,0,6.61,0l4.92-2.84C192,288.46,191.94,286.75,190.11,285.69Zm14.71,8.5-4.95-2.86a7.29,7.29,0,0,0-6.62,0l-4.92,2.84c-1.82,1-1.81,2.76,0,3.82l5,2.85a7.32,7.32,0,0,0,6.62,0l4.92-2.84C206.66,297,206.65,295.24,204.82,294.19Zm103,59.44-93.2-53.81a7.32,7.32,0,0,0-6.62,0L203,302.65c-1.82,1.05-1.81,2.76,0,3.82l93.21,53.81a7.3,7.3,0,0,0,6.61,0l4.92-2.84C309.62,356.4,309.61,354.69,307.78,353.63Zm14.71,8.49-4.95-2.85a7.32,7.32,0,0,0-6.62,0L306,362.09c-1.82,1.05-1.81,2.77,0,3.82l5,2.86a7.27,7.27,0,0,0,6.61,0l4.92-2.84C324.33,364.89,324.32,363.18,322.49,362.12Zm14.71,8.5-4.95-2.86a7.29,7.29,0,0,0-6.62,0l-4.92,2.84c-1.82,1.05-1.81,2.76,0,3.82l4.95,2.85a7.32,7.32,0,0,0,6.62,0l4.92-2.84C339,373.38,339,371.67,337.2,370.62Zm15,8.66-4.95-2.85a7.3,7.3,0,0,0-6.61,0l-4.92,2.84c-1.82,1.06-1.81,2.77,0,3.82l4.95,2.86a7.27,7.27,0,0,0,6.61,0l4.92-2.84C354.06,382.05,354.05,380.34,352.21,379.28Z" transform="translate(-80 -2.84)"/><path class="cls-9" d="M433.56,339.46,235.41,225.06c-7.58-4.42-11.53-15.6-8.84-25l41-142.26c2.69-9.36,11-13.36,18.59-8.94L484.27,163.3c7.58,4.42,11.54,15.6,8.84,25L452.16,330.52C449.46,339.88,441.13,343.88,433.56,339.46Z" transform="translate(-80 -2.84)"/><path class="cls-11" d="M437.7,332.24,241.64,219.06c-6-3.89-8.29-11.24-6.18-18.58L276.62,57.53a3.52,3.52,0,0,1,4.78-1.77l.43.25L478.05,169.3c7.26,4.23,8.28,11.24,6.17,18.58L443.16,330.5c-.54,1.87-3.38,2.93-5.14,1.92Z" transform="translate(-80 -2.84)"/><path class="cls-12" d="M478.05,169.3,281.83,56l-.43-.25a3.52,3.52,0,0,0-4.78,1.77L235.46,200.47c-2.11,7.35.18,14.7,6.18,18.59L437.7,332.24l.32.18c1.76,1,4.6-.05,5.14-1.92l41.06-142.62C486.33,180.54,485.31,173.53,478.05,169.3ZM441.38,330.43a1.56,1.56,0,0,1-1.54.95,1.26,1.26,0,0,1-.58-.16L242.88,217.86c-5.42-3.51-7.65-10.32-5.64-17.31l41.16-143a1.28,1.28,0,0,1,1.27-.78,1,1,0,0,1,.48.14L476.8,170.5c7.52,4.38,7.22,11.83,5.64,17.31Z" transform="translate(-80 -2.84)"/><path class="cls-6" d="M489.31,161.58,291.16,47.17a11.89,11.89,0,0,0-9-1.48c-.36.09-5.31,1.79-5.66,1.91h0a11.75,11.75,0,0,1,9.59,1.29L484.27,163.3c7.58,4.42,11.54,15.6,8.84,25L452.16,330.52c-1.69,5.84-5.56,9.59-10.08,10.52a3.65,3.65,0,0,0,1.5-.32c.22-.09,5.64-2.06,5.86-2.16,3.49-1.56,6.37-5,7.75-9.77l41-142.26C500.84,177.17,496.89,166,489.31,161.58Z" transform="translate(-80 -2.84)"/><path class="cls-10" d="M489.31,161.58,291.16,47.17a11.89,11.89,0,0,0-9-1.48c-.36.09-5.31,1.79-5.66,1.91h0a11.75,11.75,0,0,1,9.59,1.29L484.27,163.3Z" transform="translate(-80 -2.84)"/><path class="cls-13" d="M485.12,163,287,48.62a11.82,11.82,0,0,0-9.25-1.37A12.19,12.19,0,0,1,284.94,49L483.09,163.41c7.58,4.42,11.53,15.59,8.84,25L451,330.62c-1.59,5.52-5.14,9.16-9.34,10.33,5.06-.42,9.53-4.31,11.37-10.71L494,188C496.65,178.62,492.7,167.45,485.12,163Z" transform="translate(-80 -2.84)"/><polygon class="cls-3" points="72.41 180.78 72.41 217.31 77.92 214.28 77.92 177.46 72.41 180.78"/><polygon class="cls-10" points="72.45 180.78 72.45 217.31 39.93 198.52 39.93 161.71 72.45 180.78"/><polygon class="cls-9" points="39.93 161.71 72.45 180.78 77.92 177.46 45.33 158.49 39.93 161.71"/><polygon class="cls-14" points="39.93 161.71 72.45 180.78 77.92 177.46 72.18 179.02 39.93 161.71"/><polygon class="cls-3" points="72.41 132.72 72.41 169.25 77.92 166.22 77.92 129.4 72.41 132.72"/><polygon class="cls-10" points="72.45 132.72 72.45 169.25 39.93 150.47 39.93 113.65 72.45 132.72"/><path class="cls-9" d="M132.93,223.94a.69.69,0,0,1-.37-.1L130,222.35a.74.74,0,0,1-.26-1,.75.75,0,0,1,1-.27l2.54,1.5a.73.73,0,0,1-.37,1.37Zm-6.37-3.73a.69.69,0,0,1-.37-.1l-2.55-1.5a.74.74,0,1,1,.75-1.27l2.54,1.49a.74.74,0,0,1-.37,1.38Zm-6.37-3.74a.69.69,0,0,1-.37-.1l-1.91-1.11-.67-.42a.74.74,0,1,1,.82-1.23c.19.13.4.25.6.37l1.9,1.12a.74.74,0,0,1,.27,1A.75.75,0,0,1,120.19,216.47ZM114.4,212a.72.72,0,0,1-.58-.28,14.87,14.87,0,0,1-1.66-2.62.74.74,0,0,1,.33-1,.74.74,0,0,1,1,.34,13.77,13.77,0,0,0,1.5,2.35.74.74,0,0,1-.12,1A.74.74,0,0,1,114.4,212Zm-2.89-6.7a.73.73,0,0,1-.73-.63,15,15,0,0,1-.16-2.12v-.93a.74.74,0,0,1,1.48,0v.93a13.53,13.53,0,0,0,.14,1.91.73.73,0,0,1-.63.83Zm-.15-7.38a.74.74,0,0,1-.74-.73v-3a.74.74,0,1,1,1.48,0v3A.74.74,0,0,1,111.36,197.9Zm0-7.38a.74.74,0,0,1-.74-.74v-2.95a.74.74,0,1,1,1.48,0v2.95A.74.74,0,0,1,111.36,190.52Zm0-7.39a.74.74,0,0,1-.74-.73v-3a.74.74,0,1,1,1.48,0v3A.74.74,0,0,1,111.36,183.13Zm0-7.38a.74.74,0,0,1-.74-.74v-2.95a.74.74,0,1,1,1.48,0V175A.74.74,0,0,1,111.36,175.75Zm0-7.38a.74.74,0,0,1-.74-.74v-3a.74.74,0,0,1,1.48,0v3A.74.74,0,0,1,111.36,168.37Zm0-7.39a.74.74,0,0,1-.74-.74v-3a.74.74,0,0,1,1.48,0v3A.74.74,0,0,1,111.36,161Zm0-7.38a.74.74,0,0,1-.74-.74v-3a.74.74,0,0,1,1.48,0v3A.74.74,0,0,1,111.36,153.6Zm0-7.39a.74.74,0,0,1-.74-.74v-2.95a.74.74,0,0,1,1.48,0v2.95A.74.74,0,0,1,111.36,146.21Z" transform="translate(-80 -2.84)"/><polygon class="cls-9" points="39.93 113.65 72.45 132.72 77.92 129.4 45.33 110.43 39.93 113.65"/><polygon class="cls-14" points="39.93 113.65 72.45 132.72 77.92 129.4 72.18 130.96 39.93 113.65"/><path class="cls-7" d="M130.24,140.14l-4.07-2.35,2-1.17a3.83,3.83,0,0,0,1.67-1,2.43,2.43,0,0,0,.54-1.7,5.72,5.72,0,0,0-.4-2,6.59,6.59,0,0,0-1.21-1.94,7.68,7.68,0,0,0-2-1.58,3.51,3.51,0,0,0-1.92-.59,1.57,1.57,0,0,0-1.26.64,2.74,2.74,0,0,0-.47,1.55.64.64,0,0,0,.31.52l1.29.75a.33.33,0,0,0,.26.06c.09,0,.14-.07.17-.19a1.29,1.29,0,0,1,.51-1c.27-.16.65-.11,1.13.17a2.81,2.81,0,0,1,1.09,1.07,2.92,2.92,0,0,1,.36,1.43,1.28,1.28,0,0,1-.27.82,2.44,2.44,0,0,1-.83.6,12.62,12.62,0,0,1-1.57.6l-2.25,1.26a.52.52,0,0,0-.35.57v.86a.66.66,0,0,0,.1.34.64.64,0,0,0,.24.25l6.89,4a.27.27,0,0,0,.25,0c.07,0,.1-.11.1-.23v-1.19a.64.64,0,0,0-.1-.35A.66.66,0,0,0,130.24,140.14Zm7,5.92a.27.27,0,0,0,.09-.23v-2.11l1.3.74c.1.07.19.08.25,0a.24.24,0,0,0,.09-.22V143.1a.67.67,0,0,0-.09-.34.69.69,0,0,0-.25-.26l-1.3-.74v-6.69a.69.69,0,0,0-.09-.34.67.67,0,0,0-.25-.25l-1.58-.91a.76.76,0,0,0-.32-.11.22.22,0,0,0-.21.08l-4.24,4.28a.51.51,0,0,0-.16.41v1.13a.63.63,0,0,0,.1.34.76.76,0,0,0,.24.26l4.56,2.63v2.11a.66.66,0,0,0,.1.34.87.87,0,0,0,.24.26L137,146A.24.24,0,0,0,137.22,146.06Zm-1.82-5.34L132.48,139,135.4,136Zm7.29,2.89a.6.6,0,0,0-.08-.29.61.61,0,0,0-.22-.23l-.93-.54a.37.37,0,0,0-.29-.06.3.3,0,0,0-.17.14l-4.89,10.66a.35.35,0,0,0,0,.16.58.58,0,0,0,.09.3.45.45,0,0,0,.2.21l.93.54c.13.07.23.1.3.07a.26.26,0,0,0,.15-.16l4.91-10.63A.43.43,0,0,0,142.69,143.61Zm6.55,7.71a.68.68,0,0,0-.26-.27l-6.32-3.65a.25.25,0,0,0-.26,0,.27.27,0,0,0-.09.24v1.18a.6.6,0,0,0,.1.33.63.63,0,0,0,.25.26l4.49,2.6L143.7,159a1.05,1.05,0,0,0,0,.13.6.6,0,0,0,.08.31.61.61,0,0,0,.22.23l1.34.77c.11.07.2.09.27.05a.53.53,0,0,0,.19-.18l3.42-7a1.46,1.46,0,0,0,.14-.63v-1A.64.64,0,0,0,149.24,151.32Z" transform="translate(-80 -2.84)"/><polygon class="cls-7" points="46.28 184.89 55.35 190.13 55.35 188.28 46.28 183.04 46.28 184.89"/><path class="cls-7" d="M146.61,189.15l-21-12.1c-1.34-.77-2.42-.15-2.42,1.38v13a5.32,5.32,0,0,0,2.42,4.17l21,12.09c1.33.77,2.41.15,2.41-1.38v-13A5.32,5.32,0,0,0,146.61,189.15Zm0,17-21-12.09a2.51,2.51,0,0,1-1.13-2v-10l23.2,13.4v10C147.73,206.24,147.23,206.53,146.61,206.17Z" transform="translate(-80 -2.84)"/><g class="cls-15"><path class="cls-16" d="M256.65,96.26l16.74,8.56c8,4.63,14.52,17.05,14.52,27.74v55.62c0,10.69-6.5,15.6-14.52,11L234,175.52Z" transform="translate(-80 -2.84)"/><path class="cls-17" d="M256.34,96.73l16.26,8.34c7.92,4.57,14.35,16.84,14.35,27.41v54.94c0,10.57-6.43,15.42-14.35,10.85l-38.39-23Z" transform="translate(-80 -2.84)"/><path class="cls-18" d="M256,97.2l15.78,8.11C279.64,109.83,286,122,286,132.39v54.28c0,10.43-6.35,15.23-14.17,10.71l-37.4-22.44Z" transform="translate(-80 -2.84)"/><path class="cls-19" d="M255.73,97.67l15.3,7.88c7.73,4.46,14,16.44,14,26.75v53.61c0,10.31-6.27,15.05-14,10.59l-36.39-21.86Z" transform="translate(-80 -2.84)"/><path class="cls-20" d="M255.43,98.14l14.81,7.65c7.64,4.41,13.83,16.24,13.83,26.42v52.95c0,10.18-6.19,14.86-13.83,10.45l-35.39-21.26Z" transform="translate(-80 -2.84)"/><path class="cls-21" d="M255.12,98.6,269.46,106c7.54,4.36,13.65,16,13.65,26.09V184.4c0,10.06-6.11,14.68-13.65,10.33l-34.4-20.67Z" transform="translate(-80 -2.84)"/><path class="cls-22" d="M254.82,99.07l13.85,7.21c7.45,4.29,13.48,15.82,13.48,25.75v51.62c0,9.93-6,14.49-13.48,10.19l-33.4-20.08Z" transform="translate(-80 -2.84)"/><path class="cls-23" d="M254.52,99.54l13.37,7c7.34,4.24,13.3,15.62,13.3,25.42v51c0,9.79-6,14.3-13.3,10l-32.41-19.48Z" transform="translate(-80 -2.84)"/><path class="cls-24" d="M254.21,100l12.89,6.75c7.25,4.19,13.13,15.42,13.13,25.09v50.29c0,9.67-5.88,14.11-13.13,9.93l-31.41-18.89Z" transform="translate(-80 -2.84)"/><path class="cls-25" d="M253.91,100.48l12.4,6.52c7.16,4.14,13,15.22,13,24.76v49.63c0,9.54-5.8,13.92-13,9.79L235.9,172.89Z" transform="translate(-80 -2.84)"/><path class="cls-26" d="M253.6,101l11.93,6.3c7.06,4.07,12.78,15,12.78,24.42v49c0,9.42-5.72,13.74-12.78,9.67l-29.42-17.71Z" transform="translate(-80 -2.84)"/><path class="cls-27" d="M253.3,101.42l11.44,6.07c7,4,12.61,14.81,12.61,24.09v48.3c0,9.28-5.64,13.55-12.61,9.53L236.32,172.3Z" transform="translate(-80 -2.84)"/><path class="cls-28" d="M253,101.89l11,5.84c6.86,4,12.43,14.6,12.43,23.76v47.63c0,9.16-5.57,13.37-12.43,9.41L236.53,172Z" transform="translate(-80 -2.84)"/><path class="cls-29" d="M252.69,102.36,263.17,108c6.77,3.91,12.26,14.4,12.26,23.43v47c0,9-5.49,13.18-12.26,9.27l-26.42-15.93Z" transform="translate(-80 -2.84)"/><path class="cls-30" d="M252.38,102.82l10,5.4c6.67,3.85,12.08,14.19,12.08,23.09v46.31c0,8.9-5.41,13-12.08,9.13L237,171.42Z" transform="translate(-80 -2.84)"/><path class="cls-31" d="M252.08,103.29l9.52,5.17c6.58,3.8,11.91,14,11.91,22.76v45.64c0,8.77-5.33,12.81-11.91,9l-24.43-14.74Z" transform="translate(-80 -2.84)"/><path class="cls-32" d="M251.77,103.76l9,4.94c6.49,3.75,11.74,13.79,11.74,22.43v45c0,8.64-5.25,12.62-11.74,8.87l-23.43-14.15Z" transform="translate(-80 -2.84)"/><path class="cls-33" d="M251.47,104.23l8.56,4.71c6.39,3.69,11.57,13.59,11.57,22.11v44.3c0,8.52-5.18,12.44-11.57,8.75l-22.44-13.56Z" transform="translate(-80 -2.84)"/><path class="cls-34" d="M251.16,104.7l8.08,4.49c6.29,3.63,11.4,13.38,11.4,21.77V174.6c0,8.39-5.11,12.24-11.4,8.61l-21.44-13Z" transform="translate(-80 -2.84)"/><path class="cls-35" d="M250.86,105.17l7.6,4.26c6.19,3.58,11.22,13.17,11.22,21.44v43c0,8.27-5,12.06-11.22,8.49L238,170Z" transform="translate(-80 -2.84)"/><path class="cls-36" d="M250.55,105.64l7.12,4c6.1,3.52,11.05,13,11.05,21.11v42.31c0,8.13-5,11.87-11.05,8.35l-19.45-11.78Z" transform="translate(-80 -2.84)"/><path class="cls-37" d="M250.25,106.11l6.63,3.8c6,3.47,10.88,12.77,10.88,20.78v41.64c0,8-4.87,11.69-10.88,8.22l-18.45-11.18Z" transform="translate(-80 -2.84)"/></g><polygon class="cls-3" points="181.04 109.52 181.04 183.84 185.66 181.29 185.66 106.74 181.04 109.52"/><polygon class="cls-6" points="181.08 109.52 181.08 183.84 39.79 101.45 39.79 26.89 181.08 109.52"/><polygon class="cls-10" points="39.79 26.89 181.08 109.52 185.66 106.74 44.31 24.19 39.79 26.89"/><polygon class="cls-7" points="171.48 129.07 155.59 120.11 155.59 123.72 171.48 132.68 171.48 129.07"/><polygon class="cls-7" points="153.02 118.62 119.46 99.46 119.46 103.06 153.02 122.23 153.02 118.62"/><polygon class="cls-38" points="116.88 97.97 79.96 76.51 79.96 80.11 116.88 101.57 116.88 97.97"/><polygon class="cls-7" points="77.38 75.02 48.03 57.91 48.03 61.52 77.38 78.62 77.38 75.02"/><polygon class="cls-39" points="128.16 89.42 48.03 42.71 48.03 49.22 128.16 95.93 128.16 89.42"/><polygon class="cls-39" points="123.14 113.61 136.4 121.46 136.4 117.85 123.14 110 123.14 113.61"/><polygon class="cls-7" points="86.54 92.37 120.56 112.12 120.56 108.51 86.54 88.76 86.54 92.37"/><polygon class="cls-7" points="83.96 87.27 48.03 66.33 48.03 69.94 83.96 90.88 83.96 87.27"/><polygon class="cls-7" points="166.31 143.47 130.71 123.14 130.71 126.74 166.31 147.08 166.31 143.47"/><polygon class="cls-7" points="128.13 121.65 95.89 102.96 95.89 106.56 128.13 125.25 128.13 121.65"/><polygon class="cls-7" points="93.31 101.47 90.12 99.6 90.12 103.21 93.31 105.07 93.31 101.47"/><polygon class="cls-7" points="171.71 146.64 168.52 144.77 168.52 148.38 171.71 150.24 171.71 146.64"/><polygon class="cls-7" points="87.54 98.11 48.03 75.17 48.03 78.78 87.54 101.72 87.54 98.11"/><polygon class="cls-7" points="149.32 142.76 119.46 125.54 119.46 129.15 149.32 146.36 149.32 142.76"/><polygon class="cls-39" points="116.88 124.05 83.8 104.84 83.8 108.45 116.88 127.66 116.88 124.05"/><polygon class="cls-7" points="81.22 103.36 48.03 84 48.03 87.61 81.22 106.96 81.22 103.36"/><polygon class="cls-7" points="123.14 139.7 133.98 145.91 133.98 142.3 123.14 136.09 123.14 139.7"/><polygon class="cls-7" points="86.54 118.46 120.56 138.21 120.56 134.6 86.54 114.85 86.54 118.46"/><polygon class="cls-38" points="83.96 113.36 48.03 92.42 48.03 96.03 83.96 116.97 83.96 113.36"/><polygon class="cls-7" points="171.6 163.84 136.56 143.79 136.56 147.4 171.6 167.45 171.6 163.84"/><polygon class="cls-38" points="171.6 155.54 151.9 144.25 151.9 147.85 171.6 159.15 171.6 155.54"/><polygon class="cls-39" points="171.6 138.02 138.98 119.34 138.98 122.95 171.6 141.63 171.6 138.02"/><g class="cls-40"><polygon class="cls-41" points="287.6 271.12 287.6 277.32 303.65 267.65 305.88 260.36 287.6 271.12"/><polygon class="cls-42" points="287.63 271.12 287.63 277.32 225.02 241.12 225.02 234.96 287.63 271.12"/><polygon class="cls-43" points="225.02 234.96 287.63 271.12 305.88 260.36 243.2 224.16 225.02 234.96"/></g><polygon class="cls-44" points="181.62 284.77 244.23 320.93 285.26 296.47 222.58 260.27 181.62 284.77"/><polygon class="cls-45" points="225.44 240.96 288.06 277.12 284.99 296.76 222.31 260.56 225.44 240.96"/><polygon class="cls-41" points="248.66 294.35 248.66 300.55 287.5 277.18 289.73 269.88 248.66 294.35"/><polygon class="cls-42" points="248.69 294.35 248.69 300.55 186.08 264.35 186.08 258.18 248.69 294.35"/><polygon class="cls-43" points="186.08 258.18 248.69 294.35 289.73 269.88 227.05 233.68 186.08 258.18"/><polygon class="cls-46" points="186.08 258.18 248.69 294.35 289.73 269.88 248.83 293.33 186.08 258.18"/><path class="cls-4" d="M289,140c1.11.22,3.27.41,3.08,4.73a70.32,70.32,0,0,0,.43,14.73c.28,2,1.67,3.51,1.09,4.61s-2.2.37-2.69-.69a23.64,23.64,0,0,1-1-3s0,4.66.72,5.84,2.22,2.5,1.38,3.67-3-1-3.56-2.33a15.29,15.29,0,0,1-.85-3.11,27.37,27.37,0,0,0,.79,5.57c.42,1.56,2.38,3.73,1.62,4.41-1,.86-2.22.09-3.21-1.83a9.44,9.44,0,0,1-.76-1.77s.72,4.15.38,4.75-1.86,1.22-2.52-1c-.6-2-2.55-15.54-2.79-24.07-.11-3.79.32-6.64,1.2-8.62C283.08,140.31,286.16,139.44,289,140Z" transform="translate(-80 -2.84)"/><path class="cls-3" d="M282.61,140.74a4.25,4.25,0,1,0,3.7-4.73A4.26,4.26,0,0,0,282.61,140.74Z" transform="translate(-80 -2.84)"/><path class="cls-4" d="M296.77,105c-.4,4.59-2.72,14.59-3.65,19.51s-1.9,9.59-2,12.8c-.06,2.79-1.59,5-5.66,4s-3.21-4.89-3.26-8.24c-.13-7.8.59-31.91,3.39-38.55C287.19,90.82,297.81,93.16,296.77,105Z" transform="translate(-80 -2.84)"/><path class="cls-47" d="M289.93,107.6c-.43,3.93-2.93,24.05-3.15,26.82-.19,2.41-.79,6.34-2.17,5s-1.52-4.45-1.33-7.36c.43-6.77,1.77-26.93,3.13-32.38C286.77,98.21,291,97.42,289.93,107.6Z" transform="translate(-80 -2.84)"/><path class="cls-3" d="M289.46,98.68a5.24,5.24,0,1,0-2.12-7.11A5.24,5.24,0,0,0,289.46,98.68Z" transform="translate(-80 -2.84)"/><path class="cls-3" d="M295.51,64.7c3.09,2.24,8.88-4.89,11.12-8a6.91,6.91,0,1,0-11.18-8.11C293.21,51.7,292.42,62.47,295.51,64.7Z" transform="translate(-80 -2.84)"/><path class="cls-4" d="M292.26,53.84c2.24-1.63,12.16,4.95,13.12,6.93s-2.93,15.92-5.09,23.35C297.86,92.49,297.41,95,294,95.35c-3.7.45-6.16-1.37-6.64-3C286,87.81,289.52,55.83,292.26,53.84Z" transform="translate(-80 -2.84)"/><path class="cls-47" d="M292.74,57c1.82-1.85,4.12-.35,4.85,1.15S296.44,68.22,295,78.57c-1.07,7.86-1,11.37-2.34,13.23-1.82,2.6-3.57.19-3.92-1.1C287.78,87.09,290.5,59.24,292.74,57Z" transform="translate(-80 -2.84)"/><path class="cls-48" d="M345.53,282.76c-21,8.78-31.37,1.8-47.15-7.31s-17.57-18.1-5.44-23.78c22.89-10.72,35.93.1,51.71,9.21S357.89,277.6,345.53,282.76Z" transform="translate(-80 -2.84)"/><path class="cls-4" d="M318.61,245.66a7.87,7.87,0,0,1,5.2,6.44c.58,3.62.22,8.17-5.42,8.54s-9,1.23-12.3,3.68-13.52,4-16,1.16,1.08-4.7,4.05-6.51,7.74-4.77,11-8.75,5.21-4,6.37-4.41S316.58,244.8,318.61,245.66Z" transform="translate(-80 -2.84)"/><path class="cls-3" d="M323.81,252.1c0-.28-.11-.52-.17-.78.38,3.44-.33,7.35-5.54,7.69-5.64.36-9,1.23-12.29,3.69s-13.53,4-16,1.15a3.74,3.74,0,0,1-.47-.67,2.5,2.5,0,0,0,.76,2.3c2.46,2.82,12.73,1.3,16-1.16s6.66-3.32,12.3-3.68S324.39,255.72,323.81,252.1Z" transform="translate(-80 -2.84)"/><path class="cls-47" d="M314.36,250.35c3.24.75,4.36-.68,4.79,2s.16,4.64-4,4.9-6.71.92-9.13,2.75-13,5.93-14.62,3.65c-1.15-1.63,3.48-4,5.69-5.33a32.34,32.34,0,0,0,8.17-6.5c2.41-3,3.87-3,4.73-3.28S311.48,249.68,314.36,250.35Z" transform="translate(-80 -2.84)"/><path class="cls-3" d="M312.68,192.88c1.47,2.46,2,8.25,3.47,15.19s4.7,16.42,4.19,25.32,1.52,14,.22,15.4a5.12,5.12,0,0,1-6.15.51c-2.17-1.3-3.61-2.24-3-3.55s3.4-6.14,1-16.78-5.79-24.88-7-26.18-2.68-.94-4.19-3.18S310.07,188.54,312.68,192.88Z" transform="translate(-80 -2.84)"/><path class="cls-4" d="M321.85,243.05c-1.66,2-8.49.56-9.83-.89s-4.56-17.92-7.25-27.22c-2.41-8.33-5.37-15.22-4.14-17.12s6.59-9,11.84-6.48,6.59,15.64,7.93,24.35S323.52,241,321.85,243.05Z" transform="translate(-80 -2.84)"/><path class="cls-47" d="M316.37,241.18c-.78,1.81-2.65,1.1-3.45-.13s-3.86-14.2-5.83-22.25c-1.77-7.2-4-13.73-3.5-15.43.32-1,1.41-.51,3.58-.89a2.86,2.86,0,0,1,3.19,2.17c1.79,8.81,2.56,13.28,4.35,22.48C316.17,234.66,317.15,239.36,316.37,241.18Z" transform="translate(-80 -2.84)"/><path class="cls-4" d="M343.42,258.94c2.4,2.72,3.76,6.65,2.46,10.34s-4.34,9.55-7.17,12.22-6.36,6.73-12.51,4.49-.51-11.21,1.3-13.53,4.13-6.22,4.63-9.33,1.88-3.76,3.55-3.9S341.75,257.06,343.42,258.94Z" transform="translate(-80 -2.84)"/><path class="cls-3" d="M345.28,261.78a9.32,9.32,0,0,1,0,6.06c-1.3,3.69-4.34,9.55-7.16,12.23s-6.37,6.72-12.51,4.48a4.12,4.12,0,0,1-2.12-1.6,3.85,3.85,0,0,0,2.69,3c6.15,2.24,9.69-1.81,12.51-4.49s5.86-8.53,7.17-12.22A9.75,9.75,0,0,0,345.28,261.78Z" transform="translate(-80 -2.84)"/><path class="cls-47" d="M339.46,263.38c3.25-.29,3.62.06,4.08,1,.81,1.72-.27,2.22-1,4.09a36.44,36.44,0,0,1-6.24,9.64c-3.07,3.26-5.85,6-9.62,5-4.47-1.25.65-8.45,2.22-10.27s3.6-4.9,4-7.36.56-3.35,2-3.47S336.08,263.67,339.46,263.38Z" transform="translate(-80 -2.84)"/><path class="cls-3" d="M339.49,209.63c1.51,3.9,2.77,9.18,3.13,17.65s-.14,21-.22,24.73a41.66,41.66,0,0,0,.65,6.87c.08,1.38-1.66,4.63-5,3.62s-5.2-3-4.55-4.92a49.48,49.48,0,0,0,1.66-20.68c-1.3-10.71-3.25-18.67-4-19.75s-2.46-2.39-3-3.83S336.38,201.6,339.49,209.63Z" transform="translate(-80 -2.84)"/><path class="cls-4" d="M344.09,252.82a3.36,3.36,0,0,1-2.83,3.15c-2.82.44-6.52-.21-7.56-1.5-1.46-1.78-3.52-18.53-4.81-26.13-1.12-6.62-4.13-13.51-1.11-15.52s7-7.43,12-5.44c2.95,1.19,4.74,15.92,4.8,30.34C344.55,243.8,344.26,249.77,344.09,252.82Z" transform="translate(-80 -2.84)"/><path class="cls-47" d="M338.59,253.06a2.39,2.39,0,0,1-4,0c-.78-1.42-2.91-17-4-24.57-.75-5.16-2.71-12.58-.64-11.75a18.36,18.36,0,0,0,5.11,1.28c1.76.28.94,8.94,1.79,18.14C337.44,243.16,338.59,253.06,338.59,253.06Z" transform="translate(-80 -2.84)"/><path class="cls-3" d="M299.4,194.22a6.55,6.55,0,1,0,6.55-6.55A6.55,6.55,0,0,0,299.4,194.22Z" transform="translate(-80 -2.84)"/><path class="cls-4" d="M312.05,189.13c0,3.28-3.09,7.72-7.72,7.72s-6.74-2-7.33-7.72c-.31-3.07,3.48-64.61,5.79-71s8.87-13.31,17.55-9.45,8.87,14.27,5,23.34-8.49,25.27-9.65,32.6S312.05,185.08,312.05,189.13Z" transform="translate(-80 -2.84)"/><path class="cls-3" d="M320.54,139.18A19.55,19.55,0,0,1,307,123.55c-.84-5-3.08-32.79-3.08-32.79s32.59,1.55,34.52,3.67-.91,13.64,3.57,25.51C345.85,130,329.29,142.08,320.54,139.18Z" transform="translate(-80 -2.84)"/><path class="cls-47" d="M310.77,134.7a19.71,19.71,0,0,1-5.52-10.76c-.11-.61-.23-1.56-.37-2.76a44.5,44.5,0,0,0-1.8,6.31c-1.2,5.56-4,57-3.92,59.72s.44,6.71,2.84,6.71,2.36-8.51,2.36-11.37c0-3.54,1.3-15,1.9-21.4A255.32,255.32,0,0,1,310.77,134.7Z" transform="translate(-80 -2.84)"/><path class="cls-4" d="M310.7,40.9c-3.28-.1-10.71.39-12.83,5.31S300,59,300,59s-3.66,8.59-2.21,14.66,1.44,7,1.35,7.53-3.19,10.12-.58,10.7c1.23.28,3.53-.11,5.59.87s3.07,3.6,6.66,6c4.16,2.78,20.12,9.93,24.39,9.72,9.94-.48,12.73-12.92,15.24-20.45,2.11-6.32,4-15.14,4-15.14s6.26-1,6.07-5.3S355,59.7,350,55.46,340,47.33,336.93,45.82C325.37,40.05,316.68,41.1,310.7,40.9Z" transform="translate(-80 -2.84)"/><path class="cls-47" d="M311.78,42.24c-3-.09-9.69.35-11.62,4.81-.85,2-.57,4.49,0,6.68a17.63,17.63,0,0,1-.59,10.43,21.46,21.46,0,0,0-1.34,6.37c-.17,5.36,1.42,7.52,1.34,8s10.67,6.05,14.4,7.21c9.72,3,18.52-.54,21.17-7.21,5-12.63,13.41-11.69,14.94-15.52,1.46-3.66.62-5.28-4-9C330.76,41.73,317.2,42.42,311.78,42.24Z" transform="translate(-80 -2.84)"/><circle class="cls-3" cx="251.77" cy="205.63" r="6.55"/><path class="cls-4" d="M337.7,208.73c-2.27,1.55-7.54,1.79-12.13.39-2.51-.77-4.15-3.36-3.84-6.77a282.28,282.28,0,0,0,1.51-32.7c-.39-15.24-3.57-27.32.07-36.46,3.79-9.52,12.1-16,19.79-13.69s9.53,10.78,8.74,20.22c-.91,11-12.79,42.66-13,52.11S340.11,207.1,337.7,208.73Z" transform="translate(-80 -2.84)"/><path class="cls-47" d="M331.06,205.92c-1.41,2.43-3.7,2.71-5.62,1.15s-1.92-3.83-1.66-5.74c.13-1,1.55-17.38,1.3-32s-2.16-23.88.16-32.65c2.41-9.14,7.72-15.41,12.59-13.14,3.83,1.79-2.57,15.34-3.07,24.4-.58,10.54-2.47,33.73-2.59,42.8S332.16,204,331.06,205.92Z" transform="translate(-80 -2.84)"/><path class="cls-3" d="M329,6c4.32,2.28,7.91,7.81,4.92,15.34s-3.27,12-2.87,16.7c.24,2.8,1.91,6.32,3,8.32a2,2,0,0,1-.73,2.67c-3.91,2.47-12.47,3.74-17.62.63a3.08,3.08,0,0,1-1.36-3.36,37.77,37.77,0,0,0,1-7.58C315.77,24.41,316.72-.51,329,6Z" transform="translate(-80 -2.84)"/><path class="cls-4" d="M330.37,28.75a11.08,11.08,0,0,1-5.21,9.07c-3.85,2.6-10.7,7.62-15.14,5.2s-5.88-15.4-6-20.06c-.11-5.2,1.46-14.6,7.35-18A14,14,0,0,1,323,3.48c3.17.88,5.89,3.28,7.53,4.92s-.1,6.56-.87,10S330.37,27,330.37,28.75Z" transform="translate(-80 -2.84)"/><path class="cls-47" d="M310.14,38.25c-2.65-2.06-3.67-12-3.74-15.61-.07-4,1-11,4.36-14,4-3.73,7.13-2.92,7.91-2.65,2,.68,1.21,2.85.69,4.4a61.25,61.25,0,0,0-2.42,10.16C316.42,25.1,315.11,42.11,310.14,38.25Z" transform="translate(-80 -2.84)"/><path class="cls-49" d="M335.19,108.51c-4.27.21-20.23-6.94-24.39-9.72-3.59-2.4-4.63-5-6.66-6s-4.36-.59-5.59-.87c-2.61-.58.48-10.13.58-10.7a1.37,1.37,0,0,1,0-.19v0a1.77,1.77,0,0,0,0-.24h0a7.36,7.36,0,0,0-.06-.79l2.81,1.53a64.11,64.11,0,0,0,17.27,7.12c7.88,1.83,13.33.42,18.09-8.72,3.37-6.46,12.74-5.63,17.06-6.73h0c-.31,1.44-2,9.17-3.9,14.88C347.92,95.59,345.13,108,335.19,108.51Z" transform="translate(-80 -2.84)"/><path class="cls-50" d="M310.13,90c-3.93-2.06-9.86-4.45-11.71-6.12.35-1.39.68-2.45.71-2.63a4,4,0,0,0,0-1.24l2.81,1.53a64.11,64.11,0,0,0,17.27,7.12c7.88,1.83,14.08.54,18.84-8.59,3.37-6.47,12-5.76,16.31-6.86-.31,1.44-2,9.17-3.9,14.88-1.77,5.32-3.7,13.07-8.17,17.34a15.68,15.68,0,0,1-.65-5.33c.46-9.74-2.5-14.29-2.5-14.29S333.58,102.2,310.13,90Z" transform="translate(-80 -2.84)"/><path class="cls-4" d="M362.57,164.57c1.87.44,2.55.48,2.66,2.57a72.34,72.34,0,0,1,0,11.72c-.19,2.88-2.62,11.95-3.64,13.32s-1.79.92-2.1.6-.12-1.45,0-2.22a33.8,33.8,0,0,0,.37-4.13s-1.2,4.62-1.63,6.33-1.36,3.53-2.47,3.6-1.48-.56-1.29-1.39a31.46,31.46,0,0,0,.72-3.75,28,28,0,0,0,.1-3.05,39.29,39.29,0,0,1-1.49,6.27c-.4,1.14-1.63,5.23-3.56,4.16-1.18-.66.12-3.42.64-5.88.74-3.56,1.42-9.18,1-11.66s-1-3.24-3.61-1.37-4.95,3.7-5.46,2.48,1.48-4.07,3.08-5.59,3.84-3.41,5.55-4.8c3.54-2.87,4.16-6.41,5.75-7.21C359.5,163.44,361.94,164.41,362.57,164.57Z" transform="translate(-80 -2.84)"/><path class="cls-47" d="M353.1,194.19l-.09.27c-1.05,3.09-1.77,3.55-2.11,3.55a.56.56,0,0,1-.25-.08c-.34-.19.2-2.08.47-3,.19-.68.39-1.39.54-2.07.69-3.31,1.47-9.2,1-11.94-.18-1.15-.49-3.06-2.15-3.06a5,5,0,0,0-2.66,1.18l-.78.56c-1.35,1-3,2.17-3.64,2.17-.15-.53,1.21-2.94,3-4.65s4.21-3.72,5.51-4.77A17.31,17.31,0,0,0,356,167.3c.56-1,.47.08,2.77,1.8a8.18,8.18,0,0,0,2.78.87,67.56,67.56,0,0,1-3,7.18C355.37,184.1,354.07,191.42,353.1,194.19Z" transform="translate(-80 -2.84)"/><path class="cls-3" d="M357.17,164.88a4,4,0,1,0,4.36-3.69A4,4,0,0,0,357.17,164.88Z" transform="translate(-80 -2.84)"/><path class="cls-4" d="M365.93,110.65s2.65-.06,4.09,4.47-2,40.19-2.62,43.78-1.21,8-5.6,7.81c-4.15-.18-5.4-2.82-5.28-5.35.17-3.38.41-20.57-.35-30.92-.71-9.58-.82-12.57.58-15.71S362.37,109.27,365.93,110.65Z" transform="translate(-80 -2.84)"/><path class="cls-47" d="M362.1,119.64c2.85.34,3,.61,3.06,3.89.15,7.47-1.21,30.05-1.66,33.07s-.67,8-3.4,7.71c-1.83-.22-1.77-3.84-1.83-6-.13-4.34.13-16.33-.23-25-.33-8-.9-11.82.1-13.49C358.71,118.87,360,119.38,362.1,119.64Z" transform="translate(-80 -2.84)"/><path class="cls-3" d="M358.87,71.12a16.7,16.7,0,0,1-7.3,2.27c-2.26.09-5.28.94-5.51,3.06s3.3,3,4.29,12.58,4.71,5.45,7.38-1.22C360.54,80.8,360.14,73.05,358.87,71.12Z" transform="translate(-80 -2.84)"/><path class="cls-3" d="M357.77,113.75a5.25,5.25,0,1,0,4-6.28A5.24,5.24,0,0,0,357.77,113.75Z" transform="translate(-80 -2.84)"/><path class="cls-4" d="M368.17,106.35c.08,4.09-.94,5.88-5.63,7-3.35.78-5.82.07-6.69-2.68-1.7-5.36-3.65-13.52-5.32-18.23-1.85-5.22-4.7-8.79-2.46-11.64,2.43-3.09,10.28-8.55,13.82-6.82S368.1,103,368.17,106.35Z" transform="translate(-80 -2.84)"/><path class="cls-47" d="M362.45,105.52c.4,2.62.67,5.49-1.11,6.07a3.19,3.19,0,0,1-4.15-2.49c-.6-2.43-3.35-12.21-4.75-16.27-1.55-4.49-3.43-8.71-2.48-11,1.05-2.51,3.91-5.08,6.26-3.7S362.14,103.53,362.45,105.52Z" transform="translate(-80 -2.84)"/><path class="cls-50" d="M322.37,32.07c.85-7-2.63-19.72,2.68-23.12,2-1.27,3.14-1.1,5.63-.4,1.42,1.77-.23,6.51-1,9.88s.67,8.59.67,10.32a11.08,11.08,0,0,1-5.21,9.07c-2.79,1.88-7.14,5-11,5.69C316.11,42.54,321.65,38,322.37,32.07Z" transform="translate(-80 -2.84)"/><path class="cls-47" d="M287.77,163.32a62.08,62.08,0,0,1,1.85-8.2c.41-1.05,1.46-1.34,2.37-1.66-.14-3.24,0-5.94.13-8.72h0c.19-4.32-1.28.5-4.78.5-4.22,0-4-2.38-4.5-1.19s1.58,5.65,1.87,14c.07,1.83-.12,5.23.37,6.25S287.5,164.84,287.77,163.32Z" transform="translate(-80 -2.84)"/><path class="cls-3" d="M325.13,26.25a9.06,9.06,0,0,1,4.1-7.08,2.94,2.94,0,0,1,2.83-.34h0l2.67,1.44-.29.51a4.07,4.07,0,0,1,.21,1.37,9,9,0,0,1-4.11,7.09,3.94,3.94,0,0,1-1.33.51l-.3.52L326.45,29A2.78,2.78,0,0,1,325.13,26.25Z" transform="translate(-80 -2.84)"/><path class="cls-10" d="M327.74,27.64c0,2.61,1.83,3.65,4.1,2.35A9.06,9.06,0,0,0,336,22.9c0-2.6-1.84-3.65-4.11-2.34A9,9,0,0,0,327.74,27.64Z" transform="translate(-80 -2.84)"/><path class="cls-6" d="M320.45,110.77a9.54,9.54,0,0,0-4.34-7.48,3.1,3.1,0,0,0-3-.36h0l-2.83,1.52.32.54a4.24,4.24,0,0,0-.23,1.45,9.54,9.54,0,0,0,4.34,7.48,4.32,4.32,0,0,0,1.41.55l.31.54,2.61-1.38A3,3,0,0,0,320.45,110.77Z" transform="translate(-80 -2.84)"/><path class="cls-7" d="M317.79,112.19c0,2.75-1.94,3.85-4.34,2.47a9.56,9.56,0,0,1-4.33-7.48c0-2.75,1.94-3.86,4.33-2.47A9.54,9.54,0,0,1,317.79,112.19Z" transform="translate(-80 -2.84)"/><path class="cls-10" d="M317.7,112.24c0,2.75-1.95,3.86-4.34,2.47a9.54,9.54,0,0,1-4.34-7.48c0-2.75,1.94-3.86,4.34-2.47A9.57,9.57,0,0,1,317.7,112.24Z" transform="translate(-80 -2.84)"/><path class="cls-43" d="M316.34,111.46c0,1.89-1.34,2.65-3,1.7a6.58,6.58,0,0,1-3-5.15c0-1.89,1.34-2.65,3-1.7A6.6,6.6,0,0,1,316.34,111.46Z" transform="translate(-80 -2.84)"/><path class="cls-41" d="M313.93,112.58a6.55,6.55,0,0,1-3-5.14,2.6,2.6,0,0,1,.34-1.36,2.05,2.05,0,0,0-.92,1.93,6.58,6.58,0,0,0,3,5.15c1.16.67,2.15.47,2.64-.35A2.1,2.1,0,0,1,313.93,112.58Z" transform="translate(-80 -2.84)"/><path class="cls-6" d="M317.77,119.86a4.49,4.49,0,0,0-2-3.5,1.45,1.45,0,0,0-1.39-.17h0l-1.32.71.15.25a2,2,0,0,0-.11.68,4.49,4.49,0,0,0,2,3.51,2.37,2.37,0,0,0,.66.25l.15.26,1.22-.65A1.38,1.38,0,0,0,317.77,119.86Z" transform="translate(-80 -2.84)"/><path class="cls-7" d="M316.53,120.53c0,1.29-.91,1.81-2,1.16a4.47,4.47,0,0,1-2-3.51c0-1.29.91-1.8,2-1.16A4.49,4.49,0,0,1,316.53,120.53Z" transform="translate(-80 -2.84)"/><path class="cls-10" d="M316.48,120.55c0,1.29-.91,1.81-2,1.16a4.49,4.49,0,0,1-2-3.5c0-1.29.91-1.81,2-1.16A4.49,4.49,0,0,1,316.48,120.55Z" transform="translate(-80 -2.84)"/><g class="cls-15"><path class="cls-16" d="M467,253.1l-29-16.84c-4.59-3.27-8.31-12-8.31-19.61v-39.3c0-7.55,3.72-11,8.31-7.75l42,27.49Z" transform="translate(-80 -2.84)"/><path class="cls-17" d="M467,252.62,438.41,236c-4.52-3.22-8.17-11.85-8.17-19.28V178c0-7.43,3.65-10.85,8.17-7.63l41.26,27Z" transform="translate(-80 -2.84)"/><path class="cls-18" d="M467.14,252.14l-28.26-16.48c-4.43-3.16-8-11.65-8-18.95v-38c0-7.3,3.6-10.66,8-7.49l40.54,26.54Z" transform="translate(-80 -2.84)"/><path class="cls-19" d="M467.23,251.66l-27.87-16.3c-4.36-3.11-7.9-11.45-7.9-18.62V179.41c0-7.18,3.54-10.48,7.9-7.37l39.81,26.07Z" transform="translate(-80 -2.84)"/><path class="cls-20" d="M467.32,251.17l-27.49-16.11c-4.28-3.05-7.75-11.24-7.75-18.29V180.09c0-7.05,3.47-10.29,7.75-7.24l39.1,25.6Z" transform="translate(-80 -2.84)"/><path class="cls-21" d="M467.41,250.69,440.3,234.76c-4.2-3-7.61-11-7.61-18v-36c0-6.93,3.41-10.11,7.61-7.11l38.38,25.12Z" transform="translate(-80 -2.84)"/><path class="cls-22" d="M467.5,250.21l-26.72-15.75c-4.13-2.94-7.48-10.84-7.48-17.64V181.46c0-6.8,3.35-9.92,7.48-7l37.65,24.65Z" transform="translate(-80 -2.84)"/><path class="cls-23" d="M467.59,249.73l-26.34-15.57c-4.05-2.89-7.34-10.64-7.34-17.31v-34.7c0-6.67,3.29-9.74,7.34-6.85l36.94,24.17Z" transform="translate(-80 -2.84)"/><path class="cls-24" d="M467.68,249.25l-25.95-15.39c-4-2.83-7.2-10.43-7.2-17v-34c0-6.54,3.22-9.55,7.2-6.72l36.21,23.7Z" transform="translate(-80 -2.84)"/><path class="cls-25" d="M467.77,248.77,442.2,233.56c-3.9-2.78-7.06-10.23-7.06-16.65V183.52c0-6.42,3.16-9.37,7.06-6.59l35.49,23.22Z" transform="translate(-80 -2.84)"/><path class="cls-26" d="M467.87,248.29l-25.19-15c-3.83-2.73-6.93-10-6.93-16.33V184.2c0-6.29,3.1-9.18,6.93-6.46l34.77,22.75Z" transform="translate(-80 -2.84)"/><path class="cls-27" d="M468,247.8,443.15,233c-3.75-2.67-6.78-9.84-6.78-16V184.89c0-6.17,3-9,6.78-6.33l34.05,22.27Z" transform="translate(-80 -2.84)"/><path class="cls-28" d="M468.05,247.32l-24.43-14.65C440,230.05,437,223,437,217V185.57c0-6,3-8.82,6.64-6.2L477,201.17Z" transform="translate(-80 -2.84)"/><path class="cls-29" d="M468.14,246.84l-24-14.47c-3.59-2.56-6.51-9.43-6.51-15.35V186.26c0-5.92,2.92-8.64,6.51-6.08l32.61,21.33Z" transform="translate(-80 -2.84)"/><path class="cls-30" d="M468.23,246.36l-23.66-14.29c-3.51-2.51-6.36-9.23-6.36-15V186.94c0-5.79,2.85-8.45,6.36-5.94l31.89,20.85Z" transform="translate(-80 -2.84)"/><path class="cls-31" d="M468.32,245.88l-23.27-14.11c-3.44-2.45-6.23-9-6.23-14.69V187.63c0-5.67,2.79-8.27,6.23-5.82l31.16,20.38Z" transform="translate(-80 -2.84)"/><path class="cls-32" d="M468.41,245.4l-22.89-13.93c-3.36-2.4-6.09-8.83-6.09-14.36v-28.8c0-5.53,2.73-8.08,6.09-5.68L476,202.53Z" transform="translate(-80 -2.84)"/><path class="cls-33" d="M468.5,244.91,446,231.17c-3.28-2.34-5.95-8.63-5.95-14V189c0-5.41,2.67-7.9,5.95-5.56l29.73,19.43Z" transform="translate(-80 -2.84)"/><path class="cls-34" d="M468.6,244.43l-22.13-13.56c-3.21-2.29-5.81-8.42-5.81-13.71V189.68c0-5.28,2.6-7.71,5.81-5.42l29,19Z" transform="translate(-80 -2.84)"/><path class="cls-35" d="M468.69,244l-21.75-13.38c-3.13-2.23-5.67-8.22-5.67-13.38V190.37c0-5.16,2.54-7.53,5.67-5.3l28.28,18.48Z" transform="translate(-80 -2.84)"/><path class="cls-36" d="M468.78,243.47l-21.36-13.2c-3.06-2.18-5.54-8-5.54-13.05V191.05c0-5,2.48-7.34,5.54-5.16l27.56,18Z" transform="translate(-80 -2.84)"/><path class="cls-37" d="M468.87,243l-21-13c-3-2.12-5.39-7.82-5.39-12.72V191.74c0-4.91,2.41-7.16,5.39-5l26.84,17.54Z" transform="translate(-80 -2.84)"/></g><g class="cls-15"><path class="cls-16" d="M451.45,304.37l-64.54-40.49c-5.33-3.8-9.65-14-9.65-22.78V195.45c0-8.77,9.06-13.14,14.39-9.34l75.3,56Z" transform="translate(-80 -2.84)"/><path class="cls-17" d="M451.45,304l-64-40.31c-5.27-3.76-9.54-13.83-9.54-22.5V196.07c0-8.67,8.79-13,14.06-9.22l74.64,55.42Z" transform="translate(-80 -2.84)"/><path class="cls-18" d="M451.44,303.6,388,263.48c-5.2-3.71-9.42-13.66-9.42-22.23V196.69c0-8.56,8.51-12.81,13.72-9.1l74,54.78Z" transform="translate(-80 -2.84)"/><path class="cls-19" d="M451.44,303.21l-63-39.93c-5.14-3.66-9.31-13.49-9.31-22v-44c0-8.46,8.23-12.64,13.37-9l73.31,54.13Z" transform="translate(-80 -2.84)"/><path class="cls-20" d="M451.44,302.83,389,263.08c-5.08-3.62-9.19-13.33-9.19-21.68V197.93c0-8.36,7.95-12.47,13-8.85l72.64,53.5Z" transform="translate(-80 -2.84)"/><path class="cls-21" d="M451.44,302.44l-61.92-39.56c-5-3.57-9.07-13.16-9.07-21.41V198.55c0-8.25,7.67-12.3,12.69-8.73l72,52.86Z" transform="translate(-80 -2.84)"/><path class="cls-22" d="M451.43,302.06,390,262.68c-4.94-3.52-9-13-9-21.14V199.17c0-8.15,7.4-12.13,12.35-8.6l71.32,52.22Z" transform="translate(-80 -2.84)"/><path class="cls-23" d="M451.43,301.67l-60.86-39.19c-4.89-3.48-8.85-12.82-8.85-20.86V199.79c0-8,7.12-12,12-8.48l70.65,51.58Z" transform="translate(-80 -2.84)"/><path class="cls-24" d="M451.43,301.29l-60.34-39c-4.82-3.43-8.73-12.65-8.73-20.59V200.41c0-7.94,6.85-11.79,11.67-8.36L464,243Z" transform="translate(-80 -2.84)"/><path class="cls-25" d="M451.42,300.9l-59.81-38.81c-4.76-3.4-8.61-12.49-8.61-20.33V201c0-7.83,6.57-11.63,11.32-8.23l69.33,50.3Z" transform="translate(-80 -2.84)"/><path class="cls-26" d="M451.42,300.52l-59.29-38.63c-4.69-3.35-8.49-12.33-8.49-20V201.65c0-7.73,6.29-11.46,11-8.11l68.66,49.66Z" transform="translate(-80 -2.84)"/><path class="cls-27" d="M451.42,300.13l-58.76-38.44c-4.63-3.3-8.39-12.16-8.39-19.78V202.27c0-7.63,6-11.29,10.65-8l68,49Z" transform="translate(-80 -2.84)"/><path class="cls-28" d="M451.42,299.74l-58.24-38.25c-4.57-3.26-8.27-12-8.27-19.51V202.89c0-7.52,5.74-11.12,10.3-7.87l67.34,48.39Z" transform="translate(-80 -2.84)"/><path class="cls-29" d="M451.41,299.36,393.7,261.29c-4.5-3.21-8.15-11.82-8.15-19.23V203.5c0-7.41,5.46-10.94,10-7.73l66.67,47.74Z" transform="translate(-80 -2.84)"/><path class="cls-30" d="M451.41,299l-57.19-37.88c-4.43-3.16-8-11.65-8-19v-38c0-7.3,5.18-10.77,9.62-7.61l66,47.11Z" transform="translate(-80 -2.84)"/><path class="cls-31" d="M451.41,298.59l-56.66-37.7c-4.38-3.12-7.92-11.48-7.92-18.69V204.74c0-7.2,4.9-10.61,9.27-7.49l65.35,46.47Z" transform="translate(-80 -2.84)"/><path class="cls-32" d="M451.4,298.2l-56.13-37.51c-4.31-3.07-7.81-11.31-7.81-18.41V205.36c0-7.09,4.63-10.44,8.94-7.36l64.68,45.83Z" transform="translate(-80 -2.84)"/><path class="cls-33" d="M451.4,297.82l-55.61-37.33c-4.25-3-7.69-11.15-7.69-18.14V206c0-7,4.35-10.27,8.6-7.24l64,45.19Z" transform="translate(-80 -2.84)"/><path class="cls-34" d="M451.4,297.43l-55.09-37.14c-4.18-3-7.57-11-7.57-17.87V206.6c0-6.89,4.07-10.1,8.25-7.12L460.35,244Z" transform="translate(-80 -2.84)"/><path class="cls-35" d="M451.39,297.05,396.84,260.1c-4.12-2.94-7.46-10.82-7.46-17.6V207.22c0-6.78,3.79-9.93,7.91-7L460,244.14Z" transform="translate(-80 -2.84)"/><path class="cls-36" d="M451.39,296.66l-54-36.76C393.3,257,390,249.25,390,242.57V207.84c0-6.68,3.51-9.76,7.57-6.87l62,43.27Z" transform="translate(-80 -2.84)"/><path class="cls-37" d="M451.39,296.28,397.88,259.7c-4-2.85-7.23-10.48-7.23-17.06V208.46c0-6.57,3.24-9.59,7.23-6.75l61.36,42.64Z" transform="translate(-80 -2.84)"/></g><polygon class="cls-3" points="384.69 252.34 384.69 310.07 390.43 306.17 390.43 248.07 384.69 252.34"/><polygon class="cls-6" points="384.73 252.34 384.73 310.07 305.47 252.76 305.47 194.66 384.73 252.34"/><polygon class="cls-10" points="305.47 194.66 384.73 252.34 390.43 248.07 311.1 190.52 305.47 194.66"/><polygon class="cls-46" points="305.47 194.66 384.73 252.34 390.43 248.07 384.44 250.08 305.47 194.66"/><polygon class="cls-41" points="444.76 243.06 444.76 313.45 450.56 309.32 450.56 238.33 444.76 243.06"/><polygon class="cls-43" points="359.68 181.39 444.83 243.06 450.56 238.33 365.3 176.88 359.68 181.39"/><polygon class="cls-14" points="359.68 181.39 444.83 243.06 450.56 238.33 445.08 241.42 359.68 181.39"/><polygon class="cls-42" points="359.68 181.39 359.68 228.5 388.72 249.53 388.72 273.09 444.83 313.45 444.83 243.06 359.68 181.39"/><polygon class="cls-7" points="395.92 241.16 395.92 245.64 437.88 275.21 437.88 270.73 395.92 241.16"/><polygon class="cls-7" points="420.13 276.73 395.92 259.79 395.92 264.27 420.13 281.22 420.13 276.73"/><polygon class="cls-7" points="395.92 254.96 437.88 284.53 437.88 280.04 395.92 250.47 395.92 254.96"/><polygon class="cls-7" points="341.52 233.02 341.52 237.5 378.11 263.57 378.11 259.08 341.52 233.02"/><polygon class="cls-7" points="341.52 246.82 378.11 272.88 378.11 268.4 341.52 242.33 341.52 246.82"/><polygon class="cls-7" points="360.37 274.32 341.52 260.88 341.52 265.36 360.37 278.8 360.37 274.32"/><polygon class="cls-7" points="341.52 256.05 378.11 282.11 378.11 277.63 341.52 251.56 341.52 256.05"/><polygon class="cls-7" points="395.92 222.71 395.92 227.19 437.88 256.77 437.88 252.28 395.92 222.71"/><polygon class="cls-7" points="395.92 236.51 437.88 266.08 437.88 261.6 395.92 232.03 395.92 236.51"/><path class="cls-7" d="M466.08,233a23,23,0,0,1-3.92-5.78c-.64-1.34-.62-2.79,0-3.24a6,6,0,0,0,2-2.76c.68.24,1.53-.07,1.53-1.23a5.19,5.19,0,0,0-1-3.13c-.17-5.07-1.57-10.28-6.29-13.64s-6.13-.16-6.29,4.67c-.57-.16-1,.53-1,1.71a6.08,6.08,0,0,0,1.53,3.43,31.58,31.58,0,0,0,2,5.6c.63,1.35.65,2.83,0,3.25a4.27,4.27,0,0,1-3.91.2c-2-.74-3.45.74-3.45,3.76v2.87a3.76,3.76,0,0,0,1.29,2.76l19.64,14c.71.51,1.29.1,1.29-.91v-2.88A13.73,13.73,0,0,0,466.08,233Z" transform="translate(-80 -2.84)"/><path class="cls-7" d="M407,232.36a8.73,8.73,0,0,0-2.73-4.62v-4.32c.88.32,1.54-.33,1.54-1.67a5.86,5.86,0,0,0-2-4.29c-1.11-.79-2-.15-2,1.42a6.15,6.15,0,0,0,1.54,3.87v4.32c-1.35-.75-2.44-.46-2.73.73-4.71-1.4-8.16,2.31-8.16,9.62,0,8.88,5.09,13.18,11.36,17.65s11.35,7.42,11.35-1.46A34.74,34.74,0,0,0,407,232.36Zm1.9,18.6-10.2-7.27a6.88,6.88,0,0,1-2.38-5.07c0-1.86,1.06-2.61,2.38-1.68l10.2,7.28a6.9,6.9,0,0,1,2.38,5.07C411.31,251.15,410.24,251.9,408.93,251Zm-9.48-11.69c-.66-.47-1.2-.09-1.2.85a3.51,3.51,0,0,0,1.2,2.56c.67.47,1.2.09,1.2-.85A3.47,3.47,0,0,0,399.45,239.27Zm8.76,6.24c-.67-.47-1.2-.09-1.2.85a3.47,3.47,0,0,0,1.2,2.56c.66.47,1.2.09,1.2-.85A3.51,3.51,0,0,0,408.21,245.51Z" transform="translate(-80 -2.84)"/><path class="cls-51" d="M408.52,117a23.46,23.46,0,0,0-.95,6.87c0,14.2,10,31.51,22.41,38.65s22.41,1.43,22.41-12.77a36.42,36.42,0,0,0-1.14-8.7Z" transform="translate(-80 -2.84)"/><ellipse class="cls-52" cx="432.44" cy="184.54" rx="18.24" ry="31.59" transform="translate(-114.02 240.63) rotate(-30.31)"/><path class="cls-3" d="M441.56,147.54c0-11.27-7.95-25-17.77-30.66-4.73-2.73-9-3.09-12.22-1.47h0l-4.46,2.44,1.28,2.2a17.85,17.85,0,0,0-.92,6c0,11.26,8,25,17.77,30.65a18.28,18.28,0,0,0,5.76,2.23l1.31,2.24,3.55-1.9C439.36,157.52,441.56,153.46,441.56,147.54Z" transform="translate(-80 -2.84)"/><ellipse class="cls-7" cx="420" cy="139.32" rx="14.47" ry="25.06" transform="translate(-92.9 228.17) rotate(-30.31)"/><path class="cls-9" d="M399.54,150.26a.76.76,0,0,1-.65-.38c-.48-.88-.93-1.77-1.36-2.67a.74.74,0,0,1,1.34-.64c.41.88.85,1.74,1.32,2.6a.73.73,0,0,1-.29,1A.8.8,0,0,1,399.54,150.26Zm-3.06-6.71a.74.74,0,0,1-.69-.49c-.35-.94-.67-1.89-1-2.85a.73.73,0,0,1,.5-.91.74.74,0,0,1,.92.49c.27.93.58,1.85.91,2.76a.73.73,0,0,1-.43.95A.8.8,0,0,1,396.48,143.55Zm-2-7.11a.73.73,0,0,1-.72-.6c-.19-1-.34-2-.44-3A.74.74,0,0,1,394,132a.75.75,0,0,1,.82.66c.1.93.24,1.9.42,2.86a.75.75,0,0,1-.59.87Z" transform="translate(-80 -2.84)"/><ellipse class="cls-10" cx="419.61" cy="139.54" rx="14.46" ry="25.06" transform="translate(-93.06 228) rotate(-30.31)"/><path class="cls-3" d="M441.56,97.36c0-11.26-7.95-25-17.77-30.65-4.73-2.73-9-3.09-12.22-1.47v0l-4.46,2.45,1.28,2.2a17.79,17.79,0,0,0-.92,5.95c0,11.27,8,25,17.77,30.66a18.52,18.52,0,0,0,5.76,2.23L432.3,111l3.55-1.91C439.36,107.35,441.56,103.29,441.56,97.36Z" transform="translate(-80 -2.84)"/><ellipse class="cls-7" cx="420" cy="89.15" rx="14.46" ry="25.06" transform="translate(-67.58 221.32) rotate(-30.31)"/><path class="cls-9" d="M401.12,102.78a.75.75,0,0,1-.63-.35c-.53-.84-1-1.7-1.51-2.58a.74.74,0,0,1,1.29-.71c.47.85,1,1.69,1.48,2.51a.75.75,0,0,1-.24,1A.77.77,0,0,1,401.12,102.78Zm-3.46-6.52a.73.73,0,0,1-.68-.44c-.41-.91-.78-1.84-1.13-2.77a.74.74,0,0,1,.43-1,.73.73,0,0,1,1,.43c.34.91.71,1.81,1.1,2.7a.73.73,0,0,1-.37,1A.8.8,0,0,1,397.66,96.26Zm-2.47-7a.74.74,0,0,1-.71-.55c-.26-1-.49-2-.67-2.93a.74.74,0,0,1,.58-.87.75.75,0,0,1,.87.59c.18.93.39,1.88.65,2.83a.74.74,0,0,1-.53.9A.63.63,0,0,1,395.19,89.31ZM394,82a.74.74,0,0,1-.74-.69c-.05-.76-.08-1.51-.08-2.25,0-.26,0-.52,0-.77a.78.78,0,0,1,.76-.72.74.74,0,0,1,.72.76c0,.24,0,.49,0,.73,0,.71,0,1.43.07,2.15A.73.73,0,0,1,394,82Zm.4-7.35-.15,0a.73.73,0,0,1-.58-.86,25,25,0,0,1,.75-3,.74.74,0,0,1,1.41.46,22,22,0,0,0-.71,2.77A.75.75,0,0,1,394.36,74.69Zm2.52-6.9a.73.73,0,0,1-.63-1.11A18.2,18.2,0,0,1,398,64.16a.73.73,0,0,1,1-.1.74.74,0,0,1,.1,1,16.83,16.83,0,0,0-1.62,2.32A.73.73,0,0,1,396.88,67.79Zm4.91-5.44a.74.74,0,0,1-.42-1.34A17.59,17.59,0,0,1,404,59.46a.74.74,0,1,1,.62,1.34,15.86,15.86,0,0,0-2.43,1.41A.69.69,0,0,1,401.79,62.35Zm6.77-2.78a.74.74,0,0,1-.13-1.47,18.14,18.14,0,0,1,3.06-.26h0a.74.74,0,0,1,0,1.47,17.39,17.39,0,0,0-2.82.25Z" transform="translate(-80 -2.84)"/><ellipse class="cls-10" cx="419.61" cy="89.36" rx="14.46" ry="25.06" transform="translate(-67.74 221.14) rotate(-30.31)"/><path class="cls-3" d="M441.56,197.69c0-11.26-7.95-25-17.77-30.65-4.73-2.73-9-3.09-12.22-1.47v0L407.1,168l1.28,2.19a17.9,17.9,0,0,0-.92,6c0,11.26,8,25,17.77,30.65A18,18,0,0,0,431,209l1.31,2.24,3.55-1.9C439.36,207.68,441.56,203.62,441.56,197.69Z" transform="translate(-80 -2.84)"/><path class="cls-7" d="M437.77,199.74c0,11.26-7.95,15.79-17.77,10.13s-17.77-19.39-17.77-30.66,8-15.79,17.77-10.13S437.77,188.47,437.77,199.74Z" transform="translate(-80 -2.84)"/><path class="cls-9" d="M427.58,221.21a21.06,21.06,0,0,1-3.05-.22.74.74,0,0,1-.62-.84.73.73,0,0,1,.84-.62,19.46,19.46,0,0,0,2.83.21.74.74,0,1,1,0,1.47Zm-7.23-1.3a.73.73,0,0,1-.25,0,28.7,28.7,0,0,1-2.79-1.18.73.73,0,0,1-.35-1,.75.75,0,0,1,1-.35,25,25,0,0,0,2.65,1.12.74.74,0,0,1-.25,1.43Zm-6.56-3.35a.78.78,0,0,1-.41-.12c-.81-.54-1.63-1.14-2.43-1.78a.74.74,0,1,1,.92-1.16c.77.62,1.55,1.19,2.33,1.71a.74.74,0,0,1-.41,1.35Zm-5.69-4.68a.74.74,0,0,1-.52-.22c-.71-.7-1.4-1.42-2.07-2.18a.73.73,0,0,1,.07-1,.74.74,0,0,1,1,.06c.65.73,1.31,1.44,2,2.11a.75.75,0,0,1-.52,1.27Zm-4.82-5.59a.73.73,0,0,1-.59-.3c-.59-.81-1.16-1.63-1.71-2.47a.74.74,0,1,1,1.24-.8c.53.81,1.08,1.61,1.66,2.39a.75.75,0,0,1-.6,1.18ZM399.34,200a.73.73,0,0,1-.65-.39c-.47-.88-.92-1.77-1.34-2.68a.74.74,0,1,1,1.34-.62c.41.88.84,1.75,1.3,2.61a.73.73,0,0,1-.3,1A.72.72,0,0,1,399.34,200Zm-3-6.74a.73.73,0,0,1-.7-.49c-.34-.94-.65-1.9-.92-2.85a.74.74,0,1,1,1.42-.41c.27.92.56,1.85.89,2.76a.74.74,0,0,1-.44.95A.73.73,0,0,1,396.34,193.3Zm-1.92-7.12a.73.73,0,0,1-.72-.61c-.18-1-.31-2-.41-3a.74.74,0,0,1,.67-.8.73.73,0,0,1,.8.66c.09.95.22,1.91.39,2.87a.75.75,0,0,1-.6.86Z" transform="translate(-80 -2.84)"/><ellipse class="cls-10" cx="419.61" cy="189.69" rx="14.46" ry="25.06" transform="translate(-118.37 234.86) rotate(-30.31)"/><path class="cls-7" d="M428.68,85,411.39,75c-1.06-.61-1.92,0-1.92,1.45V90a4.6,4.6,0,0,0,1.92,3.67l17.29,10c1.06.61,1.92,0,1.92-1.45V88.63A4.6,4.6,0,0,0,428.68,85Zm1,18.19-6.82-11.52-2.84,2-2.83-5.29L410.38,92s5.58-4.46,6.14-4.91l-6.29-11.77,9.8,16.2s9.82-4.85,9.83-4.83l-6.32,4.46C424.17,92.38,429.7,103.14,429.69,103.15Z" transform="translate(-80 -2.84)"/><path class="cls-7" d="M425.12,137.5c1.47,4.5-.55,7-1.81,7.75s-4.49,1.18-7.67-2.35l-4.88,2.79c3.69,5.72,9.53,6.17,14.68,3.23s7.69-8.16,4.56-14.2Z" transform="translate(-80 -2.84)"/><path class="cls-7" d="M409.5,140.67l2.43-1.39c.68-.38,1.79.25,2.47,1.43l.94,1.62-4.9,2.79-.94-1.62C408.82,142.33,408.82,141.06,409.5,140.67Z" transform="translate(-80 -2.84)"/><path class="cls-7" d="M423.83,132.5l2.44-1.39c.68-.39,1.78.25,2.46,1.42l.94,1.62-4.9,2.8-.94-1.62C423.15,134.15,423.15,132.89,423.83,132.5Z" transform="translate(-80 -2.84)"/><path class="cls-7" d="M420,177c-5.37-3.1-9.71-.62-9.71,5.54,0,5.87,4,13,9,16.29v5.48l4.2-3.76c3.64.48,6.22-2.06,6.22-6.8C429.69,187.59,425.34,180.1,420,177Zm-3.84,10.08c-.59.34-1.55-.22-2.14-1.23s-.59-2.12,0-2.45,1.55.21,2.14,1.23S416.73,186.74,416.14,187.08Zm4.9,2.83c-.58.34-1.54-.21-2.13-1.23s-.59-2.11,0-2.45,1.55.22,2.13,1.23S421.63,189.58,421,189.91Zm4.91,2.84c-.59.33-1.54-.22-2.13-1.24s-.59-2.11,0-2.45,1.54.22,2.13,1.24S426.54,192.41,426,192.75Z" transform="translate(-80 -2.84)"/><polygon class="cls-53" points="126.41 77.57 153.4 136.35 200.98 86.4 178.96 66.35 153.4 109.45 141.32 80.48 126.41 77.57"/><polygon class="cls-41" points="128.46 65.92 153.2 119.8 196.82 74.01 176.64 55.64 153.2 95.15 142.13 68.59 128.46 65.92"/><polygon class="cls-42" points="124.77 68.63 149.51 122.51 193.13 76.72 172.95 58.34 149.51 97.85 138.44 71.29 124.77 68.63"/><polygon class="cls-41" points="196.82 74.01 193.13 76.72 149.51 122.51 153.2 119.8 196.82 74.01"/><polygon class="cls-43" points="128.46 65.92 124.77 68.63 138.44 71.29 142.13 68.59 128.46 65.92"/><polygon class="cls-43" points="193.13 76.72 172.95 58.34 176.64 55.64 196.82 74.01 193.13 76.72"/><polygon class="cls-7" points="138.48 70.69 124.77 68.63 138.44 71.29 142.13 68.59 138.48 70.69"/><polygon class="cls-7" points="193.13 76.72 172.95 58.34 193.18 75.98 196.82 74.01 193.13 76.72"/><polygon class="cls-54" points="191.32 219.68 184.45 221.2 186.87 213.41 180.21 203.76 188.57 208.4 191.32 200.92 194.06 211.57 202.42 216.59 195.76 218.54 198.18 229.12 191.32 219.68"/><polygon class="cls-55" points="195.76 218.54 198.18 229.12 198.18 229.12 198.18 229.12 199.72 228.12 197.41 218.06 195.76 218.54"/><polygon class="cls-55" points="188.57 208.4 189.14 206.85 181.75 202.76 180.43 203.83 182.43 204.99 188.57 208.4"/><polygon class="cls-55" points="195.6 210.56 192.85 199.91 191.32 200.92 191.32 200.92 194.06 211.57 202.42 216.59 202.42 216.59 203.96 215.59 195.6 210.56"/><polygon class="cls-7" points="195.76 218.54 198.18 229.12 198.18 229.12 198.18 229.12 196.26 218.39 195.76 218.54"/><polygon class="cls-7" points="188.57 208.4 188.75 207.92 180.43 203.83 182.43 204.99 188.57 208.4"/><polygon class="cls-7" points="194.53 211.32 191.32 200.92 191.32 200.92 194.06 211.57 202.42 216.59 202.42 216.59 194.53 211.32"/><polygon class="cls-54" points="167.13 205.85 160.26 207.37 162.69 199.58 156.02 189.93 164.38 194.56 167.13 187.09 169.88 197.74 178.24 202.76 171.57 204.71 173.99 215.29 167.13 205.85"/><polygon class="cls-55" points="171.57 204.71 173.99 215.29 173.99 215.29 173.99 215.29 175.53 214.29 173.23 204.22 171.57 204.71"/><polygon class="cls-55" points="164.38 194.56 164.95 193.02 157.56 188.93 156.24 190 158.24 191.16 164.38 194.56"/><polygon class="cls-55" points="171.41 196.73 168.67 186.08 167.13 187.09 167.13 187.09 169.88 197.74 178.23 202.76 178.24 202.76 179.77 201.76 171.41 196.73"/><polygon class="cls-7" points="171.57 204.71 173.99 215.29 173.99 215.29 173.99 215.29 172.08 204.56 171.57 204.71"/><polygon class="cls-7" points="164.38 194.56 164.56 194.09 156.24 190 158.24 191.16 164.38 194.56"/><polygon class="cls-7" points="170.34 197.49 167.13 187.09 167.13 187.09 169.88 197.74 178.23 202.76 178.24 202.76 170.34 197.49"/><polygon class="cls-54" points="142.94 192.02 136.08 193.53 138.5 185.75 131.83 176.1 140.2 180.73 142.94 173.25 145.69 183.9 154.05 188.93 147.38 190.88 149.81 201.46 142.94 192.02"/><polygon class="cls-55" points="147.38 190.88 149.81 201.46 149.81 201.46 149.81 201.46 151.34 200.46 149.04 190.39 147.38 190.88"/><polygon class="cls-55" points="140.2 180.73 140.76 179.19 133.37 175.1 132.06 176.17 134.05 177.33 140.2 180.73"/><polygon class="cls-55" points="147.22 182.9 144.48 172.25 142.94 173.25 142.94 173.25 145.69 183.9 154.05 188.93 154.05 188.93 155.59 187.93 147.22 182.9"/><polygon class="cls-7" points="147.38 190.88 149.81 201.46 149.81 201.46 149.81 201.46 147.89 190.73 147.38 190.88"/><polygon class="cls-7" points="140.2 180.73 140.37 180.26 132.06 176.17 134.05 177.33 140.2 180.73"/><polygon class="cls-7" points="146.15 183.66 142.94 173.25 142.94 173.25 145.69 183.9 154.05 188.93 154.05 188.93 146.15 183.66"/><polygon class="cls-54" points="118.75 178.19 111.89 179.7 114.31 171.92 107.65 162.27 116.01 166.9 118.75 159.42 121.5 170.07 129.86 175.1 123.2 177.05 125.62 187.63 118.75 178.19"/><polygon class="cls-55" points="123.2 177.05 125.62 187.63 125.62 187.63 125.62 187.63 127.16 186.63 124.85 176.56 123.2 177.05"/><polygon class="cls-55" points="116.01 166.9 116.57 165.36 109.18 161.27 107.87 162.34 109.86 163.5 116.01 166.9"/><polygon class="cls-55" points="123.04 169.07 120.29 158.42 118.75 159.42 118.75 159.42 121.5 170.07 129.86 175.09 129.86 175.1 131.4 174.09 123.04 169.07"/><polygon class="cls-7" points="123.2 177.05 125.62 187.63 125.62 187.63 125.62 187.63 123.7 176.9 123.2 177.05"/><polygon class="cls-7" points="116.01 166.9 116.18 166.43 107.87 162.34 109.86 163.5 116.01 166.9"/><polygon class="cls-7" points="121.97 169.82 118.75 159.42 118.75 159.42 121.5 170.07 129.86 175.09 129.86 175.1 121.97 169.82"/><polygon class="cls-54" points="94.57 164.35 87.7 165.87 90.12 158.09 83.46 148.44 91.82 153.07 94.57 145.59 97.31 156.24 105.67 161.26 99.01 163.22 101.43 173.8 94.57 164.35"/><polygon class="cls-55" points="99.01 163.22 101.43 173.8 101.43 173.8 101.43 173.8 102.97 172.8 100.67 162.73 99.01 163.22"/><polygon class="cls-55" points="91.82 153.07 92.39 151.53 85 147.44 83.68 148.51 85.67 149.67 91.82 153.07"/><polygon class="cls-55" points="98.85 155.24 96.1 144.59 94.57 145.59 94.57 145.59 97.31 156.24 105.67 161.26 105.67 161.26 107.21 160.26 98.85 155.24"/><polygon class="cls-7" points="99.01 163.22 101.43 173.8 101.43 173.8 101.43 173.8 99.51 163.07 99.01 163.22"/><polygon class="cls-7" points="91.82 153.07 92 152.6 83.68 148.51 85.67 149.67 91.82 153.07"/><polygon class="cls-7" points="97.78 155.99 94.57 145.59 94.57 145.59 97.31 156.24 105.67 161.26 105.67 161.26 97.78 155.99"/></g></g></svg>