<svg id="Capa_1" enable-background="new 0 0 511.999 511.999" height="512" viewBox="0 0 511.999 511.999" width="512" xmlns="http://www.w3.org/2000/svg"><g><g><path d="m261.096 170.044c.059 0 .107.001.148.003 1.603 1.542 4.141 8.473 7.551 20.617 3.302 11.754 6.715 23.908 13.813 34.69 10.105 15.35 25.18 23.463 43.594 23.463 17.515 0 32.329-6.947 44.031-20.648 8.537-9.993 14.294-22.241 19.861-34.087 15.801-33.613 27.213-57.898 92.449-39.985 5.998 1.649 12.279.861 17.684-2.215 5.406-3.076 9.291-8.074 10.938-14.072 3.399-12.381-3.907-25.221-16.288-28.621-31.378-8.617-58.363-9.788-80.212-3.479-3.979 1.149-6.274 5.306-5.126 9.286 1.149 3.98 5.307 6.273 9.286 5.125 19.154-5.53 43.406-4.342 72.079 3.533 4.406 1.21 7.006 5.778 5.796 10.184-.586 2.135-1.969 3.914-3.892 5.008-1.925 1.094-4.16 1.374-6.293.788-34.834-9.566-59.416-8.684-77.362 2.78-16.213 10.355-24.189 27.324-32.636 45.29-5.145 10.947-10.465 22.266-17.69 30.724-8.846 10.356-19.518 15.391-32.626 15.391-13.313 0-23.765-5.623-31.064-16.711-5.815-8.834-8.909-19.847-11.9-30.497-5.66-20.159-9.479-31.564-22.141-31.564-24.096 0-33.854 40.933-44.19 84.294-6.268 26.29-12.749 53.474-23.281 74.497-12.96 25.867-30.153 38.441-52.563 38.441-17.291 0-31.213-9.267-42.562-28.329-9.28-15.591-16.096-36.179-23.311-57.975-9.151-27.644-18.613-56.229-33.956-78.025-7.813-11.1-16.408-19.323-26.232-25.109v-18.58c15.32 6.923 28.679 18.375 39.785 34.151 16.752 23.8 27.05 54.909 36.136 82.356 13.311 40.212 24.806 74.94 50.14 74.94 33.266 0 45.739-41.544 59.735-100.256 5.728-24.022 11.138-46.713 19.334-64.313 10.237-21.979 23.638-32.664 40.966-32.664 11.698 0 20.915 5.222 27.396 15.522 5.055 8.034 7.925 18.251 10.7 28.132 6.114 21.773 10.69 35.118 27.01 35.118 17.276 0 24.333-13.223 35.319-36.593 6.767-14.395 15.188-32.311 29.586-45.233 3.082-2.767 3.339-7.508.572-10.591s-7.508-3.341-10.592-.572c-16.66 14.953-25.799 34.394-33.141 50.015-12.018 25.563-15.508 27.975-21.745 27.975-3.48 0-5.78 0-12.568-24.174-3.064-10.911-6.233-22.192-12.446-32.065-9.142-14.531-23.38-22.533-40.091-22.533-16.109 0-38.652 7.17-54.563 41.331-6.073 13.04-10.608 28.171-14.77 44.411-4.756-1.458-9.64-2.54-14.575-3.224-31.509-4.372-57.848 2.132-82.215 20.416-7.261-19.762-15.969-39.649-27.922-56.63-14.135-20.082-31.641-34.095-52.052-41.728v-80.235c0-4.142-3.357-7.5-7.5-7.5s-7.5 3.358-7.5 7.5v429.191c0 4.142 3.357 7.5 7.5 7.5h478.851c4.143 0 7.5-3.358 7.5-7.5s-3.357-7.5-7.5-7.5h-22.337v-8c0-4.142-3.357-7.5-7.5-7.5s-7.5 3.358-7.5 7.5v8h-26.293v-8c0-4.142-3.357-7.5-7.5-7.5s-7.5 3.358-7.5 7.5v8h-26.294v-8c0-4.142-3.357-7.5-7.5-7.5s-7.5 3.358-7.5 7.5v8h-26.293v-8c0-4.142-3.357-7.5-7.5-7.5s-7.5 3.358-7.5 7.5v8h-26.294v-8c0-4.142-3.357-7.5-7.5-7.5s-7.5 3.358-7.5 7.5v8h-26.293v-8c0-4.142-3.357-7.5-7.5-7.5s-7.5 3.358-7.5 7.5v8h-26.294v-8c0-4.142-3.357-7.5-7.5-7.5s-7.5 3.358-7.5 7.5v8h-26.294v-8c0-4.142-3.357-7.5-7.5-7.5s-7.5 3.358-7.5 7.5v8h-26.293v-8c0-4.142-3.357-7.5-7.5-7.5s-7.5 3.358-7.5 7.5v8h-26.294v-8c0-4.142-3.357-7.5-7.5-7.5s-7.5 3.358-7.5 7.5v8h-26.293v-8c0-4.142-3.357-7.5-7.5-7.5s-7.5 3.358-7.5 7.5v8h-21.079v-108.767c26.728-9.507 45.939-28.202 61.769-46.568 2.713 6.188 5.622 12.04 8.841 17.448 14.085 23.66 32.741 35.656 55.45 35.656 28.244 0 50.441-15.72 65.974-46.723 4.907-9.794 8.942-20.62 12.469-31.953 6.24 8.404 11.922 17.245 16.488 24.56 1.423 2.278 3.867 3.529 6.369 3.529 1.356 0 2.729-.368 3.965-1.139 3.514-2.193 4.584-6.82 2.391-10.334-6.351-10.173-14.799-23.213-24.13-34.441 1.702-6.441 3.309-12.951 4.875-19.452 16.428 17.219 29.751 39.123 42.69 60.395 18.705 30.752 36.374 59.799 56.867 59.799 17.247 0 24.529-19.929 32.963-43.005 5.353-14.65 10.888-29.8 19.863-40.911 11.06-13.691 25.755-18.949 43.68-15.62.34.063.68.148 1.008.253 34.387 10.975 39.043 44.985 43.151 74.999 3.271 23.886 6.359 46.446 22.21 57.669 1.806 1.279 3.006 3.185 3.379 5.366s-.127 4.377-1.406 6.185c-1.551 2.19-4.084 3.498-6.776 3.498-1.714 0-3.365-.527-4.774-1.524-21.719-15.38-25.446-42.615-29.051-68.953-3.885-28.363-7.239-52.857-30.637-61.072-.424-.149-.861-.259-1.305-.33-23.734-3.775-32.368 14.907-43.778 46.129-4.552 12.458-9.259 25.34-16.033 35.247-8.576 12.543-19.205 18.641-32.493 18.641-23.965 0-41.485-20.295-61.985-53.042-2.198-3.511-6.826-4.575-10.337-2.377s-4.575 6.826-2.378 10.336c19.032 30.401 40.478 60.083 74.7 60.083 18.097 0 33.614-8.705 44.876-25.174 7.835-11.459 12.87-25.24 17.739-38.566 12.573-34.405 17.501-37.842 26.647-36.566 12.832 4.899 16.02 18.769 20.122 48.726 3.659 26.74 8.214 60.019 35.244 79.16 3.958 2.802 8.605 4.283 13.439 4.283h.004c7.551 0 14.66-3.675 19.017-9.83 3.596-5.076 4.998-11.248 3.951-17.379-1.048-6.131-4.421-11.487-9.497-15.082-10.54-7.462-13.2-26.892-16.018-47.468-4.24-30.974-10.047-73.395-53.451-87.248-.925-.295-1.878-.535-2.833-.711-23.084-4.283-43.715 3.154-58.083 20.943-10.541 13.049-16.512 29.388-22.284 45.188-6.629 18.139-12.624 33.153-18.874 33.153-12.061 0-30.551-30.398-44.053-52.596-14.342-23.579-30.571-50.222-51.429-69.621 3.783-15.687 7.779-31.259 12.579-43.581 7.27-18.662 12.899-20.677 14.981-20.677zm-120.035 150.661c-11.23 0-19.99-18.666-29.863-46.838 15.774-15.913 32.262-25.54 59.596-21.746 3.293.456 6.578 1.315 9.804 2.524-10.083 38.715-20.795 66.06-39.537 66.06zm34.066-99.858c4.421.613 8.785 1.622 13.027 2.973-.651 2.706-1.301 5.429-1.955 8.172-.647 2.713-1.29 5.384-1.932 8.023-3.751-1.292-7.573-2.22-11.413-2.753-31.531-4.377-51.736 7.049-66.982 20.927-.236-.711-.472-1.419-.71-2.138-1.594-4.816-3.23-9.746-4.926-14.73 22.123-17.97 46-24.481 74.891-20.474zm-146.16-24.265c12.757 18.124 21.434 42.443 29.51 66.664-1.789 2.168-3.557 4.332-5.308 6.477-12.91 15.811-24.349 29.788-38.169 39.118v-127.716c4.958 4.109 9.578 9.222 13.967 15.457zm-13.967 148.078v-18.36c19.509-10.263 33.94-27.686 49.073-46.216 2.098 6.264 4.204 12.392 6.392 18.318-15.126 18.181-31.926 36.359-55.465 46.258z"/><path d="m332.926 124.304h4.436v4.435c0 4.142 3.357 7.5 7.5 7.5s7.5-3.358 7.5-7.5v-4.435h4.435c4.143 0 7.5-3.358 7.5-7.5s-3.357-7.5-7.5-7.5h-4.435v-4.435c0-4.142-3.357-7.5-7.5-7.5s-7.5 3.358-7.5 7.5v4.435h-4.436c-4.143 0-7.5 3.358-7.5 7.5s3.357 7.5 7.5 7.5z"/><path d="m245.442 407.596c4.143 0 7.5-3.358 7.5-7.5v-4.435h4.435c4.143 0 7.5-3.358 7.5-7.5s-3.357-7.5-7.5-7.5h-4.435v-4.435c0-4.142-3.357-7.5-7.5-7.5s-7.5 3.358-7.5 7.5v4.435h-4.436c-4.143 0-7.5 3.358-7.5 7.5s3.357 7.5 7.5 7.5h4.436v4.435c0 4.142 3.358 7.5 7.5 7.5z"/><path d="m131.838 177.491c34.632 0 64.579-23.47 72.826-57.075.987-4.023-1.474-8.084-5.497-9.071-4.024-.988-8.084 1.474-9.071 5.496-6.596 26.878-30.552 45.65-58.258 45.65-33.082 0-59.997-26.916-59.997-60s26.915-60 59.997-60c26.504 0 50.188 17.762 57.594 43.194 1.159 3.976 5.319 6.266 9.299 5.104 3.977-1.158 6.262-5.321 5.104-9.298-9.261-31.794-38.866-54-71.996-54-41.354 0-74.997 33.645-74.997 75s33.642 75 74.996 75z"/><path d="m143.031 76.547c2.927 0 5.811.49 8.571 1.456 3.91 1.365 8.188-.692 9.557-4.602s-.692-8.188-4.602-9.557c-4.356-1.525-8.908-2.298-13.526-2.298-16.244 0-30.307 9.507-36.921 23.249h-3.279c-4.143 0-7.5 3.358-7.5 7.5 0 3.924 3.014 7.139 6.853 7.467-.06.904-.101 1.813-.101 2.731s.041 1.828.101 2.731c-3.839.328-6.853 3.543-6.853 7.467 0 4.142 3.357 7.5 7.5 7.5h3.279c6.614 13.741 20.678 23.249 36.921 23.249 4.618 0 9.17-.773 13.526-2.298 3.909-1.369 5.97-5.647 4.602-9.557-1.368-3.909-5.646-5.97-9.557-4.602-2.761.966-5.645 1.456-8.571 1.456-7.471 0-14.211-3.178-18.95-8.249h17.76c4.143 0 7.5-3.358 7.5-7.5s-3.357-7.5-7.5-7.5h-24.618c-.092-.887-.141-1.787-.141-2.699 0-.911.048-1.811.141-2.699h24.618c4.143 0 7.5-3.358 7.5-7.5s-3.357-7.5-7.5-7.5h-17.761c4.74-5.067 11.48-8.245 18.951-8.245z"/></g></g></svg>