<svg xmlns="http://www.w3.org/2000/svg" viewBox="0 0 29.24 29.24"><title>Asset 1</title><g id="Layer_2" data-name="Layer 2"><g id="ELEMENTS"><circle cx="14.62" cy="14.62" r="14.62" style="fill:#205cff"/><path d="M20.58,10.33l1.13-1.08V9H17.79L15,16,11.82,9H7.71v.24L9,10.84a.54.54,0,0,1,.18.46v6.25a.7.7,0,0,1-.19.62L7.53,20v.24h4.22V20l-1.48-1.8a.71.71,0,0,1-.21-.62V12.14l3.71,8.07h.43l3.18-8.07v6.43c0,.17,0,.21-.11.32L16.12,20v.24h5.56V20l-1.1-1.09a.31.31,0,0,1-.13-.31v-8a.31.31,0,0,1,.13-.31Z" style="fill:#fff"/></g></g></svg>